<svg width="106" height="338" viewBox="0 0 106 338" fill="none" xmlns="http://www.w3.org/2000/svg">
<path d="M12.2655 282.936C14.9647 267.397 -0.613315 123.724 5.82611 108.185C9.79774 98.622 20.0545 93.6864 27.3808 91.3342C32.2007 89.7919 35.3626 85.7431 35.3626 81.2702L35.3626 11.6704L53.0999 11.6704L70.8373 11.6704L70.8373 81.2702C70.8373 85.7817 74.0378 89.7919 78.8191 91.3342C86.1454 93.7249 96.4022 98.622 100.374 108.185C106.813 123.724 91.2353 267.397 93.9344 282.936C96.6336 298.476 106.273 302.255 105.194 314.478C104.538 321.804 101.801 326.778 99.6798 329.593C98.3688 331.328 93.009 334.259 90.6954 334.683C71.6085 338.076 35.8253 337.883 13.885 334.683C11.5329 334.336 7.86973 331.328 6.55871 329.593C4.43794 326.778 1.66164 321.804 1.04469 314.478C-0.112098 302.216 9.56636 298.476 12.2655 282.936Z" fill="#7BB350"/>
<path d="M13.8079 335.185C11.4558 334.838 7.79266 331.83 6.48164 330.095C4.36087 327.28 1.58456 322.306 0.967613 314.979C-0.112051 302.718 9.56635 298.977 12.227 283.438C14.9261 267.898 -0.651884 124.226 5.78755 108.686C9.75917 99.1236 20.016 94.188 27.3422 91.8359C32.1622 90.2935 35.3241 86.2448 35.3241 81.7719V55.4358C40.414 55.3201 45.4652 55.59 50.5165 56.0912C55.6064 56.5925 66.2488 56.3226 70.7602 59.7158V69.1629C65.3619 72.0549 55.028 73.0574 52.9072 75.1396C48.0487 79.7668 49.4754 88.4041 44.9254 93.3011C41.4551 97.0414 35.7868 97.3884 31.1597 99.4321C23.8334 102.633 19.0906 110.075 17.1626 117.825C15.2346 125.575 15.6973 133.673 16.1986 141.655C18.5893 181.332 21.1342 221.666 34.7842 259.03C39.5271 271.986 45.8508 284.865 56.339 293.849C48.2415 291.921 37.7148 293.309 34.5914 301.06C32.702 305.725 34.3987 311.316 37.7148 315.095C41.0309 318.913 45.6966 321.226 50.4008 323.077C66.6344 329.401 84.7573 330.635 101.724 326.817C101.029 328.128 100.297 329.208 99.6413 330.095C98.3303 331.83 92.9705 334.76 90.6569 335.185C71.57 338.539 35.7483 338.385 13.8079 335.185Z" fill="#50A042"/>
<path d="M33.3963 4.26801C37.098 1.02901 47.0463 0.48915 51.9433 0.334913V0.257812C52.2133 0.257812 52.6374 0.296363 53.2158 0.296363C53.7942 0.296363 54.2184 0.257812 54.4883 0.257812V0.334913C59.3854 0.48915 69.3337 1.02901 73.0354 4.26801C74.1536 5.23199 73.9994 7.27564 73.9994 8.89514C73.9608 17.5325 73.9222 26.1698 73.8837 34.8071C73.8837 35.6554 73.8451 36.5422 73.421 37.1977C73.1896 37.5062 72.9197 37.7762 72.6884 38.0846C72.2256 38.8558 72.3799 39.9355 72.5341 40.8609C73.1125 44.2927 72.9968 47.8402 72.8426 51.3491C72.7269 54.8194 72.5727 58.2898 72.457 61.7602C72.4184 62.9169 72.3028 64.2279 71.493 64.9606C71.0303 65.3847 70.4133 65.539 69.7964 65.6932C64.7451 66.9271 41.6479 66.9271 36.5967 65.6932C36.0183 65.539 35.3628 65.3847 34.9001 64.9606C34.0903 64.2279 34.0132 62.9169 33.9361 61.7602C33.8204 58.2898 33.6662 54.8194 33.5505 51.3491C33.4348 47.8402 33.2806 44.3312 33.859 40.8609C34.0132 39.9355 34.206 38.8944 33.7047 38.0846C33.5119 37.7376 33.2035 37.5062 32.9721 37.1977C32.5094 36.5422 32.5094 35.6168 32.5094 34.8071C32.4708 26.1698 32.4323 17.5325 32.3937 8.89514C32.4323 7.27564 32.2781 5.23199 33.3963 4.26801Z" fill="#23753A"/>
<path d="M33.3963 4.26752C37.098 1.02852 47.0463 0.488662 51.9433 0.334424V0.257324C52.0204 0.257324 52.059 0.257324 52.1361 0.257324C50.3624 1.33699 49.5912 4.42176 49.1671 6.77388C48.3187 11.401 47.9717 16.1824 48.126 20.9252C48.2416 25.2438 49.0128 30.0252 51.6349 32.5701C53.2929 34.1896 55.4137 34.6138 57.4573 34.9608C60.1179 35.4235 62.8171 35.9248 65.4777 36.3875C60.3108 36.6574 55.1052 37.5443 50.0539 38.971C49.2056 39.2024 48.3573 39.4723 47.6632 40.2049C46.8149 41.0918 46.3522 42.4799 45.9666 43.8681C45.2725 46.4901 44.7713 49.1893 44.4628 51.927C44.2315 53.9706 44.1543 56.13 44.617 58.0965C45.6196 62.4152 49.0514 64.9601 52.3675 65.8084C54.2955 66.3097 56.2234 66.4254 58.19 66.5796C49.784 66.7724 39.7585 66.4639 36.6352 65.7313C36.0568 65.577 35.4014 65.4228 34.9387 64.9987C34.1289 64.266 34.0518 62.955 33.9747 61.7982C33.859 58.3279 33.7047 54.8575 33.5891 51.3872C33.4734 47.8782 33.3191 44.3694 33.8975 40.899C34.0517 39.9736 34.2445 38.9324 33.7433 38.1227C33.5505 37.7757 33.242 37.5443 33.0107 37.2359C32.548 36.5803 32.5479 35.6549 32.5479 34.8451C32.5093 26.2078 32.4708 17.5705 32.4323 8.9332C32.4323 7.27515 32.278 5.2315 33.3963 4.26752Z" fill="#174923"/>
<path d="M78.7807 105.987C83.9091 107.298 89.3845 109.457 91.8523 114.123C93.4718 117.207 93.5104 120.87 93.4718 124.341C93.0862 154.109 89.7316 183.722 86.3769 213.259C84.6417 228.49 82.9065 243.721 81.1714 258.952C80.6315 263.81 79.976 268.9 77.0069 272.795C76.5442 273.412 76.0044 273.99 75.3103 274.299C73.6137 275.07 71.6472 273.99 70.3362 272.679C66.0561 268.283 65.709 261.535 65.709 255.443C65.709 239.634 66.2874 223.786 65.5548 207.976C64.9764 195.329 63.2412 181.949 55.298 172.077C46.9306 161.628 32.8178 156.731 25.3372 145.664C19.4762 137.027 18.2423 122.76 23.8335 113.544C29.0775 104.868 45.1183 104.059 53.9484 103.596C62.3158 103.172 70.6832 103.943 78.7807 105.987Z" fill="#8EC95B"/>
<path d="M94.8208 299.17C96.7488 302.062 98.2526 305.532 97.52 308.926C96.7488 312.358 93.7411 314.941 90.425 316.098C87.1089 317.255 83.4843 317.216 79.9754 316.985C70.7597 316.445 61.6211 314.902 52.5597 313.013C50.4003 312.55 48.2024 312.088 46.3901 310.854C44.5779 309.62 43.1897 307.499 43.4982 305.301C43.8838 302.756 46.4287 301.021 48.9736 300.558C51.5185 300.096 54.102 300.674 56.6855 300.905C59.269 301.137 62.0453 301.021 64.1275 299.479C65.3614 298.553 66.2482 297.204 67.2894 296.047C71.1067 292.037 77.6233 290.996 82.9445 290.841C88.5742 290.726 91.8132 294.697 94.8208 299.17Z" fill="#8EC95B"/>
<path d="M13.8077 122.568C16.1598 118.75 19.0132 115.164 20.9412 111.116C27.0336 112.157 32.8947 114.316 39.0642 115.049C40.1053 115.164 48.2028 115.704 53.1769 115.781C58.1511 115.704 66.2486 115.164 67.2897 115.049C73.4592 114.316 79.3588 112.157 85.4126 111.116C87.3406 115.203 90.194 118.75 92.5461 122.568C92.7389 122.915 92.9703 123.301 92.8932 123.686C92.8546 124.033 92.5847 124.342 92.3148 124.573C81.441 134.868 67.3283 140.652 53.1384 140.768C38.9485 140.652 24.8357 134.868 13.9619 124.573C13.692 124.342 13.4606 124.072 13.3835 123.686C13.3835 123.262 13.5764 122.915 13.8077 122.568Z" fill="#23753A"/>
<path d="M93.5104 166.757L86.3383 252.629H56.9174H53.1772H23.7563L16.5843 166.757H93.5104Z" fill="#23753A"/>
<path d="M30.5811 290.802C30.7739 291.38 30.928 292.074 30.6196 292.614C30.3111 293.115 29.6556 293.308 29.0772 293.462C20.7869 295.814 15.7742 306.033 18.9746 313.976C20.7098 318.333 24.4115 321.688 28.4988 323.924C32.6247 326.199 37.1747 327.472 41.6862 328.744C32.9717 329.978 23.756 327.433 16.931 321.88C14.1161 319.605 11.6483 316.752 10.4144 313.32C7.40681 304.876 13.3449 295.043 21.6738 291.843C18.9361 274.799 17.1623 257.64 16.3526 240.404C17.0081 248.81 18.7433 256.329 22.098 263.964C25.8768 272.447 27.8819 281.971 30.5811 290.802Z" fill="#4C913D"/>
<path d="M19.0139 173.081H90.773V178.672H19.0139V173.081Z" fill="#195126"/>
<path d="M19.0134 180.33H90.7725V183.145H19.0134V180.33Z" fill="#195126"/>
<path d="M55.0279 216.498C49.5549 216.498 45.1181 210.37 45.1181 202.81C45.1181 195.25 49.5549 189.121 55.0279 189.121C60.5009 189.121 64.9377 195.25 64.9377 202.81C64.9377 210.37 60.5009 216.498 55.0279 216.498Z" fill="#195126"/>
<path d="M25.645 248.657H85.2964V251.549H25.645V248.657Z" fill="#195126"/>
</svg>
