<svg width="21" height="22" viewBox="0 0 21 22" fill="none" xmlns="http://www.w3.org/2000/svg">
<path d="M16.65 13.025C16.75 12.825 16.75 12.625 16.75 12.425C16.75 12.225 16.85 11.925 16.85 11.725C16.85 11.425 16.85 11.125 16.85 10.825C16.85 10.425 16.75 10.125 16.65 9.725C16.55 9.225 16.35 8.62499 16.25 8.12499C16.15 7.72499 15.95 7.325 15.75 6.925C15.55 6.625 15.45 6.325 15.25 6.025C15.05 5.825 14.95 5.62501 14.75 5.32501C14.45 5.02501 14.15 4.725 13.85 4.425C13.55 4.225 13.25 3.925 12.95 3.725C12.75 3.525 12.45 3.42501 12.15 3.32501C11.95 3.22501 11.65 3.125 11.45 3.025C11.25 2.925 11.15 2.925 10.95 2.925C10.75 2.925 10.55 2.82501 10.35 2.82501C9.95 2.82501 9.65001 2.82501 9.25001 2.82501C8.95001 2.82501 8.65001 2.925 8.25001 2.925C7.95001 3.025 7.65 3.02499 7.35 3.12499C7.15 3.22499 6.95 3.22501 6.85 3.32501C6.55 3.42501 6.35001 3.62501 6.05001 3.82501C5.85001 3.92501 5.65 4.12501 5.45 4.32501C5.25 4.52501 4.95001 4.725 4.75001 5.025C4.65001 5.225 4.45 5.325 4.35 5.525C4.15 5.925 3.95001 6.22499 3.75001 6.62499C3.55001 6.92499 3.45 7.32499 3.35 7.62499C3.25 8.02499 3.15001 8.42501 3.05001 8.82501C3.05001 8.72501 3.05001 8.72499 3.05001 8.62499C2.95001 9.12499 2.85 9.62499 2.85 10.125C2.85 10.125 2.85 10.125 2.85 10.225C3.25 10.625 3.35001 11.125 3.25001 11.625C3.25001 11.625 3.25001 11.625 3.25001 11.525C3.25001 11.525 3.25001 11.525 3.25001 11.625C3.25001 11.525 3.25001 11.525 3.25001 11.425C3.25001 11.525 3.25001 11.625 3.25001 11.625C3.25001 11.725 3.25001 11.725 3.25001 11.825C3.25001 12.125 3.25001 12.425 3.25001 12.725C3.25001 12.825 3.25001 12.925 3.25001 12.925C3.25001 13.125 3.35 13.225 3.35 13.425C3.45 13.625 3.55 13.825 3.65 14.025C3.75 14.225 3.85001 14.425 4.05001 14.725C4.25001 15.025 4.45001 15.325 4.75001 15.525C4.95001 15.725 5.15 16.025 5.45 16.225C5.75 16.425 6.05 16.725 6.35 16.925C6.55 17.025 6.85001 17.225 7.05001 17.325C7.25001 17.425 7.35001 17.425 7.55001 17.525C7.85001 17.625 8.15 17.725 8.35 17.725C8.65 17.825 8.95001 17.825 9.25001 17.825C9.75001 17.825 10.25 17.825 10.65 17.825C10.95 17.825 11.35 17.725 11.65 17.725C11.85 17.625 12.15 17.625 12.35 17.525C12.45 17.425 12.65 17.425 12.75 17.325C13.05 17.225 13.25 17.025 13.55 16.825C13.85 16.625 14.15 16.425 14.45 16.225C14.65 16.025 14.85 15.825 15.05 15.625C15.25 15.425 15.45 15.125 15.55 14.925C15.65 14.725 15.75 14.525 15.85 14.325C16.25 14.025 16.45 13.525 16.65 13.025ZM18.35 17.225C17.85 17.925 17.25 18.625 16.55 19.125C15.85 19.725 15.05 20.225 14.25 20.525C13.45 20.925 12.55 21.125 11.65 21.225C10.05 21.425 8.45 21.425 6.85 20.925C5.25 20.425 3.85 19.525 2.65 18.325C1.45 17.225 0.55 15.725 0.15 14.125C-0.05 13.325 -0.05 12.525 0.15 11.725C0.15 11.325 0.15 10.925 0.15 10.625C0.15 9.52499 0.35 8.525 0.65 7.525C1.35 5.225 2.65 3.02499 4.65 1.62499C5.15 1.22499 5.75 0.925 6.35 0.725C6.95 0.525 7.55 0.325 8.15 0.225C9.45 -0.075 10.85 -0.075 12.05 0.225C13.45 0.625 14.65 1.325 15.75 2.225C16.45 2.725 17.05 3.325 17.55 4.025C18.05 4.725 18.55 5.425 18.85 6.225C19.45 7.525 19.85 8.825 20.05 10.225C20.35 11.825 20.15 13.425 19.55 14.925C19.55 15.025 19.45 15.125 19.45 15.225C19.05 15.925 18.75 16.625 18.35 17.225Z" fill="#FFF6C4"/>
</svg>
