<svg width="17" height="16" viewBox="0 0 17 16" fill="none" xmlns="http://www.w3.org/2000/svg">
<path d="M8.77865 13.3987C8.97258 13.3987 9.16653 13.3987 9.16653 13.3987C9.36046 13.3987 9.55439 13.2053 9.74832 13.2053C9.94226 13.2053 10.1362 13.0118 10.3301 13.0118C10.5241 12.8183 10.9119 12.8183 11.1059 12.6248C11.4937 12.4313 11.8816 12.0443 12.0756 11.8509C12.2695 11.6574 12.6574 11.4639 12.8513 11.0769C13.0452 10.8834 13.2392 10.69 13.2392 10.4965C13.4331 10.303 13.4331 10.1095 13.627 9.91602C13.821 9.52906 13.821 9.33557 14.0149 8.94861C14.0149 8.75512 14.2088 8.36815 14.2088 8.17467C14.2088 7.98119 14.2088 7.78771 14.4028 7.40075C14.4028 7.20726 14.4028 7.01377 14.4028 6.82029C14.4028 6.62681 14.4028 6.62681 14.4028 6.43333C14.4028 6.23985 14.4028 6.04635 14.2088 6.04635C14.0149 5.85287 14.0149 5.4659 13.821 5.27242C13.627 5.07893 13.627 4.88546 13.4331 4.69198C13.2392 4.49849 13.2392 4.305 13.0452 4.11152C12.8513 3.91804 12.8513 3.91804 12.6573 3.72456C12.4634 3.53108 12.2695 3.33758 12.0756 3.33758C11.8816 3.1441 11.6877 3.14411 11.4937 2.95062C11.2998 2.75714 11.1059 2.75715 10.718 2.56366C10.5241 2.56366 10.3301 2.37017 10.1362 2.37017C9.74833 2.37017 9.5544 2.17669 9.16653 2.17669C8.77866 2.17669 8.58472 2.17669 8.19685 2.17669C7.80898 2.17669 7.61505 2.17668 7.22718 2.37017H7.42111C7.03324 2.37017 6.64538 2.56366 6.25751 2.75714C6.06357 3.14411 5.6757 3.3376 5.28783 3.53108C5.28783 3.53108 5.28784 3.53108 5.0939 3.53108C4.89997 3.53108 4.70602 3.72456 4.51209 3.72456C4.51209 3.72456 4.31816 3.72456 4.31816 3.91804C4.12422 3.91804 4.12421 4.11152 3.93028 4.11152C3.73634 4.305 3.73635 4.30501 3.54242 4.4985C3.34848 4.69198 3.34849 4.88546 3.15455 4.88546C2.96062 5.07894 2.76667 5.46591 2.76667 5.65939C2.57274 5.85288 2.57274 6.04636 2.37881 6.43333C2.37881 6.62681 2.18488 7.01377 2.18488 7.20725C2.18488 7.40074 2.18488 7.59423 2.18488 7.78771C2.18488 7.98119 2.18488 8.17467 2.18488 8.17467C2.18488 8.36815 2.18488 8.56164 2.18488 8.75513C2.18488 8.94861 2.37881 9.33558 2.37881 9.52906C2.57274 9.91603 2.57274 10.303 2.76667 10.4965C2.96061 10.69 2.96062 10.8834 3.15455 11.2704C3.34849 11.4639 3.34848 11.6574 3.54242 11.6574L3.73635 11.8509C3.93028 12.0443 4.12422 12.2378 4.31816 12.2378C4.51209 12.4313 4.70603 12.6248 5.0939 12.6248C5.28784 12.8183 5.48176 12.8183 5.6757 12.8183C5.86963 12.8183 6.06357 13.0118 6.25751 13.0118C6.45144 13.0118 6.64537 13.0118 6.8393 13.0118C8.00291 13.3987 8.39078 13.3987 8.77865 13.3987ZM6.25751 15.914C5.48177 15.7205 4.89996 15.5271 4.31816 15.1401C3.73635 14.7531 3.15455 14.3661 2.57274 13.9792C1.99094 13.3987 1.60307 12.8183 1.2152 12.2378C0.6334 11.0769 0.0515835 9.91603 0.0515835 8.75513C-0.142351 7.40074 0.245524 6.04636 0.633394 4.88546C1.02126 3.72456 1.99093 2.56366 2.96061 1.78972C3.54241 1.40276 4.12422 1.20927 4.70602 1.01579C4.89996 0.822305 5.28783 0.822311 5.48176 0.628827C6.2575 0.24186 7.03325 0.0483711 8.00292 0.0483711C9.94227 -0.145112 11.8816 0.241852 13.627 1.20927C14.0149 1.40275 14.4028 1.78972 14.7906 2.17669C15.1785 2.56365 15.3724 2.95062 15.7603 3.33758C16.3421 4.305 16.73 5.27242 16.9239 6.23984C17.1179 7.40074 16.9239 8.56165 16.536 9.52906C16.3421 10.1095 16.1482 10.69 15.7603 11.2704C15.3724 11.8509 14.9846 12.4313 14.5967 12.8183C13.821 13.5922 13.0452 14.3661 12.0756 14.9466C10.9119 15.527 9.74833 15.914 8.39079 15.914H8.19685C7.42111 16.1075 6.83931 15.914 6.25751 15.914Z" fill="#FFF6C4"/>
</svg>
