<svg width="79" height="43" viewBox="0 0 79 43" fill="none" xmlns="http://www.w3.org/2000/svg">
<path d="M15.3115 15.9343C17.9423 15.622 20.3399 15.6218 22.0801 15.7C22.95 15.739 23.6556 15.7977 24.1426 15.8464C24.3858 15.8708 24.5744 15.8932 24.7021 15.9089C24.724 15.9116 24.7444 15.9135 24.7627 15.9158C25.383 18.5206 27.0811 20.684 29.0918 22.4314C31.1387 24.2103 33.5222 25.5724 35.4609 26.5418L35.7822 26.7019L35.75 26.3445L35.4209 22.7322L36.9424 24.5584L37.0527 24.6902L37.1992 24.6023L37.2002 24.6013C37.2015 24.6006 37.2041 24.5991 37.207 24.5974C37.2133 24.5938 37.2234 24.588 37.2363 24.5808C37.2628 24.5662 37.3028 24.5441 37.3545 24.5183C37.458 24.4666 37.6093 24.3975 37.7949 24.3279C38.1676 24.1882 38.6741 24.0505 39.2217 24.0505C39.7693 24.0506 40.2758 24.1882 40.6484 24.3279C40.8341 24.3975 40.9854 24.4666 41.0889 24.5183C41.1404 24.5441 41.1796 24.5662 41.2061 24.5808C41.2193 24.5881 41.23 24.5938 41.2363 24.5974C41.2391 24.599 41.2409 24.6006 41.2422 24.6013L41.2441 24.6023L41.4014 24.6961L41.5088 24.5476L42.627 23.0095L42.3066 26.5378L42.2754 26.8865L42.5918 26.7361C44.4377 25.8617 46.8217 24.4999 48.8926 22.697C50.926 20.9267 52.6708 18.7161 53.293 16.1091C53.3115 16.1068 53.3322 16.1051 53.3545 16.1023C53.4822 16.0865 53.6709 16.0641 53.9141 16.0398C54.4011 15.9911 55.1067 15.9324 55.9766 15.8933C57.7167 15.8152 60.1143 15.8154 62.7451 16.1277C67.8085 16.7288 73.6937 18.483 77.4453 23.0154C77.1345 22.9036 76.7296 22.7662 76.2529 22.6267C75.1085 22.2919 73.5463 21.9374 71.8828 21.864C70.2203 21.7907 68.4429 21.9975 66.8799 22.7976C65.354 23.5788 64.0474 24.9187 63.251 27.0789C63.19 27.0599 63.1148 27.0374 63.0273 27.0125C62.7678 26.9384 62.3972 26.8419 61.9502 26.7546C61.0574 26.5804 59.8519 26.4382 58.6172 26.574C57.382 26.7099 56.1042 27.1257 55.085 28.0789C54.0973 29.0025 53.3741 30.4121 53.1494 32.5027C53.1079 32.4956 53.0609 32.4874 53.0088 32.4793C52.7832 32.4439 52.4617 32.4005 52.0771 32.3699C51.3093 32.3087 50.2812 32.2961 49.2549 32.4939C48.2295 32.6916 47.1894 33.1031 46.417 33.9041C45.6835 34.6647 45.2104 35.7567 45.2012 37.2947C45.0623 37.257 44.8759 37.2144 44.6533 37.1834C44.1559 37.1141 43.4722 37.1005 42.7363 37.3289C41.3689 37.7533 39.8833 38.9907 39.043 42.0662C38.1322 38.9386 36.6176 37.665 35.252 37.2097C34.5296 36.9689 33.8647 36.9627 33.3818 37.0164C33.1677 37.0402 32.9885 37.0766 32.8545 37.1091C32.8468 35.5673 32.3751 34.4726 31.6406 33.7107C30.8682 32.9097 29.8271 32.4982 28.8018 32.3005C27.7755 32.1027 26.7473 32.1153 25.9795 32.1765C25.5949 32.2072 25.2734 32.2505 25.0479 32.2859C24.9949 32.2942 24.9473 32.3021 24.9053 32.3093C24.6798 30.2653 23.9574 28.8802 22.9707 27.9666C21.9521 27.0235 20.6757 26.602 19.4414 26.4539C18.2075 26.3058 17.003 26.4297 16.1104 26.5886C15.6632 26.6683 15.2918 26.7568 15.0322 26.8259C14.9408 26.8503 14.8632 26.8722 14.8008 26.8904C13.9577 24.7737 12.628 23.457 11.0938 22.6853C9.5229 21.8952 7.75288 21.6818 6.10254 21.7429C4.4515 21.8041 2.90764 22.1401 1.77832 22.4597C1.30756 22.593 0.907958 22.7246 0.601562 22.8318C4.35279 18.2915 10.2442 16.5359 15.3115 15.9343Z" fill="#FFF4C1" stroke="#014B6E" stroke-width="0.4"/>
<path d="M51.9814 0.233398C53.3653 0.173111 55.2724 0.173126 57.3643 0.414062C61.3433 0.872402 65.9498 2.19897 68.9297 5.59277C68.7065 5.51747 68.437 5.42994 68.1299 5.34277C67.2173 5.08377 65.9704 4.80976 64.6426 4.75293C63.3159 4.69618 61.8945 4.85583 60.6426 5.47754C59.428 6.08077 58.3867 7.11338 57.7471 8.77148C57.7053 8.7591 57.657 8.74458 57.6025 8.72949C57.3951 8.67203 57.0984 8.59791 56.7412 8.53027C56.0286 8.39534 55.0656 8.28525 54.0781 8.39062C53.0905 8.49603 52.065 8.81885 51.2451 9.5625C50.4572 10.2774 49.8792 11.3631 49.6934 12.9619C49.6714 12.9584 49.648 12.954 49.623 12.9502C49.4428 12.9228 49.186 12.89 48.8789 12.8662C48.266 12.8188 47.4441 12.8084 46.623 12.9619C45.8032 13.1152 44.9658 13.4357 44.3428 14.0625C43.7588 14.6501 43.3809 15.489 43.3623 16.6592C43.2572 16.6332 43.1253 16.6038 42.9717 16.583C42.5723 16.5291 42.0227 16.519 41.4307 16.6973C40.3339 17.0275 39.1515 17.986 38.4766 20.3408C37.7423 18.054 36.566 17.1015 35.4941 16.7549C34.9132 16.567 34.3792 16.5617 33.9912 16.6035C33.8436 16.6194 33.7166 16.6438 33.6152 16.666C33.598 15.4923 33.2208 14.6513 32.6357 14.0625C32.0127 13.4357 31.1754 13.1152 30.3555 12.9619C29.5344 12.8084 28.7125 12.8188 28.0996 12.8662C27.7925 12.89 27.5357 12.9228 27.3555 12.9502C27.3298 12.9541 27.3057 12.9583 27.2832 12.9619C27.0966 11.3987 26.5203 10.3319 25.7334 9.625C24.9142 8.88912 23.8892 8.56217 22.9023 8.44727C21.9154 8.33237 20.9528 8.42768 20.2402 8.55078C19.8833 8.61245 19.5873 8.68178 19.3799 8.73535C19.3242 8.74973 19.2748 8.76362 19.2324 8.77539C18.594 7.11563 17.5627 6.07328 16.3643 5.45801C15.1294 4.82413 13.7317 4.64989 12.4326 4.69727C11.1329 4.74473 9.91904 5.01434 9.04004 5.28125C8.82648 5.3461 8.63167 5.4109 8.45996 5.47266C11.4424 2.16637 15.9895 0.867034 19.9219 0.414062C22.0138 0.173127 23.9208 0.173112 25.3047 0.233398C25.9964 0.263533 26.5572 0.309097 26.9443 0.34668C27.1377 0.365459 27.2882 0.382392 27.3896 0.394531C27.3967 0.395376 27.4036 0.395687 27.4102 0.396484C27.9155 2.41024 29.3086 4.07966 30.9219 5.42383C32.5732 6.79959 34.4729 7.85179 35.9375 8.59961L36.2617 8.76562L36.2275 8.40332L35.9854 5.82617L36.791 6.90039L36.8984 7.04297L37.0518 6.95312H37.0527C37.0537 6.95258 37.0554 6.95146 37.0576 6.9502C37.0625 6.94749 37.0707 6.94303 37.0811 6.9375C37.1016 6.92648 37.1326 6.91018 37.1729 6.89062C37.2542 6.85115 37.3732 6.79739 37.5195 6.74414C37.8136 6.63716 38.2131 6.5332 38.6436 6.5332C39.0738 6.53328 39.4726 6.6372 39.7666 6.74414C39.913 6.79739 40.0319 6.85115 40.1133 6.89062C40.1536 6.91018 40.1845 6.92647 40.2051 6.9375C40.2154 6.94303 40.2237 6.94749 40.2285 6.9502C40.2308 6.95146 40.2324 6.95258 40.2334 6.95312H40.2344L40.3877 7.04297L40.4951 6.90039L41.2998 5.82617L41.0586 8.40332L41.0264 8.74805L41.3408 8.60352C42.812 7.92743 44.7131 6.87387 46.3652 5.47852C47.9788 4.11567 49.3699 2.41062 49.875 0.396484C49.8819 0.39565 49.8891 0.395417 49.8965 0.394531C49.9979 0.382392 50.1484 0.365459 50.3418 0.34668C50.7289 0.309097 51.2897 0.263533 51.9814 0.233398Z" fill="#FFF4C1" stroke="#014B6E" stroke-width="0.4"/>
</svg>
