<svg width="341" height="201" viewBox="0 0 341 201" fill="none" xmlns="http://www.w3.org/2000/svg">
<path d="M234.543 80.8009C247.677 62.5467 247.213 46.6129 238.097 24.8006C262.664 27.4304 270.544 31.1432 289.394 39.9609C303.918 46.3035 323.231 63.4749 335.746 81.5744C337.601 82.812 339.3 84.359 341 85.7512C324.313 47.0769 272.552 13.353 229.599 20.9331C255.402 53.7289 230.526 92.0938 194.989 102.613L195.916 107.099C210.749 103.387 225.891 92.5579 234.543 80.8009Z" fill="#252526"/>
<path d="M289.24 39.8063C270.39 31.1433 262.51 27.4305 237.943 24.646C247.059 46.4583 247.522 62.5468 234.389 80.6464C225.891 92.4034 210.595 103.232 195.607 106.79L197.307 115.608C198.852 119.166 199.625 122.415 201.17 125.973C216.157 119.939 232.226 124.116 237.325 140.359C237.788 129.531 239.179 118.547 248.758 112.669C260.346 104.934 274.716 108.182 284.141 115.144C276.106 101.376 273.943 81.7293 290.476 74.4585C304.845 68.1159 322.459 72.138 335.592 81.4199C323.077 63.3203 303.763 46.3036 289.24 39.8063Z" fill="#161616"/>
<g opacity="0.5">
<path d="M226.2 96.8899C229.445 108.647 234.698 122.105 235.934 125.509C239.333 107.873 262.355 100.448 275.334 106.017C268.535 96.1164 252.312 83.1218 244.278 74.9229C242.578 78.3262 240.724 84.3594 236.707 87.4533L226.2 96.8899Z" fill="#484849"/>
</g>
<g opacity="0.5">
<path d="M247.058 72.447C255.247 79.099 267.608 91.4747 275.333 99.0549C274.406 86.215 272.707 75.5409 284.449 69.353C292.02 65.3309 309.016 63.6292 317.36 66.5685C305.308 50.0159 265.445 32.071 245.822 29.9053C251.694 42.5904 252.466 57.2866 248.912 69.0436L247.058 72.447Z" fill="#484849"/>
</g>
<g opacity="0.5">
<path d="M199.778 108.491C204.413 105.861 217.083 98.745 222.491 98.5903C224.499 98.5903 230.216 116.845 233.461 126.745C229.444 119.629 212.139 116.38 204.877 119.784C203.486 116.69 203.332 116.381 201.941 113.287L199.778 108.491Z" fill="#484849"/>
</g>
<path d="M127.47 145.463C127.47 151.651 124.379 163.718 120.98 168.668C118.508 164.955 116.036 162.016 115.263 161.243C113.409 159.541 112.019 159.85 111.71 162.016C111.246 164.801 112.019 167.43 111.864 174.392C111.71 178.259 112.482 184.292 115.263 187.232C117.272 183.364 116.963 176.867 116.963 172.845C116.963 174.082 120.053 177.331 121.135 177.64C123.916 178.723 125.306 173.928 126.079 171.917C128.86 164.955 131.332 157.53 134.886 149.795L127.47 145.463Z" fill="#161616"/>
<path d="M114.799 170.524C114.799 170.524 115.263 170.679 115.726 170.988C116.19 171.298 116.653 171.917 117.117 172.535C117.58 173.154 117.89 173.773 118.044 174.392C118.199 175.011 118.199 175.475 118.199 175.475C118.199 175.475 117.735 175.32 117.271 175.011C116.808 174.701 116.344 174.082 115.881 173.464C115.417 172.845 115.108 172.226 114.954 171.607C114.799 170.988 114.799 170.524 114.799 170.524Z" fill="#111111"/>
<path d="M118.818 170.989C118.818 170.989 118.972 170.525 119.281 169.906C119.436 169.597 119.59 169.287 119.899 168.978C120.054 168.668 120.363 168.204 120.672 167.895C121.135 167.276 121.754 166.503 122.217 166.039C122.526 165.729 122.681 165.574 122.835 165.42C122.99 165.265 123.144 165.11 123.144 165.11C123.144 165.11 123.144 165.265 123.144 165.42C123.144 165.574 123.144 166.039 123.144 166.348C123.144 166.657 122.99 167.121 122.681 167.586C122.526 167.74 122.526 168.05 122.372 168.204L122.063 168.823C121.445 169.597 120.826 170.215 120.208 170.525C119.281 170.834 118.818 170.989 118.818 170.989Z" fill="#111111"/>
<path d="M150.954 157.994C151.881 164.182 150.645 176.558 148.018 181.817C145.083 178.414 142.147 175.939 141.22 175.32C139.211 173.928 137.821 174.392 137.821 176.558C137.666 179.342 138.902 181.972 139.829 188.779C140.293 192.646 141.993 198.525 145.083 201C146.473 196.823 145.237 190.481 144.619 186.613C144.774 187.851 148.327 190.481 149.409 190.79C152.345 191.409 152.963 186.458 153.426 184.447C155.126 177.177 156.516 169.442 158.834 161.243L150.954 157.994Z" fill="#161616"/>
<path d="M142.148 184.602C142.148 184.602 142.612 184.757 143.075 184.911C143.539 185.221 144.157 185.685 144.775 186.149C145.238 186.613 145.702 187.232 145.857 187.851C146.166 188.315 146.166 188.779 146.166 188.779C146.166 188.779 145.702 188.779 145.238 188.469C144.775 188.16 144.157 187.696 143.539 187.232C143.075 186.613 142.612 185.994 142.303 185.53C142.303 185.066 142.148 184.602 142.148 184.602Z" fill="#111111"/>
<path d="M146.164 184.447C146.164 184.447 146.319 183.983 146.473 183.209C146.628 182.9 146.782 182.436 146.937 182.127C147.091 181.662 147.246 181.353 147.555 180.889C148.018 180.115 148.482 179.342 148.791 178.878C148.945 178.569 149.1 178.414 149.254 178.259C149.409 178.104 149.409 177.95 149.409 177.95C149.409 177.95 149.409 178.104 149.563 178.259C149.563 178.414 149.718 178.723 149.718 179.187C149.718 179.497 149.718 179.961 149.563 180.425C149.563 180.58 149.409 180.889 149.409 181.044L149.1 181.662C148.636 182.436 148.018 183.209 147.555 183.674C146.782 184.292 146.164 184.447 146.164 184.447Z" fill="#111111"/>
<path d="M253.083 73.2202C242.731 79.0987 232.379 86.5241 224.036 95.0325C222.645 96.4247 220.637 98.7452 218.783 101.375C220.019 100.137 221.409 99.6734 222.491 100.447C225.581 102.613 220.637 107.718 216.465 110.348C219.092 109.883 221.718 108.801 223.418 108.336C232.534 105.242 239.95 100.137 245.512 92.0932C249.221 86.8335 253.547 79.8722 253.547 73.2202C253.547 73.2202 253.392 73.2202 253.083 73.2202Z" fill="#161616"/>
<g opacity="0.5">
<path d="M222.646 100.447C221.41 99.673 220.174 100.137 218.938 101.375C216.775 104.314 214.766 107.717 213.993 110.657C214.766 110.657 215.848 110.502 216.775 110.347C220.946 107.563 225.736 102.612 222.646 100.447Z" fill="#484849"/>
</g>
<path d="M224.192 95.0325C232.381 86.5241 242.733 79.0987 253.24 73.2202C246.132 74.3031 239.489 75.85 232.845 78.7893C224.81 82.3473 218.321 88.5352 212.141 94.1043L211.677 95.0325C210.132 98.2811 209.668 101.994 209.823 105.397C210.132 107.563 210.132 109.419 211.986 110.193C212.604 110.348 213.222 110.502 213.995 110.502C215.54 104.933 221.102 98.1264 224.192 95.0325Z" fill="#020216"/>
<path d="M174.595 145.31C174.904 135.099 170.423 128.138 159.762 128.757C151.109 129.066 141.066 135.099 136.122 142.37C133.65 146.083 131.332 150.569 130.251 154.746C130.096 155.21 129.942 155.674 129.787 156.293C131.332 158.768 133.032 160.934 134.886 162.79C140.448 167.895 148.483 170.061 156.517 169.906C158.062 169.133 159.762 168.205 161.152 167.277C167.951 161.862 174.286 154.127 174.595 145.31Z" fill="#5D5D5D"/>
<path d="M192.827 115.452C192.518 114.834 192.363 114.369 192.054 113.751L155.899 101.22C151.882 102.612 146.629 102.922 142.148 105.397C134.268 109.729 128.088 115.143 124.998 123.651C121.599 133.861 123.916 146.856 129.787 156.292C129.942 155.674 130.096 155.21 130.251 154.745C131.333 150.569 133.805 146.082 136.122 142.37C140.912 135.099 151.11 129.22 159.762 128.756C170.423 128.138 174.904 135.254 174.595 145.309C174.286 154.127 167.951 161.861 161.153 167.121C159.762 168.204 158.217 168.978 156.517 169.751C164.243 169.596 172.123 167.431 177.84 164.027C193.599 154.281 201.479 132.469 192.827 115.452Z" fill="#252526"/>
<path d="M41.5633 10.2587C57.3231 3.91609 80.3449 2.36913 97.1863 8.09292C102.594 9.94929 110.165 11.1868 114.646 14.5902C110.01 25.8831 108.774 32.5351 108.156 40.734C107.538 49.2424 108.156 59.6071 110.629 67.806C116.963 87.2979 135.35 97.5079 154.045 101.839C154.354 99.8283 154.354 97.972 154.045 96.2703C146.474 95.9609 137.204 91.1653 131.642 86.0603C125.307 80.3365 117.118 72.6016 114.955 64.7121C110.01 46.6125 113.101 28.513 123.453 12.1151C110.783 5.15368 82.0445 -1.653 64.585 0.358063C47.7436 2.21443 34.4559 8.09289 20.0866 16.9106C14.2153 20.4687 8.96199 24.0267 4.17223 29.2864C2.93616 30.524 1.23657 32.535 0.00050354 33.3085L0.464031 33.1538C4.63576 29.7505 8.96199 26.5019 11.2796 25.2643C20.8591 19.2311 30.9022 14.4355 41.5633 10.2587Z" fill="#252526"/>
<path d="M110.473 67.6508C108.001 59.6065 107.383 49.0871 108.001 40.5788C108.774 32.3798 110.01 25.8825 114.491 14.435C110.01 11.1863 102.439 9.79403 97.0312 7.93766C80.1898 2.21387 57.168 3.76083 41.4081 10.1034C30.7471 14.2802 20.8585 19.2305 10.97 24.7996C8.65237 26.0372 4.32613 29.2859 0.154404 32.6892L13.1331 30.5234C25.0303 27.8936 38.009 28.5124 48.8246 35.7831C63.9664 45.9932 64.1209 65.9491 55.9319 80.3359C69.0652 76.9326 83.5889 79.7171 91.4689 91.4741C97.6492 100.447 101.357 114.369 97.6492 125.043C105.838 116.844 116.499 108.027 128.86 107.253C138.439 106.789 143.693 109.883 152.191 113.286C151.882 109.574 153.272 105.397 153.736 101.375C135.195 97.3526 116.808 87.1426 110.473 67.6508Z" fill="#161616"/>
<g opacity="0.5">
<path d="M60.5681 76.7782C73.3923 66.1041 88.2251 58.524 102.44 50.0156C101.976 60.8444 104.757 73.0655 112.792 80.4909C114.337 81.8832 115.11 82.3473 115.419 82.9661C115.728 83.5849 104.294 106.016 102.131 111.121C101.049 100.911 97.9591 92.8667 90.2337 85.9053C85.753 82.0379 81.4267 79.2534 76.0189 77.5517C71.5382 75.85 68.2935 76.3141 63.6583 76.0047L60.5681 76.7782Z" fill="#484849"/>
</g>
<g opacity="0.5">
<path d="M10.1967 27.7398C23.7934 18.9221 43.416 13.1983 59.0214 8.71211C69.2189 5.92756 79.7255 6.23698 89.7685 9.02152C98.73 11.342 101.511 12.1154 106.919 15.5188C103.365 24.8006 101.511 35.1653 103.365 47.2317C95.9489 51.2538 65.9742 68.7346 62.7296 71.5192C65.5107 61.3091 65.8197 43.0549 57.3218 36.2482C46.6607 27.7398 31.9824 26.9664 19.0037 26.5023L10.1967 27.7398Z" fill="#484849"/>
</g>
<g opacity="0.5">
<path d="M101.975 116.999C104.602 111.894 118.199 87.7616 118.971 87.9163C120.671 88.3804 128.087 95.0323 140.757 99.9826C142.766 100.756 150.027 102.148 150.646 102.922C151.418 103.85 150.027 110.038 150.027 110.347C141.22 105.861 136.276 104.005 126.079 104.778C116.499 105.552 109.083 109.11 102.284 116.071L101.975 116.999Z" fill="#484849"/>
</g>
<path d="M180.156 62.8553C172.122 63.4741 163.315 67.3415 157.444 72.9106C156.208 74.1482 155.126 75.3858 154.199 76.9327C166.251 68.2697 180.002 65.1757 189.427 72.2918C194.217 75.8498 197.307 81.7283 200.397 86.6786C203.951 82.8112 211.831 83.2753 216.62 86.0598C214.457 70.8995 193.599 61.6177 180.156 62.8553Z" fill="#020216"/>
<path d="M216.467 85.9057C211.677 83.1212 203.797 82.6571 200.244 86.5245C197.308 81.5742 194.218 75.6957 189.274 72.1377C181.857 66.5686 171.505 67.4968 161.462 72.4471C160.999 69.5079 160.535 66.7233 159.917 64.5575C157.754 55.7398 151.728 48.6237 145.548 42.1265C142.921 47.2315 142.458 54.5022 141.84 59.9166C141.531 62.3918 141.376 65.0216 141.222 67.4968C141.376 69.6625 141.531 71.6736 141.994 73.6847C142.767 77.5521 145.239 86.8339 149.411 91.0108C148.329 98.4362 148.638 106.48 150.029 112.668C151.728 120.867 157.908 128.912 164.707 134.017C165.479 134.635 166.252 135.099 167.024 135.564C177.222 141.442 192.209 140.359 202.098 134.79C206.733 132.315 211.214 127.829 213.841 123.342C217.24 117.155 216.467 112.668 214.768 106.171C213.068 99.8285 216.776 95.0329 216.931 88.845C216.622 87.7621 216.622 86.8339 216.467 85.9057Z" fill="#383838"/>
<path d="M146.165 32.5342C142.303 42.7442 140.294 55.7387 141.067 67.341C141.221 64.8659 141.376 62.236 141.685 59.7609C142.303 54.1918 142.766 47.0757 145.393 41.9707C151.573 48.6227 157.599 55.5841 159.762 64.4018C161.307 70.2803 162.698 79.5621 161.307 86.9876C161.307 87.9158 161.307 88.8439 161.153 89.6174C167.487 85.2859 168.878 76.6229 168.106 69.0427C166.715 54.9653 157.908 40.5784 146.165 32.5342Z" fill="#020216"/>
<path d="M169.805 104.469C167.024 106.944 163.933 108.8 161.77 111.894C164.397 111.275 167.951 110.347 170.732 109.419C170.268 107.872 169.959 106.17 169.805 104.469Z" fill="white"/>
<path d="M187.572 130.149C189.117 127.21 190.817 124.27 192.516 121.486C190.817 121.795 189.117 121.95 187.418 121.95C187.881 124.425 187.418 127.674 187.572 130.149Z" fill="white"/>
<path d="M184.175 107.563C184.175 107.563 184.175 107.718 184.329 108.028C184.484 108.337 184.638 108.646 184.947 109.11C185.256 109.575 185.565 110.039 186.029 110.657C186.338 110.967 186.492 111.121 186.801 111.431C187.11 111.74 187.419 112.05 187.728 112.204C188.501 112.668 189.273 113.133 190.2 113.442C191.128 113.751 192.209 113.906 193.136 113.906C195.299 113.906 197.462 112.978 199.007 111.276C199.78 110.503 200.553 109.575 201.016 108.646C201.48 107.718 201.634 106.635 201.325 105.707C201.016 104.779 200.553 103.851 199.78 103.387C199.007 102.768 198.235 102.304 197.462 101.994C195.763 101.221 194.372 100.602 193.445 99.9833C192.982 99.6739 192.673 99.3645 192.518 99.2098C192.364 99.0551 192.209 98.9004 192.209 98.9004C192.209 98.9004 192.673 99.2098 193.6 99.6739C194.527 100.138 196.072 100.447 197.771 101.066C198.698 101.376 199.625 101.84 200.553 102.458C201.48 103.077 202.252 104.16 202.716 105.398C203.179 106.635 203.025 108.028 202.407 109.265C201.943 110.503 201.016 111.586 200.089 112.359C199.162 113.287 198.08 114.061 196.844 114.525C195.608 114.989 194.372 115.144 193.136 115.144C190.664 115.144 188.501 113.906 187.11 112.668C186.801 112.359 186.492 112.05 186.183 111.74C185.874 111.431 185.72 111.121 185.411 110.812C185.102 110.193 184.793 109.575 184.484 109.11C184.175 108.646 184.175 108.182 184.175 107.873C184.175 107.718 184.175 107.563 184.175 107.563Z" fill="#020216"/>
<path d="M180.311 92.2485C178.766 93.022 177.994 96.5801 180.157 96.8894C183.092 97.3535 182.783 93.7955 181.856 92.2485H180.311Z" fill="#020216"/>
<path d="M180.929 84.0493C180.929 84.0493 181.084 84.204 181.393 84.6681C181.702 84.9775 182.011 85.4416 182.474 86.0604C182.938 86.5245 183.556 87.1432 184.174 87.762C184.792 88.3808 185.564 88.9996 186.337 89.6184C186.8 89.9278 187.109 90.2372 187.418 90.3919C187.882 90.7013 188.191 90.856 188.5 91.1653C189.272 91.6294 190.045 91.9389 190.663 92.2482C190.972 92.4029 191.281 92.5577 191.59 92.5577C191.899 92.5577 192.054 92.7123 192.363 92.7123C192.826 92.867 192.981 92.867 192.981 92.867C192.981 92.867 192.672 92.867 192.363 93.0217C192.208 93.0217 191.899 93.0217 191.59 93.0217C191.281 93.0217 190.972 93.0217 190.509 93.0217C189.736 92.867 188.809 92.7123 187.882 92.2482C187.418 92.0935 186.955 91.7842 186.491 91.6295C186.028 91.3201 185.564 91.0107 185.255 90.856C184.483 90.2372 183.71 89.4637 183.092 88.8449C182.474 88.0714 182.011 87.2979 181.547 86.6791C181.238 86.0604 180.929 85.4416 180.774 84.9775C180.929 84.204 180.929 84.0493 180.929 84.0493Z" fill="#020216"/>
<path d="M201.325 94.2591C201.325 94.2591 201.48 94.4138 201.634 94.7232C201.789 94.8779 201.789 95.0326 202.098 95.1873C202.252 95.342 202.407 95.4967 202.561 95.4967C202.716 95.6514 203.025 95.6514 203.179 95.8061C203.489 95.8061 203.643 95.8061 203.952 95.8061C204.261 95.8061 204.57 95.8061 204.879 95.6514C205.188 95.6514 205.497 95.4967 205.806 95.4967C206.424 95.342 207.197 95.1873 207.66 94.8779C208.278 94.7233 208.896 94.4139 209.36 94.1045C209.823 93.7951 210.287 93.6403 210.441 93.4856C210.75 93.3309 210.905 93.1763 210.905 93.1763C210.905 93.1763 210.905 93.3309 210.75 93.6403C210.596 93.9497 210.287 94.4139 209.978 94.8779C209.514 95.342 209.051 95.8061 208.433 96.1155C207.815 96.5796 207.042 96.7343 206.27 97.0437C205.806 97.0437 205.497 97.1984 205.034 97.1984C204.57 97.1984 204.261 97.1984 203.798 97.1984C203.334 97.1984 203.025 97.0437 202.716 96.889C202.407 96.7343 202.098 96.5796 201.789 96.2702C201.48 96.1155 201.325 95.8061 201.325 95.4967C201.171 95.1873 201.171 95.0326 201.171 94.8779C201.325 94.5686 201.325 94.2591 201.325 94.2591Z" fill="#020216"/>
<path d="M203.025 98.7451C201.634 98.7451 200.707 99.3639 200.862 100.756C201.325 103.695 205.497 102.303 204.57 99.3639L203.025 98.7451Z" fill="#020216"/>
<path d="M156.053 77.8613C151.573 78.7894 155.126 87.7619 158.835 91.0105C159.762 90.5464 160.689 90.237 161.461 89.6182C161.925 85.4414 160.38 77.0878 156.053 77.8613Z" fill="#484849"/>
<path d="M169.805 100.911C169.805 100.911 169.805 101.529 169.96 102.767C169.96 103.386 170.115 104.005 170.115 104.778C170.115 105.552 170.424 106.48 170.578 107.408C170.733 107.872 170.887 108.336 171.042 108.8C171.196 109.264 171.351 109.883 171.66 110.347C171.969 110.811 172.123 111.43 172.432 111.894C172.741 112.358 173.05 112.822 173.359 113.441C174.132 114.369 174.75 115.452 175.831 116.226C176.295 116.69 176.604 117.154 177.222 117.463L177.994 118.082L178.767 118.546C179.849 119.32 180.93 119.784 182.166 120.248C183.402 120.712 184.484 121.021 185.72 121.176C186.956 121.331 188.037 121.331 189.119 121.331C190.201 121.331 191.282 121.176 192.209 121.021C193.136 120.867 194.063 120.712 194.836 120.557C195.608 120.402 196.381 120.248 196.844 120.093C197.926 119.784 198.699 119.629 198.699 119.629C198.699 119.629 198.081 119.938 196.999 120.248C195.917 120.557 194.372 121.176 192.364 121.64C191.437 121.795 190.355 122.104 189.119 122.259C188.037 122.414 186.647 122.414 185.411 122.259C184.175 122.104 182.784 121.949 181.548 121.485C180.312 121.021 179.076 120.402 177.84 119.629C177.222 119.165 176.758 118.855 176.14 118.391C175.677 118.082 175.059 117.463 174.595 116.999C173.514 116.071 172.896 114.988 172.123 113.905C171.814 113.286 171.505 112.822 171.196 112.204C170.887 111.585 170.733 111.121 170.578 110.502C170.424 109.883 170.269 109.419 170.115 108.8C169.96 108.336 169.805 107.717 169.805 107.253C169.651 106.17 169.496 105.397 169.651 104.469C169.651 103.695 169.651 102.922 169.651 102.303C169.805 101.529 169.805 100.911 169.805 100.911Z" fill="#020216"/>
</svg>
