<svg width="68" height="67" viewBox="0 0 68 67" fill="none" xmlns="http://www.w3.org/2000/svg">
<path d="M27.3849 63.6258C25.6849 63.0258 24.0849 62.4258 22.4849 61.5258C21.6849 61.1258 20.9849 60.6258 20.2849 60.1258C19.6849 59.7258 19.1849 59.3258 18.6849 58.8258C18.5849 58.7258 18.5849 58.7258 18.4849 58.6258C17.8849 58.1258 17.2849 57.5258 16.7849 56.9258C16.6849 56.7258 16.4849 56.5258 16.3849 56.4258C15.7849 55.7258 15.2849 55.0258 14.7849 54.3258C14.2849 53.5258 13.7849 52.7258 13.3849 51.9258C12.9849 51.1258 12.6849 50.2258 12.3849 49.3258C11.8849 47.8258 11.6849 46.2258 11.5849 44.6258C11.4849 43.6258 11.4849 42.7258 11.5849 41.7258C11.5849 40.7258 11.6849 39.8258 11.7849 38.8258C11.7849 38.6258 11.7849 38.4258 11.8849 38.2258C11.8849 37.3258 11.9849 36.5258 12.0849 35.6258C12.2849 34.7258 12.4849 33.8258 12.7849 32.9258C13.4849 31.1258 14.3849 29.4258 15.4849 27.9258C16.0849 27.2258 16.6849 26.5258 17.3849 25.8258C17.9849 25.2258 18.6849 24.6258 19.3849 24.1258C20.0849 23.6258 20.8849 23.2258 21.6849 22.7258C22.4849 22.3258 23.3849 21.9258 24.1849 21.5258C25.5849 20.9258 27.0849 20.4258 28.5849 20.0258C28.4849 19.7258 28.3849 19.3258 28.3849 19.0258C28.1849 18.1258 28.0849 17.2258 28.0849 16.4258C28.0849 15.5258 28.1849 14.6258 28.2849 13.8258C28.3849 13.3258 28.4849 12.9258 28.5849 12.5258C28.6849 12.1258 28.7849 11.6258 28.9849 11.2258C29.3849 10.3258 29.8849 9.6258 30.4849 8.9258C31.1849 8.3258 31.9849 7.72578 32.8849 7.52578C33.7849 7.32578 34.7849 7.3258 35.6849 7.4258C36.5849 7.5258 37.4849 7.92578 38.1849 8.52578C39.6849 9.82578 40.4849 11.6258 40.8849 13.5258C41.0849 14.4258 41.1849 15.3258 41.2849 16.3258C41.3849 17.1258 41.3849 17.9258 41.3849 18.7258C41.3849 19.3258 41.3849 19.9258 41.2849 20.4258C41.9849 20.6258 42.6849 20.8258 43.3849 21.1258C44.2849 21.4258 45.0849 21.8258 45.9849 22.2258C47.3849 22.9258 48.5849 23.9258 49.7849 24.9258C50.8849 25.9258 51.9849 26.9258 52.7849 28.2258C52.7849 28.2258 52.7849 28.3258 52.8849 28.3258C53.9849 30.0258 54.6849 31.8258 55.2849 33.8258C55.7849 35.6258 56.1849 37.5258 56.3849 39.3258C56.5849 41.2258 56.5849 43.2258 56.3849 45.1258C56.2849 46.0258 56.0849 47.0258 55.8849 47.9258C55.6849 48.9258 55.3849 49.9258 54.9849 50.8258C54.2849 52.6258 53.1849 54.2258 52.0849 55.8258C51.5849 56.5258 50.9849 57.2258 50.2849 57.9258C49.6849 58.6258 48.9849 59.2258 48.2849 59.8258C47.5849 60.4258 46.8849 60.9258 46.0849 61.3258C45.2849 61.8258 44.3849 62.2258 43.4849 62.5258C42.5849 62.8258 41.5849 63.1258 40.6849 63.2258C39.7849 63.3258 38.8849 63.4258 37.9849 63.6258C37.0849 63.7258 36.1849 63.8258 35.2849 63.9258C34.4849 64.0258 33.5849 64.1258 32.6849 64.1258C32.3849 64.1258 32.0849 64.1258 31.7849 64.1258C30.3849 64.3258 28.8849 64.1258 27.3849 63.6258Z" fill="#274C6C"/>
<path d="M30.8853 13.4265C30.5853 13.1265 30.2853 12.8265 30.0853 12.4265C29.7853 12.1265 29.5853 11.7265 29.3853 11.4265C28.9853 10.7265 28.6853 9.92653 28.3853 9.22653C28.0853 8.52653 27.8853 7.72652 27.6853 7.02652C27.4853 6.22652 27.2853 5.42653 27.1853 4.62653C27.0853 4.12653 27.0853 3.52652 27.0853 3.02652C27.0853 2.72652 27.0853 2.52653 27.0853 2.22653C27.0853 2.02653 27.0853 1.92653 27.0853 1.72653C27.1853 1.52653 27.3853 1.32654 27.5853 1.32654C27.8853 1.32654 28.0853 1.52653 28.0853 1.72653C28.0853 1.72653 28.0853 1.72653 28.0853 1.62653C28.1853 1.82653 28.1853 2.02653 28.1853 2.22653C28.1853 2.52653 28.2853 2.82653 28.2853 3.12653C28.3853 3.72653 28.4853 4.32654 28.5853 4.92654C28.6853 5.42654 28.7853 6.02652 28.9853 6.52652C29.2853 7.32652 29.6853 8.12654 29.9853 8.92654C30.1853 9.32654 30.3853 9.72653 30.6853 10.1265C30.7853 10.2265 30.8853 10.4265 30.9853 10.5265C31.1853 10.7265 31.3853 10.9265 31.5853 11.1265C31.8853 11.3265 32.1853 11.6265 32.4853 11.8265C32.6853 12.0265 32.7853 12.3265 32.7853 12.6265C32.7853 12.9265 32.6853 13.2265 32.4853 13.4265C32.2853 13.6265 31.9853 13.7265 31.6853 13.7265C31.3853 13.8265 31.0853 13.7265 30.8853 13.4265Z" fill="#274C6C"/>
<path d="M37.8851 13.0262C37.3851 12.5262 37.4851 11.6262 37.9851 11.2262C38.2851 11.0262 38.5851 10.8262 38.7851 10.5262C38.8851 10.4262 38.9851 10.3262 39.1851 10.2262C39.2851 10.0262 39.3851 9.92624 39.5851 9.72624C39.7851 9.42624 39.8851 9.12625 40.0851 8.82625C40.4851 8.02625 40.7851 7.32623 41.0851 6.52623C41.2851 5.82623 41.4851 5.22623 41.5851 4.52623C41.6851 3.82623 41.8851 3.12625 41.9851 2.42625C42.0851 2.02625 42.0851 1.62624 42.1851 1.22624C42.1851 0.926241 42.2851 0.626253 42.3851 0.426253C42.5851 0.126253 42.8851 0.0262407 43.1851 0.226241C43.3851 0.326241 43.4851 0.526241 43.4851 0.726241C43.4851 0.826241 43.4851 0.926253 43.4851 0.926253C43.4851 1.12625 43.4851 1.32623 43.4851 1.52623C43.4851 1.92623 43.4851 2.32625 43.4851 2.82625C43.4851 3.62625 43.3851 4.52625 43.2851 5.32625C42.9851 7.12625 42.2851 8.72625 41.4851 10.3262C41.2851 10.8262 40.9851 11.2262 40.6851 11.7262C40.3851 12.2262 40.0851 12.7262 39.5851 13.1262C39.3851 13.3262 39.0851 13.4263 38.7851 13.4263C38.3851 13.3263 38.0851 13.2262 37.8851 13.0262Z" fill="#274C6C"/>
<path d="M26.0851 29.9262C25.4851 29.4262 24.8851 28.9262 24.3851 28.3262C23.7851 27.7262 23.2851 27.1262 22.7851 26.5262C22.6851 26.4262 22.6851 26.4262 22.5851 26.3262L22.6851 26.4262C22.0851 25.7262 21.4851 25.1262 20.8851 24.4262C20.2851 23.7262 19.7851 22.9262 19.2851 22.2262C18.7851 21.5262 18.2851 20.7262 17.8851 19.9262C17.4851 19.2262 17.0851 18.4262 16.6851 17.6262C16.3851 17.0262 16.1851 16.4262 16.0851 15.7262C15.9851 15.4262 15.9851 15.1262 15.8851 14.8262C15.8851 14.6262 15.7851 14.3262 15.8851 14.2262C15.9851 14.0262 16.0851 13.8262 16.3851 13.8262C16.5851 13.8262 16.8851 13.9262 16.9851 14.1262C17.0851 14.3262 17.0851 14.5262 17.1851 14.7262C17.2851 15.0262 17.3851 15.3262 17.4851 15.5262C17.6851 16.0262 17.8851 16.4262 18.0851 16.9262C18.4851 17.6262 18.8851 18.4262 19.3851 19.1262C20.1851 20.3262 20.9851 21.4262 21.9851 22.5262C22.4851 23.0262 22.8851 23.5262 23.3851 24.0262C23.8851 24.5262 24.3851 24.9262 24.8851 25.4262C25.3851 25.8262 25.8851 26.3262 26.2851 26.8262C26.7851 27.3262 27.2851 27.8262 27.8851 28.3262C28.3851 28.7262 28.2851 29.5262 27.8851 30.0262C27.6851 30.2262 27.3851 30.3262 27.0851 30.3262C26.5851 30.3262 26.2851 30.1262 26.0851 29.9262Z" fill="#274C6C"/>
<path d="M45.3851 29.3267C44.8851 28.9267 44.6851 28.1267 45.1851 27.6267C45.5851 27.2267 45.8851 26.8267 46.2851 26.4267C46.6851 26.0267 46.9851 25.6267 47.3851 25.2267C48.1851 24.2267 48.9851 23.2267 49.7851 22.1267C50.4851 21.0267 51.1851 19.9267 51.6851 18.8267C51.6851 18.8267 51.6851 18.8267 51.6851 18.9267C52.1851 17.9267 52.5851 16.9267 52.9851 15.8267C53.1851 15.3267 53.2851 14.8267 53.4851 14.3267C53.5851 14.1267 53.5851 13.8267 53.6851 13.6267C53.7851 13.5267 53.7851 13.4267 53.8851 13.3267C54.1851 13.0267 54.5851 13.0267 54.8851 13.3267C54.9851 13.4267 54.9851 13.6267 54.9851 13.7267C54.9851 13.8267 54.8851 14.0267 54.8851 14.1267V14.0267C54.6851 14.9267 54.5851 15.8267 54.2851 16.7267C54.0851 17.6267 53.6851 18.5267 53.3851 19.4267C52.9851 20.3267 52.5851 21.1267 52.1851 22.0267C51.6851 22.9267 51.1851 23.8267 50.5851 24.7267C50.0851 25.5267 49.4851 26.2267 48.8851 26.9267C48.5851 27.3267 48.2851 27.6267 47.9851 28.0267C47.6851 28.4267 47.3851 28.8267 46.9851 29.2267C46.7851 29.4267 46.4851 29.6267 46.0851 29.6267C45.8851 29.5267 45.5851 29.4267 45.3851 29.3267Z" fill="#274C6C"/>
<path d="M15.185 40.6256C14.385 40.4256 13.585 40.1256 12.785 39.8256C12.085 39.5256 11.385 39.2256 10.585 38.9256C9.88498 38.6256 9.18497 38.3256 8.48497 37.9256C7.78497 37.6256 7.08498 37.2256 6.28498 36.9256C5.98498 36.8256 5.68498 36.6256 5.38498 36.4256H5.48497C4.68497 36.0256 3.98499 35.6256 3.18499 35.2256C2.58499 34.9256 1.88498 34.5256 1.28498 34.2256C0.984976 34.0256 0.884979 33.7256 1.08498 33.4256C1.28498 33.1256 1.58498 33.1256 1.88498 33.2256C1.88498 33.2256 1.88498 33.2256 1.78498 33.2256C1.88498 33.2256 1.98498 33.3256 2.08498 33.3256C2.78498 33.6256 3.48499 34.0256 4.18499 34.3256C4.88499 34.6256 5.58498 35.0256 6.38498 35.3256C7.08498 35.6256 7.88498 35.9256 8.58498 36.2256C9.28498 36.5256 10.085 36.8256 10.785 37.1256C11.185 37.2256 11.485 37.4256 11.885 37.5256H11.785C12.385 37.7256 12.985 37.9256 13.685 38.1256C14.385 38.3256 15.085 38.5256 15.785 38.6256C16.285 38.7256 16.585 39.3256 16.485 39.8256C16.385 40.2256 15.985 40.5256 15.485 40.5256C15.385 40.6256 15.285 40.6256 15.185 40.6256Z" fill="#274C6C"/>
<path d="M48.8851 40.9262C48.8851 40.6262 48.9851 40.3261 49.2851 40.0261C49.4851 39.8261 49.7851 39.7261 50.1851 39.6261C50.8851 39.6261 51.5851 39.6261 52.2851 39.6261C52.9851 39.6261 53.5851 39.6261 54.2851 39.6261C55.3851 39.5261 56.3851 39.4261 57.4851 39.2261C58.4851 39.0261 59.3851 38.8261 60.3851 38.5261C61.2851 38.3261 62.2851 37.9261 63.1851 37.6261C63.8851 37.3261 64.6851 37.1261 65.3851 36.7261C65.6851 36.6261 66.0851 36.4262 66.3851 36.3262C66.5851 36.2262 66.7851 36.1261 66.9851 36.1261C67.2851 36.0261 67.5851 36.1262 67.6851 36.3262C67.8851 36.6262 67.7851 36.9261 67.4851 37.1261C67.4851 37.1261 67.4851 37.1261 67.3851 37.1261C67.3851 37.1261 67.2851 37.1261 67.2851 37.2261C66.5851 37.5261 65.8851 37.9261 65.1851 38.2261C64.3851 38.6261 63.4851 38.9261 62.6851 39.2261C60.8851 39.8261 59.1851 40.4262 57.3851 40.9262C56.2851 41.2262 55.0851 41.4261 53.8851 41.7261C52.7851 41.9261 51.6851 42.1261 50.5851 42.2261C50.4851 42.2261 50.2851 42.2261 50.1851 42.2261C50.1851 42.2261 50.1851 42.2261 50.0851 42.2261C49.3851 42.1261 48.8851 41.5262 48.8851 40.9262Z" fill="#274C6C"/>
<path d="M9.58501 66.2265C9.48501 65.9265 9.68501 65.6265 9.88501 65.5265C9.98501 65.5265 9.98501 65.4265 10.085 65.4265C11.185 64.7265 12.185 63.9265 13.185 63.1265C14.285 62.1265 15.285 61.1265 16.285 60.0265C16.985 59.2265 17.685 58.4265 18.285 57.5265C18.885 56.7265 19.285 55.8265 19.785 54.9265C20.285 54.0265 20.785 53.1265 21.385 52.2265C21.685 51.7265 22.385 51.5265 22.885 51.8265C23.385 52.1265 23.585 52.8265 23.285 53.3265C22.885 54.1265 22.485 54.8265 21.985 55.6265C21.785 56.0265 21.585 56.4265 21.285 56.8265C21.085 57.2265 20.785 57.6265 20.485 57.9265C19.385 59.4265 18.085 60.8265 16.685 62.1265C15.585 63.1265 14.485 64.1265 13.285 64.9265C13.285 64.9265 13.385 64.9265 13.385 64.8265C12.785 65.2265 12.285 65.5265 11.685 65.9265C11.385 66.1265 11.085 66.2265 10.785 66.4265C10.585 66.5265 10.385 66.6265 10.185 66.7265H10.085C9.88501 66.6265 9.68501 66.4265 9.58501 66.2265Z" fill="#274C6C"/>
<path d="M55.6852 66.2264C55.1852 66.1264 54.7852 65.8264 54.3852 65.5264C53.6852 65.0264 52.9852 64.5264 52.2852 63.9264C50.9852 62.8264 49.6852 61.6264 48.3852 60.4264C47.7852 59.8264 47.1852 59.2264 46.5852 58.6264C45.9852 57.9264 45.3852 57.2264 44.8852 56.5264C44.3852 55.7264 43.8852 54.9264 43.4852 54.1264C43.0852 53.3264 42.7852 52.4264 42.3852 51.6264C42.0852 50.9264 41.7852 50.2264 41.5852 49.5264C41.4852 49.2264 41.4852 48.9264 41.5852 48.6264C41.6852 48.3264 41.8852 48.1264 42.1852 48.0264C42.7852 47.8264 43.4852 48.0264 43.6852 48.6264C43.9852 49.6264 44.3852 50.5264 44.7852 51.4264C45.1852 52.3264 45.5852 53.3264 45.9852 54.2264C46.3852 55.0264 46.8852 55.8264 47.2852 56.5264C47.8852 57.4264 48.5852 58.2264 49.2852 59.0264C50.4852 60.4264 51.7852 61.7264 53.1852 62.9264C53.1852 62.9264 53.1852 62.9264 53.0852 62.9264C53.0852 62.9264 53.0852 62.9264 53.1852 62.9264C53.5852 63.3264 53.9852 63.6264 54.4852 64.0264C54.8852 64.3264 55.2852 64.7264 55.7852 65.0264C55.9852 65.0264 56.1852 65.2264 56.2852 65.5264C56.4852 65.9264 56.0852 66.2264 55.6852 66.2264Z" fill="#274C6C"/>
<path d="M57.9849 56.8263C56.8849 55.9263 55.6849 55.1263 54.5849 54.1263C53.9849 53.6263 53.3849 53.1263 52.8849 52.5263C52.2849 52.0263 51.7849 51.4263 51.2849 50.9263C50.7849 50.4263 50.3849 50.0263 49.8849 49.5263C49.3849 49.0263 48.8849 48.4263 48.3849 47.8263L48.4849 47.9263C48.3849 47.8263 48.2849 47.6263 48.0849 47.5263L48.1849 47.6263C47.0849 46.4263 46.0849 45.2263 45.0849 43.9263C44.5849 43.2263 44.0849 42.6263 43.6849 41.9263C43.2849 41.3263 42.7849 40.6263 42.3849 40.0263C41.5849 38.6263 40.8849 37.2263 40.0849 35.8263C39.3849 34.4263 38.6849 33.0263 37.9849 31.6263C37.6849 30.9263 37.2849 30.1263 36.9849 29.4263C36.6849 28.7263 36.3849 28.0263 36.0849 27.4263C35.7849 26.7263 35.4849 26.0263 35.1849 25.3263C34.8849 24.6263 34.5849 23.8263 34.2849 23.0263C34.1849 22.7263 34.0849 22.5263 33.9849 22.2263C33.6849 22.8263 33.3849 23.5263 32.9849 24.2263C32.4849 25.3263 31.9849 26.4263 31.4849 27.5263C31.3849 27.8263 31.1849 28.0263 31.0849 28.3263C31.0849 28.4263 30.9849 28.4263 30.9849 28.5263C30.9849 28.6263 30.8849 28.6263 30.8849 28.7263C30.8849 28.8263 30.7849 28.8263 30.7849 28.9263C30.6849 29.0263 30.6849 29.2263 30.5849 29.3263C29.9849 30.4263 29.2849 31.6263 28.5849 32.7263C27.8849 33.8263 27.1849 35.0263 26.3849 36.1263C25.5849 37.2263 24.7849 38.3263 23.9849 39.4263C23.1849 40.5263 22.3849 41.5263 21.5849 42.5263C20.6849 43.5263 19.7849 44.6263 18.7849 45.5263C17.8849 46.5263 16.8849 47.4263 15.8849 48.3263C15.3849 48.7263 14.8849 49.2263 14.2849 49.6263C13.7849 50.0263 13.2849 50.5263 12.7849 50.9263C11.8849 51.7263 10.8849 52.4263 9.98489 53.2263C9.48489 53.6263 9.08489 53.9263 8.58489 54.3263C8.38489 54.5263 8.0849 54.6263 7.8849 54.8263C7.7849 55.0263 7.68489 55.1263 7.48489 55.1263C7.28489 55.1263 7.18489 55.1263 7.08489 55.0263C6.98489 54.9263 6.8849 54.9263 6.8849 54.7263C6.8849 54.6263 6.8849 54.6263 6.8849 54.5263C6.8849 54.4263 6.78489 54.3263 6.78489 54.2263C6.58489 53.8263 6.38489 53.4263 6.28489 53.1263C6.28489 53.1263 6.28489 53.1263 6.28489 53.2263C5.88489 52.5263 5.58489 51.8263 5.28489 51.1263C4.98489 50.4263 4.6849 49.7263 4.3849 49.0263C3.8849 47.5263 3.3849 46.0263 3.1849 44.4263C2.9849 42.9263 2.7849 41.3263 2.8849 39.7263C2.8849 38.9263 2.98489 38.1263 2.98489 37.3263C3.08489 36.5263 3.08489 35.7263 3.28489 34.9263C3.58489 33.3263 4.18489 31.7263 4.98489 30.3263C5.78489 28.9263 6.78489 27.6263 7.98489 26.4263C9.08489 25.2263 10.2849 24.1263 11.4849 23.1263C12.0849 22.6263 12.7849 22.1263 13.4849 21.6263C14.1849 21.2263 14.8849 20.8263 15.6849 20.5263C17.1849 19.9263 18.6849 19.6263 20.1849 19.3263C21.6849 19.0263 23.1849 18.9263 24.7849 18.8263C25.4849 18.8263 26.0849 18.8263 26.7849 18.9263C27.3849 18.9263 28.0849 19.0263 28.6849 19.0263H28.5849C29.5849 19.1263 30.5849 19.2263 31.5849 19.3263C32.1849 19.4263 32.7849 19.5263 33.3849 19.5263H33.2849C33.3849 19.5263 33.4849 19.5263 33.6849 19.5263C33.7849 19.5263 33.7849 19.5263 33.8849 19.5263C34.1849 19.5263 34.3849 19.6263 34.5849 19.8263C34.6849 19.9263 34.6849 20.0263 34.7849 20.0263C34.8849 19.9263 34.9849 19.8263 35.0849 19.7263C35.3849 19.5263 35.6849 19.4263 35.9849 19.2263C36.6849 18.9263 37.3849 18.7263 38.0849 18.6263C38.7849 18.5263 39.5849 18.4263 40.2849 18.3263C40.9849 18.2263 41.7849 18.2263 42.4849 18.2263C43.2849 18.2263 43.9849 18.3263 44.7849 18.4263C45.5849 18.5263 46.2849 18.7263 47.0849 19.0263C47.8849 19.2263 48.5849 19.5263 49.2849 19.9263C49.9849 20.2263 50.6849 20.7263 51.3849 21.1263C51.9849 21.5263 52.6849 21.9263 53.2849 22.4263C53.8849 22.9263 54.4849 23.4263 54.9849 23.9263C55.5849 24.4263 56.0849 24.9263 56.6849 25.5263C57.2849 26.0263 57.7849 26.6263 58.2849 27.2263C58.7849 27.8263 59.1849 28.4263 59.6849 29.1263C60.0849 29.7263 60.4849 30.4263 60.8849 31.0263C61.2849 31.6263 61.5849 32.3263 61.9849 33.0263C62.2849 33.7263 62.5849 34.3263 62.8849 35.0263C63.1849 35.7263 63.3849 36.4263 63.5849 37.2263C63.7849 37.9263 63.8849 38.6263 63.9849 39.4263C64.0849 40.1263 64.0849 40.9263 64.1849 41.6263C64.1849 42.3263 64.1849 43.0263 64.0849 43.8263C63.9849 44.8263 63.6849 45.7263 63.3849 46.6263C62.9849 47.7263 62.5849 48.7263 62.1849 49.8263C61.7849 50.8263 61.3849 51.7263 61.0849 52.7263V52.8263C60.8849 53.5263 60.5849 54.3263 60.4849 55.0263C60.4849 55.1263 60.4849 55.1263 60.4849 55.2263C60.4849 55.3263 60.4849 55.5263 60.4849 55.6263C60.3849 55.9263 60.1849 56.2263 59.8849 56.3263C59.8849 56.5263 59.7849 56.6263 59.6849 56.7263C59.5849 56.9263 59.2849 57.0263 59.0849 57.0263C58.1849 57.0263 58.0849 56.9263 57.9849 56.8263Z" fill="#0B263D"/>
<path d="M21.3851 49.6262C21.1851 49.4262 21.2851 49.1262 21.3851 48.9262C21.4851 48.6262 21.6851 48.4262 21.7851 48.2262C22.0851 47.7262 22.4851 47.3262 22.8851 46.9262C23.2851 46.4262 23.7851 46.0262 24.2851 45.6262C24.6851 45.2262 25.1851 44.9262 25.6851 44.6262C26.1851 44.3262 26.7851 44.0262 27.2851 43.8262C27.8851 43.6262 28.4851 43.4262 29.0851 43.3262C29.6851 43.2262 30.2851 43.1262 30.9851 43.0262C31.5851 42.9262 32.1851 42.8262 32.8851 42.8262C33.4851 42.8262 34.0851 42.8262 34.6851 42.9262C35.2851 43.0262 35.8851 43.1262 36.4851 43.3262C37.0851 43.5262 37.6851 43.7262 38.1851 43.9262C38.7851 44.1262 39.2851 44.4262 39.7851 44.7262C40.5851 45.1262 41.2851 45.7262 41.9851 46.3262C42.1851 46.5262 42.3851 46.7262 42.5851 47.0262C42.6851 47.1262 42.7851 47.2262 42.7851 47.3262C42.8851 47.4262 42.9851 47.5262 42.9851 47.6262C43.1851 47.9262 43.0851 48.3262 42.7851 48.5262C42.4851 48.7262 42.0851 48.7262 41.8851 48.4262C41.8851 48.3262 41.7851 48.3262 41.7851 48.2262C41.6851 48.1262 41.5851 47.9262 41.4851 47.8262C41.2851 47.6262 41.0851 47.4262 40.7851 47.2262C40.4851 46.9262 40.1851 46.7262 39.7851 46.4262C39.4851 46.2262 39.1851 46.0262 38.8851 45.9262C38.8851 45.9262 38.8851 45.9262 38.7851 45.9262C38.3851 45.7262 38.0851 45.5262 37.6851 45.4262C37.2851 45.2262 36.8851 45.1262 36.4851 44.9262C35.8851 44.7262 35.3851 44.6262 34.7851 44.5262C34.3851 44.4262 33.9851 44.3262 33.5851 44.3262C33.0851 44.3262 32.6851 44.3262 32.1851 44.3262C31.1851 44.4262 30.1851 44.5262 29.1851 44.7262C29.1851 44.7262 29.1851 44.7262 29.0851 44.7262C28.9851 44.7262 28.9851 44.7262 28.8851 44.7262H28.9851C28.5851 44.8262 28.0851 44.9262 27.6851 45.0262C27.2851 45.2262 26.8851 45.3262 26.4851 45.5262C26.2851 45.6262 26.0851 45.7262 25.7851 45.9262C25.7851 45.9262 25.7851 45.9262 25.8851 45.9262C25.4851 46.2262 24.9851 46.5262 24.5851 46.9262C23.9851 47.4262 23.4851 48.0262 22.9851 48.5262C22.7851 48.7262 22.5851 48.9262 22.4851 49.2262C22.3851 49.3262 22.3851 49.4262 22.2851 49.5262C22.2851 49.6262 22.1851 49.7262 22.0851 49.8262C21.9851 49.9262 21.8851 50.0262 21.6851 50.0262C21.5851 49.8262 21.4851 49.7262 21.3851 49.6262Z" fill="#FFF6C4"/>
<path d="M30.2851 53.8257C29.2851 53.7257 28.2851 53.5257 27.2851 53.2257C26.7851 53.1257 26.2851 52.9257 25.8851 52.7257C25.4851 52.5257 24.9851 52.3257 24.5851 52.1257C24.5851 52.1257 24.5851 52.1257 24.6851 52.1257C24.3851 51.9257 24.0851 51.8257 23.7851 51.6257C23.4851 51.4257 23.0851 51.2257 22.7851 51.0257C22.4851 50.8257 22.2851 50.6257 21.9851 50.4257C21.6851 50.2257 21.2851 49.9257 21.3851 49.4257C21.4851 49.1257 21.7851 48.9257 22.0851 49.0257C22.2851 49.0257 22.3851 49.2257 22.4851 49.3257C22.6851 49.4257 22.8851 49.6257 22.9851 49.7257C23.2851 49.9257 23.6851 50.1257 23.9851 50.3257C24.3851 50.5257 24.6851 50.7257 25.0851 50.9257C25.0851 50.9257 25.0851 50.9257 24.9851 50.9257C25.0851 50.9257 25.0851 51.0257 25.1851 51.0257C25.1851 51.0257 25.1851 51.0257 25.0851 51.0257C25.6851 51.3257 26.2851 51.6257 26.9851 51.8257C27.5851 52.0257 28.0851 52.2257 28.6851 52.3257C29.3851 52.4257 30.0851 52.5257 30.6851 52.6257C31.4851 52.6257 32.2851 52.6257 33.0851 52.6257C33.5851 52.6257 33.9851 52.5257 34.4851 52.4257C34.7851 52.3257 34.9851 52.3257 35.2851 52.2257C35.4851 52.1257 35.7851 52.1257 35.9851 52.0257C35.9851 52.0257 35.9851 52.0257 36.0851 52.0257C36.8851 51.7257 37.6851 51.3257 38.4851 50.9257C38.8851 50.7257 39.2851 50.5257 39.5851 50.3257C39.9851 50.0257 40.3851 49.7257 40.7851 49.4257C41.0851 49.1257 41.3851 48.8257 41.6851 48.5257C41.7851 48.4257 41.8851 48.3257 41.9851 48.2257C42.1851 47.9257 42.5851 47.9257 42.8851 48.1257C43.1851 48.3257 43.1851 48.7257 42.9851 49.0257C42.5851 49.4257 42.2851 49.8257 41.8851 50.2257C41.4851 50.6257 41.1851 50.9257 40.7851 51.2257C40.2851 51.6257 39.7851 51.8257 39.1851 52.1257C38.6851 52.4257 38.0851 52.6257 37.4851 52.9257C36.3851 53.4257 35.1851 53.7257 33.8851 53.9257C33.1851 54.0257 32.5851 54.0257 31.8851 54.0257C31.3851 53.9257 30.7851 53.8257 30.2851 53.8257Z" fill="#FFF6C4"/>
<path d="M21.5851 55.5266C21.2851 55.3266 21.1851 54.9266 21.3851 54.6266C21.5851 54.3266 21.7851 54.1266 21.9851 53.9266C22.1851 53.7266 22.4851 53.4266 22.6851 53.2266C22.9851 52.9266 23.2851 52.6266 23.5851 52.3266C23.6851 52.2266 23.8851 52.0266 23.9851 51.9266C24.0851 51.8266 24.2851 51.7266 24.3851 51.7266C24.6851 51.7266 24.8851 51.9266 24.9851 52.1266C25.0851 52.5266 24.7851 52.8266 24.5851 53.0266C24.3851 53.2266 24.0851 53.5266 23.8851 53.7266C23.5851 54.1266 23.1851 54.4266 22.8851 54.8266C22.6851 55.0266 22.5851 55.2266 22.3851 55.4266C22.2851 55.5266 22.0851 55.5266 21.9851 55.5266C21.8851 55.6266 21.7851 55.6266 21.5851 55.5266Z" fill="#FFF6C4"/>
<path d="M27.5849 58.0259C27.1849 58.0259 26.9849 57.626 26.9849 57.326C27.0849 56.526 27.1849 55.726 27.2849 54.926C27.3849 54.526 27.3849 54.226 27.4849 53.826C27.4849 53.626 27.5849 53.426 27.5849 53.226C27.6849 52.926 28.0849 52.726 28.4849 52.926C28.6849 53.026 28.6849 53.3259 28.6849 53.5259C28.6849 53.7259 28.6849 53.9259 28.6849 54.1259C28.6849 54.4259 28.5849 54.8259 28.5849 55.1259C28.4849 55.9259 28.3849 56.626 28.3849 57.426C28.2849 57.826 27.9849 58.0259 27.5849 58.0259Z" fill="#FFF6C4"/>
<path d="M33.285 58.0261C33.185 57.7261 33.185 57.3261 33.085 57.0261C32.985 56.6261 32.985 56.2261 32.885 55.8261C32.785 55.4261 32.785 55.1261 32.685 54.7261C32.585 54.3261 32.585 53.9261 32.885 53.6261C32.985 53.5261 33.085 53.5261 33.185 53.5261C33.285 53.5261 33.385 53.5261 33.485 53.6261C33.585 53.7261 33.685 53.8261 33.685 54.0261C33.685 54.2261 33.785 54.4261 33.785 54.6261C33.885 55.0261 33.885 55.3261 33.985 55.7261C34.085 56.1261 34.085 56.5261 34.185 56.9261C34.285 57.3261 34.285 57.6261 34.385 58.0261C34.485 58.3261 34.185 58.6261 33.885 58.7261H33.785C33.685 58.6261 33.385 58.3261 33.285 58.0261Z" fill="#FFF6C4"/>
<path d="M40.0851 55.9262C39.9851 55.8262 39.9851 55.7262 39.8851 55.6262C39.8851 55.6262 39.8851 55.6262 39.8851 55.7262C39.6851 55.3262 39.4851 55.0262 39.2851 54.7262C39.0851 54.4262 38.8851 54.1262 38.6851 53.8262C38.4851 53.5262 38.2851 53.2262 38.0851 52.8262C37.9851 52.7262 37.9851 52.6262 37.9851 52.4262C37.9851 52.1262 38.1851 51.8262 38.4851 51.8262C38.8851 51.8262 39.0851 52.2262 39.1851 52.4262C39.3851 52.7262 39.5851 53.0262 39.7851 53.4262C39.9851 53.7262 40.1851 54.1262 40.2851 54.4262C40.4851 54.7262 40.6851 55.1262 40.8851 55.4262C40.9851 55.5262 40.9851 55.7262 40.9851 55.9262C40.9851 56.0262 40.8851 56.2262 40.6851 56.3262C40.5851 56.4262 40.4851 56.4262 40.3851 56.4262C40.3851 56.2262 40.1851 56.1262 40.0851 55.9262Z" fill="#FFF6C4"/>
<path d="M44.7849 52.2263C44.1849 51.7263 43.5849 51.3263 42.9849 50.8263C42.6849 50.6263 42.3849 50.3263 42.0849 50.1263C41.9849 50.0263 41.8849 49.9263 41.7849 49.8263C41.5849 49.6263 41.4849 49.3263 41.6849 49.0263C41.7849 48.8263 42.0849 48.7263 42.2849 48.7263C42.3849 48.7263 42.4849 48.7263 42.4849 48.8263C42.5849 48.8263 42.6849 48.9263 42.8849 49.0263C43.2849 49.2263 43.5849 49.5263 43.9849 49.7263C44.5849 50.1263 45.0849 50.6263 45.6849 51.1263C45.9849 51.3263 46.0849 51.8263 45.7849 52.1263C45.6849 52.3263 45.4849 52.4263 45.2849 52.4263C45.0849 52.3263 44.9849 52.3263 44.7849 52.2263Z" fill="#FFF6C4"/>
<path d="M30.6851 51.4263C30.0851 51.4263 29.5851 51.3263 28.9851 51.2263C28.3851 51.1263 27.7851 51.1263 27.2851 50.9263C26.6851 50.7263 26.0851 50.5263 25.5851 50.3263C25.3851 50.2263 25.0851 50.1263 24.8851 49.9263C24.6851 49.8263 24.4851 49.7263 24.4851 49.5263C24.4851 49.4263 24.4851 49.3263 24.4851 49.1263C24.5851 48.9263 24.7851 48.7263 25.0851 48.8263H25.1851C25.2851 48.8263 25.2851 48.8263 25.3851 48.9263C25.4851 49.0263 25.5851 49.0263 25.7851 49.1263C26.1851 49.3263 26.5851 49.4263 26.9851 49.6263C26.9851 49.6263 26.9851 49.6263 27.0851 49.6263C27.3851 49.7263 27.6851 49.8263 28.0851 49.9263C28.8851 50.0263 29.5851 50.2263 30.3851 50.2263C30.6851 50.2263 31.0851 50.2263 31.3851 50.2263C31.6851 50.2263 31.9851 50.2263 32.3851 50.2263C33.1851 50.1263 33.9851 50.0263 34.7851 49.9263C35.3851 49.8263 36.0851 49.6263 36.6851 49.4263C37.2851 49.2263 37.8851 48.9263 38.4851 48.6263C38.5851 48.6263 38.5851 48.5263 38.6851 48.5263C38.7851 48.5263 38.7851 48.4263 38.8851 48.4263C39.1851 48.2263 39.5851 48.3263 39.6851 48.6263C39.8851 48.9263 39.6851 49.3263 39.3851 49.5263C39.2851 49.5263 39.2851 49.5263 39.1851 49.6263C38.8851 49.7263 38.6851 49.9263 38.3851 50.0263C37.9851 50.2263 37.6851 50.3263 37.2851 50.4263C36.2851 50.8263 35.2851 51.0263 34.2851 51.2263C33.7851 51.3263 33.2851 51.4263 32.7851 51.4263C32.3851 51.4263 31.8851 51.5263 31.4851 51.5263C30.9851 51.4263 30.8851 51.4263 30.6851 51.4263Z" fill="#FFF6C4"/>
<path d="M32.685 40.5255C32.285 40.4255 32.085 40.3255 31.785 40.1255C31.585 40.0255 31.485 39.7255 31.485 39.5255C31.485 39.5255 31.485 39.5256 31.485 39.4256C31.485 39.2256 31.385 39.0255 31.485 38.8255C31.485 38.5255 31.585 38.3255 31.785 38.1255C31.885 38.0255 31.885 37.9256 31.985 37.9256C32.185 37.8256 32.385 37.7255 32.585 37.6255C32.785 37.5255 33.085 37.5255 33.285 37.6255C33.385 37.6255 33.385 37.6255 33.485 37.7255C33.885 37.9255 34.185 38.2255 34.285 38.6255V38.7255C34.285 38.7255 34.285 38.7255 34.285 38.8255C34.285 38.9255 34.285 39.1255 34.285 39.2255C34.285 39.4255 34.185 39.6255 34.085 39.7255C33.885 40.0255 33.585 40.3255 33.285 40.3255C33.185 40.3255 33.085 40.3255 32.885 40.3255C32.785 40.5255 32.785 40.5255 32.685 40.5255Z" fill="#FFF6C4"/>
<path d="M32.1849 34.7263C32.1849 34.3263 32.4849 34.0262 32.8849 34.0262C33.2849 34.0262 33.5849 34.3263 33.5849 34.7263C33.5849 35.1263 33.2849 35.4263 32.8849 35.4263C32.4849 35.4263 32.1849 35.1263 32.1849 34.7263Z" fill="#FFF6C4"/>
<path d="M33.2851 31.5262C33.6164 31.5262 33.8851 31.2575 33.8851 30.9262C33.8851 30.5948 33.6164 30.3262 33.2851 30.3262C32.9537 30.3262 32.6851 30.5948 32.6851 30.9262C32.6851 31.2575 32.9537 31.5262 33.2851 31.5262Z" fill="#FFF6C4"/>
<path d="M33.1851 27.8267C33.1851 27.5267 33.4851 27.2267 33.7851 27.2267C34.0851 27.2267 34.3851 27.5267 34.3851 27.8267C34.3851 28.1267 34.0851 28.4267 33.7851 28.4267C33.3851 28.4267 33.1851 28.1267 33.1851 27.8267Z" fill="#FFF6C4"/>
<path d="M8.28502 50.6259C8.18502 50.6259 8.08502 50.5259 8.08502 50.4259V50.3259C8.08502 50.2259 8.18502 50.1259 8.28502 50.0259C8.38502 49.9259 8.48502 49.7259 8.58502 49.6259C8.78502 49.3259 9.08502 49.0259 9.28502 48.7259C9.78502 48.1259 10.285 47.5259 10.785 46.9259C11.785 45.7259 12.785 44.5259 13.785 43.2259C14.785 42.0259 15.685 40.7259 16.585 39.4259C17.085 38.7259 17.585 38.1259 18.085 37.4259C18.585 36.8259 19.085 36.1259 19.585 35.5259C20.585 34.2259 21.585 32.9259 22.585 31.7259C23.085 31.1259 23.585 30.5259 24.085 29.9259C24.585 29.3259 25.085 28.7259 25.585 28.1259C26.085 27.5259 26.585 27.0259 27.085 26.4259C27.285 26.1259 27.585 25.8259 27.785 25.6259C27.885 25.4259 27.985 25.3259 28.185 25.1259C28.285 25.0259 28.385 24.8259 28.485 24.7259C28.485 24.7259 28.485 24.6259 28.585 24.6259C28.685 24.5259 28.785 24.4259 28.885 24.4259C28.985 24.4259 29.085 24.4259 29.185 24.5259C29.385 24.7259 29.385 24.9259 29.285 25.1259C29.185 25.3259 29.085 25.4259 28.885 25.5259C28.785 25.6259 28.685 25.8259 28.485 25.9259C28.285 26.2259 27.985 26.5259 27.785 26.7259C27.285 27.3259 26.785 27.9259 26.385 28.4259C25.385 29.6259 24.385 30.8259 23.385 32.0259C22.885 32.6259 22.385 33.3259 21.785 33.9259C21.285 34.5259 20.785 35.2259 20.285 35.8259C19.785 36.4259 19.285 37.1259 18.785 37.7259C18.285 38.3259 17.785 39.0259 17.285 39.6259C16.285 40.9259 15.385 42.1259 14.285 43.4259C13.785 44.0259 13.285 44.6259 12.785 45.2259C12.285 45.8259 11.785 46.4259 11.285 47.0259C10.785 47.6259 10.285 48.2259 9.78502 48.8259C9.58502 49.1259 9.28502 49.4259 9.08502 49.7259C8.98502 49.8259 8.88502 50.0259 8.78502 50.1259C8.68502 50.2259 8.58502 50.3259 8.48502 50.4259C8.38502 50.6259 8.38502 50.6259 8.28502 50.6259Z" fill="#274C6C"/>
<path d="M7.48531 47.0269C7.38531 46.9269 7.38531 46.8269 7.38531 46.7269C7.38531 46.6269 7.48531 46.5269 7.48531 46.4269C7.58531 46.2269 7.68531 46.1269 7.78531 45.9269C7.98531 45.6269 8.18531 45.3269 8.38531 45.0269C8.78531 44.3269 9.18532 43.7269 9.68532 43.1269C10.5853 41.8269 11.4853 40.6269 12.3853 39.3269C12.7853 38.7269 13.2853 38.1269 13.6853 37.5269C14.1853 36.9269 14.5853 36.3269 15.0853 35.6269C15.9853 34.4269 16.9853 33.2269 17.8853 32.0269C18.8853 30.8269 19.7853 29.6269 20.7853 28.5269C21.2853 27.9269 21.7853 27.3269 22.2853 26.7269C22.3853 26.6269 22.4853 26.5269 22.5853 26.5269C22.6853 26.5269 22.7853 26.5269 22.8853 26.6269C23.0853 26.7269 23.0853 27.0269 22.9853 27.2269C21.9853 28.4269 20.9853 29.5269 19.9853 30.7269C18.9853 31.9269 18.0853 33.1269 17.0853 34.3269C16.0853 35.5269 15.1853 36.7269 14.1853 38.0269C13.2853 39.2269 12.3853 40.4269 11.4853 41.6269C10.7853 42.6269 10.0853 43.6269 9.38531 44.6269C9.38531 44.7269 9.28531 44.7269 9.28531 44.8269C8.98531 45.2269 8.68531 45.7269 8.38531 46.1269C8.28531 46.3269 8.08531 46.5269 7.98531 46.7269C7.88531 46.8269 7.88531 46.9269 7.78531 46.9269C7.78531 47.0269 7.68531 47.0269 7.58531 47.0269H7.48531C7.58531 47.1269 7.58531 47.0269 7.48531 47.0269Z" fill="#274C6C"/>
<path d="M5.98506 42.1263C5.88506 42.0263 5.88506 41.8263 5.98506 41.6263C5.98506 41.4263 6.08507 41.2263 6.08507 41.1263C6.18507 40.7263 6.28506 40.4263 6.48506 40.1263C6.78506 39.4263 7.08506 38.7263 7.48506 38.0263C8.18506 36.6263 8.98507 35.3263 9.88507 34.1263C10.2851 33.5263 10.7851 32.9263 11.2851 32.3263C11.7851 31.7263 12.2851 31.1263 12.7851 30.6263C13.2851 30.0263 13.7851 29.5263 14.3851 28.9263C14.8851 28.4263 15.4851 27.8263 15.9851 27.3263C16.4851 26.8263 17.0851 26.3263 17.5851 25.8263C18.1851 25.3263 18.6851 24.8263 19.2851 24.4263C19.6851 24.1263 20.1851 23.7263 20.5851 23.4263C20.7851 23.3263 20.9851 23.3263 21.1851 23.5263C21.2851 23.7263 21.2851 23.9263 21.0851 24.1263C20.4851 24.5263 19.9851 25.0263 19.3851 25.4263C18.8851 25.8263 18.2851 26.3263 17.7851 26.7263C17.1851 27.2263 16.6851 27.7263 16.1851 28.2263C15.6851 28.7263 15.0851 29.2263 14.5851 29.8263C14.0851 30.4263 13.4851 30.9263 12.9851 31.5263C11.9851 32.6263 11.0851 33.8263 10.1851 35.0263C9.98508 35.3263 9.78507 35.5263 9.58507 35.8263C9.18507 36.3263 8.88507 36.9263 8.58507 37.4263C8.28507 38.0263 7.98508 38.5263 7.68508 39.1263C7.28508 39.8263 6.98508 40.6263 6.68508 41.4263C6.68508 41.5263 6.58507 41.7263 6.58507 41.8263C6.58507 41.9263 6.58506 41.9263 6.48506 42.0263C6.48506 42.1263 6.48507 42.1263 6.38507 42.1263C6.28507 42.2263 6.28508 42.2263 6.18508 42.2263C6.08508 42.2263 5.98506 42.1263 5.98506 42.1263Z" fill="#274C6C"/>
<path d="M53.2847 47.7261C53.1847 47.6261 53.0847 47.5261 52.9847 47.3261C52.8847 47.2261 52.7847 47.0261 52.6847 46.9261C52.4847 46.6261 52.2847 46.3261 52.0847 45.9261C51.6847 45.3261 51.2847 44.6261 50.8847 44.0261C50.0847 42.7261 49.2847 41.4261 48.5847 40.1261C47.7847 38.8261 46.9847 37.5261 46.2847 36.2261C45.4847 34.9261 44.6847 33.6261 43.9847 32.3261C43.5847 31.7261 43.1847 31.0261 42.7847 30.4261C42.3847 29.8261 41.9847 29.2261 41.5847 28.6261C41.4847 28.5261 41.3847 28.3261 41.2847 28.2261C41.1847 28.0261 41.2847 27.8261 41.3847 27.7261C41.4847 27.6261 41.5847 27.6261 41.6847 27.7261C41.7847 27.7261 41.8847 27.8261 41.8847 27.9261C42.2847 28.5261 42.6847 29.2261 43.0847 29.8261C43.4847 30.4261 43.8847 31.0261 44.2847 31.7261C45.0847 33.0261 45.8847 34.3261 46.5847 35.6261C47.3847 36.9261 48.0847 38.2261 48.8847 39.4261C49.6847 40.7261 50.4847 42.0261 51.2847 43.3261C51.6847 43.9261 52.0847 44.6261 52.4847 45.2261C52.6847 45.5261 52.8847 45.8261 52.9847 46.1261C53.1847 46.4261 53.3847 46.7261 53.4847 47.0261C53.4847 47.1261 53.5847 47.2261 53.5847 47.2261C53.5847 47.3261 53.5847 47.5261 53.4847 47.5261C53.4847 47.5261 53.3847 47.5261 53.2847 47.5261C53.3847 47.8261 53.3847 47.8261 53.2847 47.7261Z" fill="#274C6C"/>
<path d="M57.4851 49.8265C57.3851 49.6265 57.3851 49.5265 57.2851 49.3265C57.1851 49.1265 57.1851 48.9265 57.0851 48.7265C56.9851 48.3265 56.7851 47.9265 56.6851 47.5265C56.3851 46.7265 56.0851 45.9265 55.7851 45.1265C55.0851 43.5265 54.3851 41.9265 53.5851 40.4265C52.7851 38.8265 51.8851 37.3265 50.9851 35.8265C50.4851 35.0265 49.9851 34.1265 49.3851 33.3265C49.2851 33.2265 49.2851 33.1265 49.1851 33.0265C48.6851 32.3265 48.1851 31.6265 47.6851 30.9265C47.1851 30.2265 46.5851 29.6265 46.0851 28.9265C45.7851 28.6265 45.5851 28.3265 45.2851 28.0265C44.9851 27.7265 44.7851 27.4265 44.4851 27.1265C43.9851 26.5265 43.3851 25.8265 42.8851 25.2265C42.6851 25.0265 42.7851 24.7265 42.9851 24.6265C43.0851 24.5265 43.1851 24.5265 43.2851 24.5265C43.3851 24.5265 43.4851 24.6265 43.5851 24.7265C44.1851 25.4265 44.6851 26.0265 45.2851 26.7265C45.5851 27.0265 45.8851 27.4265 46.0851 27.7265C46.3851 28.0265 46.5851 28.4265 46.8851 28.7265C47.9851 30.0265 48.9851 31.4265 49.9851 32.9265C50.4851 33.6265 50.8851 34.3265 51.3851 35.1265C51.8851 35.8265 52.2851 36.6265 52.6851 37.3265C53.1851 38.2265 53.6851 39.2265 54.1851 40.1265C54.1851 40.2265 54.2851 40.3265 54.2851 40.3265C54.2851 40.4265 54.3851 40.4265 54.3851 40.5265C55.1851 42.1265 55.8851 43.7265 56.4851 45.3265C56.7851 46.0265 56.9851 46.8265 57.2851 47.5265C57.3851 47.9265 57.5851 48.3265 57.6851 48.6265C57.7851 48.8265 57.7851 48.9265 57.8851 49.1265C57.8851 49.2265 57.9851 49.4265 57.9851 49.5265C58.0851 49.7265 57.9851 49.9265 57.7851 49.9265H57.6851C57.5851 50.0265 57.4851 49.9265 57.4851 49.8265Z" fill="#274C6C"/>
<path d="M60.0851 43.4267C59.8851 43.4267 59.7851 43.3267 59.6851 43.1267C59.5851 43.0267 59.5851 42.9267 59.4851 42.8267C59.3851 42.6267 59.2851 42.3267 59.1851 42.1267C58.9851 41.6267 58.7851 41.2267 58.4851 40.7267C58.0851 39.9267 57.6851 39.2267 57.2851 38.4267C56.8851 37.6267 56.4851 36.9267 55.9851 36.1267C55.4851 35.3267 55.0851 34.6267 54.5851 33.8267C54.0851 33.1267 53.6851 32.3267 53.1851 31.6267C52.9851 31.3267 52.7851 31.0267 52.5851 30.8267C52.5851 30.8267 52.5851 30.8267 52.5851 30.7267C52.5851 30.7267 52.5851 30.7267 52.5851 30.6267L52.4851 30.5267C51.9851 29.8267 51.4851 29.1267 50.9851 28.4267C50.4851 27.7267 49.9851 27.1267 49.3851 26.4267C49.0851 26.0267 48.7851 25.6267 48.4851 25.2267C48.3851 25.0267 48.3851 24.7267 48.4851 24.6267C48.6851 24.4267 48.9851 24.4267 49.1851 24.6267C49.7851 25.3267 50.3851 26.0267 50.8851 26.7267C51.3851 27.4267 51.8851 28.1267 52.3851 28.8267C53.3851 30.2267 54.3851 31.7267 55.2851 33.2267C56.1851 34.7267 57.0851 36.2267 57.8851 37.7267C58.2851 38.5267 58.6851 39.3267 59.0851 40.1267C59.4851 40.9267 59.7851 41.7267 60.0851 42.5267C60.1851 42.6267 60.1851 42.8267 60.2851 42.9267V43.0267C60.2851 43.1267 60.2851 43.2267 60.1851 43.3267C60.2851 43.4267 60.1851 43.4267 60.0851 43.4267Z" fill="#274C6C"/>
</svg>
