<svg width="362" height="591" viewBox="0 0 362 591" fill="none" xmlns="http://www.w3.org/2000/svg">
<path d="M35.5844 81.4237C45.0907 80.5594 54.597 81.1356 64.1032 81.4237C70.1527 81.7118 76.4902 81.4237 82.5397 81.4237C86.5726 81.4237 90.3175 81.4237 94.3505 81.1356C94.6386 81.1356 94.6386 81.1356 94.9267 81.1356C96.079 81.1356 97.2312 80.8475 98.3835 80.8475C99.5357 75.6617 102.993 70.1877 105.873 65.8662C106.737 64.4257 108.466 64.1376 110.482 64.4257C113.075 58.9517 119.989 54.9183 124.886 51.461C132.664 45.9871 140.73 40.8013 148.796 35.9035C164.351 26.3961 180.195 17.4649 197.191 10.8386C213.035 4.50033 228.591 3.63603 245.299 1.0431C249.332 0.466899 255.669 -0.973615 259.126 2.19551C263.447 6.51705 264.023 13.1434 265.464 18.6174C267.192 26.3961 268.632 34.1749 271.225 41.9537C274.394 51.1729 279.291 59.816 284.476 68.171C292.542 81.1356 302.337 92.9478 309.25 106.777C315.3 118.589 319.045 133.282 312.419 145.671C306.37 156.618 291.966 159.211 281.307 155.178C278.427 154.026 275.834 152.297 274.106 150.28C266.904 143.942 264.023 133.858 270.937 125.215C273.818 121.47 280.443 119.453 284.476 122.622C286.493 124.351 287.645 125.791 288.797 128.096C289.085 128.384 289.373 131.265 289.085 132.706C289.085 134.146 288.797 136.163 287.357 136.451C287.069 136.451 286.781 136.451 286.493 136.163C285.917 135.587 285.628 135.011 285.628 134.146C285.34 132.13 285.34 128.961 282.172 128.673C280.731 128.673 279.291 129.537 278.427 130.689C276.41 132.706 276.41 135.875 276.986 138.468C277.274 139.332 277.563 140.197 278.139 141.061C279.291 142.79 280.731 143.942 282.46 145.382C284.764 146.535 287.645 146.823 290.238 146.823C296.863 146.823 303.201 143.078 304.641 136.163C307.234 124.639 294.847 112.251 286.781 105.912C270.937 93.524 251.06 87.1858 235.504 74.2212C234.064 76.2379 232.912 78.5427 231.76 80.5594C224.27 101.591 216.78 122.91 202.953 140.773C203.817 145.094 201.8 147.687 198.055 151.145C202.088 158.923 206.986 166.702 211.307 174.193C217.356 185.141 223.982 195.8 230.895 206.172C231.183 206.46 231.183 206.748 230.895 207.036C230.895 207.325 230.895 207.325 230.607 207.901C230.607 207.901 230.607 207.901 230.607 208.189V208.477C230.031 210.494 227.439 211.646 225.71 211.934C217.644 213.663 208.714 211.934 200.648 210.206C181.059 206.172 162.335 198.97 143.898 191.767C110.194 178.802 79.947 161.228 52.2924 138.756H52.0043C44.2264 132.706 37.8889 126.368 32.1275 118.301C27.2304 111.098 20.8929 103.319 21.7571 94.1002C21.1809 86.3214 28.9588 82.5761 35.5844 81.4237Z" fill="black"/>
<path d="M104.431 71.6282C102.991 74.5092 100.686 77.9664 99.534 81.1356C100.11 81.1356 100.398 81.4237 100.974 81.4237C100.974 81.4237 100.974 81.4237 101.262 81.4237C108.464 82.8642 115.378 84.8809 122.003 87.4738C124.02 84.0166 126.036 80.2713 128.053 76.814C128.341 75.9497 128.917 75.0854 129.493 74.2211C129.781 73.933 129.781 73.6449 130.069 73.3568C129.205 73.0687 128.341 72.4925 127.477 72.2044C122.868 70.1877 117.97 68.4591 113.073 67.0186C107.6 65.2899 106.736 67.5948 104.431 71.6282Z" fill="#014B6E"/>
<path d="M129.494 74.221C125.749 71.6281 121.139 70.4757 116.818 68.747C113.65 67.5946 110.481 66.7303 107.6 67.0184C108.753 66.1541 110.193 65.866 113.074 66.4422C117.971 67.8827 122.868 69.6114 127.477 71.6281C128.341 71.9162 129.205 72.4924 130.07 72.7805C129.782 73.6448 129.782 73.9329 129.494 74.221Z" fill="#014B6E"/>
<path d="M124.596 92.3717C128.341 94.6765 132.086 96.6932 135.831 98.4219C139 99.8624 141.88 101.879 144.761 103.32C146.201 104.184 147.642 105.336 149.37 106.489C150.522 107.353 152.251 108.505 153.403 108.217C155.996 107.641 156.86 105.048 158.588 103.32C161.469 100.15 164.638 96.6932 166.654 92.6598C166.942 91.7955 167.23 91.2193 167.23 90.6431C167.23 90.355 167.23 90.0669 167.23 89.7788C166.078 85.7453 154.843 78.8309 151.098 76.5261C149.082 75.0855 145.625 72.7807 142.168 71.3402C139.288 69.8997 135.543 68.4592 132.95 70.1878C131.51 71.0521 130.934 73.0688 130.357 74.5093C130.069 75.0855 129.781 75.6617 129.781 76.238V76.5261C128.917 77.9666 128.053 79.6952 127.189 81.1357C126.613 82.2881 125.748 83.7286 125.172 84.881C124.308 86.0334 123.444 87.474 122.868 88.6264C122.003 90.6431 123.156 91.5074 124.596 92.3717Z" fill="#FFF4C1"/>
<path d="M236.943 63.2732C236.943 62.9851 237.231 63.2732 236.943 63.2732C236.078 66.4424 234.926 69.6115 233.774 72.4925C235.79 69.3234 238.095 66.1543 240.4 62.9851C243.28 59.2398 247.889 51.1729 253.075 50.3086C253.363 50.3086 253.651 50.5967 253.651 50.8848C254.515 53.7658 253.939 56.6469 253.363 59.5279C253.363 59.816 253.075 59.5279 253.075 59.2398C253.651 53.4777 253.651 49.7324 248.465 55.2064C246.161 57.5112 244.432 60.1041 242.416 62.697C239.535 66.4424 237.231 69.8996 234.638 73.933C235.79 74.7973 245.297 79.9832 246.161 80.5594C250.482 83.1523 255.091 85.7452 259.7 88.3382C268.63 93.524 277.849 98.1336 285.914 104.184C295.997 111.674 309.248 126.944 304.063 140.773C301.758 146.823 293.692 148.552 287.931 148.552C284.762 148.552 281.882 147.399 279.289 145.671C278.425 144.806 277.272 143.942 276.696 143.078V142.79C273.816 139.044 272.375 134.146 275.544 129.825C277.56 127.232 281.017 126.08 283.61 128.673C284.762 129.825 285.05 131.265 285.338 132.706C285.338 132.418 285.914 135.587 286.491 134.723C286.779 134.435 286.779 133.858 287.067 133.57C287.643 125.503 281.305 122.334 275.256 124.639C272.087 125.791 269.783 128.961 268.63 131.842C266.902 135.299 267.19 138.468 268.342 141.637C268.63 143.366 269.495 144.806 270.359 146.247C271.223 149.416 277.272 152.297 279.289 153.161C283.034 154.602 289.083 156.618 293.116 155.466C299.454 154.89 305.215 151.145 308.96 146.247C315.298 138.18 314.145 127.232 311.265 118.013C306.943 103.319 296.861 90.9311 288.219 78.5427C279.577 66.1543 272.375 53.1896 267.766 38.7845C265.462 31.8701 264.597 24.9556 262.869 17.753C261.717 12.8553 261.141 5.65272 255.955 3.3479C252.787 1.90738 248.465 2.77169 245.297 3.3479C228.877 5.65272 213.321 6.80513 197.477 12.8553C181.921 18.9054 167.518 27.2604 153.115 35.9035C145.625 40.5131 137.847 45.1228 130.645 50.0205C127.188 52.3253 123.732 54.9183 120.275 57.5112C118.546 58.9517 117.106 60.1041 115.377 61.5446C116.242 60.9684 111.921 64.1375 110.768 65.2899C113.073 65.578 115.954 66.7305 118.258 67.5948C119.122 67.8829 119.987 68.4591 120.851 68.7472C121.139 68.7472 121.427 69.0353 121.427 69.0353C124.308 70.1877 127.476 71.3401 130.357 72.7806C130.645 72.2044 130.933 71.6282 131.221 71.052C132.95 68.7472 134.966 69.0353 137.271 69.6115C143.032 70.1877 150.522 75.6616 154.267 78.2546C155.131 78.8308 166.654 86.3214 168.382 90.9311C168.382 91.5073 168.094 92.3716 167.806 92.6597C167.518 93.524 166.942 94.3883 166.366 94.9645C176.16 103.319 184.802 113.115 192.292 123.487C194.885 127.232 197.477 131.265 199.494 135.587C199.782 136.451 200.358 137.604 200.646 138.468C200.646 138.756 200.934 139.044 200.934 139.332C218.218 115.996 225.708 88.6263 236.943 63.2732Z" fill="#3B3B3B"/>
<path d="M236.943 63.2732C236.943 62.9851 237.231 63.2732 236.943 63.2732C236.078 66.4424 234.926 69.6115 233.774 72.4925C235.79 69.3234 238.095 66.1543 240.4 62.9851C243.28 59.2398 247.889 51.1729 253.075 50.3086C253.363 50.3086 253.651 50.5967 253.651 50.8848C254.515 53.7658 253.939 56.6469 253.363 59.5279C253.363 59.816 253.075 59.5279 253.075 59.2398C253.651 53.4777 253.651 49.7324 248.465 55.2064C246.161 57.5112 244.432 60.1041 242.416 62.697C239.535 66.4424 237.231 69.8996 234.638 73.933C235.79 74.7973 245.297 79.9832 246.161 80.5594C250.482 83.1523 255.091 85.7452 259.7 88.3382C268.63 93.524 277.849 98.1336 285.914 104.184C295.997 111.674 309.248 126.944 304.063 140.773C301.758 146.823 293.692 148.552 287.931 148.552C284.762 148.552 281.882 147.399 279.289 145.671C278.425 144.806 277.272 143.942 276.696 143.078V142.79C273.816 139.044 272.375 134.146 275.544 129.825C277.56 127.232 281.017 126.08 283.61 128.673C284.762 129.825 285.05 131.265 285.338 132.706C285.338 132.418 285.914 135.587 286.491 134.723C286.779 134.435 286.779 133.858 287.067 133.57C287.643 125.503 281.305 122.334 275.256 124.639C272.087 125.791 269.783 128.961 268.63 131.842C266.902 135.299 267.19 138.468 268.342 141.637C268.63 143.366 269.495 144.806 270.359 146.247C271.223 149.416 277.272 152.297 279.289 153.161C283.034 154.602 289.083 156.618 293.116 155.466C299.454 154.89 305.215 151.145 308.96 146.247C315.298 138.18 314.145 127.232 311.265 118.013C306.943 103.319 296.861 90.9311 288.219 78.5427C279.577 66.1543 272.375 53.1896 267.766 38.7845C265.462 31.8701 264.597 24.9556 262.869 17.753C261.717 12.8553 261.141 5.65272 255.955 3.3479C252.787 1.90738 248.465 2.77169 245.297 3.3479C228.877 5.65272 213.321 6.80513 197.477 12.8553C181.921 18.9054 167.518 27.2604 153.115 35.9035C145.625 40.5131 137.847 45.1228 130.645 50.0205C127.188 52.3253 123.732 54.9183 120.275 57.5112C118.546 58.9517 117.106 60.1041 115.377 61.5446C116.242 60.9684 111.921 64.1375 110.768 65.2899C113.073 65.578 115.954 66.7305 118.258 67.5948C119.122 67.8829 119.987 68.4591 120.851 68.7472C121.139 68.7472 121.427 69.0353 121.427 69.0353C124.308 70.1877 127.476 71.3401 130.357 72.7806C130.645 72.2044 130.933 71.6282 131.221 71.052C132.95 68.7472 134.966 69.0353 137.271 69.6115C143.032 70.1877 150.522 75.6616 154.267 78.2546C155.131 78.8308 166.654 86.3214 168.382 90.9311C168.382 91.5073 168.094 92.3716 167.806 92.6597C167.518 93.524 166.942 94.3883 166.366 94.9645C176.16 103.319 184.802 113.115 192.292 123.487C194.885 127.232 197.477 131.265 199.494 135.587C199.782 136.451 200.358 137.604 200.646 138.468C200.646 138.756 200.934 139.044 200.934 139.332C218.218 115.996 225.708 88.6263 236.943 63.2732Z" fill="#3B3B3B"/>
<path d="M313.57 131.553C313.57 118.589 307.52 106.2 300.318 95.5406C292.541 84.3046 283.322 74.5091 275.256 63.5612C271.8 58.6635 265.75 51.749 267.479 45.4107C268.343 42.2416 261.141 40.513 258.26 39.0725C260.565 38.4963 263.157 39.6487 265.174 39.0725C265.462 39.0725 265.75 38.7844 265.462 38.4963C264.886 35.9034 263.446 33.5985 262.869 31.0056C262.293 27.8365 261.717 24.9555 261.429 21.7863C260.853 16.8886 261.717 11.7028 259.701 7.09311C259.124 5.9407 258.548 4.50019 257.684 3.34778C261.429 6.51691 262.005 12.279 262.869 16.6005C264.31 23.515 265.462 30.7175 267.767 37.632C272.376 52.0371 279.577 65.0017 288.219 77.3901C296.862 89.7785 306.656 102.167 311.265 116.86C313.281 123.198 314.434 130.689 312.705 137.315C313.57 135.587 313.57 133.57 313.57 131.553Z" fill="#3B3B3B"/>
<path d="M219.372 106.777C214.474 118.013 209.001 128.961 201.799 138.756C201.799 138.468 201.511 138.18 201.511 137.892C200.935 137.028 200.647 135.875 200.359 135.011C200.071 134.435 199.783 133.57 199.207 132.994C207.849 126.656 214.474 116.284 219.372 106.777Z" fill="#3B3B3B"/>
<path d="M253.364 50.3086C248.178 51.1729 243.569 59.2398 240.688 62.9851C238.384 66.1543 236.079 69.0353 234.063 72.4925C235.215 69.6115 236.368 66.4424 237.52 63.5613C237.52 63.2732 237.232 62.9851 237.232 63.2732C233.199 72.2044 229.742 81.4237 226.285 90.3549C226.861 84.5928 226.861 78.8308 227.437 73.0687C228.014 65.0018 231.182 58.3755 236.944 52.6134C238.672 50.8848 240.689 48.8681 242.705 47.1395C244.433 45.4109 246.45 43.6823 249.043 43.6823C247.314 45.699 245.298 47.4276 243.569 49.4443C242.129 51.1729 241.265 53.4777 240.4 55.7826C240.112 56.3588 240.977 56.935 241.265 56.3588C245.874 50.8848 254.228 44.2585 262.006 44.8347C258.549 50.3086 256.82 56.3588 254.804 62.4089C253.364 66.7305 251.059 71.6282 253.94 75.9497C256.82 80.2713 262.006 82.8642 266.327 85.4571C272.376 88.9143 278.714 92.3716 284.475 96.1169C295.422 103.319 307.809 113.403 309.825 127.232C311.265 136.739 308.385 147.399 300.319 153.161C298.302 154.026 296.286 154.602 293.981 154.89C289.66 156.042 283.611 154.026 280.154 152.585C278.138 151.721 272.088 148.84 271.224 145.671C270.36 144.23 269.495 142.79 269.207 141.061C268.055 137.892 267.767 134.723 269.495 131.265C270.936 128.384 272.952 125.215 276.121 124.063C282.171 121.758 288.508 124.927 287.932 132.994C287.644 133.282 287.644 133.858 287.356 134.146C286.78 135.011 286.203 131.842 286.203 132.13C285.915 130.689 285.627 129.249 284.475 128.096C281.882 125.503 278.138 126.656 276.409 129.249C273.24 133.57 274.393 138.468 277.561 142.213V142.501C278.426 143.366 279.29 144.23 280.154 145.094C282.459 146.823 285.627 147.975 288.796 147.975C294.557 148.263 302.623 146.247 304.928 140.197C310.113 126.656 297.15 111.098 286.78 103.608C278.426 97.5574 269.495 92.9478 260.565 87.7619C255.956 85.169 251.635 82.5761 247.026 79.9832C246.162 79.407 236.656 74.5092 235.503 73.3568C237.808 69.6115 240.4 65.8661 243.281 62.1208C245.298 59.5279 247.026 56.935 249.331 54.6301C254.516 49.1562 254.516 52.9015 253.94 58.6636C253.94 58.9517 254.228 59.2398 254.228 58.9517C254.804 56.0707 255.668 53.1896 254.516 50.3086C253.652 50.5967 253.652 50.3086 253.364 50.3086Z" fill="#3B3B3B"/>
<path opacity="0.4" d="M115.378 60.6802C117.107 59.2397 118.547 58.0873 120.276 56.6468C123.732 54.0539 127.189 51.7491 130.646 49.1561C137.848 44.2584 145.626 39.6487 153.115 35.0391C167.519 26.6841 181.922 18.0411 197.478 11.9909C213.322 5.94075 228.878 4.50024 245.298 2.48352C248.466 1.90731 252.787 1.04301 255.956 2.48352C258.837 3.92403 260.277 6.51695 261.429 9.68608C259.701 8.53367 257.973 8.53367 255.668 8.82178C251.923 9.39798 248.466 10.5504 244.721 11.7028C216.491 19.4816 185.667 29.5652 165.502 51.7491C163.198 54.342 160.893 57.223 158.877 60.104C157.436 62.1208 155.132 65.0018 154.556 67.3066C153.98 69.6114 157.148 72.2043 158.589 73.6449C162.046 77.1021 166.079 80.2712 169.823 83.1522C172.128 85.169 175.009 86.8976 177.313 89.2024C175.873 90.3548 174.432 90.931 172.992 92.0834C172.704 92.3715 172.704 92.6596 172.992 92.9477C181.058 99.8622 189.412 106.777 194.885 115.996C198.918 122.622 200.935 130.113 202.375 137.604C202.087 137.892 201.799 138.18 201.799 138.468C201.799 138.18 201.511 137.892 201.511 137.604C200.935 136.739 200.647 135.587 200.359 134.723C198.342 130.401 195.75 126.368 193.157 122.622C185.667 112.251 177.025 102.455 167.231 94.1001C167.807 93.2358 168.383 92.6596 168.671 91.7953C168.671 91.5072 169.247 90.3548 169.247 90.0667C167.519 85.169 155.996 77.9664 155.132 77.3902C151.387 75.0854 143.897 69.3233 138.136 68.7471C136.119 68.1709 133.815 67.8828 132.086 70.1876C131.798 70.7638 131.51 71.34 131.222 71.9162C128.341 70.4757 125.173 69.3233 122.292 68.1709C122.004 68.1709 122.004 67.8828 121.716 67.8828C120.852 67.5947 119.987 67.0185 119.123 66.7304C116.819 65.8661 113.938 64.7137 111.633 64.4256C111.922 63.2732 116.243 60.104 115.378 60.6802Z" fill="#3B3B3B"/>
<path d="M201.223 140.485C201.223 140.197 200.935 139.908 200.935 139.908C200.07 136.739 198.054 133.282 196.326 130.401C193.445 125.791 190.276 121.182 186.819 117.148C180.482 109.37 173.568 102.167 165.79 95.5406C163.198 99.286 160.029 103.031 156.86 106.489C158.877 107.929 160.893 109.37 162.91 110.81C175.008 120.029 184.515 131.265 193.157 143.654C193.157 143.654 193.157 143.654 193.445 143.942C194.021 145.67 196.326 149.704 196.614 149.992C196.614 150.28 196.902 150.28 196.902 150.568C199.206 147.687 202.087 144.806 201.223 140.485Z" fill="#014B6E"/>
<path d="M200.935 144.23C200.647 141.925 199.783 139.621 198.631 137.604C196.038 132.13 192.581 127.232 189.124 122.334C182.499 113.403 175.297 104.76 167.519 96.6932C174.721 102.743 181.058 109.658 186.82 116.86C190.277 121.182 193.445 125.503 196.326 130.113C198.055 132.994 200.071 136.451 200.935 139.621C200.935 139.909 200.935 139.909 201.223 140.197C201.511 141.637 201.511 143.078 200.935 144.23Z" fill="#014B6E"/>
<path d="M211.595 178.514C206.409 169.583 200.36 160.076 196.327 150.568C196.039 149.992 193.446 144.806 193.158 144.23C192.006 142.79 190.854 141.061 189.989 139.62C182.5 129.825 173.858 119.741 163.487 112.539C161.183 110.81 158.878 109.37 156.573 107.641C156.285 107.929 155.997 108.217 155.421 108.793C155.133 109.082 154.557 109.37 154.269 109.37C153.981 109.37 153.405 109.37 153.117 109.37C152.54 109.37 151.964 109.082 151.388 108.793C146.491 105.912 141.594 102.743 136.409 99.8622C132.376 97.5574 127.478 95.5407 123.445 92.9478C122.581 92.6597 122.005 92.0834 121.717 91.2191C121.429 90.6429 121.429 90.0667 121.717 89.4905C121.429 89.2024 120.853 89.2024 120.277 88.9143C112.787 86.3214 105.297 84.0166 97.5193 82.288C88.301 82.8642 78.7947 83.1523 69.2884 83.1523C63.8151 83.1523 58.3419 82.5761 52.8685 82.288C51.4282 82.288 49.9878 82.288 48.5475 82.288C51.4282 82.8642 54.0208 83.7285 56.9015 84.5928C71.0169 87.7619 83.6919 99.286 93.7743 108.793C109.906 124.063 124.022 141.061 140.442 155.754C157.726 171.6 177.314 183.412 199.208 191.767C208.138 195.224 217.644 198.393 225.998 202.715C226.286 203.003 226.574 203.003 226.862 203.291C220.813 195.512 216.204 186.581 211.595 178.514Z" fill="#3B3B3B"/>
<path d="M211.595 178.514C206.409 169.583 200.36 160.076 196.327 150.568C196.039 149.992 193.446 144.806 193.158 144.23C192.006 142.79 190.854 141.061 189.989 139.62C182.5 129.825 173.858 119.741 163.487 112.539C161.183 110.81 158.878 109.37 156.573 107.641C156.285 107.929 155.997 108.217 155.421 108.793C155.133 109.082 154.557 109.37 154.269 109.37C153.981 109.37 153.405 109.37 153.117 109.37C152.54 109.37 151.964 109.082 151.388 108.793C146.491 105.912 141.594 102.743 136.409 99.8622C132.376 97.5574 127.478 95.5407 123.445 92.9478C122.581 92.6597 122.005 92.0834 121.717 91.2191C121.429 90.6429 121.429 90.0667 121.717 89.4905C121.429 89.2024 120.853 89.2024 120.277 88.9143C112.787 86.3214 105.297 84.0166 97.5193 82.288C88.301 82.8642 78.7947 83.1523 69.2884 83.1523C63.8151 83.1523 58.3419 82.5761 52.8685 82.288C51.4282 82.288 49.9878 82.288 48.5475 82.288C51.4282 82.8642 54.0208 83.7285 56.9015 84.5928C71.0169 87.7619 83.6919 99.286 93.7743 108.793C109.906 124.063 124.022 141.061 140.442 155.754C157.726 171.6 177.314 183.412 199.208 191.767C208.138 195.224 217.644 198.393 225.998 202.715C226.286 203.003 226.574 203.003 226.862 203.291C220.813 195.512 216.204 186.581 211.595 178.514Z" fill="#3B3B3B"/>
<path d="M219.37 193.784C215.625 189.462 212.168 185.141 208.999 180.531C202.95 171.6 196.9 162.669 191.715 153.161C186.53 143.654 182.209 133.858 175.871 125.503C173.567 122.622 171.262 119.453 168.67 116.572C176.736 123.199 183.649 131.265 189.987 139.62C191.139 141.061 192.291 142.501 193.155 144.23C193.444 144.806 196.036 149.992 196.324 150.568C200.357 160.364 206.407 169.583 211.592 178.514C215.337 184.852 218.794 191.479 222.827 197.529C221.674 196.377 220.522 194.936 219.37 193.784Z" fill="#3B3B3B"/>
<path opacity="0.4" d="M52.8685 81.7118C58.3419 81.9999 63.8151 82.5761 69.2884 82.5761C78.5066 82.8642 88.013 82.288 97.5193 81.7118C105.297 83.4404 112.787 85.4571 120.277 88.3382C120.853 88.3382 121.141 88.6263 121.717 88.9144C121.717 89.4906 121.717 90.0668 121.717 90.643C122.005 91.5073 122.581 92.0835 123.445 92.3716C127.19 95.2526 132.088 96.9812 136.409 99.2861C141.306 102.167 146.203 105.336 151.388 108.217C151.964 108.505 152.54 108.793 153.117 108.793C153.405 108.793 153.981 108.793 154.269 108.793C154.845 108.793 155.133 108.505 155.421 108.217C155.709 107.929 155.997 107.641 156.573 107.065C158.878 108.505 161.183 110.234 163.487 111.963C173.858 119.165 182.5 128.961 189.989 139.044C191.142 140.485 192.294 141.925 193.158 143.654C193.446 144.23 196.039 149.416 196.327 149.992C196.327 150.28 196.327 150.28 196.615 150.28C193.446 145.959 189.989 141.637 186.533 137.604C179.043 128.961 170.113 120.606 160.318 114.556C159.742 114.267 159.166 114.844 159.454 115.42C162.047 118.589 164.063 122.046 165.792 125.791C157.726 117.437 147.643 111.674 137.273 107.065C131.223 104.184 124.886 101.879 118.836 99.5742C113.939 97.8456 108.466 94.9645 102.993 95.2526C102.416 95.2526 102.416 95.8288 102.416 96.1169C109.042 110.522 119.989 122.622 130.647 134.435C141.306 146.247 152.829 157.771 166.368 166.702C179.043 175.057 192.87 181.683 206.697 188.022C212.747 190.615 218.796 193.784 223.694 197.817C224.846 199.258 225.71 200.986 226.862 202.427C226.574 202.139 226.286 202.139 225.998 201.851C217.356 197.241 208.138 194.36 199.208 190.903C177.314 182.26 157.726 170.736 140.442 154.89C124.022 139.909 109.906 122.91 93.7743 107.929C83.6919 98.4217 71.0169 86.8977 56.9015 83.7285C54.3089 82.8642 51.4282 81.9999 48.5475 81.4237C49.9878 81.7118 51.4282 81.7118 52.8685 81.7118Z" fill="#3B3B3B"/>
<path d="M32.9903 118.301C37.0232 124.351 42.2085 128.961 47.3937 133.57C59.4926 143.366 71.8795 153.161 85.1307 161.516C100.686 171.312 117.394 179.379 134.391 186.293C151.099 193.207 167.807 199.258 185.091 204.443C194.021 207.036 203.239 209.053 212.457 210.494C215.914 211.07 219.371 211.07 222.828 210.494C226.573 210.206 227.437 209.341 228.589 206.172C227.149 203.291 219.659 200.698 218.795 200.41C214.186 198.393 209.577 196.665 204.968 194.936C196.325 191.767 187.971 188.022 179.617 183.988C163.774 175.921 149.658 165.262 136.695 153.161C122.58 139.909 109.905 125.503 96.0774 111.963C89.1637 105.336 81.962 98.9979 73.896 93.524C71.3034 91.7954 68.4227 90.0668 65.5421 88.6262C62.9494 87.1857 60.3568 86.0333 57.4762 84.8809C54.0193 83.4404 49.6983 82.288 45.6653 82.288C37.5994 81.4237 29.8215 82.5761 24.0601 88.9143C16.2822 97.8455 28.0931 111.386 32.9903 118.301Z" fill="#535353"/>
<path opacity="0.4" d="M219.66 201.274C213.034 201.274 206.409 201.274 199.783 200.41C184.803 198.393 170.4 194.072 156.573 188.022C140.441 180.819 124.309 173.04 109.617 163.245C94.6378 153.161 82.5389 140.773 71.0161 127.232C65.8309 120.894 60.0695 114.555 56.3246 107.353C54.3081 103.608 52.5797 99.5742 52.0035 95.5407C51.7155 93.2359 51.1394 90.3549 52.8678 88.3382C54.0201 86.6095 56.0365 86.0333 58.3411 85.7452C60.9337 86.8976 63.5263 88.0501 65.8309 89.4906C68.7116 90.9311 71.5923 92.6597 74.1849 94.3883C82.2508 99.8623 89.4526 105.912 96.3662 112.827C110.194 126.368 122.869 140.773 136.984 154.026C149.947 166.126 164.062 176.786 179.906 184.853C188.26 188.886 196.614 192.343 205.256 195.8C209.865 197.529 214.475 199.258 219.084 201.274C219.372 201.274 219.948 201.562 220.524 201.851C219.948 201.274 219.948 201.274 219.66 201.274Z" fill="#3B3B3B"/>
<path d="M24.3479 89.2025C27.8048 85.4572 31.8377 83.7286 36.4468 82.8643C13.9774 101.015 48.2577 131.842 62.3731 143.078C75.9123 154.026 90.3158 164.109 105.295 172.752C105.583 173.04 106.16 173.04 106.448 173.328C99.246 169.583 92.3323 165.838 85.7067 161.516C72.4555 153.161 60.0685 143.366 47.9696 133.57C42.4963 128.961 37.5991 124.351 33.5661 118.301C28.0928 111.386 16.282 97.8456 24.3479 89.2025Z" fill="#535353"/>
<path d="M127.478 89.2026C127.19 87.474 127.766 85.7453 128.63 84.0167L128.918 83.7286C129.494 82.5762 130.07 81.4238 130.935 80.5595C132.663 76.8142 134.68 71.6283 139.001 72.7807C141.881 73.645 145.05 75.3736 147.643 76.8142C150.811 78.5428 153.692 80.2714 156.285 82.2881C158.013 83.4405 162.046 86.0334 162.91 88.6264C164.063 91.2193 161.47 93.8122 159.742 95.8289C157.437 98.9981 155.132 105.624 150.235 103.608C147.931 102.455 145.626 100.727 143.61 99.2862C141.017 97.5575 138.136 95.8289 135.256 94.3884C132.663 92.9479 128.918 92.0836 127.478 89.2026Z" fill="black"/>
<path d="M128.341 88.9144C128.917 90.0668 129.781 90.643 130.645 91.2192C132.374 92.3716 134.678 93.236 136.407 94.1003C139.863 96.117 143.032 98.4218 146.201 100.439C147.641 101.303 149.082 102.455 150.81 103.031C153.403 104.184 155.131 100.727 156.283 98.998C157.148 97.5575 158.012 96.4051 159.164 94.9646C160.316 93.5241 162.621 91.2192 162.333 88.9144C161.757 87.1858 159.74 85.7453 158.3 84.5929C156.571 83.1524 155.131 82 153.403 80.8475C149.658 78.2546 145.625 75.9498 141.304 74.2212C139.287 73.3569 137.271 72.2045 135.542 73.9331L135.254 74.2212C133.526 76.2379 132.374 79.1189 131.221 81.4238C130.357 83.1524 128.629 85.1691 128.341 87.1858C128.341 87.762 128.053 88.3382 128.341 88.9144Z" fill="#014B6E"/>
<path d="M160.605 88.6261C158.876 86.0332 155.995 84.5927 153.403 82.8641C149.658 80.2712 145.913 77.3901 141.88 75.6615C140.152 74.7972 138.711 73.9329 136.983 73.3567C138.423 73.0686 140.152 73.6448 141.304 74.5091C145.625 76.5258 149.658 78.5425 153.403 81.1355C155.131 82.2879 156.86 83.4403 158.3 84.8808C159.452 85.7451 161.757 87.1856 162.333 89.2023C162.333 90.0666 162.045 90.9309 161.469 91.7952C161.757 90.6428 161.469 89.7785 160.605 88.6261Z" fill="#014B6E"/>
<path d="M104.431 71.6283C105.871 68.4591 107.024 66.4424 109.616 66.1543C108.464 68.7472 105.007 71.3402 106.735 74.2212C108.464 77.1022 113.937 77.3903 116.818 78.5427C119.41 79.407 122.291 80.8475 124.884 79.1189C126.612 77.9665 127.765 76.2379 128.917 74.7974C128.629 75.6617 128.053 76.2379 127.765 77.1022C125.748 80.5594 123.732 84.0167 121.715 87.762C115.089 85.1691 108.176 83.1524 100.974 81.7118C100.974 81.7118 100.974 81.7118 100.686 81.7118C100.398 81.7118 99.8219 81.4237 99.2457 81.4237C100.686 77.9665 102.991 74.5093 104.431 71.6283Z" fill="#014B6E"/>
<path d="M166.078 95.5406C166.943 96.405 168.095 97.2693 168.959 98.1336C167.519 99.8622 166.655 101.591 165.502 103.319C165.502 103.608 165.502 103.896 165.502 103.896C171.264 108.793 176.161 114.267 180.77 120.029C184.515 124.639 188.26 129.537 190.852 135.011C192.293 137.892 194.597 143.942 198.342 144.806C199.494 145.094 200.359 144.806 201.223 144.23C200.359 146.535 198.63 148.263 197.19 150.28C197.19 149.992 196.902 149.992 196.902 149.704C196.614 149.416 194.309 145.382 193.733 143.654C193.733 143.654 193.733 143.654 193.445 143.366C185.091 130.977 175.585 119.741 163.198 110.522C161.181 109.081 159.165 107.641 157.148 106.2C160.317 103.031 163.198 99.286 166.078 95.5406Z" fill="#014B6E"/>
<path d="M128.63 87.4738C128.918 85.4571 130.647 83.4404 131.511 81.7118C132.087 80.5593 132.663 79.4069 133.239 78.2545C132.951 79.4069 132.663 80.5593 133.239 81.7118C134.968 86.3214 141.882 86.3214 145.338 89.4905C148.219 92.0834 152.252 96.9812 156.573 96.405C157.725 96.1169 158.878 95.5407 159.742 94.6764C159.742 94.9645 159.454 94.9645 159.454 95.2526C158.59 96.6931 157.437 97.8455 156.573 99.286C155.421 101.015 153.692 104.472 151.1 103.319C149.371 102.455 147.931 101.591 146.491 100.727C143.322 98.4217 140.153 96.405 136.696 94.3883C134.968 93.524 132.951 92.6597 130.935 91.5072C129.783 91.2191 128.918 90.3548 128.63 89.2024C128.054 88.3381 128.342 87.7619 128.63 87.4738Z" fill="#014B6E"/>
<path opacity="0.4" d="M351.307 553.912C350.443 553.912 349.29 554.2 348.426 554.2C342.953 554.776 337.479 555.352 332.006 556.505C320.771 558.522 309.825 561.114 298.878 564.572C294.845 565.724 291.1 566.876 287.355 568.317C287.932 568.317 288.508 568.029 289.084 568.029C310.113 563.131 331.142 559.098 352.171 555.64C352.171 555.64 352.171 555.64 352.171 555.352C351.883 555.064 351.595 554.488 351.307 553.912Z" fill="#BABABA"/>
<path d="M361.677 527.695C361.389 527.695 360.813 527.695 360.525 527.406C360.237 527.406 359.661 527.118 359.373 527.118H359.084C343.529 523.661 331.43 510.985 318.467 502.342C312.993 498.884 306.944 496.003 300.895 493.987H301.183C299.742 493.41 298.014 493.122 296.573 492.834C293.117 492.258 289.66 492.546 286.203 492.258C286.203 492.258 286.203 492.258 285.915 492.258C264.31 491.97 242.705 494.851 221.387 499.172C211.305 501.189 200.935 503.206 190.852 505.223C183.65 493.122 171.84 482.751 159.453 476.412C153.115 473.243 146.489 470.938 139.288 470.362C131.222 469.498 122.868 472.379 115.09 474.107C97.2296 478.141 79.3693 481.598 61.7971 486.784C54.3073 489.089 46.8175 491.682 39.6158 493.987C35.5828 495.427 31.8379 496.868 27.8049 498.308C27.2288 498.596 25.2123 499.172 22.9078 500.037C19.1629 502.053 15.418 504.358 11.6731 506.375C7.35203 509.256 3.8952 513.289 0.726435 517.323C0.726435 517.899 0.726435 518.187 0.726435 518.763C10.8089 511.849 20.6032 505.223 32.414 501.477C32.414 501.477 32.4141 501.477 32.7021 501.477C32.9902 501.477 32.9902 501.477 32.9902 501.477C43.0726 501.477 52.0027 507.527 59.2044 514.154L59.4925 514.442C48.834 518.763 38.7516 523.085 28.6691 529.135C23.772 532.016 19.4509 535.185 15.418 538.354C12.8254 540.083 10.2327 542.1 7.92816 544.404C7.64009 544.693 7.06397 544.981 6.7759 545.269C6.7759 545.269 6.77589 545.269 6.48782 545.269L6.19973 545.557C6.19973 545.845 5.91169 545.845 5.91169 546.133C5.62362 547.862 5.33553 548.726 4.18326 549.878C3.31905 550.743 2.74294 552.183 2.45487 553.624C2.45487 553.912 2.16676 554.776 1.87869 555.929C1.59062 556.505 0.726417 557.369 0.438348 557.657C1.59062 558.521 2.74291 559.674 4.18326 560.826C5.04746 561.403 6.48784 563.419 6.7759 563.707C5.33556 565.148 3.89521 566.588 2.45487 568.317C2.1668 568.605 2.16676 568.893 1.87869 569.181C2.45483 570.046 2.7429 570.622 3.31904 571.486C3.60711 571.198 3.60714 570.91 3.89521 570.91C5.04749 569.469 6.48783 568.029 7.35203 567.165C8.79238 565.436 10.8089 563.995 12.5373 562.555C15.706 559.962 19.4509 557.945 23.1958 556.505C31.2618 553.048 40.1919 551.319 48.834 552.471C56.9 553.336 64.1017 557.369 70.1511 562.267C75.6244 566.876 79.3693 572.35 82.8261 578.112C83.1142 578.401 83.4023 578.689 83.4023 578.977C84.8427 578.977 86.571 579.553 88.0114 580.129C90.3159 580.994 92.6205 581.57 94.637 582.434C94.9251 581.858 95.5012 581.282 96.0773 580.994C102.991 572.927 113.073 567.453 123.156 563.995C135.255 559.962 148.218 558.521 160.893 559.674C172.704 560.538 184.803 564.284 195.461 569.469C200.935 572.062 205.832 574.943 210.729 578.401C215.05 581.57 218.795 585.891 222.252 589.925C222.54 590.213 222.54 590.213 222.828 590.213C223.116 590.213 223.116 590.213 223.404 590.213C224.844 589.637 226.573 589.348 228.013 588.772C233.774 587.332 239.536 585.603 245.297 584.163C257.396 580.993 269.495 578.401 281.594 575.808C293.693 573.215 305.504 570.622 317.603 567.741C329.125 564.86 340.936 563.131 352.459 560.538C352.747 560.538 353.035 559.962 352.747 559.962C353.035 559.098 353.035 557.945 353.035 557.369C353.035 556.793 353.035 556.505 353.035 555.929C353.035 555.64 352.747 555.352 352.747 555.064C352.747 555.064 352.747 554.776 352.459 554.776C352.171 554.488 351.883 553.912 351.595 553.336C350.442 551.895 349.578 550.455 348.138 549.302C350.73 548.726 353.035 548.15 355.628 547.286C355.916 547.286 355.916 546.997 356.204 546.997C356.204 546.421 356.204 545.845 356.204 545.557C355.051 543.54 353.899 541.235 352.171 539.507C351.019 538.354 349.866 536.626 348.426 535.473C348.138 535.185 348.138 534.897 347.85 534.609C351.883 533.168 355.916 531.44 359.949 529.711C360.237 529.711 360.525 529.423 360.525 529.423C360.813 529.423 361.101 529.135 361.389 529.135C361.965 528.559 361.677 528.271 361.677 527.695Z" fill="#ABABAB"/>
<path d="M15.7051 508.104C12.5364 510.12 9.07951 512.137 6.19882 514.442C5.62268 514.73 3.31813 516.171 1.87779 517.323C9.07951 508.968 17.4336 503.206 28.3802 501.766C23.7711 503.206 19.45 505.799 15.7051 508.104Z" fill="white"/>
<path d="M30.6849 529.135C40.4793 523.662 50.2736 519.34 60.6441 515.307C73.6072 527.695 87.7226 546.133 91.1794 564.284C89.7391 561.403 87.1464 555.641 85.13 553.336C77.3521 541.812 64.6771 534.033 51.4259 531.44C41.0554 529.424 30.973 530.864 22.0428 534.897C24.6355 532.881 27.5162 530.864 30.6849 529.135Z" fill="white"/>
<path d="M6.77525 548.15C7.06332 547.574 6.77525 546.71 6.77525 546.133C7.35139 545.557 7.92752 544.981 8.79173 544.405C11.0963 542.964 13.1128 541.236 15.1292 539.795C26.3639 532.881 38.7509 530.576 52.5782 533.169C61.2203 534.897 68.9982 539.219 75.3357 544.981C69.2862 541.236 62.0845 538.355 55.1708 536.338C38.1748 531.728 19.1622 536.626 6.48716 548.726C6.48716 548.438 6.48718 548.15 6.77525 548.15Z" fill="white"/>
<path d="M350.154 552.472C350.442 553.048 351.594 554.2 352.17 555.353V555.641C330.853 559.098 309.824 563.131 289.083 568.029C278.136 570.622 267.478 573.215 256.531 575.52C251.346 576.672 245.872 577.825 240.687 578.977C235.79 580.13 230.605 581.282 225.708 582.434C223.403 580.418 221.099 578.113 218.794 576.096C213.609 571.775 207.847 568.605 202.086 565.148C196.901 562.267 191.715 559.386 185.954 557.369C179.04 555.065 172.127 553.912 164.925 553.048C152.25 551.319 138.135 552.76 126.036 557.369C113.937 561.979 102.126 567.741 93.772 577.825C102.126 568.317 113.361 562.843 124.883 558.522C137.27 553.624 151.386 552.472 164.349 553.912C176.448 555.353 187.971 558.234 198.629 564.284C203.814 567.165 209 570.334 213.897 573.503C216.489 575.232 218.794 577.249 221.387 579.553C222.539 580.418 223.403 581.57 224.555 582.434C224.844 582.722 225.132 582.722 225.132 583.011C225.42 583.011 225.708 583.011 226.284 583.011C236.078 581.282 245.584 578.689 255.091 576.384C266.325 573.791 277.56 571.198 288.795 568.894C309.824 564.284 331.141 559.962 352.17 556.505C352.17 556.793 352.17 557.369 352.458 557.658V557.946C352.458 558.522 352.458 559.386 352.17 559.674C352.17 559.674 352.17 559.674 352.17 559.962C341.223 561.979 329.989 563.996 319.042 566.589C306.943 569.47 295.132 572.063 283.033 574.656C271.223 577.249 259.412 579.841 247.889 582.722C242.128 584.163 236.366 585.892 230.605 587.62C228.3 588.196 225.42 588.773 223.115 589.637C216.201 579.841 206.119 573.215 195.46 568.029C183.65 562.267 170.398 558.81 157.435 558.234C145.048 557.658 132.373 559.674 120.851 563.996C115.089 566.012 109.616 568.894 105.007 572.639C102.702 574.367 100.398 576.384 98.3811 578.401C98.093 578.689 96.6527 580.418 95.7885 581.858C93.4839 581.282 91.1794 580.418 88.5867 579.841C87.1464 579.553 85.9941 579.265 84.5538 578.977C76.7759 563.42 62.6605 551.319 44.2241 551.319C35.294 551.319 26.0757 554.2 18.5859 558.522C14.841 560.539 11.3842 563.42 8.50351 566.301C7.35123 567.453 5.04671 569.47 3.89443 571.486C3.60636 570.91 3.31826 570.046 2.74213 569.47C14.553 556.505 30.3968 547.574 48.2571 548.438C56.8991 549.014 64.677 551.319 71.5907 556.217C78.5043 561.115 84.5537 568.894 88.0106 576.384C88.0106 576.672 88.5867 576.096 88.5867 575.808C84.8419 568.029 78.7924 560.539 72.1668 555.353C64.677 549.591 55.7469 547.574 46.8167 547.286C37.8866 546.998 28.3803 549.879 20.6024 553.912C15.9933 556.217 11.6723 559.386 7.92738 563.131L8.21547 562.843C7.63933 561.403 6.19898 560.25 5.33478 559.098C4.75864 558.522 3.89442 557.658 3.03021 557.369V557.081C9.94387 550.743 16.8575 545.845 26.3638 543.541C34.4297 541.524 43.3599 541.524 51.4258 542.1C60.356 542.676 67.8457 546.422 75.3355 551.031C83.4015 556.217 87.1464 562.843 91.1794 570.91C91.1794 571.198 91.7555 570.622 91.4674 570.622C84.2657 552.184 67.5577 541.236 47.969 540.371C39.615 540.083 30.3968 540.371 22.6189 542.964C18.0098 544.405 13.9768 546.71 9.94386 549.591C9.07965 550.167 5.62281 552.76 3.31826 555.065C3.89439 553.048 4.18247 551.607 5.62282 550.167C19.4501 538.355 36.7343 533.745 54.5946 537.778C62.9486 539.795 71.3026 543.54 78.2162 548.438C79.3685 549.303 80.2327 550.167 81.0969 551.031C82.8253 552.76 84.5538 554.488 85.9941 556.793C88.2987 560.827 91.1794 565.724 92.6197 570.622C92.9078 569.758 93.4839 569.182 94.06 568.605C94.06 568.317 94.3481 568.317 94.3481 568.029C100.686 557.946 108.175 548.15 119.41 543.252C132.661 537.49 147.353 536.626 161.18 539.507C167.23 540.659 173.567 541.812 179.617 543.541C186.818 545.557 193.444 549.879 200.07 553.624C209 558.522 216.489 564.284 223.403 571.198C224.843 572.351 226.86 574.944 228.012 576.384C232.621 574.944 250.77 570.334 255.379 569.182C266.902 566.301 279.289 563.42 291.099 561.115C302.334 559.098 313.569 556.793 324.515 554.488C332.005 552.76 339.783 551.319 347.273 549.591C348.425 550.455 349.289 551.607 350.154 552.472Z" fill="white"/>
<path d="M352.459 557.946C352.459 557.657 352.459 557.081 352.171 556.793C330.854 560.25 309.825 564.284 288.796 569.182C277.561 571.774 266.326 574.367 255.092 576.672C245.585 578.689 236.079 581.57 226.285 583.299C225.997 583.299 225.709 583.299 225.133 583.299C224.844 583.01 224.844 583.01 224.556 582.722C223.404 581.858 222.54 580.706 221.388 579.841C219.083 577.825 216.49 575.52 213.898 573.791C209.001 570.334 203.815 567.453 198.63 564.572C187.972 558.522 176.449 555.641 164.35 554.2C151.387 552.472 137.271 553.912 124.884 558.81C113.362 563.42 102.127 568.893 93.7729 578.113C94.6371 576.96 95.7894 575.808 96.9417 574.656C94.9252 575.808 94.6371 578.113 92.3326 578.401C90.8922 578.401 89.74 577.537 88.8758 576.384C88.8758 576.672 88.5877 576.672 88.5877 576.672C85.1309 569.182 79.0814 561.403 72.1677 556.505C65.2541 551.607 57.4763 549.302 48.8342 548.726C30.9739 547.862 14.842 556.793 3.31921 569.758C3.60728 570.334 4.18344 571.198 4.47151 571.774C5.62379 569.758 7.92831 567.741 9.08059 566.589C12.2494 563.708 15.4181 560.827 19.163 558.81C26.9409 554.488 35.871 551.607 44.8012 551.607C62.9495 551.607 77.353 563.708 85.1309 579.265C86.5712 579.553 87.7235 579.841 89.1639 580.129C91.4684 580.706 93.773 581.57 96.3656 582.146C97.5179 580.706 98.6702 579.265 98.9582 578.689C100.975 576.672 103.279 574.655 105.584 572.927C110.481 569.47 115.954 566.589 121.428 564.284C133.238 559.962 145.625 557.946 158.012 558.522C171.264 559.098 184.227 562.843 196.037 568.317C206.696 573.503 216.778 580.129 223.692 589.925C225.997 589.061 228.589 588.484 231.182 587.908C236.943 586.18 242.705 584.739 248.466 583.01C259.989 579.841 272.088 577.537 283.611 574.944C295.71 572.351 307.52 569.47 319.619 566.877C330.566 564.284 341.513 562.267 352.747 560.25C352.747 560.25 352.747 560.25 352.747 559.962C352.459 559.386 352.459 558.522 352.459 557.946Z" fill="#01203C"/>
<path d="M352.458 557.946C352.458 557.658 352.458 557.081 352.17 556.793C330.853 560.251 309.824 564.284 288.795 569.182C277.56 571.775 266.326 574.368 255.091 576.672C245.585 578.689 236.078 581.57 226.284 583.299C225.996 583.299 225.708 583.299 225.132 583.299C224.844 583.011 224.844 583.011 224.556 582.723C224.267 585.027 223.979 587.332 223.691 589.637C225.996 588.773 228.588 588.197 231.181 587.62C236.942 585.892 242.704 584.451 248.465 582.723C259.988 579.553 272.087 577.249 283.61 574.656C295.709 572.063 307.519 569.182 319.618 566.589C330.565 563.996 341.512 561.979 352.746 559.962C352.746 559.962 352.746 559.962 352.746 559.674C352.458 559.386 352.458 558.522 352.458 557.946Z" fill="#01203C"/>
<path d="M349.289 537.49C350.154 538.643 353.61 541.236 355.339 546.421C334.022 550.743 312.993 555.641 291.676 559.674C270.358 563.708 249.906 570.046 228.877 574.944C221.099 565.148 210.44 557.369 199.493 551.031C193.444 547.574 187.106 544.117 180.481 541.812C172.415 539.219 163.773 537.778 155.707 536.626C141.88 534.609 126.612 537.778 114.513 544.117C109.616 546.71 105.583 551.319 102.126 555.353C100.11 557.946 98.3811 560.539 96.6527 563.131C96.0766 563.996 94.3482 566.301 93.1959 568.317C92.0437 556.793 87.1465 546.421 80.5209 536.914C73.8953 527.119 65.8293 517.035 56.8992 509.256C47.9691 501.766 37.3105 498.596 25.7877 500.325C25.4996 500.325 25.2116 500.613 24.6355 500.613C35.5821 496.292 46.8168 492.834 58.0515 489.089C74.7595 483.615 91.7556 479.87 108.752 476.413C116.241 474.972 123.731 472.955 131.221 471.515C140.151 469.786 149.081 472.667 156.859 476.413C169.534 482.175 181.633 493.123 189.123 505.223C171.839 508.68 154.843 513.002 138.423 519.052C138.423 519.052 138.423 519.052 138.423 519.34C131.509 521.645 124.884 525.39 119.41 529.423C108.752 537.778 98.0931 551.031 94.0601 563.996C93.772 564.572 93.484 565.148 93.1959 565.724C93.1959 566.012 93.484 566.012 93.484 565.724C104.431 548.726 116.818 534.897 136.694 528.847C154.555 523.373 176.736 527.983 192.292 537.49L192.58 537.202C177.024 525.678 153.402 521.933 134.966 527.983C117.394 534.033 103.278 546.71 94.6363 562.843C97.517 555.353 102.414 549.014 107.599 542.676C112.785 536.338 118.834 530.288 126.036 525.966C132.661 522.221 139.575 519.628 147.065 518.187C156.571 516.459 165.789 519.34 174.719 522.797C188.259 528.559 199.782 537.49 211.592 545.845C216.778 549.591 221.963 553.048 227.724 555.353C233.197 557.369 238.671 558.522 244.432 559.386C244.432 559.386 244.432 559.386 244.72 559.386C245.873 559.674 247.025 559.674 248.177 559.674C249.617 559.386 251.058 559.098 252.21 559.098C258.26 557.657 264.309 556.505 270.358 554.776C281.593 551.607 293.116 548.438 304.639 545.845C319.33 542.388 333.734 538.931 347.849 533.745C348.425 535.474 349.001 536.914 349.289 537.49Z" fill="white"/>
<path d="M150.812 543.54C139.289 543.252 129.495 545.557 119.124 550.743C109.906 555.353 98.6715 563.708 94.6385 573.503C94.6385 573.791 94.9266 573.791 94.9266 573.503C106.737 554.776 129.495 544.981 150.812 543.829V543.54Z" fill="#CCCCCC"/>
<path d="M360.525 528.559C342.088 536.914 322.211 541.524 302.623 546.133C291.1 548.726 279.865 551.895 268.631 555.352C262.005 557.369 255.379 558.522 248.754 560.25C241.264 559.098 234.062 557.369 226.861 554.488C219.371 551.319 212.745 545.845 206.12 541.235C192.868 531.728 178.465 521.356 162.045 517.899C158.012 517.035 153.691 516.747 149.37 517.323C158.876 514.73 168.383 512.137 177.889 509.832C181.922 508.968 185.955 508.104 190.276 506.951C190.564 506.951 190.564 506.951 190.852 506.663C200.358 504.646 209.576 502.63 219.083 500.901C232.622 498.308 245.873 496.291 259.412 494.563C271.799 493.122 284.474 493.41 296.861 493.698C305.503 496.003 313.569 500.037 320.771 505.223C327.397 510.12 333.734 515.306 340.36 519.916C346.121 523.949 352.459 528.271 359.661 528.271H359.949C360.237 528.559 360.525 528.559 360.525 528.559Z" fill="white"/>
<path opacity="0.4" d="M69.287 524.525C69.287 524.813 69.287 524.813 68.999 524.813C63.2376 526.254 58.0523 529.423 52.2909 531.728C65.5421 534.609 77.641 542.388 85.1308 553.624C87.1472 555.928 89.7399 561.691 91.1802 564.572C88.2995 550.166 79.0813 536.049 69.287 524.525Z" fill="#BABABA"/>
<path opacity="0.4" d="M6.77526 548.15C7.06333 547.574 6.77526 546.709 6.77526 546.133C7.3514 545.557 7.92753 544.981 8.79174 544.405C11.0963 542.964 13.1128 541.235 15.1292 539.795C26.3639 532.881 38.7509 530.576 52.5782 533.169C61.2203 534.897 68.9982 539.219 75.3357 544.981C69.2862 541.236 62.0845 538.354 55.1708 536.338C38.1748 531.728 19.1622 536.626 6.48717 548.726C6.48717 548.438 6.48719 548.15 6.77526 548.15Z" fill="#BABABA"/>
<path opacity="0.4" d="M352.459 557.945C352.459 557.657 352.459 557.081 352.171 556.793C330.854 560.25 309.825 564.284 288.796 569.181C277.561 571.774 266.327 574.367 255.092 576.672C245.586 578.689 236.079 581.57 226.285 583.298C225.997 583.298 225.709 583.298 225.133 583.298C224.845 583.01 224.845 583.01 224.557 582.722C223.404 581.858 222.54 580.705 221.388 579.841C219.083 577.824 216.491 575.52 213.898 573.791C209.001 570.334 203.816 567.453 198.63 564.572C187.972 558.522 176.449 555.64 164.35 554.2C151.387 552.471 137.272 553.912 124.885 558.81C113.362 563.419 102.127 568.893 93.7731 578.112C102.127 568.029 113.938 562.267 126.037 557.657C138.136 553.048 151.963 551.607 164.926 553.336C172.128 554.2 179.042 555.352 185.955 557.657C191.717 559.674 196.902 562.267 202.087 565.436C207.849 568.893 213.61 572.062 218.795 576.384C221.1 578.401 223.404 580.417 225.709 582.722C230.606 581.57 235.791 580.417 240.688 579.265C245.874 578.112 251.347 576.672 256.532 575.808C267.479 573.503 278.426 570.91 289.084 568.317C310.113 563.419 331.142 559.386 352.171 555.929C352.171 555.929 352.171 555.929 352.171 555.64C351.883 554.776 350.731 553.336 350.155 552.759C349.29 551.607 348.714 550.743 347.85 549.878C340.36 551.607 332.583 553.048 325.093 554.776C313.858 557.369 302.623 559.386 291.677 561.403C279.866 563.707 267.479 566.588 255.956 569.469C251.347 570.622 233.487 575.231 228.59 576.672C227.437 575.231 225.421 572.639 223.98 571.486C217.067 564.572 209.289 558.81 200.647 553.912C194.021 550.455 187.396 546.133 180.194 543.828C174.144 542.1 167.807 540.947 161.757 539.795C147.93 536.914 133.239 537.778 119.987 543.54C108.753 548.438 101.263 557.945 94.9255 568.317C94.9255 568.605 94.6374 568.605 94.6374 568.893C94.0613 569.469 93.7732 570.334 93.1971 570.91C91.7567 566.012 88.876 561.403 86.5714 557.081C85.1311 554.776 83.6908 553.048 81.6743 551.319C80.8101 550.455 79.6578 549.59 78.7936 548.726C71.8799 543.828 63.5259 540.083 55.1719 538.066C37.3116 533.745 20.0275 538.642 6.20014 550.455C4.75979 551.895 4.18369 553.624 3.89562 555.352C6.20018 553.048 9.65697 550.743 10.5212 549.878C14.5541 546.997 18.5871 544.693 23.1962 543.252C30.9741 540.659 40.4804 540.083 48.5463 540.659C68.135 541.523 84.8431 552.471 92.0448 570.91C92.0448 571.198 91.7567 571.486 91.7567 571.198C87.7237 563.131 83.6908 556.505 75.9129 551.319C68.4231 546.709 60.9333 542.964 52.0031 542.388C45.9537 541.812 39.6162 541.812 33.5667 542.676C35.2951 542.676 37.0236 543.252 38.752 543.828C39.0401 544.116 39.3281 544.693 38.752 544.693C28.6696 550.455 16.2826 554.2 8.5047 562.555C8.5047 562.555 8.50472 562.843 8.79279 562.843C8.79279 562.843 8.79277 563.131 8.5047 563.131C12.2496 559.386 16.5707 556.217 21.1798 553.912C28.9576 549.878 38.4639 546.997 47.3941 547.286C56.6123 547.574 65.5424 549.59 72.7441 555.352C79.6578 560.538 85.7073 568.029 89.1641 575.808C89.1641 576.096 88.876 576.672 88.5879 576.384C85.1311 568.893 79.0816 561.114 72.168 556.217C65.2543 551.319 57.4765 549.014 48.8344 548.438C31.2622 547.574 15.7065 556.217 3.89562 568.605C3.60755 568.893 3.60752 569.469 3.31945 569.757C3.60752 570.334 3.8956 570.91 4.18366 571.486C5.33594 569.469 7.64051 567.453 8.79279 566.3C11.9615 563.419 15.1303 560.538 18.8752 558.522C26.6531 554.2 35.5832 551.319 44.5134 551.319C62.6617 551.319 77.0652 563.419 84.8431 578.977C86.2834 579.265 87.4357 579.553 88.876 579.841C91.1806 580.417 93.4851 581.282 96.0777 581.858C97.23 580.417 98.3823 578.977 98.6704 578.401C100.687 576.384 102.991 574.367 105.296 572.639C110.193 569.181 115.666 566.3 121.14 563.995C132.951 559.674 145.338 557.657 157.725 558.233C170.976 558.81 183.939 562.555 195.75 568.029C206.408 573.215 216.491 579.841 223.404 589.637C225.709 588.772 228.301 588.196 230.894 587.62C236.655 585.891 242.417 584.451 248.178 582.722C259.701 579.553 271.8 577.248 283.323 574.655C295.422 572.062 307.232 569.181 319.331 566.588C330.278 563.995 341.225 561.979 352.459 559.962C352.459 559.962 352.459 559.962 352.459 559.674C352.459 559.386 352.459 558.522 352.459 557.945Z" fill="#BABABA"/>
<path opacity="0.4" d="M225.997 583.01C225.421 583.01 225.133 583.01 224.845 583.01C224.556 582.722 224.556 582.722 224.268 582.434C223.116 581.57 222.252 580.417 221.1 579.553C218.795 577.536 216.202 575.231 213.61 573.503C208.713 570.045 203.527 567.164 198.342 564.283C187.684 558.233 176.161 555.352 164.062 553.912C151.099 552.183 136.983 553.624 124.596 558.521C113.074 563.131 101.839 568.605 93.4851 577.824C101.839 567.741 113.65 561.979 125.749 557.369C137.848 552.759 151.675 551.319 164.638 553.047C171.84 553.912 178.754 555.064 185.667 557.369C191.429 559.386 196.614 561.979 201.799 565.148C207.56 568.605 213.322 571.774 218.507 576.096C220.812 578.112 223.116 580.129 225.421 582.434H225.709C225.421 581.858 225.133 581.282 224.845 580.993C223.116 577.824 220.812 574.943 218.507 572.35C213.898 566.876 208.425 562.267 202.663 558.233C190.564 550.166 176.449 544.981 162.045 543.54C146.202 542.1 129.494 544.116 115.666 552.759C105.584 559.098 94.6373 568.893 90.3163 580.417C92.0447 580.993 93.7731 581.57 95.5015 581.858C96.6538 580.417 97.806 578.977 98.0941 578.4C100.111 576.384 102.415 574.367 104.72 572.638C109.617 569.181 115.09 566.3 120.564 563.995C132.374 559.674 144.761 557.657 157.148 558.233C170.399 558.809 183.363 562.555 195.173 568.029C205.832 573.215 215.914 579.841 222.828 589.636C224.556 589.06 226.285 588.484 228.013 588.196C227.725 586.467 226.861 584.739 225.997 583.01Z" fill="#BABABA"/>
<path opacity="0.2" d="M249.043 582.722C256.532 579.265 264.022 575.808 271.8 572.639C266.039 573.791 260.565 575.231 254.804 576.384C245.586 578.401 236.368 580.994 227.149 582.722C228.013 584.451 228.878 586.179 229.454 587.908C229.742 587.908 230.318 587.62 230.606 587.62C236.367 585.891 242.129 584.451 247.89 582.722C248.178 582.722 248.466 582.722 249.043 582.722Z" fill="#BABABA"/>
<path opacity="0.4" d="M352.17 556.793C352.17 556.505 352.17 556.505 352.17 556.793C351.882 556.505 352.17 556.505 352.17 556.793C330.565 559.962 309.536 564.284 288.507 568.893C285.626 569.469 282.745 570.334 279.865 570.91C271.222 574.079 262.869 577.536 254.803 581.282C264.309 578.977 273.815 576.96 283.321 574.655C295.42 572.062 307.231 569.181 319.33 566.588C330.277 563.995 341.223 561.979 352.458 559.962C352.458 559.962 352.458 559.962 352.458 559.674C352.746 559.386 352.746 558.522 352.746 557.945C352.746 557.945 352.746 557.945 352.746 557.657C352.17 557.369 352.458 557.081 352.17 556.793Z" fill="#BABABA"/>
<path opacity="0.4" d="M349.29 537.49C349.002 536.914 348.137 535.474 347.561 534.897C333.446 540.083 318.754 543.54 304.351 546.998C292.828 549.591 281.593 552.76 270.071 555.929C264.021 557.657 257.972 558.81 251.922 560.25C250.482 560.538 249.041 560.827 247.889 560.827C246.737 560.827 245.585 560.827 244.432 560.538H244.144C238.383 559.674 232.91 558.522 227.436 556.505C221.675 554.2 216.202 550.455 211.304 546.998C199.494 538.643 187.971 529.423 174.432 523.949C165.789 520.204 156.571 517.323 146.777 519.34C139.287 520.78 132.373 523.085 125.748 527.119C118.546 531.44 112.785 537.49 107.311 543.828C102.414 549.879 97.229 556.505 94.3483 563.996C103.278 547.862 117.106 534.897 134.678 529.135C153.114 522.797 176.736 526.83 192.292 538.355C192.292 538.355 192.292 538.643 192.004 538.643C176.448 529.135 153.979 524.814 136.406 530C116.53 536.05 103.855 549.879 93.196 566.877C93.196 567.165 92.6199 567.165 92.9079 566.877C93.196 566.3 93.484 565.724 93.7721 565.148C97.8051 552.183 108.464 538.643 119.122 530.576C124.596 526.254 131.221 522.797 138.135 520.492C138.135 520.492 138.135 520.492 138.135 520.204C154.555 514.154 171.551 509.832 188.835 506.375C185.954 501.765 182.497 497.444 178.753 493.411C179.617 500.901 168.67 499.749 162.909 500.901C145.913 503.782 129.205 510.409 114.225 519.052C108.176 522.509 101.55 526.542 94.6364 527.407C87.1466 528.271 81.6732 525.39 75.6238 521.357C69.2863 517.323 62.9487 513.29 56.3231 510.409C65.2533 518.187 73.3192 527.983 79.9448 537.778C86.5704 547.574 91.1795 557.657 92.6199 569.182C93.7721 567.165 95.7887 564.86 96.0767 563.996C97.8051 561.115 99.5335 558.522 101.55 556.217C105.007 551.895 109.04 547.574 113.937 544.981C126.324 538.355 141.304 535.185 155.131 537.49C163.485 538.643 172.127 540.083 179.905 542.676C186.53 544.981 192.868 548.438 198.917 551.895C209.864 557.946 220.523 565.724 228.3 575.808C249.33 570.622 269.782 564.572 291.1 560.538C312.417 556.505 333.446 551.607 354.763 547.286C353.611 541.236 350.154 538.643 349.29 537.49Z" fill="#BABABA"/>
<path opacity="0.4" d="M349.29 537.49C349.002 536.914 348.138 535.473 347.562 534.897C333.447 540.083 318.755 543.54 304.352 546.997C292.829 549.59 281.594 552.759 270.071 555.929C264.022 557.657 257.973 558.81 251.923 560.25C250.483 560.538 249.042 560.826 247.89 560.826C246.738 560.826 245.586 560.826 244.433 560.538H244.145C238.384 559.674 232.91 558.521 227.437 556.505C221.676 554.2 216.202 550.455 211.305 546.997C199.494 538.642 187.972 529.423 174.432 523.949C165.79 520.204 156.572 517.323 146.778 519.34C139.288 520.78 132.374 523.085 125.749 527.118C118.547 531.44 112.786 537.49 107.312 543.828C102.415 549.878 97.2299 556.505 94.3492 563.995C103.279 547.862 117.107 534.897 134.679 529.135C153.115 522.797 176.737 526.83 192.293 538.354C192.293 538.354 192.293 538.642 192.005 538.642C176.449 529.135 153.98 524.813 136.407 529.999C116.531 536.049 103.855 549.878 93.1969 566.876C93.1969 567.165 92.6208 567.165 92.9089 566.876C93.1969 566.3 93.485 565.724 93.773 565.148C97.806 552.183 108.465 538.642 119.123 530.576C124.596 526.254 131.222 522.797 138.136 520.492C138.136 520.492 138.136 520.492 138.136 520.204C154.556 514.154 171.552 509.832 188.836 506.375C188.548 506.087 188.548 505.799 188.26 505.511C187.396 505.511 186.531 505.511 185.667 505.799C178.465 506.375 171.552 507.815 164.638 509.544C149.082 513.289 133.815 517.323 119.123 523.661C111.633 526.83 104.432 530.287 96.9418 533.457C92.9088 535.185 88.2997 537.202 83.9787 535.761C79.6577 534.033 75.9127 530.864 72.1678 527.983C74.7605 531.44 77.3531 534.897 79.6577 538.066C86.2832 547.862 90.8923 557.945 92.3327 569.469C93.485 567.453 95.5015 565.148 95.7895 564.284C97.518 561.402 99.2464 558.81 101.263 556.505C104.72 552.183 108.753 547.862 113.65 545.269C126.037 538.642 141.016 535.473 154.844 537.778C163.198 538.931 171.84 540.371 179.618 542.964C186.243 545.269 192.581 548.726 198.63 552.183C209.577 558.233 220.235 566.012 228.013 576.096C249.042 570.91 269.495 564.86 290.812 560.826C312.13 556.793 333.159 551.895 354.476 547.574C353.611 541.235 350.155 538.642 349.29 537.49Z" fill="#BABABA"/>
<path opacity="0.4" d="M360.237 528.559C352.747 528.559 346.409 524.237 340.648 520.204C335.463 516.747 330.566 512.713 325.38 508.968C325.956 510.408 326.244 511.849 325.956 513.578C325.092 518.763 319.907 521.068 315.298 522.797C299.742 528.271 282.746 529.423 266.902 533.168C252.211 536.626 236.943 541.235 221.963 539.507C213.897 538.642 206.984 535.473 199.782 532.304C194.021 529.999 188.259 527.406 182.21 525.678C190.852 530.287 198.63 536.05 206.408 541.523C213.033 546.133 219.659 551.607 227.149 554.776C234.062 557.657 241.552 559.386 249.042 560.538C255.668 558.81 262.293 557.369 268.919 555.641C280.153 552.471 291.676 549.014 302.911 546.421C322.5 541.812 342.376 537.202 360.813 528.847C360.525 528.559 360.237 528.559 360.237 528.559Z" fill="#BABABA"/>
<g opacity="0.6">
<path d="M251.922 429.164C245.873 431.18 243.856 439.247 233.486 438.383C226.572 437.807 224.844 433.197 225.42 430.028C226.284 425.418 232.334 425.418 232.334 428.587C232.334 429.74 231.758 430.028 231.181 430.028C230.317 430.028 230.317 429.452 230.317 429.452C230.317 429.452 229.165 430.892 230.893 431.757C232.622 432.621 236.367 430.028 234.35 425.418C232.622 420.809 225.42 419.656 222.827 424.266C220.235 428.587 221.387 433.773 222.539 435.214C223.692 436.942 200.07 438.959 196.037 423.978C194.021 416.487 196.901 406.692 203.527 405.251C209.864 403.811 213.321 406.692 213.033 409.285C212.745 411.013 210.729 409.861 210.729 409.861C210.729 409.861 211.593 412.454 214.185 411.013C216.778 409.573 216.778 402.658 210.44 399.489C202.086 395.456 195.173 405.539 187.395 396.032C183.65 391.422 185.955 379.61 201.222 373.272C208.136 370.391 213.609 365.781 217.066 360.883C220.523 353.105 221.675 344.75 213.897 340.428C207.56 336.683 198.918 338.988 193.156 334.378C187.107 329.48 187.395 321.701 190.276 314.787C192.004 310.753 194.021 307.296 196.037 303.263C197.765 299.806 200.646 295.196 199.206 291.162C196.613 283.672 186.243 284.824 179.905 283.672C167.806 281.367 157.436 268.979 160.893 256.878C160.605 249.964 165.214 250.828 166.078 253.133C166.942 255.438 164.061 256.302 163.197 255.15C162.909 254.573 162.621 257.454 165.214 257.454C168.094 257.743 169.823 255.15 168.67 252.269C167.518 249.388 162.621 245.066 156.283 249.676C149.946 254.285 153.403 261.488 149.082 265.233C144.761 268.979 139.287 264.945 136.119 262.064C132.95 259.183 124.596 257.454 119.699 260.912C114.801 264.081 116.818 269.843 119.699 271.283C122.867 273.012 125.172 271.86 124.884 269.267C124.596 266.674 122.291 267.538 122.291 268.691C122.291 268.691 122.003 268.114 122.579 267.25C123.444 266.386 126.324 266.674 126.9 269.267C127.477 271.86 125.46 274.453 120.563 274.164C115.666 274.164 110.769 269.267 112.209 260.624C113.937 251.692 124.884 255.726 128.341 244.778C131.798 233.83 117.394 231.525 117.682 222.882C117.97 214.239 127.477 211.07 132.662 212.799C137.847 214.527 141.016 219.713 138.135 223.458C136.119 226.051 131.509 224.323 131.221 222.018C131.221 222.018 128.917 226.051 134.39 227.204C139.864 228.356 145.913 224.899 145.337 216.256C144.473 207.901 138.135 203.291 144.185 193.208C149.658 183.7 146.777 168.431 127.477 170.448C115.666 171.6 112.497 170.448 111.921 164.685C111.345 158.923 117.682 156.907 119.987 159.5C122.579 161.804 120.275 164.685 118.546 163.821C117.394 163.245 120.563 166.414 123.732 164.109C126.9 161.804 126.324 156.33 121.427 152.873C116.818 149.416 107.312 149.992 107.312 160.076C107.312 170.159 99.2458 171.6 94.0605 169.007C88.8753 166.414 86.8588 161.804 92.9083 155.178C98.9577 148.552 94.3486 137.316 84.8424 136.451C73.3196 135.587 67.5581 147.687 54.8831 141.061C42.208 134.723 47.3933 119.165 54.8831 120.03C60.9325 120.606 59.2042 126.656 55.4593 125.504C54.5951 125.215 59.4922 128.673 61.5087 122.622C63.5252 116.86 54.8831 107.641 43.9365 116.284C39.3274 120.03 32.1257 133.57 46.8172 145.383C50.274 148.264 52.2905 154.602 46.241 157.483C40.1916 160.364 36.1587 155.754 38.7513 152.873C40.4797 150.857 42.2081 153.161 41.0558 154.026C41.0558 154.026 42.4961 154.026 42.4961 151.721C42.4961 149.416 37.8871 146.247 32.7018 150.568C27.5166 154.89 24.6359 166.414 38.7513 173.04C52.8667 179.667 61.2206 182.836 61.2206 192.343C61.2206 201.563 50.8502 202.427 48.5456 198.97C46.2411 195.512 49.1217 192.055 50.8501 193.496C52.8666 194.936 51.1382 196.665 51.1382 196.665C51.1382 196.665 53.7308 196.377 52.2905 192.055C50.8501 187.734 40.1916 187.446 39.3274 199.834C38.4632 212.222 47.1052 215.68 50.562 220.001C53.7308 224.323 56.8996 234.982 52.2905 240.745C47.6814 246.507 37.0228 245.642 34.7182 240.745C32.4137 235.847 35.5824 234.406 37.5989 234.694C39.6154 235.271 40.4797 238.152 38.4632 238.44C37.3109 238.728 41.3439 240.456 41.632 235.847C41.92 231.237 32.4137 227.78 27.8046 235.271C23.1955 242.761 26.6523 249.388 36.4467 253.421C46.241 257.743 43.0723 268.114 28.3808 273.3C19.1626 276.469 16.858 296.348 31.2615 303.839C45.6649 311.042 64.3894 294.332 68.7105 307.584C69.8627 311.33 68.9985 316.227 59.4922 320.837C49.6979 325.447 47.9694 334.666 53.4427 338.988C59.2041 343.597 65.8297 339.564 65.2536 334.666C64.9655 332.361 64.6775 336.971 60.3565 336.971C56.0354 336.971 56.0354 325.735 65.8298 327.463C75.6241 329.192 85.1304 340.14 76.7764 353.681C68.4224 367.222 45.3769 356.85 38.4632 366.933C31.5495 377.305 42.208 383.355 49.1217 379.034C52.0024 377.305 51.4263 372.984 49.4098 372.407C48.5456 372.407 49.9859 372.984 49.4098 374.424C48.8337 375.865 45.6649 377.305 45.0888 373.848C44.5126 370.391 46.8171 366.645 53.4427 367.798C57.7638 368.662 62.661 378.169 53.4427 385.372C44.2245 392.575 35.8706 406.404 48.5456 417.64C61.5087 428.876 76.2003 419.944 87.435 413.03C94.9248 408.42 106.736 412.454 103.567 425.706C102.415 430.604 99.5339 434.349 102.127 438.095C104.719 441.84 110.769 440.112 111.057 436.366C111.345 433.773 109.04 432.045 107.312 432.621C106.736 432.909 109.616 433.197 108.752 435.79C107.6 438.383 101.262 434.061 107.312 428.299C109.904 425.995 116.242 425.418 118.546 432.333C120.851 439.247 113.649 456.533 138.711 462.295C162.333 468.057 169.247 445.874 180.193 454.805C184.226 457.974 188.547 455.093 188.547 451.348C188.547 447.602 185.09 448.178 184.802 449.043C184.802 449.043 185.955 448.466 186.819 449.619C187.683 450.771 186.531 452.5 184.514 452.212C182.21 451.924 180.769 448.466 182.786 445.297C184.802 442.128 195.461 440.4 201.798 449.043C208.136 457.686 223.98 456.533 230.605 452.212C235.791 448.755 235.214 454.517 243.856 455.093C248.754 455.381 251.634 451.636 249.618 449.043C248.466 447.314 245.873 447.89 245.585 449.619C245.585 449.619 246.737 448.755 247.601 449.907C248.466 451.059 246.737 453.076 243.568 451.636C240.688 450.195 241.552 440.112 250.482 440.4C259.412 440.688 263.157 447.602 260.853 455.669C258.548 463.736 254.227 466.041 255.667 472.379C257.108 478.717 265.462 480.734 269.495 477.277C269.495 477.277 261.717 479.582 260.276 471.515C258.836 463.448 267.478 464.6 273.816 450.483C281.594 437.231 265.462 424.554 251.922 429.164Z" fill="#E0F4FE" fill-opacity="0.8"/>
</g>
<path opacity="0.9" d="M71.3034 241.033C70.151 240.456 68.9986 239.88 67.8461 239.592C68.9986 239.304 70.151 239.016 71.3034 238.44C71.0153 237.863 70.7272 237.287 70.4391 236.423C70.151 235.847 69.5748 234.982 69.2867 234.406C69.8629 234.694 70.7272 235.271 71.3034 235.559C71.8796 235.847 72.744 236.135 73.3202 236.423C73.6083 235.847 73.8963 235.271 74.1844 234.406C74.4725 233.542 74.4726 228.644 74.7607 228.068C75.0488 228.932 75.0487 233.83 75.3368 234.406C75.6249 235.271 75.9131 235.847 76.2012 236.423C77.3536 236.135 78.506 235.559 79.6584 234.694C79.0822 235.559 78.2178 236.999 77.9297 238.152C79.0821 238.728 80.2346 239.304 81.387 239.592C80.2346 239.88 79.0821 240.168 77.9297 240.744C78.2178 241.321 78.506 241.897 78.7941 242.761C79.0822 243.337 79.6584 244.202 79.9465 244.778C79.3703 244.49 78.5059 243.914 77.9297 243.626C77.3535 243.337 76.4893 243.049 75.9131 242.761C75.625 243.337 75.3368 243.914 75.0487 244.778C74.7606 245.642 74.7607 249.964 74.4726 250.828C74.1845 249.964 74.1844 245.642 73.8963 244.778C73.6082 243.914 73.3201 243.337 73.032 242.761C71.8796 243.049 70.7272 243.626 69.5748 244.202C70.4391 243.626 71.0153 242.473 71.3034 241.033Z" fill="#014B6E"/>
<path opacity="0.9" d="M65.2532 362.036C63.2367 360.595 60.6441 359.731 58.0515 359.443C60.356 359.155 62.9486 358.29 64.9651 356.85C64.677 355.698 64.101 354.257 63.2368 352.817C62.3725 351.376 61.7964 349.935 60.9321 348.783C62.0844 349.647 63.5247 350.512 64.9651 351.088C66.4054 351.664 67.5578 352.528 68.71 352.817C69.2862 351.664 69.8623 350.512 70.1504 348.783C70.7265 347.343 71.0146 337.547 71.3027 336.107C71.5907 337.547 72.1668 347.343 72.4549 348.783C73.0311 350.224 73.6072 351.664 74.1833 352.817C76.776 352.24 79.0805 351.088 80.8089 349.647C79.3686 351.664 78.2163 353.969 77.6402 356.562C79.6567 358.002 82.2493 358.867 84.8419 359.155C82.5374 359.443 79.9447 360.307 77.9282 361.748C78.2163 362.9 78.7924 364.341 79.6566 365.781C80.5209 367.222 81.097 368.662 81.9612 369.815C80.809 368.95 79.3686 368.086 77.9282 367.51C76.4879 366.645 75.3356 366.069 74.1833 365.781C73.6072 366.934 73.0311 368.086 72.743 369.526C72.1669 370.967 71.8788 379.898 71.5907 381.339C71.3027 379.898 70.7266 370.967 70.4385 369.526C69.8623 368.086 69.5743 366.645 68.71 365.493C66.1174 366.069 63.8128 367.222 62.0844 368.662C63.5247 366.934 64.677 364.341 65.2532 362.036Z" fill="#014B6E"/>
<path opacity="0.9" d="M218.793 491.97C216.777 490.529 214.184 489.665 211.591 489.377C213.896 489.089 216.489 488.224 218.505 486.784C218.217 485.632 217.641 484.191 216.777 482.75C216.201 481.31 215.336 479.869 214.472 478.717C215.624 479.581 217.065 480.446 218.505 481.022C219.945 481.886 221.098 482.462 222.25 482.75C222.826 481.598 223.402 480.446 223.69 479.005C224.266 477.565 224.554 467.769 224.843 466.329C225.131 467.769 225.707 477.565 225.995 479.005C226.571 480.446 226.859 481.886 227.723 483.039C230.316 482.462 232.62 481.31 234.349 479.869C232.909 481.886 231.756 484.191 231.18 486.784C233.197 488.224 235.789 489.089 238.382 489.377C236.077 489.665 233.485 490.529 231.468 491.97C231.756 493.122 232.332 494.563 233.197 496.003C234.061 497.444 234.637 498.884 235.501 500.037C234.349 499.172 232.909 498.308 231.468 497.732C230.028 497.156 228.876 496.291 227.723 496.003C227.147 497.156 226.571 498.308 226.283 500.037C225.707 501.477 225.419 510.408 225.131 511.849C224.843 510.408 224.266 501.477 223.978 500.037C223.402 498.596 222.826 497.156 222.25 496.003C219.657 496.579 217.353 497.732 215.624 499.172C217.065 496.867 218.217 494.563 218.793 491.97Z" fill="#014B6E"/>
<path opacity="0.9" d="M65.8299 269.843C65.2537 269.555 64.3893 269.267 63.8131 268.979C64.3893 268.979 65.2537 268.691 65.8299 268.402C65.8299 268.114 65.5417 267.826 65.2536 267.25C64.9655 266.962 64.6775 266.386 64.6775 266.098C64.9656 266.386 65.5418 266.674 65.8299 266.674C66.118 266.962 66.6942 266.962 66.9823 267.25C67.2704 266.962 67.2704 266.674 67.2704 266.098C67.2704 265.81 67.5585 262.928 67.5585 262.64C67.5585 262.928 67.8465 265.81 67.8465 266.098C67.8465 266.674 68.1347 266.962 68.4228 267.25C68.999 266.962 69.8633 266.674 70.4395 266.386C70.1514 266.962 69.5752 267.538 69.5752 268.402C70.1514 268.691 71.0157 268.979 71.5919 268.979C71.0157 268.979 70.1514 269.267 69.5752 269.555C69.5752 269.843 69.8633 270.419 70.1514 270.707C70.4395 270.995 70.7276 271.572 70.7276 271.86C70.4395 271.572 69.8633 271.283 69.5752 271.283C69.2871 270.995 68.7109 270.995 68.4228 270.707C68.1347 270.995 68.1346 271.283 68.1346 271.86C68.1346 272.148 67.8465 274.741 67.8465 275.317C67.8465 275.029 67.5585 272.436 67.5585 271.86C67.5585 271.283 67.2704 270.995 66.9823 270.707C66.4061 270.995 65.5417 271.283 64.9655 271.572C65.5417 271.283 65.8299 270.707 65.8299 269.843Z" fill="#014B6E"/>
<path opacity="0.9" d="M33.5661 275.317C32.9899 274.741 32.1257 274.741 31.2614 274.453C32.1257 274.453 32.7018 274.164 33.5661 273.588C33.5661 273.3 33.2781 272.724 32.99 272.148C32.7019 271.572 32.4137 271.283 32.1256 270.707C32.4137 270.995 32.9899 271.283 33.5661 271.572C34.1423 271.86 34.4304 271.86 34.7185 272.148C35.0066 271.86 35.0067 271.283 35.2948 270.995C35.5829 270.419 35.5829 267.25 35.5829 266.962C35.5829 267.538 35.871 270.707 35.871 270.995C36.1591 271.572 36.1591 271.86 36.4472 272.436C37.3115 272.148 37.8877 271.86 38.752 271.283C38.1758 271.86 37.8877 272.724 37.5996 273.588C38.1758 274.164 39.0401 274.453 39.9044 274.453C39.0401 274.453 38.4639 274.741 37.5996 275.317C37.5996 275.605 37.8877 276.181 38.1758 276.757C38.4639 277.334 38.752 277.622 39.0401 278.198C38.752 277.91 38.1758 277.622 37.5996 277.334C37.0234 277.045 36.7353 276.757 36.4472 276.757C36.1591 277.045 36.1591 277.622 35.871 277.91C35.5829 278.486 35.5829 281.367 35.5829 281.655C35.5829 281.079 35.2948 278.198 35.2948 277.91C35.0067 277.334 35.0066 277.045 34.7185 276.469C33.8542 276.757 33.2781 277.045 32.4137 277.622C32.99 277.045 33.5661 276.181 33.5661 275.317Z" fill="#014B6E"/>
<path opacity="0.9" d="M115.954 223.458C116.818 222.882 117.682 222.594 118.547 222.594C117.682 222.306 116.818 222.306 116.242 221.73C116.242 221.442 116.53 220.865 116.818 220.289C117.106 219.713 117.394 219.425 117.683 218.849C117.106 219.137 116.818 219.425 116.242 219.713C115.666 220.001 115.378 220.289 114.801 220.289C114.513 220.001 114.513 219.425 114.225 218.849C113.937 218.273 113.937 214.815 113.937 214.527C113.937 215.103 113.649 218.561 113.649 218.849C113.361 219.425 113.361 220.001 113.073 220.289C112.209 220.001 111.344 219.713 110.768 219.137C111.344 219.713 111.632 220.577 111.92 221.442C111.056 222.018 110.192 222.306 109.328 222.306C110.192 222.306 111.056 222.594 111.632 223.17C111.632 223.458 111.344 224.035 111.056 224.611C110.768 225.187 110.48 225.475 110.192 226.051C110.768 225.763 111.056 225.475 111.632 225.187C112.209 224.899 112.497 224.611 113.073 224.611C113.361 224.899 113.361 225.475 113.649 226.051C113.937 226.628 113.937 229.509 113.937 230.085C113.937 229.509 114.225 226.628 114.225 226.051C114.513 225.475 114.513 224.899 114.801 224.611C115.666 224.899 116.53 225.187 117.106 225.763C116.53 225.187 116.242 224.323 115.954 223.458Z" fill="#014B6E"/>
<path opacity="0.9" d="M62.9501 242.185C63.2382 241.897 63.8144 241.609 64.3906 241.609C63.8144 241.609 63.5263 241.321 62.9501 241.033C62.9501 240.745 63.2382 240.457 63.2382 240.168C63.2382 239.88 63.5262 239.592 63.8144 239.304C63.5262 239.592 63.2382 239.592 62.9501 239.88C62.662 240.168 62.3738 240.168 62.0857 240.168C62.0857 239.88 61.7977 239.592 61.7977 239.304C61.7977 239.016 61.5096 236.999 61.5096 236.711C61.5096 236.999 61.5095 239.016 61.2214 239.304C61.2214 239.592 60.9333 239.88 60.9333 240.168C60.3571 240.168 60.069 239.88 59.4928 239.592C59.7809 239.88 60.0691 240.457 60.0691 241.033C59.781 241.321 59.2047 241.609 58.6285 241.609C59.2047 241.609 59.4928 241.897 60.0691 242.185C60.0691 242.473 59.7809 242.761 59.7809 243.049C59.7809 243.338 59.4928 243.626 59.2047 243.914C59.4928 243.626 59.781 243.626 60.0691 243.338C60.3572 243.049 60.6452 243.049 60.9333 243.049C60.9333 243.338 61.2214 243.626 61.2214 243.914C61.2214 244.202 61.5096 245.93 61.5096 246.219C61.5096 245.93 61.5096 244.202 61.7977 243.914C61.7977 243.626 62.0857 243.338 62.0857 243.049C62.6619 243.049 62.95 243.338 63.5262 243.626C63.5262 243.049 63.2382 242.473 62.9501 242.185Z" fill="#014B6E"/>
<path opacity="0.9" d="M118.258 184.276C118.546 183.988 119.122 183.7 119.698 183.7C119.122 183.7 118.834 183.412 118.258 183.124C118.258 182.836 118.546 182.548 118.546 182.26C118.546 181.972 118.834 181.684 119.122 181.395C118.834 181.684 118.546 181.684 118.258 181.972C117.97 181.972 117.682 182.26 117.393 182.26C117.393 181.972 117.105 181.684 117.105 181.395C117.105 181.107 116.817 179.091 116.817 178.802C116.817 179.091 116.817 181.107 116.529 181.395C116.529 181.684 116.241 181.972 116.241 182.26C115.665 182.26 115.377 181.972 114.801 181.684C115.089 181.972 115.377 182.548 115.377 183.124C115.089 183.412 114.512 183.412 113.936 183.7C114.512 183.7 114.8 183.988 115.377 184.276C115.377 184.565 115.089 184.853 115.089 185.141C114.801 185.429 114.801 185.717 114.512 186.005C114.801 185.717 115.089 185.717 115.377 185.429C115.665 185.429 115.953 185.141 116.241 185.141C116.241 185.429 116.529 185.717 116.529 186.005C116.529 186.293 116.817 188.022 116.817 188.31C116.817 188.022 117.105 186.293 117.105 186.005C117.105 185.717 117.393 185.429 117.393 185.141C117.97 185.141 118.258 185.429 118.834 185.717C118.546 185.429 118.258 184.853 118.258 184.276Z" fill="#014B6E"/>
<path opacity="0.9" d="M89.7401 389.693C90.0282 389.405 90.6044 389.117 91.1806 389.117C90.6044 389.117 90.3163 388.829 89.7401 388.541C89.7401 388.253 90.0282 387.965 90.0282 387.677C90.3163 387.389 90.3164 387.1 90.6045 386.812C90.3164 387.1 90.0282 387.101 89.7401 387.389C89.452 387.389 89.1639 387.677 88.8758 387.677C88.8758 387.389 88.5877 387.1 88.5877 386.812C88.5877 386.524 88.2996 384.508 88.2996 384.219C88.2996 384.508 88.0115 386.524 88.0115 386.812C88.0115 387.1 87.7235 387.389 87.7235 387.677C87.1472 387.677 86.8591 387.389 86.2829 387.101C86.571 387.389 86.8591 387.965 86.8591 388.541C86.2829 388.829 85.9948 388.829 85.4186 389.117C85.9948 389.117 86.2829 389.405 86.8591 389.693C86.8591 389.982 86.571 390.27 86.571 390.558C86.2829 390.846 86.2829 391.134 85.9948 391.422C86.2829 391.134 86.571 391.134 86.8591 390.846C87.1472 390.558 87.4353 390.558 87.7235 390.558C87.7235 390.846 88.0115 391.134 88.0115 391.422C88.0115 391.71 88.2996 393.439 88.2996 393.727C88.2996 393.439 88.2996 391.71 88.5877 391.422C88.5877 391.134 88.8758 390.846 88.8758 390.558C89.4521 390.558 89.7402 390.846 90.3164 391.134C90.3164 390.558 90.0282 390.27 89.7401 389.693Z" fill="#014B6E"/>
<path opacity="0.9" d="M165.79 432.333C166.078 432.045 166.654 431.757 167.23 431.757C166.654 431.757 166.366 431.469 165.79 431.18C165.79 430.892 166.078 430.604 166.078 430.316C166.078 430.028 166.366 429.74 166.654 429.452C166.366 429.74 166.078 429.74 165.79 430.028C165.502 430.028 165.214 430.316 164.926 430.316C164.926 430.028 164.638 429.74 164.638 429.452C164.638 429.164 164.349 427.147 164.349 426.859C164.349 427.147 164.061 429.164 164.061 429.452C164.061 429.74 163.773 430.028 163.773 430.316C163.197 430.316 162.909 430.028 162.333 429.74C162.621 430.028 162.909 430.604 162.909 431.18C162.621 431.469 162.045 431.469 161.468 431.757C162.045 431.757 162.333 432.045 162.909 432.333C162.909 432.621 162.621 432.909 162.621 433.197C162.621 433.485 162.333 433.773 162.045 434.061C162.333 433.773 162.621 433.773 162.909 433.485C163.197 433.197 163.485 433.197 163.773 433.197C163.773 433.485 164.061 433.773 164.061 434.061C164.061 434.35 164.349 436.078 164.349 436.366C164.349 436.078 164.349 434.35 164.638 434.061C164.638 433.773 164.926 433.485 164.926 433.197C165.502 433.197 165.79 433.485 166.366 433.773C166.078 433.197 165.79 432.621 165.79 432.333Z" fill="#014B6E"/>
<path opacity="0.9" d="M56.3239 343.597C56.9001 343.309 57.1882 343.021 57.7644 343.021C57.1882 343.021 56.9001 342.733 56.3239 342.445C56.3239 342.156 56.612 341.868 56.612 341.58C56.9001 341.292 56.9001 341.004 57.1882 340.716C56.9001 341.004 56.612 341.004 56.3239 341.292C56.0358 341.292 55.7477 341.58 55.4596 341.58C55.4596 341.292 55.1715 341.004 55.1715 340.716C55.1715 340.428 54.8834 338.411 54.8834 338.123C54.8834 338.411 54.8834 340.428 54.5953 340.716C54.5953 341.004 54.3072 341.292 54.3072 341.58C53.731 341.58 53.4429 341.292 52.8667 341.004C53.1548 341.292 53.4428 341.868 53.4428 342.445C53.1547 342.733 52.5785 343.021 52.0023 343.021C52.5785 343.021 52.8666 343.309 53.4428 343.597C53.4428 343.885 53.1548 344.173 53.1548 344.461C53.1548 344.749 52.8667 345.038 52.5786 345.326C52.8667 345.038 53.1547 345.038 53.4428 344.749C53.7309 344.461 54.0191 344.461 54.3072 344.461C54.3072 344.749 54.5953 345.038 54.5953 345.326C54.5953 345.614 54.8834 347.342 54.8834 347.63C54.8834 347.342 54.8834 345.614 55.1715 345.326C55.1715 345.038 55.4596 344.749 55.4596 344.461C56.0358 344.461 56.3239 344.749 56.9001 345.037C56.9001 344.461 56.612 344.173 56.3239 343.597Z" fill="#014B6E"/>
<path opacity="0.9" d="M91.4686 447.602C91.7567 447.314 92.3329 447.026 92.9091 447.026C92.3329 447.026 92.0448 446.738 91.4686 446.45C91.4686 446.162 91.7568 445.874 91.7568 445.586C91.7568 445.298 92.0448 445.009 92.3329 444.721C92.0448 445.009 91.7567 445.009 91.4686 445.298C91.1805 445.586 90.8925 445.586 90.6044 445.586C90.6044 445.298 90.3162 445.009 90.3162 444.721C90.3162 444.433 90.0281 442.417 90.0281 442.128C90.0281 442.417 90.0281 444.433 89.74 444.721C89.74 445.009 89.4519 445.298 89.4519 445.586C88.8757 445.586 88.5876 445.298 88.0114 445.009C88.2995 445.298 88.5876 445.874 88.5876 446.45C88.2995 446.738 87.7233 447.026 87.1471 447.026C87.7233 447.026 88.0114 447.314 88.5876 447.602C88.5876 447.89 88.2995 448.179 88.2995 448.467C88.0114 448.755 88.0114 449.043 87.7233 449.331C88.0114 449.043 88.2995 449.043 88.5876 448.755C88.8757 448.755 89.1638 448.467 89.4519 448.467C89.4519 448.755 89.74 449.043 89.74 449.331C89.74 449.619 90.0281 451.348 90.0281 451.636C90.0281 451.348 90.0281 449.619 90.3162 449.331C90.3162 449.043 90.6044 448.755 90.6044 448.467C91.1806 448.467 91.4687 448.755 92.0449 449.043C91.7568 448.467 91.4686 448.179 91.4686 447.602Z" fill="#014B6E"/>
<path opacity="0.9" d="M161.18 286.553C161.757 286.265 162.621 285.977 163.197 285.688C162.621 285.688 161.757 285.4 161.18 285.112C161.18 284.824 161.468 284.536 161.757 283.96C162.045 283.672 162.333 283.096 162.333 282.807C162.045 283.096 161.469 283.384 161.18 283.384C160.892 283.672 160.316 283.672 160.028 283.96C159.74 283.672 159.74 283.384 159.74 282.807C159.74 282.519 159.452 279.638 159.452 279.35C159.452 279.638 159.164 282.519 159.164 282.807C159.164 283.096 158.876 283.672 158.587 283.96C158.011 283.672 157.147 283.384 156.571 283.096C156.859 283.672 157.435 284.248 157.435 285.112C156.859 285.4 155.995 285.688 155.418 285.688C155.995 285.688 156.859 285.977 157.435 286.265C157.435 286.553 157.147 287.129 156.859 287.417C156.571 287.705 156.283 288.281 156.283 288.57C156.571 288.281 157.147 287.993 157.435 287.993C157.723 287.705 158.299 287.705 158.587 287.417C158.876 287.705 158.876 287.993 158.876 288.57C158.876 288.858 159.164 291.451 159.164 292.027C159.164 291.739 159.452 289.146 159.452 288.57C159.452 287.993 159.74 287.705 160.028 287.417C160.604 287.705 161.468 287.993 162.045 288.281C161.757 287.993 161.18 287.417 161.18 286.553Z" fill="#014B6E"/>
<path opacity="0.9" d="M135.543 388.829C136.119 388.541 136.983 388.253 137.56 387.965C136.983 387.965 136.119 387.677 135.543 387.389C135.543 387.101 135.831 386.812 136.119 386.236C136.407 385.948 136.407 385.372 136.695 385.084C136.407 385.372 135.831 385.66 135.543 385.66C135.255 385.948 134.679 385.948 134.39 386.236C134.102 385.948 134.102 385.66 134.102 385.084C134.102 384.796 133.814 381.915 133.814 381.627C133.814 381.915 133.526 384.796 133.526 385.084C133.526 385.66 133.238 385.948 132.95 386.236C132.374 385.948 131.509 385.66 130.933 385.372C131.221 385.948 131.798 386.524 131.798 387.389C131.221 387.677 130.357 387.965 129.781 387.965C130.357 387.965 131.221 388.253 131.798 388.829C131.798 389.117 131.509 389.405 131.221 389.982C130.933 390.27 130.933 390.846 130.645 391.134C130.933 390.846 131.509 390.558 131.798 390.558C132.086 390.27 132.662 390.27 132.95 389.982C133.238 390.27 133.238 390.558 133.238 391.134C133.238 391.422 133.526 394.015 133.526 394.591C133.526 394.303 133.814 391.71 133.814 391.134C133.814 390.846 134.102 390.27 134.39 389.982C134.967 390.27 135.831 390.558 136.407 390.846C136.119 389.982 135.831 389.405 135.543 388.829Z" fill="#014B6E"/>
<path opacity="0.9" d="M32.703 310.177C33.2792 309.601 34.1435 309.313 35.0078 309.313C34.1435 309.313 33.2792 309.025 32.703 308.449C32.703 308.161 32.9911 307.584 33.2792 307.008C33.5673 306.432 33.8554 306.144 34.1435 305.568C33.8554 305.856 33.2792 306.144 32.703 306.432C32.1268 306.72 31.8387 306.72 31.5506 307.008C31.2625 306.72 31.2625 306.144 30.9744 305.856C30.6863 305.28 30.6863 302.11 30.6863 301.534C30.6863 302.11 30.3981 305.28 30.3981 305.856C30.11 306.432 30.1101 306.72 29.822 307.296C28.9577 307.008 28.3815 306.72 27.5172 306.144C28.0934 306.72 28.3814 307.584 28.6695 308.449C28.0933 309.025 27.229 309.025 26.3647 309.313C27.229 309.601 28.0933 309.601 28.6695 310.177C28.6695 310.465 28.3815 311.042 28.0934 311.618C27.8052 312.194 27.5171 312.482 27.229 313.058C27.5171 312.77 28.0933 312.482 28.6695 312.194C29.2458 311.906 29.5339 311.618 29.822 311.618C30.1101 311.906 30.11 312.482 30.3981 312.77C30.3981 313.346 30.6863 316.227 30.6863 316.516C30.6863 315.939 30.9744 313.058 30.9744 312.77C31.2625 312.194 31.2625 311.906 31.5506 311.33C32.4149 311.618 32.9911 311.906 33.8554 312.482C33.2792 311.906 32.9911 311.042 32.703 310.177Z" fill="#014B6E"/>
<path opacity="0.9" d="M189.989 340.14C190.565 339.563 191.429 339.563 192.293 339.275C191.429 339.275 190.565 338.987 189.989 338.411C189.989 338.123 190.277 337.547 190.565 336.971C190.853 336.394 191.141 336.106 191.429 335.53C191.141 335.818 190.565 336.106 189.989 336.394C189.412 336.682 189.124 336.971 188.836 336.971C188.548 336.682 188.548 336.106 188.26 335.818C187.972 335.242 187.972 332.073 187.972 331.497C187.972 332.073 187.684 335.242 187.684 335.818C187.396 336.394 187.396 336.682 187.108 337.259C186.243 336.971 185.667 336.682 184.803 336.106C185.379 336.682 185.667 337.547 185.955 338.411C185.379 338.987 184.515 338.987 183.65 339.275C184.515 339.275 185.091 339.563 185.955 340.14C185.955 340.428 185.667 341.004 185.379 341.58C185.091 342.156 184.803 342.444 184.515 343.021C184.803 342.733 185.379 342.444 185.955 342.156C186.531 341.868 186.819 341.58 187.108 341.58C187.396 341.868 187.396 342.445 187.684 342.733C187.684 343.309 187.972 346.19 187.972 346.478C187.972 345.902 188.26 343.021 188.26 342.733C188.548 342.156 188.548 341.868 188.836 341.292C189.7 341.58 190.277 341.868 191.141 342.444C190.565 341.868 190.277 341.004 189.989 340.14Z" fill="#014B6E"/>
<path opacity="0.9" d="M151.674 366.357C151.674 366.069 151.962 365.493 152.25 365.205C152.538 364.917 152.826 364.341 152.826 364.052C152.538 364.341 151.962 364.629 151.674 364.629C151.097 364.917 150.809 365.205 150.521 365.205C149.369 365.493 148.216 364.917 147.064 364.341C147.64 365.205 148.216 366.357 147.928 367.798C147.928 368.086 147.64 368.662 147.352 368.95C147.064 369.238 146.776 369.815 146.776 370.103C147.064 369.815 147.64 369.526 147.928 369.526C148.505 369.238 148.793 369.238 149.081 368.95C150.233 368.662 151.386 369.238 152.538 369.815C151.962 368.662 151.386 367.51 151.674 366.357Z" fill="#014B6E"/>
<path opacity="0.9" d="M92.909 198.97C92.909 198.681 93.1971 198.393 93.1971 198.105C93.1971 197.817 93.4852 197.529 93.4852 197.241C93.1971 197.529 92.909 197.529 92.909 197.817C92.6209 197.817 92.3328 198.105 92.0447 198.105C91.1804 198.393 90.6042 197.817 90.028 197.529C90.3161 198.105 90.8923 198.97 90.6042 199.546C90.6042 199.834 90.3161 200.122 90.3161 200.41C90.3161 200.698 90.028 200.986 90.028 200.986C90.3161 200.698 90.6042 200.698 90.6042 200.698C90.8923 200.41 91.1804 200.41 91.4685 200.41C92.3328 200.122 92.909 200.698 93.4852 200.986C92.909 200.41 92.6209 199.834 92.909 198.97Z" fill="#014B6E"/>
<path opacity="0.9" d="M101.263 160.076C101.263 159.788 101.551 159.212 101.839 158.923C102.127 158.635 102.127 158.059 102.415 157.771C102.127 158.059 101.551 158.347 101.263 158.347C100.975 158.635 100.398 158.635 100.11 158.923C98.9578 159.212 97.8054 158.635 96.9411 158.059C97.5173 158.923 98.0935 160.076 97.8054 161.228C97.8054 161.516 97.5173 162.093 97.2292 162.381C96.9411 162.669 96.9411 163.245 96.653 163.533C96.9411 163.245 97.2292 162.957 97.8054 162.957C98.3816 162.669 98.6697 162.669 98.9578 162.381C100.11 162.093 101.263 162.669 102.127 163.245C101.551 162.381 100.975 161.228 101.263 160.076Z" fill="#014B6E"/>
<path opacity="0.9" d="M133.238 267.826C133.238 267.538 133.526 266.962 133.814 266.674C134.103 266.386 134.391 265.809 134.391 265.521C134.103 265.809 133.526 266.097 133.238 266.097C132.662 266.386 132.374 266.674 132.086 266.674C130.933 266.962 129.781 266.386 128.629 265.809C129.205 266.674 129.781 267.826 129.493 269.267C129.493 269.555 129.205 270.131 128.917 270.419C128.629 270.707 128.34 271.283 128.34 271.571C128.629 271.283 129.205 270.995 129.493 270.995C130.069 270.707 130.357 270.419 130.645 270.419C131.798 270.131 132.95 270.707 134.103 271.283C133.526 270.419 132.95 268.978 133.238 267.826Z" fill="#014B6E"/>
<path opacity="0.9" d="M60.9325 199.546C61.5088 199.258 62.3731 198.97 62.9493 198.682C62.3731 198.682 61.5088 198.393 60.9325 198.105C60.9325 197.817 61.2207 197.529 61.5088 196.953C61.7969 196.665 62.0849 196.089 62.0849 195.8C61.7968 196.089 61.2207 196.377 60.9325 196.377C60.6444 196.665 60.0683 196.665 59.7802 196.953C59.4921 196.665 59.492 196.377 59.492 195.8C59.492 195.512 59.2039 192.631 59.2039 192.343C59.2039 192.631 58.9159 195.512 58.9159 195.8C58.9159 196.377 58.6277 196.665 58.3396 196.953C57.7634 196.665 56.8991 196.377 56.611 196.089C56.8991 196.665 57.4754 197.241 57.4754 198.105C56.8992 198.393 56.0348 198.682 55.4586 198.682C56.0348 198.682 56.8992 198.97 57.4754 199.258C57.4754 199.546 57.1872 200.122 56.8991 200.41C56.611 200.698 56.3229 201.274 56.3229 201.563C56.611 201.274 57.1873 200.986 57.4754 200.986C57.7635 200.698 58.3397 200.698 58.6278 200.41C58.9159 200.698 58.9159 200.986 58.9159 201.563C58.9159 201.851 59.2039 204.444 59.2039 204.732C59.2039 204.444 59.492 201.851 59.492 201.563C59.492 200.986 59.7802 200.698 60.0683 200.41C60.6445 200.698 61.5088 200.986 61.7969 201.274C61.5088 200.698 61.2207 200.122 60.9325 199.546Z" fill="#014B6E"/>
<path opacity="0.9" d="M208.137 362.612C208.137 362.324 208.425 361.747 208.713 361.459C209.001 361.171 209.001 360.595 209.289 360.307C209.001 360.595 208.425 360.883 208.137 360.883C207.849 361.171 207.272 361.171 206.984 361.459C205.832 361.747 204.679 361.171 203.815 360.595C204.391 361.459 204.967 362.612 204.679 363.764C204.679 364.052 204.391 364.628 204.103 364.917C203.815 365.205 203.815 365.781 203.527 366.069C203.815 365.781 204.391 365.493 204.679 365.493C204.967 365.205 205.544 365.205 205.832 364.917C206.984 364.628 208.137 365.205 209.001 365.781C208.425 364.917 207.849 363.764 208.137 362.612Z" fill="#014B6E"/>
<path opacity="0.9" d="M81.3856 306.72C81.6737 306.432 82.2499 306.432 82.538 306.432C82.2499 306.432 81.6737 306.144 81.3856 306.144C81.3856 305.856 81.6737 305.856 81.6737 305.568C81.6737 305.28 81.9618 304.992 81.9618 304.992C81.6737 304.992 81.6737 305.28 81.3856 305.28C81.0975 305.28 81.0975 305.568 80.8094 305.568C80.8094 305.28 80.5213 305.28 80.5213 304.992C80.5213 304.703 80.5213 303.263 80.2332 302.975C80.2332 303.263 80.2332 304.703 79.9451 304.992C79.9451 305.28 79.657 305.568 79.657 305.568C79.3689 305.568 78.7927 305.28 78.5046 304.992C78.7927 305.28 78.7927 305.568 79.0808 306.144C78.7927 306.432 78.2164 306.432 77.9283 306.432C78.2164 306.432 78.7927 306.72 79.0808 306.72C79.0808 307.008 78.7927 307.008 78.7927 307.296C78.7927 307.584 78.5046 307.873 78.5046 307.873C78.7927 307.873 78.7927 307.584 79.0808 307.584C79.3689 307.584 79.3689 307.296 79.657 307.296C79.657 307.584 79.9451 307.584 79.9451 307.873C79.9451 308.161 79.9451 309.601 80.2332 309.601C80.2332 309.313 80.2332 307.873 80.5213 307.873C80.5213 307.584 80.8094 307.296 80.8094 307.296C81.0975 307.296 81.6737 307.584 81.9618 307.873C81.6737 307.584 81.3856 307.296 81.3856 306.72Z" fill="#014B6E"/>
<path opacity="0.9" d="M105.297 272.148C105.297 271.86 105.585 271.86 105.585 271.572C105.585 271.283 105.873 271.283 105.873 270.995C105.585 270.995 105.585 271.283 105.297 271.283C105.009 271.283 104.72 271.572 104.72 271.572C104.144 271.86 103.568 271.572 102.992 270.995C103.28 271.572 103.568 272.148 103.568 272.724C103.568 273.012 103.28 273.012 103.28 273.3C103.28 273.588 102.992 273.588 102.992 273.876C103.28 273.876 103.28 273.588 103.568 273.588C103.856 273.588 104.144 273.3 104.144 273.3C104.72 273.012 105.297 273.3 105.873 273.588C105.585 273.3 105.297 272.724 105.297 272.148Z" fill="#014B6E"/>
<path opacity="0.9" d="M137.848 327.463C137.848 327.175 138.136 326.887 138.136 326.599C138.424 326.311 138.424 326.023 138.712 325.735C138.424 326.023 138.136 326.023 137.848 326.311C137.559 326.599 137.271 326.599 136.983 326.599C136.119 326.887 134.966 326.311 134.39 325.735C134.966 326.599 135.255 327.463 134.967 328.328C134.967 328.616 134.678 328.904 134.678 329.192C134.39 329.48 134.39 329.768 134.102 330.056C134.39 329.768 134.678 329.768 134.967 329.48C135.255 329.192 135.543 329.192 135.831 329.192C136.695 328.904 137.848 329.48 138.424 330.056C138.136 329.48 137.559 328.616 137.848 327.463Z" fill="#014B6E"/>
</svg>
