<svg width="98" height="142" viewBox="0 0 98 142" fill="none" xmlns="http://www.w3.org/2000/svg">
<path opacity="0.4" d="M50.6265 141.417C74.3747 141.417 93.6265 137.836 93.6265 133.417C93.6265 128.999 74.3747 125.417 50.6265 125.417C26.8782 125.417 7.62646 128.999 7.62646 133.417C7.62646 137.836 26.8782 141.417 50.6265 141.417Z" fill="#4C7271"/>
<path opacity="0.4" d="M50.1265 137.417C65.8666 137.417 78.6265 134.731 78.6265 131.417C78.6265 128.104 65.8666 125.417 50.1265 125.417C34.3864 125.417 21.6265 128.104 21.6265 131.417C21.6265 134.731 34.3864 137.417 50.1265 137.417Z" fill="#4C7271"/>
<path d="M57.1415 26.3322L58.6265 22.7009L48.5001 0.41748L38.6265 22.9409L40.1431 26.5241V31.6591L48.6423 39.2895V39.4175L48.7054 39.3535L48.7844 39.4175V39.2895L57.2047 31.4511L57.1415 26.3322Z" fill="#71AEAF"/>
<path opacity="0.3" d="M40.6265 23.4175H46.774L48.6265 2.41748L40.6265 23.4175Z" fill="white"/>
<path d="M38.6265 22.6685L58.6265 22.4175L57.1415 26.2167L40.1431 26.4175L38.6265 22.6685Z" fill="#4C7271"/>
<path opacity="0.3" d="M49.6265 5.41748L53.2378 23.4175L56.6265 23.2886L49.6265 5.41748Z" fill="#4C7271"/>
<path opacity="0.3" d="M55.6265 26.4175H47.6265V29.4175H55.6265V26.4175Z" fill="#4C7271"/>
<path d="M63.6764 88.0037C57.5978 82.2079 60.6371 39.3452 61.0251 38.2797C61.3969 37.2142 64.6303 36.8751 64.4363 34.0176C64.1938 30.4175 61.2029 30.4175 61.2029 30.4175H54.1704H44.1148H37.0823C37.0823 30.4175 34.0914 30.4175 33.8489 34.0176C33.6549 36.8913 36.8883 37.2142 37.2601 38.2797C37.6319 39.3452 40.6713 82.2079 34.6088 88.0037C30.9389 91.4908 0.626465 95.091 0.626465 107.813C0.626465 123.327 31.7634 131.867 35.9344 132.239C38.4726 132.465 44.6644 132.416 49.1264 132.352C53.5884 132.432 59.7803 132.481 62.3184 132.239C66.4894 131.867 97.6264 123.327 97.6264 107.813C97.6749 95.091 67.3463 91.507 63.6764 88.0037Z" fill="#71AEAF"/>
<path d="M62.4727 89.1117C57.5743 83.6964 59.3747 43.8328 59.91 38.4175H39.716C40.2513 43.849 42.6194 83.6964 37.721 89.1117C34.5743 92.5873 3.62646 96.2245 3.62646 106.376C3.62646 121.814 34.9149 130.867 38.4995 131.238C40.673 131.465 45.9932 131.416 49.8211 131.352C53.649 131.432 58.9692 131.481 61.1427 131.238C64.7273 130.867 95.6265 123.334 95.6265 107.896C95.6102 95.2384 65.6194 92.5873 62.4727 89.1117Z" fill="#BACAD3"/>
<path d="M94.6265 108.097C94.6265 106.35 94.045 104.796 93.0436 103.417C87.3259 104.235 81.9636 106.511 76.0843 106.703C65.8765 107.04 55.9755 103.69 45.6869 104.059C39.6461 104.283 33.7669 106.078 27.7908 106.927C23.4137 107.552 18.8912 107.296 14.5626 106.447C11.7522 105.902 9.10329 105.437 6.21214 105.565C5.09767 105.613 3.72478 105.757 2.67492 105.998C2.65877 106.158 2.62646 106.671 2.62646 106.831C2.62646 122.137 34.1384 130.871 37.7079 131.24C39.8723 131.464 45.17 131.416 48.9818 131.352C52.7936 131.432 58.0914 131.48 60.2557 131.24C63.8575 130.855 94.6265 123.387 94.6265 108.097Z" fill="#88BF32"/>
<path opacity="0.3" d="M60.4586 131.26C64.0104 130.891 94.6265 123.417 94.6265 108.101C94.6265 106.352 94.0479 104.797 93.0515 103.417C87.3622 104.235 82.0265 106.513 76.1765 106.705C74.055 106.769 71.9497 106.689 69.8443 106.497C69.4747 108.919 68.9925 111.1 68.0122 113.393C66.1158 117.756 62.8372 122.022 59.3336 125.213C56.9229 127.411 54.705 129.528 51.7318 130.811C51.1532 131.067 50.3818 131.196 49.6265 131.356C53.3872 131.436 58.3693 131.468 60.4586 131.26Z" fill="#46893F"/>
<path opacity="0.3" d="M29.2489 95.8001C25.8527 96.4063 22.3103 97.9539 19.1904 99.5653C18.7354 99.8047 17.2892 100.698 15.908 101.719C12.2193 103.634 9.4894 106.186 11.0981 110.223C12.6256 114.052 18.3617 116.318 21.1079 112.297C22.0178 110.973 22.0178 109.17 22.4403 107.702C23.0091 105.772 24.0328 104.447 25.5765 103.107C27.2827 101.608 29.1839 100.618 31.2151 99.6611C32.3363 99.1346 34.27 98.6719 35.0663 97.6667C37.6174 94.4599 30.7114 95.5448 29.2489 95.8001Z" fill="white"/>
<path opacity="0.3" d="M44.6521 79.5083C43.7245 79.2605 43.1899 79.5414 42.8912 80.0866C41.9163 81.1273 42.0264 83.8862 41.7591 84.9931C40.9572 88.2971 44.0075 88.0493 44.9509 85.307C45.4068 84.0184 46.3502 79.9544 44.6521 79.5083Z" fill="white"/>
<path opacity="0.3" d="M50.2121 31.7855C47.135 31.3556 43.7406 31.4445 40.6476 31.4445C39.3628 31.4445 37.3008 31.2222 36.3332 32.0523C36.1112 32.245 35.9684 32.408 35.8732 32.5711C35.4925 32.8824 35.4925 33.3122 36.3015 33.8903C37.6497 34.8538 41.1869 34.2164 42.7572 34.1423C44.8509 34.0386 46.9922 34.2164 49.0859 34.1127C50.9735 34.0237 53.0989 32.1857 50.2121 31.7855Z" fill="white"/>
<path d="M40.6262 38.417L41.7714 45.417H57.5778L58.6262 38.417H40.6262Z" fill="#7FBFBE"/>
<path opacity="0.3" d="M45.7431 53.4382C45.7431 50.3512 45.4103 47.2643 45.7431 44.2413C45.9007 42.7219 46.5137 41.2983 44.7623 40.6266C42.9407 39.9388 41.5921 41.0264 41.6271 42.7379C41.6446 43.4416 42.03 44.0334 42.4678 44.5772C42.713 46.4326 43.3611 48.3999 43.4837 49.1197C44.0442 52.5585 43.2735 55.9973 43.2735 59.4681C43.2735 62.9869 43.4837 66.5056 43.4837 69.9764C43.4837 71.0481 42.9232 73.7831 43.4662 74.6788C44.5871 76.5022 45.638 74.5189 45.9533 73.3513C47.5821 67.2894 45.7431 59.644 45.7431 53.4382Z" fill="white"/>
<path opacity="0.3" d="M49.208 38.4175L48.6265 45.4175H55.2748L56.6265 38.4175H49.208Z" fill="#4C7271"/>
<path d="M87.3479 54.0252C86.3214 48.8842 83.5189 44.7746 79.0055 42.615C74.8669 40.6489 69.2293 41.2613 65.3188 43.308C63.5102 44.2589 61.7342 46.0639 60.5774 47.9495C59.5834 49.5933 59.5509 51.9302 59.6812 53.8963C59.7138 54.3637 59.6975 54.7021 59.8115 54.831H60.0559C62.1415 56.5716 62.891 52.4136 63.722 50.7053C64.8463 48.3685 67.0622 47.0309 69.4574 46.08C72.488 44.8874 76.2519 45.9833 78.9078 47.8044C82.2643 50.1251 83.6003 54.2025 83.2419 58.4088C82.7694 64.13 78.81 67.6433 74.2966 69.9641C71.3638 71.479 67.7955 72.3331 65.1885 74.3799C63.5102 75.7014 62.0112 77.5225 61.2291 79.6659C60.6262 81.3259 60.3492 84.3718 61.2943 85.8706C62.3534 87.5951 64.5041 88.1753 65.1722 86.0479C65.9054 83.695 65.7099 81.342 67.5836 79.537C69.8811 77.3291 73.482 76.2493 76.203 74.7505C87.9182 68.2557 88.1626 58.151 87.3479 54.0252Z" fill="#71AEAF"/>
<path d="M11.8547 52.9146C12.7702 47.5128 15.4022 43.1523 19.7343 40.7931C23.7068 38.6453 29.167 39.1823 32.976 41.2324C34.7416 42.1761 36.4908 44.0309 37.6351 45.9834C38.6323 47.6755 38.6814 50.1161 38.5996 52.1987C38.5833 52.6868 38.5996 53.0447 38.5015 53.1749H38.2727C36.2946 55.0297 35.4936 50.7018 34.6598 48.9446C33.5318 46.5203 31.3576 45.1698 29.0362 44.2261C26.0936 43.0384 22.4644 44.2587 19.9305 46.2274C16.71 48.7331 15.5003 53.0285 15.909 57.4215C16.4648 63.3928 20.3392 66.9886 24.7367 69.3478C27.5976 70.8772 31.0633 71.6908 33.6136 73.7897C35.2647 75.1401 36.736 77.0275 37.537 79.2403C38.1582 80.9649 38.4525 84.1377 37.5861 85.7485C36.5889 87.5708 34.5127 88.2379 33.8424 86.0088C33.0904 83.5682 33.2539 81.0951 31.3903 79.2403C29.1343 76.9787 25.6359 75.9211 22.9875 74.4079C11.5278 67.8184 11.1191 57.2425 11.8547 52.9146Z" fill="#71AEAF"/>
<path opacity="0.3" d="M20.2246 41.4945C19.5537 41.9527 19.0792 42.5091 18.6374 43.0982C16.2319 45.0457 15.0864 47.8113 14.1864 50.9533C14.0064 51.6079 13.3846 53.359 13.7283 53.9808C14.4319 55.2573 15.1192 53.3917 15.2828 52.7535C15.8064 50.6097 16.3301 48.1877 17.7864 46.3712C18.7355 45.1766 20.0119 44.1456 21.3537 43.3928C22.4174 42.8037 24.0701 42.1 24.6265 40.9545C23.8574 39.7435 21.141 40.8726 20.2246 41.4945Z" fill="white"/>
<path opacity="0.3" d="M14.394 59.9789C14.2598 59.2539 14.3045 56.6376 13.2456 56.4327C12.649 56.3223 12.5595 56.8267 12.6639 57.5044C12.5148 58.5289 13.1114 60.2153 13.2605 60.8615C13.3649 61.3028 13.6781 62.7213 14.3791 62.3588C14.8862 62.0751 14.4686 60.3729 14.394 59.9789Z" fill="white"/>
<path opacity="0.3" d="M72.7869 42.4697C71.1097 42.2206 68.9003 42.9183 67.336 43.3834C65.7072 43.8818 64.0622 44.7124 62.8204 46.0081C62.4656 46.3736 61.3851 47.5032 61.6754 48.1511C61.7883 48.4003 62.0141 48.4335 62.2721 48.3504C62.3044 48.3671 62.3205 48.3671 62.3528 48.3837C62.9978 48.583 63.3849 47.8521 63.7719 47.47C64.546 46.656 65.2234 46.2573 66.2232 45.7423C68.0617 44.7954 69.6905 44.3968 71.7548 44.3968C72.416 44.3968 73.8997 44.5629 74.3835 44.0313C75.2705 43.0678 73.4965 42.5694 72.7869 42.4697Z" fill="white"/>
<path opacity="0.3" d="M62.4015 80.6405C62.7263 78.4467 64.3341 76.963 66.2992 75.9056C67.4197 75.3058 68.4753 74.9586 69.6933 74.5482C71.1874 74.0431 72.9739 72.5911 74.4192 72.4175C75.7509 74.7218 70.278 75.29 69.0113 75.7951C66.8513 76.6474 64.123 78.6203 63.6358 80.8615C63.5058 81.4612 63.6682 82.8817 63.0024 83.2763C62.0767 83.8129 61.687 82.6923 61.6382 82.0452C61.4758 80.1039 63.0187 78.5414 64.6427 77.7048L62.4015 80.6405Z" fill="white"/>
<path opacity="0.3" d="M80.6265 67.4512C79.3152 67.237 78.3041 68.0762 77.3877 69.0225C77.0718 69.3439 76.0923 70.3437 75.7447 71.1829L75.6657 71.2365C75.6815 71.2365 75.7131 71.2186 75.7447 71.2186C75.6341 71.5043 75.5867 71.7721 75.6657 71.9864C76.2186 73.4683 78.699 70.7722 79.4574 69.2903C80.0735 68.7546 80.5317 68.1476 80.6265 67.4512Z" fill="white"/>
<path opacity="0.3" d="M52.6265 128.417C52.6265 128.417 71.4019 123.484 75.4449 120.887C80.0862 117.901 83.6764 114.72 85.1157 110.987C86.6196 107.124 86.1021 102.417 86.1021 102.417C86.1021 102.417 89.385 106.524 88.4632 111.896C87.8325 115.596 84.3556 120.66 79.6496 122.948C70.5934 127.346 52.6265 128.417 52.6265 128.417Z" fill="#4C7271"/>
<path d="M67.1204 56.5886L55.246 49.4175L50.5741 50.6367L45.6265 62.4442L53.3643 88.4175L76.6265 81.1822L67.1204 56.5886ZM55.4731 56.749C54.7107 56.9736 53.8023 56.1875 53.4454 55.0004C53.0885 53.8132 53.413 52.6581 54.1916 52.4335C54.954 52.2089 55.8625 52.995 56.2193 54.1822C56.5762 55.3693 56.2356 56.5244 55.4731 56.749Z" fill="#B58A4D"/>
<path d="M37.1605 43.3666C41.7096 43.382 46.194 43.5207 50.7431 43.2588C54.4828 43.0431 58.951 43.1201 62.3507 41.3946C62.982 41.071 62.4154 40.162 61.784 40.4855C60.3108 41.2251 58.5462 41.4562 56.9111 41.7027C54.7256 42.0262 52.5239 42.1033 50.3222 42.2265C45.9187 42.4884 41.5639 42.319 37.1605 42.319C36.4481 42.3035 36.4481 43.3512 37.1605 43.3666Z" fill="#724A3B"/>
<path d="M35.894 40.4084C39.992 42.5994 44.8 43.221 49.3499 43.9979C51.5925 44.3864 53.8513 44.6816 56.1101 45.0546C57.7558 45.3343 59.6112 45.6606 61.2408 45.1478C61.9184 44.9302 61.628 43.9047 60.9504 44.1222C59.3369 44.635 57.4492 44.2155 55.8358 43.9358C53.7868 43.5784 51.7055 43.3142 49.6564 42.9724C45.2034 42.2265 40.4599 41.6205 36.4587 39.4917C35.8294 39.1498 35.2809 40.0821 35.894 40.4084Z" fill="#724A3B"/>
<path d="M54.1205 54.3333C55.9378 53.2545 55.683 50.3884 55.4962 48.6816C55.2924 46.7173 54.9358 44.2054 53.594 42.6114C53.1185 42.0478 52.3032 42.8368 52.7618 43.4003C53.8318 44.6724 54.0866 46.8944 54.2904 48.4401C54.4602 49.6799 54.8848 52.5782 53.5091 53.3994C52.8977 53.7536 53.4751 54.7036 54.1205 54.3333Z" fill="#724A3B"/>
<path d="M53.1321 50.4175C53.7913 50.4175 53.7913 49.4175 53.1321 49.4175C52.4579 49.432 52.4579 50.4175 53.1321 50.4175Z" fill="#724A3B"/>
<path d="M53.813 49.8551C53.8653 48.9554 54.7191 47.9198 55.1547 47.1559C55.3813 46.7824 56.1654 45.3054 55.0153 45.4243C54.2486 45.5091 54.2486 46.6635 55.0153 46.5956H55.0328C54.8934 46.5447 54.754 46.4768 54.6146 46.4259C54.6146 46.4259 54.632 46.4259 54.632 46.4428C54.5797 46.307 54.51 46.1712 54.4577 46.0354C54.4403 45.8657 54.2835 46.307 54.1964 46.4768C53.9698 46.8842 53.7259 47.2917 53.4994 47.6991C53.1334 48.3612 52.6804 49.1082 52.6281 49.8721C52.5758 50.6021 53.7782 50.6021 53.813 49.8551Z" fill="#724A3B"/>
<path d="M62.3765 64.255C61.2155 65.24 61.0135 66.5318 60.8957 67.8882C60.4078 67.6783 59.7684 67.4199 59.4318 67.5168C59.5664 67.7106 59.701 67.9205 59.7684 68.1304C58.9607 68.631 58.1362 69.5675 58.2539 70.5525C57.9847 70.7301 57.6313 70.8593 57.3453 70.9562C57.5977 71.1661 57.9006 71.3115 58.2035 71.4406C57.177 72.135 56.302 72.9746 55.9655 74.1372C55.4775 75.8489 55.3765 77.9642 56.6217 79.4175C56.302 77.7704 57.8838 76.9146 59.2804 77.4959C58.8429 76.5755 59.4823 74.88 60.7948 75.316C60.2227 73.8789 65.4222 72.6678 65.4053 72.6678C65.4222 72.6678 63.9919 68.0497 65.6072 67.9205C64.6313 66.9678 65.9438 65.6921 66.987 65.6598C65.826 64.7071 65.9438 62.9632 67.6265 62.5272C65.7082 62.0751 63.7731 63.0924 62.3765 64.255Z" fill="#724A3B"/>
<path d="M55.3473 86.4175L47.6265 62.1031L51.8713 51.8402L55.94 50.4175L67.1528 57.0036L75.6265 80.5027L55.3473 86.4175L55.5555 85.3304L75.0979 80.1351L66.3999 57.4352L55.8759 51.0729L52.5761 52.3997L48.1871 62.1031L55.5555 85.3304L55.3473 86.4175Z" fill="#724A3B"/>
</svg>
