<svg width="207" height="306" viewBox="0 0 207 306" fill="none" xmlns="http://www.w3.org/2000/svg">
<path opacity="0.4" d="M103.5 305.999C160.661 305.999 207 297.574 207 287.182C207 276.791 160.661 268.366 103.5 268.366C46.3385 268.366 0 276.791 0 287.182C0 297.574 46.3385 305.999 103.5 305.999Z" fill="#4C7271"/>
<path opacity="0.4" d="M103.5 296.688C141.48 296.688 172.268 290.348 172.268 282.527C172.268 274.706 141.48 268.366 103.5 268.366C65.5211 268.366 34.7329 274.706 34.7329 282.527C34.7329 290.348 65.5211 296.688 103.5 296.688Z" fill="#4C7271"/>
<path d="M133.155 185.925C119.82 173.2 126.487 79.002 127.34 76.6743C128.154 74.3465 135.248 73.6094 134.822 67.2856C134.318 59.3711 127.728 59.3711 127.728 59.3711H112.338H90.2817H74.8924C74.8924 59.3711 68.3412 59.3711 67.7985 67.2856C67.3721 73.6094 74.466 74.3077 75.28 76.6743C76.094 79.002 82.7615 173.2 69.4654 185.925C61.4412 193.606 4.69067 197.913 4.69067 229.454C4.69067 263.556 63.2244 282.295 72.3727 283.109C77.9547 283.614 91.5221 283.497 101.291 283.342C111.059 283.497 124.665 283.614 130.209 283.109C139.357 282.295 197.387 262.082 197.387 227.98C197.426 200.047 141.179 193.606 133.155 185.925Z" fill="#71AEAF"/>
<path d="M128.968 187.942C118.27 176.07 122.185 88.5843 123.348 76.6738H79.2342C80.3971 88.5843 85.5915 176.031 74.8538 187.942C67.9926 195.585 11.0482 203.538 11.0482 225.846C11.0482 259.715 68.6904 279.579 76.5207 280.393C81.2887 280.898 92.8791 280.781 101.252 280.626C109.625 280.781 121.216 280.898 125.984 280.393C133.814 279.579 191.146 263.051 191.146 229.182C191.185 201.365 135.868 195.546 128.968 187.942Z" fill="#BACAD3"/>
<path d="M135.131 271.625C129.704 269.298 123.502 267.979 117.455 267.979C107.376 267.979 97.3752 268.56 87.3353 268.638C83.924 268.677 61.3246 270.811 62.6426 275.893C63.1077 277.678 76.8302 280.82 80.6678 280.975C93.5375 281.596 106.601 280.704 119.277 281.286C124.626 281.518 130.48 280.393 135.093 278.182C140.868 275.505 140.248 273.798 135.131 271.625Z" fill="#C94DDB"/>
<path d="M100.864 0.129681C96.9878 0.595237 97.9569 3.0782 96.2125 5.98792C92.1035 10.9151 92.5687 20.3038 92.6462 26.6276C92.7238 30.9728 95.2434 36.2878 98.6159 39.1588C102.415 42.3789 107.57 46.1421 112.416 42.9996C125.131 34.7748 122.688 -2.46967 100.864 0.129681Z" fill="#4C7271"/>
<path d="M99.1196 0.284604C95.2432 0.905345 91.1342 3.07794 89.4286 5.94887C85.3196 10.876 85.7848 20.2647 85.8623 26.5885C85.9398 30.9337 90.669 39.6241 94.0803 42.495C97.8792 45.7151 100.825 46.0643 105.671 42.9218C118.734 34.503 114.199 -2.08197 99.1196 0.284604Z" fill="#71AEAF"/>
<path d="M122.262 54.7538L125.906 48.8179V42.0674H76.7141V49.2059L80.4742 55.1029V63.5217L101.329 76.0142V76.2081L101.523 76.1306L101.717 76.2081V76.0142L122.378 63.1726L122.262 54.7538Z" fill="#71AEAF"/>
<path d="M76.7142 49.2063L125.906 48.8184L122.262 54.7542L80.4743 55.1034L76.7142 49.2063Z" fill="#4C7271"/>
<path opacity="0.3" d="M120.092 54.9873H99.5856V60.186H120.092V54.9873Z" fill="#4C7271"/>
<path opacity="0.2" d="M85.824 20.3419L109.199 4.97852L111.408 9.36249L85.824 28.6055V20.3419Z" fill="white"/>
<path opacity="0.2" d="M89.3131 34.7741L112.998 15.376V18.0529L91.5227 39.2745L89.3131 34.7741Z" fill="white"/>
<path opacity="0.3" d="M103.307 62.087C96.4454 61.0783 88.8476 61.2723 81.9476 61.2723C79.0791 61.2723 74.4661 60.7292 72.2954 62.7078C71.7914 63.1733 71.4813 63.5613 71.2875 63.9493C70.4347 64.6864 70.4347 65.7339 72.2566 67.0918C75.2414 69.4196 83.1493 67.8677 86.6768 67.7125C91.3673 67.4797 96.1352 67.8677 100.826 67.6349C105.051 67.4022 109.78 63.0182 103.307 62.087Z" fill="white"/>
<path d="M81.5216 76.6729L84.0413 91.9198H118.774L121.061 76.6729H81.5216Z" fill="#7FBFBE"/>
<path opacity="0.3" d="M101.291 76.6738L99.9734 91.9208H114.975L118.037 76.6738H101.291Z" fill="#4C7271"/>
<path d="M154.979 229.997C150.482 224.527 143.582 225.613 137.729 222.664C132.884 220.259 132.031 215.603 128.077 212.5C121.565 207.379 112.61 213.508 108.617 206.06C105.826 200.861 103.152 193.994 95.2437 196.244C93.3055 196.787 91.7162 197.912 90.7471 199.231C80.746 195.507 73.846 208.93 66.5196 211.724C60.8988 213.858 54.1926 212.965 48.9982 216.224C40.3538 221.617 37.3302 233.877 44.5016 241.364C52.0606 249.24 66.9072 244.313 73.5359 253.701C77.451 259.249 79.0016 260.801 87.1808 261.306C94.6235 261.732 100.981 260.607 106.989 256.611C113.502 252.266 119.471 248.309 128.193 249.046C131.953 249.356 135.752 251.18 139.59 250.947C149.785 250.404 162.189 238.765 154.979 229.997Z" fill="#AA4693"/>
<path opacity="0.7" d="M176.842 230.462C170.872 223.207 161.801 224.681 154.049 220.802C147.653 217.621 146.528 211.491 141.334 207.378C132.728 200.589 120.905 208.697 115.633 198.843C111.951 191.976 108.423 182.937 97.9958 185.885C95.4374 186.622 93.3441 188.058 92.0261 189.842C78.8076 184.915 69.698 202.684 60.0458 206.331C52.6419 209.124 43.7649 207.96 36.9036 212.267C25.507 219.405 21.4756 235.583 30.934 245.437C40.9351 255.835 60.5497 249.356 69.2716 261.732C74.4272 269.064 76.4817 271.121 87.2969 271.741C97.1042 272.323 105.516 270.849 113.463 265.573C122.068 259.87 129.937 254.593 141.45 255.563C146.412 255.99 151.413 258.395 156.491 258.085C169.942 257.387 186.378 242.023 176.842 230.462Z" fill="#AA4693"/>
<path opacity="0.5" d="M134.783 226.659C133.155 222.857 129.976 224.409 128.929 227.047C128.425 228.327 128.736 229.608 127.883 230.966C126.371 233.449 122.921 235.117 120.634 236.669C115.982 239.772 112.416 242.954 107.183 244.855C101.833 246.795 96.4451 248.346 90.9018 246.95C85.0097 245.475 78.2647 243.924 72.799 241.596C66.5968 238.958 60.2007 233.332 66.4805 227.047C72.3726 221.15 83.3428 217.154 91.5608 216.65C99.2749 216.184 107.221 216.96 108.811 225.767C110.051 232.517 104.741 237.018 98.422 238.492C93.6928 239.578 87.2968 240.781 85.7074 234.845C84.8159 231.509 85.8625 230.112 88.9636 228.987C90.8243 228.327 94.3131 227.513 95.7861 229.375C97.7631 231.936 95.0496 232.091 92.9563 231.897L94.5844 231.586C91.7159 229.802 87.8395 234.69 93.6153 235.427C99.4687 236.164 105.167 228.677 98.6934 225.34C92.5299 222.198 84.3507 224.331 81.9473 231.082C78.1872 241.673 92.2198 244.428 100.011 243.38C109.819 242.061 118.928 234.069 114.393 223.594C110.129 213.701 98.6159 211.412 89.0411 213.08C80.8232 214.516 43.9198 223.284 60.0844 238.027C65.3563 242.837 72.4889 244.001 78.9237 246.445C82.4513 247.764 85.9013 249.394 89.6226 250.17C96.5226 251.605 104.12 250.829 110.439 247.648C115.672 245.01 121.37 242.76 126.332 239.695C129.55 237.716 136.721 231.16 134.783 226.659Z" fill="#652B87"/>
<path opacity="0.5" d="M140.287 233.216C135.209 234.535 129.898 241.752 125.595 235.156C123.812 232.402 123.929 228.716 122.456 225.767C121.176 223.207 119.548 220.957 117.494 219.017C113.617 215.331 110.439 214.129 104.934 214.4C99.3522 214.672 95.8247 218.823 92.6848 212.46C89.0022 204.934 82.7999 205.826 76.7915 210.676C70.8219 215.486 68.6511 222.78 67.2943 229.919C65.8601 237.445 58.4174 229.802 53.3393 229.996C47.9898 230.19 50.0443 237.639 52.9904 237.484C54.7348 238.648 57.487 238.725 59.4252 238.764C65.0848 238.764 70.0853 236.165 72.7988 230.966C76.4426 224.022 72.1011 212.421 82.7999 210.87C85.3971 210.482 88.4595 210.482 90.3589 212.809C92.491 215.409 91.5606 219.482 95.4758 220.879C101.872 223.168 106.795 214.167 113.656 218.086C121.564 222.625 116.215 233.759 121.099 240.432C124.859 245.592 133.503 246.252 138.31 242.139C141.14 239.734 142.38 236.592 146.567 236.514C148.505 236.475 150.249 236.514 149.784 238.997C154.707 233.139 143.427 232.402 140.287 233.216Z" fill="#652B87"/>
<path opacity="0.5" d="M95.5148 121.095C96.2126 116.206 97.5693 110.852 96.7553 105.848C96.0963 101.735 93.3053 100.494 90.9794 101.076C88.2659 100.339 86.8317 105.266 87.1806 107.438C88.0334 113.141 88.7311 118.146 88.7311 124.082C88.7311 136.342 88.3822 149.028 87.103 161.171C86.8317 163.809 84.6609 168.038 85.1648 170.521C85.9013 174.052 88.9637 172.383 90.4367 169.939C95.4373 161.637 92.2199 148.873 93.2665 139.678C93.9643 133.471 94.6233 127.224 95.5148 121.095Z" fill="white"/>
<path opacity="0.1" d="M70.7442 275.389C77.6592 275.389 83.265 269.778 83.265 262.857C83.265 255.937 77.6592 250.326 70.7442 250.326C63.8291 250.326 58.2234 255.937 58.2234 262.857C58.2234 269.778 63.8291 275.389 70.7442 275.389Z" fill="white"/>
<path opacity="0.2" d="M71.7911 271.625C76.8864 271.625 81.017 267.491 81.017 262.392C81.017 257.292 76.8864 253.158 71.7911 253.158C66.6959 253.158 62.5653 257.292 62.5653 262.392C62.5653 267.491 66.6959 271.625 71.7911 271.625Z" fill="white"/>
<path opacity="0.7" d="M71.7908 256.029C71.4032 258.822 71.7908 262.353 66.7903 262.78C68.2633 263.478 69.9302 264.06 70.9768 265.457C71.9071 266.698 72.6437 268.793 72.7987 270.306C73.0701 268.677 72.7212 267.164 73.729 265.495C74.4656 264.254 75.7448 263.362 77.179 263.206C75.5897 262.314 74.1942 262.469 73.2251 260.529C72.8375 259.792 72.5274 259.016 72.2948 258.279C72.0622 257.503 72.1397 256.262 71.6358 255.719L71.7908 256.029Z" fill="white"/>
<path opacity="0.1" d="M179.982 225.845C179.982 232.75 174.399 238.376 167.461 238.376C160.561 238.376 154.94 232.789 154.94 225.845C154.94 218.939 160.522 213.313 167.461 213.313C174.361 213.313 179.982 218.9 179.982 225.845Z" fill="white"/>
<path opacity="0.2" d="M177.612 226.834C178.434 221.801 175.024 217.054 169.996 216.231C164.967 215.408 160.224 218.821 159.402 223.853C158.579 228.886 161.989 233.633 167.018 234.456C172.046 235.279 176.789 231.867 177.612 226.834Z" fill="white"/>
<path opacity="0.7" d="M168.507 219.016C168.119 221.81 168.507 225.34 163.506 225.767C164.979 226.465 166.646 227.047 167.693 228.444C168.623 229.685 169.359 231.78 169.515 233.293C169.786 231.664 169.437 230.151 170.445 228.483C171.181 227.241 172.461 226.349 173.895 226.194C172.306 225.301 170.91 225.457 169.941 223.517C169.553 222.78 169.243 222.004 169.011 221.267C168.778 220.491 168.856 219.249 168.352 218.706L168.507 219.016Z" fill="white"/>
<path opacity="0.1" d="M106.601 189.727C106.601 196.632 100.98 202.258 94.0801 202.258C87.1801 202.258 81.5593 196.671 81.5593 189.727C81.5593 182.821 87.1413 177.195 94.0801 177.195C100.98 177.195 106.601 182.821 106.601 189.727Z" fill="white"/>
<path opacity="0.2" d="M104.353 189.261C104.353 194.382 100.205 198.494 95.1268 198.494C90.0488 198.494 85.901 194.343 85.901 189.261C85.901 184.14 90.0488 180.027 95.1268 180.027C100.205 180.027 104.353 184.14 104.353 189.261Z" fill="white"/>
<path opacity="0.7" d="M95.1264 182.898C94.7388 185.692 95.1264 189.222 90.1259 189.649C91.5989 190.347 93.2657 190.929 94.3124 192.326C95.2427 193.567 95.9792 195.662 96.1343 197.175C96.4056 195.546 96.018 194.033 97.0646 192.365C97.8011 191.123 99.0804 190.231 100.515 190.076C98.9253 189.183 97.5298 189.338 96.5607 187.399C96.173 186.661 95.8629 185.886 95.6304 185.148C95.3978 184.373 95.4753 183.131 94.9714 182.588L95.1264 182.898Z" fill="white"/>
</svg>
