<svg width="181" height="240" viewBox="0 0 181 240" fill="none" xmlns="http://www.w3.org/2000/svg">
<path opacity="0.4" d="M90.5 240C139.929 240 180 233.284 180 225C180 216.716 139.929 210 90.5 210C41.0705 210 1 216.716 1 225C1 233.284 41.0705 240 90.5 240Z" fill="#4C7271"/>
<path opacity="0.4" d="M90.5 233C123.361 233 150 227.851 150 221.5C150 215.149 123.361 210 90.5 210C57.6391 210 31 215.149 31 221.5C31 227.851 57.6391 233 90.5 233Z" fill="#4C7271"/>
<path d="M136.507 213.727C132.901 210.679 121.435 208.77 118.35 207.446C112.925 205.137 112.568 200.18 112.568 200.18V181H90.0904H89.928H67.4506V200.15C67.4506 200.15 67.0608 205.106 61.6688 207.415C58.583 208.739 47.1169 210.648 43.5114 213.696C42.537 214.527 40.2632 217.329 41.2377 218.16C51.437 226.842 88.0116 225.98 89.993 225.949C92.0069 226.011 128.581 226.873 138.748 218.16C139.755 217.36 137.481 214.558 136.507 213.727Z" fill="#BACAD3"/>
<path d="M90 222.795C88.0833 222.855 53.9724 223.644 42.4072 216C41.4651 217.153 40.5555 218.7 41.2377 219.276C51.4385 227.83 88.0183 226.98 90 226.95C92.0142 227.011 128.594 227.86 138.762 219.276C139.444 218.7 138.535 217.153 137.593 216C126.028 223.644 91.9492 222.855 90 222.795Z" fill="#71AEAF"/>
<path opacity="0.4" d="M86.5667 216.143C85.0587 213.558 80.01 214.671 77.0923 214.376C73.2238 213.983 70.7323 212.052 67.3228 210.711C64.4378 209.565 60.2743 209.958 57.2582 210.809C57.0615 210.874 56.7665 210.972 56.3731 211.136C52.9964 211.823 47.9477 213.296 49.1935 215.914C50.7015 219.089 59.5203 218.172 62.7331 218.467C66.0442 218.729 90.5335 222.951 86.5667 216.143Z" fill="white"/>
<path opacity="0.3" d="M96.1729 206.203C99.0719 206.61 102.101 205.984 104.935 206.516C107.183 206.955 110.114 208.458 112.622 207.863C113.437 207.675 114.512 207.549 115 206.861C112.525 204.606 112.166 201.287 112.166 201.287L112.199 187.291C109.137 184.692 104.186 184.41 99.3976 185.913C96.5312 186.821 84.8048 192.238 87.0849 195.4L85.0002 197.404C88.5182 201.037 90.4074 205.389 96.1729 206.203Z" fill="#4C7271"/>
<path d="M112.713 13.858H105.189C105.189 6.2037 98.6133 0 90.5 0C82.3867 0 75.811 6.2037 75.811 13.858L68.2866 13.858L57 31.7593L70.7729 44.0432V55H90.5H110.227V44.0432L124 31.7593L112.713 13.858Z" fill="#BACAD3"/>
<path d="M114.535 49.2809C105.661 48.9064 75.3542 48.9064 66.4806 49.2809C62.5006 49.437 63.0225 51.0288 63.0225 52.6206C63.0225 54.9302 67.3615 56.1475 68.6664 58.1763C69.9714 60.1738 68.6664 88.8574 68.6664 88.8574L90.4915 100L112.317 88.8574C112.317 88.8574 111.012 60.1738 112.317 58.1763C113.622 56.1787 117.961 54.9302 117.961 52.6206C117.993 51.0288 118.515 49.437 114.535 49.2809Z" fill="#BACAD3"/>
<path d="M159.041 80.7538C127.642 65.8937 90.5058 90.6192 90.5058 90.6192C90.5058 90.6192 53.3691 65.8937 21.9708 80.7538C-3.06959 92.6047 -8.6776 138.395 15.4824 158.684C39.6751 178.973 90.4731 201 90.4731 201C90.4731 201 141.304 179.004 165.464 158.684C189.689 138.364 184.081 92.6047 159.041 80.7538Z" fill="#71AEAF"/>
<path d="M154.686 86.225C126.516 72.8643 90.5535 96.7892 90.5535 96.7892C90.5535 96.7892 56.156 72.1186 27.4642 84.4539C0.0439763 96.261 -5.8248 136.126 23.2256 157.969C45.9508 175.027 90.5208 196 90.5208 196C90.5208 196 141.351 173.411 163.065 155.172C184.812 136.933 177.183 96.8824 154.686 86.225Z" fill="#BACAD3"/>
<path opacity="0.3" d="M176 120.701C174.72 105.856 167.01 91.9176 154.871 86.1671C136.007 77.2289 113.861 84.542 101 90.6675C102.706 91.5113 104.248 92.6364 105.659 94.074C110.154 98.6369 112.614 104.637 114.123 110.638C115.173 114.826 113.336 121.045 118.946 122.264C125.606 123.733 134.399 122.608 141.157 122.264C150.541 121.795 159.924 121.858 169.34 121.514C171.833 121.451 173.9 121.201 176 120.701Z" fill="white"/>
<path d="M173.93 110.148C165.255 108.972 156.483 112.129 147.613 113.337C129.905 115.72 113.502 109.808 95.8923 109.993C86.7613 110.086 77.826 112.315 68.8907 113.584C58.3574 115.101 48.509 113.894 38.2367 111.232C29.7579 109.034 21.2791 106.031 12.3764 106C10.648 106 8.56095 106.093 6.44126 106.371C0.538731 122.809 5.039 143.488 23.2358 157.109C45.9654 174.104 90.5442 195 90.5442 195C90.5442 195 141.384 172.495 163.103 154.323C175.854 143.643 178.463 125.472 173.93 110.148Z" fill="#E8391C"/>
<path d="M173.975 111.156C172.998 111.031 171.826 111.031 170.85 111C172.64 124.515 169.06 138.874 158.416 147.915C136.737 166.279 85.9909 189.023 85.9909 189.023C85.9909 189.023 41.4944 167.937 18.8068 150.731C14.4125 147.415 10.8319 143.661 8 139.688C11.1248 146.664 16.1702 153.234 23.3638 158.708C46.0515 175.883 90.5479 197 90.5479 197C90.5479 197 141.294 174.256 162.973 155.893C175.7 145.068 178.499 126.642 173.975 111.156Z" fill="#D1311C"/>
<path d="M100.388 142.647C101.392 138.264 94.4625 134.968 90.5121 134.253C85.0721 133.258 80.0207 135.155 78.4988 140.72C77.1388 145.726 78.7578 151.073 80.9597 155.706C82.3197 158.535 84.2949 161.489 86.5616 163.696C88.4721 165.562 89.573 164.878 92.3578 164.878C99.9025 164.909 108.904 164.504 114.442 159.001C120.756 152.752 114.247 144.357 107.188 142.896C105.31 142.492 101.295 141.59 99.6435 142.896L100.388 142.647Z" fill="#CE1602"/>
<path d="M115.826 149.826C115.859 151.828 115.106 153.894 113.241 155.769C107.646 161.362 98.5492 161.775 90.9251 161.775C88.111 161.775 87.0312 162.474 85.0679 160.568C82.7774 158.311 80.7814 155.324 79.4071 152.4C78.8835 151.32 78.4254 150.176 78 149C78.5235 151.574 79.4725 154.116 80.585 156.5C81.9593 159.392 83.9553 162.411 86.2459 164.667C88.1764 166.574 89.289 165.875 92.1031 165.875C99.7272 165.907 108.824 165.493 114.419 159.869C117.593 156.691 117.561 152.941 115.826 149.826Z" fill="#B21104"/>
<path d="M95.5003 141.232C95.2436 140.712 94.8264 140.284 94.313 139.917C92.6122 137.625 87.7024 137.411 85.6807 139.153C83.2419 141.262 83.8195 147.589 85.1352 150.126C87.6062 154.895 89.7883 149.271 91.6816 147.467C93.8316 145.419 97.2973 144.777 95.5003 141.232Z" fill="#F71706"/>
<path d="M67 148C66.6585 147.345 66.3415 146.691 66 146C66.0976 146.255 66.2195 146.509 66.3171 146.764C66.5122 147.2 66.7317 147.6 67 148Z" fill="#F94926"/>
<path d="M173.674 110.16C165 108.98 156.228 112.146 147.358 113.357C129.652 115.747 113.25 109.818 95.6411 110.004C86.5106 110.098 77.5758 112.333 68.6411 113.605C58.1085 115.126 48.2606 113.916 37.9889 111.246C29.5106 109.042 21.0323 106.031 12.1302 106C10.4019 106 8.11932 106.093 5.99976 106.373C7.20628 108.576 8.73888 110.594 11.0867 112.239C13.6302 114.009 16.3367 114.816 19.2063 115.25C18.6845 118.944 16.6954 122.514 17.0541 126.394C17.5759 132.106 23.315 134.341 27.6193 137.073C32.1845 139.96 33.4889 143.312 35.315 147.969C36.4889 150.949 37.7606 154.674 41.1846 156.567C41.9998 157.002 45.6846 157.56 46.4019 157.467C39.1954 155.419 38.1519 148.155 36.2932 143.095C34.4346 138.066 30.3258 135.521 25.8258 132.882C24.2606 131.951 22.2389 131.175 21.1302 129.747C19.8585 128.164 19.8911 125.991 19.8585 124.097C19.8258 121.055 21.391 118.417 22.4019 115.685C24.2932 115.84 26.2172 115.933 28.1411 116.12C35.5759 116.803 42.0976 119.193 49.2389 121.179C54.0324 122.514 58.8585 123.104 63.7172 123.104C64.4019 125.277 65.478 126.922 64.6302 129.623C63.6845 132.603 62.4128 135.148 62.478 138.284C62.5432 141.201 63.9128 143.499 65.5432 145.64C64.4019 143.778 63.5867 141.481 63.6846 139.277C63.978 133.658 67.4019 129.157 66.815 123.414C66.815 123.259 66.7824 123.135 66.7824 122.98C68.8041 122.856 70.8259 122.638 72.8476 122.328C72.5215 123.104 72.3258 124.004 72.2606 124.408C71.8367 127.481 73.4672 129.747 73.9889 132.603C74.5432 135.583 72.6519 138.283 71.9345 141.108C70.565 146.385 72.2932 151.414 76.7606 154.456C74.9998 152.718 73.728 150.731 73.3041 148.124C72.3911 142.319 77.6737 137.973 76.1411 132.261C75.4237 129.499 74.6737 127.171 75.1302 124.253C75.1954 123.756 75.4563 122.701 75.2606 121.924C75.2933 121.924 75.2932 121.924 75.3258 121.924C84.228 120.186 92.7389 118.106 101.837 119.41C105.228 119.907 108.717 120.745 112.174 121.49C112.369 123.414 113.152 125.867 113.119 126.922C112.891 132.23 108.228 137.818 112.858 142.536C112.5 141.512 112.043 140.456 112.043 139.277C112.043 137.663 112.598 136.048 113.152 134.621C114.293 131.609 116.739 127.853 116.804 124.594C116.804 124.159 116.674 123.29 116.38 122.359C117.619 122.576 118.826 122.763 120.065 122.918C120.489 124.594 121.565 126.643 121.761 127.108C122.902 129.933 121.598 132.355 119.935 134.745C117.913 137.663 117.945 140.239 118.956 143.654C119.804 146.447 121.402 149.024 121.532 151.973C121.695 155.232 119.641 158.523 117.163 160.634C111.75 165.29 102.815 166.811 95.7715 166.811H95.6084C96.9128 167.121 100.793 166.997 102.782 166.811C105.358 166.563 107.967 166.501 110.478 165.818C115.304 164.483 119.608 162.713 122.25 158.305C125.25 153.339 122.054 148.155 120.978 143.126C120.358 140.301 120.358 137.725 122.054 135.303C123.88 132.696 124.63 131.02 124.467 127.791C124.435 126.922 124.108 124.904 123.424 123.197C124.532 123.228 125.641 123.228 126.75 123.135C127.793 123.073 128.837 122.918 129.848 122.732C129.848 122.794 129.88 122.887 129.88 122.949C130.467 125.712 130.598 128.35 129.521 130.958C128.38 133.782 125.902 135.738 124.565 138.47C121.826 144.119 125.674 149.334 125.674 155.139L124.793 158.15C125.902 156.288 126.945 154.891 126.717 152.656C126.521 150.7 125.772 148.776 125.315 146.82C124.695 144.057 124.761 141.574 126.489 139.153C128.25 136.7 130.141 134.465 131.576 131.827C132.945 129.343 134.217 126.239 133.239 123.477C133.076 123.011 132.815 122.545 132.554 122.142C136.435 121.148 140.282 119.689 144.261 118.944C146.674 118.479 149.021 118.479 151.369 118.603C150.848 120.869 153.717 122.98 154.598 124.998C155.706 127.574 154.924 131.144 153.848 133.658C151.761 138.594 146.641 141.357 142.337 144.492C139.108 146.851 135.456 150.204 136.011 154.487L135.652 156.164C136.695 152.842 138.75 149.241 141.652 147.192C145.174 144.678 149.445 143.374 153.13 141.108C158.087 138.066 159.717 132.292 158.576 127.139C157.956 124.408 155.608 122.173 155.641 119.286C155.641 119.162 155.641 119.038 155.674 118.882C157.565 119.038 159.489 119.162 161.445 119.131C167.315 119.007 172.043 115.84 174 111.339C173.869 110.874 173.772 110.532 173.674 110.16Z" fill="#F94926"/>
<path opacity="0.6" d="M48.1788 87.6723C45.2068 86.4477 40.9936 86.9501 37.205 88.7399C37.1397 88.7399 37.107 88.7713 37.0417 88.7713C32.208 90.1529 27.5376 94.4233 23.9123 99.1333C19.9278 104.314 16.1392 110.94 15.1921 117.439C14.5389 122.087 15.486 126.702 19.046 127.833C22.116 128.806 23.9123 125.352 25.7086 122.118C28.0275 117.942 30.0198 114.362 33.2531 110.94C36.1272 107.925 38.9687 106.355 42.3 105.256C45.0761 104.346 49.2239 102.901 51.3468 99.7926C55.1028 94.2349 51.7714 89.1481 48.1788 87.6723Z" fill="white"/>
<path d="M88 183C88 183 132.744 166.099 141.661 157.961C155.328 145.442 157.574 139.84 160.275 126.037C162.39 115.145 158.582 102 158.582 102C158.582 102 167.499 111.828 166.978 126.475C166.62 136.553 159.982 151.326 149.666 159.026C129.718 173.923 88 183 88 183Z" fill="#557F7D"/>
<path opacity="0.6" d="M25.835 140.857C25.2319 138.08 21.5811 131.792 18.1525 132.005C15.6128 132.158 15.0414 134.325 15.0731 136.431C15.0731 136.523 15.0731 136.584 15.0731 136.675C14.6604 139.301 16.0573 141.376 17.6763 143.513C19.0414 145.283 20.8827 147.756 23.4858 146.779C25.9303 145.863 26.2795 142.902 25.835 140.857Z" fill="white"/>
<path opacity="0.3" d="M108 14H112.804L124 32H115.854L108 14Z" fill="#4C7271"/>
<path opacity="0.3" d="M103.974 14L110 32H102.82L100 14H103.974Z" fill="#4C7271"/>
<path opacity="0.3" d="M90.9998 32L91.0346 14H93.4416L96.9998 32H90.9998Z" fill="#4C7271"/>
<path opacity="0.6" d="M85.8372 1.45618C84.2276 2.11506 82.2316 3.08768 81.4589 4.62506C81.3302 4.90744 81.2014 5.25256 81.1048 5.66044C80.461 6.53894 80.0425 7.44882 80.0103 8.32732C79.7849 11.9982 83.4227 11.4962 84.9358 9.17445C85.9338 7.66845 86.6098 6.53894 88.2839 5.66044C89.475 5.06431 91.1812 4.97019 91.7285 3.74656C93.306 0.420796 87.5756 0.765926 85.8372 1.45618Z" fill="white"/>
<path opacity="0.6" d="M68.6108 14L57.0002 32H64.1012L71.0002 14H68.6108Z" fill="white"/>
<path opacity="0.6" d="M74.726 14L70.0002 32H76.5487L78.0002 14H74.726Z" fill="white"/>
<path opacity="0.6" d="M83.0486 14L81 32H86V14H83.0486Z" fill="white"/>
<path opacity="0.6" d="M97.9724 51.5533C96.3915 50.6568 93.1651 51.6653 91.4552 51.7213C89.0032 51.8054 69.9355 50.8809 67.8384 51.049C65.1605 50.6568 65.6445 52.7299 67.7739 53.3182C69.7742 53.8784 72.1617 53.4862 74.2588 53.5703C79.0015 53.7384 82.0343 53.7664 86.8093 53.9345C88.5515 54.0185 102.909 54.4107 97.9724 51.5533Z" fill="white"/>
<path opacity="0.6" d="M81.2021 70.1752C80.7352 67.3372 81.6356 60.3514 78.8343 58.5426C76.8667 57.2951 74.6323 58.3243 74.1987 60.3514C74.1987 60.3514 74.1987 60.3514 74.1987 60.3826C73.465 63.0335 74.9991 68.1481 74.9991 69.6451C75.0325 73.1068 73.3984 79.9679 78.9677 79.9991C83.6033 80.0926 81.669 72.9821 81.2021 70.1752Z" fill="white"/>
<path opacity="0.3" d="M89.0563 59.5866C92.4563 60.3399 97.7378 59.6494 99.9164 62.9449C101.864 65.8951 101.501 71.5759 101.303 75.0283C101.237 76.5662 100.246 80.0186 101.303 81.3681C102.326 82.6549 104.835 81.7134 106.353 80.866C109.852 78.8573 107.839 73.459 107.674 69.9752C107.575 67.8724 107.476 65.4871 107.674 63.3842C107.839 61.658 110.38 60.4026 109.951 58.7392C104.604 58.4567 101.699 57.7662 98.596 58.0801C95.031 58.4253 91.466 58.6137 88 58.8961C88.4291 61.0931 91.7961 59.5238 93.2815 60.6223L89.0563 59.5866Z" fill="#4C7271"/>
<path opacity="0.3" d="M72.1794 44.6704L70.7727 44.6386L56.9998 32L124 32L110.227 44.6386V49H92.9207L70.7727 44.6386L72.1794 44.6704Z" fill="#4C7271"/>
</svg>
