<svg width="230" height="270" viewBox="0 0 230 270" fill="none" xmlns="http://www.w3.org/2000/svg">
<path opacity="0.4" d="M114.6 269.647C177.892 269.647 229.2 259.531 229.2 247.052C229.2 234.573 177.892 224.457 114.6 224.457C51.3082 224.457 0 234.573 0 247.052C0 259.531 51.3082 269.647 114.6 269.647Z" fill="#4C7271"/>
<path opacity="0.4" d="M114.6 258.467C156.64 258.467 190.721 250.854 190.721 241.462C190.721 232.071 156.64 224.458 114.6 224.458C72.5599 224.458 38.4795 232.071 38.4795 241.462C38.4795 250.854 72.5599 258.467 114.6 258.467Z" fill="#4C7271"/>
<path d="M136.494 42.5808L140.128 36.6176L115.158 0L90.7476 37.0369L94.5209 42.9535V51.3858L115.484 63.9178V64.1041L115.671 64.011L115.857 64.1041V63.9178L136.588 51.0131L136.494 42.5808Z" fill="#71AEAF"/>
<path d="M143.715 160.306C131.882 149.032 137.798 65.5005 138.544 63.4041C139.289 61.3077 145.578 60.702 145.205 55.065C144.739 48.0303 138.916 48.0303 138.916 48.0303H125.267H105.701H92.0514C92.0514 48.0303 86.2282 48.0303 85.7623 55.065C85.3897 60.6554 91.6787 61.3077 92.4241 63.4041C93.1694 65.5005 99.0858 149.032 87.2532 160.306C80.1256 167.107 21.1019 174.096 21.1019 198.927C21.1019 229.162 81.7095 245.793 89.8154 246.539C94.7534 247.005 106.819 246.911 115.484 246.725C124.149 246.865 136.214 246.958 141.152 246.539C149.258 245.793 209.866 229.162 209.866 198.927C209.866 174.096 150.842 167.107 143.715 160.306Z" fill="#71AEAF"/>
<path d="M140.034 162.076C130.531 151.547 134.025 73.9796 135.05 63.4043H95.8716C96.8965 73.9796 101.508 151.547 92.005 162.076C85.9023 168.831 25.8538 175.913 25.8538 195.666C25.8538 225.714 86.5545 243.324 93.4957 244.07C97.735 244.536 108.03 244.443 115.437 244.256C122.845 244.396 133.186 244.489 137.379 244.07C144.32 243.324 204.276 228.696 204.276 198.647C204.322 173.956 146.091 168.831 140.034 162.076Z" fill="#BACAD3"/>
<path d="M204.695 198.648C204.695 195.248 203.577 192.173 201.621 189.471C190.487 191.055 180.052 195.527 168.592 195.946C148.7 196.599 129.413 190.03 109.382 190.775C97.5956 191.194 86.1356 194.735 74.5358 196.412C66.0107 197.67 57.206 197.111 48.7741 195.48C43.3236 194.409 38.1061 193.524 32.5158 193.757C30.3729 193.85 28.3231 194.362 26.2733 194.828C26.2267 195.154 26.2268 195.434 26.2268 195.76C26.2268 225.809 86.9275 243.419 93.8687 244.164C98.108 244.63 108.403 244.537 115.81 244.351C123.217 244.49 133.559 244.583 137.752 244.164C144.74 243.326 204.695 228.651 204.695 198.648Z" fill="#F4AE34"/>
<path opacity="0.4" d="M137.798 244.071C144.739 243.326 204.695 228.697 204.695 198.648C204.695 195.248 203.577 192.173 201.62 189.471C190.486 191.055 180.051 195.527 168.591 195.946C164.445 196.086 160.299 195.9 156.199 195.527C155.501 200.279 154.569 204.565 152.612 209.084C148.932 217.656 142.457 225.995 135.609 232.284C130.904 236.57 126.525 240.763 120.748 243.279C119.63 243.792 118.093 244.024 116.602 244.351C123.916 244.397 133.699 244.49 137.798 244.071Z" fill="#F2892A"/>
<path opacity="0.3" d="M75.6542 174.563C69.0856 175.774 62.2375 178.802 56.1814 181.97C55.2963 182.436 52.5012 184.206 49.7993 186.256C42.6717 190.03 37.361 195.061 40.4822 203.028C43.4171 210.575 54.551 215.047 59.8618 207.127C61.632 204.518 61.632 200.978 62.424 198.089C63.542 194.269 65.4985 191.707 68.5266 189.005C71.8341 186.07 75.5144 184.113 79.4741 182.203C81.6636 181.178 85.3905 180.246 86.9278 178.29C91.8658 171.954 78.4959 174.05 75.6542 174.563Z" fill="white"/>
<path opacity="0.3" d="M106.633 144.049C104.77 143.583 103.698 144.142 103.092 145.12C101.136 147.077 101.369 152.341 100.856 154.438C99.2723 160.727 105.375 160.261 107.239 155.043C108.124 152.621 110.034 144.934 106.633 144.049Z" fill="white"/>
<path opacity="0.3" d="M117.254 50.4541C111.152 49.569 104.397 49.7087 98.294 49.7087C95.7318 49.7087 91.6788 49.2428 89.7222 51.0132C89.2564 51.4325 88.9769 51.7586 88.8371 52.0847C88.0918 52.7369 88.0918 53.6686 89.6757 54.8799C92.3311 56.9297 99.3655 55.5787 102.487 55.439C106.633 55.2526 110.872 55.5787 115.065 55.3924C118.745 55.206 122.938 51.2927 117.254 50.4541Z" fill="white"/>
<path d="M157.552 225.995L153.872 220.032L146.837 219.659L151.402 214.302L149.586 207.5L156.108 210.202L161.978 206.382L161.419 213.37L166.916 217.796L160.068 219.426L157.552 225.995Z" fill="#FAFF33"/>
<path d="M157.458 221.01L155.501 217.842L151.821 217.609L154.197 214.814L153.265 211.227L156.666 212.624L159.787 210.621L159.508 214.302L162.396 216.631L158.762 217.516L157.458 221.01Z" fill="white"/>
<path d="M106.914 238.062L102.395 230.701L93.8225 230.236L99.413 223.713L97.1768 215.374L105.143 218.682L112.364 213.977L111.665 222.549L118.374 227.999L109.988 230.003L106.914 238.062Z" fill="#FAFF33"/>
<path d="M106.774 231.913L104.398 227.999L99.8789 227.766L102.814 224.319L101.649 219.94L105.842 221.663L109.662 219.194L109.29 223.713L112.83 226.602L108.404 227.627L106.774 231.913Z" fill="white"/>
<path d="M92.6579 201.584L88.8378 198.09L83.8063 199.254L85.9494 194.549L83.2939 190.17L88.4185 190.729L91.7728 186.815L92.8443 191.893L97.5496 193.897L93.0773 196.412L92.6579 201.584Z" fill="#FAFF33"/>
<path d="M91.5408 198.043L89.5376 196.226L86.8821 196.832L88.0002 194.362L86.6025 192.033L89.3046 192.313L91.1215 190.263L91.634 192.918L94.1497 193.99L91.7738 195.341L91.5408 198.043Z" fill="white"/>
<path d="M141.945 181.18L138.125 177.732L133.093 178.897L135.237 174.191L132.581 169.766L137.706 170.371L141.06 166.458L142.131 171.489L146.837 173.493L142.364 176.055L141.945 181.18Z" fill="#FAFF33"/>
<path d="M140.828 177.685L138.824 175.822L136.169 176.474L137.287 173.958L135.889 171.629L138.591 171.955L140.408 169.905L140.921 172.561L143.437 173.632L141.061 174.983L140.828 177.685Z" fill="white"/>
<path d="M120.004 154.809L116.183 151.315L111.199 152.48L113.295 147.821L110.64 143.396L115.764 143.955L119.165 140.088L120.19 145.119L124.942 147.123L120.47 149.685L120.004 154.809Z" fill="#FAFF33"/>
<path d="M118.932 151.269L116.929 149.452L114.273 150.057L115.391 147.588L113.994 145.259L116.696 145.585L118.466 143.535L119.025 146.191L121.541 147.216L119.165 148.567L118.932 151.269Z" fill="white"/>
<path d="M126.804 116.841L123.59 113.906L119.351 114.884L121.121 110.925L118.885 107.198L123.217 107.71L126.059 104.402L126.944 108.688L130.951 110.366L127.177 112.509L126.804 116.841Z" fill="#FAFF33"/>
<path d="M125.874 113.907L124.196 112.323L121.96 112.836L122.892 110.739L121.727 108.783L124.01 109.062L125.501 107.292L125.967 109.575L128.063 110.46L126.06 111.578L125.874 113.907Z" fill="white"/>
<path d="M110.453 88.004L107.937 85.7213L104.583 86.4666L105.981 83.3453L104.21 80.4103L107.611 80.8296L109.894 78.2207L110.546 81.575L113.714 82.926L110.733 84.6032L110.453 88.004Z" fill="#FAFF33"/>
<path d="M109.708 85.6741L108.404 84.4629L106.634 84.8821L107.379 83.205L106.447 81.6676L108.218 81.854L109.429 80.5029L109.802 82.2732L111.432 82.9721L109.895 83.8572L109.708 85.6741Z" fill="white"/>
<path opacity="0.3" d="M122.053 238.155C122.053 238.155 158.576 228.604 166.449 223.573C175.487 217.796 182.428 211.6 185.27 204.379C188.204 196.878 187.18 187.794 187.18 187.794C187.18 187.794 193.562 195.76 191.792 206.149C190.58 213.324 183.779 223.154 174.648 227.58C156.992 236.058 122.053 238.155 122.053 238.155Z" fill="#4C7271"/>
<path opacity="0.3" d="M96.0587 36.8515H110.641L115.066 2.84277L96.0587 36.8515Z" fill="white"/>
<path d="M90.7479 37.0375L140.128 36.6182L136.495 42.5813L94.5213 42.954L90.7479 37.0375Z" fill="#4C7271"/>
<path opacity="0.3" d="M117.115 7.4541L125.967 36.8507L134.306 36.6177L117.115 7.4541Z" fill="#4C7271"/>
<path opacity="0.3" d="M134.306 42.8145H113.714V48.0322H134.306V42.8145Z" fill="#4C7271"/>
<path d="M97.9218 63.4062L100.111 76.9166H130.951L133.001 63.4062H97.9218Z" fill="#7FBFBE"/>
<path opacity="0.3" d="M107.519 93.5474C107.519 87.4911 106.913 81.3881 107.519 75.425C107.798 72.4434 108.916 69.6015 105.748 68.3437C102.487 66.9927 100.065 69.1357 100.111 72.49C100.158 73.8876 100.81 75.0057 101.649 76.1238C102.115 79.7576 103.233 83.6243 103.466 85.0685C104.491 91.8237 103.093 98.5789 103.093 105.427C103.093 112.369 103.466 119.264 103.466 126.112C103.466 128.208 102.441 133.613 103.466 135.383C105.469 138.97 107.379 135.057 107.938 132.774C110.826 120.801 107.519 105.753 107.519 93.5474Z" fill="white"/>
<path opacity="0.3" d="M115.439 63.4053L114.274 76.9156H127.598L130.3 63.4053H115.439Z" fill="#4C7271"/>
</svg>
