<svg width="435" height="365" viewBox="0 0 435 365" fill="none" xmlns="http://www.w3.org/2000/svg">
<ellipse cx="218.259" cy="343.687" rx="177.965" ry="20.6267" fill="#E9E1D4"/>
<path d="M66.4196 136.276C66.4196 136.276 22.5554 145.767 9.12991 175.743C-4.41129 205.718 33.4346 214.399 33.4346 214.399L36.3281 209.885C36.3281 209.885 1.8385 202.941 12.4863 177.71C24.1757 150.165 74.9842 148.892 74.9842 148.892L66.4196 136.276Z" fill="#340609" stroke="#340609" stroke-width="1.4178" stroke-miterlimit="10"/>
<path d="M8.2037 195.302C23.8282 187.432 49.9847 192.872 47.7857 228.056L42.2303 217.639C42.2303 217.639 45.3552 230.023 43.272 243.796C43.272 243.796 28.2262 237.546 17.1154 227.94C7.8565 219.954 4.7316 209.422 4.7316 209.422L1.60671 217.755C1.83818 217.755 -5.10603 201.899 8.2037 195.302Z" fill="#340609"/>
<path d="M134.01 268.565C134.01 268.565 128.571 282.685 114.798 284.884C114.798 284.884 136.209 304.906 137.598 328.401H170.004C170.004 328.401 150.445 307.915 147.899 298.425C145.352 289.05 162.829 268.449 162.829 268.449H134.01V268.565Z" fill="#6F4038" stroke="#593921" stroke-width="1.4178" stroke-miterlimit="10"/>
<path d="M150.561 268.562C150.561 268.562 164.681 278.4 167.805 296.108C167.805 296.108 159.935 288.701 153.917 289.048C153.917 289.048 157.042 293.793 157.736 303.515C157.736 303.515 147.436 296.339 136.325 292.289" fill="#6F4038"/>
<path d="M150.56 268.562C160.514 275.391 167.111 286.386 169.078 298.191L167.227 296.571C163.407 293.446 159.009 289.858 153.917 289.742L154.496 288.469C157.273 293.446 158.083 299.117 158.315 304.672C153.107 300.853 147.436 297.612 141.649 294.719C139.797 293.793 138.061 292.983 136.209 292.173C143.963 294.719 151.139 298.423 157.968 302.821L156.926 303.399C156.81 302.126 156.695 300.969 156.463 299.696C155.769 295.645 154.727 291.478 152.412 288.122H153.801C159.472 288.122 164.217 291.941 168.268 295.413L166.995 296.108C165.143 285.344 158.894 275.507 150.56 268.562Z" fill="#593921"/>
<path d="M180.652 337.658C180.652 337.658 173.476 323.423 155.074 323.423C136.672 323.423 130.769 337.658 130.769 337.658H155.652L157.041 330.483L164.333 337.658H180.652Z" fill="#340609" stroke="#340609" stroke-width="0.3968" stroke-miterlimit="10"/>
<path d="M81.6969 328.399C81.6969 328.399 76.836 292.174 50.9109 265.67C50.9109 265.67 66.3039 230.023 66.3039 209.075C66.3039 188.126 66.3039 143.336 66.3039 136.276C66.3039 129.216 238.405 0.632632 260.51 1.67426C282.616 2.60016 354.604 85.5834 361.317 100.398C368.03 115.096 373.006 196.922 372.428 216.597C371.849 236.273 325.091 308.145 325.091 308.145C325.091 308.145 332.499 321.686 325.67 325.39C318.957 329.094 296.736 330.945 306.574 310.691L310.277 278.169L298.588 290.438L298.009 281.873C298.009 281.873 291.296 291.711 281.459 294.836L278.334 277.012C278.334 277.012 268.496 287.428 259.237 292.405L254.955 313.932C254.955 313.932 260.973 323.075 255.418 326.084C249.863 329.094 238.983 329.325 233.428 324.927C227.873 320.529 237.71 310.807 237.71 310.807C237.71 310.807 227.178 299.697 223.59 285.577L218.729 299.118C218.729 299.118 211.322 291.132 208.892 280.716C208.892 280.716 141.301 292.984 92.6919 257.337C92.6919 257.337 89.6828 264.165 81.5812 277.012C83.433 284.419 106.812 313.238 110.515 328.631H81.6969V328.399Z" fill="#C79E8A"/>
<mask id="mask0_225_5356" style="mask-type:luminance" maskUnits="userSpaceOnUse" x="50" y="1" width="323" height="328">
<path d="M81.6969 328.399C81.6969 328.399 76.836 292.174 50.9109 265.67C50.9109 265.67 66.3039 230.023 66.3039 209.075C66.3039 188.126 66.3039 143.336 66.3039 136.276C66.3039 129.216 238.405 0.632632 260.51 1.67426C282.616 2.60016 354.604 85.5834 361.317 100.398C368.03 115.096 373.006 196.922 372.428 216.597C371.849 236.273 325.091 308.145 325.091 308.145C325.091 308.145 332.499 321.686 325.67 325.39C318.957 329.094 296.736 330.945 306.574 310.691L310.277 278.169L298.588 290.438L298.009 281.873C298.009 281.873 291.296 291.711 281.459 294.836L278.334 277.012C278.334 277.012 268.496 287.428 259.237 292.405L254.955 313.932C254.955 313.932 260.973 323.075 255.418 326.084C249.863 329.094 238.983 329.325 233.428 324.927C227.873 320.529 237.71 310.807 237.71 310.807C237.71 310.807 227.178 299.697 223.59 285.577L218.729 299.118C218.729 299.118 211.322 291.132 208.892 280.716C208.892 280.716 141.301 292.984 92.6919 257.337C92.6919 257.337 89.6828 264.165 81.5812 277.012C83.433 284.419 106.812 313.238 110.515 328.631H81.6969V328.399Z" fill="white"/>
</mask>
<g mask="url(#mask0_225_5356)">
<path d="M216.299 214.514C216.299 214.514 158.546 271.688 90.2613 225.972C74.9841 243.911 68.3871 270.53 68.3871 270.53L119.311 359.3L261.668 376.198L216.299 214.514Z" fill="#A17262"/>
</g>
<mask id="mask1_225_5356" style="mask-type:luminance" maskUnits="userSpaceOnUse" x="50" y="1" width="323" height="328">
<path d="M81.6969 328.399C81.6969 328.399 76.836 292.174 50.9109 265.67C50.9109 265.67 66.3039 230.023 66.3039 209.075C66.3039 188.126 66.3039 143.336 66.3039 136.276C66.3039 129.216 238.405 0.632632 260.51 1.67426C282.616 2.60016 354.604 85.5834 361.317 100.398C368.03 115.096 373.006 196.922 372.428 216.597C371.849 236.273 325.091 308.145 325.091 308.145C325.091 308.145 332.499 321.686 325.67 325.39C318.957 329.094 296.736 330.945 306.574 310.691L310.277 278.169L298.588 290.438L298.009 281.873C298.009 281.873 291.296 291.711 281.459 294.836L278.334 277.012C278.334 277.012 268.496 287.428 259.237 292.405L254.955 313.932C254.955 313.932 260.973 323.075 255.418 326.084C249.863 329.094 238.983 329.325 233.428 324.927C227.873 320.529 237.71 310.807 237.71 310.807C237.71 310.807 227.178 299.697 223.59 285.577L218.729 299.118C218.729 299.118 211.322 291.132 208.892 280.716C208.892 280.716 141.301 292.984 92.6919 257.337C92.6919 257.337 89.6828 264.165 81.5812 277.012C83.433 284.419 106.812 313.238 110.515 328.631H81.6969V328.399Z" fill="white"/>
</mask>
<g mask="url(#mask1_225_5356)">
<path opacity="0.48" d="M159.934 54.797C159.934 54.797 126.718 84.4256 122.783 90.3282L163.985 81.7636C163.985 81.7636 151.138 102.943 149.865 110.466C148.476 117.989 163.985 114.749 163.985 114.749C163.985 114.749 151.254 132.109 159.934 134.192C168.615 136.16 197.78 135.581 197.78 135.581C197.78 135.581 182.156 156.761 185.512 157.687C188.869 158.613 208.891 154.794 208.891 154.794L197.665 168.335L208.891 176.089C208.891 176.089 177.758 207.107 181.693 254.79C182.966 257.221 200.327 243.101 199.864 245.878C169.193 415.201 423.699 404.206 423.699 404.206L485.618 239.05L375.089 -29.8066L92.1126 5.49308L159.934 54.797Z" fill="#340609"/>
</g>
<mask id="mask2_225_5356" style="mask-type:luminance" maskUnits="userSpaceOnUse" x="50" y="1" width="323" height="328">
<path d="M81.6969 328.399C81.6969 328.399 76.836 292.174 50.9109 265.67C50.9109 265.67 66.3039 230.023 66.3039 209.075C66.3039 188.126 66.3039 143.336 66.3039 136.276C66.3039 129.216 238.405 0.632632 260.51 1.67426C282.616 2.60016 354.604 85.5834 361.317 100.398C368.03 115.096 373.006 196.922 372.428 216.597C371.849 236.273 325.091 308.145 325.091 308.145C325.091 308.145 332.499 321.686 325.67 325.39C318.957 329.094 296.736 330.945 306.574 310.691L310.277 278.169L298.588 290.438L298.009 281.873C298.009 281.873 291.296 291.711 281.459 294.836L278.334 277.012C278.334 277.012 268.496 287.428 259.237 292.405L254.955 313.932C254.955 313.932 260.973 323.075 255.418 326.084C249.863 329.094 238.983 329.325 233.428 324.927C227.873 320.529 237.71 310.807 237.71 310.807C237.71 310.807 227.178 299.697 223.59 285.577L218.729 299.118C218.729 299.118 211.322 291.132 208.892 280.716C208.892 280.716 141.301 292.984 92.6919 257.337C92.6919 257.337 89.6828 264.165 81.5812 277.012C83.433 284.419 106.812 313.238 110.515 328.631H81.6969V328.399Z" fill="white"/>
</mask>
<g mask="url(#mask2_225_5356)">
<path d="M169.888 43.8028C169.888 43.8028 136.671 73.4314 132.736 79.334L173.939 70.7695C173.939 70.7695 161.092 91.9493 159.819 99.4722C158.43 106.995 173.939 103.754 173.939 103.754C173.939 103.754 161.208 121.115 169.888 123.198C178.568 125.166 207.734 124.587 207.734 124.587C207.734 124.587 192.109 145.767 195.466 146.693C198.822 147.619 218.844 143.799 218.844 143.799L207.618 157.341L218.844 165.095C218.844 165.095 187.711 196.112 191.646 243.796C192.919 246.226 210.28 232.107 209.817 234.884C179.147 404.207 433.652 393.212 433.652 393.212L495.687 228.056L385.158 -40.8008L102.182 -5.38531L169.888 43.8028Z" fill="#6F4038" stroke="#340609" stroke-width="1.4178" stroke-miterlimit="10"/>
</g>
<mask id="mask3_225_5356" style="mask-type:luminance" maskUnits="userSpaceOnUse" x="50" y="1" width="323" height="328">
<path d="M81.6969 328.399C81.6969 328.399 76.836 292.174 50.9109 265.67C50.9109 265.67 66.3039 230.023 66.3039 209.075C66.3039 188.126 66.3039 143.336 66.3039 136.276C66.3039 129.216 238.405 0.632632 260.51 1.67426C282.616 2.60016 354.604 85.5834 361.317 100.398C368.03 115.096 373.006 196.922 372.428 216.597C371.849 236.273 325.091 308.145 325.091 308.145C325.091 308.145 332.499 321.686 325.67 325.39C318.957 329.094 296.736 330.945 306.574 310.691L310.277 278.169L298.588 290.438L298.009 281.873C298.009 281.873 291.296 291.711 281.459 294.836L278.334 277.012C278.334 277.012 268.496 287.428 259.237 292.405L254.955 313.932C254.955 313.932 260.973 323.075 255.418 326.084C249.863 329.094 238.983 329.325 233.428 324.927C227.873 320.529 237.71 310.807 237.71 310.807C237.71 310.807 227.178 299.697 223.59 285.577L218.729 299.118C218.729 299.118 211.322 291.132 208.892 280.716C208.892 280.716 141.301 292.984 92.6919 257.337C92.6919 257.337 89.6828 264.165 81.5812 277.012C83.433 284.419 106.812 313.238 110.515 328.631H81.6969V328.399Z" fill="white"/>
</mask>
<g mask="url(#mask3_225_5356)">
<path opacity="0.65" d="M158.43 63.7089C158.43 63.7089 252.871 14.0578 261.088 15.331C269.305 16.6041 331.34 57.3434 331.34 57.3434L288.865 -27.8389L160.281 -8.04787L158.43 63.7089Z" fill="#C79E8A"/>
</g>
<mask id="mask4_225_5356" style="mask-type:luminance" maskUnits="userSpaceOnUse" x="50" y="1" width="323" height="328">
<path d="M81.6969 328.399C81.6969 328.399 76.836 292.174 50.9109 265.67C50.9109 265.67 66.3039 230.023 66.3039 209.075C66.3039 188.126 66.3039 143.336 66.3039 136.276C66.3039 129.216 238.405 0.632632 260.51 1.67426C282.616 2.60016 354.604 85.5834 361.317 100.398C368.03 115.096 373.006 196.922 372.428 216.597C371.849 236.273 325.091 308.145 325.091 308.145C325.091 308.145 332.499 321.686 325.67 325.39C318.957 329.094 296.736 330.945 306.574 310.691L310.277 278.169L298.588 290.438L298.009 281.873C298.009 281.873 291.296 291.711 281.459 294.836L278.334 277.012C278.334 277.012 268.496 287.428 259.237 292.405L254.955 313.932C254.955 313.932 260.973 323.075 255.418 326.084C249.863 329.094 238.983 329.325 233.428 324.927C227.873 320.529 237.71 310.807 237.71 310.807C237.71 310.807 227.178 299.697 223.59 285.577L218.729 299.118C218.729 299.118 211.322 291.132 208.892 280.716C208.892 280.716 141.301 292.984 92.6919 257.337C92.6919 257.337 89.6828 264.165 81.5812 277.012C83.433 284.419 106.812 313.238 110.515 328.631H81.6969V328.399Z" fill="white"/>
</mask>
<g mask="url(#mask4_225_5356)">
<path opacity="0.65" d="M114.797 95.7689C114.797 95.7689 74.8673 133.383 74.8673 141.138C74.8673 148.892 77.645 195.65 64.5667 224.005C51.4885 252.361 -4.06519 231.412 -4.06519 231.412L40.6092 77.0195L114.797 95.7689Z" fill="#C79E8A"/>
</g>
<mask id="mask5_225_5356" style="mask-type:luminance" maskUnits="userSpaceOnUse" x="50" y="1" width="323" height="328">
<path d="M81.6969 328.399C81.6969 328.399 76.836 292.174 50.9109 265.67C50.9109 265.67 66.3039 230.023 66.3039 209.075C66.3039 188.126 66.3039 143.336 66.3039 136.276C66.3039 129.216 238.405 0.632632 260.51 1.67426C282.616 2.60016 354.604 85.5834 361.317 100.398C368.03 115.096 373.006 196.922 372.428 216.597C371.849 236.273 325.091 308.145 325.091 308.145C325.091 308.145 332.499 321.686 325.67 325.39C318.957 329.094 296.736 330.945 306.574 310.691L310.277 278.169L298.588 290.438L298.009 281.873C298.009 281.873 291.296 291.711 281.459 294.836L278.334 277.012C278.334 277.012 268.496 287.428 259.237 292.405L254.955 313.932C254.955 313.932 260.973 323.075 255.418 326.084C249.863 329.094 238.983 329.325 233.428 324.927C227.873 320.529 237.71 310.807 237.71 310.807C237.71 310.807 227.178 299.697 223.59 285.577L218.729 299.118C218.729 299.118 211.322 291.132 208.892 280.716C208.892 280.716 141.301 292.984 92.6919 257.337C92.6919 257.337 89.6828 264.165 81.5812 277.012C83.433 284.419 106.812 313.238 110.515 328.631H81.6969V328.399Z" fill="white"/>
</mask>
<g mask="url(#mask5_225_5356)">
<path opacity="0.48" d="M305.648 344.834C339.717 344.834 367.335 308.252 367.335 263.124C367.335 217.997 339.717 181.414 305.648 181.414C271.578 181.414 243.96 217.997 243.96 263.124C243.96 308.252 271.578 344.834 305.648 344.834Z" fill="#340609"/>
</g>
<path d="M81.6969 328.399C81.6969 328.399 76.836 292.174 50.9109 265.67C50.9109 265.67 66.3039 230.023 66.3039 209.075C66.3039 188.126 66.3039 143.336 66.3039 136.276C66.3039 129.216 238.405 0.632632 260.51 1.67426C282.616 2.60016 354.604 85.5834 361.317 100.398C368.03 115.096 373.006 196.922 372.428 216.597C371.849 236.273 325.091 308.145 325.091 308.145C325.091 308.145 332.499 321.686 325.67 325.39C318.957 329.094 296.736 330.945 306.574 310.691L310.277 278.169L298.588 290.438L298.009 281.873C298.009 281.873 291.296 291.711 281.459 294.836L278.334 277.012C278.334 277.012 268.496 287.428 259.237 292.405L254.955 313.932C254.955 313.932 260.973 323.075 255.418 326.084C249.863 329.094 238.983 329.325 233.428 324.927C227.873 320.529 237.71 310.807 237.71 310.807C237.71 310.807 227.178 299.696 223.59 285.577L218.729 299.118C218.729 299.118 211.322 291.132 208.892 280.716C208.892 280.716 141.301 292.984 92.6919 257.337C92.6919 257.337 89.6828 264.165 81.5812 277.012C83.433 284.419 106.812 313.238 110.515 328.631H81.6969V328.399Z" stroke="#340609" stroke-width="1.4178" stroke-miterlimit="10"/>
<path d="M376.131 246.226C376.131 246.226 379.14 261.734 368.608 277.59L365.83 268.563C365.83 268.563 362.821 282.336 353.794 291.71C353.794 291.71 341.41 272.845 340.484 263.818L333.424 271.109C333.424 271.109 318.841 257.684 323.586 240.786C328.563 224.004 376.131 246.226 376.131 246.226Z" fill="#340609" stroke="#340609" stroke-width="0.3968" stroke-miterlimit="10"/>
<path d="M260.163 117.411C260.163 117.411 232.733 114.286 221.275 127.596C221.275 127.596 229.377 150.164 268.612 145.188L277.06 120.536L260.163 117.411Z" fill="#6F4038" stroke="#340609" stroke-width="1.4178" stroke-miterlimit="10"/>
<path d="M264.793 125.166C264.793 125.166 237.363 122.851 225.905 132.805C225.905 132.805 234.007 149.586 273.242 145.883L281.691 127.596L264.793 125.166Z" fill="#340609"/>
<path d="M395.112 121.346C395.112 121.346 422.542 118.221 434 131.531C434 131.531 425.898 154.1 386.664 149.123L378.215 124.471L395.112 121.346Z" fill="#6F4038" stroke="#340609" stroke-width="1.4178" stroke-miterlimit="10"/>
<path d="M390.483 129.1C390.483 129.1 417.913 126.786 429.371 136.739C429.371 136.739 421.269 153.521 382.034 149.817L373.585 131.531L390.483 129.1Z" fill="#340609"/>
<path d="M278.218 133.151C278.218 133.151 251.251 129.447 233.543 151.206H238.752C238.752 151.206 221.854 169.029 233.543 185.464L237.479 183.496C237.479 183.496 229.608 201.899 275.903 218.68L278.218 133.151Z" fill="#340609"/>
<path d="M271.737 98.1988C271.737 98.1988 252.756 96.4628 245.349 90.6759C237.826 84.8891 239.215 69.4961 237.595 69.4961C235.859 69.4961 223.706 97.2729 232.734 111.971C241.761 126.67 291.644 143.915 291.644 143.915L310.277 103.87L271.737 98.1988Z" fill="#EAE2CB"/>
<mask id="mask6_225_5356" style="mask-type:luminance" maskUnits="userSpaceOnUse" x="229" y="69" width="82" height="75">
<path d="M271.737 98.1988C271.737 98.1988 252.756 96.4628 245.349 90.6759C237.826 84.8891 239.215 69.4961 237.595 69.4961C235.859 69.4961 223.706 97.2729 232.734 111.971C241.761 126.67 291.644 143.915 291.644 143.915L310.277 103.87L271.737 98.1988Z" fill="white"/>
</mask>
<g mask="url(#mask6_225_5356)">
<path d="M232.618 68.1066C228.915 82.6894 228.799 101.67 254.493 107.804C280.186 113.938 301.019 117.179 301.019 117.179L303.102 92.6428L245.234 59.0791L232.618 68.1066Z" fill="#FFFEFF"/>
</g>
<path d="M271.737 98.1988C271.737 98.1988 252.756 96.4628 245.349 90.6759C237.826 84.8891 239.215 69.4961 237.595 69.4961C235.859 69.4961 223.706 97.2729 232.734 111.971C241.761 126.67 291.644 143.915 291.644 143.915L310.277 103.87L271.737 98.1988Z" stroke="#593921" stroke-width="1.5315" stroke-miterlimit="10"/>
<path d="M383.885 98.1988C383.885 98.1988 402.866 96.4628 410.273 90.6759C417.796 84.8891 416.407 69.4961 418.028 69.4961C419.764 69.4961 431.916 97.2729 422.889 111.971C413.861 126.67 363.979 143.915 363.979 143.915L345.461 103.754L383.885 98.1988Z" fill="#EAE2CB"/>
<mask id="mask7_225_5356" style="mask-type:luminance" maskUnits="userSpaceOnUse" x="345" y="69" width="82" height="75">
<path d="M383.885 98.1988C383.885 98.1988 402.866 96.4628 410.273 90.6759C417.796 84.8891 416.407 69.4961 418.028 69.4961C419.764 69.4961 431.916 97.2729 422.889 111.971C413.861 126.67 363.979 143.915 363.979 143.915L345.461 103.754L383.885 98.1988Z" fill="white"/>
</mask>
<g mask="url(#mask7_225_5356)">
<path d="M423.005 68.1066C426.708 82.6894 426.824 101.67 401.13 107.804C375.437 113.938 354.604 117.179 354.604 117.179L352.521 92.6428L410.389 59.0791L423.005 68.1066Z" fill="#FFFEFF"/>
</g>
<path d="M383.885 98.1988C383.885 98.1988 402.866 96.4628 410.273 90.6759C417.796 84.8891 416.407 69.4961 418.028 69.4961C419.764 69.4961 431.916 97.2729 422.889 111.971C413.861 126.67 363.979 143.915 363.979 143.915L345.461 103.754L383.885 98.1988Z" stroke="#593921" stroke-width="1.5315" stroke-miterlimit="10"/>
<path d="M380.298 141.369C380.298 141.369 402.288 138.012 416.755 157.687H412.473C412.473 157.687 426.246 173.891 416.755 188.705L413.63 186.969C413.63 186.969 420.112 203.635 382.266 218.796L380.298 141.369Z" fill="#340609"/>
<path d="M385.738 158.497C385.738 158.497 393.492 152.595 393.492 141.715C393.492 130.952 382.381 122.735 382.381 122.735C382.381 122.735 395.228 84.8886 358.192 67.6439V73.1992C358.192 73.1992 338.98 61.1626 331.457 57.2275L336.318 67.2967C336.318 67.2967 317.684 59.5423 303.217 57.2275L307.268 67.6439L287.593 61.7413L292.801 69.9586C292.801 69.9586 277.524 69.9586 265.603 68.454C265.603 68.454 267.107 76.2084 273.01 82.5739L259.469 94.7263C259.469 94.7263 285.162 99.24 286.435 114.517C287.246 124.934 278.218 141.252 278.218 141.252C278.218 141.252 239.793 150.859 252.062 186.158L264.445 181.066C264.445 181.066 257.385 229.675 309.814 229.675C312.129 244.837 334.003 240.323 336.665 255.716C336.665 255.716 371.849 249.814 379.256 214.514C379.256 214.514 382.96 219.722 380.414 226.088C380.414 226.088 408.075 217.176 402.404 184.422L409.695 188.82C409.695 188.936 406.57 159.192 385.738 158.497Z" fill="#6F4038"/>
<mask id="mask8_225_5356" style="mask-type:luminance" maskUnits="userSpaceOnUse" x="249" y="57" width="161" height="199">
<path d="M385.738 158.497C385.738 158.497 393.492 152.595 393.492 141.715C393.492 130.952 382.381 122.735 382.381 122.735C382.381 122.735 395.228 84.8886 358.192 67.6439V73.1992C358.192 73.1992 338.98 61.1626 331.457 57.2275L336.318 67.2967C336.318 67.2967 317.684 59.5423 303.217 57.2275L307.268 67.6439L287.593 61.7413L292.801 69.9586C292.801 69.9586 277.524 69.9586 265.603 68.454C265.603 68.454 267.107 76.2084 273.01 82.5739L259.469 94.7263C259.469 94.7263 285.162 99.24 286.435 114.517C287.246 124.934 278.218 141.252 278.218 141.252C278.218 141.252 239.793 150.859 252.062 186.158L264.445 181.066C264.445 181.066 257.385 229.675 309.814 229.675C312.129 244.837 334.003 240.323 336.665 255.716C336.665 255.716 371.849 249.814 379.256 214.514C379.256 214.514 382.96 219.722 380.414 226.088C380.414 226.088 408.075 217.176 402.404 184.422L409.695 188.82C409.695 188.936 406.57 159.192 385.738 158.497Z" fill="white"/>
</mask>
<g mask="url(#mask8_225_5356)">
<path d="M259.469 94.8425C259.469 94.8425 293.959 99.1248 306.227 127.943L311.667 115.907C311.667 115.907 317.685 127.712 326.018 133.962L328.564 127.249L340.948 141.6C340.948 141.6 352.174 130.605 355.299 121.23L361.781 129.216L367.915 112.55C367.915 112.55 376.595 123.892 372.544 133.267C372.544 133.267 377.521 132.804 382.382 122.735C387.243 112.55 385.159 70.7693 385.159 70.7693L330.763 41.1406L241.299 58.2697L259.469 94.8425Z" fill="#340609"/>
<mask id="mask9_225_5356" style="mask-type:luminance" maskUnits="userSpaceOnUse" x="241" y="41" width="145" height="101">
<path d="M259.47 94.8425C259.47 94.8425 293.959 99.1248 306.227 127.943L311.667 115.907C311.667 115.907 317.685 127.712 326.018 133.962L328.564 127.249L340.948 141.6C340.948 141.6 352.175 130.605 355.3 121.23L361.781 129.216L367.915 112.55C367.915 112.55 376.595 123.892 372.544 133.267C372.544 133.267 377.521 132.804 382.382 122.735C387.243 112.55 385.16 70.7693 385.16 70.7693L330.763 41.1406L241.299 58.2697L259.47 94.8425Z" fill="white"/>
</mask>
<g mask="url(#mask9_225_5356)">
<path opacity="0.65" d="M384.349 111.623C384.349 111.623 375.785 91.4846 359.35 83.383V94.841C359.35 94.841 340.832 81.9942 325.208 77.3647L329.721 88.3597C329.721 88.3597 289.329 65.9068 250.673 77.1333C212.133 88.3597 235.512 29.5654 235.512 29.5654L374.396 33.269L396.617 61.7403L384.349 111.623Z" fill="#C79E8A"/>
</g>
</g>
<mask id="mask10_225_5356" style="mask-type:luminance" maskUnits="userSpaceOnUse" x="249" y="57" width="161" height="199">
<path d="M385.738 158.497C385.738 158.497 393.492 152.595 393.492 141.715C393.492 130.952 382.381 122.735 382.381 122.735C382.381 122.735 395.228 84.8886 358.192 67.6439V73.1992C358.192 73.1992 338.98 61.1626 331.457 57.2275L336.318 67.2967C336.318 67.2967 317.684 59.5423 303.217 57.2275L307.268 67.6439L287.593 61.7413L292.801 69.9586C292.801 69.9586 277.524 69.9586 265.603 68.454C265.603 68.454 267.107 76.2084 273.01 82.5739L259.469 94.7263C259.469 94.7263 285.162 99.24 286.435 114.517C287.246 124.934 278.218 141.252 278.218 141.252C278.218 141.252 239.793 150.859 252.062 186.158L264.445 181.066C264.445 181.066 257.385 229.675 309.814 229.675C312.129 244.837 334.003 240.323 336.665 255.716C336.665 255.716 371.849 249.814 379.256 214.514C379.256 214.514 382.96 219.722 380.414 226.088C380.414 226.088 408.075 217.176 402.404 184.422L409.695 188.82C409.695 188.936 406.57 159.192 385.738 158.497Z" fill="white"/>
</mask>
<g mask="url(#mask10_225_5356)">
<path opacity="0.48" d="M329.49 206.528C329.49 206.528 300.092 201.436 286.32 179.909L284.699 199.005C284.699 199.005 270.811 181.066 273.126 166.715C273.126 166.715 243.96 174.006 249.631 203.172C255.302 232.338 284.468 268.563 284.468 268.563H325.207L329.49 206.528Z" fill="#340609"/>
</g>
<mask id="mask11_225_5356" style="mask-type:luminance" maskUnits="userSpaceOnUse" x="249" y="57" width="161" height="199">
<path d="M385.738 158.497C385.738 158.497 393.492 152.595 393.492 141.715C393.492 130.952 382.381 122.735 382.381 122.735C382.381 122.735 395.228 84.8886 358.192 67.6439V73.1992C358.192 73.1992 338.98 61.1626 331.457 57.2275L336.318 67.2967C336.318 67.2967 317.684 59.5423 303.217 57.2275L307.268 67.6439L287.593 61.7413L292.801 69.9586C292.801 69.9586 277.524 69.9586 265.603 68.454C265.603 68.454 267.107 76.2084 273.01 82.5739L259.469 94.7263C259.469 94.7263 285.162 99.24 286.435 114.517C287.246 124.934 278.218 141.252 278.218 141.252C278.218 141.252 239.793 150.859 252.062 186.158L264.445 181.066C264.445 181.066 257.385 229.675 309.814 229.675C312.129 244.837 334.003 240.323 336.665 255.716C336.665 255.716 371.849 249.814 379.256 214.514C379.256 214.514 382.96 219.722 380.414 226.088C380.414 226.088 408.075 217.176 402.404 184.422L409.695 188.82C409.695 188.936 406.57 159.192 385.738 158.497Z" fill="white"/>
</mask>
<g mask="url(#mask11_225_5356)">
<path opacity="0.48" d="M358.886 211.622C358.886 211.622 379.719 206.53 389.441 185.003L390.598 204.099C390.598 204.099 400.436 186.16 398.7 171.809C398.7 171.809 419.301 179.1 415.25 208.266C411.199 237.431 390.598 273.657 390.598 273.657H361.895L358.886 211.622Z" fill="#340609"/>
</g>
<path d="M385.738 158.497C385.738 158.497 393.492 152.595 393.492 141.715C393.492 130.952 382.381 122.735 382.381 122.735C382.381 122.735 395.228 84.8886 358.192 67.6439V73.1992C358.192 73.1992 338.98 61.1626 331.457 57.2275L336.318 67.2967C336.318 67.2967 317.684 59.5423 303.217 57.2275L307.268 67.6439L287.593 61.7413L292.801 69.9586C292.801 69.9586 277.524 69.9586 265.603 68.454C265.603 68.454 267.107 76.2084 273.01 82.5739L259.469 94.7263C259.469 94.7263 285.162 99.24 286.435 114.517C287.246 124.934 278.218 141.252 278.218 141.252C278.218 141.252 239.793 150.859 252.062 186.158L264.445 181.066C264.445 181.066 257.385 229.675 309.814 229.675C312.129 244.837 334.003 240.323 336.665 255.716C336.665 255.716 371.849 249.814 379.256 214.514C379.256 214.514 382.96 219.722 380.414 226.088C380.414 226.088 408.075 217.176 402.404 184.422L409.695 188.82C409.695 188.936 406.57 159.192 385.738 158.497Z" stroke="#340609" stroke-width="1.4178" stroke-miterlimit="10"/>
<path d="M383.771 146.344C383.771 146.344 390.599 162.663 373.586 167.987C355.531 173.542 349.513 154.908 349.513 154.908L383.771 146.344Z" fill="#340609"/>
<path d="M378.215 147.387C378.215 147.387 382.729 158.035 371.155 161.622C358.887 165.442 355.299 153.984 355.299 153.984L378.215 147.387Z" fill="#FBC600"/>
<mask id="mask12_225_5356" style="mask-type:luminance" maskUnits="userSpaceOnUse" x="355" y="147" width="25" height="16">
<path d="M378.215 147.388C378.215 147.388 382.729 158.035 371.155 161.623C358.887 165.443 355.299 153.985 355.299 153.985L378.215 147.388Z" fill="white"/>
</mask>
<g mask="url(#mask12_225_5356)">
<path d="M361.897 157.919C362.707 160.002 366.526 160.465 370.346 158.96C374.165 157.456 376.595 154.447 375.785 152.363C374.975 150.28 371.156 149.817 367.336 151.322C363.517 152.826 361.087 155.836 361.897 157.919Z" fill="#F9EC00"/>
</g>
<path d="M378.215 147.387C378.215 147.387 382.729 158.035 371.155 161.622C358.887 165.442 355.299 153.984 355.299 153.984L378.215 147.387Z" stroke="#593921" stroke-width="1.0705" stroke-miterlimit="10"/>
<path d="M368.031 151.667C368.031 151.667 369.767 155.718 365.369 156.991C360.739 158.38 359.351 154.097 359.351 154.097L368.031 151.667Z" fill="#340609"/>
<path d="M345.346 155.255L387.359 143.797C387.359 143.797 376.016 155.255 345.346 155.255Z" fill="#340609"/>
<path d="M365.484 155.834C365.716 156.412 366.989 156.412 368.262 155.949C369.535 155.371 370.461 154.561 370.23 153.982C369.998 153.403 368.725 153.403 367.452 153.866C366.179 154.329 365.253 155.255 365.484 155.834Z" fill="#E0ECF8"/>
<path d="M337.475 156.068C343.493 149.702 349.743 149.471 356.34 154.91C356.34 154.91 360.16 169.378 374.164 176.669C388.168 184.076 392.103 209.885 379.835 231.644C379.835 231.644 369.071 229.445 361.085 234.19C353.1 238.935 342.336 219.029 331.688 220.88C321.041 222.732 318.147 226.783 318.147 226.783C318.147 226.783 307.731 208.497 313.17 193.682C318.726 178.984 335.971 172.734 337.475 156.068Z" fill="#C79E8A"/>
<mask id="mask13_225_5356" style="mask-type:luminance" maskUnits="userSpaceOnUse" x="311" y="151" width="77" height="84">
<path d="M337.475 156.069C343.493 149.703 349.743 149.472 356.34 154.911C356.34 154.911 360.16 169.379 374.164 176.67C388.168 184.077 392.103 209.886 379.835 231.645C379.835 231.645 369.071 229.446 361.085 234.191C353.1 238.936 342.336 219.03 331.688 220.881C321.041 222.733 318.147 226.784 318.147 226.784C318.147 226.784 307.731 208.498 313.17 193.683C318.726 178.985 335.971 172.735 337.475 156.069Z" fill="white"/>
</mask>
<g mask="url(#mask13_225_5356)">
<path d="M362.127 148.082C362.127 148.082 347.081 162.433 364.326 183.729C379.719 202.826 356.456 235 356.456 235L402.056 243.796L400.436 162.433L362.127 148.082Z" fill="#A17262"/>
</g>
<mask id="mask14_225_5356" style="mask-type:luminance" maskUnits="userSpaceOnUse" x="311" y="151" width="77" height="84">
<path d="M337.475 156.069C343.493 149.703 349.743 149.472 356.34 154.911C356.34 154.911 360.16 169.379 374.164 176.67C388.168 184.077 392.103 209.886 379.835 231.645C379.835 231.645 369.071 229.446 361.085 234.191C353.1 238.936 342.336 219.03 331.688 220.881C321.041 222.733 318.147 226.784 318.147 226.784C318.147 226.784 307.731 208.498 313.17 193.683C318.726 178.985 335.971 172.735 337.475 156.069Z" fill="white"/>
</mask>
<g mask="url(#mask14_225_5356)">
<path opacity="0.65" d="M332.846 148.082C332.846 148.082 347.891 162.433 330.647 183.729C315.254 202.826 338.517 235 338.517 235L292.916 243.796L294.537 162.433L332.846 148.082Z" fill="#C79E8A"/>
</g>
<path d="M337.475 156.068C343.493 149.702 349.743 149.471 356.34 154.91C356.34 154.91 360.16 169.378 374.164 176.669C388.168 184.076 392.103 209.885 379.835 231.644C379.835 231.644 369.071 229.445 361.085 234.19C353.1 238.935 342.336 219.029 331.688 220.88C321.041 222.732 318.147 226.783 318.147 226.783C318.147 226.783 307.731 208.497 313.17 193.682C318.726 178.984 335.971 172.734 337.475 156.068Z" stroke="#340609" stroke-width="1.4178" stroke-miterlimit="10"/>
<path d="M375.205 239.629C375.205 239.629 381.339 258.147 355.993 259.999C330.762 261.967 323.47 240.787 323.47 240.787L359.117 228.519L375.205 239.629Z" fill="#333A54" stroke="#1B2235" stroke-width="1.9358" stroke-miterlimit="10"/>
<path d="M354.257 224.119C345.113 224.35 327.521 208.379 315.138 216.828C302.869 225.392 307.73 241.479 318.494 245.299C329.258 249.234 337.822 238.355 355.183 237.081C372.543 235.808 371.038 241.132 375.436 240.206C379.95 239.28 392.334 225.971 386.084 217.985C377.867 207.684 363.631 223.887 354.257 224.119Z" fill="#727FA1"/>
<mask id="mask15_225_5356" style="mask-type:luminance" maskUnits="userSpaceOnUse" x="307" y="214" width="81" height="33">
<path d="M354.256 224.119C345.113 224.35 327.521 208.379 315.137 216.828C302.869 225.392 307.73 241.479 318.494 245.299C329.257 249.234 337.822 238.355 355.182 237.081C372.543 235.808 371.038 241.132 375.436 240.206C379.95 239.28 392.334 225.971 386.084 217.985C377.867 207.684 363.631 223.887 354.256 224.119Z" fill="white"/>
</mask>
<g mask="url(#mask15_225_5356)">
<path d="M310.161 221.921C309.814 229.791 316.063 242.985 332.035 236.041C348.007 229.097 363.631 227.476 370.807 232.106C377.983 236.735 386.663 234.421 390.945 230.254C395.227 226.203 393.26 244.374 393.26 244.374L388.978 253.17L290.949 247.036L303.101 216.019L310.161 221.921Z" fill="#333A54"/>
</g>
<path d="M354.257 224.119C345.113 224.35 327.521 208.379 315.138 216.828C302.869 225.392 307.73 241.479 318.494 245.299C329.258 249.234 337.822 238.355 355.183 237.081C372.543 235.808 371.038 241.132 375.436 240.206C379.95 239.28 392.334 225.971 386.084 217.985C377.867 207.684 363.631 223.887 354.257 224.119Z" stroke="#1B2235" stroke-width="1.9358" stroke-miterlimit="10"/>
<path d="M322.083 226.665C320.578 228.864 322.661 232.799 326.828 235.461C330.879 238.123 335.508 238.586 337.013 236.387C338.517 234.188 336.434 230.253 332.267 227.591C328.101 224.813 323.587 224.466 322.083 226.665Z" fill="#727FA1"/>
<mask id="mask16_225_5356" style="mask-type:luminance" maskUnits="userSpaceOnUse" x="321" y="225" width="17" height="13">
<path d="M322.083 226.665C320.578 228.864 322.661 232.799 326.828 235.461C330.879 238.123 335.508 238.586 337.013 236.387C338.517 234.188 336.434 230.253 332.267 227.591C328.101 224.813 323.587 224.466 322.083 226.665Z" fill="white"/>
</mask>
<g mask="url(#mask16_225_5356)">
<path d="M324.86 224.236C323.355 226.435 325.439 230.37 329.605 233.032C333.656 235.694 338.285 236.157 339.79 233.958C341.294 231.759 339.211 227.824 335.045 225.162C330.878 222.5 326.364 222.037 324.86 224.236Z" fill="#333A54" stroke="#1B2235" stroke-width="1.5871" stroke-miterlimit="10"/>
</g>
<path d="M322.083 226.665C320.578 228.864 322.661 232.799 326.828 235.461C330.879 238.123 335.508 238.586 337.013 236.387C338.517 234.188 336.434 230.253 332.267 227.591C328.101 224.813 323.587 224.466 322.083 226.665Z" stroke="#1B2235" stroke-width="1.9358" stroke-miterlimit="10"/>
<path d="M380.993 222.152C382.844 224.12 381.224 228.286 377.636 231.527C373.933 234.768 369.535 235.925 367.799 233.957C365.947 231.99 367.567 227.823 371.155 224.583C374.859 221.342 379.257 220.301 380.993 222.152Z" fill="#727FA1"/>
<mask id="mask17_225_5356" style="mask-type:luminance" maskUnits="userSpaceOnUse" x="367" y="221" width="15" height="14">
<path d="M380.993 222.152C382.844 224.12 381.224 228.286 377.636 231.527C373.933 234.768 369.535 235.925 367.799 233.957C365.947 231.99 367.567 227.823 371.155 224.583C374.859 221.342 379.257 220.301 380.993 222.152Z" fill="white"/>
</mask>
<g mask="url(#mask17_225_5356)">
<path d="M377.867 220.301C379.719 222.269 378.098 226.435 374.51 229.676C370.807 232.916 366.409 234.074 364.673 232.106C362.821 230.139 364.441 225.972 368.029 222.732C371.733 219.375 376.131 218.334 377.867 220.301Z" fill="#333A54" stroke="#1B2235" stroke-width="1.5871" stroke-miterlimit="10"/>
</g>
<path d="M380.993 222.152C382.844 224.12 381.224 228.286 377.636 231.527C373.933 234.768 369.535 235.925 367.799 233.957C365.947 231.99 367.567 227.823 371.155 224.583C374.859 221.342 379.257 220.301 380.993 222.152Z" stroke="#1B2235" stroke-width="1.9358" stroke-miterlimit="10"/>
<path d="M295.462 143.683C295.462 143.683 288.865 163.011 309.814 167.987C331.919 173.311 340.947 152.826 340.947 152.826L295.462 143.683Z" fill="#340609"/>
<path d="M302.291 144.493C302.291 144.493 298.009 156.993 312.129 160.465C327.059 164.053 330.299 150.743 330.299 150.743L302.291 144.493Z" fill="#FBC600"/>
<mask id="mask18_225_5356" style="mask-type:luminance" maskUnits="userSpaceOnUse" x="301" y="144" width="30" height="18">
<path d="M302.291 144.494C302.291 144.494 298.009 156.994 312.129 160.466C327.059 164.054 330.299 150.744 330.299 150.744L302.291 144.494Z" fill="white"/>
</mask>
<g mask="url(#mask18_225_5356)">
<path d="M322.777 155.604C321.967 158.034 317.569 158.845 312.823 157.34C308.078 155.835 304.953 152.595 305.763 150.164C306.574 147.734 310.972 146.924 315.717 148.428C320.346 149.933 323.587 153.058 322.777 155.604Z" fill="#F9EC00"/>
</g>
<path d="M302.291 144.493C302.291 144.493 298.009 156.993 312.129 160.465C327.059 164.053 330.299 150.743 330.299 150.743L302.291 144.493Z" stroke="#593921" stroke-width="1.2574" stroke-miterlimit="10"/>
<path d="M308.656 148.081C308.656 148.081 307.036 152.826 312.36 154.099C318.031 155.488 319.188 150.396 319.188 150.396L308.656 148.081Z" fill="#340609"/>
<path d="M343.146 152.826L291.064 140.905C291.064 140.905 305.763 152.016 343.146 152.826Z" fill="#340609"/>
<path d="M320.693 153.751C320.462 154.446 318.957 154.561 317.337 154.098C315.717 153.52 314.559 152.594 314.791 151.899C315.022 151.205 316.527 151.089 318.147 151.552C319.767 152.131 320.925 153.057 320.693 153.751Z" fill="#E0ECF8"/>
<path d="M141.07 154.678C144.31 159.654 146.857 165.326 148.361 171.112C149.518 177.015 150.097 183.149 149.866 189.167C149.518 202.361 145.12 215.092 138.176 226.319L136.903 223.541L133.315 215.44L136.324 215.092C134.241 223.541 129.959 231.527 123.709 237.545L121.394 239.744L121.047 236.504L120.237 228.749L123.015 229.559C121.973 230.833 120.931 232.106 119.774 233.147C116.418 236.504 112.714 240.207 109.242 243.448C113.64 236.967 117.807 230.601 123.015 224.583C123.246 227.013 123.941 233.61 124.172 236.156L121.51 235.115C127.297 229.559 131.348 222.037 133.2 214.398L134.241 209.768L136.209 214.051L139.797 222.152L137.019 222.037C145.931 207.106 149.056 188.82 145.236 171.807C144.31 166.02 143.153 160.233 141.07 154.678Z" fill="#A17262"/>
<path d="M273.01 242.177C275.209 254.098 271.39 266.713 264.793 276.666C268.728 265.44 272.316 254.098 273.01 242.177Z" fill="#340609"/>
<path d="M218.961 337.658C218.961 337.658 226.137 323.423 244.539 323.423C262.941 323.423 268.843 337.658 268.843 337.658H243.844L242.456 330.483L235.164 337.658H218.961Z" fill="#340609" stroke="#340609" stroke-width="0.3968" stroke-miterlimit="10"/>
<path d="M342.104 337.658C342.104 337.658 334.929 323.423 316.526 323.423C298.124 323.423 292.222 337.658 292.222 337.658H317.221L318.61 330.483L325.901 337.658H342.104Z" fill="#340609" stroke="#340609" stroke-width="0.3968" stroke-miterlimit="10"/>
<path d="M119.311 337.658C119.311 337.658 112.136 323.423 93.7334 323.423C75.3313 323.423 69.4287 337.658 69.4287 337.658H94.3121L95.701 330.483L102.992 337.658H119.311Z" fill="#340609" stroke="#340609" stroke-width="0.3968" stroke-miterlimit="10"/>
<path d="M104.613 243.795C104.613 243.795 112.02 259.304 106.002 276.201C106.002 276.201 102.761 265.901 97.4375 263.123C97.4375 263.123 97.9004 268.794 93.6182 277.474C93.6182 277.474 88.1785 266.132 80.5399 257.105" fill="#A17262"/>
<path d="M104.613 243.795C109.705 253.864 110.631 265.901 107.043 276.664L106.002 280.136L104.844 276.664C103.108 272.15 101.025 266.942 96.8583 264.396L98.5944 263.239C98.5944 268.563 96.7426 273.539 94.4279 278.169L93.3862 280.021C90.6085 273.886 87.3679 267.984 83.7801 262.313C82.7384 260.577 81.5811 258.956 80.4237 257.336C86.0948 263.239 90.6086 270.067 94.4279 277.243H92.5761C93.6177 275.044 94.5436 272.729 95.1223 270.414C95.9324 267.521 96.2796 264.28 96.0482 261.271L97.9 262.197C102.992 265.09 105.191 270.762 107.043 275.97H104.844C108.548 265.553 108.085 254.095 104.613 243.795Z" fill="#340609"/>
</svg>
