<svg width="469" height="398" viewBox="0 0 469 398" fill="none" xmlns="http://www.w3.org/2000/svg">
<g clip-path="url(#clip0_211_10850)">
<path d="M66.1547 157.694C66.1547 157.694 61.4217 151.24 58.0871 148.981C54.9676 146.938 49.8043 147.475 48.621 150.81C50.127 144.356 44.5334 137.041 37.8641 136.934C30.8721 136.826 24.9559 144.571 26.8921 151.24C23.8802 149.196 19.685 149.089 16.4579 150.918C13.2309 152.746 11.1871 156.403 11.4022 160.061C9.03568 160.383 5.1632 163.073 0.968018 166.515L86.5928 164.041C85.0868 158.77 66.1547 157.694 66.1547 157.694Z" fill="#E6E6E6"/>
<path d="M421.455 212.016C421.455 212.016 417.69 206.853 415.108 205.132C412.634 203.518 408.439 203.948 407.578 206.637C408.762 201.474 404.351 195.666 398.973 195.558C393.379 195.45 388.754 201.689 390.26 206.96C387.786 205.347 384.451 205.239 381.977 206.637C379.395 208.036 377.782 210.94 377.889 213.844C376.061 214.06 372.941 216.211 369.607 218.9L437.913 216.964C436.514 212.876 421.455 212.016 421.455 212.016Z" fill="#E6E6E6"/>
<path d="M436.837 304.201C436.837 304.201 433.072 299.037 430.383 297.209C427.909 295.595 423.714 296.025 422.853 298.715C424.036 293.551 419.626 287.635 414.248 287.635C408.654 287.528 403.921 293.767 405.535 299.145C403.061 297.531 399.726 297.424 397.144 298.822C394.563 300.221 392.949 303.125 393.057 306.137C391.228 306.352 388.108 308.611 384.666 311.3H453.08C452.004 307.105 436.837 304.201 436.837 304.201Z" fill="#F0F0F0"/>
<path d="M456.737 87.8828C456.737 87.8828 454.155 84.333 452.326 83.0422C450.605 81.9666 447.701 82.2893 447.163 84.0103C448.024 80.4606 444.904 76.373 441.247 76.373C437.374 76.373 434.147 80.5682 435.223 84.333C433.502 83.2574 431.243 83.1498 429.414 84.1179C427.693 85.086 426.51 87.1298 426.618 89.1736C425.327 89.3887 423.175 90.8947 420.809 92.7233L468.139 91.4325C467.279 88.5282 456.737 87.8828 456.737 87.8828Z" fill="#F0F0F0"/>
<path d="M91.4335 327.973C91.4335 327.973 84.9793 319.045 80.3539 316.033C76.1587 313.236 68.9516 313.989 67.4456 318.507C69.4894 309.579 61.852 299.575 52.6011 299.468C43.0275 299.36 34.8523 310.009 37.5415 319.26C33.3463 316.463 27.5376 316.248 23.2348 318.722C18.8245 321.196 16.0277 326.252 16.2429 331.2C13.0158 331.63 9.57361 331.63 3.76489 336.256L119.724 336.686C117.573 329.479 91.4335 327.973 91.4335 327.973Z" fill="#F0F0F0"/>
<path d="M78.8479 28.0751C78.8479 28.0751 75.9436 24.0951 73.8998 22.6967C71.9635 21.4059 68.7365 21.8362 68.0911 23.7724C68.9516 19.7924 65.617 15.2746 61.4218 15.167C57.119 15.167 53.4617 19.9 54.645 23.9875C52.7087 22.6967 50.1271 22.6967 48.1908 23.7724C46.2546 24.8481 44.9638 27.107 45.0713 29.3659C43.6729 29.581 41.1989 31.1946 38.6172 33.3459L91.4335 31.84C90.5729 28.7205 78.8479 28.0751 78.8479 28.0751Z" fill="#E6E6E6"/>
<path d="M73.47 254.936C73.47 254.936 78.4181 248.266 83.0436 249.665C87.669 251.063 89.6053 251.278 89.6053 251.278L87.2388 247.944C87.2388 247.944 89.0674 249.127 90.2507 248.589C91.434 248.051 91.8642 246.007 91.8642 246.007L93.5853 249.665C93.5853 249.665 95.6291 243.318 98.8562 242.458C102.191 241.597 107.677 242.458 107.677 242.458C107.677 242.458 102.406 243.103 103.051 245.9C103.051 245.9 98.5335 245.577 99.1789 249.88C99.1789 249.88 95.7367 249.987 96.2746 253.752L94.7686 258.378L89.2826 255.796C89.2826 255.796 87.2388 253.107 83.7966 255.258C83.7966 255.258 81.7528 252.139 78.7408 254.72C78.7408 254.613 77.0197 252.784 73.47 254.936Z" fill="#01203C"/>
<path d="M363.367 255.58C363.367 255.58 371.758 255.042 373.586 259.453C375.415 263.863 376.598 265.476 376.598 265.476L377.567 261.604C377.567 261.604 377.889 263.755 378.965 264.293C380.148 264.831 381.977 263.863 381.977 263.863L380.363 267.52C380.363 267.52 386.495 264.939 389.292 266.875C392.088 268.811 394.993 273.652 394.993 273.652C394.993 273.652 391.12 269.994 389.399 272.361C389.399 272.361 386.71 268.703 383.913 271.931C383.913 271.931 381.654 269.349 379.18 272.253L374.662 274.082L373.049 268.166C373.049 268.166 373.802 264.939 369.929 263.648C369.929 263.648 371.005 260.098 367.025 259.453C367.025 259.453 367.347 256.979 363.367 255.58Z" fill="#01203C"/>
<path d="M436.192 29.1508C436.192 29.1508 431.243 22.4816 426.618 23.88C421.992 25.2784 420.056 25.4935 420.056 25.4935L422.423 22.1589C422.423 22.1589 420.594 23.3422 419.411 22.8043C418.228 22.2665 417.797 20.2227 417.797 20.2227L416.076 23.88C416.076 23.88 414.032 17.5335 410.805 16.673C407.471 15.8124 401.985 16.673 401.985 16.673C401.985 16.673 407.256 17.3184 406.61 20.1152C406.61 20.1152 411.128 19.7925 410.483 24.0952C410.483 24.0952 413.925 24.2027 413.387 27.9676L414.893 32.593L420.379 30.0114C420.379 30.0114 422.423 27.3222 425.865 29.4735C425.865 29.4735 427.909 26.3541 430.921 28.9357C430.813 28.8281 432.534 26.9995 436.192 29.1508Z" fill="#01203C"/>
<path d="M350.137 394.559L353.471 382.834L356.591 360.029V348.735L350.029 334.321C350.029 334.321 338.304 325.5 337.659 325.07C337.013 324.64 333.141 316.68 333.141 316.68L322.491 312.592L320.232 307.214H322.491L324.75 311.086L332.388 314.206V310.333L333.786 310.548L338.412 320.014L339.38 310.333L344.113 302.266L345.941 303.879L342.069 311.086L341.639 321.413L341.854 324.102L350.244 330.663C350.244 330.663 346.372 322.596 347.125 322.596C347.77 322.596 347.77 322.596 347.77 322.596L353.901 331.201L357.774 323.564L361.431 310.871L363.69 311.086L362.077 317.863L370.467 314.206V316.68L362.615 320.337L355.192 336.365L360.356 348.412L360.571 358.846L367.348 344.217L370.467 335.181L364.873 330.018L366.487 327.974L370.575 332.062L373.049 327.114L375.523 328.189L371.22 343.572L381.869 330.018L389.722 325.285V328.942L383.806 332.277C383.806 332.277 362.184 361.105 362.83 360.89C363.475 360.675 372.511 355.727 372.511 355.727L381.116 351.639V354.543L374.124 357.878L385.849 362.611L383.59 364.44L372.296 360.137L363.905 364.655L363.475 378.854L372.511 394.451H350.137V394.559Z" fill="#263238"/>
<path d="M367.455 391.762C368.208 387.674 364.551 383.264 360.356 383.371C358.097 383.479 355.515 384.555 353.579 383.156C352.611 382.511 352.18 381.328 351.535 380.359C349.599 377.348 345.511 376.057 342.069 376.81C338.519 377.563 335.507 380.037 333.571 383.049C330.774 382.188 327.655 382.726 325.181 384.339C322.706 385.953 321.093 388.642 320.77 391.546C317.22 390.148 312.81 392.837 312.38 396.602H379.18C376.921 392.73 371.543 390.041 367.455 391.762Z" fill="#263238"/>
<path d="M96.5972 397.355L99.7167 386.383L104.235 353.36V342.818L99.394 329.695C99.394 329.695 87.4539 320.229 86.8085 319.799C86.163 319.369 83.1511 312.269 83.1511 312.269L73.6851 309.15L70.458 304.202H72.6094L74.7608 307.751L83.1511 310.441L81.9679 307.106L83.2587 307.321L87.5614 316.142L88.5296 307.106L92.9399 299.576L94.661 301.082L91.1112 307.859L89.4977 318.938L98.7486 326.145C98.7486 326.145 95.1988 318.616 95.8442 318.616C96.4897 318.616 96.4897 318.616 96.4897 318.616L102.191 326.576L105.741 319.476L109.075 307.751L111.227 307.966L109.721 314.313L117.466 310.978V312.377L109.29 316.464L103.159 331.524L108 342.818L108.215 352.607L114.561 338.946L117.466 330.556L112.195 325.715L113.055 324.532L118.003 328.082L120.693 323.349L122.091 323.994L114.991 343.464L127.9 325.715L134.569 324.209L135.214 326.36L129.191 327.866C129.191 327.866 109.613 354.758 110.258 354.543C110.904 354.328 119.294 349.703 119.294 349.703L127.254 345.938V348.627L120.693 351.746L131.665 356.157L129.513 357.878L118.972 353.898L111.227 358.093L109.183 383.156L117.573 397.678H96.5972V397.355Z" fill="#263238"/>
<path d="M104.235 348.949L97.5654 339.591L84.7648 336.041L82.8285 333.782L81.1074 334.428L83.6891 337.332L93.1551 340.236L88.4221 342.818L89.6054 344.324L96.3822 341.527L101.868 350.24C101.868 350.24 103.804 356.587 104.127 356.909C104.665 357.124 104.235 348.949 104.235 348.949Z" fill="#263238"/>
<path d="M172.648 392.084C173.508 387.673 169.528 383.048 165.118 383.156C162.644 383.263 159.955 384.339 158.018 382.94C157.05 382.187 156.513 381.004 155.867 380.036C153.716 376.809 149.521 375.518 145.756 376.271C141.991 377.024 138.871 379.606 136.827 382.833C133.923 381.972 130.588 382.51 128.007 384.231C125.425 385.952 123.704 388.749 123.274 391.869C119.509 390.47 114.883 393.267 114.453 397.247H185.126C182.652 393.159 176.951 390.255 172.648 392.084Z" fill="#263238"/>
<path d="M251.926 259.991C323.514 259.991 381.547 201.958 381.547 130.372C381.547 58.7853 323.514 0.75293 251.926 0.75293C180.339 0.75293 122.306 58.7853 122.306 130.372C122.306 201.958 180.339 259.991 251.926 259.991Z" fill="#014B6E"/>
<path opacity="0.2" d="M196.421 69.7041C185.664 69.7041 176.521 76.2657 172.756 85.6241C176.306 77.9868 184.051 72.716 193.086 72.716C205.457 72.716 215.568 82.7198 215.568 95.1976C215.568 107.568 205.564 117.679 193.086 117.679C184.158 117.679 176.413 112.408 172.756 104.771C176.521 114.129 185.664 120.691 196.421 120.691C210.513 120.691 221.915 109.289 221.915 95.1976C222.022 81.2138 210.62 69.7041 196.421 69.7041Z" fill="black"/>
<path opacity="0.2" d="M230.842 50.5566C224.819 50.5566 219.763 54.2139 217.611 59.4848C219.655 55.182 223.958 52.2777 228.906 52.2777C235.791 52.2777 241.492 57.8712 241.492 64.8631C241.492 71.7475 235.898 77.4485 228.906 77.4485C223.85 77.4485 219.548 74.5442 217.611 70.2415C219.763 75.5123 224.819 79.1696 230.842 79.1696C238.695 79.1696 245.149 72.8231 245.149 64.8631C245.149 57.0107 238.695 50.5566 230.842 50.5566Z" fill="black"/>
<path opacity="0.2" d="M318.619 112.73C302.161 112.73 288.177 122.842 282.368 137.148C287.854 125.531 299.687 117.356 313.456 117.356C332.495 117.356 347.878 132.738 347.878 151.778C347.878 170.817 332.495 186.199 313.456 186.199C299.687 186.199 287.854 178.132 282.368 166.407C288.177 180.713 302.161 190.825 318.619 190.825C340.24 190.825 357.774 173.291 357.774 151.67C357.774 130.049 340.24 112.73 318.619 112.73Z" fill="black"/>
<path opacity="0.5" d="M251.926 259.991C323.514 259.991 381.547 201.958 381.547 130.372C381.547 58.7853 323.514 0.75293 251.926 0.75293C180.339 0.75293 122.306 58.7853 122.306 130.372C122.306 201.958 180.339 259.991 251.926 259.991Z" fill="white"/>
<path d="M157.696 111.978C157.696 111.978 163.72 103.911 169.314 105.524C174.907 107.245 177.274 107.46 177.274 107.46L174.477 103.48C174.477 103.48 176.628 104.879 178.134 104.233C179.533 103.588 180.071 101.114 180.071 101.114L182.114 105.524C182.114 105.524 184.588 97.7792 188.569 96.8111C192.549 95.7354 199.218 96.8111 199.218 96.8111C199.218 96.8111 192.764 97.5641 193.624 100.899C193.624 100.899 188.246 100.468 188.999 105.632C188.999 105.632 184.911 105.739 185.557 110.257L183.728 115.958L177.059 112.839C177.059 112.839 174.585 109.612 170.389 112.193C170.389 112.193 167.915 108.428 164.15 111.548C164.043 111.548 161.999 109.396 157.696 111.978Z" fill="#263238"/>
<path d="M328.193 75.7276C328.193 75.7276 323.245 69.0584 318.62 70.4568C314.102 71.8552 312.058 72.0703 312.058 72.0703L314.424 68.7357C314.424 68.7357 312.596 69.919 311.412 69.3812C310.229 68.8433 309.799 66.7995 309.799 66.7995L308.078 70.3493C308.078 70.3493 306.034 64.0028 302.807 63.1422C299.472 62.2817 293.986 63.1422 293.986 63.1422C293.986 63.1422 299.257 63.7876 298.504 66.4768C298.504 66.4768 302.915 66.1541 302.269 70.3493C302.269 70.3493 305.604 70.4568 305.174 74.1141L306.679 78.7395L312.165 76.1579C312.165 76.1579 314.209 73.4687 317.651 75.6201C317.651 75.6201 319.695 72.5006 322.707 75.0822C322.922 75.4049 324.643 73.6839 328.193 75.7276Z" fill="#263238"/>
<path d="M237.62 30.0115C237.62 30.0115 229.875 27.1072 226.755 30.6569C223.636 34.3142 222.022 35.4974 222.022 35.4974L222.237 31.5174C222.237 31.5174 221.377 33.4537 220.086 33.6688C218.795 33.8839 217.397 32.378 217.397 32.378L217.935 36.358C217.935 36.358 212.879 32.0553 209.652 33.1309C206.425 34.2066 202.229 37.8639 202.229 37.8639C202.229 37.8639 207.07 35.605 207.931 38.2942C207.931 38.2942 211.48 35.605 213.202 39.585C213.202 39.585 216.106 37.8639 217.612 41.3061L221.377 44.4255L224.711 39.3699C224.711 39.3699 225.034 36.0353 229.122 35.9277C229.122 35.9277 229.122 32.2704 233.102 32.7007C232.994 32.4855 233.424 30.1191 237.62 30.0115Z" fill="#263238"/>
<path d="M289.467 137.149C333.678 132.631 390.581 131.34 435.007 133.061C432.426 124.133 399.94 123.38 399.94 123.38C399.94 123.38 392.195 111.225 386.601 107.568C381.008 103.91 371.219 105.201 370.251 111.87C373.801 100.576 364.12 87.2373 352.179 87.0221C340.347 86.9146 330.343 100.038 333.57 111.44C328.407 107.998 321.307 107.783 315.821 110.795C310.443 113.806 306.893 120.045 307.108 126.284C303.236 126.822 296.674 131.448 289.467 137.149Z" fill="#014B6E"/>
<g opacity="0.8">
<path d="M289.467 137.149C333.678 132.631 390.581 131.34 435.007 133.061C432.426 124.133 399.94 123.38 399.94 123.38C399.94 123.38 392.195 111.225 386.601 107.568C381.008 103.91 371.219 105.201 370.251 111.87C373.801 100.576 364.12 87.2373 352.179 87.0221C340.347 86.9146 330.343 100.038 333.57 111.44C328.407 107.998 321.307 107.783 315.821 110.795C310.443 113.806 306.893 120.045 307.108 126.284C303.236 126.822 296.674 131.448 289.467 137.149Z" fill="white"/>
</g>
<path d="M293.34 42.0587C317.005 39.6923 347.447 38.9393 371.219 39.7998C369.821 35.0668 352.395 34.6366 352.395 34.6366C352.395 34.6366 348.307 28.1825 345.295 26.1387C342.283 24.2025 337.12 24.8479 336.582 28.5052C338.519 22.4814 333.248 15.2744 326.901 15.2744C320.555 15.2744 315.176 22.2663 316.897 28.2901C314.1 26.4614 310.336 26.3539 307.431 27.9674C304.527 29.5809 302.698 32.9155 302.806 36.2501C300.762 36.5728 297.212 39.0468 293.34 42.0587Z" fill="#014B6E"/>
<g opacity="0.8">
<path d="M293.34 42.0587C317.005 39.6923 347.447 38.9393 371.219 39.7998C369.821 35.0668 352.395 34.6366 352.395 34.6366C352.395 34.6366 348.307 28.1825 345.295 26.1387C342.283 24.2025 337.12 24.8479 336.582 28.5052C338.519 22.4814 333.248 15.2744 326.901 15.2744C320.555 15.2744 315.176 22.2663 316.897 28.2901C314.1 26.4614 310.336 26.3539 307.431 27.9674C304.527 29.5809 302.698 32.9155 302.806 36.2501C300.762 36.5728 297.212 39.0468 293.34 42.0587Z" fill="white"/>
</g>
<path d="M67.5527 209.757C130.48 203.41 211.48 201.367 274.73 203.841C271.073 191.148 224.711 190.072 224.711 190.072C224.711 190.072 213.739 172.754 205.779 167.483C197.819 162.212 183.835 164.148 182.544 173.614C187.6 157.479 173.723 138.547 156.835 138.332C139.947 138.117 125.747 156.834 130.373 173.076C122.951 168.236 112.839 167.913 105.094 172.216C97.3493 176.518 92.4011 185.447 92.7238 194.267C87.0227 194.912 77.7718 201.582 67.5527 209.757Z" fill="#014B6E"/>
<g opacity="0.8">
<path d="M67.5527 209.757C130.48 203.41 211.48 201.367 274.73 203.841C271.073 191.148 224.711 190.072 224.711 190.072C224.711 190.072 213.739 172.754 205.779 167.483C197.819 162.212 183.835 164.148 182.544 173.614C187.6 157.479 173.723 138.547 156.835 138.332C139.947 138.117 125.747 156.834 130.373 173.076C122.951 168.236 112.839 167.913 105.094 172.216C97.3493 176.518 92.4011 185.447 92.7238 194.267C87.0227 194.912 77.7718 201.582 67.5527 209.757Z" fill="white"/>
</g>
<path d="M76.0507 82.7194C107.568 79.4923 148.229 78.5242 179.855 79.815C178.026 73.4685 155.006 72.0702 155.006 72.0702C155.006 72.0702 149.305 64.2177 145.325 61.5285C141.345 58.8394 134.353 59.915 133.708 64.648C136.182 56.5804 129.297 47.0069 120.799 46.8994C112.301 46.7918 105.202 56.1502 107.568 64.3253C103.911 61.8513 98.7477 61.7437 94.8752 63.895C91.0027 66.0464 88.5287 70.4567 88.6362 74.9745C85.8394 75.2972 81.214 78.6318 76.0507 82.7194Z" fill="#014B6E"/>
<g opacity="0.8">
<path d="M76.0507 82.7194C107.568 79.4923 148.229 78.5242 179.855 79.815C178.026 73.4685 155.006 72.0702 155.006 72.0702C155.006 72.0702 149.305 64.2177 145.325 61.5285C141.345 58.8394 134.353 59.915 133.708 64.648C136.182 56.5804 129.297 47.0069 120.799 46.8994C112.301 46.7918 105.202 56.1502 107.568 64.3253C103.911 61.8513 98.7477 61.7437 94.8752 63.895C91.0027 66.0464 88.5287 70.4567 88.6362 74.9745C85.8394 75.2972 81.214 78.6318 76.0507 82.7194Z" fill="white"/>
</g>
<path d="M340.347 136.395H344.758C339.164 127.144 332.387 96.2725 332.387 96.2725C332.387 96.2725 330.451 104.878 328.192 113.376C324.857 125.638 319.909 136.718 319.909 136.718H324.642V154.789H321.738V157.694L324.642 164.793V196.203L326.578 232.345L340.132 207.067V164.148L342.714 157.478V154.467H340.24V136.395H340.347Z" fill="#01203C"/>
<path opacity="0.2" d="M324.643 136.503H330.882L331.204 154.682L324.643 154.789V136.503Z" fill="black"/>
<path d="M336.152 140.16C336.044 140.16 334.538 140.913 334.538 143.387C334.538 145.861 334.538 150.917 334.538 150.917H337.55V143.28C337.658 143.28 337.658 140.806 336.152 140.16Z" fill="#014B6E"/>
<path d="M327.654 140.16C327.547 140.16 326.363 140.913 326.363 143.387C326.363 145.861 326.363 150.917 326.363 150.917H328.945V143.28C328.945 143.28 328.945 140.806 327.654 140.16Z" fill="#014B6E"/>
<path opacity="0.3" d="M321.738 154.789V157.694L342.822 157.586V154.574L321.738 154.789Z" fill="black"/>
<path opacity="0.4" d="M330.881 136.503H340.239H344.65C339.056 127.252 332.279 96.3799 332.279 96.3799C332.279 96.3799 330.451 133.06 330.881 136.503Z" fill="black"/>
<path opacity="0.3" d="M331.742 196.31L340.24 207.282V164.148L342.821 157.586V154.574H340.347V136.503H344.758C339.164 127.252 332.387 96.165 332.387 96.165C332.387 96.165 332.387 96.2726 332.28 96.4877L330.774 136.503L331.204 157.586V195.45L331.742 196.31Z" fill="black"/>
<path opacity="0.2" d="M340.132 164.255H331.311V157.586H342.821L340.132 164.255Z" fill="black"/>
<path d="M148.337 288.603H152.748C147.154 279.352 140.377 248.48 140.377 248.48C140.377 248.48 138.441 257.086 136.182 265.584C132.848 277.846 127.899 288.926 127.899 288.926H132.632V306.997H129.728V309.902L132.632 317.001V348.411L147.692 372.506L148.122 359.383V316.463L150.704 309.794V306.782H148.23V288.603H148.337Z" fill="#01203C"/>
<path opacity="0.2" d="M132.74 288.604H138.979L139.302 306.782L132.74 306.89V288.604Z" fill="black"/>
<path d="M144.142 292.368C144.034 292.368 142.528 293.121 142.528 295.595C142.528 298.069 142.528 303.125 142.528 303.125H145.54V295.488C145.648 295.488 145.648 292.906 144.142 292.368Z" fill="#014B6E"/>
<path d="M135.752 292.368C135.644 292.368 134.461 293.121 134.461 295.595C134.461 298.069 134.461 303.125 134.461 303.125H137.043V295.488C137.043 295.488 137.043 292.906 135.752 292.368Z" fill="#014B6E"/>
<path opacity="0.3" d="M129.836 306.997V309.794L150.812 309.687V306.675L129.836 306.997Z" fill="black"/>
<path opacity="0.4" d="M138.979 288.603H148.337H152.747C147.154 279.352 140.377 248.48 140.377 248.48C140.377 248.48 138.548 285.161 138.979 288.603Z" fill="black"/>
<path opacity="0.3" d="M139.732 348.411L148.23 359.383V316.248L150.812 309.687V306.675H148.337V288.603H152.748C147.154 279.353 140.377 248.266 140.377 248.266C140.377 248.266 140.377 248.373 140.27 248.588L138.764 288.603L139.194 309.687V347.443L139.732 348.411Z" fill="black"/>
<path opacity="0.2" d="M148.23 316.356H139.302V309.687H150.812L148.23 316.356Z" fill="black"/>
<path d="M331.204 212.877H342.284C328.3 189.642 311.519 138.548 311.519 138.548C311.519 138.548 306.033 158.125 297.965 178.563C292.157 193.407 280.324 213.738 280.324 213.738H292.157V259.024H284.95V266.231L292.157 284.087V396.495L330.882 396.925V282.473L337.443 265.8V258.163H331.204V212.877Z" fill="#01203C"/>
<path opacity="0.2" d="M292.157 212.984H307.755L308.615 258.593L292.157 258.808V212.984Z" fill="black"/>
<path d="M320.77 222.343C320.447 222.236 316.897 224.172 316.897 230.411C316.897 236.65 316.897 249.343 316.897 249.343H324.535V230.196C324.427 230.196 324.427 223.741 320.77 222.343Z" fill="#014B6E"/>
<path d="M299.686 222.343C299.471 222.236 296.352 224.172 296.352 230.411C296.352 236.65 296.352 249.343 296.352 249.343H302.913V230.196C302.913 230.196 302.913 223.741 299.686 222.343Z" fill="#014B6E"/>
<path opacity="0.3" d="M299.686 222.343C299.471 222.236 296.352 224.172 296.352 230.411C296.352 236.65 296.352 249.343 296.352 249.343H302.913V230.196C302.913 230.196 302.913 223.741 299.686 222.343Z" fill="white"/>
<path opacity="0.3" d="M284.949 258.915V266.122L337.443 265.799V258.162L284.949 258.915Z" fill="black"/>
<path opacity="0.4" d="M307.755 212.985L331.312 212.877H342.392C328.408 189.642 311.627 138.548 311.627 138.548C311.627 138.548 306.679 204.379 307.755 212.985Z" fill="black"/>
<path d="M319.479 291.401C319.264 291.293 315.714 292.799 315.714 297.317C315.714 301.835 315.714 311.086 315.714 311.086H323.029V297.209C323.029 297.102 323.029 292.477 319.479 291.401Z" fill="#014B6E"/>
<path d="M319.479 325.392C319.264 325.284 315.714 326.79 315.714 331.308C315.714 335.826 315.714 345.077 315.714 345.077H323.029V331.201C323.029 331.093 323.029 326.36 319.479 325.392Z" fill="#014B6E"/>
<path opacity="0.3" d="M319.479 325.392C319.264 325.284 315.714 326.79 315.714 331.308C315.714 335.826 315.714 345.077 315.714 345.077H323.029V331.201C323.029 331.093 323.029 326.36 319.479 325.392Z" fill="white"/>
<path d="M319.48 360.998C319.265 360.89 315.715 362.396 315.715 366.914C315.715 371.432 315.715 380.682 315.715 380.682H323.03V366.806C323.03 366.699 323.03 361.966 319.48 360.998Z" fill="#014B6E"/>
<path opacity="0.3" d="M331.204 212.877H342.284C328.3 189.642 311.519 138.117 311.519 138.117C311.519 138.117 311.412 138.44 311.304 138.978L307.647 212.984L308.615 265.692V396.817H330.774V282.15L337.336 265.8V258.163H331.097V212.877H331.204Z" fill="black"/>
<path opacity="0.2" d="M330.882 282.473H308.723V265.692L337.444 265.8L330.882 282.473Z" fill="black"/>
<path d="M143.066 183.726C143.066 183.726 166.516 141.559 169.098 133.922C169.098 133.922 189.429 176.626 195.668 183.726H186.847V278.815L155.867 319.691V263.648L143.066 243.963V223.848L150.058 205.132L153.178 213.952V183.511L143.066 183.726Z" fill="#01203C"/>
<path opacity="0.2" d="M143.066 183.726C143.066 183.726 166.516 141.559 169.098 133.922C169.098 133.922 189.429 176.626 195.668 183.726H186.847V278.815L155.867 319.691V263.648L143.066 243.963V223.848L150.058 205.132L153.178 213.952V183.511L143.066 183.726Z" fill="black"/>
<path d="M283.443 257.517H278.71V179.423L285.057 163.18V155.758H279.033V111.655H289.897C276.344 89.0661 259.886 13.9839 259.886 13.9839C259.886 13.9839 255.153 35.0671 249.559 55.7201C241.491 85.6239 229.551 112.408 229.551 112.408H241.061V156.403H234.069V163.395L241.061 180.821V205.239H204.488L175.444 264.831L175.229 277.955V294.735H165.333L148.122 325.392L147.691 396.817H299.901V312.269H305.818L283.443 257.517Z" fill="#01203C"/>
<path d="M286.455 326.252C286.24 326.145 282.69 327.651 282.69 332.169C282.69 336.686 282.69 345.937 282.69 345.937H290.005V332.061C290.005 331.846 290.005 327.221 286.455 326.252Z" fill="#014B6E"/>
<path d="M286.455 360.136C286.24 360.029 282.69 361.535 282.69 366.052C282.69 370.57 282.69 379.821 282.69 379.821H290.005V365.945C290.005 365.837 290.005 361.104 286.455 360.136Z" fill="#014B6E"/>
<path opacity="0.3" d="M271.826 312.376C271.18 313.774 271.826 396.924 271.826 396.924H299.686V312.376H271.826Z" fill="black"/>
<path opacity="0.4" d="M305.71 312.376H271.826L261.069 279.891V266.337L258.057 257.302L283.444 257.517L305.71 312.376Z" fill="black"/>
<path opacity="0.2" d="M241.062 111.763H256.229L256.982 156.081L241.062 156.296V111.763Z" fill="black"/>
<path d="M268.815 120.798C268.6 120.691 265.05 122.627 265.05 128.651C265.05 134.674 265.05 147.045 265.05 147.045H272.472V128.328C272.472 128.435 272.472 122.197 268.815 120.798Z" fill="#014B6E"/>
<path d="M248.376 120.798C248.161 120.691 245.149 122.627 245.149 128.651C245.149 134.674 245.149 147.045 245.149 147.045H251.496V128.328C251.496 128.435 251.496 122.197 248.376 120.798Z" fill="#014B6E"/>
<path d="M249.129 189.642C249.021 189.642 247.623 190.502 247.623 193.299C247.623 196.096 247.623 201.904 247.623 201.904H250.635V193.191C250.527 193.191 250.527 190.287 249.129 189.642Z" fill="#014B6E"/>
<path opacity="0.3" d="M249.129 189.642C249.021 189.642 247.623 190.502 247.623 193.299C247.623 196.096 247.623 201.904 247.623 201.904H250.635V193.191C250.527 193.191 250.527 190.287 249.129 189.642Z" fill="white"/>
<path d="M269.353 188.028C269.245 188.028 267.847 188.889 267.847 191.686C267.847 194.482 267.847 200.291 267.847 200.291H270.859V191.578C270.859 191.578 270.859 188.674 269.353 188.028Z" fill="#014B6E"/>
<path d="M249.129 209.864C249.021 209.864 247.623 210.725 247.623 213.522C247.623 216.318 247.623 222.127 247.623 222.127H250.635V213.414C250.527 213.414 250.527 210.51 249.129 209.864Z" fill="#014B6E"/>
<path d="M269.353 208.251C269.245 208.251 267.847 209.112 267.847 211.908C267.847 214.705 267.847 220.514 267.847 220.514H270.859V211.801C270.859 211.801 270.859 208.896 269.353 208.251Z" fill="#014B6E"/>
<path d="M269.353 228.474C269.245 228.474 267.847 229.334 267.847 232.131C267.847 234.928 267.847 240.736 267.847 240.736H270.859V232.023C270.859 232.023 270.859 229.119 269.353 228.474Z" fill="#014B6E"/>
<path opacity="0.3" d="M233.962 156.403V163.503L285.165 163.18V155.758L233.962 156.403Z" fill="black"/>
<path opacity="0.3" d="M214.922 265.262L241.062 205.239L261.069 266.338V396.817H214.6L214.922 265.262Z" fill="black"/>
<path d="M241.922 255.581C241.385 255.474 234.393 258.27 234.393 267.306C234.393 276.342 234.393 294.736 234.393 294.736H249.022V266.876C249.022 266.876 249.022 257.625 241.922 255.581Z" fill="#014B6E"/>
<path opacity="0.3" d="M241.922 255.581C241.385 255.474 234.393 258.27 234.393 267.306C234.393 276.342 234.393 294.736 234.393 294.736H249.022V266.876C249.022 266.876 249.022 257.625 241.922 255.581Z" fill="white"/>
<path d="M150.273 227.936C150.058 227.936 147.584 228.904 147.584 232.131C147.584 235.358 147.584 241.812 147.584 241.812H152.747V231.916C152.747 232.023 152.747 228.689 150.273 227.936Z" fill="#014B6E"/>
<path d="M171.142 230.518C170.819 230.41 166.839 232.024 166.839 237.294C166.839 242.458 166.839 253.107 166.839 253.107H175.229V237.079C175.337 237.079 175.337 231.701 171.142 230.518Z" fill="#014B6E"/>
<path d="M171.142 194.483C170.819 194.375 166.839 195.988 166.839 201.259C166.839 206.423 166.839 217.072 166.839 217.072H175.229V201.044C175.337 201.044 175.337 195.666 171.142 194.483Z" fill="#014B6E"/>
<path d="M240.739 351.639C239.878 351.423 229.014 354.758 229.014 365.192C229.014 375.626 229.014 396.925 229.014 396.925H252.034V364.762C251.926 364.762 251.926 353.898 240.739 351.639Z" fill="#014B6E"/>
<path d="M190.397 330.878C190.182 330.771 186.632 332.277 186.632 336.795C186.632 341.312 186.632 350.563 186.632 350.563H193.947V336.687C193.947 336.472 193.947 331.846 190.397 330.878Z" fill="#014B6E"/>
<path d="M204.38 330.878C204.165 330.771 200.615 332.277 200.615 336.795C200.615 341.312 200.615 350.563 200.615 350.563H207.93V336.687C207.93 336.472 207.93 331.846 204.38 330.878Z" fill="#014B6E"/>
<path d="M190.397 360.244C190.182 360.136 186.632 361.642 186.632 366.16C186.632 370.678 186.632 379.928 186.632 379.928H193.946V366.052C193.946 365.945 193.946 361.212 190.397 360.244Z" fill="#014B6E"/>
<path d="M204.38 360.244C204.165 360.136 200.615 361.642 200.615 366.16C200.615 370.678 200.615 379.928 200.615 379.928H207.93V366.052C207.93 365.945 207.93 361.212 204.38 360.244Z" fill="#014B6E"/>
<path d="M162.751 330.878C162.536 330.771 158.986 332.277 158.986 336.795C158.986 341.312 158.986 350.563 158.986 350.563H166.301V336.687C166.301 336.472 166.301 331.846 162.751 330.878Z" fill="#014B6E"/>
<path opacity="0.3" d="M162.751 330.878C162.536 330.771 158.986 332.277 158.986 336.795C158.986 341.312 158.986 350.563 158.986 350.563H166.301V336.687C166.301 336.472 166.301 331.846 162.751 330.878Z" fill="white"/>
<path d="M165.226 294.735C165.763 296.672 178.349 325.392 178.349 325.392C178.349 325.392 220.086 325.392 220.946 325.392L206.962 294.735H165.226Z" fill="#01203C"/>
<path opacity="0.4" d="M165.226 294.735C165.763 296.672 178.349 325.392 178.349 325.392C178.349 325.392 220.086 325.392 220.946 325.392L206.962 294.735H165.226Z" fill="black"/>
<path opacity="0.4" d="M256.229 111.763L279.141 111.655H290.006C276.452 89.0661 259.994 13.9839 259.994 13.9839C259.994 13.9839 255.154 103.373 256.229 111.763Z" fill="black"/>
<path opacity="0.3" d="M258.057 257.302L278.711 257.517V178.992L285.057 163.18V155.758H279.033V111.655H289.898C276.344 89.066 259.886 13.6611 259.886 13.6611C259.886 13.6611 259.779 13.9838 259.671 14.4141L256.121 111.763L257.089 163.072V255.043L258.057 257.302Z" fill="black"/>
<path opacity="0.2" d="M278.711 179.315H257.197V163.072L285.165 163.18L278.711 179.315Z" fill="black"/>
<path opacity="0.2" d="M214.599 325.392H178.349V396.816H214.599V325.392Z" fill="black"/>
<path opacity="0.3" d="M153.178 183.511V188.781H186.739C186.739 188.781 186.739 183.833 186.739 183.511C186.847 183.296 153.178 183.511 153.178 183.511Z" fill="black"/>
<path opacity="0.2" d="M143.066 223.849H157.05L150.058 205.132L143.066 223.849Z" fill="black"/>
<path opacity="0.2" d="M175.337 264.939L214.922 265.262V269.135H175.337V264.939Z" fill="black"/>
<path d="M229.552 112.408C249.56 112.193 269.46 111.548 289.468 111.763C269.567 111.978 249.56 112.624 229.552 112.408Z" fill="#014B6E"/>
<path d="M320.018 136.826C328.3 136.503 336.583 136.396 344.758 136.396C336.476 136.718 328.193 136.933 320.018 136.826Z" fill="#014B6E"/>
<path d="M280.324 213.629C300.977 213.199 321.631 212.984 342.284 212.876C321.631 213.306 300.977 213.521 280.324 213.629Z" fill="#014B6E"/>
<path d="M143.066 183.726C160.6 183.511 178.134 183.511 195.668 183.726C178.134 183.941 160.6 183.941 143.066 183.726Z" fill="#014B6E"/>
<path d="M178.349 325.392C192.548 325.177 206.747 325.177 220.946 325.392C206.747 325.607 192.548 325.607 178.349 325.392Z" fill="#014B6E"/>
<path d="M270.966 312.376C282.583 312.161 294.093 312.161 305.71 312.376C294.093 312.484 282.583 312.484 270.966 312.376Z" fill="#014B6E"/>
<path opacity="0.3" d="M171.142 194.483C170.819 194.375 166.839 195.988 166.839 201.259C166.839 206.423 166.839 217.072 166.839 217.072H175.229V201.044C175.337 201.044 175.337 195.666 171.142 194.483Z" fill="white"/>
</g>
<defs>
<clipPath id="clip0_211_10850">
<rect width="469" height="398" fill="white"/>
</clipPath>
</defs>
</svg>
