<svg width="419" height="373" viewBox="0 0 419 373" fill="none" xmlns="http://www.w3.org/2000/svg">
<path d="M125.381 55.5325C125.381 55.5325 81.7064 110.597 82.1243 123.065C82.7512 135.532 111.589 157.558 114.515 159.429C117.44 161.299 125.59 222.597 125.799 252.935C126.008 283.065 128.516 343.117 126.635 347.48C124.754 351.844 105.111 372 109.499 372C113.888 372 303.005 372 307.602 372C312.2 372 323.693 325.455 309.274 299.688C294.855 273.714 266.017 267.481 255.778 252.104C245.538 236.935 211.476 175.221 210.432 158.182C209.387 141.143 240.523 7.32468 238.851 6.28572C237.18 5.24676 182.43 47.4286 182.43 47.4286L166.13 47.6364C166.13 47.6364 177.623 1.71429 177.205 0.0519552C177.205 -1.61038 139.382 37.039 125.381 55.5325Z" fill="#01203C"/>
<path d="M307.189 358.079C307.189 358.079 331.847 337.507 349.61 300.105C367.372 262.702 361.939 213.455 355.043 171.897C348.147 130.338 342.505 63.2215 370.089 36.8318C395.374 12.728 418.36 15.4292 418.36 15.4292C418.36 15.4292 383.463 -13.8694 343.758 10.65C302.8 35.7929 294.233 99.1695 307.189 143.014C320.145 186.858 365.073 290.962 308.86 349.143L307.189 358.079Z" fill="#01203C"/>
<path d="M116.398 110.804C125.746 110.804 133.325 103.268 133.325 93.9725C133.325 84.6769 125.746 77.1414 116.398 77.1414C107.05 77.1414 99.4717 84.6769 99.4717 93.9725C99.4717 103.268 107.05 110.804 116.398 110.804Z" fill="#E3E8FC"/>
<path d="M116.394 82.5435C110.961 82.5435 106.364 86.2837 105.319 91.2708L112.215 93.9721L105.528 97.2967C106.991 102.076 111.379 105.401 116.394 105.401C122.663 105.401 127.888 100.206 127.888 93.9721C127.888 87.7383 122.663 82.5435 116.394 82.5435Z" fill="#014B6E"/>
<path d="M174.7 110.804C184.048 110.804 191.627 103.268 191.627 93.9725C191.627 84.6769 184.048 77.1414 174.7 77.1414C165.352 77.1414 157.774 84.6769 157.774 93.9725C157.774 103.268 165.352 110.804 174.7 110.804Z" fill="#E3E8FC"/>
<path d="M174.701 82.5432C169.267 82.5432 164.67 86.2835 163.625 91.2705L170.521 93.9718L163.834 97.2965C165.297 102.076 169.685 105.4 174.701 105.4C180.97 105.4 186.194 100.206 186.194 93.9718C186.194 87.738 181.179 82.5432 174.701 82.5432Z" fill="#014B6E"/>
<path d="M131.237 110.806C131.655 110.39 149.627 109.975 150.253 110.806C150.88 111.637 138.76 119.533 137.715 119.741C136.879 119.949 130.192 111.845 131.237 110.806Z" fill="#F8D2EB"/>
<path d="M118.071 119.531C118.071 119.531 119.325 125.973 126.012 125.973C132.49 126.181 137.923 119.531 137.923 119.531C137.923 119.531 140.013 127.22 147.535 127.635C155.058 128.051 160.701 120.778 160.701 120.778" stroke="#F8D2EB" stroke-width="0.5" stroke-miterlimit="10"/>
<path d="M199.148 110.806C199.148 110.806 200.402 109.767 202.491 108.104C203.536 107.273 204.999 106.234 206.671 105.195C208.342 104.156 210.223 103.117 212.313 101.871C214.402 100.832 216.701 99.5849 219.209 98.5459C221.716 97.2991 224.433 96.2602 227.15 95.2212C229.866 94.1823 233.001 93.3511 235.926 92.3121C239.061 91.481 241.986 90.6498 245.33 90.0264C248.464 89.403 251.599 88.7797 254.734 88.3641C257.868 87.9485 261.003 87.5329 263.928 87.3251C266.854 87.1173 269.779 86.9095 272.496 86.7018C275.213 86.7018 277.929 86.7018 280.228 86.7018C281.482 86.7018 282.527 86.7018 283.571 86.7018C284.616 86.7018 285.661 86.9095 286.706 86.9095C288.587 87.1173 290.258 87.1173 291.721 87.1173C294.438 87.3251 296.11 87.3251 296.11 87.3251C296.11 87.3251 294.438 87.3251 291.721 87.3251C290.258 87.3251 288.587 87.3251 286.706 87.3251C284.825 87.3251 282.527 87.3251 280.228 87.5329C277.929 87.5329 275.213 87.7407 272.496 87.9485C269.779 88.1563 266.854 88.3641 263.928 88.7797C261.003 88.9875 257.868 89.6108 254.734 90.0264C251.599 90.442 248.464 91.2732 245.33 91.6888C242.195 92.3121 239.061 93.1433 236.135 93.7667C233.21 94.5979 230.075 95.429 227.359 96.468C224.642 97.5069 221.925 98.3381 219.418 99.3771C216.91 100.416 214.611 101.455 212.313 102.494C210.223 103.533 208.133 104.572 206.462 105.611C204.79 106.442 203.327 107.481 202.073 108.104C200.819 108.936 199.984 109.559 199.357 109.974C199.566 110.39 199.148 110.806 199.148 110.806Z" fill="#E5E7FC"/>
<path d="M191.625 119.532C191.625 119.532 197.268 118.285 205.835 117.038C207.925 116.622 210.224 116.415 212.731 115.999C215.239 115.584 217.747 115.168 220.463 114.96C225.896 114.337 231.539 113.713 237.39 113.09C240.315 112.882 243.032 112.467 245.958 112.259C248.883 112.051 251.6 111.843 254.316 111.843C259.75 111.428 264.765 111.428 269.153 111.012C277.721 110.596 283.572 110.596 283.572 110.596C283.572 110.596 277.93 111.22 269.153 112.051C264.765 112.467 259.75 112.882 254.525 113.298C251.809 113.506 249.092 113.713 246.167 113.921C243.45 114.129 240.524 114.545 237.599 114.752C231.957 115.376 226.105 115.791 220.881 116.415C218.165 116.622 215.657 116.83 213.149 117.246C210.642 117.454 208.343 117.869 206.253 118.077C202.074 118.493 198.313 118.908 195.805 119.324C193.088 119.532 191.625 119.532 191.625 119.532Z" fill="#E5E7FC"/>
<path d="M202.076 127.635C202.076 127.635 203.538 127.635 206.046 127.843C208.554 128.051 212.106 128.259 216.286 128.674C218.375 128.882 220.674 129.09 223.182 129.298C225.689 129.505 228.197 129.921 230.705 130.337C233.421 130.752 236.138 131.168 238.854 131.583C241.571 131.999 244.497 132.415 247.213 133.038C249.93 133.661 252.646 134.285 255.572 134.908C258.288 135.531 261.005 136.155 263.513 136.778C266.02 137.609 268.528 138.233 270.827 138.856C273.125 139.479 275.424 140.103 277.305 140.934C285.246 143.843 290.47 145.921 290.47 145.921C290.47 145.921 285.037 144.259 276.887 141.765C274.797 141.142 272.707 140.518 270.2 139.895C267.901 139.272 265.393 138.648 262.886 138.025C260.378 137.194 257.662 136.778 254.945 136.155C252.228 135.531 249.512 134.908 246.795 134.492C244.079 133.869 241.153 133.453 238.436 132.83C235.72 132.415 233.003 131.791 230.496 131.376C227.779 130.96 225.271 130.544 222.973 130.129C220.674 129.713 218.375 129.505 216.286 129.09C214.196 128.882 212.315 128.466 210.643 128.259C208.972 128.051 207.509 127.843 206.255 127.635C203.538 127.843 202.076 127.635 202.076 127.635Z" fill="#E5E7FC"/>
<path d="M97.5888 110.806C97.5888 110.806 97.1708 110.598 96.7529 110.182C96.126 109.559 95.0811 108.936 94.0363 108.104C92.7825 107.273 91.5286 106.442 89.6479 105.611C87.9762 104.572 86.0954 103.741 83.7968 102.494C81.7071 101.455 79.4084 100.416 76.6918 99.3771C74.1842 98.3381 71.4676 97.2991 68.751 96.468C66.0344 95.429 62.8998 94.5979 59.9742 93.7667C56.8397 93.1433 53.9141 92.3121 50.7796 91.6888C47.645 91.0654 44.5105 90.442 41.376 90.0264C38.2414 89.6108 35.3158 88.9875 32.1813 88.7797C29.2557 88.5719 26.3302 88.1563 23.6136 87.9485C20.8969 87.7407 18.3893 87.7407 15.8817 87.5329C13.583 87.3251 11.2844 87.3251 9.40363 87.3251C7.5229 87.3251 5.85115 87.3251 4.38836 87.3251C1.67176 87.3251 0 87.3251 0 87.3251C0 87.3251 1.67176 87.1173 4.38836 87.1173C5.85115 87.1173 7.5229 86.9095 9.40363 86.9095C10.4485 86.9095 11.4933 86.7018 12.5382 86.7018C13.583 86.7018 14.8368 86.7018 15.8817 86.7018C18.1803 86.7018 20.8969 86.7018 23.6136 86.7018C26.3302 86.9095 29.2557 87.1173 32.1813 87.3251C35.1069 87.5329 38.2414 88.1563 41.376 88.3641C44.5105 88.7797 47.645 89.403 50.7796 90.0264C53.9141 90.6498 57.0487 91.481 60.1832 92.3121C63.1088 93.3511 66.2433 94.1823 68.9599 95.2212C71.8855 96.2602 74.6021 97.2991 76.9008 98.5459C79.4084 99.5849 81.7071 100.832 83.7968 101.871C85.8865 103.117 87.7672 104.156 89.4389 105.195C91.1107 106.234 92.5735 107.273 93.6183 108.104C96.5439 109.559 97.5888 110.806 97.5888 110.806Z" fill="#E5E7FC"/>
<path d="M105.325 119.532C105.325 119.532 103.862 119.324 101.354 119.117C98.8467 118.701 95.2942 118.493 90.9059 117.87C88.8162 117.662 86.5175 117.454 84.0099 117.039C81.5022 116.831 78.9946 116.415 76.278 116.208C70.8448 115.792 65.2026 115.169 59.5604 114.545C56.6349 114.337 53.9183 113.922 50.9927 113.714C48.0671 113.506 45.3505 113.298 42.6339 113.091C37.2007 112.675 32.1854 112.259 28.0061 111.844C19.4383 111.013 13.5872 110.389 13.5872 110.389C13.5872 110.389 19.4383 110.597 28.0061 110.805C32.3944 111.013 37.4097 111.221 42.8429 111.636C45.5595 111.844 48.2761 112.052 51.2017 112.052C54.1272 112.259 56.8438 112.675 59.7694 112.883C65.4116 113.506 71.2627 114.13 76.6959 114.753C79.4126 114.961 81.9202 115.376 84.4278 115.792C86.9355 116.208 89.2341 116.415 91.3238 116.831C99.6826 118.493 105.325 119.532 105.325 119.532Z" fill="#E5E7FC"/>
<path d="M94.6632 127.635C94.6632 127.635 93.2004 127.843 90.6927 128.051C89.4389 128.259 87.9761 128.466 86.3044 128.674C84.6326 128.882 82.7519 129.09 80.6622 129.505C78.5725 129.713 76.2738 130.129 73.9752 130.544C71.6765 130.96 68.9599 131.376 66.4523 131.791C63.7357 132.207 61.228 132.622 58.5114 133.246C55.7948 133.869 53.0782 134.077 50.1527 134.908C47.436 135.531 44.7194 136.155 42.0028 136.57C39.2862 137.194 36.5696 137.609 34.062 138.44C31.5544 139.064 29.0467 139.687 26.7481 140.311C24.4494 140.934 22.1507 141.35 20.061 142.181C11.9112 144.674 6.47803 146.337 6.47803 146.337C6.47803 146.337 11.7023 144.259 19.6431 141.35C21.5238 140.518 23.8225 140.103 26.1212 139.272C28.4198 138.648 30.9275 137.817 33.4351 137.194C35.9427 136.363 38.6593 135.739 41.3759 135.324C44.0925 134.7 46.8091 134.077 49.7347 133.453C52.4513 132.83 55.3769 132.415 58.0935 131.999C60.8101 131.583 63.5267 130.96 66.2433 130.752C68.9599 130.337 71.4675 130.129 73.7662 129.713C76.2738 129.505 78.5725 129.09 80.6622 129.09C84.8416 128.674 88.3941 128.466 90.9017 128.259C93.2004 127.635 94.6632 127.635 94.6632 127.635Z" fill="#E5E7FC"/>
<path d="M211.269 162.336C210.851 160.673 210.642 159.219 210.433 157.972C210.224 156.31 210.642 153.401 211.06 149.453C157.982 179.375 114.725 159.219 114.725 159.219C115.561 159.634 116.606 164.621 118.068 171.894C153.384 201.193 199.149 171.271 211.269 162.336Z" fill="#C1EAFF"/>
<path d="M141.057 214.493C141.057 214.493 129.773 211.168 134.37 200.363C137.505 193.09 148.371 189.973 156.103 191.636C166.343 193.921 173.656 206.805 162.79 213.454C162.79 213.454 162.581 221.766 160.909 222.181C159.447 222.597 143.147 223.844 141.893 222.181C140.639 220.311 141.057 214.493 141.057 214.493Z" fill="#E3E8FC"/>
<path d="M146.702 203.273C144.195 202.234 140.224 207.636 140.851 209.507C141.478 211.377 146.493 213.662 148.165 212.831C149.837 212 149.419 204.312 146.702 203.273Z" fill="#01203C"/>
<path d="M156.732 203.273C159.239 202.234 163.21 207.637 162.583 209.507C161.956 211.377 156.941 213.663 155.269 212.832C153.388 212.001 154.015 204.312 156.732 203.273Z" fill="#01203C"/>
<path d="M146.071 216.572V223.014" stroke="#01203C" stroke-width="0.5" stroke-miterlimit="10"/>
<path d="M151.505 216.573V223.014" stroke="#01203C" stroke-width="0.5" stroke-miterlimit="10"/>
<path d="M157.147 216.572V223.013" stroke="#01203C" stroke-width="0.5" stroke-miterlimit="10"/>
<path d="M199.146 237.557C199.146 237.557 185.772 318.18 182.428 371.791" stroke="#648298" stroke-width="0.5" stroke-miterlimit="10"/>
<path d="M137.5 371.792C133.112 371.792 152.755 351.428 154.636 347.272C156.516 342.909 155.68 324.415 155.262 294.078C155.262 294.078 133.112 268.519 131.022 228.415" stroke="#648298" stroke-width="0.5" stroke-miterlimit="10"/>
<path d="M266.227 272.262C266.227 272.262 225.269 246.08 211.059 262.08C196.85 278.08 229.031 353.301 229.031 356.625C229.031 359.742 217.12 365.768 212.313 371.794" stroke="#648298" stroke-width="0.5" stroke-miterlimit="10"/>
<path d="M156.937 354.751C156.937 354.751 149.414 365.764 145.862 371.79" stroke="#648298" stroke-width="0.5" stroke-miterlimit="10"/>
<path d="M165.087 358.079C165.087 358.079 160.698 366.391 159.236 371.793" stroke="#648298" stroke-width="0.5" stroke-miterlimit="10"/>
<path d="M129.35 354.751C129.35 354.751 121.2 364.725 118.692 371.79" stroke="#648298" stroke-width="0.5" stroke-miterlimit="10"/>
<path d="M229.237 356.626C229.237 356.626 222.968 365.146 221.088 371.795" stroke="#648298" stroke-width="0.5" stroke-miterlimit="10"/>
<path d="M241.776 361.401C241.776 361.401 234.88 366.388 233 371.791" stroke="#648298" stroke-width="0.5" stroke-miterlimit="10"/>
</svg>
