<svg width="78" height="113" viewBox="0 0 78 113" fill="none" xmlns="http://www.w3.org/2000/svg">
<path d="M76.4646 71.6815C73.5162 63.0222 62.5504 55.763 60.8952 51.4593C59.24 47.1556 59.5503 40 59.5503 40H38.9635H18.4284C18.4284 40 18.7388 47.1556 17.0835 51.4593C15.4283 55.763 4.5142 63.0741 1.51411 71.6815C-2.10669 82.3111 0.169237 93.9259 14.9111 103H38.9635H63.0159C77.8095 93.8741 80.1371 82.2593 76.4646 71.6815Z" fill="#014B6E"/>
<path d="M40 64.566L43 67L41.2857 61" stroke="#01203C" stroke-width="0.5" stroke-miterlimit="10"/>
<path d="M43.9808 62L43 66L46 63.7436" stroke="#01203C" stroke-width="0.5" stroke-miterlimit="10"/>
<path d="M49 66L43 67.0149L46.2727 70" stroke="#01203C" stroke-width="0.5" stroke-miterlimit="10"/>
<path d="M45 72L43.8462 67L42 70.7129" stroke="#01203C" stroke-width="0.5" stroke-miterlimit="10"/>
<path d="M38 67.7907L43 67L39.6667 69" stroke="#01203C" stroke-width="0.5" stroke-miterlimit="10"/>
<path d="M9 68.566L12 71L10.3333 65" stroke="#01203C" stroke-width="0.5" stroke-miterlimit="10"/>
<path d="M12.9808 66L12 70L15 67.7436" stroke="#01203C" stroke-width="0.5" stroke-miterlimit="10"/>
<path d="M18 70L12 71.0149L15.2727 74" stroke="#01203C" stroke-width="0.5" stroke-miterlimit="10"/>
<path d="M14 76L12.8235 71L11 74.7129" stroke="#01203C" stroke-width="0.5" stroke-miterlimit="10"/>
<path d="M7 71.7907L12 71L8.71296 73" stroke="#01203C" stroke-width="0.5" stroke-miterlimit="10"/>
<path d="M46 87.566L49 90L47.3065 84" stroke="#01203C" stroke-width="0.5" stroke-miterlimit="10"/>
<path d="M50.0189 85L49 89L52 86.7949" stroke="#01203C" stroke-width="0.5" stroke-miterlimit="10"/>
<path d="M55 89L49 90L52.2727 93" stroke="#01203C" stroke-width="0.5" stroke-miterlimit="10"/>
<path d="M51 95L49.8235 90L48 93.7129" stroke="#01203C" stroke-width="0.5" stroke-miterlimit="10"/>
<path d="M44 90.7727L49 90L45.6822 92" stroke="#01203C" stroke-width="0.5" stroke-miterlimit="10"/>
<path d="M14 91.6227L17 94L15.2857 88" stroke="#01203C" stroke-width="0.5" stroke-miterlimit="10"/>
<path d="M17.9808 90L17 94L20 91.7662" stroke="#01203C" stroke-width="0.5" stroke-miterlimit="10"/>
<path d="M23 93L17 93.9552L20.2727 97" stroke="#01203C" stroke-width="0.5" stroke-miterlimit="10"/>
<path d="M19 99L17.8235 94L16 97.7129" stroke="#01203C" stroke-width="0.5" stroke-miterlimit="10"/>
<path d="M12 94.8182L17 94L13.713 96" stroke="#01203C" stroke-width="0.5" stroke-miterlimit="10"/>
<path d="M52 50.0952L54 52L53.4634 48" stroke="#01203C" stroke-width="0.5" stroke-miterlimit="10"/>
<path d="M55.0667 49L54 52L56 50.6364" stroke="#01203C" stroke-width="0.5" stroke-miterlimit="10"/>
<path d="M59 52.1702L54 52L56.2353 54" stroke="#01203C" stroke-width="0.5" stroke-miterlimit="10"/>
<path d="M55 56L54.9429 52L53 54.6329" stroke="#01203C" stroke-width="0.5" stroke-miterlimit="10"/>
<path d="M50 52L54 52.08L51.1566 53" stroke="#01203C" stroke-width="0.5" stroke-miterlimit="10"/>
<path d="M27 49.0952L29 51L28.45 47" stroke="#01203C" stroke-width="0.5" stroke-miterlimit="10"/>
<path d="M30.0435 48L29 51L31 49.6364" stroke="#01203C" stroke-width="0.5" stroke-miterlimit="10"/>
<path d="M34 51.1702L29 51L31.2353 53" stroke="#01203C" stroke-width="0.5" stroke-miterlimit="10"/>
<path d="M30 55L29.9429 51L28 53.6329" stroke="#01203C" stroke-width="0.5" stroke-miterlimit="10"/>
<path d="M25 51L29 51.08L26.122 52" stroke="#01203C" stroke-width="0.5" stroke-miterlimit="10"/>
<path d="M29 76.0476L31 78L30.4634 74" stroke="#01203C" stroke-width="0.5" stroke-miterlimit="10"/>
<path d="M32.0667 75L31 78L33 76.6607" stroke="#01203C" stroke-width="0.5" stroke-miterlimit="10"/>
<path d="M36 78.1304L31 78L33.2619 80" stroke="#01203C" stroke-width="0.5" stroke-miterlimit="10"/>
<path d="M32 82V78L30 80.6667" stroke="#01203C" stroke-width="0.5" stroke-miterlimit="10"/>
<path d="M27 78L31 78.0833L28.1084 79" stroke="#01203C" stroke-width="0.5" stroke-miterlimit="10"/>
<path d="M61 74.0476L63 76L62.45 72" stroke="#01203C" stroke-width="0.5" stroke-miterlimit="10"/>
<path d="M64.0435 73L63 76L65 74.6607" stroke="#01203C" stroke-width="0.5" stroke-miterlimit="10"/>
<path d="M68 76.1304L63 76L65.2353 78" stroke="#01203C" stroke-width="0.5" stroke-miterlimit="10"/>
<path d="M64 80L63.9429 76L62 78.6154" stroke="#01203C" stroke-width="0.5" stroke-miterlimit="10"/>
<path d="M59 76L63 76.12L60.1566 77" stroke="#01203C" stroke-width="0.5" stroke-miterlimit="10"/>
<path d="M24.9773 112.154C24.9773 111.259 22.6287 108.124 22.6287 106.234C22.6287 104.343 24.3646 103 23.2924 103C22.2202 103 17.6761 103 16.0423 103C14.4085 103 14 103.398 14 105.637C14 107.876 19.8716 109.567 19.8716 110.363C19.8716 111.209 17.1655 111.607 15.787 111.607C15.2254 111.607 14.7659 111.905 14.7659 112.303C14.7659 112.701 15.2254 113 15.787 113H23.9562C24.5178 113 24.9773 112.701 24.9773 112.303C25.0284 112.254 24.9773 112.204 24.9773 112.154Z" fill="#01203C"/>
<path d="M53 112.154C53 111.259 55.3535 108.124 55.3535 106.234C55.3535 104.343 53.614 103 54.6884 103C55.7628 103 60.3163 103 61.9535 103C63.5907 103 64 103.398 64 105.637C64 107.876 58.1163 109.567 58.1163 110.363C58.1163 111.209 60.8279 111.607 62.2093 111.607C62.7721 111.607 63.2326 111.905 63.2326 112.303C63.2326 112.701 62.7721 113 62.2093 113H54.0233C53.4605 113 53 112.701 53 112.303C53 112.254 53 112.204 53 112.154Z" fill="#01203C"/>
<path opacity="0.48" d="M70.2787 62C71.9857 71.3016 70.1235 83.4613 63.1405 90.2167C54.7091 98.3752 34.0185 98.531 19.6903 98.531C12.9141 98.531 8.15531 96.4525 5 94.3219C7.32769 97.3878 10.6382 100.298 14.9832 103H39.036H63.0887C77.8308 93.8542 80.1067 82.2142 76.4859 71.6134C75.3479 68.1318 72.9168 64.91 70.2787 62Z" fill="#C1EAFF"/>
<path opacity="0.46" d="M16.7846 55.5068C12.8393 61.8544 5 63.4153 5 72.2083C5 77.2551 14.3252 83.7068 22.6769 77.3592C31.0285 71.0116 29.0815 65.7046 28.0055 61.126C26.9296 56.5474 26.9296 51.6566 24.1627 51.1363C21.3959 50.668 19.3977 51.2403 16.7846 55.5068Z" fill="#C1EAFF"/>
<path d="M29.012 32.8952C29.012 32.8952 29.012 32.8429 29.0627 32.7381C29.1133 32.6333 29.2147 32.4762 29.2653 32.2667C29.4173 31.8476 29.5693 31.219 29.62 30.381C29.6707 29.5429 29.62 28.5476 29.316 27.4476C29.012 26.3476 28.5053 25.1429 27.5933 24.2C27.492 24.0952 27.3906 23.9381 27.2386 23.8857C27.1373 23.781 26.9853 23.7286 26.8839 23.6238C26.7319 23.5191 26.5293 23.4667 26.3773 23.3619C26.2253 23.3095 26.0733 23.2571 25.9213 23.2048C25.2626 22.9952 24.5026 22.8381 23.6919 22.7333C22.8812 22.6286 22.0705 22.5238 21.2092 22.3667C20.3478 22.1572 19.4865 21.8952 18.6758 21.3714C18.2705 21.1095 17.9158 20.7429 17.6625 20.3762C17.4091 19.9571 17.1558 19.5381 16.9531 19.119C16.5985 18.2286 16.2944 17.3381 16.1424 16.3429C15.9904 15.4 15.9398 14.4048 16.0918 13.4095C16.2438 12.4143 16.6998 11.4191 17.6118 10.8429C18.4732 10.2667 19.5372 10.1095 20.4998 10.2143C21.4119 10.2667 22.4759 10.4238 23.3372 11C23.8439 11.3667 24.0972 11.8381 24.3506 12.2048C24.4519 12.4143 24.6039 12.5714 24.7052 12.6762L24.8066 12.7809L24.8572 12.8333C24.8572 12.8333 24.7559 12.7286 24.8066 12.7809H24.8572L25.1613 12.9381C25.4146 13.0429 25.7186 13.0429 26.0226 12.8333C26.3266 12.6762 26.5799 12.3619 26.8333 12.0476C27.2893 11.3667 27.5933 10.581 27.7453 9.84762L27.796 9.58572V9.42857V9.37619V9.32381C27.796 9.27143 27.796 9.37619 27.796 9.37619C27.796 9.16666 27.7453 8.95714 27.7453 8.74762C27.6946 8.48571 27.5933 8.11905 27.3906 7.85714C26.9853 7.33333 26.3773 6.96666 25.6679 6.75714C25.0093 6.49524 24.2999 6.3381 23.5906 6.18095C22.8812 6.02381 22.2225 5.86667 21.6145 5.65714L21.3612 5.55238C21.2599 5.5 21.2092 5.5 21.1079 5.44762C20.9559 5.39524 20.8039 5.34286 20.7025 5.2381C20.3985 5.08095 20.1452 4.92381 19.8918 4.76667C19.3852 4.45238 18.9798 4.03333 18.6252 3.61428C18.2705 3.19524 18.0678 2.72381 18.0171 2.25238C17.9665 1.78095 18.1691 1.3619 18.3211 1.04762C18.4225 0.890476 18.5238 0.785716 18.6252 0.680954C18.7265 0.576192 18.8278 0.47143 18.9292 0.419049C19.0812 0.261906 19.2838 0.209522 19.3345 0.10476C19.4358 0.0523794 19.4865 0 19.4865 0L19.5372 0.10476C19.5372 0.10476 19.4865 0.15714 19.3852 0.209521C19.2838 0.314283 19.1825 0.36667 19.0305 0.576194C18.7265 0.890479 18.2705 1.46667 18.4225 2.2C18.5745 2.93333 19.2838 3.66667 20.2465 4.19048C20.4998 4.34762 20.7532 4.45238 21.0065 4.55714C21.1079 4.60952 21.2599 4.66191 21.4119 4.71429C21.4625 4.71429 21.5639 4.76667 21.6145 4.76667L21.8172 4.81905C22.4252 4.97619 23.0839 5.08095 23.7426 5.2381C24.4519 5.39524 25.1613 5.5 25.9213 5.76191C26.6813 6.02381 27.492 6.39047 28.1506 7.17619C28.4546 7.54286 28.6573 8.06666 28.7586 8.59047C28.8093 8.8 28.8093 9.00953 28.8093 9.21905C28.8093 9.21905 28.8093 9.32381 28.8093 9.27143V9.32381V9.42857V9.63809L28.7586 10.0048C28.556 10.9476 28.2013 11.8381 27.644 12.6762C27.34 13.0952 26.9853 13.4619 26.4786 13.7238C25.9719 13.9857 25.3133 14.0381 24.7052 13.7762L24.4012 13.619H24.3506C24.4012 13.6714 24.2492 13.5667 24.2492 13.5667L24.1479 13.5143L23.9959 13.3571C23.7932 13.1476 23.6412 12.9381 23.5399 12.7286C23.3879 12.519 23.2866 12.3095 23.1852 12.1524L22.9826 11.8905L22.8306 11.7333C22.1719 11.2095 21.3105 11.0524 20.3985 10.9476C19.5372 10.7905 18.6252 10.8429 17.8651 11.3143C17.1051 11.7333 16.6491 12.5714 16.4464 13.5143C16.2438 14.4048 16.2438 15.4 16.3958 16.2905C16.5478 17.2333 16.8011 18.1238 17.2065 18.9619C17.4091 19.381 17.6118 19.7476 17.9158 20.1143C18.2198 20.4286 18.5238 20.6905 18.8785 20.9C19.5878 21.319 20.3985 21.4762 21.2599 21.6333C22.0705 21.7381 22.8812 21.7905 23.6919 21.8429C24.5026 21.9476 25.3133 22.0524 26.0733 22.3143C26.2759 22.3667 26.4786 22.4714 26.6306 22.5238C26.7826 22.6286 26.9853 22.681 27.1373 22.7857L27.188 22.8381H27.2386L27.2893 22.8905L27.3906 22.9952L27.644 23.2048C27.796 23.3095 27.948 23.4667 28.0493 23.6238C29.1133 24.7762 29.5693 26.1381 29.8227 27.3429C30.076 28.5476 30.0253 29.6476 29.8733 30.4857C29.7213 31.3238 29.468 32.0048 29.2653 32.4238C29.164 32.6333 29.0627 32.7905 29.012 32.8429C28.9613 32.9476 28.9106 33 28.9106 33L29.012 32.8952Z" fill="#FFF4C1"/>
<path d="M38.0773 34C38.0773 34 37.9269 33.8465 37.5761 33.4885C37.2754 33.1815 36.7743 32.67 36.223 32.005C35.6717 31.3399 35.0202 30.5215 34.4189 29.4472C34.2685 29.1914 34.1182 28.9356 33.9678 28.6287C33.8175 28.3218 33.6671 28.0149 33.5669 27.7079C33.3163 27.0429 33.0658 26.3267 33.0157 25.5594C32.9655 24.7921 33.0157 23.8713 33.4667 23.104C33.5669 22.8993 33.6671 22.7459 33.7674 22.5413C33.9177 22.3366 34.0179 22.1832 34.1683 22.0297C34.469 21.7228 34.7697 21.4159 35.0704 21.1089C35.6717 20.5462 36.3232 19.9835 36.8244 19.3696C37.075 19.0627 37.2754 18.7046 37.3756 18.2954L37.4759 17.9885C37.526 17.9373 37.526 17.7838 37.526 17.6815C37.5761 17.4769 37.6262 17.2211 37.5761 17.0165C37.6262 16.198 37.3756 15.2772 36.9747 14.4076C36.6239 13.538 36.1228 12.7195 35.6717 11.901C35.1706 11.0825 34.7196 10.2129 34.4189 9.24092C34.2685 8.78053 34.2184 8.21782 34.2184 7.70627C34.2184 7.45049 34.2685 7.19472 34.3688 6.93894C34.469 6.63201 34.5692 6.47855 34.6193 6.22277C35.0704 5.25083 35.8722 4.4835 36.7242 4.0231C37.1752 3.76733 37.6262 3.56271 38.1274 3.40924C38.3779 3.30693 38.6285 3.25578 38.829 3.20463L39.0294 3.15347L39.2299 3.10231L39.5807 3.05116C39.7812 3 40.0818 3 40.3324 3C40.583 3 40.8336 3 41.0841 3C41.3347 3 41.5853 3.05115 41.8359 3.10231C42.0864 3.15346 42.337 3.15347 42.5375 3.25578C43.4897 3.4604 44.3917 3.86964 45.1936 4.38119C45.9954 4.89274 46.7471 5.55775 47.2483 6.42739C47.7494 7.24587 48 8.26898 48 9.18977C48 9.44555 48 9.65017 47.9499 9.90594C47.8998 10.1106 47.8497 10.3663 47.7995 10.571L47.7494 10.7244V10.7756C47.7494 10.7756 47.7494 10.7244 47.7494 10.8267L47.6993 10.8779L47.5991 11.1337C47.549 11.236 47.4988 11.3383 47.4487 11.4406C47.3986 11.5429 47.2984 11.6452 47.2483 11.7475C46.8975 12.1056 46.4965 12.3614 46.0455 12.5148C45.5945 12.6172 45.1936 12.6683 44.7926 12.6172C43.9908 12.566 43.2892 12.3102 42.6878 12.0033C42.0363 11.6964 41.4851 11.3383 41.034 10.9802C40.9839 10.929 40.9839 10.929 40.9338 10.8779L40.8336 10.7756L40.6832 10.6221C40.583 10.5198 40.4828 10.3663 40.3825 10.2129C40.2322 9.9571 40.132 9.65017 40.0818 9.34324C39.9816 8.78053 40.132 8.21783 40.3825 7.80859C40.6331 7.39935 40.9839 7.14357 41.3347 7.04126C41.6855 6.93895 41.9862 6.9901 42.2368 7.09241C42.337 7.14357 42.4372 7.19472 42.5375 7.19472C42.5876 7.24587 42.6878 7.29704 42.7379 7.29704C42.8382 7.34819 42.8883 7.39934 42.8883 7.39934L42.8382 7.50165C42.8382 7.50165 42.7881 7.4505 42.6878 7.39934C42.6377 7.39934 42.5876 7.34819 42.4874 7.29704C42.3871 7.24588 42.337 7.24588 42.2368 7.24588C42.0363 7.19472 41.7858 7.19473 41.4851 7.29704C41.2345 7.39935 40.9338 7.65511 40.7835 7.96205C40.6331 8.32013 40.5329 8.72938 40.6331 9.18977C40.7333 9.65017 40.9839 10.0083 41.4851 10.3152C41.9361 10.6221 42.4874 10.929 43.0386 11.1337C43.64 11.3383 44.2414 11.5429 44.8929 11.5429C45.5444 11.5941 46.1457 11.3894 46.5467 10.9291L46.6469 10.7756L46.697 10.6733C46.697 10.6221 46.7471 10.571 46.7471 10.5198L46.8474 10.2129L46.8975 10.1617V10.1106L46.9476 9.9571C46.9977 9.75248 46.9977 9.59901 47.0478 9.39439C47.0478 9.18977 47.0478 9.03631 47.0478 8.83169C47.0478 8.06436 46.8474 7.34818 46.4464 6.68317C46.0455 6.01815 45.4441 5.45545 44.7425 4.9439C43.3393 3.97195 41.5352 3.51155 39.7812 3.61386C38.8791 3.66502 37.977 3.97195 37.1752 4.33004C36.3733 4.73928 35.6216 5.30198 35.2207 6.12047C35.1205 6.32509 34.9701 6.58086 34.92 6.78548C34.8198 6.9901 34.7697 7.19472 34.7697 7.45049C34.7196 7.91089 34.7697 8.37129 34.8699 8.83169C35.1205 9.75248 35.5715 10.6221 36.0225 11.4406C36.5237 12.2591 36.9747 13.1287 37.3756 13.9472C37.7766 14.8168 38.1274 15.6865 38.1775 16.7096C38.2276 16.9654 38.1775 17.17 38.1775 17.4257C38.1775 17.5281 38.1775 17.6304 38.1274 17.7838L38.0271 18.1419C37.8768 18.6023 37.6763 19.0627 37.4258 19.4719C36.9246 20.2904 36.2731 20.9043 35.6717 21.467C35.3711 21.7739 35.0704 22.0297 34.8699 22.3366C34.7196 22.4901 34.6193 22.6436 34.5191 22.7459C34.4189 22.8993 34.2685 23.104 34.2184 23.2063C33.8676 23.769 33.7674 24.4852 33.8175 25.1502C33.8175 25.8152 34.018 26.4802 34.2184 27.0941C34.4189 27.7079 34.6694 28.2706 34.9701 28.7822C35.5214 29.8053 36.0727 30.6749 36.5237 31.3911C36.9747 32.1073 37.3756 32.6188 37.6763 32.9769C37.977 33.335 38.0773 33.5396 38.0773 33.5396V34Z" fill="#FFF4C1"/>
<path d="M47.0018 33C47.0018 33 46.8485 32.8947 46.5419 32.6842C46.2353 32.4737 45.8266 32.1053 45.3667 31.5789C44.9068 31.0526 44.3958 30.3684 43.8849 29.5263C43.3739 28.6842 42.914 27.6842 42.5053 26.4737C42.1476 25.3158 41.8921 23.9474 42.0454 22.4737C42.0965 22.3158 42.0965 22.1053 42.1476 21.9474C42.1987 21.7895 42.1987 21.6316 42.2498 21.4211C42.352 21.0526 42.4542 20.6842 42.6074 20.3684C42.8629 19.6842 43.2717 19 43.7827 18.421C44.0382 18.1053 44.3447 17.8947 44.7024 17.6842C45.0601 17.4737 45.4178 17.3158 45.8266 17.2631C46.0309 17.2105 46.2353 17.2632 46.4397 17.2105C46.6441 17.2632 46.8485 17.2632 47.0529 17.3158C47.2573 17.3684 47.4106 17.4211 47.615 17.4737L48.177 17.6842C49.6077 18.3158 50.8852 19.2632 52.2137 20.0526C53.5422 20.8421 54.9218 21.3684 56.3525 21.2632C57.0168 21.2105 57.6811 21 58.1409 20.5789C58.6008 20.1579 58.9074 19.5789 58.9074 18.9474C58.9585 18.3158 58.7541 17.7368 58.3964 17.2631C58.2431 17.0526 57.9876 16.8421 57.7833 16.6842C57.5278 16.5263 57.2723 16.3684 57.0168 16.2632C56.7613 16.1579 56.4547 16.1053 56.1481 16.0526C55.8416 16 55.535 15.9474 55.1773 15.8947C54.5641 15.7895 53.8999 15.6316 53.3378 15.3684C52.7757 15.1053 52.2137 14.6842 51.856 14.2105C51.4983 13.6842 51.345 13.1053 51.2939 12.5789C51.2428 12.0526 51.2939 11.5789 51.3961 11.1053C51.4983 10.6842 51.6516 10.2632 51.8049 9.94736C52.0093 9.63157 52.2137 9.36842 52.4692 9.21052C52.7246 9.05263 52.9801 9 53.1845 9C53.2867 9 53.3889 9 53.44 9.05263C53.4911 9.05263 53.5933 9.10526 53.5933 9.10526C53.6955 9.15789 53.7466 9.15789 53.7466 9.15789L53.6955 9.26316C53.6955 9.26316 53.6444 9.26316 53.5422 9.26316C53.4911 9.26316 53.44 9.26316 53.3889 9.26316C53.3378 9.26316 53.2356 9.26316 53.1845 9.26316C52.8268 9.31579 52.4181 9.63157 52.2137 10.2105C52.0093 10.7895 51.8049 11.6842 51.9582 12.5263C52.0604 12.9474 52.2137 13.3684 52.5203 13.7368C52.8268 14.1053 53.2356 14.3684 53.6955 14.5263C54.2065 14.7368 54.7685 14.8421 55.3306 14.8947C55.6372 14.9474 55.9438 14.9474 56.2503 15C56.608 15.0526 56.9657 15.1053 57.3234 15.2632C58.0387 15.4737 58.7541 15.9474 59.2651 16.6316C59.776 17.3158 60.0826 18.2105 59.9804 19.0526C59.9293 19.9474 59.4695 20.7895 58.8052 21.3684C58.1409 21.9474 57.2212 22.2105 56.4036 22.2105C55.9949 22.2105 55.535 22.1579 55.1773 22.1053C54.9729 22.0526 54.7685 22 54.5641 21.9474C54.3598 21.8947 54.1554 21.7895 54.0021 21.7368C53.2356 21.421 52.5714 21 51.9071 20.5263C50.6297 19.6316 49.4544 18.5263 48.0748 17.9474C47.7172 17.7895 47.3595 17.6842 47.0018 17.6316C46.8485 17.5789 46.6441 17.5789 46.4908 17.5789C46.3375 17.5789 46.1331 17.5789 45.9798 17.6316C45.2645 17.7895 44.7024 18.2105 44.2936 18.7895C43.8849 19.3684 43.5783 20 43.425 20.6316C43.3228 20.9474 43.2717 21.3158 43.1695 21.6316C43.1184 21.7895 43.1184 21.9474 43.0673 22.1579C43.0162 22.3158 43.0162 22.4737 43.0162 22.6316C42.9651 22.9474 43.0162 23.2631 42.9651 23.5789C43.0162 23.8947 43.0162 24.2105 43.0673 24.5263C43.1184 25.1579 43.2717 25.7368 43.425 26.2632C43.7316 27.3684 44.1404 28.3684 44.5491 29.2105C44.9579 30.0526 45.4178 30.7895 45.7755 31.3158C46.1842 31.8947 46.4908 32.2631 46.7463 32.5263C47.0018 32.7895 47.1551 32.9474 47.1551 32.9474L47.0018 33Z" fill="#FFF4C1"/>
<path d="M63 40C63 41.6552 61.6595 43 60.0097 43H17.9903C16.3405 43 15 41.6552 15 40C15 38.3448 16.3405 37 17.9903 37H60.0612C61.6595 37 63 38.3448 63 40Z" fill="#01203C"/>
</svg>
