<svg width="131" height="158" viewBox="0 0 131 158" fill="none" xmlns="http://www.w3.org/2000/svg">
<path d="M116.656 92.9604L114.997 88.2673C124.815 84.8165 125.091 82.0559 125.161 81.7108C125.161 80.6756 123.432 78.9502 120.044 77.6388C115.273 75.8444 106.354 81.9178 103.588 84.1954L100.408 80.3305C101.722 79.2262 113.476 69.84 121.773 72.9457C127.097 74.9472 130.139 78.122 130.139 81.7108C130.07 86.1278 125.645 89.7857 116.656 92.9604Z" fill="#02284A"/>
<path d="M14.1879 92.9603C5.19945 89.7855 0.774372 86.1277 0.70523 81.7797C0.636088 78.1908 3.74748 75.0161 9.07141 73.0146C17.3684 69.9089 29.1226 79.2951 30.4363 80.3993L27.2557 84.2642C24.49 81.9867 15.5016 75.9133 10.8 77.7077C7.412 78.95 5.68346 80.6754 5.68346 81.7797C5.68346 82.0557 6.02915 84.8854 15.8473 88.3362L14.1879 92.9603Z" fill="#02284A"/>
<path d="M24.2824 129.539C24.2824 129.539 15.6397 171.156 36.728 133.818C57.8162 96.5496 24.2824 129.539 24.2824 129.539Z" fill="#02284A"/>
<path d="M106.077 129.539C106.077 129.539 114.72 171.156 93.6317 133.818C72.5434 96.4804 106.077 129.539 106.077 129.539Z" fill="#02284A"/>
<path d="M75.4473 137.821C75.4473 137.821 74.3411 180.266 62.3104 139.201C50.3488 98.1367 75.4473 137.821 75.4473 137.821Z" fill="#02284A"/>
<path d="M39.6321 54.4492C39.6321 54.4492 -0.608515 77.9147 11.837 114.286C26.426 157.007 114.789 151.072 120.528 111.457C126.267 71.8413 89.4143 54.4492 89.4143 54.4492H39.6321Z" fill="#014B6E"/>
<path d="M111.677 73.7739C115.549 81.8488 117.693 91.7871 115.964 103.796C110.709 139.891 36.8658 148.035 12.8044 116.84C29.9516 156.8 114.927 150.382 120.528 111.526C122.878 95.376 118.108 82.8841 111.677 73.7739Z" fill="#02284A"/>
<path d="M37.7647 69.5641C48.2743 73.567 58.9913 75.8445 70.2614 76.5347C81.6007 77.1558 93.0091 76.6037 104.279 75.2234C106.838 74.8783 109.396 74.5332 111.954 74.1881C102.551 60.73 89.4137 54.5186 89.4137 54.5186H39.6316C39.6316 54.5186 33.3396 58.1764 26.5637 64.871C30.2282 66.5274 33.9619 68.1147 37.7647 69.5641Z" fill="#02284A"/>
<path d="M23.9364 78.2597C23.9364 78.2597 14.948 82.9528 18.1977 101.656C21.4473 120.36 46.7533 130.919 55.6726 122.016C64.661 113.044 53.6675 109.386 45.0939 106.97C36.5203 104.555 46.9607 89.0953 37.9722 80.5373C28.9838 71.9102 23.9364 78.2597 23.9364 78.2597Z" fill="#01203C"/>
<path d="M107.944 53.345C107.944 46.9955 88.377 41.8193 64.2464 41.8193C40.1159 41.8193 20.5488 46.9955 20.5488 53.345C20.5488 54.1042 20.5488 57.0029 20.5488 57.693C20.5488 64.0425 40.1159 69.2187 64.2464 69.2187C88.377 69.2187 107.944 64.0425 107.944 57.693C107.944 57.0029 107.944 54.1042 107.944 53.345Z" fill="#014B6E"/>
<path d="M64.2465 61.9034C82.5376 61.9034 97.3655 58.1337 97.3655 53.4835C97.3655 48.8332 82.5376 45.0635 64.2465 45.0635C45.9554 45.0635 31.1276 48.8332 31.1276 53.4835C31.1276 58.1337 45.9554 61.9034 64.2465 61.9034Z" fill="#02284A"/>
<path d="M64.247 61.9028C75.7937 61.9028 85.9576 60.3844 91.9038 58.1069C91.4889 54.173 79.0434 48.9277 63.6939 48.9277C48.8975 48.9277 36.7977 53.7589 35.5531 57.6928C41.361 60.2464 52.0089 61.9028 64.247 61.9028Z" fill="#FFE972"/>
<path d="M55.8801 22.0803C53.1144 20.631 51.2476 18.4915 50.2104 15.6618C49.519 13.7294 49.4499 11.7969 49.9339 9.79547C50.4179 7.79401 51.3859 6.0686 52.7687 4.55025C54.1515 3.03189 55.8109 1.92764 57.7469 1.30649C60.5817 0.340265 63.2091 0.478297 65.8365 1.65157C68.3948 2.82485 70.2616 4.96435 71.2987 8.07007C72.3359 11.1068 72.2667 14.0745 70.953 16.9041C69.7085 19.7338 67.5651 21.6662 64.5228 22.7015C61.5497 23.6677 58.6458 23.4607 55.8801 22.0803Z" fill="#FFE972"/>
<path d="M65.9061 1.58289C63.7627 0.616666 61.481 0.340602 59.1301 0.892731C60.4438 0.754698 61.6884 0.961748 62.9329 1.51388C64.7306 2.34207 65.9752 3.7914 66.7358 5.9309C67.4963 8.00139 67.358 10.0719 66.5283 12.0043C65.6295 13.9368 64.1775 15.2481 62.1033 16.0073C60.029 16.7664 58.0239 16.6284 56.0879 15.5932C54.1519 14.6269 52.9074 13.1086 52.216 11.1761C51.732 9.86483 51.732 8.55352 52.0777 7.1732C52.4234 5.79287 53.0457 4.6196 54.0136 3.58436C54.1519 3.44633 54.2211 3.37731 54.3594 3.23928C53.8754 3.65338 53.3222 4.06747 52.9074 4.55058C51.5245 6.06894 50.5565 7.79434 50.0725 9.79581C49.5886 11.7973 49.6577 13.7297 50.3491 15.6622C51.3171 18.4918 53.2531 20.7004 56.0188 22.0807C58.7844 23.53 61.6884 23.7371 64.7998 22.6328C67.7729 21.5976 69.9163 19.6651 71.23 16.8355C72.4745 14.0058 72.6128 11.1071 71.5757 8.00139C70.262 4.89566 68.4643 2.75617 65.9061 1.58289Z" fill="#D0C22F"/>
<path d="M80.2183 31.3287C78.4206 30.4315 77.2452 29.0512 76.6229 27.1878C76.208 25.9455 76.1389 24.7032 76.4846 23.4609C76.8303 22.2186 77.3834 21.0453 78.2823 20.0791C79.1811 19.1129 80.2183 18.4227 81.4628 18.0086C83.2605 17.3875 84.9891 17.4565 86.6485 18.2157C88.3079 18.9749 89.4833 20.3552 90.1747 22.3566C90.8661 24.2891 90.797 26.1525 89.9673 28.016C89.1376 29.8104 87.8239 31.0527 85.8879 31.6738C83.8136 32.364 81.9468 32.295 80.2183 31.3287Z" fill="#FFE972"/>
<path d="M86.5791 18.2845C85.1963 17.6634 83.7443 17.5253 82.2923 17.8704C83.122 17.8014 83.9517 17.8704 84.7123 18.2845C85.8185 18.7676 86.6483 19.7338 87.1322 21.1142C87.6162 22.4255 87.5471 23.7368 86.994 24.9791C86.4408 26.2214 85.4728 27.0496 84.1592 27.5327C82.8455 28.0158 81.5318 27.9468 80.2872 27.2566C79.0426 26.6355 78.2129 25.6692 77.7981 24.4269C77.5215 23.5987 77.4524 22.7015 77.6598 21.8733C77.8672 21.0452 78.2821 20.217 78.9044 19.5958C78.9735 19.5268 79.0426 19.4578 79.1118 19.3888C78.7661 19.6648 78.4895 19.9409 78.1438 20.217C77.245 21.1832 76.6227 22.2874 76.3461 23.5988C76.0004 24.841 76.0695 26.0833 76.4844 27.3256C77.1067 29.12 78.3512 30.5004 80.0798 31.4666C81.8775 32.3638 83.7443 32.5018 85.6803 31.8117C87.6162 31.1215 88.9299 29.9482 89.7597 28.1538C90.5894 26.3594 90.6585 24.496 89.9671 22.4945C89.3448 20.424 88.2385 19.0437 86.5791 18.2845Z" fill="#D0C22F"/>
<path d="M62.2416 35.1937C61.2736 34.7106 60.6513 34.0204 60.3056 33.0542C60.0982 32.4331 60.029 31.7429 60.2364 31.0527C60.3747 30.3626 60.7204 29.8104 61.2044 29.2583C61.6884 28.7752 62.2416 28.3611 62.8638 28.1541C63.8318 27.809 64.7307 27.878 65.5604 28.2921C66.4592 28.7062 67.0815 29.3963 67.4272 30.4316C67.7729 31.4668 67.7729 32.4331 67.2889 33.3993C66.8741 34.3655 66.1135 34.9866 65.1455 35.3317C64.1775 35.7458 63.1404 35.6768 62.2416 35.1937Z" fill="#FFE972"/>
<path d="M65.629 28.2923C64.8685 27.9472 64.1079 27.8782 63.3474 28.0852C63.7622 28.0162 64.2462 28.0852 64.6611 28.2923C65.2833 28.5683 65.6982 29.0514 65.9056 29.8106C66.1822 30.5008 66.113 31.1909 65.8365 31.8811C65.5599 32.5713 65.0759 32.9854 64.3845 33.1924C63.6931 33.4685 63.0017 33.3995 62.3794 33.0544C61.7571 32.7093 61.2731 32.2262 61.0657 31.536C60.9274 31.1219 60.9274 30.6388 60.9965 30.1557C61.0657 29.6726 61.3423 29.2585 61.688 28.9134C61.7571 28.8444 61.7571 28.8444 61.8262 28.7754C61.6188 28.9134 61.4805 29.0514 61.3423 29.2585C60.8583 29.7416 60.5817 30.3627 60.3743 31.0529C60.236 31.7431 60.236 32.3642 60.4434 33.0544C60.7891 34.0206 61.4114 34.7798 62.3794 35.1939C63.3474 35.677 64.3154 35.746 65.3525 35.4009C66.3896 35.0558 67.081 34.4347 67.4959 33.4685C67.9107 32.5022 67.9799 31.536 67.6342 30.5008C67.081 29.3965 66.4587 28.6373 65.629 28.2923Z" fill="#D0C22F"/>
<path d="M46.6147 32.9163C46.0615 32.6403 45.6467 32.1572 45.4393 31.605C45.301 31.1909 45.301 30.8458 45.3701 30.4318C45.4393 30.0177 45.6467 29.6726 45.9232 29.3275C46.1998 29.0514 46.5455 28.7754 46.9604 28.6373C47.5135 28.4303 48.0667 28.4303 48.6198 28.7063C49.1729 28.9134 49.5186 29.3965 49.7261 30.0177C49.9335 30.6388 49.9335 31.2599 49.6569 31.8121C49.3804 32.3642 48.9655 32.7783 48.3432 32.9854C47.7901 33.2614 47.2369 33.1924 46.6147 32.9163Z" fill="#FFE972"/>
<path d="M48.6889 28.7064C48.2741 28.4994 47.7901 28.4304 47.3061 28.5684C47.5827 28.5684 47.8592 28.5684 48.0667 28.7064C48.4124 28.8445 48.6889 29.1895 48.8272 29.6036C48.9655 30.0177 48.9655 30.4318 48.7581 30.8459C48.5506 31.26 48.2741 31.5361 47.8592 31.6741C47.4444 31.8122 47.0295 31.8122 46.6147 31.6051C46.1998 31.3981 45.9233 31.122 45.785 30.7079C45.7158 30.4318 45.6467 30.1558 45.7158 29.8797C45.785 29.6036 45.9233 29.3276 46.1307 29.1205L46.1998 29.0515C46.0615 29.1205 45.9924 29.1895 45.9232 29.3276C45.6467 29.6727 45.4393 30.0177 45.3701 30.4318C45.301 30.8459 45.301 31.26 45.4393 31.6051C45.6467 32.2262 46.0615 32.6403 46.6147 32.9164C47.1678 33.1925 47.7901 33.2615 48.4124 33.0544C49.0346 32.8474 49.4495 32.4333 49.7261 31.8812C50.0026 31.329 50.0026 30.7079 49.7952 30.0867C49.5878 29.3966 49.2421 28.9825 48.6889 28.7064Z" fill="#D0C22F"/>
<path d="M49.2427 44.2347C48.2747 43.7516 47.6524 43.0614 47.3067 42.0952C47.0993 41.4741 47.0301 40.7839 47.2376 40.0937C47.3758 39.4036 47.7215 38.8515 48.2055 38.2993C48.6895 37.8162 49.2427 37.4021 49.8649 37.1951C50.8329 36.85 51.7318 36.919 52.5615 37.3331C53.4603 37.7472 54.0826 38.4374 54.4283 39.4726C54.774 40.5078 54.774 41.4741 54.29 42.4403C53.8752 43.4065 53.1146 44.0277 52.1466 44.3727C51.1786 44.7868 50.2107 44.7178 49.2427 44.2347Z" fill="#FFE972"/>
<path d="M52.6303 37.3333C51.8697 36.9882 51.1092 36.9192 50.3486 37.1262C50.7635 37.0572 51.2474 37.1262 51.6623 37.3333C52.2846 37.6093 52.6994 38.0925 52.9068 38.8516C53.1834 39.5418 53.1143 40.232 52.8377 40.9221C52.5611 41.6123 52.0771 42.0264 51.3857 42.2334C50.6943 42.5095 50.0029 42.4405 49.3806 42.0954C48.7583 41.7503 48.2743 41.2672 48.0669 40.577C47.9286 40.1629 47.9286 39.6798 47.9978 39.1967C48.136 38.7136 48.3435 38.2995 48.6892 37.9544C48.7583 37.8854 48.7583 37.8854 48.8275 37.8164C48.62 37.9544 48.4818 38.0925 48.3435 38.2995C47.8595 38.7826 47.5829 39.4038 47.3755 40.0939C47.2372 40.7841 47.2372 41.4052 47.4446 42.0954C47.7903 43.0616 48.4126 43.8208 49.3806 44.2349C50.3486 44.718 51.3166 44.787 52.3537 44.4419C53.3908 44.0969 54.0823 43.4757 54.4971 42.5095C54.912 41.5433 54.9811 40.577 54.6354 39.5418C54.0823 38.4375 53.46 37.6784 52.6303 37.3333Z" fill="#D0C22F"/>
<path d="M74.0639 47.0647C72.7502 46.3745 71.9205 45.4083 71.4365 44.097C71.1599 43.1998 71.0908 42.3026 71.2982 41.4054C71.5056 40.5082 71.9896 39.68 72.6119 38.9898C73.2342 38.2996 73.9948 37.8165 74.8936 37.4714C76.2073 37.0573 77.4518 37.0573 78.6273 37.6095C79.8027 38.1616 80.6324 39.1278 81.1855 40.5772C81.6695 41.9575 81.6004 43.3378 81.0472 44.6491C80.4941 45.9604 79.457 46.8576 78.0741 47.3407C76.6913 47.8239 75.3776 47.7548 74.0639 47.0647Z" fill="#FFE972"/>
<path d="M78.697 37.6089C77.6599 37.1258 76.6227 37.0568 75.5856 37.2639C76.2079 37.1948 76.761 37.2639 77.3142 37.5399C78.1439 37.885 78.697 38.5752 79.0427 39.6104C79.3884 40.5766 79.3193 41.5429 78.9736 42.4401C78.5587 43.3373 77.8673 43.9584 76.9684 44.3035C76.0005 44.6486 75.1016 44.5796 74.2028 44.0965C73.3039 43.6133 72.7508 42.9922 72.4051 42.026C72.1976 41.4048 72.1976 40.7837 72.3359 40.1625C72.4742 39.5414 72.8199 38.9893 73.2348 38.5062C73.3039 38.4371 73.3731 38.3681 73.3731 38.3681C73.1656 38.5752 72.8891 38.7822 72.6816 38.9893C72.0594 39.6794 71.5754 40.5076 71.3679 41.4048C71.1605 42.302 71.1605 43.1992 71.5062 44.0965C71.9902 45.4078 72.8199 46.443 74.1336 47.0641C75.4473 47.7543 76.761 47.8233 78.213 47.3402C79.5958 46.8571 80.5638 45.9599 81.1861 44.6486C81.8084 43.3373 81.8084 41.957 81.3244 40.5766C80.7712 39.1273 79.8724 38.1611 78.697 37.6089Z" fill="#D0C22F"/>
<path d="M48.4819 56.3126C48.4819 57.969 55.0504 59.3493 63.2092 59.3493C71.3679 59.3493 77.9364 57.969 77.9364 56.3126C77.9364 54.6562 71.3679 53.2759 63.2092 53.2759C55.0504 53.2759 48.4819 54.6562 48.4819 56.3126Z" fill="#D0C22F"/>
<path d="M45.5782 59.4873C45.5782 59.4873 42.6051 79.9161 47.7216 79.709C52.8381 79.502 49.7267 65.4917 51.801 65.3537C53.8061 65.2156 52.9764 71.7032 56.5718 71.5651C60.1671 71.4271 59.6832 60.9366 59.6832 60.9366L45.5782 59.4873Z" fill="#FFE972"/>
<path d="M72.7511 60.4536C72.7511 60.4536 73.3734 67.6313 75.7242 67.6313C78.1442 67.6313 77.5219 62.5931 79.3196 62.5931C81.1173 62.5931 78.6281 72.2553 82.9149 72.3934C87.2017 72.5314 85.1966 61.2818 86.7178 61.1437C88.308 61.0057 87.34 65.3537 89.3452 65.3537C91.3503 65.3537 94.0468 58.6592 91.0046 56.8647C88.1006 55.0703 72.7511 60.4536 72.7511 60.4536Z" fill="#FFE972"/>
<path d="M83.6749 75.4988C83.6749 75.4988 79.3881 74.0495 80.5635 80.0539C81.7389 86.0583 88.9297 78.3975 83.6749 75.4988Z" fill="#FFE972"/>
</svg>
