<svg width="113" height="80" viewBox="0 0 113 80" fill="none" xmlns="http://www.w3.org/2000/svg">
<path d="M35.3127 29.2822C34.3978 27.4525 33.4829 25.688 32.5027 23.8583C31.5225 22.0938 30.5422 20.2641 29.562 18.4343C29.1046 17.5194 28.6471 16.6699 28.1897 15.755C27.7322 14.8401 27.2094 13.9252 26.752 12.945C26.752 12.945 26.752 12.945 26.752 12.8796C26.3599 12.0954 25.9678 11.3112 25.5757 10.4617C25.1183 9.54681 24.7262 8.56657 24.2687 7.65169C24.0727 7.19424 23.8113 6.7368 23.6152 6.27936C23.4845 6.08331 23.4192 5.82192 23.2885 5.62587C23.2231 5.49517 23.2231 5.42982 23.1578 5.29912C23.0924 5.23378 23.0924 5.16842 22.9617 5.10308C22.7657 5.03773 22.635 5.16843 22.5696 5.29912C22.5696 5.42982 22.5696 5.56052 22.635 5.62587C22.7003 5.88727 22.831 6.21401 22.8964 6.47541C23.0924 7.06355 23.3538 7.65169 23.6152 8.17448C24.0073 9.15472 24.3994 10.135 24.7915 11.0498C25.1836 12.0301 25.6411 12.945 26.0985 13.8598C27.0134 15.6896 27.8629 17.5194 28.7778 19.3492C29.6927 21.179 30.6729 23.0087 31.5878 24.9038C31.5878 24.9692 31.6532 25.0345 31.6532 25.0999C32.0453 25.8841 32.4374 26.6029 32.8295 27.3871C32.8295 27.4525 32.8948 27.5178 32.8948 27.5178C32.8948 27.5832 32.9602 27.5832 32.9602 27.6485C33.2869 28.2367 33.5483 28.8901 33.875 29.4783C34.7899 31.1774 35.7048 32.8764 36.6197 34.5755C36.7504 34.7716 37.0118 34.9023 37.2078 34.9023C37.3385 34.9023 37.4692 34.9023 37.5346 34.8369C37.8613 34.6409 37.992 34.1834 37.796 33.8567C37.0771 32.5497 36.1623 30.916 35.3127 29.2822Z" fill="#014B6E"/>
<path d="M70.4054 3.60021C70.5361 3.07742 70.6668 2.61997 70.8629 2.09718C70.9282 1.83578 70.9936 1.63974 71.0589 1.37835C71.0589 1.24765 71.1243 1.1823 71.1243 1.0516C71.1243 0.986251 71.1896 0.855553 71.1896 0.724855C71.1896 0.528808 70.9282 0.398108 70.7322 0.528806C70.6015 0.594155 70.5361 0.7902 70.4708 0.986247C70.4054 1.18229 70.3401 1.31299 70.2747 1.50904C70.144 1.90114 70.0133 2.29323 69.8826 2.61997C69.2291 4.5151 68.641 6.47558 68.1182 8.43605C67.5954 10.3965 67.138 12.4223 66.6152 14.3828C66.1577 16.3433 65.6349 18.3691 65.1775 20.3296C64.6547 22.2901 64.1973 24.3159 63.7398 26.2763C63.2824 28.1715 62.8903 30.0666 62.4982 31.8964C62.4328 32.1578 62.3675 32.4192 62.3675 32.6805C62.3021 33.0073 62.5635 33.3994 62.9556 33.3994H63.021C63.2824 33.3994 63.6091 33.2034 63.6745 32.942C63.7398 32.6152 63.8052 32.2231 63.8705 31.8964C63.9359 31.5696 64.0012 31.2429 64.0666 30.9161V30.9815C64.1319 30.7201 64.1973 30.4587 64.2626 30.1973C64.7201 28.2368 65.1775 26.2763 65.5696 24.3812C65.831 23.401 66.027 22.4207 66.2884 21.3752C66.5498 20.3949 66.7459 19.3493 67.0073 18.3691C67.4647 16.4086 67.9222 14.3828 68.3796 12.357C68.837 10.3965 69.2945 8.43605 69.7519 6.47558C69.8173 5.62604 70.0787 4.6458 70.4054 3.60021Z" fill="#014B6E"/>
<path d="M31.1306 10.3312C31.392 11.246 31.7188 12.2263 31.9802 13.1412C32.2416 14.0561 32.5683 14.9709 32.8951 15.8205C33.5486 17.7156 34.1367 19.6107 34.7902 21.5059C34.7902 21.5712 34.8555 21.6365 34.8555 21.7019C35.1823 22.5514 35.509 23.4663 35.8358 24.3159C35.9665 24.7733 36.1625 25.1654 36.2932 25.6228C36.4239 26.0149 36.62 26.4724 36.7507 26.8645C36.816 27.1259 37.0774 27.2566 37.3388 27.2566C37.4042 27.2566 37.4695 27.2566 37.6002 27.1912C37.9269 27.0605 38.0576 26.6684 37.9269 26.407C37.7962 26.0803 37.6655 25.8189 37.5349 25.4921C37.4042 25.1654 37.2735 24.8387 37.1428 24.5773C36.8814 23.9891 36.6853 23.3356 36.4239 22.7475C36.0972 21.8326 35.7704 20.9831 35.4437 20.0682C35.1169 19.1533 34.7902 18.2384 34.4634 17.3889C33.81 15.5591 33.1565 13.7293 32.503 11.8995C32.3069 11.3114 32.1109 10.7233 31.9148 10.1351C31.8495 9.80836 31.7188 9.54697 31.6534 9.22023C31.5881 8.95883 31.5227 8.76278 31.4574 8.50138V8.56674C31.4574 8.37069 31.3267 8.23999 31.1306 8.23999C30.9346 8.23999 30.8039 8.37069 30.8039 8.56674C30.8039 8.82813 30.8692 9.08953 30.9346 9.35092C30.9346 9.67767 30.9999 10.0044 31.1306 10.3312Z" fill="#014B6E"/>
<path d="M20.0208 18.761C20.0862 18.8917 20.1515 18.9571 20.2169 19.0878C20.4129 19.4799 20.6743 19.872 20.8704 20.2641C21.3931 21.1136 21.9159 21.8978 22.4387 22.682C22.9615 23.4662 23.4843 24.3157 24.0725 25.0999C24.2685 25.4267 24.5299 25.7534 24.7259 26.0801C25.7715 27.6485 26.8825 29.1515 27.9281 30.7199C28.0588 30.916 28.2548 30.9813 28.4508 30.9813C28.5815 30.9813 28.7122 30.916 28.8429 30.8506C29.1043 30.6546 29.1697 30.1971 28.9736 29.9357C28.3855 29.0862 27.7974 28.302 27.1439 27.4525C26.0329 25.8841 24.922 24.3811 23.7457 22.8127C23.1576 22.0285 22.5694 21.2443 21.9813 20.3948C21.7199 20.0027 21.3931 19.6106 21.1317 19.2185C21.0011 19.0224 20.8704 18.8264 20.6743 18.6303C20.5436 18.4996 20.4129 18.3036 20.3476 18.1729C20.3476 18.1076 20.2822 18.1076 20.2169 18.0422C20.0862 17.9769 19.9555 18.0422 19.8901 18.1075C19.8248 18.1729 19.8248 18.3036 19.8248 18.4343C19.8901 18.565 19.9555 18.6303 20.0208 18.761Z" fill="#014B6E"/>
<path d="M62.7593 12.4223C62.8246 11.4421 62.89 10.5272 62.9553 9.54697C63.0207 8.63209 63.086 7.7172 63.1514 6.73696C63.1514 6.27952 63.2167 5.82207 63.2167 5.36463C63.2167 5.16858 63.2167 4.90718 63.2167 4.71114C63.2167 4.58044 63.2167 4.51509 63.2167 4.38439C63.2167 4.31904 63.2167 4.2537 63.1514 4.18835C63.086 4.05765 62.8246 3.9923 62.6939 4.123C62.6939 4.123 62.6939 4.18835 62.6286 4.18835C62.5632 4.2537 62.5632 4.31904 62.5632 4.38439C62.5632 4.44974 62.5632 4.58044 62.4979 4.64579C62.4979 4.84184 62.4325 5.10324 62.4325 5.29928C62.3672 5.75673 62.3018 6.21416 62.2365 6.67161C62.1058 7.5865 62.0404 8.50139 61.9097 9.41628C61.7137 11.2461 61.4523 13.1412 61.2562 14.9709C61.1255 15.8858 61.0602 16.8007 60.9295 17.7156C60.8641 18.1731 60.7988 18.6305 60.7988 19.0226C60.7334 19.48 60.6681 20.0028 60.6681 20.4603C60.6681 20.591 60.7334 20.787 60.8641 20.9177C60.9948 21.0484 61.1255 21.1138 61.3216 21.1138C61.6483 21.1138 61.9097 20.9177 61.9097 20.591C61.9097 20.5256 61.9097 20.5256 61.9097 20.4603C61.9751 20.0028 61.9751 19.5454 62.0404 19.0879C62.1058 18.6305 62.1058 18.1731 62.1711 17.7156C62.2365 16.8007 62.3672 15.8858 62.4325 14.9709C62.5632 14.3175 62.6939 13.4026 62.7593 12.4223Z" fill="#014B6E"/>
<path d="M74.5875 11.2461C74.4568 11.1807 74.2608 11.2461 74.1954 11.3768C73.934 11.8342 73.738 12.357 73.5419 12.8798C73.1498 13.8601 72.8231 14.8403 72.431 15.8205C72.1043 16.8008 71.7122 17.781 71.3854 18.7612C71.0587 19.7415 70.6666 20.6564 70.2745 21.5713C70.0784 22.0287 69.8824 22.4861 69.7517 22.9436C69.5556 23.401 69.3596 23.9238 69.1635 24.3813C69.0329 24.708 69.1635 25.1001 69.4903 25.2308C69.5556 25.2962 69.6863 25.2961 69.7517 25.2961C70.0131 25.2961 70.2745 25.1655 70.3398 24.9041C70.4705 24.512 70.6012 24.1199 70.7319 23.7931C70.8626 23.4664 70.9933 23.1396 71.124 22.7475C71.3854 22.0287 71.6468 21.3099 71.9082 20.5257V20.4603C72.3003 19.4147 72.6271 18.3038 72.9538 17.1929C73.2805 16.2126 73.5419 15.2324 73.8687 14.2522C73.9994 13.7947 74.1954 13.2719 74.3261 12.8145C74.3915 12.5531 74.4568 12.357 74.5222 12.0956C74.5875 11.9649 74.5875 11.8342 74.6529 11.7035C74.6529 11.6382 74.7182 11.5728 74.7182 11.5075C74.7836 11.5075 74.7182 11.3114 74.5875 11.2461Z" fill="#014B6E"/>
<path d="M13.7474 28.1715C14.4009 28.8904 15.1197 29.6092 15.7732 30.3281C16.4921 31.1123 17.2109 31.8311 17.9951 32.5499C18.3872 32.942 18.7793 33.3341 19.1714 33.7262C19.3674 33.9223 19.4981 34.053 19.6942 34.249C19.8902 34.4451 20.0863 34.6411 20.2823 34.8371C20.413 34.9025 20.5437 34.9678 20.6744 34.9678C20.8705 34.9678 21.0012 34.9025 21.1319 34.7718C21.3933 34.5104 21.3933 34.1183 21.1972 33.8569C21.0665 33.6609 20.8705 33.4648 20.6744 33.3341C20.5437 33.2034 20.3477 33.0074 20.217 32.8767C19.8902 32.5499 19.4981 32.1578 19.1714 31.8311C18.5179 31.1776 17.7991 30.5241 17.1456 29.8706C16.3614 29.0864 15.5118 28.3676 14.7277 27.5834C13.9435 26.8646 13.1593 26.2111 12.4404 25.4269C12.3097 25.2962 12.0483 25.2962 11.8523 25.4269C11.7216 25.5576 11.7216 25.819 11.7869 25.9497C12.4404 26.7992 13.0939 27.518 13.7474 28.1715Z" fill="#014B6E"/>
<path d="M3.22659 34.5757C3.35729 34.7064 3.55333 34.8371 3.68403 34.9678C4.01078 35.2292 4.33752 35.4253 4.66427 35.6866C5.38311 36.2094 6.1673 36.6669 6.95148 37.1897C8.71591 38.366 10.5457 39.4769 12.3755 40.5878C14.0745 41.6334 15.839 42.679 17.6034 43.6592C17.7341 43.7246 17.8648 43.7246 17.9301 43.7246C18.1915 43.7246 18.3876 43.5939 18.5183 43.3978C18.7143 43.0711 18.5836 42.6137 18.2569 42.4176C17.6034 42.0909 16.9499 41.6988 16.3617 41.3067C15.7736 40.9146 15.0548 40.5878 14.4666 40.1957C12.6369 39.1502 10.8071 38.1046 9.04265 37.059C8.06242 36.5362 7.14753 35.948 6.1673 35.4252C5.70985 35.1639 5.18706 34.9025 4.72962 34.5757C4.46822 34.445 4.27217 34.3143 4.01078 34.1836C3.81473 34.0529 3.61868 33.9876 3.42263 33.8569C3.42263 33.8569 3.42263 33.8569 3.35729 33.8569C3.22659 33.7915 3.09589 33.7915 3.03054 33.8569C2.89984 33.9222 2.83449 34.0529 2.89984 34.1836C3.03054 34.3797 3.09589 34.445 3.22659 34.5757Z" fill="#014B6E"/>
<path d="M29.8888 63.0677C29.3007 62.937 28.7125 62.8063 28.1244 62.741C27.4709 62.6103 26.8827 62.4796 26.2292 62.3489C25.249 62.1528 24.2688 61.9568 23.2885 61.7607C22.2429 61.5647 21.1974 61.3686 20.1518 61.1726C19.1062 60.9765 18.0606 60.7805 16.9497 60.5844C15.9041 60.3884 14.8585 60.1924 13.7476 59.9963C11.591 59.6042 9.43453 59.2121 7.27801 58.82C6.16707 58.624 5.12149 58.4279 4.01056 58.2319C3.48776 58.1665 2.96497 58.0358 2.44218 57.9705C1.91938 57.9051 1.39659 57.7744 0.873797 57.7091C0.743099 57.7091 0.612402 57.6437 0.481704 57.6437C0.416355 57.5784 0.351005 57.5784 0.220306 57.6437C0.0242592 57.7091 -0.0410868 57.9051 0.0242622 58.1012C0.0896113 58.2972 0.351005 58.3626 0.547052 58.4279H0.612405C0.677754 58.4279 0.808448 58.4933 0.873797 58.4933C1.91938 58.82 2.96497 59.0161 4.01056 59.2775C5.05614 59.5389 6.16708 59.7349 7.21266 59.9963C8.3236 60.2577 9.36918 60.4538 10.4801 60.7152C11.5257 60.9765 12.6366 61.1726 13.6822 61.434H13.6169C13.7476 61.434 13.8783 61.4993 14.009 61.4993C14.009 61.4993 14.009 61.4993 14.0743 61.4993H14.1397H14.205C14.2704 61.4993 14.3357 61.4993 14.4011 61.5647H14.4664C15.1199 61.6954 15.7734 61.8261 16.4269 61.9568C16.4922 61.9568 16.4922 61.9568 16.5576 61.9568H16.4922C16.5576 61.9568 16.6229 61.9568 16.6883 62.0221C17.015 62.0875 17.3418 62.1528 17.6685 62.2182C18.7141 62.4142 19.7597 62.6103 20.8053 62.8063C21.7855 63.0024 22.8311 63.1984 23.8113 63.3945C24.7916 63.5905 25.7718 63.7866 26.8174 63.9826C27.7323 64.1787 28.6472 64.3747 29.562 64.5054C29.6274 64.5054 29.6274 64.5054 29.6927 64.5054C30.0195 64.5054 30.3462 64.244 30.3462 63.9173C30.4769 63.5252 30.2809 63.1331 29.8888 63.0677Z" fill="#014B6E"/>
<path d="M111.902 42.0908C111.771 42.0908 111.641 42.1562 111.51 42.2215C111.183 42.3522 110.856 42.5483 110.53 42.679C109.876 43.0057 109.288 43.3324 108.635 43.6592C106.739 44.7048 104.844 45.685 102.949 46.7306C100.989 47.7762 99.0935 48.7564 97.1331 49.7367C95.1726 50.7822 93.2121 51.7625 91.317 52.8734C89.4872 53.8537 87.6575 54.9646 85.8277 56.0102C84.9128 56.533 84.0633 57.0557 83.2137 57.5785C82.7563 57.8399 82.3642 58.1013 81.9067 58.3627C81.4493 58.6241 81.0572 58.8855 80.5998 59.2123C80.273 59.4083 80.273 59.8658 80.4691 60.1925C80.5998 60.3886 80.7958 60.4539 80.9919 60.4539C81.1226 60.4539 81.2533 60.4539 81.3186 60.3886C81.58 60.2579 81.8414 60.0618 82.1028 59.9311C82.3642 59.8004 82.6256 59.6044 82.887 59.4737C83.3444 59.1469 83.8672 58.8855 84.3247 58.5588C86.0891 57.4478 87.9189 56.4023 89.7486 55.2913C90.6635 54.7685 91.6438 54.1804 92.5586 53.6576C93.4735 53.1348 94.4538 52.612 95.3686 52.0892C96.3489 51.5664 97.2638 51.0436 98.244 50.5208C99.1589 49.9981 100.139 49.4753 101.119 49.0178C103.08 47.9722 104.975 46.9266 106.87 45.8157C107.785 45.2929 108.765 44.7701 109.68 44.182C110.138 43.9206 110.595 43.6592 111.052 43.3324C111.248 43.2018 111.51 43.071 111.706 42.9404C111.837 42.875 111.902 42.8097 112.033 42.7443C112.098 42.679 112.163 42.679 112.163 42.6136C112.163 42.3522 112.033 42.0908 111.902 42.0908Z" fill="#014B6E"/>
<path d="M82.5601 53.8536C82.6908 53.9843 82.8869 54.115 83.0829 54.115C83.2136 54.115 83.2789 54.115 83.4096 54.0496C83.9324 53.7229 84.4552 53.3962 84.9127 53.1348C85.4355 52.808 85.8929 52.4813 86.4157 52.2199C87.2652 51.6971 88.1148 51.2396 88.9643 50.7168C89.8139 50.194 90.6634 49.7366 91.5129 49.2138C92.3625 48.691 93.212 48.1682 94.0615 47.6454C94.4536 47.3841 94.8457 47.1227 95.2378 46.9266C95.4339 46.7959 95.6299 46.6652 95.8913 46.5345C95.9567 46.4692 96.0874 46.4038 96.1527 46.3385C96.2181 46.3385 96.2181 46.2731 96.2834 46.2731C96.4141 46.1424 96.3488 45.881 96.1527 45.8157C96.022 45.7503 95.826 45.881 95.7606 45.9464C95.5646 46.0117 95.4339 46.1424 95.2378 46.2078C95.2378 46.2078 95.2378 46.2078 95.3032 46.2078C94.5843 46.5345 93.9308 46.9266 93.212 47.3187C92.3625 47.7761 91.4476 48.2989 90.598 48.7564C89.7485 49.2138 88.899 49.6713 88.0494 50.1287C87.1999 50.5861 86.285 51.1089 85.4355 51.5664C85.0434 51.8278 84.5859 52.0238 84.1938 52.2852C83.8017 52.5466 83.3443 52.7427 82.9522 53.0041C82.9522 53.0041 83.0175 53.0041 83.0175 52.9387C82.9522 52.9387 82.9522 53.0041 82.8869 53.0041C82.8215 53.0041 82.8215 53.0694 82.7562 53.0694C82.4294 53.1348 82.3641 53.5922 82.5601 53.8536Z" fill="#014B6E"/>
<path d="M28.6471 67.3808C28.3203 67.3154 27.9936 67.3154 27.6668 67.3154C27.4054 67.3154 27.144 67.2501 26.8827 67.2501C26.2945 67.1847 25.7064 67.1847 25.1182 67.1194H25.1836C24.8568 67.1194 24.5301 67.054 24.2687 67.054C23.3538 66.9887 22.4389 66.9233 21.524 66.858C21.4587 66.858 21.4587 66.858 21.3933 66.858H21.4587C21.3933 66.858 21.328 66.858 21.328 66.858H21.2626C21.1319 66.858 21.0666 66.858 20.9359 66.858C19.4982 66.7273 17.9952 66.7273 16.4921 66.5966C16.1654 66.5966 15.8387 66.5312 15.5119 66.5312C15.3812 66.5312 15.1852 66.5312 15.0545 66.5312C14.9891 66.5312 14.8584 66.5312 14.7931 66.5312C14.6624 66.5312 14.5317 66.6619 14.5317 66.7926C14.5317 66.9233 14.597 67.054 14.6624 67.054C14.8584 67.1847 15.1198 67.1847 15.3812 67.2501C15.708 67.3154 16.0347 67.3808 16.3614 67.3808C17.407 67.5115 18.3873 67.6422 19.4329 67.7729C20.4131 67.9036 21.3933 68.0343 22.4389 68.165C23.4191 68.2957 24.3994 68.4264 25.3796 68.4917C25.8371 68.5571 26.3599 68.6224 26.8173 68.6224C27.0133 68.6224 27.2747 68.6878 27.4708 68.6878C27.7322 68.6878 28.0589 68.7531 28.3203 68.7531C28.6471 68.7531 28.9738 68.4264 28.9738 68.0996C29.1699 67.7075 28.9738 67.3808 28.6471 67.3808Z" fill="#014B6E"/>
<path d="M13.2898 54.4417C13.9433 54.5724 14.5968 54.7684 15.185 54.8991C16.1652 55.1605 17.2108 55.3565 18.191 55.6179C19.1713 55.8793 20.1515 56.0754 21.1317 56.3368C22.112 56.5982 23.0922 56.7942 24.0724 56.9903C24.5299 57.121 24.9873 57.1863 25.4448 57.317C25.7062 57.3824 25.9022 57.3824 26.1636 57.4477C26.425 57.5131 26.6864 57.5784 26.9478 57.5784H27.0132C27.3399 57.5784 27.6667 57.317 27.732 56.9903C27.7973 56.6635 27.5359 56.3368 27.2092 56.2714C26.9478 56.2061 26.6864 56.1407 26.425 56.0754C24.4645 55.6833 22.5041 55.2259 20.4782 54.8338C19.498 54.6377 18.5178 54.4417 17.5375 54.2456C16.492 54.0496 15.5117 53.8535 14.4661 53.6575C13.4205 53.4614 12.4403 53.2654 11.3947 53.0693C10.8719 53.004 10.4145 52.9386 9.8917 52.8733C9.6303 52.8733 9.36891 52.8733 9.10751 52.8733C8.97681 52.8733 8.84611 52.8733 8.78076 52.9386C8.71542 52.9386 8.58472 53.004 8.51937 53.0693C8.45402 53.1347 8.38867 53.3307 8.51937 53.3961C8.51937 53.4614 8.58471 53.4614 8.65006 53.4614C8.71541 53.4614 8.78076 53.4614 8.84611 53.5268C8.97681 53.5268 9.04216 53.5268 9.17286 53.5921C9.36891 53.5921 9.56495 53.6575 9.761 53.6575C10.1531 53.7228 10.6105 53.7882 11.0026 53.9189C11.068 53.9189 11.1333 53.9189 11.1987 53.9842C11.9175 54.1149 12.6364 54.311 13.2898 54.4417Z" fill="#014B6E"/>
<path d="M12.3099 48.1029C12.5713 48.1683 12.8327 48.2336 13.0288 48.299C13.5516 48.4297 14.0743 48.5604 14.5971 48.6911C15.512 48.9525 16.4269 49.1485 17.3418 49.4099C17.7339 49.5406 18.1913 49.6059 18.5834 49.7366C18.8448 49.802 19.0409 49.8673 19.3023 49.9327C19.5637 49.998 19.8251 50.0634 20.0865 50.1287H20.1518C20.4132 50.1287 20.7399 49.9327 20.8053 49.6713C20.8706 49.3446 20.74 49.0178 20.4132 48.8871C20.1518 48.7564 19.8251 48.7564 19.5637 48.6911C19.3023 48.6257 19.0409 48.5604 18.7795 48.495C18.322 48.3643 17.7992 48.299 17.3418 48.1683C16.4269 47.9722 15.512 47.8415 14.5318 47.7108C14.0743 47.6455 13.6169 47.5801 13.1595 47.5148C12.9634 47.5148 12.702 47.4494 12.506 47.4494C12.3099 47.4494 12.1139 47.3841 11.9832 47.5801C11.9178 47.7108 11.9178 47.8415 12.0485 47.9722C12.1139 48.0376 12.1792 48.0376 12.3099 48.1029Z" fill="#014B6E"/>
<path d="M81.1224 15.7551C81.1878 15.6244 81.1224 15.4283 80.9917 15.363C80.8611 15.2976 80.665 15.2976 80.5996 15.4283C80.469 15.559 80.4036 15.7551 80.2729 15.8858C80.1422 16.0818 80.0115 16.3432 79.8808 16.5393C79.6194 16.9967 79.4234 17.3888 79.162 17.8463C78.7045 18.6304 78.2471 19.4146 77.855 20.1988C77.6589 20.5909 77.4629 20.983 77.2015 21.3098C77.0055 21.7019 76.7441 22.094 76.548 22.486C76.4173 22.7474 76.548 23.1395 76.8748 23.2049C76.9401 23.2049 77.0055 23.2702 77.0708 23.2702C77.2669 23.2702 77.4629 23.1395 77.5936 23.0088C77.7243 22.8128 77.855 22.5514 77.9203 22.29C78.051 22.094 78.1164 21.8326 78.2471 21.6365C78.4431 21.1791 78.7045 20.787 78.9006 20.3295C79.2927 19.5453 79.6848 18.6958 80.0769 17.9116C80.5343 17.2581 80.861 16.5393 81.1224 15.7551Z" fill="#014B6E"/>
<path d="M85.6968 24.8386C85.4354 25.1654 85.174 25.4921 84.9126 25.8189C84.7165 26.0149 84.7819 26.3417 84.9779 26.5377C85.0433 26.6031 85.174 26.6684 85.3047 26.6684C85.4354 26.6684 85.6314 26.6031 85.6968 26.4724C85.8274 26.2763 86.0235 26.0803 86.1542 25.8842C86.677 25.2307 87.1344 24.5772 87.6572 23.9237C87.9186 23.597 88.1147 23.3356 88.3761 23.0089C88.5721 22.7475 88.8335 22.4861 89.0296 22.1593C89.0949 22.0286 89.0949 21.8979 88.9642 21.7672C88.8989 21.7019 88.7028 21.6365 88.6375 21.7019C88.4414 21.8326 88.3107 21.9633 88.1147 22.094C87.5265 22.6821 87.0037 23.2703 86.4809 23.9237C86.2195 24.2505 85.9581 24.5119 85.6968 24.8386Z" fill="#014B6E"/>
<path d="M92.624 34.5757C91.121 36.0133 89.5526 37.451 88.1149 38.9541C87.3961 39.6729 86.6119 40.4571 85.8931 41.1759C85.5663 41.568 85.1742 41.8948 84.8475 42.2868C84.5207 42.6789 84.1286 43.0057 83.8019 43.3978C83.6712 43.5285 83.6058 43.6592 83.6058 43.8552C83.6058 44.0513 83.6712 44.182 83.8019 44.3127C83.9326 44.4434 84.0633 44.5087 84.2593 44.5087C84.4554 44.5087 84.5861 44.4434 84.7168 44.3127C85.1742 43.8552 85.5663 43.3978 86.0237 42.9403C87.4614 41.4373 88.9645 39.9996 90.4021 38.4966C91.8398 36.9936 93.3428 35.5559 94.7805 34.0529C95.4994 33.2687 96.2835 32.5498 97.0024 31.831C97.3945 31.4389 97.7212 31.1122 98.1133 30.7201C98.3094 30.524 98.5054 30.328 98.6361 30.1319C98.7668 30.0012 98.8975 29.8052 99.0936 29.6745C99.2243 29.6091 99.2896 29.4784 99.2896 29.3477C99.2896 29.1517 99.0282 29.021 98.8322 29.0863C98.7015 29.1517 98.6361 29.217 98.5054 29.2824C98.3747 29.4131 98.244 29.4784 98.1133 29.6091C97.8519 29.8705 97.5252 30.1319 97.2638 30.328C96.4796 31.0468 95.6954 31.7656 94.9112 32.4845C94.127 33.138 93.4082 33.8568 92.624 34.5757Z" fill="#014B6E"/>
<path d="M98.7012 60.2578C98.5052 60.2578 98.3091 60.2578 98.1784 60.2578C97.9824 60.2578 97.721 60.3232 97.5249 60.3232C97.0675 60.3885 96.61 60.4539 96.1526 60.5192C95.2377 60.6499 94.3228 60.846 93.4079 60.9767C92.4931 61.1074 91.5128 61.3034 90.5979 61.4341C89.683 61.5648 88.7682 61.7608 87.8533 61.9569C87.3958 62.0222 86.9384 62.1529 86.4809 62.2836C86.0888 62.4143 85.6314 62.4797 85.2393 62.6104C84.9126 62.6757 84.7165 63.0025 84.8472 63.3292C84.9126 63.4599 84.9779 63.5906 85.1086 63.656C85.174 63.7213 85.3047 63.7213 85.37 63.7213C85.4354 63.7213 85.5007 63.7213 85.5007 63.7213C85.8928 63.656 86.2195 63.5253 86.6116 63.4599C87.0037 63.3946 87.3958 63.2639 87.7879 63.1985C88.5068 63.0025 89.291 62.8718 90.0098 62.6757C90.0098 62.6757 90.0098 62.6757 89.9444 62.6757H90.0098C90.0098 62.6757 90.0098 62.6757 90.0751 62.6757C91.1861 62.4797 92.2317 62.2183 93.3426 62.0222C94.2575 61.8262 95.1724 61.6302 96.0873 61.4341C96.5447 61.3034 97.0021 61.2381 97.4596 61.1074C97.721 61.042 97.917 60.9767 98.1784 60.9767C98.3745 60.9113 98.5052 60.9113 98.7012 60.846C98.7012 60.846 98.7012 60.846 98.6359 60.846C98.8319 60.846 98.9626 60.7153 98.9626 60.5192C99.028 60.3885 98.8973 60.2578 98.7012 60.2578Z" fill="#014B6E"/>
<path d="M42.0438 12.6836C41.9785 12.3569 41.8478 12.0301 41.7825 11.7687C41.5864 11.0499 41.3904 10.3311 41.2597 9.61222C41.0636 8.76268 40.8022 7.91314 40.6062 7.06361C40.4755 6.60616 40.4101 6.21407 40.2794 5.75662C40.2141 5.56058 40.1487 5.29918 40.0834 5.10313C40.018 4.97243 40.018 4.84173 39.9527 4.71103C39.9527 4.64569 39.8873 4.64569 39.8873 4.64569C39.822 4.58034 39.7566 4.58034 39.6913 4.64569C39.6259 4.64569 39.5606 4.71104 39.4952 4.77639C39.4952 4.77639 39.4952 4.77639 39.4952 4.84174C39.4952 4.90709 39.4952 4.97243 39.4952 5.03778C39.4952 5.16848 39.5606 5.36453 39.5606 5.49523C39.6259 5.88733 39.6913 6.21407 39.7566 6.54081C39.8873 7.25965 40.0834 7.97849 40.2141 8.63198C40.2141 8.69733 40.2141 8.69734 40.2141 8.76269C40.3448 9.54687 40.5408 10.3311 40.6715 11.0499C40.8022 11.7687 40.9983 12.4222 41.129 13.1411C41.129 13.1411 41.129 13.1411 41.129 13.2064C41.129 13.2064 41.129 13.2064 41.129 13.1411C41.1943 13.4025 41.1943 13.7292 41.325 13.9906C41.3904 14.252 41.6518 14.4481 41.9132 14.4481C41.9785 14.4481 42.0438 14.4481 42.0438 14.4481C42.3052 14.3827 42.5013 14.1213 42.4359 13.7946C42.3052 13.4678 42.1092 13.0757 42.0438 12.6836Z" fill="#014B6E"/>
<path d="M48.6438 5.49523C48.5784 5.03779 48.5131 4.51499 48.4477 4.05755C48.4477 3.8615 48.3824 3.66546 48.317 3.46941C48.317 3.33871 48.2517 3.20801 48.2517 3.14266C48.2517 3.07731 48.2517 3.01197 48.1864 3.01197C48.121 2.88127 48.0556 2.81592 47.925 2.81592C47.7943 2.81592 47.6636 2.88127 47.6636 3.01197C47.5982 3.14267 47.5982 3.33871 47.5982 3.46941C47.5982 3.66546 47.5982 3.79616 47.5982 3.9922C47.5982 4.44965 47.6636 4.84174 47.6636 5.29919C47.7289 5.95268 47.7289 6.54081 47.7943 7.1943C47.7943 7.52105 47.8596 7.8478 47.8596 8.17454C47.8596 8.30524 47.8596 8.50128 47.925 8.63198C47.925 8.82803 47.925 8.95873 47.9903 9.15478C47.9903 9.28547 48.0557 9.41618 48.1864 9.54688C48.3171 9.61222 48.3824 9.67757 48.5131 9.67757H48.5784C48.8398 9.61222 49.1012 9.41618 49.0359 9.08943C49.0359 8.76269 48.9705 8.50129 48.9052 8.17454C48.8398 7.12895 48.7745 6.27942 48.6438 5.49523Z" fill="#014B6E"/>
<path d="M56.8128 9.02407C56.8128 8.04383 56.7474 6.99824 56.7474 6.018C56.7474 4.97242 56.6821 3.92684 56.6821 2.9466C56.6821 2.42381 56.6821 1.90101 56.6821 1.44357C56.6821 1.18217 56.6821 0.986131 56.6821 0.724734C56.6821 0.594036 56.6821 0.463338 56.6821 0.397989C56.6821 0.33264 56.6821 0.201936 56.6167 0.136587C56.5514 0.00588849 56.3553 -0.0594546 56.2246 0.0712436C56.1593 0.136593 56.0939 0.267287 56.0939 0.332636C56.0939 0.463334 56.0286 0.594036 56.0286 0.724734C55.8325 1.70497 55.7672 2.75055 55.7018 3.73079C55.6365 4.77637 55.5711 5.82196 55.5711 6.86754C55.5711 7.84778 55.5058 8.89337 55.5058 9.87361C55.5058 10.331 55.5058 10.8538 55.5058 11.3113C55.5058 11.5073 55.5058 11.7687 55.5058 11.9648C55.5058 12.2915 55.5058 12.5529 55.5711 12.8797C55.5711 13.2064 55.9632 13.4678 56.29 13.4678H56.3553C56.6821 13.4025 56.9435 13.1411 56.9435 12.749C56.9435 12.4876 56.9435 12.2262 56.9435 11.9648C56.8128 10.9192 56.8128 9.93895 56.8128 9.02407Z" fill="#014B6E"/>
<path d="M0.80837 44.8354C0.873719 44.9007 0.93907 44.9661 1.00442 44.9661C1.06977 44.9661 1.13511 45.0314 1.20046 45.0314C1.39651 45.0968 1.52721 45.1621 1.72326 45.2275C2.05 45.3582 2.4421 45.4889 2.76884 45.6849C3.48768 46.0117 4.20652 46.273 4.92536 46.5998C4.99071 46.5998 5.05606 46.6651 5.12141 46.6651C5.31746 46.6651 5.51351 46.5344 5.57885 46.3384C5.70955 46.077 5.57885 45.8156 5.31746 45.6849C5.25211 45.6849 5.25211 45.6849 5.18676 45.6196C4.46792 45.3582 3.68373 45.0968 2.96489 44.9007C2.5728 44.77 2.24605 44.6393 1.85395 44.574C1.65791 44.5086 1.46186 44.4433 1.33116 44.4433C1.26582 44.4433 1.13512 44.3779 1.06977 44.3779H1.00442C0.873721 44.3779 0.743022 44.4433 0.677673 44.574C0.677673 44.6393 0.74302 44.77 0.80837 44.8354Z" fill="#014B6E"/>
<path d="M89.7484 30.0665C89.487 30.3279 89.2257 30.6546 88.9643 30.916C88.8336 31.1121 88.8336 31.3735 89.0296 31.5042C89.095 31.5695 89.2257 31.5695 89.291 31.5695C89.4217 31.5695 89.487 31.5042 89.5524 31.4388C90.0752 30.8507 90.598 30.1972 91.1208 29.6091C92.101 28.4981 93.0812 27.3218 93.9961 26.2109C94.4536 25.6228 94.9764 25.1 95.4338 24.5118C95.6952 24.2504 95.8913 23.9237 96.1527 23.5969C96.2834 23.4662 96.3487 23.3355 96.4794 23.2048C96.5447 23.1395 96.6101 23.0741 96.6754 23.0088L96.7408 22.9434C96.8061 22.8781 96.8061 22.7474 96.8061 22.6167C96.7408 22.486 96.6101 22.4207 96.5448 22.4207C96.4141 22.4207 96.3487 22.486 96.2834 22.5514C96.1527 22.6167 96.0873 22.7474 96.0219 22.8128C95.8259 23.0088 95.6299 23.2048 95.4992 23.4009C95.1071 23.793 94.7803 24.2504 94.3882 24.6425C93.6694 25.4267 93.0159 26.2109 92.2971 26.9951C92.2971 26.9951 92.2971 26.9951 92.2317 27.0604C92.2317 27.0604 92.2317 27.0604 92.2317 27.1258C91.3822 28.0407 90.598 29.0209 89.8138 29.9358C89.8138 30.0011 89.7484 30.0011 89.7484 30.0665C89.6831 30.0665 89.6831 30.0665 89.7484 30.0665Z" fill="#014B6E"/>
<path d="M82.4294 21.9632C82.4947 21.9632 82.5601 22.0285 82.6254 22.0285C82.8215 22.0285 83.0175 21.9632 83.0829 21.7671C83.2789 21.4404 83.4096 21.0483 83.6057 20.7215C83.7363 20.3948 83.9324 20.068 84.0631 19.7413C84.1938 19.4799 84.3245 19.2839 84.3898 19.0225C84.7819 18.2383 85.174 17.4541 85.5661 16.6699C85.9582 15.8857 86.3503 15.1015 86.7424 14.3173C86.8731 14.0559 87.0038 13.7945 87.1345 13.4678C87.1998 13.3371 87.2652 13.2064 87.3959 13.0103C87.3959 12.945 87.4612 12.8796 87.4612 12.8143C87.4612 12.7489 87.5266 12.6836 87.5266 12.6182C87.5266 12.4876 87.5266 12.4222 87.3959 12.3569C87.3306 12.2915 87.1998 12.2915 87.1345 12.2915C87.0038 12.3569 86.9385 12.4222 86.8731 12.4876C86.8078 12.5529 86.7424 12.6183 86.6771 12.6836C86.5464 12.8796 86.4157 13.0103 86.3503 13.2064C86.1543 13.5985 85.8929 13.9252 85.6968 14.3173C85.3047 15.1015 84.9126 15.8204 84.4552 16.6045C84.0631 17.3887 83.6056 18.1076 83.2136 18.8918C83.0175 19.2839 82.8215 19.6106 82.6254 20.0027C82.4294 20.3948 82.168 20.7869 81.9719 21.179C81.9066 21.3097 81.9066 21.5057 81.9719 21.5711C82.2333 21.7671 82.2987 21.8978 82.4294 21.9632Z" fill="#014B6E"/>
<path d="M95.042 39.5422C94.4538 39.9996 93.9311 40.5224 93.3429 40.9799C92.7548 41.5027 92.1666 42.0254 91.5785 42.5482C91.3824 42.6789 91.3824 43.0057 91.5785 43.2017C91.6438 43.2671 91.7745 43.3324 91.9052 43.3324C91.9706 43.3324 92.1013 43.3324 92.1666 43.2671C92.428 43.0057 92.7548 42.7443 93.0162 42.4829C94.1271 41.5027 95.238 40.4571 96.4143 39.4768C96.4143 39.4768 96.4797 39.4768 96.4797 39.4115C96.545 39.3461 96.6104 39.3461 96.6757 39.2808C96.8064 39.1501 97.0025 39.0194 97.1332 38.8887C97.1985 38.8233 97.2639 38.758 97.3292 38.758L97.3946 38.6926L97.4599 38.6273C97.4599 38.6273 97.4599 38.6273 97.3946 38.6273C97.852 38.2352 98.3748 37.7778 98.8322 37.3203C98.8976 37.255 98.9629 37.1896 99.0283 37.1896C99.6164 36.7322 100.139 36.2094 100.727 35.7519L100.793 35.6866C101.054 35.4252 101.315 35.2291 101.577 34.9677C101.642 34.9024 101.708 34.8371 101.773 34.8371C101.838 34.8371 101.838 34.7717 101.904 34.7717C102.034 34.641 101.969 34.445 101.773 34.3796C101.642 34.3143 101.512 34.3796 101.381 34.445C101.25 34.5103 101.119 34.641 100.989 34.7064C100.727 34.9024 100.466 35.0984 100.205 35.3598C99.6818 35.8173 99.0936 36.2747 98.5709 36.7322C97.3292 37.5817 96.2183 38.5619 95.042 39.5422Z" fill="#014B6E"/>
<path d="M37.2735 63.0025C37.2081 63.0025 37.2081 63.0025 37.2735 63.0025C37.0774 63.0025 36.9467 62.9371 36.8814 62.8718C36.6853 62.6757 36.4893 62.4797 36.3586 62.2183C36.2279 62.0876 36.0972 61.9569 36.0318 61.8262C36.0318 61.8262 36.0318 61.8915 36.0972 61.8915C35.5091 61.238 34.9209 60.5192 34.3328 59.8657C33.7446 59.1469 33.0911 58.428 32.503 57.7092C31.9149 56.9904 31.3267 56.2715 30.6732 55.5527C30.0197 54.7685 29.4316 54.0497 28.7781 53.2655C28.1899 52.5466 27.6018 51.8278 27.0137 51.0436C26.4255 50.3247 25.8374 49.5406 25.3146 48.8217C24.9879 48.4296 24.6611 47.9722 24.3997 47.5147C24.269 47.3187 24.1383 47.1226 24.0076 46.8613C23.9423 46.7959 23.9423 46.6652 23.9423 46.5999C23.9423 46.4692 24.0076 46.4038 24.073 46.2731C24.073 46.2078 24.073 46.1424 24.073 46.1424C24.073 45.9464 24.073 45.7503 24.1383 45.4889C24.2037 45.0968 24.2037 44.6394 24.269 44.2473C24.3344 43.3978 24.4651 42.5482 24.5958 41.6987C24.7264 40.8491 24.8571 39.9343 24.9225 39.0847C25.0532 38.2352 25.1185 37.3856 25.2492 36.5361C25.3146 35.7519 25.4453 35.0331 25.576 34.2489C25.576 34.1182 25.7067 33.9875 25.772 33.9221C25.772 33.7914 25.8374 33.7261 25.9681 33.6607C26.0334 33.6607 26.0988 33.5954 26.0988 33.5954C26.2295 33.5954 26.3602 33.6607 26.4909 33.7261C26.6216 33.7914 26.8176 33.9221 26.9483 33.9875C27.1444 34.1182 27.4058 34.1835 27.6018 34.3142C27.8632 34.4449 28.0593 34.5103 28.3206 34.641C28.8434 34.837 29.3009 35.0331 29.8237 35.2291C30.2158 35.3598 30.6732 35.4905 31.0653 35.6212C31.4574 35.7519 31.9149 35.8173 32.3069 35.948C33.0911 36.144 33.8753 36.3401 34.5942 36.6014C35.117 36.7975 35.6397 36.9282 36.1625 37.1242C36.3586 37.1896 36.5546 37.2549 36.7507 37.3203L36.816 37.2549C36.8814 37.2549 36.9467 37.1896 37.0121 37.1896C37.0774 37.1896 37.2081 37.2549 37.2735 37.2549C37.3388 37.3203 37.4695 37.451 37.5349 37.5163C37.6656 37.7124 37.7963 37.9084 37.927 38.0391C38.2537 38.4312 38.5151 38.8233 38.8419 39.2808C39.43 40.1303 40.0181 40.9798 40.6063 41.8294C40.8677 42.1561 41.0637 42.5482 41.3251 42.875C41.3251 42.4829 41.3251 42.1561 41.3251 41.764C41.3251 40.8491 41.2598 39.8689 41.2598 38.954C41.2598 36.9935 41.2598 35.0331 41.1944 33.0726C41.1291 31.1775 41.0637 29.217 40.9984 27.3219C40.933 26.3416 40.933 25.4268 40.8677 24.4465C40.8023 23.5316 40.8023 22.5514 40.8677 21.6365C40.8677 21.4405 40.8677 21.2444 40.8677 21.0484C40.8677 20.983 40.8677 20.9177 40.8677 20.9177C40.8023 20.5909 41.2598 20.1988 41.4558 20.0028C41.7826 19.676 42.1093 19.3493 42.5014 19.0225C43.2202 18.3691 43.9391 17.6502 44.6579 16.9967C45.3768 16.3432 46.0302 15.6897 46.7491 14.9709C47.0758 14.6442 47.4026 14.3174 47.7293 13.9907C48.0561 13.6639 48.3828 13.4025 48.7096 13.0758C48.971 12.8144 49.2324 12.553 49.4938 12.2916C49.7552 12.0302 50.0165 11.7688 50.2779 11.5074C50.4086 11.4421 50.5393 11.3767 50.67 11.3767C50.7354 11.3767 50.8007 11.3767 50.8661 11.4421C50.9968 11.3767 51.1275 11.4421 51.2582 11.5074L51.3235 11.5727C51.3889 11.6381 51.4542 11.7688 51.5196 11.8342C51.6503 12.0302 51.7156 12.1609 51.8463 12.3569C52.3691 13.1411 52.9573 13.9253 53.5454 14.7095C54.1335 15.4937 54.7217 16.2779 55.3098 17.0621C55.8326 17.7809 56.4208 18.4998 56.9436 19.2186C57.2049 19.5453 57.401 19.8721 57.6624 20.1988C57.8584 20.4602 57.9891 20.7216 58.1852 20.983C58.3159 21.1137 58.3159 21.3751 58.3159 21.5058C58.3812 21.7019 58.3812 21.8979 58.4466 22.094C58.5119 22.6167 58.6426 23.1395 58.708 23.6623C58.904 24.7733 59.1001 25.8842 59.2308 26.9951C59.5575 29.1517 59.8189 31.3082 60.1456 33.53C60.4724 35.6866 60.7991 37.8431 61.0605 39.9996C61.1259 40.457 61.1912 40.9145 61.2566 41.3066C61.4526 40.9798 61.5833 40.7184 61.7794 40.3917C62.0408 39.9996 62.3022 39.5422 62.5636 39.1501C62.825 38.758 63.0864 38.3005 63.3478 37.9084C63.8706 37.0589 64.3933 36.2747 64.9161 35.4252C65.4389 34.641 65.9617 33.8568 66.4845 33.0726C66.5499 32.9419 66.6806 32.8112 66.7459 32.6805C67.0727 32.2231 67.3994 31.7003 67.7261 31.2428C67.8568 31.0468 67.9875 30.7854 68.1836 30.5893C68.3143 30.3279 68.445 30.1319 68.641 29.8705C68.641 29.8051 68.641 29.7398 68.7064 29.6744C68.8371 29.4784 69.0331 29.4784 69.2292 29.3477C69.4252 29.2824 69.6213 29.1517 69.8173 29.0863C70.2094 28.8903 70.6669 28.6942 71.059 28.5635C71.9085 28.1714 72.8234 27.8447 73.6729 27.4526C74.2611 27.1912 74.7838 26.9951 75.372 26.7337C75.8948 26.5377 76.4829 26.2763 77.0057 26.0803C77.0057 26.0803 77.0057 26.0803 77.0711 26.0803C77.2671 26.0149 77.4632 26.1456 77.6592 26.2109C77.8553 26.3416 78.0513 26.407 78.2474 26.5377C78.6395 26.7991 79.0315 27.0605 79.3583 27.3219C80.0771 27.8447 80.796 28.3675 81.5148 28.8903C81.7762 29.0863 82.0376 29.2824 82.299 29.4784C82.4297 29.5438 82.495 29.6091 82.6257 29.6744C82.6911 29.7398 82.8218 29.8051 82.8871 29.8705C82.9525 29.8705 82.9525 29.9358 82.9525 30.0012H83.0178C83.2139 30.0665 83.2792 30.2626 83.2792 30.4586C83.3446 30.8507 83.4099 31.3082 83.4099 31.7656C83.4753 32.2231 83.4753 32.7459 83.4753 33.2033C83.5406 34.0528 83.5406 34.9677 83.5406 35.8173C83.5406 36.2747 83.5406 36.7975 83.5406 37.2549C83.5406 37.5817 83.5406 37.9084 83.5406 38.2352C83.5406 38.3659 83.4753 38.4966 83.4099 38.5619C83.4099 38.6926 83.3446 38.758 83.3446 38.8887C83.2792 39.1501 83.1485 39.3461 83.0832 39.6075C82.8871 40.065 82.7564 40.457 82.5604 40.9145C82.2336 41.8294 81.9069 42.8096 81.5802 43.7245C81.2534 44.6394 80.8613 45.5543 80.5346 46.4692C80.2078 47.384 79.8811 48.3643 79.489 49.2792C79.1622 50.1941 78.7701 51.1089 78.4434 52.0238C78.1166 52.8734 77.7899 53.7882 77.4632 54.6378C77.2671 55.1606 77.0711 55.618 76.875 56.1408C76.679 56.6636 76.4829 57.1211 76.2869 57.6438C76.2215 57.8399 76.0255 57.9706 75.8294 57.9706C75.6987 58.1013 75.568 58.1667 75.372 58.1667C75.3066 58.1667 75.2413 58.1666 75.1106 58.1013C74.9799 58.0359 74.9145 57.9706 74.8492 57.9052L74.7839 57.8399C74.7185 57.7746 74.6531 57.7746 74.5878 57.7092C74.5225 57.7092 74.4571 57.6438 74.3918 57.6438C74.1957 57.5785 73.9997 57.5132 73.8036 57.5132C73.3462 57.4478 72.9541 57.3825 72.4966 57.3171C71.9738 57.2518 71.5164 57.1211 70.9936 56.9904C69.948 56.729 68.9678 56.4022 67.9222 56.0101C66.942 55.618 65.9617 55.2259 64.9815 54.7685C64.4587 54.5071 64.0013 54.2457 63.4785 53.9843C63.021 53.7229 62.5636 53.3962 62.2368 52.9387L62.1715 52.8734H62.1061C61.9754 52.9387 61.7794 52.9387 61.6487 52.9387C61.518 52.9387 61.3873 53.0041 61.2566 53.0041C61.2566 53.0041 61.2566 53.0041 61.1912 53.0041C60.7991 53.0694 60.4724 53.2001 60.0803 53.2655C59.6229 53.3962 59.1654 53.4615 58.708 53.5269H58.7733C58.3812 53.5922 57.9238 53.7229 57.5317 53.7883C57.3356 53.8536 57.1396 53.8536 56.8782 53.919C56.8128 53.919 56.6822 53.9843 56.6168 53.9843H56.5514C55.5059 54.1803 54.4603 54.3764 53.4147 54.5725C52.8919 54.6378 52.4345 54.7685 51.9117 54.8338C51.3889 54.8992 50.8661 54.9645 50.4086 55.0299C50.0819 55.0952 49.7551 55.0952 49.4284 55.1606C49.2977 55.1606 49.167 55.2259 48.971 55.2259C48.9056 55.2259 48.9056 55.2259 48.8403 55.2259H48.7749C48.7749 55.2913 48.7096 55.2913 48.7096 55.3566C48.6442 55.422 48.6442 55.422 48.5789 55.4873C48.3175 55.6834 48.1214 55.8794 47.9254 56.1408C47.664 56.3369 47.4679 56.5329 47.2065 56.7943C46.553 57.3825 45.8996 57.9706 45.1807 58.5587C44.5272 59.1469 43.8084 59.6697 43.0895 60.1271C42.4361 60.5846 41.7826 61.042 41.0637 61.4994C40.4756 61.8915 39.8874 62.2836 39.2993 62.6757C39.0379 62.8718 38.7112 63.0025 38.3844 63.1985C38.1884 63.2639 37.9923 63.3946 37.7963 63.3946C37.4042 63.0678 37.3388 63.0678 37.2735 63.0025Z" fill="#0B263D"/>
<path d="M39.5605 59.7349C39.6259 59.6696 39.7566 59.6042 39.8219 59.5389C39.7566 59.6042 39.6912 59.6696 39.5605 59.7349ZM54.2641 78.9475C54.1334 78.8822 54.0027 78.8168 53.872 78.8168C53.7413 78.7515 53.6106 78.6861 53.4146 78.6861C53.0878 78.5555 52.6957 78.4247 52.369 78.2941C51.4541 77.9673 50.5392 77.6406 49.6243 77.3138C47.5985 76.595 45.5073 75.8108 43.4815 75.0266C42.9587 74.8305 42.3706 74.6345 41.8478 74.4385C41.325 74.2424 40.8022 74.0464 40.2794 73.8503C39.2338 73.4582 38.1882 73.0661 37.1426 72.6087C37.0119 72.5433 36.8812 72.478 36.7505 72.4126C36.6198 72.3473 36.4891 72.2819 36.3584 72.2166C36.1624 72.1512 35.9664 71.9552 35.901 71.7591C35.901 71.5631 35.901 71.4324 35.901 71.2364C35.901 71.0403 35.901 70.9096 35.901 70.7136C35.901 70.3215 35.8357 69.9294 35.8357 69.5373C35.7703 68.6224 35.7703 67.7075 35.7703 66.7273C35.705 65.747 35.705 64.7015 35.705 63.7212C35.705 63.2638 35.705 62.8063 35.705 62.4142C35.705 62.1528 35.705 61.9568 35.705 61.6954C35.705 61.5647 35.705 61.3686 35.7703 61.2379C35.7703 61.1726 35.8357 61.1726 35.8357 61.1073C35.901 61.0419 35.901 61.0419 35.9663 60.9765C36.0317 60.9112 36.1624 60.8459 36.2278 60.7805C36.4238 60.5845 36.6198 60.4537 36.8812 60.2577C37.3387 59.931 37.7961 59.5389 38.2536 59.2121C39.1685 58.4933 40.1487 57.8398 41.0636 57.1863C41.9785 56.5328 42.9587 55.814 43.8736 55.1605C44.7885 54.4416 45.7687 53.7881 46.6836 53.1347C47.5985 52.4812 48.5134 51.7623 49.4283 51.1088C50.2778 50.5207 51.1273 49.8672 51.9769 49.2791C52.3036 49.083 52.565 48.8216 52.8918 48.6256C53.0225 48.5602 53.1532 48.4949 53.2839 48.4949C53.4146 48.3642 53.5453 48.2988 53.676 48.2988C53.8067 48.2988 53.872 48.2988 53.9373 48.3642C54.3948 48.4295 54.8522 48.5602 55.2443 48.6909C55.8325 48.887 56.3553 49.083 56.9434 49.2791H56.8781C58.1197 49.7365 59.3613 50.194 60.603 50.6514C61.1911 50.9128 61.7792 51.1088 62.3674 51.3702C62.9555 51.6316 63.609 51.8277 64.1972 52.0891C65.4388 52.5465 66.7458 52.9386 67.9874 53.4614C69.229 53.9188 70.4053 54.507 71.5816 55.0298C72.039 55.2258 72.5618 55.4872 73.0193 55.6833C73.0193 55.6833 73.0846 55.6833 73.0846 55.7486C73.15 55.7486 73.2153 55.814 73.2153 55.814C73.4114 55.9447 73.6728 56.01 73.8688 56.1407C74.3916 56.4021 74.9144 56.7289 75.5025 56.9902C75.5679 56.9902 75.5679 57.0556 75.6332 57.0556C76.0253 57.1863 76.156 57.7091 75.96 58.0358C75.8946 58.1012 75.8946 58.1665 75.8293 58.2319C76.0253 58.5586 76.156 58.8854 76.2867 59.2775C76.4828 59.8003 76.6788 60.3884 76.8749 60.9112C77.0709 61.434 77.267 62.0221 77.3977 62.5449C77.5937 63.0677 77.7244 63.6559 77.8551 64.1786C78.1165 65.0282 78.3126 65.8124 78.574 66.6619C78.7047 67.054 78.77 67.5115 78.9007 67.9036C78.966 68.2303 79.0967 68.557 79.1621 68.8838C79.2274 69.2759 79.0314 69.6026 78.7047 69.7333C78.6393 69.7333 78.574 69.7333 78.5086 69.7333C78.4433 69.7333 78.3779 69.7333 78.3126 69.7333C78.2472 69.7987 78.2472 69.7987 78.1819 69.7987C77.8551 69.9294 77.463 70.0601 77.1363 70.2561C76.6788 70.4522 76.2214 70.6482 75.7639 70.8443C75.3065 71.0403 74.7837 71.3017 74.3263 71.4978C73.8688 71.6938 73.346 71.8898 72.8886 72.1512C70.7974 73.0661 68.7716 73.981 66.6151 74.7652C65.8309 75.0266 64.9813 75.288 64.1318 75.5494C63.7397 75.6801 63.3476 75.7454 63.0209 75.8761C62.8902 75.9415 62.8248 75.9415 62.6941 76.0068C62.6288 76.2029 62.5634 76.3336 62.3674 76.4643C61.9753 76.6603 61.5832 76.8564 61.1911 77.0524C60.799 77.2485 60.4069 77.4445 60.0148 77.5752C59.0346 77.9673 57.989 78.3594 57.0088 78.6861C56.7474 78.7515 56.486 78.8168 56.2246 78.8822C55.9632 78.9475 55.6364 79.0129 55.375 79.0782C55.179 79.1436 54.9829 79.1436 54.8522 79.1436H54.7869C54.7215 79.1436 54.7215 79.1436 54.6562 79.1436C54.5908 79.1436 54.5255 79.2089 54.4601 79.2089C54.4601 79.0129 54.3294 79.0129 54.2641 78.9475Z" fill="#274C6C"/>
<path d="M37.2076 58.4932C36.7502 57.5783 36.4234 56.6634 35.966 55.8139C35.3779 54.4416 34.7244 53.1346 34.0709 51.7622C33.9402 51.4355 33.7441 51.0434 33.6134 50.7167C33.4827 50.3899 33.2867 50.0632 33.156 49.7364C32.8292 49.0176 32.5025 48.3641 32.1758 47.6453C31.849 46.9918 31.5223 46.3383 31.1955 45.6194C31.0648 45.2927 30.8688 44.9659 30.7381 44.6392C30.6727 44.5085 30.6074 44.3778 30.4767 44.1818C30.4113 44.1164 30.4113 44.0511 30.346 44.0511C30.4113 43.9857 30.4767 43.9204 30.6074 43.855C30.8034 43.659 30.9995 43.5283 31.1955 43.3322C31.5876 43.0055 31.9797 42.6134 32.3718 42.2866C32.9599 41.7638 33.4827 41.2411 34.0055 40.7183C34.5283 40.2608 34.9858 39.738 35.5086 39.2806C35.5739 39.2806 35.5739 39.2152 35.6392 39.2152C35.7699 39.0845 35.7699 38.8231 35.6392 38.6924C35.5086 38.5617 35.2472 38.5617 35.0511 38.6924C34.3323 39.3459 33.6134 40.0648 32.8946 40.7183C32.3064 41.2411 31.7183 41.7638 31.1955 42.2866C30.9341 42.548 30.6074 42.8094 30.346 43.0708C30.2153 43.2015 30.0846 43.3322 29.9539 43.4629C29.8885 43.4629 29.8885 43.4629 29.8232 43.4629C29.7578 43.4629 29.6925 43.5283 29.6271 43.5283C29.6925 43.3976 29.6925 43.3322 29.6271 43.2015C29.5618 43.0055 29.4964 42.7441 29.3657 42.548C29.235 42.2866 29.1697 42.0252 29.039 41.7638C28.7776 41.1104 28.5816 40.4569 28.3202 39.8034C28.0588 39.1499 27.8627 38.4964 27.6013 37.8429C27.4053 37.1894 27.1439 36.5359 26.8825 35.8824C26.7518 35.5557 26.6211 35.2289 26.5557 34.9022C26.4904 34.7715 26.425 34.6408 26.3597 34.5101C26.2943 34.3794 26.229 34.1833 26.0329 34.1833C25.8369 34.1833 25.6408 34.314 25.6408 34.5101C25.6408 34.6408 25.6408 34.8368 25.7062 34.9675C25.7715 35.2289 25.9022 35.5557 25.9676 35.8171C26.1636 36.3399 26.3597 36.928 26.5557 37.4508C26.5557 37.4508 26.5557 37.4508 26.5557 37.5162C26.5557 37.5815 26.6211 37.5815 26.6211 37.6469V37.5815C26.8825 38.431 27.2092 39.2152 27.536 40.0648C27.7974 40.7183 28.0588 41.3717 28.3202 42.0252C28.4509 42.352 28.5816 42.6134 28.6469 42.9401C28.7122 43.0708 28.7776 43.2015 28.7776 43.3322C28.8429 43.4629 28.843 43.5936 28.9083 43.659C28.9737 43.7897 29.039 43.855 29.1697 43.855C29.039 43.9204 28.9083 43.9857 28.7776 44.0511C28.5815 44.1164 28.3202 44.2471 28.1241 44.3778C27.8627 44.5085 27.6013 44.6392 27.4053 44.7699C27.4053 44.7699 27.4053 44.7699 27.4706 44.7699C27.4053 44.7699 27.4053 44.8352 27.3399 44.8352C27.0132 44.9659 26.6864 45.162 26.425 45.2927C26.1636 45.4234 25.8369 45.6194 25.5755 45.7501C25.2487 45.9462 24.9874 46.0769 24.6606 46.2729C24.5953 46.3383 24.4646 46.4036 24.3992 46.4036C24.2685 46.469 24.2032 46.5343 24.1378 46.665C24.1378 46.7304 24.1378 46.8611 24.1378 46.9264C24.2032 46.9918 24.2685 47.0571 24.3339 47.1225H24.3992C24.5953 47.1225 24.726 47.0571 24.922 46.9918C25.0527 46.9264 25.2487 46.8611 25.3794 46.7304C25.5755 46.665 25.7062 46.5343 25.9022 46.469C26.229 46.3383 26.4904 46.1422 26.8171 46.0115C27.1439 45.8155 27.4706 45.6848 27.7974 45.4887C28.0588 45.358 28.3855 45.162 28.6469 45.0313C28.9736 44.8353 29.3657 44.7045 29.7578 44.5085C29.7578 44.5738 29.8232 44.6392 29.8232 44.7046C29.8885 44.8353 29.9539 44.966 30.0192 45.0967C30.2153 45.4887 30.4113 45.9462 30.6074 46.4036C30.8034 46.8611 30.9995 47.3185 31.2609 47.7106C31.5876 48.4295 31.9144 49.1483 32.2411 49.8018C32.5678 50.5206 32.8946 51.1741 33.2213 51.893C33.5481 52.5464 33.8095 53.2653 34.1362 53.9188C34.463 54.5723 34.7897 55.2257 35.1165 55.9446C35.3779 56.5981 35.7046 57.1862 35.966 57.8397C36.0967 58.1011 36.2274 58.4279 36.3581 58.6893C36.4234 58.8853 36.5541 59.0813 36.6195 59.2774C36.6848 59.4081 36.8155 59.5388 36.9462 59.5388C37.0116 59.5388 37.0769 59.5388 37.1423 59.4735C37.3383 59.3428 37.4037 59.1467 37.273 58.9506C37.273 58.6239 37.2076 58.5586 37.2076 58.4932Z" fill="#274C6C"/>
<path d="M46.5527 50.3247C46.3567 50.0633 46.1606 49.8019 45.9646 49.5405C45.2457 48.5603 44.4615 47.5801 43.7427 46.5998C43.3506 46.077 42.9585 45.6196 42.5664 45.0968C42.1743 44.574 41.7822 44.1166 41.3901 43.5938C40.6059 42.6135 39.8217 41.5679 38.9722 40.5877C38.7762 40.3263 38.5801 40.1303 38.3841 39.8689C38.188 39.6075 37.992 39.3461 37.7306 39.15C37.5345 38.8886 37.3385 38.6926 37.1424 38.4312C37.0771 38.3005 36.9464 38.2351 36.881 38.1044C36.8157 38.0391 36.7503 37.9737 36.685 37.9084C36.685 37.843 36.6196 37.7777 36.5543 37.7123C36.4236 37.647 36.2275 37.647 36.1622 37.7123C36.0968 37.7777 36.0315 37.843 36.0315 37.9737C36.0315 38.1044 36.0315 38.1698 36.0315 38.3005C36.0315 38.6272 36.0315 38.954 36.0315 39.2154C36.0315 39.8689 36.0315 40.5224 36.0315 41.1759C36.0315 41.8947 36.0968 42.6789 36.0968 43.3977C36.0968 44.1819 36.1622 44.9007 36.1622 45.6849C36.2275 47.188 36.2929 48.7563 36.3582 50.2594C36.4236 51.7624 36.6196 53.2001 36.7503 54.7031C36.8157 55.3566 36.881 56.0754 37.0117 56.7289C37.0771 57.2517 37.1424 57.7092 37.1424 58.2319C37.1424 58.428 37.3385 58.5587 37.5345 58.5587C37.5345 58.5587 37.5345 58.5587 37.5999 58.5587C37.7959 58.5587 37.9266 58.3627 37.9266 58.1666C37.8613 57.3824 37.7306 56.5329 37.6652 55.7487C37.5999 55.4219 37.5999 55.0298 37.5345 54.7031C37.4692 54.311 37.4692 53.9843 37.4038 53.5922C37.3385 52.8733 37.2731 52.1545 37.2078 51.4356C37.2078 51.2396 37.2078 51.1089 37.2078 50.9129C37.2078 50.5208 37.1424 50.1287 37.1424 49.7366C37.1424 49.3445 37.0771 48.9524 37.0771 48.5603C37.0771 47.7761 37.0117 47.0573 37.0117 46.2731C37.0117 45.4889 36.9464 44.7047 36.9464 43.9205C36.9464 43.1363 36.881 42.4175 36.881 41.6333C36.881 41.3065 36.881 40.9144 36.881 40.5877C36.881 40.1956 36.881 39.8689 36.881 39.4768C36.881 39.4768 36.881 39.4768 36.881 39.4114C36.881 39.4768 36.9464 39.5421 36.9464 39.5421C37.2078 40.1303 37.5345 40.653 37.7959 41.2412C38.1227 41.8947 38.5148 42.6135 38.8415 43.267C39.2336 43.9205 39.5603 44.6393 39.9524 45.2928C40.2792 45.9463 40.6713 46.5998 40.998 47.188C41.3248 47.7761 41.6515 48.4296 41.9783 49.0177C42.5011 50.0633 42.9585 51.0436 43.4813 52.0891C43.5466 52.2198 43.612 52.3505 43.6773 52.4812C43.7427 52.6119 43.808 52.7426 43.8734 52.8733C43.9387 53.004 44.0694 53.0694 44.2001 53.0694C44.2655 53.0694 44.3308 53.0694 44.3962 53.004C44.5269 52.9387 44.6576 52.6773 44.5922 52.4812C44.5269 52.3505 44.3962 52.1545 44.3308 52.0238C44.2655 51.8277 44.1348 51.697 44.0694 51.501C43.612 50.6515 43.2199 49.7366 42.8278 48.887C42.6317 48.4296 42.3704 47.9722 42.1743 47.5801C41.8476 46.9266 41.4555 46.3384 41.1287 45.6849C40.802 45.0314 40.4099 44.378 40.0178 43.7245C39.3643 42.5482 38.7762 41.4372 38.188 40.261C38.3841 40.5223 38.5801 40.7838 38.7762 41.0451C39.1682 41.5679 39.5603 42.0254 39.9524 42.5482C40.3445 43.071 40.7366 43.5284 41.1287 44.0512C41.3248 44.3126 41.5208 44.574 41.7169 44.8354C41.9129 45.0968 42.109 45.2928 42.305 45.5542C42.6971 46.077 43.0892 46.5998 43.4813 47.1226C43.8734 47.6454 44.2001 48.1029 44.5922 48.6256C44.9843 49.0831 45.3111 49.6059 45.7032 50.0633C45.8339 50.2594 46.0299 50.4554 46.226 50.7168C46.422 50.9782 46.5527 51.1743 46.7487 51.4356C46.8141 51.501 46.9448 51.5664 47.0101 51.5664C47.0755 51.5664 47.1408 51.5664 47.2062 51.501C47.3369 51.3703 47.4022 51.1742 47.2715 51.0436C46.9448 50.9129 46.7487 50.5861 46.5527 50.3247Z" fill="#274C6C"/>
<path d="M57.5965 46.077C57.6618 46.077 57.7272 46.077 57.7925 46.0116C57.9886 45.9463 58.1193 45.6849 58.0539 45.4235C57.9232 45.1621 57.7925 44.9007 57.7272 44.6393C57.5965 44.3779 57.4658 44.0512 57.3351 43.7898C57.0737 43.1363 56.7469 42.4828 56.4855 41.8293C56.2241 41.1105 55.8974 40.3916 55.636 39.6728C55.3746 38.9539 55.1132 38.2351 54.8518 37.5163C54.5904 36.7974 54.329 36.0132 54.0676 35.2944C54.0676 35.2944 54.0676 35.2944 54.0676 35.3597C54.0676 35.3597 54.0676 35.3597 54.0676 35.2944V35.229V35.1637C54.0023 35.0983 54.0023 34.9676 53.9369 34.9023C53.4141 33.3339 52.8913 31.7655 52.3685 30.2625C51.8457 28.7595 51.2576 27.3218 50.6695 25.8188C50.4081 25.0999 50.0813 24.3157 49.8199 23.5969C49.6892 23.2702 49.5585 22.8781 49.3625 22.5513C49.2971 22.3553 49.2318 22.2246 49.1664 22.0285C49.2318 22.0285 49.2318 22.0285 49.2971 22.0285C50.212 21.8325 51.0616 21.6364 51.9764 21.4404C51.9764 21.4404 51.9764 21.4404 51.9111 21.4404C52.3032 21.375 52.6953 21.2443 53.0874 21.179C53.4795 21.1136 53.8716 21.0483 54.329 20.9176C54.7865 20.8522 55.1785 20.7869 55.636 20.7215C55.832 20.7215 55.9627 20.5255 55.9627 20.3294C55.9627 20.1334 55.7667 20.0027 55.5706 20.0027C55.3746 20.0681 55.1132 20.0681 54.9171 20.1334C54.8518 20.0027 54.7865 19.9374 54.7211 19.8067C54.6558 19.676 54.5904 19.4799 54.4597 19.3492C54.4597 19.3492 54.4597 19.3492 54.4597 19.4146C54.329 19.2185 54.2637 18.9571 54.133 18.7611C53.5448 17.5848 53.0874 16.4739 52.4992 15.2976C52.2378 14.7094 51.9111 14.1213 51.6497 13.5331C51.519 13.2064 51.3883 12.945 51.2576 12.6183C51.1923 12.4876 51.1269 12.2915 51.0616 12.1608C51.0616 12.0955 50.9962 12.0301 50.9962 11.9648C50.9962 11.8994 50.9962 11.8994 50.9309 11.8341C50.8655 11.7034 50.8002 11.638 50.6695 11.7034C50.6041 11.7034 50.5388 11.7687 50.4734 11.7687C50.3427 11.7687 50.2774 11.8341 50.212 11.9648C50.212 12.0301 50.1467 12.0955 50.1467 12.2262C50.1467 12.3569 50.0813 12.4876 50.0813 12.6183C50.016 12.8797 50.016 13.141 49.9506 13.4024C49.8199 13.9252 49.7546 14.448 49.6239 14.9708V15.0362C49.6239 15.0362 49.6239 15.0362 49.6239 14.9708V15.0362C49.6239 15.1015 49.5585 15.2322 49.5585 15.2976C49.5585 15.2976 49.5585 15.2976 49.5585 15.2322C49.5585 15.2976 49.5585 15.2976 49.5585 15.3629C49.5585 15.4936 49.4932 15.559 49.4932 15.6897C49.3625 16.4085 49.2318 17.1273 49.1011 17.8462C48.9704 18.4343 48.905 19.0225 48.7743 19.5453C48.709 19.8067 48.709 20.1334 48.6436 20.3948C48.6436 20.5255 48.5783 20.6562 48.5783 20.7869C48.5783 20.9176 48.5783 20.9829 48.5129 21.1136C48.5129 21.179 48.5129 21.2443 48.5783 21.3097C48.5129 21.3097 48.4476 21.3097 48.4476 21.3097C48.2515 21.2443 47.9902 21.2443 47.7941 21.179C47.5327 21.1136 47.206 21.1136 46.9446 21.0483C46.2911 20.9829 45.7029 20.9176 45.0494 20.8522C44.3306 20.7869 43.6771 20.7215 42.9583 20.6562C42.6315 20.6562 42.2394 20.5908 41.9127 20.5908C41.782 20.5908 41.5859 20.5908 41.4552 20.5908C41.3899 20.5908 41.2592 20.6562 41.1938 20.7215C41.0631 20.8522 41.0631 20.9829 41.1285 21.1136C41.1938 21.179 41.2592 21.2443 41.3245 21.2443C41.4552 21.3097 41.6513 21.3097 41.782 21.3097C41.9127 21.3097 42.1087 21.375 42.2394 21.375C42.6315 21.4404 43.0236 21.4404 43.3504 21.5057C43.6771 21.5711 44.0039 21.5711 44.3306 21.6364C44.6573 21.7018 44.9841 21.7018 45.3762 21.7671C46.0297 21.8325 46.6178 21.8978 47.2713 22.0285C47.5327 22.0939 47.7941 22.0939 47.9902 22.1592C48.1209 22.1592 48.2515 22.2246 48.3822 22.2246C48.3822 22.4206 48.3822 22.5513 48.3822 22.7474C48.3822 23.1395 48.4476 23.4662 48.4476 23.8583C48.5129 24.5771 48.6436 25.296 48.709 26.0148C48.905 27.4525 49.1664 28.9555 49.4278 30.3932C49.5585 31.112 49.6892 31.8309 49.8199 32.5497C49.9506 33.2686 50.0813 33.9874 50.212 34.7062C50.4734 36.1439 50.7348 37.647 51.0616 39.0846C51.323 40.2609 51.5843 41.4372 51.8457 42.6135C51.9764 43.267 52.1725 43.9205 52.3032 44.6393C52.3685 44.9007 52.4339 45.2274 52.4992 45.4888C52.5646 45.8156 52.6299 46.1423 52.7606 46.4691C52.826 46.6651 52.9567 46.7958 53.1527 46.7958C53.2181 46.7958 53.2181 46.7958 53.2834 46.7958C53.4141 46.7958 53.4795 46.6651 53.5448 46.5998C53.6102 46.4691 53.6102 46.4037 53.6102 46.273C53.5448 45.9463 53.4795 45.6849 53.4141 45.3582C53.3488 45.0968 53.2834 44.8354 53.2181 44.574C53.0874 43.9858 52.8913 43.3977 52.7606 42.7442C52.5646 42.0253 52.4339 41.3718 52.3032 40.653C52.1725 39.9342 51.9764 39.2807 51.8457 38.5618C51.5843 37.2549 51.323 35.8825 51.0616 34.5102C50.8002 33.0725 50.5388 31.5695 50.2774 30.1318C50.016 28.6941 49.7546 27.1911 49.4932 25.7534C49.3625 25.0346 49.2971 24.3811 49.1664 23.6622C49.1664 23.6622 49.1664 23.6623 49.1664 23.5969C49.1664 23.5969 49.1664 23.6622 49.2318 23.6622C49.4932 24.3811 49.8199 25.1653 50.0813 25.8841C50.6041 27.3218 51.1923 28.8248 51.715 30.2625C52.0418 31.1774 52.3685 32.0923 52.6299 33.0072C52.8913 33.7914 53.1527 34.6409 53.4141 35.4251V35.4904C53.6755 36.1439 53.8716 36.8628 54.133 37.5163C54.6558 38.9539 55.1786 40.3916 55.7013 41.8293C55.9627 42.4828 56.2241 43.1363 56.5509 43.7898C56.6816 44.1165 56.8123 44.3779 56.943 44.7047C57.0737 45.0314 57.2044 45.2928 57.3351 45.6195C57.2697 45.9463 57.4004 46.077 57.5965 46.077ZM49.0357 21.2443C49.0357 20.9176 49.1011 20.6562 49.1664 20.3294C49.3625 19.1532 49.5585 17.9769 49.7546 16.8659C49.7546 16.8006 49.7546 16.8006 49.7546 16.7352C49.7546 16.7352 49.7546 16.7352 49.7546 16.8006C49.8199 16.4738 49.8853 16.1471 49.9506 15.8204C50.0813 15.1669 50.212 14.5134 50.3427 13.9252C50.4081 13.6638 50.4734 13.3371 50.4734 13.0757C50.5388 13.2717 50.6041 13.4024 50.6695 13.5985C50.9309 14.1866 51.2576 14.7748 51.519 15.3629C51.7804 15.9511 52.1071 16.5392 52.3685 17.1273C52.6299 17.7155 52.8913 18.2383 53.2181 18.8264C53.3488 19.0878 53.4795 19.3492 53.6102 19.6106C53.7409 19.8067 53.8062 20.068 53.9369 20.2641C53.8716 20.2641 53.7409 20.3294 53.6755 20.3294C53.0874 20.4601 52.4992 20.5255 51.9111 20.6562C51.323 20.7869 50.6695 20.9176 50.0813 21.0483C49.7546 21.1136 49.4278 21.179 49.1664 21.3097C49.1011 21.3097 49.0357 21.375 48.9704 21.375C49.0357 21.3097 49.0357 21.2443 49.0357 21.2443Z" fill="#274C6C"/>
<path d="M60.9948 42.8748C60.8641 42.8094 60.668 42.8748 60.6027 43.0055C60.0145 43.9857 59.4264 44.9659 58.7729 45.8808L58.7075 45.9462C58.7075 45.9462 58.7075 46.0115 58.6422 46.0115C58.6422 46.0115 58.6422 46.0115 58.6422 46.0769C58.6422 46.0769 58.6422 46.1422 58.5768 46.1422C58.3808 46.4036 58.1848 46.7304 57.9887 46.9918C57.7273 47.3185 57.5313 47.7106 57.2699 48.0373C57.2045 48.1027 57.1392 48.2334 57.1392 48.2987C57.0738 48.3641 57.0738 48.4294 57.0085 48.4948C57.0085 48.5601 56.9431 48.6255 56.9431 48.6908C56.9431 48.8215 57.0085 48.9522 57.1392 49.0176C57.2045 49.0176 57.2045 49.0176 57.2699 49.0176C57.3352 49.0176 57.4659 48.9522 57.4659 48.8869C57.5313 48.8215 57.5313 48.7562 57.5966 48.6908C57.662 48.5601 57.7273 48.4948 57.7927 48.3641C57.9234 48.1027 58.1194 47.9066 58.2501 47.6453C58.5768 47.1878 58.8382 46.7304 59.165 46.2729C59.4917 45.7501 59.8185 45.2927 60.0799 44.7699C60.3413 44.3125 60.668 43.7897 60.9948 43.3322C61.1908 43.0708 61.1255 42.9401 60.9948 42.8748Z" fill="#274C6C"/>
<path d="M81.3185 37.7776C81.0571 37.5815 80.7303 37.4508 80.4689 37.2548C79.9462 36.928 79.4234 36.6013 78.9006 36.2745C78.7699 36.2092 78.6392 36.1438 78.5085 36.0131C78.4431 35.7517 78.4431 35.5557 78.3778 35.2943C78.3124 35.0329 78.3124 34.8369 78.2471 34.5755C78.1164 33.922 78.051 33.2685 77.9203 32.615C77.7896 31.8961 77.6589 31.2426 77.5936 30.5238C77.5282 30.1971 77.4629 29.8703 77.4629 29.5436C77.3975 29.2168 77.3322 28.8247 77.3322 28.498C77.2668 28.1712 77.2015 27.8445 77.2015 27.4524C77.2015 27.191 77.1361 26.8643 77.1361 26.6029C77.1361 26.5375 77.0708 26.4068 77.0054 26.3415C76.9401 26.3415 76.9401 26.3415 76.8747 26.2761C76.8747 26.1454 76.7441 26.0801 76.6134 26.0801C76.548 26.0801 76.4827 26.1454 76.4173 26.1454C76.4173 26.1454 76.4173 26.1454 76.352 26.2108C76.352 26.2761 76.2866 26.3415 76.2866 26.4068C76.2213 26.5375 76.1559 26.6682 76.0906 26.7989C75.9599 27.0603 75.8292 27.3871 75.6985 27.6485C75.5024 28.1059 75.241 28.498 74.9796 28.9554C74.7836 29.3475 74.5875 29.7396 74.3261 30.1317C74.0647 30.6545 73.8033 31.1773 73.5419 31.7001C73.4112 31.9615 73.2805 32.2229 73.2152 32.4843C73.1498 32.615 73.1498 32.6803 73.0845 32.811C73.0191 32.7457 72.8885 32.6803 72.8231 32.615C72.5617 32.4189 72.3003 32.2229 72.1043 32.0268C71.5815 31.6347 71.0587 31.2426 70.5359 30.8506C70.2091 30.6545 69.9477 30.3931 69.621 30.1971C69.4249 30.0664 69.1636 29.8703 68.9675 29.805C68.9022 29.7396 68.8368 29.7396 68.7715 29.7396C68.6408 29.7396 68.5101 29.8703 68.5101 30.001C68.5101 30.0664 68.5101 30.1317 68.5101 30.1971C68.5754 30.3278 68.7715 30.4585 68.8368 30.5238C69.0329 30.6545 69.2289 30.7852 69.425 30.9813C69.9477 31.3734 70.4705 31.7654 70.9933 32.1575C71.4508 32.5496 71.9736 32.8764 72.3657 33.2685C72.3003 33.3338 72.3003 33.3338 72.235 33.3992C72.1043 33.5299 72.0389 33.6606 71.9082 33.7913C71.7122 34.0527 71.4508 34.3794 71.2547 34.6408C70.7973 35.2289 70.3398 35.8171 69.8824 36.4052C69.425 36.9934 68.9022 37.5815 68.4447 38.1697C67.5298 39.3459 66.6149 40.5222 65.7654 41.7639C65.308 42.352 64.9159 42.9401 64.4584 43.5283C64.001 44.1164 63.6089 44.7046 63.1514 45.2927C62.3019 46.4036 61.4524 47.5146 60.7335 48.6909C60.6028 48.8869 60.6682 49.083 60.8642 49.2136C60.9296 49.279 60.9949 49.279 61.0603 49.279C61.191 49.279 61.2563 49.2136 61.3217 49.1483C61.7138 48.6255 62.1059 48.1027 62.4979 47.5146C63.3475 46.3383 64.197 45.2274 65.0466 44.0511C65.504 43.4629 65.8961 42.8748 66.3535 42.2866C66.811 41.6985 67.2684 41.1104 67.7259 40.4569C68.1833 39.8687 68.6408 39.2152 69.0982 38.6271C69.5557 38.039 70.0131 37.4508 70.4705 36.8627C70.928 36.2745 71.3854 35.6864 71.8429 35.0982C71.9736 34.9022 72.1696 34.7061 72.3003 34.4448C72.235 34.7715 72.235 35.0982 72.1696 35.425C72.0389 36.8627 71.8429 38.3657 71.6468 39.8034C71.4508 41.2411 71.3201 42.7441 71.1894 44.1818C71.0587 45.6194 70.928 47.0571 70.7973 48.4948C70.6666 49.8671 70.6012 51.2395 70.4705 52.5465C70.4705 52.6772 70.4705 52.7425 70.5359 52.8078C70.6012 52.8732 70.6666 52.9386 70.7973 52.9386C70.7973 52.9386 70.7973 52.9386 70.8626 52.9386C71.0587 52.9386 71.1894 52.8079 71.2547 52.6118C71.3201 52.089 71.3854 51.5009 71.3854 50.9781C71.5161 49.5404 71.6468 48.1681 71.7775 46.7304C71.9082 45.2927 72.0389 43.7897 72.235 42.352C72.3657 40.9143 72.5617 39.4113 72.6924 37.9736C72.7578 37.2548 72.8231 36.5359 72.8884 35.7517C72.9538 35.0329 73.0192 34.3141 73.0192 33.5299C73.0845 33.5952 73.0845 33.5952 73.1499 33.6606C73.3459 33.8566 73.5419 33.9873 73.8033 34.118C74.3915 34.5101 74.9796 34.8368 75.5678 35.0982C75.8945 35.2289 76.2213 35.425 76.4826 35.5557C76.744 35.6864 76.9401 35.8171 77.1361 35.9478C77.1361 35.9478 77.1361 35.9478 77.0708 35.9478C77.2015 36.0131 77.2668 36.0785 77.3975 36.2092C77.4629 36.2745 77.5936 36.3399 77.6589 36.4052C77.7896 36.4706 77.855 36.5359 77.9857 36.6013C77.9203 36.6666 77.855 36.732 77.855 36.7973C77.7896 36.928 77.7243 37.0587 77.7243 37.1894C77.5936 37.4508 77.5282 37.7122 77.4629 38.039C77.2668 38.5617 77.1361 39.0845 76.9401 39.6073C76.6787 40.3262 76.4827 41.1104 76.2213 41.8292C75.9599 42.6134 75.6985 43.3322 75.5024 44.1164C75.241 44.8353 74.9796 45.5541 74.7836 46.2729C74.5222 46.9918 74.3261 47.7106 74.0647 48.4948C73.6073 49.8671 73.1499 51.3048 72.6924 52.6771C72.5617 53.1346 72.3657 53.5267 72.235 53.9841C72.1696 54.2455 72.235 54.5069 72.4964 54.5723C72.5617 54.5723 72.5617 54.5723 72.6271 54.5723C72.8231 54.5723 72.9538 54.4416 73.0192 54.2455C73.1499 53.7227 73.3459 53.2653 73.5419 52.8078C73.8687 51.893 74.1954 50.9781 74.5222 49.9978C75.045 48.5602 75.5024 47.1225 76.0252 45.6848C76.2866 44.966 76.548 44.2471 76.7441 43.4629C77.0054 42.7441 77.2015 41.9599 77.3975 41.2411C77.5936 40.5222 77.855 39.738 78.051 39.0192C78.1817 38.6271 78.2471 38.235 78.3778 37.9083C78.4431 37.7122 78.4431 37.5815 78.5085 37.3855C78.5085 37.3201 78.5738 37.1894 78.5738 37.1241C78.5738 37.0587 78.5738 37.0587 78.5738 36.9934C78.8352 37.1241 79.0966 37.3201 79.4234 37.4508C79.6848 37.5815 79.9462 37.7122 80.2076 37.8429C80.4036 37.9736 80.665 38.1043 80.861 38.235C80.9264 38.3004 80.9917 38.3004 81.0571 38.3004C81.1878 38.3004 81.3185 38.235 81.4492 38.1043C81.5799 38.1697 81.5145 37.9083 81.3185 37.7776ZM76.6787 35.0982C76.0906 34.7715 75.5024 34.4448 74.8489 34.1834C74.5222 33.9873 74.1954 33.8566 73.8687 33.6606C73.738 33.5952 73.6073 33.5299 73.4766 33.4645C73.5419 33.2685 73.6073 33.0724 73.738 32.8764C73.8687 32.615 73.934 32.4189 74.0647 32.1575C74.3261 31.7001 74.5222 31.1773 74.7836 30.7199C74.7836 30.7199 74.7836 30.7199 74.7836 30.7852C74.9796 30.3931 75.1757 30.0664 75.3064 29.7396C75.6331 29.1515 75.9599 28.498 76.2213 27.9098C76.2866 27.7791 76.352 27.6484 76.4173 27.5831C76.4173 27.7791 76.4826 27.9752 76.4826 28.2366C76.548 28.9554 76.6787 29.6089 76.7441 30.3278C76.8747 31.0466 76.9401 31.7001 77.0708 32.4189C77.1361 33.0724 77.2668 33.7259 77.3975 34.3794C77.4629 34.7062 77.5282 35.0329 77.5282 35.3596C77.5282 35.4903 77.5936 35.621 77.5936 35.6864C77.2668 35.425 77.0054 35.2943 76.6787 35.0982Z" fill="#274C6C"/>
<path d="M75.1102 58.5586C75.0449 58.2972 74.7835 58.1665 74.5874 58.2319C74.326 58.2972 74.0646 58.4279 73.8032 58.4933C73.5418 58.5586 73.2151 58.6893 72.9537 58.7547C72.3655 58.9507 71.8427 59.0814 71.2546 59.2121C70.8625 59.3428 70.4704 59.4735 70.013 59.5389C69.6209 59.6696 69.2288 59.7349 68.8367 59.8656C68.4446 59.9963 68.0525 60.0617 67.7258 60.1924C67.7258 60.1924 67.7258 60.127 67.6604 60.127C66.6802 59.2775 65.7653 58.3626 64.785 57.4477C63.5434 56.2714 62.2364 55.1605 60.9948 54.0495C60.0146 53.2 59.0343 52.3505 58.0541 51.5009C57.4006 50.9781 56.7471 50.39 56.0936 49.8672C55.7669 49.6058 55.4401 49.3444 55.048 49.083C54.7866 48.887 54.4599 48.6909 54.1985 48.4295C54.1332 48.2988 53.9371 48.2335 53.8064 48.2988C53.7411 48.2988 53.6757 48.3642 53.6757 48.3642C53.6104 48.3642 53.545 48.4295 53.4797 48.4295C53.1529 48.6909 52.8915 48.887 52.5648 49.1484C52.238 49.4098 51.9766 49.6712 51.6499 49.9326C51.1271 50.39 50.6043 50.7821 50.0162 51.1742C49.428 51.6316 48.8399 52.0891 48.2517 52.5465C47.6636 53.004 47.0101 53.5267 46.422 53.9842C45.8338 54.4416 45.2457 54.9644 44.5922 55.4219C44.004 55.8793 43.4159 56.4021 42.8278 56.8596C42.2396 57.3824 41.6515 57.8398 41.0633 58.3626C40.4752 58.8854 39.8871 59.3428 39.3643 59.8656C39.1029 60.127 38.8415 60.3884 38.5801 60.5845C38.4494 60.7151 38.3187 60.8458 38.188 60.9112C38.0573 61.0419 37.9919 61.1072 37.8612 61.2379C37.8612 61.2379 37.8612 61.2379 37.8612 61.3033H37.7959C37.4691 61.2379 37.2077 61.1726 36.881 61.1073C36.7503 61.1073 36.6196 61.0419 36.4889 61.0419C36.4235 61.0419 36.3582 61.0419 36.2275 61.0419C36.1622 61.0419 36.1622 61.0419 36.0968 61.1073C35.9661 61.1726 35.9008 61.3033 35.9008 61.434C35.9008 61.4994 35.9008 61.4993 35.9008 61.5647C35.9008 61.63 35.9661 61.63 35.9661 61.6954C35.9661 61.6954 35.9661 61.6954 36.0315 61.7607C36.1622 61.8261 36.2929 61.8914 36.4236 61.8914C36.6849 61.9568 36.881 62.0221 37.1424 62.0875C37.3384 62.1528 37.5345 62.1528 37.7305 62.2182C37.7305 62.2182 37.7305 62.2182 37.7305 62.2835C37.7305 62.5449 37.7305 62.8717 37.6652 63.1331C37.6652 63.9173 37.6652 64.6361 37.6652 65.4203C37.6652 66.2045 37.6652 66.9887 37.6652 67.7729C37.6652 68.4917 37.6652 69.2105 37.7305 69.9947C37.7305 70.3215 37.7305 70.6482 37.7959 70.975C37.7959 71.3017 37.8612 71.6938 37.8612 72.0205C37.8612 72.2166 38.0573 72.4126 38.2533 72.4126H38.3187C38.5147 72.4126 38.6454 72.2166 38.6454 71.9552C38.6454 71.8898 38.6454 71.8899 38.6454 71.8245C38.6454 71.4324 38.5801 70.975 38.5801 70.5829C38.5147 69.1452 38.5147 67.6422 38.5147 66.2045C38.5147 65.8124 38.5147 65.4203 38.5147 65.0282C38.5147 64.6361 38.5147 64.244 38.5147 63.9173C38.5147 63.5252 38.5147 63.1331 38.5147 62.741C38.5147 62.6756 38.5147 62.6103 38.5147 62.5449H38.5801C38.5801 62.5449 38.5801 62.5449 38.6454 62.5449C38.7108 62.5449 38.8415 62.6103 38.9068 62.6103C39.7563 62.8063 40.5405 62.937 41.3901 63.0677C42.2396 63.1984 43.0892 63.3291 43.8733 63.4598C44.7229 63.5905 45.5071 63.7212 46.3566 63.8519C47.1408 63.9826 47.9903 64.1133 48.7745 64.1787C50.2122 64.3747 51.7152 64.5707 53.1529 64.7668H53.2183C53.349 64.7668 53.4143 64.7015 53.4797 64.6361C53.4797 64.7668 53.4797 64.9628 53.4797 65.0935C53.4797 65.4856 53.4797 65.8124 53.4797 66.2045C53.4797 66.9887 53.545 67.7075 53.545 68.4917C53.6104 70.1908 53.6757 71.8898 53.7411 73.5889C53.7411 74.3731 53.8064 75.0919 53.8064 75.8761C53.8064 76.2682 53.8718 76.6603 53.8718 76.9871C53.8718 77.2485 53.8717 77.5752 53.9371 77.8366C53.9371 77.9673 54.0025 78.098 54.0678 78.1633C54.1332 78.2287 54.2638 78.2941 54.3945 78.2941C54.6559 78.2941 54.852 78.098 54.852 77.8366C54.852 77.7059 54.852 77.6406 54.852 77.5099V77.5752C54.7866 76.9871 54.7866 76.4643 54.7866 75.8761C54.7866 75.288 54.7213 74.6345 54.7213 74.0464C54.7213 73.1968 54.6559 72.3473 54.6559 71.5631C54.5906 70.7136 54.5906 69.864 54.5252 69.0145C54.4599 68.1649 54.4599 67.2501 54.3945 66.4005C54.3945 66.0084 54.3292 65.551 54.3292 65.1589C54.3292 65.0282 54.3292 64.8322 54.3292 64.7015C54.3945 64.7015 54.4599 64.6361 54.5906 64.6361C54.9827 64.5708 55.3094 64.4401 55.7015 64.3747C56.0283 64.3094 56.4204 64.1786 56.7471 64.1133C57.0739 63.9826 57.466 63.9173 57.7927 63.7866C58.5115 63.5905 59.2304 63.3291 59.8839 63.1331C60.0799 63.0677 60.276 63.0024 60.472 62.937C60.6681 62.8717 60.7988 62.8717 60.9948 62.8063C61.1255 62.741 61.2562 62.741 61.3869 62.6756C61.3869 62.8717 61.3869 63.0024 61.3869 63.1984C61.3869 63.6559 61.4522 64.048 61.4522 64.5054C61.5176 65.2896 61.5829 66.1391 61.6483 66.9233C61.6483 66.9887 61.6483 66.9887 61.6483 67.054C61.6483 67.054 61.6483 67.054 61.6483 67.1194C61.6483 67.1847 61.6483 67.2501 61.6483 67.2501V67.3154V67.3808C61.7136 67.9035 61.7136 68.4264 61.779 68.9491C61.9097 70.5175 62.0404 72.0859 62.1057 73.6543C62.1057 73.8503 62.1057 73.981 62.1057 74.1771C62.1057 74.3078 62.1057 74.5038 62.1057 74.6999C62.1711 74.9613 62.3671 75.092 62.5632 75.092H62.6285C62.8899 75.0266 63.0206 74.8306 63.0206 74.6345C63.0206 74.5038 63.0206 74.3078 62.9553 74.1771C62.9553 73.981 62.9553 73.8503 62.8899 73.6543V73.7196C62.8246 73.1315 62.8246 72.478 62.7592 71.8899C62.6939 71.1057 62.6285 70.2561 62.5632 69.4719C62.4978 68.6224 62.3671 67.7729 62.3018 66.9887C62.2364 66.2045 62.1711 65.3549 62.0404 64.5707C61.975 64.1787 61.975 63.7212 61.9097 63.3291C61.9097 63.1331 61.8443 62.937 61.8443 62.741C61.8443 62.6756 61.8443 62.6756 61.8443 62.6103C61.975 62.6103 62.1057 62.5449 62.2364 62.5449C62.5632 62.4796 62.8899 62.4142 63.2167 62.3489C63.8048 62.2182 64.3929 62.0221 65.0464 61.8914C65.5692 61.7607 66.1574 61.63 66.6802 61.434C66.6802 61.434 66.6802 61.434 66.6802 61.4993C66.8762 61.8261 67.0723 62.2182 67.2683 62.5449C67.6604 63.2638 68.0525 63.9826 68.3792 64.7015C68.7713 65.4203 69.1634 66.1391 69.4902 66.9233V66.858C69.8823 67.5768 70.209 68.2956 70.6011 69.0145C70.7972 69.3412 70.9279 69.668 71.1239 70.0601C71.32 70.3868 71.4507 70.6482 71.6467 70.975C71.7121 71.1056 71.7774 71.171 71.8428 71.3017C71.9081 71.4324 72.1041 71.4978 72.2348 71.4978C72.3002 71.4978 72.3655 71.4978 72.4309 71.4324C72.6269 71.3017 72.6923 71.0403 72.5616 70.8443C72.4962 70.7789 72.4309 70.6482 72.3655 70.5829C72.3002 70.5175 72.2348 70.3868 72.2348 70.2561C72.1041 70.0601 72.0388 69.864 71.9081 69.668V69.7333C71.712 69.3412 71.516 69.0145 71.32 68.6224C70.6011 67.1847 69.8823 65.747 69.0981 64.3747C68.706 63.6559 68.3139 62.937 67.9218 62.2182C67.7258 61.8914 67.5297 61.5647 67.3337 61.2379C68.1178 61.0419 68.9674 60.7805 69.7516 60.5845C70.5358 60.3884 71.32 60.127 72.1041 59.8656C72.4962 59.7349 72.8883 59.6042 73.2151 59.5389C73.5418 59.4082 73.9339 59.3428 74.2607 59.2775C75.0449 59.0814 75.1756 58.82 75.1102 58.5586ZM52.238 63.7866C50.6696 63.5905 49.1666 63.3291 47.5982 63.0677C45.9645 62.8063 44.2654 62.5449 42.6317 62.2835C41.7822 62.1528 40.998 62.0221 40.1484 61.8914C39.6257 61.8261 39.1029 61.6954 38.5801 61.63C38.7108 61.5647 38.7761 61.434 38.9068 61.3686C39.2989 61.0419 39.6257 60.7152 39.9524 60.3884C40.5405 59.8656 41.0633 59.4082 41.6515 58.9507C42.2396 58.4279 42.8278 57.9705 43.4812 57.4477C44.6575 56.4675 45.8992 55.4872 47.0754 54.507C47.6636 54.0496 48.2517 53.5921 48.8399 53.0693C49.428 52.6119 49.9508 52.1544 50.5389 51.697C51.0617 51.3049 51.5845 50.8474 52.1073 50.4553C52.3687 50.2593 52.6301 49.9979 52.8915 49.8019L52.9569 49.7365C52.9569 49.8672 52.9569 50.0633 52.9569 50.194C52.9569 50.6514 52.9569 51.1088 52.9569 51.5663C52.9569 52.4158 53.0222 53.2654 53.0222 54.0495C53.0222 54.8991 53.0222 55.814 53.0876 56.6635C53.0876 57.513 53.1529 58.2972 53.1529 59.1468C53.1529 59.9963 53.1529 60.8459 53.1529 61.63C53.1529 62.0221 53.1529 62.3489 53.1529 62.741C53.1529 62.937 53.1529 63.1331 53.1529 63.3291C53.1529 63.5252 53.1529 63.7212 53.1529 63.8519H53.0876C52.9569 63.8519 52.5648 63.7866 52.238 63.7866ZM60.2106 62.2182C60.1453 62.2182 60.1453 62.2835 60.0799 62.2835C59.7532 62.4142 59.4264 62.4796 59.0997 62.6103C58.7076 62.741 58.3808 62.8717 57.9887 62.937C57.5967 63.0677 57.2046 63.1984 56.8125 63.2638C56.4204 63.3945 56.0283 63.5252 55.6362 63.5905C55.2441 63.7212 54.7866 63.7866 54.3945 63.9173C54.3292 63.9173 54.2638 63.9826 54.1985 63.9826V63.9173C54.1985 63.7866 54.1985 63.7212 54.1985 63.5905C54.1985 62.0221 54.1985 60.4537 54.1985 58.8854C54.1985 57.1863 54.1332 55.4872 54.0678 53.7882C54.0678 52.9386 54.0024 52.0891 54.0024 51.2395C54.0024 51.1088 54.0024 50.9781 54.0024 50.8474V50.9128C54.3292 51.5663 54.7213 52.1544 55.048 52.8079C55.5055 53.5921 55.8976 54.3109 56.355 55.0298C56.8125 55.7486 57.2046 56.5328 57.662 57.2516C58.5115 58.624 59.4264 59.931 60.276 61.3033C60.4067 61.434 60.472 61.63 60.6027 61.7607C60.6027 61.7607 60.6027 61.6954 60.5374 61.6954C60.6027 61.7607 60.6681 61.8914 60.7334 61.9568C60.6681 62.0221 60.472 62.1528 60.2106 62.2182ZM63.8702 61.2379C63.4781 61.3686 63.0206 61.434 62.6285 61.5647C62.4325 61.63 62.2364 61.6954 62.0404 61.6954C61.975 61.6954 61.9097 61.7607 61.8443 61.7607C61.779 61.7607 61.779 61.7607 61.7136 61.7607C61.7136 61.63 61.7136 61.5647 61.6483 61.434C61.3215 60.9766 60.9948 60.4538 60.6681 59.9963C60.1453 59.2121 59.5571 58.3626 59.0343 57.5131C58.1194 56.0754 57.2046 54.6377 56.355 53.1347C55.8976 52.3505 55.5055 51.6316 55.048 50.8474C54.852 50.4553 54.6559 50.1286 54.4599 49.7365C54.4599 49.6712 54.3945 49.6712 54.3945 49.6058C55.048 50.1286 55.7015 50.586 56.355 51.1088C57.0085 51.6316 57.662 52.2198 58.3155 52.7426C58.3808 52.7426 58.3808 52.8079 58.4462 52.8079C59.0997 53.3961 59.7532 53.9189 60.3413 54.507C60.9948 55.0951 61.5829 55.6833 62.2364 56.2714C62.8246 56.7942 63.4127 57.3823 64.0662 57.9051C64.6543 58.4279 65.1771 58.9507 65.7653 59.4735C66.092 59.7349 66.3534 60.0617 66.6802 60.3231C66.6148 60.3231 66.5495 60.3884 66.4188 60.3884C65.5692 60.7805 64.7197 60.9765 63.8702 61.2379Z" fill="#0B263D"/>
</svg>
