<svg width="50" height="81" viewBox="0 0 50 81" fill="none" xmlns="http://www.w3.org/2000/svg">
<path d="M17.229 64.9615C17.229 64.9615 17.229 64.8615 17.229 64.7615C17.029 64.4615 16.729 64.1615 16.529 63.8615C16.029 63.2615 15.529 62.5615 15.129 61.8615C15.029 61.6615 14.929 61.5615 14.729 61.3615C14.729 61.3615 14.729 61.3615 14.729 61.4615C14.029 60.3615 13.329 59.2615 12.629 58.0615C12.029 56.8615 11.4291 55.6615 10.9291 54.4615C10.7291 54.0615 10.6291 53.5615 10.4291 53.1615C10.4291 53.1615 10.4291 53.1615 10.4291 53.0615C10.4291 52.9615 10.329 52.8615 10.329 52.7615C9.92905 51.5615 9.52904 50.2615 9.22904 49.0615C8.92904 47.6615 8.72904 46.3615 8.62904 44.9615C8.52904 43.6615 8.42903 42.2615 8.52903 40.9615C8.52903 40.2615 8.62904 39.5615 8.62904 38.9615C8.72904 38.2615 8.82905 37.6615 8.92905 36.9615C9.22905 35.6615 9.72904 34.3615 10.229 33.1615C10.729 31.9615 11.329 30.7615 11.829 29.5615C13.029 27.1615 14.229 24.7615 15.229 22.3615C16.229 20.0615 17.129 17.6615 18.029 15.2615C18.229 14.7615 18.429 14.2615 18.629 13.6615C18.729 13.3615 18.8291 13.0615 18.9291 12.8615C19.0291 12.5615 19.129 12.3615 19.229 12.0615C19.429 11.5615 19.729 11.1615 20.129 10.9615C20.429 10.7615 20.729 10.7615 21.029 10.8615C21.329 10.9615 21.529 11.0615 21.729 11.2615C21.929 11.4615 22.129 11.6615 22.329 11.9615C22.529 12.2615 22.7291 12.4615 22.9291 12.7615C23.3291 13.2615 23.6291 13.7615 23.9291 14.3615C24.1291 14.7615 24.429 15.0615 24.629 15.4615C24.529 15.0615 24.4291 14.7615 24.4291 14.3615C24.1291 12.9615 23.929 11.6615 23.829 10.2615C23.729 9.56154 23.8291 8.76152 23.9291 8.06152C24.1291 7.36152 24.429 6.56153 24.829 5.96153C25.229 5.36153 25.729 4.76154 26.129 4.26154C26.529 3.76154 27.029 3.26154 27.529 2.76154C27.729 2.66154 27.829 2.46153 28.029 2.36153C28.929 1.56153 29.8291 0.861526 30.9291 0.361526C31.2291 0.161526 31.629 0.0615234 32.029 0.0615234C32.429 0.0615234 32.829 0.161533 33.229 0.461533C33.529 0.661533 33.7291 0.96153 33.9291 1.16153C34.0291 1.36153 34.129 1.46153 34.329 1.66153C34.629 1.46153 34.829 1.16153 35.129 0.961533C35.329 0.861533 35.529 0.661523 35.729 0.561523C35.929 0.361523 36.229 0.26153 36.529 0.16153C36.829 0.16153 37.029 0.16153 37.329 0.16153C37.629 0.26153 37.929 0.361523 38.229 0.561523C38.729 0.861523 39.129 1.26153 39.529 1.66153C39.929 2.06153 40.229 2.56153 40.629 2.96153C41.029 3.46153 41.329 3.96153 41.629 4.46153C41.629 4.46153 41.629 4.36153 41.529 4.36153C42.329 5.56153 43.1291 6.86152 43.9291 8.06152C44.6291 9.36152 45.329 10.7615 46.029 12.1615C46.629 13.5615 47.229 14.9615 47.729 16.3615C47.729 16.4615 47.829 16.5615 47.829 16.6615C48.329 18.0615 48.729 19.3615 49.029 20.8615C49.329 22.3615 49.629 23.8615 49.729 25.3615C49.829 26.0615 49.829 26.8615 49.829 27.5615C49.829 28.2615 49.829 29.0615 49.729 29.7615C49.629 31.1615 49.429 32.5615 49.129 33.9615C48.829 35.4615 48.529 36.8615 48.129 38.3615C47.829 39.8615 47.429 41.3615 47.029 42.8615C46.629 44.2615 46.229 45.6615 45.829 47.1615C45.629 47.8615 45.329 48.5615 45.129 49.3615C44.829 50.0615 44.629 50.7615 44.229 51.4615C43.629 52.7615 42.8291 54.0615 41.9291 55.2615C41.4291 55.8615 40.9291 56.4615 40.4291 57.0615C39.9291 57.5615 39.4291 58.1615 38.9291 58.6615C38.0291 59.4615 37.029 60.2615 36.029 60.9615C36.029 60.9615 36.129 60.9615 36.129 60.8615C36.029 60.8615 36.0291 60.9615 35.9291 60.9615C35.3291 61.3615 34.6291 61.7615 33.9291 62.1615C33.2291 62.5615 32.529 62.8615 31.829 63.0615C31.129 63.3615 30.429 63.5615 29.729 63.8615C29.029 64.0615 28.329 64.2615 27.729 64.3615C26.429 64.6615 25.029 64.7615 23.629 64.9615C22.429 65.0615 21.1291 65.1615 19.9291 65.3615C19.7291 65.3615 19.529 65.4615 19.329 65.4615C18.829 65.5615 18.329 65.6615 17.829 65.8615C17.729 65.8615 17.729 65.8615 17.629 65.8615C17.629 65.5615 17.229 65.2615 17.229 64.9615Z" fill="#274C6C"/>
<path d="M18.8291 73.8615C18.7291 73.7615 18.5291 73.5615 18.4291 73.4615C18.0291 73.1615 17.7291 72.8615 17.3291 72.5615C16.9291 72.2615 16.5291 71.9615 16.1291 71.7615C15.7291 71.4615 15.3291 71.2615 14.8291 71.0615C14.4291 70.9615 13.9291 71.2615 13.8291 71.6615C13.7291 71.8615 13.8291 72.1615 13.9291 72.2615C14.0291 72.4615 14.1291 72.5615 14.3291 72.5615C14.6291 72.6615 14.9291 72.7615 15.2291 72.8615C15.5291 72.9615 15.7291 73.0615 16.0291 73.1615C16.0291 73.1615 16.0291 73.1615 16.1291 73.1615C16.6291 73.3615 17.0291 73.6615 17.4291 73.9615C17.6291 74.1615 17.8291 74.2615 18.1291 74.4615C18.3291 74.5615 18.4291 74.6615 18.6291 74.6615C18.7291 74.6615 18.7291 74.6615 18.8291 74.6615C19.0291 74.5615 19.1291 74.3615 19.1291 74.0615C19.0291 74.0615 18.9291 73.9615 18.8291 73.8615Z" fill="#0B263D"/>
<path d="M30.529 42.4616C30.929 42.2616 31.229 42.0616 31.629 41.8615C32.429 41.4615 33.129 41.0615 33.829 40.5615C35.329 39.7615 36.729 38.8615 38.229 38.0615C39.729 37.2615 41.229 36.3616 42.729 35.4616C43.429 35.0616 44.129 34.6616 44.829 34.2616C45.129 34.0616 45.529 33.8616 45.829 33.6616C46.229 33.4615 46.529 33.2615 46.9291 33.0615C47.1291 32.9615 47.229 32.6616 47.129 32.4616C47.029 32.2616 46.729 32.1616 46.529 32.2616C45.129 32.9616 43.8291 33.7615 42.4291 34.5615C40.9291 35.3615 39.529 36.2615 38.029 37.0615C37.329 37.4615 36.529 37.8615 35.829 38.3615C35.129 38.7616 34.329 39.2616 33.629 39.6616C32.929 40.0616 32.1291 40.5616 31.4291 40.9616C31.1291 41.0616 30.929 41.2616 30.629 41.3615C31.129 39.8615 31.529 38.2616 32.029 36.7616C32.629 34.8616 33.129 32.8616 33.629 30.9616C34.129 28.9616 34.529 27.0615 34.829 25.0615C35.029 23.8615 35.229 22.5615 35.329 21.3615C35.429 21.2615 35.529 21.1615 35.529 21.0615C35.729 20.8615 35.929 20.5615 36.129 20.3615C36.529 19.8615 36.929 19.3615 37.229 18.8615C38.229 17.5615 39.129 16.2615 40.029 15.0615C40.529 14.4615 40.9291 13.7616 41.4291 13.1616C41.9291 12.5616 42.329 11.8616 42.829 11.2616C42.929 11.0616 42.929 10.8616 42.729 10.6616C42.529 10.5616 42.329 10.5616 42.129 10.7616C41.429 11.7616 40.6291 12.7616 39.9291 13.6616C38.9291 14.9616 38.029 16.2616 37.029 17.4616C36.529 18.0616 36.029 18.7615 35.629 19.3615C35.529 19.4615 35.429 19.5616 35.329 19.7616C35.329 19.5616 35.3291 19.2615 35.4291 19.0615C35.4291 18.7615 35.429 18.5616 35.529 18.2616L35.629 18.1616C35.729 18.0616 35.929 17.8616 36.029 17.6616C36.229 17.3616 36.529 16.9616 36.729 16.6616C36.929 16.3616 37.229 15.9616 37.4291 15.6616C37.9291 14.9616 38.4291 14.3616 38.9291 13.6616C39.9291 12.3616 40.829 11.0616 41.829 9.76156C41.929 9.56156 41.929 9.36155 41.729 9.16155C41.529 9.06155 41.329 9.06156 41.129 9.26156C40.329 10.3616 39.429 11.4615 38.629 12.5615C37.629 13.8615 36.629 15.1616 35.729 16.4616C35.729 16.5616 35.629 16.5616 35.629 16.6616C35.729 15.5616 35.729 14.4615 35.729 13.3615C35.729 11.5615 35.729 9.76155 35.529 7.96155C35.529 7.56155 35.4291 7.16155 35.4291 6.66155C35.3291 6.26155 35.329 5.76155 35.229 5.36155C35.229 5.06155 35.129 4.76154 35.129 4.56154C35.129 4.36154 35.1291 4.06155 34.9291 3.86155C34.729 3.66155 34.329 3.66155 34.129 3.86155C34.029 3.96155 34.029 4.16155 34.029 4.36155C34.029 4.46155 34.029 4.66156 34.029 4.76156C34.029 5.16156 34.129 5.56154 34.229 6.06154C34.329 6.66154 34.3291 7.16156 34.4291 7.76156C34.4291 8.26156 34.529 8.86155 34.529 9.36155C34.629 11.6615 34.629 13.8616 34.529 16.1616C34.529 16.0616 34.4291 15.9615 34.4291 15.8615C34.4291 15.8615 34.4291 15.8616 34.4291 15.9616C34.4291 15.8616 34.429 15.8616 34.329 15.7616C34.329 15.7616 34.329 15.7615 34.329 15.8615V15.7616C34.329 15.7616 34.329 15.7615 34.329 15.8615V15.7616V15.6616C34.029 14.8616 33.729 14.1615 33.4291 13.3615C32.8291 11.9615 32.229 10.4615 31.529 9.06154C31.229 8.36155 30.829 7.56155 30.529 6.86155C30.329 6.46155 30.229 6.06156 30.029 5.76156C29.929 5.56156 29.829 5.36156 29.829 5.26156C29.829 5.16156 29.729 5.06155 29.729 4.96155C29.729 4.86155 29.629 4.86156 29.629 4.76156C29.529 4.66156 29.429 4.56155 29.229 4.66155C29.129 4.66155 29.029 4.86155 29.029 4.96155C29.029 5.06155 29.029 5.16156 29.029 5.26156C29.029 5.36156 29.129 5.46154 29.129 5.56154C29.229 5.76154 29.3291 5.96156 29.4291 6.26156C29.6291 6.66156 29.729 7.06155 29.9291 7.46155C30.229 8.26155 30.6291 8.96156 30.9291 9.76156C31.229 10.4616 31.529 11.2616 31.829 11.9616C32.429 13.3616 32.9291 14.7616 33.4291 16.1616V16.2616C33.4291 16.2616 33.4291 16.2616 33.4291 16.1616C33.6291 16.7616 33.829 17.4615 34.129 18.0615V18.1616C34.129 18.1616 34.129 18.1615 34.129 18.0615C34.129 18.0615 34.129 18.0616 34.129 18.1616C34.129 18.2616 34.229 18.3616 34.229 18.4616C34.029 21.0616 33.629 23.5615 33.129 26.0615C33.029 26.4615 33.029 26.7616 32.9291 27.1616C32.529 29.0616 32.0291 31.0616 31.4291 32.9616C30.8291 34.8616 30.229 36.7615 29.629 38.5615C29.429 39.2615 29.1291 39.8615 28.9291 40.5615C28.6291 41.4615 28.229 42.4615 27.829 43.3615C27.429 44.2616 27.029 45.1615 26.629 46.0615C26.329 46.6615 26.129 47.1616 25.829 47.7616C25.529 47.1616 25.229 46.4615 24.9291 45.8615C24.9291 45.8615 24.9291 45.8616 24.9291 45.7616C24.6291 45.1616 24.329 44.6615 24.029 44.0615C23.229 42.5615 22.429 41.0616 21.729 39.4616C21.729 39.3616 21.629 39.3616 21.629 39.2616C21.129 38.3616 20.729 37.4616 20.229 36.4616C19.429 34.8616 18.629 33.3616 17.829 31.7616C17.429 30.9616 17.029 30.2616 16.629 29.4616C16.229 28.7616 15.829 28.0615 15.329 27.3615C15.229 27.2615 15.029 27.1616 14.829 27.2616C14.729 27.3616 14.629 27.5616 14.629 27.6616C14.729 27.8616 14.829 28.0615 15.029 28.3615C15.129 28.5615 15.329 28.8615 15.429 29.0615C15.729 29.5615 16.029 30.1616 16.229 30.6616C17.029 32.2616 17.829 33.7615 18.629 35.3615C18.629 35.4615 18.729 35.4615 18.729 35.5615C18.729 35.6615 18.829 35.6616 18.829 35.6616C18.829 35.6616 18.8291 35.7616 18.9291 35.7616C19.0291 35.9616 19.129 36.2616 19.329 36.4616C20.129 38.0616 20.829 39.5616 21.629 41.1616C21.629 41.1616 21.629 41.1616 21.629 41.2616C22.329 42.6616 23.029 44.0616 23.729 45.4616C23.729 45.4616 23.729 45.4615 23.729 45.3615C23.729 45.3615 23.729 45.4616 23.829 45.4616C23.829 45.4616 23.829 45.4615 23.829 45.3615C24.429 46.4615 24.9291 47.6615 25.4291 48.8615C25.229 49.1615 25.1291 49.5616 24.9291 49.8615C24.8291 49.7616 24.829 49.6616 24.729 49.4616C24.029 48.0616 23.229 46.5616 22.529 45.1616C21.729 43.6616 21.029 42.1616 20.229 40.7616C19.429 39.2616 18.729 37.8615 17.9291 36.3615C17.9291 36.3615 17.9291 36.3616 17.9291 36.2616C17.9291 36.2616 17.929 36.1616 17.829 36.1616C17.529 35.5616 17.229 35.0616 17.029 34.4616C16.729 33.8616 16.529 33.3616 16.229 32.7616C16.029 32.3616 15.829 31.9615 15.629 31.5615C15.429 31.1615 15.229 30.8616 15.129 30.4616C14.929 30.0616 14.829 29.6615 14.629 29.3615C14.529 29.1615 14.529 28.9616 14.429 28.7616C14.429 28.6616 14.329 28.4615 14.229 28.3615C14.129 28.2615 13.929 28.2615 13.829 28.3615C13.729 28.4615 13.629 28.5616 13.629 28.6616C13.629 28.8616 13.629 28.9615 13.729 29.1616C13.829 29.3616 13.829 29.5616 13.929 29.7616C14.029 30.1616 14.229 30.5615 14.429 30.8615C14.829 31.6615 15.129 32.3616 15.529 33.1616C15.929 33.9615 16.229 34.6616 16.629 35.4616C17.029 36.2616 17.429 36.9616 17.829 37.7616C18.229 38.4616 18.629 39.2616 19.029 39.9616C19.429 40.7616 19.829 41.4616 20.229 42.2616V42.3615C20.229 42.3615 20.229 42.4616 20.329 42.4616C20.329 42.4616 20.3291 42.5615 20.4291 42.5615V42.6616C20.6291 43.1616 20.829 43.5615 21.129 44.0615C21.329 44.5615 21.629 44.9616 21.829 45.4616C22.529 46.8616 23.329 48.3616 24.029 49.7616V49.8615C24.029 49.8615 24.029 49.8616 24.029 49.9616C24.229 50.2616 24.329 50.6616 24.529 50.9616C24.529 51.0616 24.4291 51.1616 24.4291 51.2616C24.3291 51.5616 24.129 51.8616 24.029 52.1616C24.029 52.2616 23.9291 52.3616 23.9291 52.3616C23.9291 52.3616 23.929 52.2616 23.829 52.2616C23.129 50.7616 22.429 49.1616 21.729 47.6616C21.329 46.8616 20.929 46.0616 20.629 45.2616C20.229 44.4616 19.8291 43.6616 19.4291 42.7616C19.4291 42.6616 19.329 42.5616 19.329 42.4616C19.329 42.3616 19.229 42.2616 19.229 42.1616C18.829 41.3616 18.429 40.5616 18.029 39.7616C17.629 38.9616 17.229 38.1615 16.829 37.3615C16.429 36.5616 16.029 35.6615 15.629 34.8615C15.229 34.0615 14.829 33.2616 14.429 32.4616V32.3615C14.329 32.0615 14.129 31.7616 14.029 31.4616C13.929 31.3616 13.929 31.1615 13.829 31.0615C13.829 30.9615 13.729 30.8615 13.729 30.8615C13.629 30.6615 13.429 30.6616 13.329 30.6616C13.129 30.6616 13.029 30.8615 13.029 31.0615C13.029 31.0615 13.029 31.0616 13.029 30.9616C13.029 31.1616 13.129 31.3616 13.129 31.4616C13.229 31.6616 13.329 31.8615 13.329 32.0615C13.529 32.4615 13.729 32.9615 13.929 33.3615C14.129 33.8615 14.429 34.2616 14.629 34.7616C14.629 34.8616 14.729 34.8616 14.729 34.9616C15.129 35.7616 15.529 36.6616 15.929 37.4616C16.329 38.2616 16.729 39.0616 17.129 39.8615C17.929 41.4615 18.729 43.0616 19.4291 44.6616C20.229 46.2616 20.929 47.8615 21.629 49.5615C21.929 50.3615 22.329 51.1616 22.629 51.8616C22.729 52.1616 22.929 52.5616 23.029 52.8616C23.129 53.0616 23.129 53.1616 23.229 53.3616C22.529 54.5616 21.729 55.8615 20.9291 57.0615C20.4291 57.8615 19.9291 58.5616 19.4291 59.3616C18.9291 60.0616 18.429 60.7615 18.029 61.5615C17.329 62.6615 16.629 63.6616 15.829 64.6616C15.129 65.5616 14.329 66.4616 13.629 67.3616C13.629 67.2616 13.629 67.1616 13.629 67.1616C13.629 66.2616 13.429 65.4616 13.229 64.6616C12.929 63.4616 12.429 62.2616 11.929 61.1616C11.629 60.6616 11.429 60.0615 11.029 59.5615C10.829 59.2615 10.629 58.9616 10.429 58.7616C10.229 58.5616 10.129 58.3616 9.92905 58.2616C9.72905 58.0616 9.42903 57.8615 9.12903 58.0615C8.82903 58.2615 8.82905 58.5616 8.92905 58.7616C9.02905 58.9616 9.12904 59.0616 9.32904 59.2616C9.52904 59.4616 9.72905 59.7615 9.92905 60.0615C10.229 60.4615 10.429 60.8616 10.629 61.2616C10.929 61.9616 11.229 62.6616 11.529 63.3616C11.729 63.9616 11.929 64.5616 12.029 65.1616C12.129 65.6616 12.229 66.2616 12.229 66.7616C12.229 67.0616 12.229 67.2615 12.229 67.5615C12.029 67.0615 11.829 66.4615 11.629 65.9615C11.029 64.8615 10.329 63.7616 9.52903 62.8616C9.12903 62.3616 8.62903 61.8615 8.12903 61.4615C7.62903 61.0615 7.12903 60.6616 6.52903 60.3616C6.32903 60.2616 6.22903 60.2616 6.02903 60.1616H5.92905C5.62905 60.1616 5.42905 60.4616 5.42905 60.7616C5.42905 60.9616 5.62904 61.1616 5.72904 61.2616C5.82904 61.3616 5.92903 61.3615 6.02903 61.4615C6.42903 61.6615 6.72903 61.9616 7.02903 62.2616C7.32903 62.5616 7.62905 62.8616 7.92905 63.1616C8.32905 63.6616 8.72902 64.1616 9.02903 64.6616C9.32903 65.1616 9.62905 65.6616 9.92905 66.1616C10.129 66.5616 10.329 67.0615 10.529 67.5615C10.629 67.9615 10.729 68.3616 10.829 68.7616C10.929 69.0616 10.929 69.4616 10.929 69.7616C10.929 69.8616 10.929 69.9615 10.929 70.0615C10.929 70.0615 10.929 70.0616 10.929 70.1616C10.829 70.2616 10.829 70.2616 10.729 70.3616C10.629 70.2616 10.529 70.1615 10.429 70.0615C9.92905 69.5615 9.52905 69.1616 8.92905 68.7616C8.42905 68.3616 7.82904 68.0616 7.22904 67.7616C6.72904 67.5616 6.22904 67.3616 5.72904 67.1616C5.22904 66.9616 4.72903 66.8616 4.12903 66.7616C3.82903 66.7616 3.62904 66.6616 3.32904 66.6616C3.12904 66.6616 2.82904 66.7615 2.72904 66.9615C2.62904 67.1615 2.72904 67.3615 2.82904 67.5615C2.92904 67.6615 3.02904 67.7616 3.22904 67.7616C3.42904 67.7616 3.72905 67.8616 3.92905 67.8616C4.32905 67.9616 4.72903 68.0616 5.12903 68.2616C5.62903 68.4616 6.02903 68.6616 6.52903 68.8616C6.92903 69.0616 7.32903 69.2615 7.62903 69.5615C7.92903 69.7615 8.22902 70.0616 8.52903 70.2616C8.82903 70.5616 9.22902 70.8616 9.52903 71.2616C9.52903 71.3616 9.62903 71.3615 9.62903 71.4615C9.22903 71.7615 8.82905 72.1615 8.42905 72.4615C8.02905 72.7615 7.72904 73.1615 7.32904 73.4615L7.42905 73.3616C7.02905 73.6616 6.62904 74.0616 6.32904 74.3616L6.22904 74.4615C6.22904 74.4615 6.32904 74.4616 6.32904 74.3616C5.32904 75.1616 4.42904 75.9616 3.32904 76.7616C2.92904 77.0616 2.52903 77.3615 2.02903 77.6616C1.62903 77.9616 1.32905 78.1615 0.92905 78.4615C0.32905 78.9615 0.229032 79.8615 0.629032 80.4615C0.829032 80.7615 1.22903 80.9615 1.52903 80.9615C1.62903 80.9615 1.62904 80.9615 1.72904 80.9615C1.92904 80.9615 2.22905 80.8616 2.42905 80.7616C2.92905 80.4616 3.32904 80.0616 3.82904 79.7616C4.32904 79.3616 4.82904 79.0616 5.32904 78.6616C6.62904 77.6616 7.82903 76.5615 9.12903 75.5615L9.02903 75.6616C9.42902 75.2616 9.92904 74.8615 10.329 74.5615C10.629 74.3615 10.829 74.0616 11.129 73.8616C11.329 73.9616 11.529 74.0616 11.729 74.1616C11.929 74.2616 12.129 74.4615 12.329 74.5615C12.829 74.8615 13.329 75.2616 13.829 75.6616C14.129 75.9616 14.529 76.2615 14.829 76.5615C15.029 76.7615 15.129 76.9615 15.429 77.0615C15.529 77.0615 15.529 77.0615 15.629 77.0615C15.829 77.0615 16.029 76.9616 16.129 76.8616C16.229 76.6616 16.329 76.3616 16.129 76.2616C16.029 76.1616 15.929 76.0616 15.829 75.8616C15.629 75.6616 15.529 75.4616 15.329 75.2616C14.929 74.8616 14.529 74.3615 14.129 73.9615C13.729 73.5615 13.329 73.2615 12.929 72.9615C12.729 72.7615 12.529 72.6615 12.329 72.4615C12.429 72.3615 12.529 72.2616 12.629 72.1616C13.029 71.8615 13.329 71.4615 13.629 71.0615C13.729 71.0615 13.729 71.0615 13.829 71.0615C14.229 70.9615 14.729 70.7616 15.129 70.6616C15.429 70.5616 15.729 70.5615 16.029 70.5615C16.429 70.5615 16.829 70.5615 17.329 70.5615C17.729 70.5615 18.129 70.6616 18.529 70.7616C19.029 70.8616 19.4291 70.9616 19.9291 71.1616C20.0291 71.2616 20.229 71.2616 20.329 71.3616C20.629 71.4616 20.829 71.6616 21.029 71.7616C21.229 71.8616 21.329 71.9615 21.529 72.0615C21.729 72.2615 21.829 72.3615 22.029 72.5615C22.229 72.7615 22.329 72.9615 22.629 73.0615H22.729C22.929 73.0615 23.129 72.8615 23.229 72.6616C23.329 72.3615 23.1291 71.9616 22.9291 71.7616C22.6291 71.4616 22.329 71.1616 22.029 70.8616C21.429 70.3616 20.829 70.0616 20.129 69.7616C18.929 69.3616 17.729 69.0615 16.4291 69.0615C16.1291 69.0615 15.829 69.0615 15.429 69.0615C15.729 68.7615 16.029 68.3615 16.329 68.0615C17.429 66.7615 18.329 65.3615 19.329 63.9615C19.329 63.9615 19.3291 63.8616 19.4291 63.8616C20.3291 62.5616 21.129 61.3615 21.829 59.9615C21.929 59.9615 22.029 59.9616 22.129 59.8616C22.129 59.8616 22.129 59.8616 22.029 59.8616H22.129C23.029 59.6616 23.829 59.5616 24.729 59.3616C24.729 59.3616 24.729 59.3616 24.629 59.3616C26.029 59.0616 27.429 58.6616 28.829 58.2616C30.429 57.8616 32.029 57.3616 33.629 56.8616C34.429 56.6616 35.1291 56.3616 35.9291 56.1616C36.6291 55.9616 37.429 55.6615 38.129 55.4615C38.329 55.3615 38.629 55.2616 38.829 55.1616C39.029 55.0616 39.129 54.7615 39.029 54.5615C39.029 54.4615 38.929 54.3616 38.829 54.3616C38.729 54.3616 38.629 54.3616 38.529 54.3616C38.329 54.4616 38.229 54.4615 38.029 54.5615C37.029 54.9615 35.9291 55.2615 34.9291 55.5615C34.1291 55.7615 33.329 56.0616 32.529 56.2616C31.729 56.4616 30.929 56.7615 30.129 56.9615C29.329 57.1615 28.529 57.4616 27.629 57.6616C26.829 57.8616 26.029 58.0616 25.129 58.2616C24.329 58.4616 23.529 58.6616 22.729 58.7616C22.529 58.7616 22.429 58.8616 22.229 58.8616C22.329 58.6616 22.429 58.4616 22.529 58.2616C22.729 57.8616 22.929 57.5616 23.129 57.1616C23.229 57.1616 23.329 57.0615 23.529 57.0615C23.629 57.0615 23.629 57.0615 23.729 56.9615C23.729 56.9615 23.729 56.9615 23.829 56.9615H23.9291C24.0291 56.9615 24.029 56.9616 24.129 56.8616H24.229C25.329 56.4616 26.529 56.1616 27.629 55.7616C28.529 55.4616 29.329 55.2615 30.229 54.9615C31.129 54.6615 31.929 54.3616 32.829 54.1616C34.529 53.5616 36.129 53.0615 37.829 52.4615C37.829 52.4615 37.829 52.4615 37.729 52.4615C37.829 52.4615 37.8291 52.4616 37.9291 52.3616C38.1291 52.2616 38.229 52.2616 38.4291 52.1616C38.4291 52.1616 38.429 52.1616 38.329 52.1616C38.429 52.1616 38.629 52.0615 38.729 52.0615C38.729 52.0615 38.729 52.0615 38.629 52.0615H38.729C38.729 52.0615 38.729 52.0615 38.629 52.0615C38.629 52.0615 38.629 52.0615 38.729 52.0615H38.829C38.829 52.0615 38.8291 52.0615 38.9291 52.0615C38.9291 52.0615 38.929 52.0615 38.829 52.0615C39.029 51.9615 39.129 51.9616 39.329 51.8616C39.329 51.8616 39.329 51.8616 39.229 51.8616H39.329C39.429 51.8616 39.529 51.7616 39.629 51.7616C39.829 51.6616 39.929 51.6615 40.129 51.5615C40.329 51.4615 40.4291 51.1616 40.4291 50.9616C40.3291 50.7616 40.029 50.6616 39.829 50.6616C39.529 50.7616 39.129 50.9615 38.829 51.0615C38.529 51.1615 38.129 51.3616 37.829 51.4616H37.729C36.629 51.8616 35.429 52.2615 34.329 52.5615C33.429 52.8615 32.629 53.1616 31.729 53.3616C30.829 53.6616 30.029 53.9616 29.129 54.1616C27.429 54.7616 25.729 55.2616 24.029 55.8616C23.929 55.8616 23.829 55.9615 23.629 55.9615C24.129 54.9615 24.629 54.0615 25.129 53.0615C25.929 51.3615 26.729 49.5616 27.529 47.7616C27.929 46.7616 28.329 45.8615 28.729 44.8615C28.729 44.8615 28.729 44.8615 28.829 44.8615C28.929 44.8615 29.029 44.7616 29.129 44.7616C29.929 44.4616 30.629 44.0616 31.329 43.6616C32.029 43.2616 32.829 42.8615 33.529 42.5615C34.229 42.1615 35.029 41.7616 35.729 41.3615C36.429 40.9615 37.229 40.5615 37.9291 40.0615C39.3291 39.2615 40.729 38.3615 42.129 37.5615C42.829 37.1615 43.529 36.7616 44.129 36.3615C44.829 35.9615 45.429 35.5616 46.129 35.1616C46.329 35.0616 46.429 34.7615 46.229 34.5615C46.129 34.3615 45.829 34.2616 45.629 34.4616C45.429 34.5616 45.229 34.7615 44.9291 34.8615C43.529 35.6615 42.229 36.4616 40.829 37.2616C40.129 37.6616 39.429 38.0615 38.729 38.5615C38.029 38.9615 37.329 39.3616 36.629 39.7616C35.929 40.1616 35.229 40.5616 34.4291 40.9616C33.729 41.3616 33.029 41.7615 32.229 42.0615C31.529 42.4615 30.729 42.8616 30.029 43.2616C29.729 43.4616 29.3291 43.6615 28.9291 43.8615C29.1291 43.4615 29.229 42.9615 29.4291 42.5615C30.3291 42.5615 30.429 42.5616 30.529 42.4616Z" fill="#0B263D"/>
<path d="M16.1291 45.2616C15.9291 44.8616 15.6291 44.4616 15.3291 44.2616C14.9291 44.0616 14.5291 43.9615 14.1291 43.9615C13.8291 43.9615 13.6291 44.1616 13.3291 44.2616C13.1291 44.3616 12.9291 44.4615 12.7291 44.6615C12.3291 45.0615 12.2291 45.6616 12.2291 46.2616C12.2291 46.8616 12.5291 47.3616 12.9291 47.7616C13.2291 48.0616 13.7291 48.2616 14.2291 48.2616C14.3291 48.2616 14.3291 48.2616 14.4291 48.2616C14.9291 48.2616 15.3291 47.9615 15.7291 47.6615C15.9291 47.4615 16.0291 47.2615 16.1291 47.0615C16.2291 46.8615 16.2291 46.6615 16.3291 46.4615C16.3291 46.2615 16.3291 46.0615 16.3291 45.8615C16.3291 45.6615 16.2291 45.4616 16.1291 45.2616Z" fill="#0B263D"/>
<path d="M25.4291 39.2615C25.4291 39.5615 25.7291 39.8615 26.0291 39.8615C26.3291 39.8615 26.6291 39.5615 26.6291 39.2615C26.6291 38.9615 26.3291 38.6615 26.0291 38.6615C25.7291 38.5615 25.4291 38.8615 25.4291 39.2615Z" fill="#0B263D"/>
<path d="M19.8291 28.8615C20.3291 28.8615 20.8291 28.4615 20.8291 27.8615C20.8291 27.3615 20.4291 26.8615 19.8291 26.8615C19.3291 26.8615 18.8291 27.2615 18.8291 27.8615C18.8291 28.4615 19.3291 28.8615 19.8291 28.8615Z" fill="#0B263D"/>
<path d="M25.8291 33.2616C25.9291 33.2616 25.9291 33.2616 26.0291 33.2616C26.4291 33.2616 26.7291 33.0616 26.9291 32.7616C27.0291 32.5616 27.1291 32.3615 27.1291 32.1615C27.1291 31.9615 27.1291 31.8615 27.1291 31.6615C27.1291 31.5615 27.0291 31.4615 27.0291 31.3615C27.0291 31.3615 27.0291 31.2616 26.9291 31.2616C26.8291 30.9616 26.5291 30.7615 26.2291 30.6615C25.8291 30.4615 25.3291 30.5615 24.9291 30.8615C24.6291 31.0615 24.4291 31.4616 24.4291 31.7616C24.4291 32.1616 24.5291 32.6616 24.8291 32.9616C25.0291 33.1616 25.4291 33.2616 25.8291 33.2616Z" fill="#0B263D"/>
<path d="M29.7291 49.8615C29.7291 50.3615 30.1291 50.7616 30.6291 50.7616C31.1291 50.7616 31.5291 50.3615 31.5291 49.8615C31.5291 49.3615 31.1291 48.9615 30.6291 48.9615C30.1291 48.9615 29.7291 49.4615 29.7291 49.8615Z" fill="#0B263D"/>
<path d="M40.229 43.1615C39.129 43.1615 38.129 44.0615 38.129 45.2615C38.129 46.3615 39.029 47.3615 40.229 47.3615C41.429 47.3615 42.329 46.4615 42.329 45.2615C42.329 44.0615 41.329 43.1615 40.229 43.1615Z" fill="#0B263D"/>
<path d="M26.1291 22.6615C26.6291 22.6615 27.0291 22.2615 27.0291 21.7615C27.0291 21.2615 26.6291 20.8615 26.1291 20.8615C25.6291 20.8615 25.2291 21.2615 25.2291 21.7615C25.2291 22.2615 25.6291 22.6615 26.1291 22.6615Z" fill="#0B263D"/>
<path d="M29.729 17.6615C30.329 17.6615 30.829 17.1615 30.829 16.5615C30.829 15.9615 30.329 15.4615 29.729 15.4615C29.129 15.4615 28.629 15.9615 28.629 16.5615C28.629 17.1615 29.129 17.6615 29.729 17.6615Z" fill="#0B263D"/>
<path d="M36.3291 31.8615C36.3291 32.9615 37.2291 33.9615 38.4291 33.9615C39.6291 33.9615 40.5291 33.0615 40.5291 31.8615C40.5291 30.7615 39.6291 29.7615 38.4291 29.7615C37.2291 29.7615 36.3291 30.6615 36.3291 31.8615Z" fill="#0B263D"/>
<path d="M39.1291 24.5615C39.6261 24.5615 40.0291 24.1585 40.0291 23.6615C40.0291 23.1644 39.6261 22.7615 39.1291 22.7615C38.632 22.7615 38.2291 23.1644 38.2291 23.6615C38.2291 24.1585 38.632 24.5615 39.1291 24.5615Z" fill="#0B263D"/>
<path d="M16.8291 51.9614C16.0291 51.9614 15.4291 52.6615 15.4291 53.3615C15.4291 54.1615 16.1291 54.7614 16.8291 54.7614C17.5291 54.7614 18.2291 54.0615 18.2291 53.3615C18.3291 52.5615 17.6291 51.9614 16.8291 51.9614Z" fill="#0B263D"/>
<path d="M24.629 60.6615C24.129 60.6615 23.629 61.1615 23.629 61.6615C23.629 62.1615 24.129 62.6615 24.629 62.6615C25.129 62.6615 25.629 62.1615 25.629 61.6615C25.629 61.1615 25.129 60.6615 24.629 60.6615Z" fill="#0B263D"/>
<path d="M18.9291 49.9615C19.4291 49.9615 19.7291 49.5615 19.7291 49.1615C19.7291 48.6615 19.3291 48.3615 18.9291 48.3615C18.4291 48.3615 18.1291 48.7615 18.1291 49.1615C18.0291 49.5615 18.4291 49.9615 18.9291 49.9615Z" fill="#0B263D"/>
<path d="M12.3291 43.2616C12.8291 43.2616 13.2291 42.8615 13.2291 42.3615C13.2291 41.8615 12.8291 41.4615 12.3291 41.4615C11.8291 41.4615 11.4291 41.8615 11.4291 42.3615C11.4291 42.8615 11.8291 43.2616 12.3291 43.2616Z" fill="#0B263D"/>
<path d="M37.8291 7.86153C38.3291 7.86153 38.7291 7.46153 38.7291 6.96153C38.7291 6.46153 38.3291 6.06152 37.8291 6.06152C37.3291 6.06152 36.9291 6.46153 36.9291 6.96153C36.9291 7.46153 37.3291 7.86153 37.8291 7.86153Z" fill="#0B263D"/>
<path d="M31.9291 6.4615C32.4261 6.4615 32.8291 6.05855 32.8291 5.56149C32.8291 5.06444 32.4261 4.6615 31.9291 4.6615C31.432 4.6615 31.0291 5.06444 31.0291 5.56149C31.0291 6.05855 31.432 6.4615 31.9291 6.4615Z" fill="#0B263D"/>
<path d="M43.7291 28.8615C44.1291 28.8615 44.5291 28.4615 44.5291 28.0615C44.5291 27.6615 44.1291 27.2615 43.7291 27.2615C43.3291 27.2615 42.9291 27.6615 42.9291 28.0615C42.9291 28.5615 43.3291 28.8615 43.7291 28.8615Z" fill="#0B263D"/>
<path d="M29.2291 24.9615C29.2291 25.4615 29.6291 25.7615 30.0291 25.7615C30.5291 25.7615 30.8291 25.3615 30.8291 24.9615C30.8291 24.4615 30.4291 24.1615 30.0291 24.1615C29.6291 24.1615 29.2291 24.5615 29.2291 24.9615Z" fill="#0B263D"/>
</svg>
