<svg width="349" height="216" viewBox="0 0 349 216" fill="none" xmlns="http://www.w3.org/2000/svg">
<path d="M337.31 168.495C337.021 168.495 336.444 168.495 336.155 168.207C335.867 168.207 335.578 167.918 335.29 167.918C335.29 167.918 335.29 167.918 335.001 167.918C320.862 163.301 310.763 150.605 299.222 141.66C294.316 137.909 289.122 134.735 283.64 132.427H283.929C282.486 131.85 281.043 131.273 279.6 130.984C276.426 130.119 273.252 130.119 270.078 129.83C270.078 129.83 270.078 129.83 269.79 129.83C249.592 127.81 229.682 128.676 209.484 131.273C199.962 132.427 190.151 133.293 180.629 134.447C174.859 122.616 164.759 112.229 153.795 105.015C148.312 101.553 142.253 98.9556 135.616 97.8015C128.114 96.3587 120.323 98.3785 112.821 99.5327C95.7971 101.841 79.0614 103.861 62.3258 107.035C55.1122 108.478 48.1871 110.209 40.9734 111.94C37.2224 112.806 33.4713 113.96 29.7202 114.826C29.1431 114.826 27.4118 115.403 25.1034 116.268C21.3524 117.711 17.8898 119.442 14.1387 121.174C10.0991 123.771 6.348 126.945 3.174 130.696C3.174 130.984 3.174 131.561 2.88545 131.85C12.696 126.079 22.5065 120.885 33.7598 118.288C33.7598 118.288 33.7598 118.288 34.0484 118.288H34.3369C43.8589 119.154 51.6496 125.502 57.7091 132.138L57.9976 132.427C47.61 135.601 38.088 138.775 28.2774 143.392C23.6607 145.7 19.3325 148.297 15.2929 150.894C12.696 152.337 10.0991 154.068 7.79072 155.799C7.50218 156.088 6.92509 156.376 6.63654 156.665C6.63654 156.665 6.63654 156.665 6.348 156.665L6.05945 156.953C6.05945 157.242 5.77091 157.242 5.77091 157.53C5.48236 158.973 5.19382 159.839 4.03964 160.993C3.174 161.859 2.59691 163.301 2.01982 164.167C2.01982 164.455 1.73127 165.321 1.44273 166.187C0.865636 166.475 0.288545 167.629 0 167.629C1.15418 168.784 2.01982 169.649 3.174 170.803C3.75109 171.381 5.19382 173.4 5.19382 173.689C3.75109 174.843 2.30836 176.286 0.865637 177.729C0.577091 178.017 0.577092 178.306 0.288546 178.594C0.577092 179.46 0.865636 180.037 1.44273 180.902C1.73127 180.614 2.01982 180.614 2.01982 180.325C3.174 179.171 4.61673 178.017 5.48236 177.151C7.21363 175.709 8.94491 174.555 10.6762 173.4C13.8502 171.381 17.3127 169.649 21.0638 168.495C28.566 165.898 37.2224 165.033 45.3016 166.764C52.8038 168.207 59.1518 172.535 64.3456 177.729C68.9623 182.345 72.1363 187.828 74.7333 193.599C75.0218 193.887 75.0218 194.176 75.3103 194.464C76.7531 194.753 78.1958 195.33 79.35 195.907C81.3698 196.773 83.3896 197.638 85.4094 198.504C85.698 197.927 86.2751 197.35 86.8521 197.061C94.0658 190.136 103.588 185.808 113.11 183.499C124.652 180.614 136.771 180.325 148.601 182.345C159.566 184.365 170.242 188.693 180.052 194.176C184.669 197.061 189.286 200.235 193.325 203.698C197.076 207.16 199.962 211.2 203.136 215.239C203.424 215.528 203.424 215.528 203.713 215.528C204.002 215.528 204.002 215.528 204.29 215.528C205.733 215.239 207.176 214.951 208.618 214.662C214.101 213.797 219.583 212.643 225.065 211.777C236.319 209.757 247.86 208.314 259.402 206.872C270.656 205.429 282.197 203.986 293.451 202.255C304.415 200.524 315.38 199.658 326.345 198.215C326.633 198.215 326.922 197.927 326.633 197.638C326.922 197.061 326.922 195.907 326.922 195.33C326.922 195.041 326.922 194.464 326.922 194.176C326.922 193.887 326.633 193.598 326.633 193.31V193.021C326.633 192.733 326.345 192.156 326.056 191.867C325.191 190.424 324.325 188.982 323.171 187.828C325.479 187.539 327.788 186.962 330.384 186.673C330.673 186.673 330.673 186.673 330.962 186.385C330.962 185.808 330.962 185.519 330.962 184.942C330.096 182.922 329.23 180.614 327.788 179.171C326.633 178.017 325.768 176.574 324.614 175.132C324.325 174.843 324.325 174.555 324.036 174.266C328.076 173.112 331.827 171.958 335.578 170.803C335.867 170.803 336.155 170.803 336.155 170.515C336.444 170.515 336.732 170.226 337.021 170.226C337.598 169.361 337.31 169.072 337.31 168.495Z" fill="#ABABAB"/>
<path d="M17.6019 122.905C14.4279 124.636 11.2539 126.079 8.07989 128.099C7.5028 128.388 5.48298 129.542 3.75171 130.407C10.9653 123.194 19.3332 118.288 29.4322 118C25.6812 119.154 21.353 121.174 17.6019 122.905Z" fill="white"/>
<path d="M29.7208 143.68C39.2428 139.352 48.7648 136.178 58.5754 133.293C69.5401 145.989 81.0819 164.167 83.1017 181.191C81.9475 178.594 79.9277 172.823 78.485 170.515C72.137 159.262 61.1723 150.894 48.7648 147.431C39.2428 144.834 29.7208 145.123 21.0645 148.297C23.9499 146.566 26.8354 145.123 29.7208 143.68Z" fill="white"/>
<path d="M6.05954 159.262C6.34809 158.685 6.05954 158.108 6.34809 157.242C6.92518 156.665 7.50227 156.376 8.36791 155.799C10.3877 154.645 12.6961 153.202 14.7159 152.048C25.6806 146.566 37.511 145.412 49.9184 148.874C57.9977 151.182 64.6343 155.799 70.1166 161.57C64.6343 157.53 58.5748 154.356 51.9383 152.048C36.3568 146.277 18.467 149.451 5.771 159.55C6.05954 159.55 6.05954 159.55 6.05954 159.262Z" fill="white"/>
<path d="M324.614 190.713C324.902 191.29 325.768 192.444 326.056 193.599C326.056 193.599 326.056 193.599 326.056 193.887C306.147 195.33 286.237 197.35 266.327 200.235C255.94 201.678 245.841 203.409 235.453 204.563C230.548 205.14 225.354 205.718 220.449 206.583C215.832 207.16 210.927 208.026 206.31 208.603C204.29 206.583 202.559 204.275 200.539 202.255C196.211 197.927 191.017 194.176 185.823 190.713C181.207 187.539 176.59 184.654 171.396 182.345C165.337 179.748 158.7 178.017 152.352 176.574C140.522 173.978 127.537 174.266 115.995 177.44C104.453 180.614 93.2002 184.942 84.5438 193.887C93.2002 185.808 103.876 181.48 115.13 178.306C126.96 174.843 140.233 174.843 152.063 177.152C163.317 179.46 173.704 183.211 183.226 189.559C187.843 192.733 192.46 195.907 196.788 199.37C199.096 201.101 201.116 203.409 203.136 205.429C204.002 206.295 204.867 207.449 205.733 208.314C206.021 208.603 206.021 208.603 206.31 208.892C206.598 208.892 206.887 208.892 207.176 208.892C216.409 208.026 225.354 206.295 234.299 205.14C244.975 203.698 255.651 202.255 266.327 200.812C286.237 197.927 306.147 195.907 326.345 194.464C326.345 194.753 326.345 195.33 326.345 195.618V195.907C326.345 196.484 326.345 197.35 326.056 197.638C315.669 198.504 305.281 199.658 294.893 201.101C283.64 202.832 272.098 204.275 260.845 205.718C249.592 207.16 238.627 208.603 227.374 210.623C221.891 211.488 216.409 212.643 210.927 213.797C208.618 214.085 206.021 214.374 204.002 214.951C198.519 205.429 189.574 198.215 180.052 192.733C169.376 186.674 157.546 182.345 145.427 180.614C133.885 179.171 122.055 180.037 110.801 183.211C105.319 184.654 100.125 186.962 95.22 189.848C92.9116 191.29 90.6033 193.022 88.5835 194.753C88.2949 195.041 86.8522 196.484 85.698 197.638C83.6782 196.773 81.3698 195.907 79.35 195.041C78.1958 194.753 77.0416 194.176 75.5989 193.887C69.5395 178.883 57.4206 166.475 40.3964 165.033C32.0286 164.456 23.3722 166.187 15.87 169.649C12.1189 171.381 8.94493 173.4 5.77094 175.997C4.61675 176.863 2.30839 178.594 1.15421 180.326C0.865664 179.748 0.57712 178.883 0.288574 178.306C12.1189 167.341 27.7004 160.127 44.1475 162.436C51.9382 163.59 59.1518 166.187 65.2113 171.669C70.9822 176.863 76.176 184.365 78.7729 191.867C78.7729 192.156 79.35 191.579 79.35 191.579C76.4646 184.077 71.5593 176.575 65.4998 171.381C59.1518 165.61 51.0726 163.013 42.4162 161.859C34.3369 160.993 25.1035 162.724 17.6013 165.898C13.2731 167.63 8.94493 170.226 4.9053 173.4L5.19384 173.112C4.61675 171.958 3.75112 170.515 2.59694 169.361C2.01985 168.784 1.44276 167.918 0.577119 167.63V167.341C7.50221 162.147 14.4273 158.108 23.3722 156.665C30.8744 155.511 39.2422 156.088 46.7444 157.242C54.8236 158.685 61.7487 162.724 68.0967 167.63C75.0218 172.823 78.1958 179.46 81.3698 187.251C81.3698 187.539 81.9469 187.251 81.6584 186.962C76.4646 169.072 62.0373 157.819 43.5704 155.511C35.7797 154.645 27.4118 154.068 19.6211 156.088C15.2929 157.242 11.2533 158.973 7.50221 161.282C6.63657 161.859 3.17403 163.879 0.865664 165.61C1.44276 163.879 2.01985 162.436 3.46257 161.282C17.3128 151.471 33.7598 148.297 49.9184 153.779C57.4206 156.376 64.9227 160.416 70.9822 165.61C71.8478 166.475 72.7135 167.341 73.5791 168.207C75.0218 169.938 76.4645 171.669 77.6187 173.978C79.6385 178.017 81.9469 182.634 82.8126 187.251C83.3896 186.674 83.6782 186.096 84.2553 185.519C84.2553 185.231 84.5438 185.231 84.5438 184.942C91.1804 175.997 98.9711 167.63 109.936 163.878C122.632 159.55 136.193 159.839 148.889 163.878C154.66 165.61 160.143 167.052 165.625 169.072C172.262 171.669 178.033 175.997 183.803 180.037C191.594 185.231 198.231 191.29 204.29 198.215C205.733 199.37 207.176 201.966 208.33 203.409C212.947 202.544 229.971 199.658 234.299 199.081C245.264 197.35 257.094 195.618 268.059 194.464C278.735 193.31 289.122 192.444 299.799 191.002C307.012 190.136 314.226 189.27 321.151 188.405C323.459 188.693 323.748 189.848 324.614 190.713Z" fill="white"/>
<path d="M326.344 195.907C326.344 195.618 326.344 195.041 326.344 194.753C306.435 196.196 286.236 198.504 266.327 201.101C255.651 202.544 244.974 203.986 234.298 205.429C225.353 206.583 216.12 208.603 207.175 209.18C206.886 209.18 206.598 209.18 206.309 209.18C206.021 208.892 206.021 208.892 205.732 208.603C204.867 207.737 204.001 206.583 203.135 205.718C201.116 203.698 199.096 201.389 196.787 199.658C192.459 196.196 187.842 193.022 183.226 189.848C173.704 183.5 163.316 179.748 152.063 177.44C140.232 174.843 126.959 175.132 115.129 178.594C103.876 181.768 93.1995 186.096 84.5432 194.176C85.6974 193.022 86.563 192.156 87.7172 191.29C85.6974 192.156 85.4088 194.464 83.1005 194.176C81.6577 194.176 80.7921 193.31 79.9265 192.156C79.9265 192.444 79.6379 192.444 79.6379 192.156C77.041 184.942 71.8472 177.152 66.0763 171.958C60.0168 166.764 53.0917 163.878 45.0125 162.724C28.5654 160.416 12.9839 167.63 1.15356 178.594C1.44211 179.171 1.73066 180.037 2.0192 180.614C3.17338 178.883 5.48175 177.152 6.63593 176.286C9.80993 173.689 12.9839 171.669 16.735 169.938C24.2372 166.475 32.8936 164.744 41.2614 165.321C58.2856 166.764 70.4045 179.171 76.4639 194.176C77.6181 194.464 78.7723 194.753 80.215 195.33C82.5234 196.196 84.5432 197.061 86.563 197.927C87.7172 196.773 88.8714 195.33 89.4485 195.041C91.4683 193.31 93.7766 191.579 96.085 190.136C100.99 187.251 106.184 184.942 111.666 183.5C122.92 180.326 134.75 179.46 146.292 180.903C158.411 182.634 170.241 186.962 180.917 193.022C190.439 198.504 199.384 205.718 204.867 215.24C207.175 214.662 209.772 214.374 211.792 214.085C217.274 212.931 222.756 212.066 228.239 210.911C239.204 208.892 250.457 207.737 261.71 206.006C272.963 204.563 284.505 202.832 295.758 201.389C306.146 199.947 316.534 198.792 326.921 197.927C326.344 197.35 326.344 196.484 326.344 195.907Z" fill="#B02444"/>
<path d="M326.345 195.907C326.345 195.619 326.345 195.042 326.345 194.753C306.436 196.196 286.238 198.504 266.328 201.101C255.652 202.544 244.976 203.986 234.299 205.429C225.355 206.583 216.121 208.603 207.176 209.18C206.888 209.18 206.599 209.18 206.311 209.18C206.022 208.892 206.022 208.892 205.733 208.603C205.156 210.912 204.868 212.931 204.291 215.24C206.599 214.663 208.908 214.374 211.216 214.086C216.698 212.931 222.181 212.066 227.663 210.912C238.628 208.892 249.881 207.738 261.134 206.006C272.387 204.564 283.929 202.832 295.183 201.39C305.57 199.947 315.958 198.793 326.345 197.927C326.345 197.35 326.345 196.484 326.345 195.907Z" fill="#4A0F1D"/>
<path d="M325.191 176.575C326.057 177.729 328.654 180.326 330.096 185.231C309.898 187.539 289.989 190.425 269.79 192.445C249.592 194.464 229.971 198.504 210.061 201.678C203.713 191.867 194.48 183.788 184.669 177.152C179.187 173.401 173.993 169.649 167.645 167.053C160.432 164.167 152.641 162.147 145.139 160.127C132.443 156.953 118.015 158.685 106.185 163.879C101.568 165.898 97.5288 169.649 93.7777 173.401C91.7579 175.709 89.738 177.729 88.0068 180.326C87.4297 180.903 85.4099 183.211 84.2557 184.942C83.9671 173.978 80.5046 164.167 75.0222 154.645C69.5399 144.835 62.9033 135.024 55.1126 127.233C47.6104 119.731 37.7999 115.691 27.1237 116.557C26.8351 116.557 26.5466 116.557 26.2581 116.557C36.6457 113.383 47.6104 111.075 58.2866 108.478C74.1566 104.727 90.3151 102.707 106.474 100.976C113.687 100.11 120.612 98.9558 127.826 98.3787C136.194 97.5131 144.273 100.976 151.487 105.015C163.029 111.363 173.128 122.328 179.187 134.158C163.029 136.178 146.87 138.487 131 142.815C124.363 144.546 118.015 147.143 112.533 150.894C101.857 157.819 90.8922 169.361 86.2755 181.191C85.9869 181.768 85.6984 182.345 85.4099 182.634C85.1213 182.923 85.4099 182.923 85.6984 182.634C97.2402 167.63 109.936 155.799 128.692 151.76C145.716 148.297 165.914 154.068 179.764 164.167L180.053 163.879C166.491 152.048 144.85 146.566 127.249 150.894C110.513 154.934 96.3746 165.898 86.8526 180.037C90.3151 173.401 95.2204 167.63 100.414 162.436C105.897 156.953 111.667 151.76 118.593 148.297C124.941 145.123 131.577 143.68 138.791 142.815C148.024 141.949 156.103 145.412 163.894 149.451C176.013 155.799 186.112 165.321 196.211 173.978C200.539 177.729 205.156 181.48 210.35 184.077C215.255 186.385 220.161 187.828 225.354 188.982C225.354 188.982 225.354 188.982 225.643 188.982C226.797 189.271 227.663 189.271 228.817 189.559C230.26 189.559 231.414 189.271 232.857 189.271C238.627 188.405 244.398 187.828 249.881 186.674C260.557 184.654 271.522 182.634 282.198 180.903C296.048 178.883 309.898 176.863 323.46 173.112C324.325 174.843 324.903 176.286 325.191 176.575Z" fill="white"/>
<path d="M140.233 166.475C129.557 165.321 120.324 166.764 110.224 170.803C101.28 174.554 90.3149 181.191 85.6981 189.847C85.4096 190.136 85.6981 190.136 85.9867 190.136C98.3941 173.689 120.324 166.187 140.233 167.052C140.233 167.052 140.522 166.475 140.233 166.475Z" fill="#CCCCCC"/>
<path d="M336.156 169.361C318.266 175.709 299.51 178.306 281.043 181.191C270.079 182.634 259.403 184.942 248.726 186.962C242.378 188.116 236.03 188.982 229.971 189.847C223.046 188.116 216.409 186.096 210.35 182.634C203.713 179.171 197.942 173.689 192.171 168.495C180.63 158.396 168.222 148.008 153.218 143.392C149.467 142.237 145.427 141.66 141.387 141.949C150.332 140.506 159.566 138.486 168.511 137.332C172.262 136.755 176.301 136.178 180.053 135.889C180.341 135.889 180.341 135.889 180.63 135.889C189.575 134.735 198.231 133.581 207.176 132.715C219.872 131.561 232.568 130.407 245.264 130.118C257.094 129.83 268.636 130.984 280.178 132.427C287.969 135.312 295.182 139.64 301.53 145.123C307.301 150.028 312.783 155.51 318.554 160.127C323.748 164.167 328.942 168.784 335.867 169.361H336.156Z" fill="white"/>
<path opacity="0.4" d="M66.0763 142.238C66.0763 142.526 66.0763 142.526 65.7877 142.526C60.3054 143.392 55.1115 145.989 49.9177 147.431C62.0366 151.182 72.7128 159.262 78.7723 170.226C80.5035 172.535 82.5233 178.306 83.389 180.903C81.9463 167.63 74.4441 153.779 66.0763 142.238Z" fill="#BABABA"/>
<path opacity="0.4" d="M6.05954 159.262C6.34809 158.685 6.05954 158.108 6.34809 157.242C6.92518 156.665 7.50227 156.376 8.36791 155.799C10.3877 154.645 12.6961 153.202 14.7159 152.048C25.6806 146.566 37.511 145.412 49.9184 148.874C57.9977 151.182 64.6343 155.799 70.1166 161.57C64.6343 157.53 58.5748 154.356 51.9383 152.048C36.3568 146.277 18.467 149.451 5.771 159.55C6.05954 159.55 6.05954 159.55 6.05954 159.262Z" fill="#BABABA"/>
<path opacity="0.4" d="M326.345 195.907C326.345 195.618 326.345 195.041 326.345 194.753C306.435 196.195 286.237 198.504 266.328 201.101C255.651 202.543 244.975 203.986 234.299 205.429C225.354 206.583 216.121 208.603 207.176 209.18C206.887 209.18 206.599 209.18 206.31 209.18C206.022 208.891 206.022 208.891 205.733 208.603C204.867 207.737 204.002 206.583 203.136 205.717C201.116 203.697 199.096 201.389 196.788 199.658C192.46 196.195 187.843 193.021 183.226 189.847C173.704 183.499 163.317 179.748 152.064 177.44C140.233 174.843 126.96 175.132 115.13 178.594C103.876 181.768 93.2003 186.096 84.5439 194.175C93.2003 185.519 104.454 181.191 115.995 177.728C127.537 174.554 140.522 174.266 152.352 176.863C158.7 178.305 165.337 180.037 171.396 182.634C176.59 184.942 181.207 187.827 185.823 191.001C191.017 194.464 196.211 198.215 200.539 202.543C202.559 204.563 204.579 206.583 206.31 208.891C210.927 208.026 215.832 207.449 220.449 206.871C225.354 206.006 230.548 205.429 235.453 204.852C245.841 203.697 256.228 201.966 266.328 200.523C286.237 197.638 306.147 195.618 326.056 194.175C326.056 194.175 326.056 194.175 326.056 193.887C325.768 193.021 324.902 191.579 324.614 191.001C324.037 189.847 323.46 188.982 322.594 188.116C315.38 189.27 308.167 189.847 301.242 190.713C290.854 192.156 280.178 193.021 269.502 194.175C258.537 195.33 246.706 197.35 235.742 198.792C231.414 199.369 214.389 202.255 209.773 203.12C208.618 201.678 207.176 199.369 205.733 197.927C199.962 191.002 193.326 184.942 185.246 179.748C179.475 175.997 173.416 171.38 167.068 168.783C161.586 166.764 155.815 165.032 150.332 163.59C137.636 159.839 124.075 159.55 111.379 163.59C100.414 167.341 92.6232 175.709 85.9867 184.653C85.9867 184.942 85.6981 184.942 85.6981 185.231C85.121 185.808 84.8325 186.385 84.2554 186.962C83.3898 182.345 81.0814 177.728 79.0616 173.689C77.9074 171.669 76.7532 169.649 75.0219 167.918C74.1563 167.052 73.2907 166.187 72.425 165.321C66.3656 160.127 58.8634 156.087 51.3612 153.491C35.2027 148.008 18.7556 151.182 4.90542 160.993C3.46269 162.436 2.8856 163.59 2.30851 165.321C4.61687 163.59 8.07942 161.57 8.94505 160.993C12.6961 158.684 16.7358 156.953 21.064 155.799C28.5661 154.068 37.2225 154.356 45.0132 155.222C63.1916 157.53 77.9074 169.072 83.1012 186.673C83.1012 186.962 82.8127 187.25 82.8127 186.962C79.6387 179.171 76.7532 172.535 69.5396 167.341C62.903 162.435 56.2665 158.396 48.1872 156.953C42.7049 156.088 36.6454 155.51 31.163 155.799C32.8943 156.087 34.337 156.665 35.7798 157.242C36.0683 157.53 36.0683 158.107 35.7798 158.107C25.9692 162.724 14.1389 165.032 6.0596 172.246C6.0596 172.246 6.0596 172.535 6.34814 172.535C6.34814 172.535 6.34814 172.823 6.0596 172.823C9.81069 169.649 14.1389 167.052 18.7556 165.321C26.2578 162.147 35.4912 160.127 43.5705 161.281C51.9383 162.147 60.0176 164.744 66.6541 170.803C72.425 175.997 77.6189 183.499 80.5043 191.001C80.5043 191.29 80.2158 191.579 79.9272 191.29C77.3303 184.076 72.1365 176.286 66.3656 171.092C60.3061 165.898 53.381 163.013 45.3018 161.858C29.1432 159.55 13.8503 166.475 2.01996 177.151C1.73142 177.44 1.73142 177.728 1.44287 178.017C1.73142 178.594 2.01996 179.171 2.30851 179.748C3.46269 178.017 5.77105 176.286 6.92524 175.42C10.0992 172.823 13.2732 170.803 17.0243 169.072C24.5265 165.61 33.1829 163.878 41.5507 164.455C58.5749 165.898 70.6938 178.305 76.7532 193.31C77.9074 193.598 79.0616 193.887 80.5043 194.464C82.8127 195.33 84.8325 196.195 86.8523 197.061C88.0065 195.907 89.1607 194.464 89.7378 194.175C91.7576 192.444 94.0659 190.713 96.3743 189.27C101.28 186.385 106.473 184.076 111.956 182.634C123.209 179.46 135.039 178.594 146.581 180.037C158.7 181.768 170.53 186.096 181.207 192.156C190.729 197.638 199.674 204.852 205.156 214.374C207.464 213.797 210.061 213.508 212.081 213.22C217.563 212.065 223.046 211.2 228.528 210.045C239.493 208.026 250.746 206.871 261.999 205.14C273.253 203.697 284.794 201.966 296.048 200.523C306.435 199.081 316.823 197.927 327.211 197.061C326.345 197.349 326.345 196.484 326.345 195.907Z" fill="#BABABA"/>
<path opacity="0.4" d="M206.887 209.18C206.31 209.18 206.021 209.18 205.733 209.18C205.444 208.892 205.444 208.892 205.156 208.603C204.29 207.737 203.424 206.583 202.559 205.718C200.539 203.698 198.519 201.389 196.211 199.658C191.882 196.196 187.266 193.022 182.649 189.848C173.127 183.5 162.739 179.748 151.486 177.44C139.656 174.843 126.383 175.132 114.552 178.594C103.299 181.768 92.6228 186.096 83.9665 194.176C92.6228 185.519 103.876 181.191 115.418 177.729C126.96 174.555 139.944 174.266 151.775 176.863C158.123 178.306 164.759 180.037 170.819 182.634C176.012 184.942 180.629 187.828 185.246 191.002C190.44 194.464 195.634 198.215 199.962 202.544C201.982 204.563 204.001 206.583 205.733 208.892H206.021C205.733 208.314 205.733 207.737 205.444 207.449C204.001 204.563 202.27 201.678 200.25 198.792C196.499 193.31 191.882 188.693 186.689 184.365C176.012 175.997 163.605 169.938 150.043 167.63C135.616 165.033 119.746 165.61 106.473 172.535C96.3739 177.729 85.6978 185.808 80.7925 196.196C82.2352 196.773 83.9665 197.35 85.4092 197.927C86.5634 196.773 87.7176 195.33 88.2947 195.041C90.3145 193.31 92.6228 191.579 94.9312 190.136C99.8365 187.251 105.03 184.942 110.513 183.5C121.766 180.326 133.596 179.46 145.138 180.903C157.257 182.634 169.087 186.962 179.764 193.022C189.286 198.504 198.23 205.718 203.713 215.24C205.156 214.662 206.887 214.662 208.618 214.374C208.33 212.354 207.752 210.911 206.887 209.18Z" fill="#BABABA"/>
<path opacity="0.4" d="M228.24 210.623C235.454 208.026 242.667 205.429 250.17 203.12C244.976 203.986 239.493 204.563 234.3 205.429C225.643 206.583 216.987 208.314 208.331 209.18C208.908 210.911 209.485 212.354 210.062 214.085C210.35 214.085 210.927 214.085 211.216 213.797C216.698 212.642 222.181 211.777 227.663 210.623C227.663 210.623 227.952 210.623 228.24 210.623Z" fill="#BABABA"/>
<path opacity="0.4" d="M326.345 194.753C326.056 194.753 326.056 194.753 326.345 194.753C326.056 194.464 326.056 194.753 326.345 194.753C306.147 195.907 285.948 198.215 266.327 200.812C263.442 201.101 260.845 201.678 257.959 201.966C249.88 204.275 241.801 206.872 233.722 209.468C242.667 208.026 251.9 206.872 260.845 205.717C272.098 204.275 283.64 202.543 294.893 201.101C305.281 199.658 315.669 198.504 326.056 197.638C326.345 197.35 326.345 196.484 326.345 195.907C326.345 195.907 326.345 195.907 326.345 195.618C326.345 195.33 326.345 195.041 326.345 194.753Z" fill="#BABABA"/>
<path opacity="0.4" d="M325.19 176.574C324.902 175.997 324.325 174.554 323.747 173.977C310.186 177.44 296.336 179.748 282.485 181.768C271.521 183.211 260.845 185.231 250.168 187.539C244.397 188.693 238.915 189.27 233.144 190.136C231.701 190.136 230.547 190.424 229.105 190.424C227.95 190.424 226.796 190.136 225.931 189.847C225.931 189.847 225.931 189.847 225.642 189.847C220.448 188.693 215.254 187.25 210.638 184.942C205.444 182.345 200.827 178.594 196.499 174.843C186.111 166.187 176.301 156.665 164.182 150.317C156.391 146.277 148.023 142.814 139.078 143.68C132.153 144.546 125.228 145.988 118.88 149.162C111.955 152.625 105.896 157.53 100.702 163.301C95.508 168.495 90.3142 174.266 87.1402 180.902C96.6622 166.475 110.512 155.799 127.537 151.759C145.138 147.431 166.779 152.914 180.34 164.744C180.34 164.744 180.34 165.032 180.052 165.032C166.202 154.933 146.003 149.162 128.979 152.625C109.935 156.665 97.2393 168.495 85.986 183.499C85.986 183.788 85.6975 183.499 85.6975 183.499C85.986 182.922 86.2746 182.345 86.5631 182.057C91.4684 170.226 102.433 158.684 112.821 151.759C118.303 148.297 124.651 145.411 131.288 143.68C146.869 139.352 163.028 136.755 179.475 135.024C177.166 130.696 174.281 126.367 171.107 122.328C171.395 129.253 161.008 127.522 155.814 127.81C139.655 128.964 123.785 134.158 109.07 140.795C103.01 143.392 96.6622 146.566 90.0257 146.854C83.1006 147.143 78.1953 143.969 73.0015 139.64C67.5191 135.312 62.0367 130.984 55.9773 127.81C63.768 135.601 70.4046 145.411 75.8869 155.222C81.0807 164.744 84.8318 174.554 85.1204 185.519C86.2746 183.788 88.2944 181.768 88.8715 180.902C90.6027 178.594 92.6226 176.286 94.6424 173.977C98.1049 170.226 102.145 166.475 107.05 164.455C119.169 159.262 133.307 157.53 146.003 160.704C153.506 162.436 161.585 164.455 168.51 167.629C174.569 170.226 180.052 173.977 185.534 177.728C195.345 184.365 204.578 192.444 210.926 202.255C230.836 199.081 250.457 195.041 270.655 193.021C290.853 191.002 310.763 188.116 330.961 185.808C328.653 180.325 325.767 178.017 325.19 176.574Z" fill="#BABABA"/>
<path opacity="0.4" d="M325.191 176.575C324.902 175.997 324.325 174.555 323.748 173.978C310.186 177.44 296.336 179.749 282.486 181.768C271.521 183.211 260.845 185.231 250.169 187.539C244.398 188.693 238.916 189.271 233.145 190.136C231.702 190.136 230.548 190.425 229.105 190.425C227.951 190.425 226.797 190.136 225.931 189.848C225.931 189.848 225.931 189.848 225.643 189.848C220.449 188.693 215.255 187.251 210.638 184.942C205.444 182.345 200.828 178.594 196.5 174.843C186.112 166.187 176.301 156.665 164.182 150.317C156.392 146.277 148.024 142.815 139.079 143.68C132.154 144.546 125.229 145.989 118.881 149.163C111.956 152.625 105.896 157.531 100.702 163.301C95.5086 168.495 90.3148 174.266 87.1408 180.903C96.6628 166.475 110.513 155.799 127.537 151.76C145.138 147.431 166.779 152.914 180.341 164.744C180.341 164.744 180.341 165.033 180.052 165.033C166.202 154.934 146.004 149.163 128.98 152.625C109.936 156.665 97.2399 168.495 85.9866 183.5C85.9866 183.788 85.6981 183.5 85.6981 183.5C85.9866 182.923 86.2752 182.345 86.5637 182.057C91.469 170.227 102.434 158.685 112.821 151.76C118.304 148.297 124.652 145.412 131.288 143.68C146.87 139.352 163.028 136.755 179.475 135.024C179.187 134.735 179.187 134.447 178.898 134.158C178.033 134.158 177.167 134.158 176.301 134.158C169.665 133.87 163.028 134.735 156.392 135.89C141.676 138.198 127.249 140.795 113.11 145.412C105.896 147.72 98.9711 150.605 91.7575 152.914C88.0064 154.068 83.6782 155.799 79.6386 153.779C75.599 152.048 72.425 148.586 69.251 145.7C71.5593 148.874 73.5792 152.337 75.3104 155.799C80.5042 165.321 84.2553 175.132 84.5439 186.097C85.6981 184.365 87.7179 182.345 88.295 181.48C90.0262 179.171 92.0461 176.863 94.0659 174.555C97.5284 170.804 101.568 167.053 106.473 165.033C118.592 159.839 132.731 158.108 145.427 161.282C152.929 163.013 161.008 165.033 167.934 168.207C173.993 170.804 179.475 174.555 184.958 178.306C194.768 184.942 204.002 193.022 210.35 202.832C230.259 199.658 249.88 195.619 270.079 193.599C290.277 191.579 310.186 188.693 330.385 186.385C328.653 180.326 325.768 178.017 325.191 176.575Z" fill="#BABABA"/>
<path opacity="0.4" d="M335.867 169.361C328.942 168.784 323.459 164.167 318.554 160.127C313.937 156.376 309.609 152.337 305.281 148.297C305.57 149.74 305.858 151.182 305.281 152.625C304.127 157.53 298.933 159.262 294.605 160.416C279.6 164.167 264.019 163.878 248.726 166.187C234.876 168.206 220.449 171.381 206.31 168.495C198.808 167.052 192.748 163.301 186.112 159.839C180.918 157.242 175.724 154.356 170.53 152.336C178.032 157.242 184.958 163.301 191.883 169.072C197.654 173.977 203.424 179.46 210.061 183.211C216.409 186.673 223.046 188.693 229.682 190.424C236.03 189.27 242.378 188.693 248.438 187.539C259.114 185.519 270.078 183.211 280.755 181.768C299.51 179.171 317.977 176.286 335.867 169.938C336.155 169.361 335.867 169.361 335.867 169.361Z" fill="#BABABA"/>
<path d="M343.37 8.64066C344.235 8.35211 345.101 8.06358 346.255 8.06358C346.255 8.06358 349.429 7.48649 347.987 6.62085C341.639 5.75522 336.156 6.62087 329.808 8.35214C322.883 10.372 315.669 12.9689 308.456 13.8345C300.954 14.4116 294.606 11.5261 287.969 8.64066C281.621 5.75521 274.985 2.86975 268.059 1.42703C254.209 -2.03552 240.071 2.86978 227.952 9.79487C215.256 16.72 204.002 27.1076 193.326 36.6296C190.729 38.9379 187.844 41.5348 185.247 43.8432C183.804 44.9974 182.65 46.4401 181.207 47.5943C180.053 48.7485 178.61 50.4798 177.168 51.3454L176.879 51.0568C176.013 50.4797 174.571 51.6339 173.994 52.211C171.974 53.9423 170.243 55.9621 168.511 57.6934C167.934 58.2705 166.78 59.1361 166.491 60.0017C165.914 60.0017 165.337 60.0017 164.76 60.0017C159.855 60.5788 154.95 60.8674 150.333 61.1559C141.965 61.733 133.597 61.1559 124.941 61.1559C116.573 60.8674 107.917 60.0018 99.549 58.8476C95.5093 58.2705 91.4697 57.4048 87.4301 56.8277C85.4102 56.5392 83.679 56.8277 81.6591 57.1163C81.3706 57.1163 78.4852 57.9819 78.4852 57.9819C78.4852 57.9819 78.4852 57.9819 78.4852 58.2705C78.4852 58.2705 78.1966 58.2705 78.1966 58.559C74.4455 61.1559 75.5997 68.081 76.1768 71.8321C77.0424 77.0259 79.0622 81.9312 81.3706 86.5479C83.3904 90.8761 85.6988 94.9157 88.5842 98.6668C90.6041 101.264 92.0468 102.418 94.3551 104.726C96.9521 107.035 100.126 109.92 103.3 111.363C109.648 115.691 116.862 119.154 123.787 122.039C134.751 126.367 146.582 129.253 158.412 130.984C164.76 131.85 171.108 132.138 177.456 132.715C183.804 133.004 190.152 133.292 196.5 132.138C199.097 133.292 201.694 134.446 204.291 135.601C215.833 140.794 227.663 145.7 240.071 148.874C251.901 151.759 264.308 153.779 276.716 154.933C282.775 155.51 289.123 155.799 295.471 155.222C299.511 154.933 303.551 153.779 307.59 152.336C307.879 152.336 307.879 152.048 307.879 151.759C308.167 151.471 308.167 151.182 308.167 150.894C306.436 150.028 304.993 148.874 303.551 148.008C300.954 146.277 298.357 144.546 296.048 142.526C291.432 138.775 287.103 134.158 282.775 129.541C278.447 124.924 274.696 120.308 270.945 115.402C269.214 113.094 267.482 111.074 266.04 108.766C265.174 107.612 264.308 106.458 263.443 105.303C263.154 105.015 263.154 104.726 263.154 104.726L262.866 104.438C262.866 104.438 262.866 104.438 262.866 104.149C262.577 100.975 262.577 98.6668 263.443 95.4928C263.731 94.3387 262.866 94.0501 262 94.0501C262 94.0501 262 94.0501 262 93.7616C261.711 90.0105 261.423 86.5479 261.134 82.7968C260.846 78.1801 259.98 73.5634 260.846 69.2352C261.134 67.2154 262.289 65.7726 263.154 64.0414C263.731 63.1757 264.02 62.3101 264.02 61.1559C264.02 60.2903 262.866 59.7132 262.289 59.1361C261.423 58.559 260.846 58.2705 259.98 57.6934C258.537 56.5392 262 54.8079 262.577 54.5194C263.154 54.2309 264.308 53.0766 263.154 52.4995C262.577 52.211 262.289 51.9225 261.711 51.6339C261.711 51.6339 258.826 50.4798 259.98 49.9027C261.134 49.3256 262.577 49.037 263.731 48.4599C265.463 47.8828 268.925 47.3057 269.791 45.5745C270.656 43.8432 268.059 42.1119 266.905 40.6692C267.482 40.6692 268.348 40.6692 268.925 40.6692C270.945 40.9578 272.965 40.6692 274.696 40.9577C278.736 41.2463 282.775 41.5348 287.103 41.8234C295.183 42.4005 303.262 40.9577 310.187 36.6296C316.824 32.8785 321.44 26.5305 326.634 21.0481C329.231 18.1627 332.405 15.5658 335.579 13.2574C337.31 12.1032 339.619 10.3719 342.216 9.50631C342.793 8.92921 343.081 8.64066 343.37 8.64066Z" fill="#262626"/>
<path d="M188.421 130.984C185.536 130.984 182.65 130.695 179.476 130.695C173.128 130.407 166.78 129.83 160.432 129.253C148.313 127.521 136.483 124.636 124.941 120.308C119.747 118.288 114.842 115.98 110.225 113.383C108.783 112.517 107.34 111.652 105.897 110.786C101.569 108.189 97.5294 105.304 93.7784 102.13C85.4105 94.9159 80.5053 84.8168 77.3313 74.4292C76.1771 70.6781 75.6 66.6384 76.1771 62.5988C77.3313 51.9226 91.47 62.0217 95.5096 64.9071C107.917 73.8521 119.17 84.5283 131.578 93.4732C143.697 102.418 156.393 111.074 169.666 118.288C178.034 122.905 186.401 126.944 194.769 130.695C192.749 130.695 190.73 130.984 188.421 130.984Z" fill="black"/>
<path d="M95.5085 88.568C104.165 97.8014 114.553 105.592 125.517 111.363C145.715 122.039 167.933 127.233 190.729 128.387C183.515 125.213 176.59 121.751 169.665 118C156.392 110.786 143.696 102.13 131.577 93.1847C119.169 84.2398 107.916 73.5636 95.5085 64.6187C92.9116 62.8874 86.2751 57.9821 81.6584 57.6936C80.2156 69.2354 87.7178 80.4887 95.5085 88.568Z" fill="black"/>
<path d="M265.751 108.477C267.193 110.786 268.925 113.094 270.656 115.402C274.696 120.596 278.447 125.502 283.063 130.407C287.103 134.735 291.431 139.352 296.336 143.103C298.645 144.834 300.953 146.565 303.262 148.008C304.416 148.874 305.57 149.739 307.013 150.605C301.819 152.048 296.913 153.202 291.431 153.49C283.929 153.49 276.427 153.202 269.213 152.048C253.92 150.028 238.916 147.142 224.489 141.66C210.35 136.178 196.5 129.83 182.65 123.193C169.088 116.557 156.103 108.477 143.407 99.821C131.288 91.4532 119.747 82.5083 108.493 72.9863C103.3 68.9467 98.3943 64.6185 92.9119 61.1559C90.315 59.4247 86.8525 57.4048 83.6785 56.8278C85.6983 56.8278 87.7181 57.1163 89.4494 57.4049C93.489 57.982 97.5286 58.8476 101.568 59.4247C109.936 60.5789 118.592 61.4445 126.96 61.7331C135.328 62.0216 143.696 62.3102 152.352 61.7331C157.258 61.4445 162.451 61.156 167.645 60.2903C171.396 62.0216 174.57 64.6185 177.744 67.2154C182.072 70.678 186.112 74.1405 190.44 77.3145C194.768 80.777 199.674 83.3739 204.579 86.5479C213.524 92.3188 224.2 96.647 234.299 99.5325C243.533 102.129 253.343 103.861 262.865 104.149C262.865 104.438 263.154 104.438 263.154 104.149C263.154 104.149 263.154 104.438 263.442 104.438C264.019 105.592 264.885 107.035 265.751 108.477Z" fill="#666666"/>
<path d="M262.288 97.5127C261.999 99.244 261.999 100.975 262.288 102.995H261.999C253.631 102.707 245.552 100.975 237.473 99.244C227.951 97.2242 218.429 93.1845 209.773 88.5678C200.539 83.6625 191.883 77.8916 184.092 71.2551C180.63 68.3696 176.878 64.9071 173.127 62.5987C171.973 61.7331 170.819 61.156 169.376 60.5789C168.799 60.2904 167.934 60.0018 167.356 59.7133C167.356 59.7133 167.356 59.7133 167.068 59.7133C167.356 59.1362 168.511 57.982 168.799 57.982C169.665 57.1164 170.53 56.2507 171.396 55.3851C173.127 53.3653 175.436 50.1913 177.744 53.3653C180.63 57.4049 184.092 61.156 187.843 64.6186C191.306 68.0811 195.057 71.2551 199.385 74.1405C204.002 77.026 208.618 79.6229 213.524 81.9313C222.757 86.2595 233.145 88.5678 243.244 90.5877C248.726 91.7418 253.92 92.6075 259.402 94.0502C260.268 94.3387 261.134 94.3387 261.999 94.6273C263.442 94.0502 262.288 96.6471 262.288 97.5127Z" fill="#666666"/>
<path d="M329.231 16.72C322.883 22.7794 317.689 29.9931 310.187 34.8983C301.242 40.3807 291.431 40.0922 281.332 39.2265C276.715 38.938 272.387 38.938 267.771 38.6494C265.174 38.6494 263.731 39.8036 263.731 42.4005C263.731 42.4005 263.731 42.6891 264.019 42.6891C264.019 42.6891 264.019 42.6891 264.308 42.6891C264.597 42.6891 264.597 42.112 264.308 42.112C264.308 41.2463 264.885 40.3807 265.751 39.8036C266.039 39.8036 266.039 39.8036 266.328 39.8036C266.616 40.6692 267.482 41.5349 268.059 42.112C268.348 42.6891 268.636 43.2661 268.925 43.8432C269.502 44.7089 267.771 44.9974 267.193 45.286C264.597 46.1516 261.423 46.7287 259.114 48.46C257.96 49.3256 258.537 50.4798 259.691 50.7683C260.557 51.0569 264.885 51.9225 262 53.6538C261.134 54.2309 259.98 54.5194 259.691 55.385C258.826 57.4049 261.711 58.8476 262.865 59.7132C264.308 60.8674 261.423 64.6185 260.845 65.7727C260.268 67.2154 259.98 68.6581 259.691 70.1009C259.114 73.852 259.98 77.8916 260.268 81.6427C260.557 85.3938 260.845 89.1449 261.423 92.8959C258.537 92.6074 255.652 91.4532 253.055 90.8761C250.458 90.299 247.861 90.0105 245.264 89.4334C233.145 87.125 221.026 84.2396 209.773 78.4687C204.291 75.8718 198.808 72.6978 194.191 68.6581C189.863 64.9071 185.824 61.1559 182.073 56.8278C180.341 55.0965 179.187 52.4996 177.456 51.0569C177.744 50.4798 178.899 50.1912 179.187 49.9027C180.341 48.7485 181.784 47.5943 182.938 46.4402C185.824 43.8433 188.709 40.9578 191.595 38.3609C197.365 33.1671 203.425 27.9732 209.484 23.068C221.026 13.546 234.011 5.17817 249.015 1.71563C256.806 -0.0156432 264.308 0.56143 271.81 2.86979C278.447 4.88961 285.083 8.0636 291.431 10.6605C297.779 13.2574 303.839 14.9887 310.764 14.1231C317.689 13.2575 324.037 10.6605 330.673 8.6407C335.867 6.90943 340.773 6.33236 346.255 6.90945C343.947 7.198 341.35 8.35215 339.33 9.21778C335.579 11.2376 332.405 13.8345 329.231 16.72Z" fill="#666666"/>
<path d="M347.987 6.33248C341.639 5.46685 336.156 6.3325 329.808 8.06377C322.883 10.0836 315.67 12.6805 308.456 13.5461C300.954 14.1232 294.606 11.2378 287.969 8.35234C281.621 5.46688 274.985 2.58143 268.06 1.1387C254.209 -2.32384 240.071 2.58141 227.952 9.5065C215.256 16.4316 204.002 26.8192 193.326 36.3412C190.729 38.6496 187.844 41.2465 185.247 43.5549C183.804 44.709 182.65 46.1518 181.207 47.306C180.053 48.4601 178.61 50.1914 177.168 51.057L176.879 50.7685C176.014 50.1914 174.571 51.3456 173.994 51.9227C171.974 53.6539 170.243 55.6738 168.511 57.4051C167.934 57.9821 166.78 58.8477 166.492 59.7134C165.914 59.7134 165.337 59.7134 164.76 59.7134C159.855 60.2905 154.95 60.579 150.333 60.8676C141.965 61.4447 133.597 60.8676 124.941 60.8676C116.573 60.579 107.917 59.7134 99.549 58.5592C95.5094 57.9821 91.4698 57.1165 87.4301 56.5394C85.4103 56.2509 83.679 56.5394 81.6592 56.8279C81.3707 56.8279 80.505 57.1165 79.6394 57.4051C79.6394 57.4051 79.6394 57.6936 79.928 57.6936L80.2165 57.9821C85.1218 57.405 92.9125 62.8874 95.798 64.9072C108.205 73.8521 119.459 84.5283 131.866 93.4732C143.985 102.418 156.681 111.074 169.954 118.288C177.456 122.328 185.247 126.079 193.038 129.83H193.326C193.326 129.83 193.326 129.83 193.615 129.83C193.903 129.83 193.903 130.118 194.192 130.118C195.635 130.696 196.789 131.273 198.232 131.85C200.54 132.715 202.56 133.87 204.868 134.735C216.41 139.929 228.24 144.834 240.648 148.008C252.478 150.894 264.886 152.914 277.293 154.068C283.352 154.645 289.7 154.933 296.048 154.356C300.088 154.068 304.128 152.914 308.167 151.471C308.456 151.471 308.456 151.182 308.456 150.894C308.744 150.605 308.744 150.317 308.744 150.028C307.013 149.162 305.57 148.008 304.128 147.143C301.531 145.411 298.934 143.68 296.626 141.66C292.009 137.909 287.681 133.292 283.352 128.676C279.024 124.059 275.273 119.442 271.522 114.537C269.791 112.229 268.06 110.209 266.617 107.9C265.751 106.746 264.886 105.592 264.02 104.438C263.731 104.149 263.731 103.861 263.731 103.861L263.443 103.572C263.443 103.572 263.443 103.572 263.443 103.284C263.154 100.11 263.154 97.8014 264.02 94.6274C264.308 93.4732 263.443 93.1847 262.577 93.1847C262.577 93.1847 262.577 93.1846 262.577 92.8961C262.289 89.145 262 85.6825 261.712 81.9314C261.423 77.3147 260.557 72.6979 261.423 68.3697C261.712 66.3499 262.866 64.9072 263.731 63.176C264.308 62.3103 264.597 61.4447 264.597 60.2905C264.597 59.4249 263.443 58.8477 262.866 58.2707C262 57.6936 261.423 57.405 260.557 56.8279C259.115 55.6737 262.577 53.9425 263.154 53.654C263.731 53.3654 264.886 52.2112 263.731 51.6341C263.154 51.3456 262.866 51.057 262.289 50.7685C262.289 50.7685 259.403 49.6143 260.557 49.0372C261.712 48.4601 263.154 48.1716 264.308 47.5945C266.04 47.0174 269.502 46.4403 270.368 44.709C271.234 42.9778 268.637 41.2465 267.482 39.8038C268.06 39.8038 268.925 39.8038 269.502 39.8038C271.522 40.0923 273.542 39.8038 275.273 40.0923C279.313 40.3809 283.352 40.6694 287.681 40.9579C295.76 41.535 303.839 40.0923 310.764 35.7641C317.401 32.0131 322.018 25.665 327.211 20.1827C329.808 17.2972 332.982 14.7003 336.156 12.392C337.887 11.2378 340.196 9.50649 342.793 8.64086C343.081 8.35231 343.37 8.35232 343.658 8.06377C344.524 7.77523 345.39 7.48669 346.544 7.48669C346.255 7.77524 349.429 7.19812 347.987 6.33248Z" fill="#111111"/>
<path d="M265.751 108.477C267.193 110.786 268.925 113.094 270.656 115.402C274.696 120.596 278.447 125.502 283.063 130.407C287.103 134.735 291.431 139.352 296.336 143.103C298.645 144.834 300.953 146.565 303.262 148.008C304.416 148.874 305.57 149.739 307.013 150.605C301.819 152.048 296.913 153.202 291.431 153.49C283.929 153.49 276.427 153.202 269.213 152.048C253.92 150.028 238.916 147.142 224.489 141.66C210.35 136.178 196.5 129.83 182.65 123.193C169.088 116.557 156.103 108.477 143.407 99.821C131.288 91.4532 119.747 82.5083 108.493 72.9863C103.3 68.9467 98.3943 64.6185 92.9119 61.1559C90.315 59.4247 86.8525 57.4048 83.6785 56.8278C85.6983 56.8278 87.7181 57.1163 89.4494 57.4049C93.489 57.982 97.5286 58.8476 101.568 59.4247C109.936 60.5789 118.592 61.4445 126.96 61.7331C135.328 62.0216 143.696 62.3102 152.352 61.7331C157.258 61.4445 162.451 61.156 167.645 60.2903C171.396 62.0216 174.57 64.6185 177.744 67.2154C182.072 70.678 186.112 74.1405 190.44 77.3145C194.768 80.777 199.674 83.3739 204.579 86.5479C213.524 92.3188 224.2 96.647 234.299 99.5325C243.533 102.129 253.343 103.861 262.865 104.149C262.865 104.438 263.154 104.438 263.154 104.149C263.154 104.149 263.154 104.438 263.442 104.438C264.019 105.592 264.885 107.035 265.751 108.477Z" fill="#555555"/>
<path d="M102.722 65.4841C100.414 63.1758 98.3943 60.5789 95.7974 58.559C93.489 58.2705 91.4692 57.6934 89.1608 57.4049C87.4295 57.1163 85.4097 56.8278 83.3899 56.8278C86.8524 57.4048 90.315 59.7132 92.6233 61.1559C98.1057 64.6185 103.011 68.9467 108.205 72.9863C109.936 74.429 111.379 75.5832 113.11 77.0259C109.648 73.2748 106.474 69.2352 102.722 65.4841Z" fill="#555555"/>
<path d="M100.991 60.2906C112.244 64.6188 124.363 66.3501 136.194 66.6386C147.158 66.9272 159.566 66.3501 169.953 61.4448C169.088 60.8677 168.222 60.5791 167.356 60.0021C162.451 60.8677 157.257 61.1562 152.064 61.4448C143.696 62.0219 135.328 61.7333 126.672 61.4448C118.304 61.1562 109.647 60.2906 101.28 59.1364C99.8368 58.8479 98.1056 58.5593 96.6628 58.5593C98.1056 59.1364 99.5483 59.7135 100.991 60.2906Z" fill="#555555"/>
<path opacity="0.5" d="M303.262 148.008C300.954 146.566 298.645 144.834 296.337 143.103C291.72 139.352 287.392 134.735 283.064 130.407C278.736 125.502 274.696 120.597 270.656 115.403C268.925 113.383 267.194 111.075 265.751 108.478C264.885 107.035 264.02 105.592 262.866 104.15C262.866 104.15 262.866 103.861 262.577 103.861C262.288 103.861 262.288 104.15 262.288 103.861C252.766 103.861 242.956 101.841 233.722 99.2443C223.335 96.3588 212.947 92.0307 204.002 86.2597C199.386 83.3743 194.48 80.4888 189.864 77.0263C185.535 73.8523 181.496 70.3897 177.168 66.9272C174.859 65.1959 172.551 63.1761 169.954 61.4448C179.187 73.8523 190.441 84.5284 203.714 92.8963C208.33 95.7817 213.236 98.6672 217.852 102.13C221.315 104.727 224.2 108.189 226.509 111.94C229.106 115.691 231.414 119.442 233.434 123.194C235.165 126.368 236.896 129.83 237.185 133.581C237.185 133.87 236.896 134.158 236.608 134.158C226.22 133.87 216.121 129.253 206.311 126.079C178.899 117.134 153.507 102.707 129.269 87.1253C120.036 81.0659 111.668 74.1408 102.723 68.0814C100.992 66.9272 99.2603 65.773 97.2405 64.6188C100.992 67.5043 104.743 70.3897 108.494 73.5637C120.036 82.7972 131.289 92.0306 143.408 100.398C156.104 109.055 168.8 116.846 182.65 123.771C196.212 130.407 210.062 136.755 224.489 142.238C238.916 147.72 253.921 150.605 269.214 152.625C276.716 153.491 283.929 154.068 291.432 154.068C296.914 154.068 302.108 152.914 307.013 151.182C305.57 149.74 304.416 148.874 303.262 148.008Z" fill="#555555"/>
<path opacity="0.5" d="M303.262 148.008C300.954 146.566 298.645 144.834 296.337 143.103C291.72 139.352 287.392 134.735 283.064 130.407C278.736 125.502 274.696 120.597 270.656 115.403C268.925 113.383 267.194 111.075 265.751 108.478C264.885 107.035 264.02 105.592 262.866 104.15C262.866 104.15 262.866 103.861 262.577 103.861C262.289 103.861 262.289 104.15 262.289 103.861C252.767 103.861 242.956 101.841 233.723 99.2443C223.335 96.3588 212.947 92.0306 204.002 86.2597C199.386 83.3743 194.48 80.4888 189.864 77.0262C189.287 76.7377 188.998 76.1606 188.421 75.8721C195.923 83.0857 204.291 89.4337 213.524 94.339C224.778 100.398 237.185 104.438 247.284 112.806C252.767 117.423 257.095 123.194 261.711 128.676C263.731 130.984 266.04 133.004 268.059 135.312C269.502 136.755 271.233 138.775 271.522 140.795C272.099 144.834 268.637 147.143 265.174 148.008C262.289 148.874 259.115 149.451 255.941 149.74C260.269 150.605 264.308 151.182 268.637 151.76C276.139 152.625 283.352 153.202 290.855 153.202C296.337 153.202 301.531 152.048 306.436 150.317C305.57 149.74 304.416 148.874 303.262 148.008Z" fill="#555555"/>
<path d="M262.288 97.5127C261.999 99.244 261.999 100.975 262.288 102.995H261.999C253.631 102.707 245.552 100.975 237.473 99.244C227.951 97.2242 218.429 93.1845 209.773 88.5678C200.539 83.6625 191.883 77.8916 184.092 71.2551C180.63 68.3696 176.878 64.9071 173.127 62.5987C171.973 61.7331 170.819 61.156 169.376 60.5789C168.799 60.2904 167.934 60.0018 167.356 59.7133C167.356 59.7133 167.356 59.7133 167.068 59.7133C167.356 59.1362 168.511 57.982 168.799 57.982C169.665 57.1164 170.53 56.2507 171.396 55.3851C173.127 53.3653 175.436 50.1913 177.744 53.3653C180.63 57.4049 184.092 61.156 187.843 64.6186C191.306 68.0811 195.057 71.2551 199.385 74.1405C204.002 77.026 208.618 79.6229 213.524 81.9313C222.757 86.2595 233.145 88.5678 243.244 90.5877C248.726 91.7418 253.92 92.6075 259.402 94.0502C260.268 94.3387 261.134 94.3387 261.999 94.6273C263.442 94.0502 262.288 96.6471 262.288 97.5127Z" fill="#014B6E"/>
<path d="M193.037 75.8718C188.42 71.8322 184.092 67.2155 179.475 62.8873C176.59 60.2904 173.416 57.6935 169.665 56.5393C169.376 56.8279 169.088 57.1164 168.799 57.405C168.511 57.6935 167.356 58.5591 167.068 59.1362C167.068 59.1362 167.068 59.1362 167.356 59.1362C167.934 59.4247 168.799 59.7133 169.376 60.0018C170.53 60.5789 171.973 61.4446 173.127 62.0217C177.167 64.6186 180.63 67.7926 184.092 70.678C190.44 75.8718 197.365 80.7771 204.579 85.1053C200.539 82.5084 196.788 79.3344 193.037 75.8718Z" fill="#014B6E"/>
<path d="M261.999 93.7617C261.134 93.4732 260.268 93.4732 259.403 93.1846C253.92 92.0304 248.726 90.8763 243.244 89.7221C233.145 87.7023 222.757 85.3939 213.524 81.0657C210.638 79.623 207.753 78.1803 204.867 76.7375C210.35 81.9314 216.409 86.2595 222.757 90.2992C227.085 92.8961 231.125 95.493 235.165 98.3785C235.742 98.667 236.607 98.667 237.185 98.9555C245.264 100.687 253.632 102.418 261.711 102.707H261.999C261.711 100.975 261.711 99.2441 261.999 97.2242C262.288 96.6472 263.442 94.0503 261.999 93.7617Z" fill="#014B6E"/>
<path d="M339.33 9.50626C335.579 11.2375 332.405 14.123 329.231 17.0085C322.883 23.0679 317.689 30.2815 310.187 35.1868C301.242 40.6691 291.431 40.3806 281.332 39.515C276.715 39.2264 272.387 39.2264 267.771 38.9379C265.174 38.9379 263.731 40.0921 263.731 42.689C263.731 42.689 263.731 42.9775 264.019 42.9775C264.019 42.9775 264.019 42.9775 264.308 42.9775C264.597 42.9775 264.597 42.4004 264.308 42.4004C264.308 41.5348 264.885 40.6692 265.751 40.0921C266.039 40.0921 266.039 40.0921 266.328 40.0921C266.616 40.9577 267.482 41.8233 268.059 42.4004C268.348 42.9775 268.636 43.5546 268.925 44.1317C269.502 44.9973 267.771 45.2859 267.193 45.5744C264.597 46.4401 261.423 47.0172 259.114 48.7485C257.96 49.6141 258.537 50.7682 259.691 51.0568C260.557 51.3453 264.885 52.211 262 53.9422C261.134 54.5193 259.98 54.8079 259.691 55.6735C258.826 57.6933 261.711 59.1361 262.865 60.0017C264.308 61.1559 261.423 64.907 260.845 66.0612C260.268 67.5039 259.98 68.9466 259.691 70.3894C259.114 74.1404 259.98 78.1801 260.268 81.9312C260.557 85.6823 260.845 89.4333 261.423 93.1844C258.537 92.8959 255.652 91.7417 253.055 91.1646C250.458 90.5875 247.861 90.299 245.264 89.7219C233.145 87.4135 221.026 84.5281 209.773 78.7572C204.291 76.1602 198.808 72.9863 194.191 68.9466C189.863 65.1955 185.824 61.4444 182.073 57.1163C180.341 55.385 179.187 52.7881 177.456 51.3453C177.744 50.7683 178.899 50.4797 179.187 50.1912C180.341 49.037 181.784 47.8828 182.938 46.7286C185.824 44.1317 188.709 41.2463 191.595 38.6494C197.365 33.4556 203.425 28.2617 209.484 23.3565C221.026 13.8345 234.011 5.46661 249.015 2.00407C256.806 0.272794 264.308 0.849911 271.81 3.15827C278.447 5.17809 285.083 8.35208 291.431 10.949C297.779 13.5459 303.839 15.2772 310.764 14.4115C317.689 13.5459 324.037 10.949 330.673 8.92918C335.867 7.19791 340.773 6.6208 346.255 7.19789C343.658 7.19789 341.35 8.35208 339.33 9.50626Z" fill="#555555"/>
<path d="M179.764 49.0372C179.475 49.3258 179.187 49.6143 178.898 49.6143C178.609 49.9029 177.455 50.48 177.167 50.7685C178.898 52.4998 180.052 54.8082 181.783 56.5394C185.535 60.5791 189.574 64.6187 193.902 68.3698C195.922 70.101 198.231 71.8323 200.539 73.2751C192.46 66.6385 185.246 58.5592 179.764 49.0372Z" fill="#555555"/>
<path d="M193.902 39.8037C199.096 34.6099 204.579 29.4161 210.349 24.7994C221.891 15.8545 234.01 7.77522 247.572 2.5814C249.015 2.00431 250.457 1.42722 251.9 1.13867C250.746 1.42722 249.592 1.42721 248.726 1.71575C233.722 5.1783 221.026 13.2576 209.195 23.0681C203.136 27.9734 197.365 33.1672 191.305 38.361C188.42 40.9579 185.535 43.5548 182.649 46.4403C181.495 47.5945 180.052 48.7486 178.898 49.9028C178.609 50.1914 177.455 50.7684 177.167 51.057C178.032 51.9226 178.898 53.3654 179.764 54.5196C184.957 49.6143 189.286 44.709 193.902 39.8037Z" fill="#555555"/>
<path opacity="0.5" d="M330.673 8.64088C324.036 10.6607 317.688 13.2576 310.763 14.1233C303.55 14.9889 297.779 13.5461 291.431 10.6607C284.794 8.06378 278.446 4.88979 271.81 2.86997C269.79 2.29288 267.77 1.71579 265.462 1.42725C269.213 3.15852 272.675 5.46689 275.849 8.0638C278.446 10.3722 281.043 12.9691 283.64 15.2774C286.237 17.5858 289.411 20.7598 293.162 21.6254C299.799 22.7796 305.858 18.1629 312.206 17.2972C312.783 17.2972 312.783 17.5858 312.783 17.8743C309.609 24.5109 302.396 29.1276 296.048 32.3016C292.585 34.0329 289.122 35.187 285.371 35.187C280.755 35.187 276.138 34.3214 271.521 33.7443C267.193 33.4558 261.134 32.8787 257.382 35.4756C255.94 36.6298 255.074 37.784 254.786 39.8038C254.786 40.3809 254.208 40.6694 253.92 40.958C253.054 41.8236 251.323 42.1122 250.169 42.1122C242.09 42.9778 233.722 42.4007 225.642 42.9778C234.01 47.306 244.109 47.0174 251.612 53.0769C251.9 53.0769 251.9 53.3654 251.612 53.654C250.169 56.2509 247.283 58.2707 244.975 60.002C243.532 61.1562 242.09 62.3103 241.224 64.0416C240.07 66.0614 241.224 67.2156 242.667 68.6583C247.572 73.2751 239.204 78.4689 235.742 79.9116C229.105 82.5085 221.603 82.22 214.678 80.4887C224.488 84.8169 234.876 87.1253 245.552 89.1451C248.149 89.7222 250.746 90.0107 253.343 90.5878C256.228 91.1649 259.114 92.3191 261.711 92.6076C261.134 88.8565 260.845 85.1054 260.556 81.3543C260.268 77.6032 259.402 73.5636 259.979 69.8125C260.268 68.3698 260.556 66.927 261.134 65.4843C261.711 64.3301 264.596 60.5791 263.153 59.4249C261.999 58.2707 258.825 57.1165 259.979 55.0967C260.268 54.2311 261.422 53.9425 262.288 53.3654C265.173 51.6341 260.845 51.0571 259.979 50.48C258.825 49.9029 258.248 49.0372 259.402 48.1716C261.711 46.4403 264.885 45.8633 267.482 44.9976C268.059 44.7091 269.79 44.4205 269.213 43.5549C268.924 42.9778 268.636 42.4007 268.347 41.8236C268.059 41.2465 267.193 40.3809 266.616 39.5152C266.327 39.5152 266.327 39.5152 266.039 39.5152C265.173 40.0923 264.596 40.6694 264.596 41.8236C264.885 41.8236 264.596 42.4007 264.596 42.4007C264.596 42.4007 264.596 42.4007 264.308 42.4007C264.019 42.4007 264.019 42.4007 264.019 42.1122C264.019 39.5153 265.462 38.3611 268.059 38.3611C272.675 38.6496 277.004 38.6496 281.62 38.9381C291.431 39.8038 301.53 40.0923 310.475 34.61C317.977 29.9932 323.171 22.4911 329.519 16.4316C332.404 13.5461 335.867 10.9493 339.618 8.92944C341.638 7.77526 343.946 6.62107 346.543 6.62107C341.061 6.62107 335.867 7.19815 330.673 8.64088Z" fill="#555555"/>
</svg>
