<svg width="57" height="100" viewBox="0 0 57 100" fill="none" xmlns="http://www.w3.org/2000/svg">
<path d="M14.6197 87.3241C15.9388 87.3241 17.2579 87.3241 18.467 87.4341C19.896 87.4341 21.2151 87.544 22.6441 87.544C23.3036 87.544 23.9632 87.544 24.6227 87.544C25.2822 87.544 25.9418 87.544 26.7112 87.4341C28.0303 87.4341 29.4593 87.3241 30.7784 87.3241C32.2073 87.3241 33.6364 87.2142 35.0654 87.2142C36.4944 87.2142 37.9233 87.2142 39.3523 87.2142C40.7813 87.2142 42.1004 87.2142 43.5294 87.2142C44.2988 87.2142 44.9584 87.2142 45.7278 87.2142C46.3874 87.2142 47.0469 87.2142 47.7065 87.3241C48.1462 87.3241 48.4759 87.3241 48.9156 87.3241C48.8057 87.1043 48.6958 86.8844 48.8057 86.6646C48.8057 86.5547 48.8057 86.5547 48.8057 86.4448C48.6958 86.3348 48.6958 86.2249 48.6958 86.0051C48.6958 84.9058 48.6958 83.8066 48.6958 82.7074C48.6958 81.1684 48.6958 79.6296 48.5858 78.0906C48.5858 77.4311 48.5858 76.7716 48.4759 76.2219C48.366 74.5731 48.1461 72.8143 47.8164 71.1655C47.5965 70.1762 47.2668 69.1869 46.937 68.1976C46.7172 67.5381 46.3874 66.8785 46.0576 66.219C46.0576 66.219 46.0576 66.1091 45.9477 66.1091C45.508 65.2297 45.0683 64.4602 44.5187 63.6908C44.1889 63.1411 43.7493 62.5915 43.3096 62.1518L43.4195 62.2618C42.9798 61.7122 42.4302 61.1625 41.8806 60.7228C41.3309 60.2831 40.7813 59.8435 40.2317 59.4038C39.0226 58.6343 37.8134 57.8649 36.6043 57.3153C36.6043 57.3153 36.6043 57.3153 36.7142 57.3153C36.1646 56.9855 35.505 56.7656 34.9554 56.5458C34.2959 56.3259 33.7463 55.9962 33.0867 55.7763C32.757 55.6664 32.4272 55.5565 31.9875 55.4466C31.8776 55.4466 31.7677 55.4465 31.7677 55.3366C31.6578 55.3366 31.5478 55.3366 31.5478 55.3366H31.4379C30.9982 55.3366 30.6685 54.897 30.6685 54.5672C30.5585 54.1275 30.8883 53.6878 31.328 53.5779C31.4379 53.5779 31.6578 53.5779 31.7677 53.468C31.8776 53.468 31.9875 53.468 32.0974 53.468C32.3173 53.468 32.6471 53.358 32.8669 53.358C33.5264 53.2481 34.186 53.1382 34.8455 53.0282C34.8455 53.0282 34.8455 53.0282 34.9554 53.0282C35.7249 52.9183 36.4944 52.6985 37.2638 52.3687C37.8134 52.1489 38.363 51.929 38.9127 51.7092C39.2424 51.4893 39.6821 51.2695 40.0119 51.0496C40.6714 50.61 41.221 50.1703 41.7706 49.7306C42.2103 49.4008 42.5401 48.9611 42.8698 48.6313C43.3095 48.0817 43.7492 47.642 44.079 47.0924C44.5187 46.4329 44.8485 45.8833 45.1782 45.1138C45.8378 43.7948 46.3874 42.3657 46.937 41.0467V40.9367C46.937 40.9367 46.937 40.9368 46.937 40.8269C47.2668 39.7276 47.5965 38.6284 47.9263 37.5292C48.1461 36.4299 48.2561 35.3307 48.366 34.2315V34.3414C48.4759 32.9124 48.4759 31.4834 48.4759 30.0544C48.4759 28.6254 48.4759 27.1964 48.5858 25.7674C48.5858 24.998 48.5858 24.2285 48.5858 23.569C48.5858 23.2392 48.5858 22.9094 48.5858 22.5797C48.2561 22.5797 47.9263 22.5797 47.5965 22.5797C46.1675 22.5797 44.7386 22.5797 43.3096 22.5797C41.7706 22.5797 40.2317 22.6896 38.6928 22.6896C37.1539 22.6896 35.6149 22.6896 34.076 22.6896C32.4272 22.6896 30.7784 22.6896 29.2394 22.5797C28.5799 22.5797 27.8105 22.5797 27.1509 22.5797C26.3815 22.5797 25.612 22.5797 24.7326 22.5797C23.3036 22.5797 21.8746 22.6896 20.3357 22.6896C19.1265 22.6896 17.8075 22.7995 16.5983 22.7995C16.2686 22.7995 16.0487 22.7995 15.719 22.7995C14.9495 22.7995 14.18 22.7995 13.4106 22.7995C12.6411 22.7995 11.8717 22.7995 11.2121 22.6896C10.1129 22.6896 8.90374 22.5797 7.80452 22.5797C7.80452 22.7995 7.80452 22.9094 7.80452 23.1293C7.80452 23.6789 7.80452 24.3384 7.91445 24.8881C7.91445 26.0972 8.02438 27.1964 8.02438 28.4056C8.24422 30.9338 8.57399 33.3521 9.1236 35.8803V35.7704C9.34345 36.8696 9.56327 37.8589 9.89304 38.9582C10.1129 39.9475 10.4427 40.9368 10.7724 41.9261C11.1022 42.9154 11.5419 43.7947 11.9816 44.784C12.2014 45.3337 12.5312 45.7734 12.861 46.323C13.1907 46.8726 13.6304 47.3123 13.9602 47.752C14.7297 48.6313 15.609 49.5107 16.4884 50.2802C16.9281 50.6099 17.3678 51.0496 17.8075 51.3794C18.1373 51.5992 18.577 51.8191 19.0166 52.0389C19.4563 52.2588 19.896 52.4786 20.3357 52.5886C20.8853 52.8084 21.325 52.9183 21.8746 53.0282C22.4243 53.1382 22.9739 53.2481 23.5235 53.358C23.9632 53.468 24.4028 53.468 24.8425 53.468C25.0624 53.468 25.3922 53.5779 25.5021 53.7977C25.7219 54.0176 25.8318 54.2374 25.8318 54.5672C25.8318 54.897 25.7219 55.1168 25.5021 55.3366C25.5021 55.3366 25.5021 55.3366 25.5021 55.4466C25.3922 55.8862 24.8425 55.9962 24.5128 56.1061C24.0731 56.216 23.6334 56.3259 23.1937 56.4359C22.3143 56.6557 21.4349 56.9855 20.5556 57.2053C19.4563 57.645 18.3571 58.0847 17.3678 58.5244C16.8182 58.7442 16.3785 59.074 15.9388 59.4038C15.3892 59.7335 14.9495 60.1732 14.5098 60.503C14.0701 60.9427 13.6304 61.3824 13.1907 61.8221C12.751 62.3717 12.3114 62.9213 11.8717 63.4709C11.5419 63.9106 11.2121 64.4602 10.9923 65.0098C10.6625 65.7793 10.2228 66.5487 10.003 67.4281C9.6732 68.4174 9.34345 69.5166 9.1236 70.6159C8.79383 72.1548 8.68391 73.6937 8.57399 75.2326C8.57399 75.2326 8.57399 75.2326 8.57399 75.3426C8.46407 77.1013 8.35413 78.7502 8.35413 80.5089C8.35413 82.0478 8.35413 83.4768 8.35413 85.0157C8.35413 85.3455 8.35413 85.6753 8.35413 86.0051C8.35413 86.2249 8.24423 86.4447 8.13431 86.5547C8.13431 86.8844 8.13431 87.2142 8.13431 87.544C8.13431 87.544 8.13431 87.544 8.13431 87.6539C8.13431 87.7638 8.13431 87.7638 8.13431 87.8737H8.2442C9.01366 87.8737 9.6732 87.8737 10.4427 87.7638C11.8716 87.3241 13.1907 87.3241 14.6197 87.3241C14.5098 87.3241 14.5098 87.3241 14.6197 87.3241ZM27.8105 99.6355C27.5906 99.5256 27.4807 99.4156 27.3708 99.1958C27.1509 98.9759 27.041 98.6462 26.8212 98.3164C26.6013 97.7668 26.3815 97.2172 26.1616 96.5576C25.9418 95.8981 25.7219 95.2386 25.612 94.579C25.3922 93.9195 25.2822 93.2599 25.1723 92.6004C25.1723 92.4905 25.1723 92.4905 25.1723 92.3806C24.7326 92.3806 24.4029 92.3806 23.9632 92.3806C23.3036 92.3806 22.6441 92.3806 22.0945 92.3806C21.325 92.3806 20.6655 92.3806 19.896 92.3806C18.5769 92.3806 17.2579 92.3806 15.9388 92.4905C13.9602 92.6004 11.8716 92.7103 9.89304 92.8203V92.9302C9.78312 93.4798 9.67321 94.1394 9.56329 94.689C9.45336 95.2386 9.34345 95.7882 9.1236 96.3378C9.01368 96.8874 8.79383 97.437 8.57399 97.9866C8.46407 98.3164 8.24422 98.6462 8.02438 98.866C7.80453 99.0859 7.47474 99.3057 7.14497 99.3057H7.03508C6.59539 99.3057 6.26562 98.9759 5.93585 98.6462C5.71601 98.3164 5.60608 97.9866 5.38624 97.6569C5.16639 97.1072 4.94654 96.4477 4.7267 95.8981C4.39693 94.7989 4.06717 93.8096 3.7374 92.7103C3.40763 92.7103 3.18776 92.7103 2.858 92.7103H2.96793C2.52824 92.7103 2.19846 92.7103 1.75877 92.6004C1.53892 92.6004 1.42901 92.4905 1.31909 92.2707C1.31909 92.2707 1.31908 92.2707 1.20916 92.2707C0.659543 91.9409 0.219852 91.3913 0.109929 90.7317C6.70751e-06 90.5119 0 90.292 0 90.0722C0 89.8524 6.70751e-06 89.6325 0.109929 89.4127C0.109929 89.1928 0.219865 88.973 0.329788 88.7531C0.439711 88.5333 0.549627 88.4233 0.769472 88.2035C0.989318 87.9837 1.20917 87.8737 1.42902 87.7638V87.6539C1.53894 87.6539 1.75878 87.6539 1.8687 87.6539C2.19847 87.6539 2.52822 87.6539 2.74807 87.6539C3.4076 87.6539 4.06716 87.6539 4.7267 87.6539C5.38623 87.6539 6.04575 87.6539 6.70529 87.544C6.81521 87.544 6.81523 87.544 6.92515 87.544C6.92515 87.4341 6.92515 87.4341 6.92515 87.3241C6.92515 87.2142 6.92515 87.1043 6.92515 86.8845V86.7745C6.92515 86.4448 6.81522 86.0051 6.81522 85.6753C6.81522 85.2356 6.59538 84.5761 6.92515 84.2463C6.92515 84.1364 6.92515 83.9165 6.92515 83.8066C6.92515 83.0371 6.92515 82.1578 6.92515 81.3883C6.92515 79.7395 6.92516 78.0906 7.03508 76.4418C7.145 74.683 7.25492 72.9242 7.47476 71.1655C7.69461 69.5166 8.02438 67.7579 8.57399 66.219C8.79383 65.3396 9.1236 64.4602 9.56329 63.6908C10.003 62.8114 10.4427 62.0419 10.9923 61.2724C12.0915 59.8434 13.4106 58.5244 14.9495 57.4252C15.719 56.8755 16.5984 56.4359 17.4777 55.9962C18.3571 55.5565 19.2365 55.2267 20.1159 55.0069C20.5556 54.8969 20.8853 54.787 21.325 54.6771C21.1052 54.5672 20.7754 54.5672 20.5556 54.4573C19.896 54.2374 19.2365 54.0176 18.577 53.6878C18.0273 53.4679 17.5876 53.1382 17.038 52.8084C16.5983 52.4786 16.1587 52.1489 15.719 51.7092C14.8396 50.9397 13.9602 50.1703 13.1907 49.2909C12.0915 47.9718 11.2121 46.4329 10.5526 44.894C9.89305 43.465 9.45337 41.9261 9.1236 40.4971C8.68391 38.8482 8.35414 37.1994 8.02438 35.4406C7.69461 33.7918 7.36483 32.033 7.2549 30.3842C7.03506 28.8453 6.92515 27.3063 6.92515 25.6575C6.92515 24.888 6.92515 24.1186 6.92515 23.3491C6.92515 23.0194 6.92516 22.6896 7.03508 22.2499V22.14C6.48547 22.0301 5.93582 22.0301 5.49613 21.8102C5.16637 21.7003 4.8366 21.5904 4.50684 21.3705C4.28699 21.2606 3.95724 21.0408 3.7374 20.9308C3.40763 20.711 3.18778 20.3812 3.07786 20.0514C2.96793 19.8316 2.96793 19.6118 2.96793 19.3919V19.282C2.96793 19.1721 2.96793 19.0621 2.96793 19.0621C2.96793 18.8423 3.07786 18.5125 3.18778 18.2927C3.40763 17.853 3.73739 17.5232 4.17708 17.3034C4.61677 17.1934 5.05644 17.0835 5.49613 17.0835C5.71598 17.0835 5.93583 17.0835 6.15568 17.0835C6.15568 17.0835 6.15568 17.0835 6.26561 17.0835C6.92514 17.0835 7.69459 16.9736 8.35413 16.9736C8.35413 16.8637 8.35413 16.7538 8.35413 16.6439C8.35413 15.9843 8.46406 15.3248 8.46406 14.6652C8.46406 14.5553 8.46406 14.5553 8.46406 14.4454C8.46406 13.7859 8.57399 13.0164 8.57399 12.3569C8.57399 12.0271 8.574 11.6973 8.68392 11.3676C8.68392 10.708 8.79381 9.93856 8.79381 9.27903V9.38896C8.79381 9.16911 8.79381 8.94927 8.79381 8.83934C8.79381 8.6195 8.90375 8.50958 9.01367 8.39966C9.23352 8.17982 9.45337 8.1798 9.67322 8.1798C10.003 8.28972 10.2228 8.61951 10.4427 8.94927C10.6625 9.16912 10.7724 9.49887 10.8824 9.82864C11.2121 10.3783 11.432 11.0378 11.6518 11.5874C11.8717 12.137 12.2014 12.6866 12.4213 13.2363C12.7511 13.8958 13.0808 14.6652 13.4106 15.3248C13.4106 15.3248 13.4106 15.3248 13.4106 15.2148C13.4106 15.3248 13.5205 15.3248 13.5205 15.4347C13.5205 15.4347 13.5205 15.4347 13.5205 15.3248C13.7404 15.7645 13.9602 16.2042 14.1801 16.6439C14.29 16.7538 14.29 16.8637 14.3999 16.9736C14.5098 16.9736 14.6197 16.9736 14.8396 16.9736C15.4991 16.9736 16.1587 16.9736 16.8182 16.9736C16.8182 16.424 16.9281 15.9843 16.9281 15.4347C17.038 14.3355 17.1479 13.1263 17.1479 12.0271V12.137C17.1479 11.3676 17.2579 10.5981 17.3678 9.71871C17.3678 9.38894 17.3678 9.05918 17.4777 8.72941C17.5877 8.50957 17.6976 8.28972 17.8075 8.1798C18.0273 7.95996 18.467 7.95996 18.6869 8.1798C19.0166 8.39965 19.2365 8.7294 19.3464 9.05917C19.4563 9.38894 19.6762 9.6088 19.7861 9.93857C20.3357 11.1477 20.7754 12.4668 21.2151 13.6759C21.325 13.8958 21.325 14.0057 21.4349 14.2255C21.7647 15.2149 22.0945 16.0942 22.5341 17.0835C22.9738 17.0835 23.4135 17.0835 23.8532 17.0835C24.183 17.0835 24.5128 17.0835 24.8425 17.0835C24.8425 16.7538 24.9525 16.424 24.9525 16.2041C25.1723 14.7751 25.5021 13.4561 25.8318 12.0271C26.1616 10.708 26.3815 9.38894 26.7112 8.06987C27.041 6.7508 27.2608 5.54165 27.4807 4.22258C27.5906 3.56304 27.8105 2.79359 27.9204 2.13405C27.9204 1.91421 28.0303 1.58443 28.0303 1.36458C28.0303 1.14474 28.1402 0.814989 28.1402 0.595143C28.1402 0.375298 28.2502 0.265382 28.47 0.155459C28.6898 0.0455368 28.9097 -0.0643926 29.1295 0.0455301C29.4593 0.155453 29.5692 0.59513 29.6791 0.924898C29.789 1.47451 29.899 2.02412 30.0089 2.57374C30.1188 3.12335 30.2287 3.78289 30.3387 4.33251C30.5585 5.65158 30.8883 6.97066 31.2181 8.28973C31.328 8.94927 31.5478 9.60879 31.6578 10.2683C31.7677 10.9279 31.9875 11.5874 32.2074 12.247C32.5371 13.3462 32.757 14.4454 33.0867 15.5446C33.1967 15.9843 33.3066 16.5339 33.4165 16.9736C33.6364 16.9736 33.9661 16.9736 34.186 16.9736C34.4058 16.424 34.6257 15.9843 34.8455 15.4347C35.0653 14.8851 35.3951 14.2255 35.615 13.6759C36.1646 12.4668 36.6043 11.2577 37.1539 10.0485C37.2638 9.82866 37.3737 9.49887 37.4836 9.27903C37.5936 8.94926 37.7035 8.72943 37.8134 8.39966C37.9234 8.17982 38.0333 7.95997 38.2531 7.85005C38.473 7.74012 38.8027 7.7401 39.0226 7.95994C39.3523 8.17979 39.4622 8.7294 39.5722 9.05917C39.792 9.71871 39.902 10.3783 40.0119 11.1477C40.1218 11.8073 40.2317 12.3569 40.3416 13.0164C40.4516 13.7859 40.6714 14.6652 40.7813 15.4347C40.8912 15.9843 41.0012 16.424 41.1111 16.9736H41.221C41.5508 16.9736 41.8806 16.9736 42.1004 16.9736H41.9905C42.1004 16.9736 42.2103 16.9736 42.3202 16.9736C42.5401 16.9736 42.7599 16.9736 42.9798 16.9736C42.9798 16.8637 43.0897 16.7538 43.0897 16.6439C43.1996 16.3141 43.3095 16.0942 43.4195 15.7645C43.6393 15.2148 43.9691 14.5553 44.1889 14.0057C44.7385 12.7965 45.1782 11.6973 45.7278 10.4882C45.8378 10.2683 45.9477 9.93856 46.0576 9.71871C46.1676 9.38894 46.2775 9.16911 46.4973 8.83934C46.6072 8.6195 46.8271 8.39966 47.1569 8.39966C47.2668 8.39966 47.3767 8.39963 47.4866 8.50956C47.5965 8.61948 47.7064 8.72942 47.8164 8.83934C48.0362 9.16911 48.0362 9.49887 48.1462 9.82864C48.2561 10.1584 48.2561 10.4882 48.366 10.8179C48.366 11.1477 48.4759 11.4775 48.4759 11.8072C48.5858 12.4668 48.5858 13.1263 48.5858 13.7859C48.5858 13.8958 48.5858 14.0057 48.5858 14.0057V14.1156C48.6958 15.1049 48.6958 16.2042 48.8057 17.1935C49.3553 17.1935 49.9049 17.1934 50.5644 17.3034C51.0041 17.3034 51.4438 17.4133 51.8835 17.4133C52.2133 17.4133 52.543 17.5232 52.8728 17.5232C53.4224 17.6332 53.8621 17.7431 54.3018 18.0728C54.8514 18.5125 55.2911 19.1721 54.8514 19.8316C54.8514 19.9415 54.7415 19.9415 54.6316 20.0514C54.6316 20.2713 54.5217 20.4911 54.3018 20.711C54.082 21.0407 53.6423 21.3705 53.2026 21.4805C52.7629 21.7003 52.3232 21.8102 51.8835 21.9201C51.4438 22.0301 50.8942 22.14 50.4545 22.14C50.4545 22.4698 50.4545 22.6896 50.4545 23.0194C50.4545 23.6789 50.4545 24.3384 50.4545 24.998C50.4545 26.427 50.4545 27.856 50.4545 29.285C50.4545 30.714 50.4545 32.143 50.4545 33.5719C50.4545 34.3414 50.3446 35.1109 50.3446 35.7704C50.2347 36.5399 50.1248 37.3093 49.9049 38.0788C49.795 38.8482 49.5752 39.5078 49.3553 40.2772C49.1355 41.0467 48.9156 41.7062 48.5858 42.4757C48.0362 43.9047 47.3767 45.3337 46.7171 46.5428C45.9477 47.752 45.1782 48.9611 44.1889 50.0604C43.7492 50.61 43.1996 51.0496 42.65 51.4893C41.9905 52.0389 41.3309 52.4786 40.6714 52.8084C40.0119 53.1382 39.3523 53.4679 38.5829 53.6878C37.9233 53.9076 37.2638 54.1275 36.6043 54.2374C36.3844 54.3473 36.0546 54.3473 35.8348 54.4573C37.0439 54.8969 38.2531 55.4466 39.4623 55.9962C40.8913 56.7656 42.2103 57.5351 43.4195 58.5244C44.079 59.074 44.6286 59.6236 45.1782 60.1732C45.7278 60.8328 46.2775 61.3824 46.7171 62.0419C47.2668 62.7015 47.7065 63.4709 48.0362 64.2404C48.366 64.8999 48.6958 65.6694 49.0255 66.3289C49.2454 67.0984 49.5751 67.8678 49.6851 68.6373C49.9049 69.5167 50.0148 70.2861 50.1248 71.1655C50.2347 72.0449 50.3446 72.8143 50.3446 73.6937C50.4545 74.5731 50.4545 75.4525 50.4545 76.2219C50.5645 79.0799 50.4545 81.9379 50.5644 84.7959C50.5644 85.0158 50.5644 85.3455 50.5644 85.5654C50.5644 85.7852 50.4545 85.8951 50.3446 86.115V86.2249C50.3446 86.4448 50.3446 86.6646 50.1248 86.7745C51.3339 86.7745 52.543 86.8845 53.8621 86.8845C54.1919 86.8845 54.4117 86.8845 54.7415 86.8845C54.9614 86.8845 55.1812 86.8845 55.2911 86.9944C55.7308 87.1043 56.0606 87.544 56.2804 87.9837C56.5003 88.4234 56.6102 88.863 56.6102 89.3027C56.6102 89.7424 56.5003 90.1821 56.2804 90.5119C56.0606 90.7317 55.8407 91.0615 55.6209 91.1714C55.2911 91.3913 54.9614 91.5012 54.6316 91.6111C54.5217 91.6111 54.5217 91.6111 54.4117 91.6111C54.3018 91.6111 54.1919 91.6111 54.1919 91.6111L54.082 91.721C53.8621 91.9409 53.7522 91.9409 53.4224 91.9409C53.0927 91.9409 52.7629 91.9409 52.4331 91.9409C51.9934 91.9409 51.5537 91.9409 51.114 91.9409C50.7843 91.9409 50.4545 91.9409 50.1248 91.9409C50.1248 92.0508 50.0148 92.2707 50.0148 92.3806C49.795 93.5897 49.5751 94.7989 49.2454 96.008C49.1355 96.3378 49.0255 96.5577 48.9156 96.8874C48.8057 97.2172 48.5858 97.5469 48.366 97.7668C48.1461 98.0966 47.8164 98.3164 47.4866 98.5363C47.2668 98.6462 46.937 98.7561 46.7171 98.7561C46.3874 98.7561 46.0576 98.6462 45.7278 98.4263C45.2882 97.9866 45.0683 97.3271 44.8485 96.7775C44.6286 96.2279 44.5187 95.5683 44.2989 95.0187C44.079 94.3592 43.9691 93.8096 43.8592 93.15C43.7493 92.8203 43.7492 92.6004 43.6393 92.2707C43.6393 92.1607 43.6393 92.1607 43.6393 92.0508H43.5294C42.8699 92.0508 42.2103 92.0508 41.5508 92.1607C40.8913 92.1607 40.2317 92.2707 39.5722 92.2707C38.2531 92.2707 36.934 92.2707 35.615 92.2707C34.5158 92.2707 33.4165 92.1607 32.3173 92.1607C31.9875 93.3699 31.6577 94.579 31.328 95.6783C31.1081 96.3378 30.7784 97.1073 30.4486 97.7668C30.0089 98.4263 29.4593 99.3057 28.5799 99.4156H28.47C28.3601 99.7454 28.0303 99.7454 27.8105 99.6355Z" fill="#0B263D"/>
<path d="M28.031 55.7762C27.5913 55.7762 27.1516 56.216 27.1516 56.6556C27.1516 57.0953 27.5913 57.535 28.031 57.535C28.4707 57.535 28.9104 57.0953 28.9104 56.6556C29.0203 56.106 28.5806 55.7762 28.031 55.7762Z" fill="#FFF4C1"/>
<path d="M29.4599 63.1411C30.1884 63.1411 30.7789 62.5505 30.7789 61.822C30.7789 61.0935 30.1884 60.5029 29.4599 60.5029C28.7314 60.5029 28.1408 61.0935 28.1408 61.822C28.1408 62.5505 28.7314 63.1411 29.4599 63.1411Z" fill="#FFF4C1"/>
<path d="M24.8436 61.712C24.0741 61.712 23.3047 62.3716 23.3047 63.2509C23.3047 64.0204 23.9642 64.7899 24.8436 64.7899C25.6131 64.7899 26.3825 64.1303 26.3825 63.2509C26.3825 62.3716 25.723 61.712 24.8436 61.712Z" fill="#FFF4C1"/>
<path d="M30.0098 68.6371C30.8597 68.6371 31.5487 67.9482 31.5487 67.0982C31.5487 66.2483 30.8597 65.5593 30.0098 65.5593C29.1599 65.5593 28.4709 66.2483 28.4709 67.0982C28.4709 67.9482 29.1599 68.6371 30.0098 68.6371Z" fill="#FFF4C1"/>
<path d="M36.1651 67.2082C37.015 67.2082 37.704 66.5192 37.704 65.6693C37.704 64.8194 37.015 64.1304 36.1651 64.1304C35.3152 64.1304 34.6261 64.8194 34.6261 65.6693C34.6261 66.5192 35.3152 67.2082 36.1651 67.2082Z" fill="#FFF4C1"/>
<path d="M31.5491 72.5944C30.7796 72.5944 30.1201 73.2539 30.1201 74.0233C30.1201 74.7928 30.7796 75.4524 31.5491 75.4524C32.3186 75.4524 32.9781 74.7928 32.9781 74.0233C32.9781 73.2539 32.3186 72.5944 31.5491 72.5944Z" fill="#FFF4C1"/>
<path d="M24.2932 73.9135C25.0627 73.9135 25.7223 73.254 25.7223 72.4845C25.7223 71.7151 25.0627 71.0555 24.2932 71.0555C23.5238 71.0555 22.8643 71.7151 22.8643 72.4845C22.8643 73.254 23.5238 73.9135 24.2932 73.9135Z" fill="#FFF4C1"/>
<path d="M19.237 76.8814C19.844 76.8814 20.3362 76.3893 20.3362 75.7822C20.3362 75.1751 19.844 74.683 19.237 74.683C18.6299 74.683 18.1377 75.1751 18.1377 75.7822C18.1377 76.3893 18.6299 76.8814 19.237 76.8814Z" fill="#FFF4C1"/>
<path d="M16.1593 79.7394C16.1593 79.0798 15.6097 78.6401 15.0601 78.6401C14.4006 78.6401 13.9609 79.1898 13.9609 79.7394C13.9609 80.3989 14.5105 80.8386 15.0601 80.8386C15.6097 80.9485 16.1593 80.3989 16.1593 79.7394Z" fill="#FFF4C1"/>
<path d="M20.3371 83.0371C19.6775 83.0371 19.1279 83.5867 19.1279 84.2463C19.1279 84.9058 19.6775 85.4554 20.3371 85.4554C20.9966 85.4554 21.5462 84.9058 21.5462 84.2463C21.5462 83.5867 20.9966 83.0371 20.3371 83.0371Z" fill="#FFF4C1"/>
<path d="M24.5134 77.5409C23.7439 77.5409 23.1943 78.2004 23.1943 78.8599C23.1943 79.6294 23.8538 80.179 24.5134 80.179C25.2828 80.179 25.8324 79.5195 25.8324 78.8599C25.8324 78.0905 25.2828 77.5409 24.5134 77.5409Z" fill="#FFF4C1"/>
<path d="M28.2509 85.3454C28.7973 85.3454 29.2402 84.9025 29.2402 84.3561C29.2402 83.8097 28.7973 83.3668 28.2509 83.3668C27.7046 83.3668 27.2616 83.8097 27.2616 84.3561C27.2616 84.9025 27.7046 85.3454 28.2509 85.3454Z" fill="#FFF4C1"/>
<path d="M37.0444 83.3668C36.275 83.3668 35.7254 84.0264 35.7254 84.6859C35.7254 85.4554 36.3849 86.005 37.0444 86.005C37.704 86.005 38.3635 85.3454 38.3635 84.6859C38.4735 84.0264 37.8139 83.3668 37.0444 83.3668Z" fill="#FFF4C1"/>
<path d="M45.1786 81.4982C45.1786 80.7287 44.5191 79.9592 43.6397 79.9592C42.8703 79.9592 42.1008 80.6188 42.1008 81.4982C42.1008 81.8279 42.2107 82.1577 42.4306 82.3775C41.9909 82.4875 41.6611 82.9271 41.6611 83.3668C41.6611 83.9165 42.1008 84.4661 42.7604 84.4661C43.4199 84.4661 43.8596 84.0264 43.8596 83.3668C43.8596 83.2569 43.8596 83.147 43.7497 83.0371C44.5191 82.9272 45.1786 82.2676 45.1786 81.4982Z" fill="#FFF4C1"/>
<path d="M37.3742 76.0021C36.7146 76.0021 36.165 76.5517 36.165 77.2112C36.165 77.8707 36.7146 78.4204 37.3742 78.4204C38.0337 78.4204 38.5833 77.8707 38.5833 77.2112C38.4734 76.5517 37.9238 76.0021 37.3742 76.0021Z" fill="#FFF4C1"/>
<path d="M13.6314 84.2462C13.0817 84.2462 12.752 84.6859 12.752 85.1256C12.752 85.6752 13.1917 86.005 13.6314 86.005C14.181 86.005 14.5107 85.5653 14.5107 85.1256C14.5107 84.6859 14.181 84.2462 13.6314 84.2462Z" fill="#FFF4C1"/>
<path d="M24.2935 84.2462C23.7439 84.2462 23.1943 84.6859 23.1943 85.3454C23.1943 85.8951 23.634 86.4447 24.2935 86.4447C24.953 86.4447 25.3927 86.005 25.3927 85.3454C25.2828 84.7958 24.8431 84.2462 24.2935 84.2462Z" fill="#FFF4C1"/>
<path d="M19.3467 81.8279C19.3467 82.3775 19.7864 82.8172 20.336 82.8172C20.8856 82.8172 21.3253 82.3775 21.3253 81.8279C21.3253 81.2783 20.8856 80.8386 20.336 80.8386C19.7864 80.8386 19.3467 81.2783 19.3467 81.8279Z" fill="#FFF4C1"/>
<path d="M16.9282 84.576C16.4885 84.576 16.0488 85.0157 16.0488 85.4554C16.0488 85.8951 16.4885 86.3348 16.9282 86.3348C17.3679 86.3348 17.8076 85.8951 17.8076 85.4554C17.8076 85.0157 17.4778 84.576 16.9282 84.576Z" fill="#FFF4C1"/>
<path d="M17.6983 83.0371C17.6983 82.4875 17.2587 82.0479 16.7091 82.0479C16.1594 82.0479 15.7198 82.4875 15.7198 83.0371C15.7198 83.5868 16.1594 84.0264 16.7091 84.0264C17.2587 84.0264 17.6983 83.5868 17.6983 83.0371Z" fill="#FFF4C1"/>
<path d="M24.1839 81.4982C23.5243 81.4982 22.9748 82.0478 22.9748 82.7073C22.9748 83.3668 23.5243 83.9164 24.1839 83.9164C24.8434 83.9164 25.393 83.3668 25.393 82.7073C25.393 82.0478 24.8434 81.4982 24.1839 81.4982Z" fill="#FFF4C1"/>
<path d="M30.0094 84.6859C29.4598 84.6859 28.9102 85.1256 28.9102 85.7851C28.9102 86.3348 29.3498 86.8844 30.0094 86.8844C30.559 86.8844 31.1086 86.4447 31.1086 85.7851C30.9987 85.2355 30.559 84.6859 30.0094 84.6859Z" fill="#FFF4C1"/>
<path d="M30.1197 79.6295C29.5701 79.6295 29.0205 80.0692 29.0205 80.7287C29.0205 81.2784 29.4602 81.828 30.1197 81.828C30.6693 81.828 31.219 81.3883 31.219 80.7287C31.219 80.0692 30.7793 79.6295 30.1197 79.6295Z" fill="#FFF4C1"/>
<path d="M27.9211 82.2677C28.3608 82.2677 28.6905 81.9379 28.6905 81.4982C28.6905 81.0585 28.3608 80.7288 27.9211 80.7288C27.4814 80.7288 27.1516 81.0585 27.1516 81.4982C27.1516 81.9379 27.4814 82.2677 27.9211 82.2677Z" fill="#FFF4C1"/>
<path d="M35.506 81.3882C35.506 80.8386 34.9564 80.2889 34.4068 80.2889C33.8572 80.2889 33.3076 80.8386 33.3076 81.3882C33.3076 81.4981 33.3076 81.608 33.3076 81.608C32.8679 81.8278 32.5381 82.3775 32.5381 82.9271C32.5381 83.6965 33.1976 84.3561 33.9671 84.3561C34.7366 84.3561 35.3961 83.6965 35.3961 82.9271C35.3961 82.5973 35.2861 82.3775 35.1762 82.1576C35.3961 82.0477 35.506 81.7179 35.506 81.3882Z" fill="#FFF4C1"/>
<path d="M41.1117 84.576C40.5621 84.576 40.2323 85.0157 40.2323 85.4554C40.2323 86.005 40.672 86.3348 41.1117 86.3348C41.6613 86.3348 41.9911 85.8951 41.9911 85.4554C41.9911 85.0157 41.5514 84.576 41.1117 84.576Z" fill="#FFF4C1"/>
<path d="M41.4413 42.4757C41.6612 41.7062 41.7711 41.0467 41.6612 40.2772C41.5513 39.5077 41.3314 38.6284 41.0016 37.9688C40.6719 37.3093 40.2322 36.6497 39.6825 36.1001C39.3528 35.7704 39.023 35.5505 38.6933 35.3307C38.3635 35.1108 38.0337 35.0009 37.594 34.891C37.2643 34.781 36.9345 34.7811 36.6047 34.6711C36.165 34.6711 35.8353 34.6711 35.3956 34.6711C34.736 34.6711 33.9666 34.781 33.307 34.891C32.9773 34.891 32.6475 34.891 32.3177 34.891C31.988 34.891 31.7681 34.7811 31.4383 34.7811C30.9987 34.6711 30.559 34.5612 30.2292 34.4513C29.6796 34.2314 29.2399 34.0116 28.6903 33.7917C28.2506 33.5719 27.9208 33.3521 27.4811 33.1322C27.0414 32.8025 26.6018 32.4727 26.1621 32.033C25.9422 31.9231 25.8323 31.7032 25.7224 31.5933C25.1728 31.0437 24.6232 30.4941 24.0735 29.9444C23.5239 29.3948 22.8644 28.8452 22.2048 28.4055C21.6552 28.0758 20.9957 27.746 20.3362 27.5262C19.6766 27.3063 18.9072 27.0865 18.2476 26.9766C16.9286 26.7567 15.6095 26.8666 14.5103 27.5262C13.7408 27.9659 13.1912 28.6254 12.7515 29.3948C12.7515 29.3948 12.7515 29.5048 12.6416 29.5048C12.5316 29.6147 12.4217 29.8345 12.4217 29.9444C12.2019 30.4941 12.0919 31.0437 12.0919 31.4834C11.982 32.8025 12.092 34.2314 12.3118 35.5505C12.6416 36.9795 12.9714 38.4085 13.6309 39.7276C13.8507 40.3871 14.1805 40.9367 14.5103 41.5963C14.84 42.2558 15.2797 42.9153 15.8293 43.465C16.7087 44.4543 17.5881 45.3337 18.4675 46.323C18.4675 46.323 18.4675 46.3229 18.3576 46.213C18.9072 46.8726 19.5667 47.5321 20.1163 48.0817C20.556 48.5214 20.9957 48.8512 21.5453 49.1809C21.985 49.5107 22.5346 49.7305 22.9743 49.8405C23.7438 50.1702 24.6231 50.3901 25.3926 50.8298C25.6124 50.9397 25.8323 51.0496 26.0521 51.1595C26.272 51.2695 26.3819 51.3794 26.4918 51.4893C26.6018 51.5992 26.7117 51.7091 26.9315 51.929C27.1514 52.1488 27.2613 52.3687 27.4811 52.4786C27.701 52.5885 27.9208 52.6985 28.1407 52.6985C28.3605 52.6985 28.4704 52.6985 28.6903 52.5885C28.9101 52.4786 29.02 52.2588 29.2399 52.1488C29.3498 52.0389 29.4597 51.8191 29.6796 51.7092C29.7895 51.5992 30.0094 51.4893 30.1193 51.3794C30.3391 51.2694 30.559 51.1595 30.7788 51.0496C31.3284 50.7199 31.988 50.6099 32.6475 50.2801C33.1971 50.0603 33.7467 49.8405 34.2963 49.5107C35.5055 48.9611 36.6047 48.3015 37.704 47.5321C38.9131 46.6527 40.0123 45.5535 40.7818 44.3443C40.8917 43.9046 41.2215 43.2451 41.4413 42.4757Z" fill="#FFF4C1"/>
</svg>
