<svg width="62" height="149" viewBox="0 0 62 149" fill="none" xmlns="http://www.w3.org/2000/svg">
<path d="M50.816 0.555664C50.9271 0.66249 51.0669 0.867203 51.2232 1.18359C51.5312 1.80699 51.8281 2.70733 52.0885 3.6543C52.3469 4.59417 52.5624 5.55286 52.7135 6.27832C52.7888 6.64034 52.848 6.94319 52.8883 7.15527C52.9084 7.26133 52.9238 7.34483 52.9342 7.40137C52.9393 7.42962 52.9433 7.45143 52.9459 7.46582C52.9471 7.47273 52.9482 7.47794 52.9488 7.48145C52.9491 7.48298 52.9487 7.48452 52.9488 7.48535L52.9498 7.48633L53.108 8.38965L53.7701 7.77637C53.7721 7.77501 53.7753 7.77366 53.7789 7.77148C53.7949 7.76182 53.8204 7.74995 53.8512 7.74316C53.8901 7.73459 54.0047 7.71602 54.2008 7.87207C54.4184 8.0454 54.7312 8.43354 55.0787 9.26367C55.4238 10.088 55.7884 11.3115 56.1314 13.1104V13.1133C56.8218 16.6478 56.2074 21.8668 55.3951 26.2627C54.9913 28.448 54.5432 30.4084 54.1959 31.8223C54.0223 32.529 53.8738 33.0987 53.7691 33.4912C53.7168 33.6875 53.6753 33.8398 53.647 33.9424C53.6329 33.9935 53.6221 34.0327 53.6148 34.0586C53.6112 34.0715 53.6078 34.0815 53.606 34.0879C53.6052 34.0908 53.6045 34.0933 53.6041 34.0947V34.0967L54.5445 34.4287L54.5455 34.4277C54.5462 34.4261 54.547 34.4231 54.5484 34.4199C54.5512 34.4134 54.5556 34.4035 54.5611 34.3906C54.5722 34.3648 54.5885 34.3263 54.6099 34.2764C54.6529 34.1764 54.7159 34.0294 54.7965 33.8428C54.9577 33.4693 55.1893 32.9361 55.4693 32.2969C56.0296 31.0179 56.7844 29.3163 57.5631 27.624C58.3426 25.9298 59.1429 24.2518 59.7945 23.0176C60.1215 22.3983 60.4043 21.9042 60.6236 21.5781C60.642 21.5508 60.6606 21.5259 60.6773 21.502C60.7202 21.595 60.7669 21.7157 60.8111 21.8711C60.9621 22.4015 61.0797 23.2645 61.0631 24.5918C61.0299 27.2432 60.4644 31.6589 58.6754 38.7812C56.8922 45.88 54.1987 52.5065 51.9478 57.3623C50.8229 59.7891 49.81 61.7713 49.0787 63.1455C48.7132 63.8323 48.4178 64.3669 48.2144 64.7295C48.1129 64.9106 48.0341 65.049 47.981 65.1416C47.9545 65.1879 47.9339 65.223 47.9205 65.2461C47.9138 65.2577 47.9091 65.2668 47.9058 65.2725C47.9043 65.2752 47.9027 65.277 47.9019 65.2783L47.901 65.2803L48.732 65.833L48.733 65.832C48.7338 65.831 48.7352 65.8293 48.7369 65.8271C48.7403 65.8227 48.7457 65.8157 48.7525 65.8066C48.7662 65.7886 48.7864 65.7615 48.8131 65.7266C48.8666 65.6563 48.9454 65.5532 49.0465 65.4229C49.2487 65.162 49.5399 64.7922 49.8922 64.3564C50.5976 63.4838 51.5468 62.3524 52.5289 61.3076C53.5193 60.254 54.513 59.3215 55.3092 58.8184C55.7164 58.561 56.004 58.4603 56.1773 58.4551C56.251 58.4529 56.2842 58.4679 56.3004 58.4785C56.3177 58.4899 56.3569 58.5239 56.399 58.623C56.4203 58.6733 56.4467 58.8079 56.4156 59.0752C56.3859 59.331 56.3098 59.6568 56.1871 60.0498C55.942 60.8347 55.5265 61.8308 54.9849 62.9707C53.9031 65.2476 52.3481 68.0416 50.7515 70.7617C49.1564 73.4793 47.5249 76.1137 46.2916 78.0693C45.675 79.047 45.158 79.8549 44.7955 80.418C44.6144 80.6993 44.4719 80.9195 44.3746 81.0693C44.3259 81.1443 44.2884 81.2017 44.2633 81.2402C44.2507 81.2595 44.2413 81.2745 44.2349 81.2842C44.2319 81.2889 44.2297 81.2925 44.2281 81.2949C44.2273 81.2961 44.2265 81.2973 44.2262 81.2979L44.6441 81.5723L44.2252 81.2979L44.9859 81.9365L44.9879 81.9355C44.9892 81.9343 44.9911 81.9322 44.9937 81.9297C44.9993 81.9244 45.008 81.9166 45.0191 81.9062C45.0414 81.8855 45.0745 81.8546 45.1178 81.8145C45.2043 81.7341 45.3311 81.6159 45.4928 81.4668C45.8161 81.1687 46.2784 80.7452 46.8316 80.2441C47.9387 79.2415 49.4099 77.9299 50.8717 76.6914C52.338 75.449 53.7791 74.2935 54.8287 73.5938C55.15 73.3795 55.4171 73.2237 55.6246 73.1182C55.6199 73.1297 55.6169 73.1423 55.6119 73.1543C55.5213 73.3703 55.392 73.634 55.2262 73.9414C54.8946 74.5559 54.4308 75.3194 53.8756 76.1807C52.7658 77.902 51.3084 79.9884 49.8551 82.0078C48.4027 84.026 46.9581 85.9732 45.8765 87.416C45.3361 88.137 44.8864 88.7319 44.5719 89.1465C44.4146 89.3538 44.2907 89.5166 44.2066 89.627C44.1648 89.6818 44.1326 89.7236 44.1109 89.752C44.1002 89.7659 44.092 89.777 44.0865 89.7842C44.0838 89.7877 44.081 89.7902 44.0797 89.792L44.0787 89.7939L44.0777 89.7949L44.7398 90.5234V90.5225H44.7418C44.7429 90.5218 44.7446 90.5208 44.7467 90.5195C44.7511 90.5168 44.7575 90.5123 44.7662 90.5068C44.7838 90.4959 44.8101 90.4793 44.8443 90.458C44.9127 90.4155 45.0132 90.3535 45.1412 90.2744C45.3974 90.1161 45.7644 89.8898 46.2056 89.6211C47.0883 89.0835 48.2683 88.3745 49.4586 87.6855C50.6513 86.9953 51.8459 86.3306 52.7613 85.8799C52.8467 85.8378 52.9302 85.8003 53.0094 85.7627C52.4856 86.2988 51.7715 86.9546 51.0357 87.5996C50.2687 88.2721 49.4885 88.9263 48.9 89.4131C48.6059 89.6563 48.3604 89.8579 48.1881 89.998C48.1019 90.0681 48.034 90.1229 47.9879 90.1602C47.9649 90.1787 47.947 90.1926 47.9351 90.2021C47.9295 90.2067 47.9254 90.2105 47.9224 90.2129C47.921 90.2141 47.9193 90.2152 47.9185 90.2158L47.9176 90.2168L48.3453 91.0938C48.3459 91.0936 48.3468 91.0931 48.3482 91.0928C48.3514 91.092 48.3567 91.0904 48.3638 91.0889C48.378 91.0857 48.3998 91.0812 48.4283 91.0752C48.4856 91.0632 48.5704 91.0462 48.6763 91.0273C48.8891 90.9895 49.1857 90.9442 49.5191 90.9141C50.1164 90.8601 50.7691 90.8621 51.276 90.999C51.2118 91.1276 51.1015 91.3053 50.9322 91.5293C50.4804 92.1272 49.748 92.8975 48.9556 93.6709C48.1681 94.4395 47.3391 95.1944 46.7056 95.7578C46.3895 96.039 46.1227 96.272 45.9351 96.4346C45.8413 96.5159 45.7668 96.5798 45.7164 96.623C45.6912 96.6446 45.6717 96.6608 45.6588 96.6719C45.6523 96.6774 45.6473 96.6818 45.6441 96.6846L45.6402 96.6885L44.274 97.8506L46.0435 97.5635H46.0445C46.049 97.5629 46.0572 97.5617 46.0689 97.5605C46.0928 97.5581 46.1301 97.5549 46.1763 97.5537C46.2713 97.5512 46.3938 97.5562 46.5162 97.583C46.7292 97.6298 46.8933 97.7243 46.9762 97.9316C46.9507 97.9796 46.9065 98.0519 46.8306 98.1475C46.6565 98.3669 46.3806 98.6482 46.0211 98.9766C45.3056 99.6301 44.3177 100.417 43.3101 101.18C42.305 101.941 41.2901 102.671 40.526 103.212C40.1442 103.482 39.8253 103.705 39.6021 103.859C39.4906 103.937 39.403 103.998 39.3433 104.039C39.3136 104.059 39.2902 104.074 39.275 104.085C39.2676 104.09 39.2622 104.094 39.2584 104.097C39.2565 104.098 39.2544 104.099 39.2535 104.1L39.2525 104.101L37.7955 105.096L39.5582 105.014L39.5601 105.013C39.5621 105.013 39.5657 105.013 39.5699 105.013C39.5787 105.012 39.5924 105.011 39.6099 105.011C39.6452 105.009 39.6975 105.008 39.7642 105.006C39.8979 105.002 40.0898 104.998 40.3189 104.998C40.7788 104.998 41.3834 105.011 41.9752 105.066C42.5777 105.123 43.1242 105.219 43.4898 105.364C43.6738 105.437 43.7665 105.505 43.8043 105.548C43.8235 105.57 43.8162 105.564 43.815 105.568L43.8131 105.58C43.807 105.615 43.7639 105.725 43.5894 105.929C43.4247 106.121 43.1857 106.346 42.8736 106.615C42.2372 107.163 41.4099 107.795 40.4215 108.612C38.5298 110.176 36.2204 112.285 34.4654 115.111C34.4181 115.117 34.3638 115.125 34.3033 115.132C34.0502 115.161 33.6856 115.201 33.2418 115.24C32.3526 115.318 31.1503 115.394 29.8931 115.388C28.632 115.381 27.3358 115.292 26.2506 115.048C25.2103 114.814 24.4644 114.459 24.0777 113.996L24.0054 113.902C23.1012 112.602 21.6459 109.822 20.4244 107.235C19.8159 105.947 19.2718 104.72 18.8892 103.766C18.8505 103.669 18.8149 103.575 18.7799 103.484C19.089 103.838 19.4328 104.249 19.7779 104.676C20.3387 105.369 20.8971 106.089 21.316 106.636C21.5253 106.909 21.7001 107.138 21.8219 107.3C21.8826 107.38 21.93 107.444 21.9625 107.487C21.9787 107.509 21.9913 107.526 21.9996 107.537C22.0037 107.543 22.0073 107.547 22.0094 107.55C22.0102 107.551 22.0108 107.552 22.0113 107.553L22.0123 107.554L22.8814 107.081V107.079C22.881 107.078 22.8795 107.076 22.8785 107.073C22.8764 107.068 22.8739 107.059 22.8697 107.047C22.8611 107.023 22.8476 106.987 22.8306 106.938C22.7968 106.842 22.7476 106.696 22.6851 106.504C22.5599 106.119 22.3832 105.549 22.1803 104.812C21.7743 103.339 21.262 101.2 20.8424 98.5479L20.7691 98.0371C20.4207 95.3779 20.373 91.1501 20.5982 87.3965C20.7181 85.3978 20.9139 83.5541 21.1773 82.1699C21.3094 81.4759 21.4559 80.9156 21.6099 80.5146C21.6871 80.314 21.7604 80.1681 21.8258 80.0703V80.0693C21.8289 80.0745 21.8332 80.0793 21.8365 80.085C21.9723 80.315 22.1186 80.7208 22.2623 81.29C22.5455 82.4121 22.7798 83.9988 22.9654 85.6338C23.1504 87.2632 23.2851 88.9192 23.3736 90.1689C23.4179 90.7934 23.4507 91.3157 23.4722 91.6816C23.483 91.8646 23.4904 92.0085 23.4957 92.1064C23.4983 92.1552 23.5002 92.1926 23.5015 92.2178C23.5022 92.2301 23.5032 92.2398 23.5035 92.2461V92.2559L24.5025 92.2441L24.5035 92.2422V92.2119C24.5041 92.1906 24.5053 92.1586 24.5064 92.1172C24.5087 92.034 24.5119 91.911 24.5162 91.7529C24.5247 91.4363 24.5373 90.9774 24.5523 90.4092C24.5825 89.2724 24.6231 87.6968 24.6676 85.9414C24.7564 82.431 24.858 78.1996 24.9088 75.3213C24.9592 72.4635 25.2709 69.8376 25.816 68.125C26.0932 67.2541 26.4056 66.7022 26.7047 66.4453C26.842 66.3273 26.9573 66.2886 27.0562 66.2852C27.1578 66.2817 27.3044 66.3142 27.5054 66.4502H27.5064C27.6272 66.5345 27.8077 66.7963 27.9869 67.3525C28.1567 67.8797 28.2971 68.5759 28.4088 69.3955C28.6316 71.0319 28.7333 73.0903 28.7691 75.1182C28.8049 77.1426 28.7745 79.1228 28.7349 80.5977C28.7152 81.3344 28.6934 81.9445 28.6763 82.3701C28.6678 82.5829 28.66 82.75 28.6549 82.8633C28.6523 82.9198 28.6504 82.9631 28.649 82.9922C28.6483 83.0067 28.6484 83.0181 28.648 83.0254C28.6479 83.0289 28.6471 83.0315 28.647 83.0332V83.0361L29.6451 83.1016V83.0986C29.6453 83.0966 29.6458 83.0937 29.6461 83.0898C29.6467 83.0817 29.6477 83.0688 29.649 83.0527C29.6516 83.0207 29.6549 82.973 29.6597 82.9102C29.6696 82.7837 29.6847 82.5951 29.7027 82.3477C29.7388 81.8527 29.7889 81.1201 29.8482 80.1689C29.9669 78.2662 30.1199 75.4877 30.2554 71.9814C30.39 68.5003 31.0138 61.6072 31.9127 55.4756C32.3622 52.409 32.8779 49.5477 33.4322 47.4053C33.7099 46.3319 33.993 45.4574 34.274 44.833C34.4147 44.5205 34.5475 44.2871 34.6685 44.127C34.7894 43.9671 34.8685 43.9198 34.8941 43.9092C34.9358 43.8958 34.9431 43.9044 34.9449 43.9053C34.9613 43.913 35.0144 43.9462 35.0885 44.0596C35.2417 44.2944 35.3872 44.7172 35.5064 45.3281C35.7413 46.5315 35.8326 48.2407 35.8453 50.0098C35.8579 51.7707 35.7927 53.5611 35.7242 54.9131C35.69 55.5883 35.6549 56.1531 35.6285 56.5488C35.6153 56.7467 35.605 56.9029 35.5972 57.0088C35.5934 57.0615 35.5895 57.1018 35.5875 57.1289C35.5864 57.1425 35.5861 57.1534 35.5855 57.1602C35.5853 57.1631 35.5847 57.1654 35.5845 57.167V57.1699L36.566 57.3369H36.567V57.334C36.5675 57.3321 36.5681 57.3294 36.5689 57.3262C36.5707 57.3194 36.5735 57.3096 36.5767 57.2969C36.5832 57.2714 36.5931 57.2337 36.6051 57.1846C36.6291 57.0862 36.6629 56.9406 36.7056 56.748C36.7913 56.362 36.911 55.7867 37.0455 55.0244C37.3145 53.5 37.6459 51.2265 37.901 48.2168C38.0284 46.7132 38.1411 44.9304 38.2594 43.0879C38.3778 41.2427 38.5022 39.3351 38.6539 37.5713C38.8058 35.8051 38.9843 34.1959 39.2086 32.9453C39.3208 32.3194 39.4416 31.7955 39.5728 31.3926C39.6138 31.2666 39.6554 31.1588 39.6939 31.0664C39.7548 31.2957 39.8181 31.5993 39.8746 31.9766C40.0574 33.1974 40.1729 34.9743 40.2447 36.8164C40.3163 38.6529 40.3436 40.5354 40.3531 41.96C40.3578 42.6718 40.3579 43.2687 40.357 43.6875C40.3565 43.8969 40.3557 44.0624 40.3551 44.1748C40.3547 44.2308 40.3553 44.2738 40.3551 44.3027C40.355 44.3172 40.3541 44.3286 40.3541 44.3359V44.3457L40.8541 44.3506L40.3541 44.3467L41.3433 44.4531L41.3443 44.4521C41.3444 44.4515 41.3441 44.4503 41.3443 44.4492C41.3447 44.4471 41.3455 44.4441 41.3463 44.4404C41.3478 44.4328 41.3502 44.4217 41.3531 44.4072C41.359 44.3777 41.3674 44.3335 41.3785 44.2754C41.4007 44.1591 41.4328 43.9851 41.4732 43.751C41.554 43.2827 41.6684 42.574 41.8023 41.6064C42.0703 39.6713 42.4176 36.7002 42.7398 32.5459C43.0597 28.4217 43.6321 24.7251 44.2935 21.9033C44.6244 20.492 44.9753 19.3084 45.3248 18.4033C45.5581 17.7992 45.7807 17.3476 45.9791 17.0381C46.0145 17.2278 46.0492 17.4713 46.0758 17.7686C46.1729 18.858 46.1764 20.4471 46.1363 22.0986C46.0963 23.7448 46.0133 25.4333 45.94 26.7109C45.9034 27.3491 45.8693 27.8842 45.8443 28.2598C45.8318 28.4474 45.8211 28.5955 45.814 28.6963C45.8105 28.7467 45.8081 28.7856 45.8062 28.8115C45.8053 28.8245 45.8047 28.8343 45.8043 28.8408C45.8041 28.8438 45.8034 28.8461 45.8033 28.8477V28.8506L46.7916 28.9863L46.7926 28.9854C46.7927 28.9845 46.7923 28.9829 46.7926 28.9814C46.7932 28.9783 46.7943 28.9737 46.7955 28.9678C46.798 28.9553 46.8024 28.9364 46.8072 28.9121C46.8169 28.8635 46.831 28.7911 46.8492 28.6973C46.8857 28.5093 46.9387 28.2333 47.0035 27.8799C47.1332 27.1725 47.3111 26.1542 47.5064 24.9082C47.8969 22.4171 48.3555 19.0115 48.6275 15.3574C48.9157 11.7132 49.1944 8.03327 49.5728 5.19922C49.7623 3.7803 49.9738 2.5955 50.2183 1.74219C50.341 1.31413 50.466 0.991371 50.5885 0.770508C50.6492 0.661022 50.7027 0.588281 50.7457 0.542969C50.7547 0.533417 50.764 0.526884 50.7711 0.520508C50.7823 0.529314 50.7987 0.539081 50.816 0.555664Z" fill="#FFF4C1" stroke="#274C6C"/>
<path d="M60.7493 20.8335C59.0913 31.3908 54.7601 39.8164 50.2935 47.0914L60.7493 20.8335Z" fill="#FFF4C1"/>
<path d="M60.7493 20.8335C59.0913 31.3908 54.7601 39.8164 50.2935 47.0914" stroke="#274C6C" stroke-width="0.5" stroke-miterlimit="10" stroke-linecap="round" stroke-linejoin="round"/>
<path d="M53.5083 7.4339C53.2376 15.2165 52.7301 18.5326 52.7301 18.5326L53.5083 7.4339Z" fill="#FFF4C1"/>
<path d="M53.5083 7.4339C53.2376 15.2165 52.7301 18.5326 52.7301 18.5326" stroke="#274C6C" stroke-width="0.5" stroke-miterlimit="10" stroke-linecap="round" stroke-linejoin="round"/>
<path d="M45.9967 16.3331C44.3386 25.9092 44.9815 48.3773 44.9815 48.3773L45.9967 16.3331Z" fill="#FFF4C1"/>
<path d="M45.9967 16.3331C44.3386 25.9092 44.9815 48.3773 44.9815 48.3773" stroke="#274C6C" stroke-width="0.5" stroke-miterlimit="10" stroke-linecap="round" stroke-linejoin="round"/>
<path d="M40.8874 44.3844C39.2294 53.9266 38.8571 58.427 38.8571 58.427L40.8874 44.3844Z" fill="#FFF4C1"/>
<path d="M40.8874 44.3844C39.2294 53.9266 38.8571 58.427 38.8571 58.427" stroke="#274C6C" stroke-width="0.5" stroke-miterlimit="10" stroke-linecap="round" stroke-linejoin="round"/>
<path d="M38.316 69.4581C44.8466 63.2997 54.0166 46.144 54.0166 46.144L38.316 69.4581Z" fill="#FFF4C1"/>
<path d="M38.316 69.4581C44.8466 63.2997 54.0166 46.144 54.0166 46.144" stroke="#274C6C" stroke-width="0.5" stroke-miterlimit="10" stroke-linecap="round" stroke-linejoin="round"/>
<path d="M46.6394 68.3076C43.8647 74.1277 33.9842 83.2977 33.9842 83.2977L46.6394 68.3076Z" fill="#FFF4C1"/>
<path d="M46.6394 68.3076C43.8647 74.1277 33.9842 83.2977 33.9842 83.2977" stroke="#274C6C" stroke-width="0.5" stroke-miterlimit="10" stroke-linecap="round" stroke-linejoin="round"/>
<path d="M39.8717 81.5719C45.9624 76.2256 55.5046 62.0138 56.9258 58.427L39.8717 81.5719Z" fill="#FFF4C1"/>
<path d="M39.8717 81.5719C45.9624 76.2256 55.5046 62.0138 56.9258 58.427" stroke="#274C6C" stroke-width="0.5" stroke-miterlimit="10" stroke-linecap="round" stroke-linejoin="round"/>
<path d="M30.0592 99.675C32.8677 94.87 43.4588 83.2976 43.4588 83.2976L30.0592 99.675Z" fill="#FFF4C1"/>
<path d="M30.0592 99.675C32.8677 94.87 43.4588 83.2976 43.4588 83.2976" stroke="#274C6C" stroke-width="0.5" stroke-miterlimit="10" stroke-linecap="round" stroke-linejoin="round"/>
<path d="M30.8717 103.465C37.0978 95.9192 44.542 90.1329 44.542 90.1329L30.8717 103.465Z" fill="#FFF4C1"/>
<path d="M30.8717 103.465C37.0978 95.9192 44.542 90.1329 44.542 90.1329" stroke="#274C6C" stroke-width="0.5" stroke-miterlimit="10" stroke-linecap="round" stroke-linejoin="round"/>
<path d="M38.316 97.0695C42.9179 92.9414 48.2981 90.6066 48.2981 90.6066L38.316 97.0695Z" fill="#FFF4C1"/>
<path d="M38.316 97.0695C42.9179 92.9414 48.2981 90.6066 48.2981 90.6066" stroke="#274C6C" stroke-width="0.5" stroke-miterlimit="10" stroke-linecap="round" stroke-linejoin="round"/>
<path d="M31.5484 108.608C34.763 106.781 39.5679 104.514 39.5679 104.514L31.5484 108.608Z" fill="#FFF4C1"/>
<path d="M31.5484 108.608C34.763 106.781 39.5679 104.514 39.5679 104.514" stroke="#274C6C" stroke-width="0.5" stroke-miterlimit="10" stroke-linecap="round" stroke-linejoin="round"/>
<path d="M24.0703 92.2984C23.9687 98.5245 26.1343 105.563 27.454 107.593L24.0703 92.2984Z" fill="#FFF4C1"/>
<path d="M24.0703 92.2984C23.9687 98.5245 26.1343 105.563 27.454 107.593" stroke="#274C6C" stroke-width="0.5" stroke-miterlimit="10" stroke-linecap="round" stroke-linejoin="round"/>
<path d="M29.6872 102.145C26.6756 97.171 26.5064 78.6281 26.5064 78.6281L29.6872 102.145Z" fill="#FFF4C1"/>
<path d="M29.6872 102.145C26.6756 97.171 26.5064 78.6281 26.5064 78.6281" stroke="#274C6C" stroke-width="0.5" stroke-miterlimit="10" stroke-linecap="round" stroke-linejoin="round"/>
<path d="M35.5408 59.273C35.5408 59.273 33.3414 74.3984 34.9656 80.0154L35.5408 59.273Z" fill="#FFF4C1"/>
<path d="M35.5408 59.273C35.5408 59.273 33.3414 74.3984 34.9656 80.0154" stroke="#274C6C" stroke-width="0.5" stroke-miterlimit="10" stroke-linecap="round" stroke-linejoin="round"/>
<path d="M29.2137 119.605C29.2137 119.605 26.9466 106.612 33.6464 84.4482C40.3463 62.2846 50.0915 34.9439 51.9864 20.6306C51.9864 20.6306 51.8849 31.0187 42.8164 59.3069C33.7818 87.5951 29.5521 98.8968 29.6875 113.312C29.8228 127.726 29.2137 119.605 29.2137 119.605Z" fill="#01203C"/>
<path d="M54.6938 137.269C53.4756 134.562 39.8391 126.271 38.7225 117.778C38.7225 117.778 42.783 114.158 43.1552 112.533C43.4935 110.909 39.6022 109.657 39.6022 109.657H27.4546H15.273C15.273 109.657 11.3479 110.909 11.7201 112.533C12.0585 114.158 16.1528 117.778 16.1528 117.778C15.0362 126.271 1.39964 134.562 0.181488 137.269C-1.47655 140.991 8.77623 148.841 8.77623 148.841H27.4207H46.0652C46.099 148.841 56.3518 140.991 54.6938 137.269Z" fill="#014B6E"/>
<path d="M1.40046 137.641H52.6305" stroke="#01203C" stroke-width="0.5" stroke-miterlimit="10" stroke-linecap="round" stroke-linejoin="round"/>
<path d="M40.4821 122.414C39.6023 120.891 38.9594 119.369 38.7564 117.812H27.4547H16.1529C15.9499 119.369 15.307 120.925 14.4272 122.414C14.0212 128.471 7.89656 137.641 7.89656 137.641C14.2919 132.904 20.1796 127.185 23.1235 122.922C23.631 127.997 25.2552 132.87 27.4547 137.641C29.6541 132.87 31.2783 127.997 31.7859 122.922C34.7297 127.151 40.6175 132.904 47.0128 137.641C47.0128 137.641 40.8543 128.471 40.4821 122.414Z" fill="#2D6D8B"/>
<path opacity="0.41" d="M46.0992 148.842C46.0992 148.842 47.0128 148.131 48.2648 147.048C41.7003 147.725 16.0514 142.988 16.6944 137.641C17.1004 134.393 22.4467 117.813 22.4467 117.813C22.4467 117.813 17.7433 113.312 17.7095 109.691H15.2393C15.2393 109.691 11.3142 110.943 11.6864 112.568C12.0586 114.158 16.153 117.779 16.153 117.779C15.0363 126.272 1.39978 134.562 0.181629 137.269C-1.47641 140.991 8.77637 148.842 8.77637 148.842H27.4209H46.0992Z" fill="#14658C"/>
</svg>
