<svg width="81" height="81" viewBox="0 0 81 81" fill="none" xmlns="http://www.w3.org/2000/svg">
<path d="M14.4953 50.7846C14.1605 50.2998 13.8636 49.7839 13.6666 49.3125C12.5484 49.7241 11.3574 49.8156 10.076 49.4116C10.0072 49.4048 9.97612 49.367 9.90726 49.3602C7.32705 48.3765 5.75995 45.928 5.50407 43.2259C5.23466 40.6616 6.07664 37.7546 8.18084 36.1536C9.49766 35.1358 11.125 34.4962 12.798 34.4521C13.3557 34.4374 13.9377 34.5293 14.4818 34.6523C14.5117 33.9947 14.6482 33.3129 14.8847 32.6756C15.4333 31.3389 16.3059 30.2427 17.5267 29.4935C18.8232 28.6823 20.4856 28.3938 22.0074 28.4738C23.598 28.5607 25.2101 29.1363 26.2658 30.4221C27.1972 31.5566 27.6951 32.8571 27.8284 34.3303C27.9725 36.0479 27.2902 37.6843 26.2528 39.0425C28.2769 38.9633 30.3389 38.8531 32.3698 38.7051C36.0049 38.5062 39.6333 38.3761 43.3101 38.4594C46.9492 38.5738 50.5708 38.5126 54.1991 38.3825C57.8275 38.2525 61.4315 38.0157 65.0667 37.8168C67.0908 37.7376 69.1082 37.7273 71.1256 37.717C72.1342 37.7119 73.1119 37.6689 74.0895 37.626C74.5783 37.6045 75.0672 37.583 75.5628 37.4927C75.5628 37.4927 75.5628 37.4927 75.6006 37.4616C75.7761 37.4441 75.8828 37.4198 76.0583 37.4023C76.3406 37.3605 76.585 37.3498 76.8362 37.2702C77.6828 37.1448 78.6509 37.5529 78.8384 38.4752C79.0016 39.2908 78.5179 40.321 77.6334 40.4774C76.8245 40.5717 76.0157 40.666 75.2068 40.7603C75.1933 40.8981 75.2108 41.0736 75.2283 41.2492C75.3779 42.2025 75.6342 43.1316 75.5705 44.1335C75.5299 44.5467 75.3826 44.9842 75.0423 45.2636C74.7708 45.5498 74.2995 45.7468 73.8863 45.7062C73.4731 45.6656 73.0356 45.5183 72.7562 45.178C72.4768 44.8376 72.273 44.4352 72.3136 44.022C72.2961 43.8464 72.3096 43.7087 72.3299 43.5021C72.2881 43.2199 72.2153 42.8998 72.1803 42.5488C71.2715 42.5985 70.3384 42.5415 69.3986 42.5534C69.3783 42.76 69.3891 43.0045 69.4376 43.2178C69.4484 43.4622 69.528 43.7134 69.5765 43.9268C69.7114 44.3225 69.5884 44.8666 69.348 45.1906C69.1386 45.5524 68.7294 45.8251 68.3405 45.8912C67.9138 45.9883 67.4317 45.9409 67.0766 45.6627C66.6838 45.4154 66.4732 45.0819 66.3761 44.6551C66.0091 43.4371 66.0999 42.1597 66.1907 40.8823C62.7379 40.9948 59.2648 41.314 55.7742 41.4576C52.108 41.6187 48.4865 41.6799 44.8406 41.6344C42.9677 41.5894 41.1327 41.5133 39.253 41.5371C37.4422 41.5677 35.6247 41.6672 33.8071 41.7667C31.2874 41.9362 28.7676 42.1057 26.2236 42.1685C26.6651 42.6291 27.0687 43.1207 27.3278 43.6676C28.174 45.3152 28.0669 47.1125 27.4845 48.7935C26.9467 50.3745 26.016 51.7084 24.6303 52.7195C23.5471 53.4821 22.2291 53.8045 20.945 53.7826C18.432 53.8832 15.941 52.6997 14.4953 50.7846ZM75.4939 37.4859C75.3872 37.5102 75.2805 37.5345 75.4939 37.4859V37.4859ZM11.8505 38.0788C11.7438 38.1031 11.5993 38.1584 11.4927 38.1827C11.4927 38.1827 11.4548 38.2137 11.386 38.207C11.097 38.3176 10.8012 38.4971 10.5433 38.6456C10.5054 38.6766 10.392 38.7698 10.3542 38.8008C10.392 38.7698 10.4298 38.7387 10.5054 38.6766C10.4298 38.7387 10.3542 38.8008 10.2785 38.8629C10.1273 38.9871 10.0071 39.1491 9.8558 39.2733L9.81798 39.3044C9.77339 39.4043 9.69776 39.4664 9.65318 39.5663C9.53296 39.7283 9.47484 39.9659 9.3168 40.159C9.27222 40.2589 9.22762 40.3588 9.18304 40.4587C9.12491 40.6964 9.03574 40.8962 8.97762 41.1338C9.0019 41.2405 8.95731 41.3404 8.94378 41.4782C8.92347 41.6848 8.93421 41.9292 8.9139 42.1358C8.90037 42.2735 8.92463 42.3802 8.9111 42.5179C8.94214 42.5557 8.90433 42.5868 8.93538 42.6246C8.94612 42.869 8.99468 43.0823 9.07429 43.3335C9.09856 43.4402 9.12284 43.5469 9.17817 43.6914C9.23349 43.8359 9.40625 44.2005 9.20246 43.7981C9.31988 44.0182 9.36843 44.2316 9.52367 44.4206C9.58576 44.4963 9.61004 44.603 9.67213 44.6786L9.64109 44.6408C9.67213 44.6786 9.70318 44.7164 9.70318 44.7164C9.70318 44.7164 9.70318 44.7164 9.73422 44.7542C9.76527 44.792 9.79632 44.8299 9.79632 44.8299C9.92052 44.9811 10.0447 45.1324 10.2067 45.2526L10.1757 45.2148C10.2067 45.2526 10.2067 45.2526 10.2378 45.2904L10.2688 45.3282C10.2999 45.3661 10.3309 45.4039 10.3687 45.3728C10.4686 45.4174 10.5307 45.493 10.6306 45.5376C10.7306 45.5822 10.8305 45.6268 10.8926 45.7024C10.9614 45.7092 10.9925 45.747 11.0924 45.7916C11.1923 45.8362 11.2612 45.843 11.3989 45.8565C11.4678 45.8633 11.4678 45.8633 11.4988 45.9011C11.6365 45.9146 11.7432 45.8903 11.8431 45.9349C11.912 45.9417 11.9498 45.9107 12.0187 45.9174L11.9498 45.9107C12.0565 45.8864 12.1632 45.8621 12.2699 45.8378C12.2699 45.8378 12.3077 45.8068 12.3387 45.8446C12.3387 45.8446 12.3387 45.8446 12.3765 45.8135C12.4144 45.7825 12.4144 45.7825 12.4832 45.7893C12.5899 45.765 12.5589 45.7272 12.521 45.7582C12.5589 45.7272 12.6655 45.7029 12.7033 45.6718C12.8478 45.6165 12.9235 45.5544 13.0369 45.4613C13.0747 45.4302 13.1126 45.3992 13.1504 45.3681C13.226 45.306 13.3016 45.2439 13.4151 45.1508C13.5664 45.0266 13.7176 44.9024 13.8757 44.7094C14.1229 44.3165 14.3944 44.0303 14.6726 43.6752C14.6794 43.6064 14.755 43.5443 14.7618 43.4754C14.8064 43.3755 14.8888 43.2445 14.9334 43.1446C14.9334 43.1446 14.9712 43.1136 14.9401 43.0757C14.9401 43.0757 14.9779 43.0447 14.9469 43.0069L14.9847 42.9758C15.0739 42.776 15.1698 42.5073 15.228 42.2697C15.2725 42.1698 15.2861 42.032 15.3307 41.9321L15.3374 41.8633C15.3374 41.8633 15.3374 41.8633 15.3307 41.9321L15.3374 41.8633C15.3442 41.7944 15.3442 41.7944 15.351 41.7255C15.3713 41.5189 15.3848 41.3812 15.4051 41.1746C15.4187 41.0369 15.3944 40.9302 15.4079 40.7925C15.4147 40.7236 15.3837 40.6858 15.3904 40.6169C15.3486 40.3347 15.269 40.0835 15.1894 39.8323L15.1584 39.7945C15.1584 39.7945 15.1584 39.7945 15.1273 39.7567C15.0963 39.7189 15.0963 39.7189 15.1341 39.6878C15.1341 39.6878 15.1341 39.6878 15.1651 39.7257C15.103 39.65 15.0788 39.5433 15.0167 39.4677C14.9546 39.3921 14.8993 39.2476 14.8372 39.1719C14.8061 39.1341 14.744 39.0585 14.713 39.0207C14.713 39.0207 14.713 39.0207 14.744 39.0585C14.6198 38.9072 14.3889 38.7802 14.3026 38.5979L14.2715 38.5601C14.1716 38.5155 14.0785 38.4021 13.9785 38.3575C13.9785 38.3575 13.9475 38.3197 13.8786 38.3129C13.9097 38.3507 13.6788 38.2237 13.61 38.217C13.51 38.1724 13.3723 38.1588 13.2724 38.1143C13.2413 38.0764 13.2035 38.1075 13.1725 38.0697C12.9659 38.0494 12.6904 38.0223 12.446 38.033C12.446 38.033 12.446 38.033 12.3772 38.0263C12.1017 37.9992 11.995 38.0235 11.8505 38.0788ZM21.8375 37.9827L21.8753 37.9517C21.982 37.9274 22.0576 37.8653 22.1333 37.8032C22.2778 37.7479 22.429 37.6237 22.5425 37.5306C22.6181 37.4685 22.6938 37.4064 22.8072 37.3132C22.9585 37.189 23.0787 37.027 23.23 36.9028C23.2745 36.8029 23.3502 36.7408 23.3948 36.6409C23.515 36.4789 23.5974 36.3479 23.6866 36.1481C23.6933 36.0793 23.769 36.0172 23.7757 35.9483C23.8135 35.9173 23.7825 35.8794 23.8203 35.8484C23.8717 35.6796 23.9608 35.4798 24.0122 35.311C24.019 35.2421 24.0257 35.1733 24.0703 35.0734C24.1081 35.0423 24.0771 35.0045 24.0771 35.0045C24.0974 34.7979 24.1177 34.5913 24.1002 34.4158C24.107 34.3469 24.0827 34.2402 24.0894 34.1714C24.0827 34.2402 24.0827 34.2402 24.0827 34.2402C24.0894 34.1714 24.0894 34.1714 24.0584 34.1335C24.0098 33.9202 23.9545 33.7757 23.906 33.5623C23.906 33.5623 23.906 33.5623 23.8749 33.5245C23.8506 33.4178 23.7575 33.3044 23.7332 33.1977C23.6711 33.122 23.6468 33.0154 23.5537 32.9019C23.4916 32.8263 23.3985 32.7128 23.3364 32.6372C23.3053 32.5994 23.2432 32.5238 23.2122 32.4859C23.1123 32.4414 23.0502 32.3657 22.9502 32.3211C22.9192 32.2833 22.8193 32.2387 22.7504 32.232C22.9881 32.2901 22.5816 32.1806 22.5128 32.1738C22.3751 32.1603 22.2441 32.0779 22.1064 32.0644C21.9686 32.0508 21.8309 32.0373 21.6932 32.0237C21.4488 32.0345 21.0734 31.9628 20.86 32.0114C21.1044 32.0006 20.9289 32.0182 20.86 32.0114C20.7912 32.0046 20.7534 32.0357 20.6845 32.0289C20.5778 32.0532 20.4023 32.0707 20.2578 32.126C20.1511 32.1503 20.0066 32.2056 19.8999 32.2299C19.8621 32.2609 19.7932 32.2542 19.7932 32.2542C19.6109 32.3405 19.4286 32.4269 19.2773 32.5511C19.2395 32.5822 19.2017 32.6132 19.1639 32.6443C19.0882 32.7063 19.0504 32.7374 18.9748 32.7995C18.8992 32.8616 18.8235 32.9237 18.7789 33.0236C18.7411 33.0546 18.7411 33.0546 18.7033 33.0857C18.5831 33.2477 18.4629 33.4097 18.3737 33.6095C18.3737 33.6095 18.3359 33.6406 18.3669 33.6784L18.3291 33.7094C18.3223 33.7783 18.2845 33.8094 18.2845 33.8094C18.2778 33.8782 18.2399 33.9093 18.2021 33.9403C18.1575 34.0402 18.1129 34.1401 18.1372 34.2468C18.1372 34.2468 18.0926 34.3467 18.0859 34.4156C18.0791 34.4845 18.0656 34.6222 18.0656 34.6222C18.052 34.7599 18.0763 34.8666 18.0317 34.9665C18.0317 34.9665 18.056 35.0732 18.0492 35.1421C18.0425 35.2109 18.0978 35.3554 18.06 35.3865C18.0842 35.4931 18.1085 35.5998 18.1639 35.7443C18.1949 35.7821 18.1881 35.851 18.1881 35.851C18.3055 36.0711 18.3919 36.2535 18.5094 36.4736C18.5404 36.5114 18.5404 36.5114 18.5404 36.5114C18.5714 36.5492 18.5714 36.5492 18.6025 36.587C18.6956 36.7005 18.7888 36.8139 18.8441 36.9584C19.0304 37.1853 19.2167 37.4122 19.4097 37.5703C19.4097 37.5703 19.4097 37.5703 19.4408 37.6081C19.4718 37.6459 19.5407 37.6527 19.5717 37.6905C19.7027 37.7729 19.8337 37.8553 19.9646 37.9377C20.0645 37.9823 20.1334 37.9891 20.2333 38.0336C20.3332 38.0782 20.4021 38.085 20.502 38.1296C20.7086 38.1499 20.8463 38.1634 21.0219 38.1459C21.1285 38.1216 21.1974 38.1284 21.3041 38.1041C21.5863 38.0623 21.693 38.0381 21.8375 37.9827ZM21.2456 50.3704L21.3145 50.3772C21.2834 50.3394 21.2835 50.3394 21.2456 50.3704C21.3523 50.3461 21.459 50.3219 21.6345 50.3043C21.7412 50.2801 21.8479 50.2558 21.8857 50.2247C21.9235 50.1937 21.9235 50.1937 21.9924 50.2005C22.1747 50.1141 22.357 50.0277 22.5083 49.9035C22.5461 49.8725 22.5461 49.8725 22.5839 49.8414C22.6596 49.7793 22.7352 49.7172 22.8108 49.6551C22.9243 49.562 22.9999 49.4999 23.0823 49.3689L23.1201 49.3379C23.2782 49.1448 23.443 48.8829 23.57 48.652C23.6146 48.5521 23.6591 48.4522 23.7037 48.3523C23.7105 48.2834 23.7861 48.2213 23.7929 48.1525C23.9267 47.8527 23.9915 47.5462 24.0942 47.2087C24.1456 47.0399 24.1659 46.8333 24.2173 46.6645C24.101 47.1398 24.1727 46.7645 24.224 46.5957C24.1998 46.489 24.2444 46.3891 24.2201 46.2824C24.2201 46.2824 24.2201 46.2824 24.2511 46.3202L24.2201 46.2824C24.2268 46.2135 24.2268 46.2135 24.2336 46.1447C24.2404 46.0758 24.2404 46.0758 24.2025 46.1068C24.2025 46.1068 24.2026 46.1069 24.1715 46.069C24.1472 45.9624 24.123 45.8557 24.0919 45.8179L24.0609 45.78C24.0676 45.7112 24.0366 45.6734 24.0366 45.6734C24.0123 45.5667 23.9192 45.4532 23.8571 45.3776C23.826 45.3398 23.7639 45.2641 23.7707 45.1953C23.6154 45.0062 23.4602 44.8171 23.2982 44.6969C23.2671 44.6591 23.2361 44.6213 23.2051 44.5834C23.0741 44.501 22.9809 44.3876 22.881 44.343C22.7501 44.2606 22.6191 44.1782 22.4882 44.0958C22.4571 44.058 22.3883 44.0512 22.3572 44.0134C22.0575 43.8796 21.7888 43.7837 21.4823 43.7188C21.4134 43.712 21.3445 43.7053 21.3135 43.6674C21.1758 43.6539 21.038 43.6404 20.9003 43.6268C20.7626 43.6133 20.587 43.6308 20.4493 43.6173C20.3804 43.6105 20.3426 43.6415 20.2737 43.6348L20.3426 43.6415C20.2359 43.6658 20.0604 43.6833 19.9537 43.7076C19.9159 43.7387 19.847 43.7319 19.8092 43.7629C19.6647 43.8183 19.5891 43.8804 19.4446 43.9357C19.4446 43.9357 19.4446 43.9357 19.4068 43.9667C19.4824 43.9046 19.4824 43.9046 19.369 43.9978L19.3311 44.0288C19.2933 44.0599 19.2933 44.0599 19.2555 44.0909L19.2933 44.0599C19.2177 44.122 19.1421 44.1841 19.0664 44.2462C19.0664 44.2462 19.0664 44.2462 19.1042 44.2151C19.1042 44.2151 19.1042 44.2151 19.0664 44.2462C19.0286 44.2772 19.0286 44.2772 18.9908 44.3083C18.9152 44.3704 18.9462 44.4082 18.984 44.3771C18.9462 44.4082 18.9462 44.4082 18.9084 44.4392C18.6612 44.8321 18.4518 45.1939 18.2046 45.5868C18.1222 45.7178 18.0019 45.8798 17.8885 45.9729C17.6791 46.3348 17.4009 46.6898 17.1294 46.976C17.0916 47.0071 17.0848 47.0759 17.0848 47.0759C17.047 47.107 17.078 47.1448 17.0402 47.1758C17.0334 47.2447 17.0267 47.3136 16.9888 47.3446C16.9821 47.4135 16.9753 47.4824 16.9685 47.5512C16.9375 47.5134 16.9753 47.4823 16.9443 47.4445C16.9753 47.4823 16.9685 47.5512 16.9996 47.589C16.9928 47.6579 17.0171 47.7646 17.0171 47.7646C17.0103 47.8334 17.0414 47.8713 17.0657 47.9779C17.0657 47.9779 17.0657 47.9779 17.0967 48.0158C17.1277 48.0536 17.152 48.1603 17.1831 48.1981C17.2452 48.2737 17.2694 48.3804 17.3005 48.4182C17.3005 48.4182 17.3248 48.5249 17.3869 48.6005C17.4179 48.6383 17.4179 48.6383 17.449 48.6762C17.4179 48.6383 17.4179 48.6383 17.4179 48.6383C17.48 48.714 17.5732 48.8274 17.6352 48.9031C17.7594 49.0543 17.9214 49.1745 18.0456 49.3258C18.1455 49.3704 18.2077 49.446 18.3386 49.5284C18.5006 49.6486 18.7004 49.7378 18.8624 49.858C18.9313 49.8648 18.9934 49.9404 19.0623 49.9472C19.0312 49.9094 18.9934 49.9404 18.9624 49.9026C18.9934 49.9404 19.0623 49.9472 19.0623 49.9472C19.0623 49.9472 19.0623 49.9472 19.0933 49.985C19.1622 49.9918 19.2621 50.0364 19.2621 50.0364C19.5618 50.1701 19.8683 50.235 20.1748 50.2999C20.106 50.2932 20.2437 50.3067 20.3436 50.3513C20.3747 50.3891 20.4125 50.3581 20.4125 50.3581C20.4813 50.3648 20.6191 50.3784 20.6879 50.3851C20.8257 50.3987 20.9323 50.3744 21.0701 50.3879C21.039 50.3501 21.1768 50.3636 21.2456 50.3704Z" fill="#FFF4C1"/>
<path d="M39.3214 43.3168C39.9101 43.3399 40.4989 43.363 41.1186 43.424C43.1535 43.5892 45.4503 43.9193 47.7878 43.8361C50.1252 43.753 52.4208 43.3877 54.4828 43.2775C56.0937 43.1577 57.9356 43.1649 58.7998 43.2151C59.2508 43.2247 59.4263 43.2071 59.2643 43.0869C59.0645 42.9978 58.4893 42.8369 57.4253 42.6976C56.4301 42.565 54.9016 42.5538 53.1839 42.6978C51.4352 42.8041 49.4664 43.0277 47.4733 43.1447C45.487 43.1928 43.4521 43.0276 41.6481 42.9893C39.813 42.9132 38.2088 42.9641 37.0731 43.2001C36.2953 43.3323 36.3885 43.4457 37.1595 43.3824C37.7928 43.3056 38.2817 43.2842 39.3214 43.3168Z" fill="#FFF4C1"/>
<path d="M31.8554 43.9388C31.9243 43.9456 32.031 43.9213 32.1309 43.9659C32.7507 44.0268 33.4907 43.9257 34.155 43.8867C34.6439 43.8653 35.315 43.7574 34.6224 43.3764C34.3226 43.2427 33.7028 43.1818 33.0317 43.2896C32.3984 43.3664 31.7515 43.581 31.418 43.7915C31.3423 43.8536 31.3666 43.9603 31.5043 43.9738C31.611 43.9496 31.6799 43.9563 31.8554 43.9388Z" fill="#FFF4C1"/>
<path d="M26.5653 52.8401C26.414 52.9643 26.2627 53.0885 26.1115 53.2127C25.9602 53.3369 25.8089 53.4611 25.6266 53.5475C24.5124 54.2723 23.0985 54.8634 21.6185 55.0656C20.1075 55.2299 18.606 54.9433 17.3827 54.3016C16.4214 53.8247 15.494 53.0034 15.0458 52.6117C14.8217 52.4159 14.6907 52.3335 14.746 52.478C14.7393 52.5468 14.8324 52.6603 14.9188 52.8426C14.9809 52.9182 15.074 53.0317 15.1293 53.1762C15.2225 53.2896 15.3089 53.4719 15.4398 53.5544C15.8745 54.0838 16.7088 54.7916 17.8457 55.251C19.0136 55.7482 20.4529 55.9592 21.833 55.7124C23.2442 55.5035 24.5582 54.8678 25.5725 54.0984C25.6859 54.0052 25.7994 53.9121 25.9128 53.819C26.0263 53.7258 26.1397 53.6327 26.2221 53.5017C26.449 53.3154 26.6449 53.0913 26.8029 52.8983C26.961 52.7052 27.119 52.5122 27.277 52.3191C27.4351 52.126 27.5242 51.9262 27.6445 51.7642C27.9295 51.3403 27.7985 51.2579 27.4446 51.675C27.2866 51.8681 27.2042 51.9991 27.0151 52.1543C27.0258 52.3987 26.83 52.6228 26.5653 52.8401Z" fill="#FFF4C1"/>
<path d="M7.70756 49.4569C7.86956 49.5771 8.03156 49.6973 8.19357 49.8175C8.77951 50.2228 9.47889 50.5349 10.2229 50.7471L10.4916 50.843C10.5915 50.8876 10.6914 50.9322 10.7981 50.9079C10.9668 50.9593 11.1734 50.9796 11.38 50.9999C11.7554 51.0715 12.0997 51.1054 12.444 51.1392C12.995 51.1934 13.5391 51.3164 13.8146 51.3435C13.9523 51.357 14.059 51.3327 13.9969 51.2571C13.9726 51.1504 13.8106 51.0302 13.4798 50.8586C13.149 50.6871 12.6737 50.5708 12.1296 50.4478C11.8541 50.4207 11.5476 50.3558 11.2411 50.2909C10.9346 50.226 10.6659 50.1301 10.3594 50.0652C9.71536 49.8976 9.10912 49.6989 8.60956 49.476C8.11 49.2531 7.61721 48.9613 7.36206 48.7276C7.169 48.5696 7.09337 48.6317 7.24184 48.8896C7.32821 49.072 7.38354 49.2165 7.70756 49.4569Z" fill="#FFF4C1"/>
<path d="M6.35777 47.273C6.32673 47.2352 6.26462 47.1596 6.27139 47.0907C6.0676 46.6883 5.7018 46.1656 5.42914 45.7564C5.21857 45.4228 4.87704 45.0068 4.7783 45.6577C4.75122 45.9331 4.94826 46.4044 5.28978 46.8204C5.63131 47.2364 6.07951 47.6281 6.39279 47.6241C6.4927 47.6687 6.54406 47.4999 6.48196 47.4243C6.4131 47.4175 6.41987 47.3487 6.35777 47.273Z" fill="#FFF4C1"/>
<path d="M22.3541 56.4242C22.2096 56.4795 22.0719 56.466 21.8963 56.4835C20.8809 56.5575 19.5414 56.3911 18.4153 56.1761C17.5268 56.0192 16.4317 55.8421 17.4794 56.5013C17.9722 56.7931 19.0227 57.0702 20.1623 57.1474C20.7511 57.1705 21.3088 57.1558 21.8111 56.9966C22.3445 56.8752 22.7159 56.6336 22.9496 56.3784C23.1009 56.2542 23.0077 56.1408 22.8254 56.2272C22.712 56.3203 22.6053 56.3446 22.3541 56.4242Z" fill="#FFF4C1"/>
<path d="M58.0129 36.011C57.1865 35.9298 56.398 35.8175 55.5648 35.8051C55.2205 35.7713 54.8694 35.8063 54.4873 35.8035C54.1362 35.8385 53.754 35.8357 53.4408 35.8397C52.7075 35.8719 51.9743 35.9041 51.2411 35.9363C49.7368 36.0318 48.2015 36.0895 46.6283 36.1782C45.0552 36.267 43.5509 36.3625 42.0156 36.4201C40.4802 36.4778 39.0138 36.5423 37.654 36.5824C35.4233 36.6413 32.9927 36.6109 31.8152 36.5647C31.2265 36.5416 30.9443 36.5834 31.2129 36.6794C31.4506 36.7375 32.2324 36.9186 33.7163 37.0297C36.4021 37.2937 41.7277 37.2262 47.1183 36.8522C49.8136 36.6652 52.5777 36.4849 54.9908 36.3397C56.1818 36.2482 57.3525 36.3632 58.3855 36.4648C59.4562 36.5353 60.3583 36.5544 61.1293 36.4911C61.6559 36.4386 61.8693 36.39 61.8383 36.3522C61.8072 36.3144 61.5628 36.3252 61.0051 36.3399C60.041 36.2451 59.4212 36.1842 58.0129 36.011Z" fill="#FFF4C1"/>
<path d="M72.2401 35.2192C71.9957 35.2299 71.7202 35.2029 71.4758 35.2136C69.7407 35.1821 67.6206 35.53 65.8962 35.7429C65.194 35.8129 64.454 35.914 64.0651 35.9801C63.7072 36.0839 63.7315 36.1906 64.6578 36.3164C65.5152 36.4355 67.164 36.2847 68.8195 36.065C70.5129 35.8143 72.1752 35.5257 73.1218 35.4449C73.404 35.4031 73.4176 35.2654 73.1043 35.2694C72.8977 35.2491 72.6911 35.2288 72.2401 35.2192Z" fill="#FFF4C1"/>
<path d="M44.9084 34.9315C45.3595 34.941 45.8172 34.8817 46.2682 34.8913C47.7279 34.8957 49.4563 34.9961 51.1779 35.1653C52.8995 35.3345 54.6725 35.335 56.2214 35.1396C57.4502 35.017 58.837 34.7014 59.4529 34.449C59.7418 34.3384 59.8931 34.2142 59.7176 34.2317C59.5798 34.2182 59.1221 34.2774 58.351 34.3407C57.6488 34.4108 56.5267 34.509 55.2358 34.556C53.9449 34.6029 52.4852 34.5985 50.9702 34.4496C49.4484 34.3695 47.9576 34.3273 46.56 34.3985C45.8956 34.4375 45.2245 34.5453 44.6979 34.5979C44.1024 34.6436 43.6136 34.6651 43.1625 34.6555C42.6116 34.6014 42.5981 34.7391 43.1801 34.8311C43.731 34.8852 44.1064 34.9569 44.9084 34.9315Z" fill="#FFF4C1"/>
<path d="M28.9092 32.1768C28.8675 31.8946 28.7568 31.6056 28.6772 31.3544C28.352 30.4186 27.6825 29.4489 26.8104 28.7721C25.9072 28.0576 24.9081 27.6117 23.9575 27.3792C23.2135 27.167 22.3561 27.048 21.9361 27.0762C21.5162 27.1045 21.5405 27.2112 22.5153 27.5504C23.3524 27.876 25.0848 28.2896 26.4672 29.4337C27.1773 29.9902 27.7362 30.6709 28.1506 31.4069C28.5339 32.1052 28.8105 32.8276 28.9319 33.3611C29.0358 33.7189 29.1803 33.6636 29.1142 33.2747C29.0967 33.0991 29.0724 32.9925 29.0549 32.8169C29.0064 32.6035 28.9888 32.428 28.9092 32.1768Z" fill="#FFF4C1"/>
<path d="M17.6282 28.4606C17.666 28.4295 17.7349 28.4363 17.8105 28.3742C18.2372 28.2771 18.6842 27.9734 19.0799 27.8384C19.2244 27.7831 19.4067 27.6967 19.4891 27.5658C19.5715 27.4348 19.5473 27.3281 19.2786 27.2322C19.0099 27.1363 18.5453 27.2644 18.1739 27.506C17.7647 27.7787 17.4176 28.127 17.2906 28.3579C17.246 28.4578 17.3081 28.5334 17.4148 28.5091C17.4526 28.4781 17.5215 28.4849 17.6282 28.4606Z" fill="#FFF4C1"/>
<path d="M25.6322 26.2575C25.4702 26.1373 25.346 25.986 25.184 25.8658C24.6359 25.4295 23.8987 25.1485 23.179 25.0429C22.4283 24.8996 21.695 24.9318 21.0307 24.9708C20.504 25.0234 19.9328 25.1758 19.6438 25.2865C19.3859 25.4349 19.448 25.5106 20.1366 25.5782C20.7564 25.6392 21.9474 25.5477 23.1113 25.7316C23.6933 25.8236 24.3063 25.9533 24.8058 26.1763C25.3054 26.3992 25.7293 26.6842 25.9467 26.9489C26.1397 27.107 26.2154 27.0449 26.0979 26.8247C25.9737 26.6735 25.9184 26.529 25.6322 26.2575Z" fill="#FFF4C1"/>
<path d="M4.86935 38.3659C4.92748 38.1283 5.01665 37.9285 5.17469 37.7354C5.26386 37.5356 5.38407 37.3736 5.47324 37.1738C5.56242 36.9739 5.68264 36.8119 5.84068 36.6189C6.08112 36.2949 6.39042 35.9776 6.76859 35.6671C7.48711 35.0772 8.23666 34.5251 9.03479 34.1864C9.61955 33.8962 10.3353 33.6885 10.6931 33.5846C10.8376 33.5293 10.9821 33.4739 10.8822 33.4294C10.7823 33.3848 10.5447 33.3266 10.0558 33.3481C9.63589 33.3764 8.96476 33.4842 8.30436 33.8365C7.61292 34.1509 6.90117 34.672 6.28933 35.2376C5.94898 35.517 5.67072 35.8721 5.42351 36.265C5.17631 36.6579 5.03579 37.0265 4.89526 37.3951C4.58316 38.0945 4.51547 38.7831 4.53695 39.2719C4.54092 39.5852 4.67865 39.5987 4.7125 39.2544C4.67071 38.9722 4.72883 38.7346 4.86935 38.3659Z" fill="#FFF4C1"/>
</svg>
