<svg width="23" height="28" viewBox="0 0 23 28" fill="none" xmlns="http://www.w3.org/2000/svg">
<path d="M7.52128 20.074C8.85074 22.3534 9.8734 24.9436 10.487 27.5338C10.5893 28.1554 11.4074 28.1554 11.6119 27.5338C12.43 24.84 13.7595 22.2498 14.8844 19.8668C17.032 15.308 24.7019 15.9297 22.6566 14.5828C23.6793 15.2044 16.4184 13.0287 14.2708 8.46993C12.9414 5.67252 12.3278 3.49676 11.5097 0.388529C11.4074 -0.12951 10.5893 -0.12951 10.3847 0.388529C9.25981 3.70398 8.64621 5.46529 7.31675 8.36631C5.6805 11.7854 2.10119 14.272 0.362674 14.79C-0.0463889 14.8936 -0.148653 15.4117 0.26041 15.7225C1.99893 16.8622 6.08956 17.7946 7.52128 20.074Z" fill="#014B6E"/>
</svg>
