<svg width="128" height="177" viewBox="0 0 128 177" fill="none" xmlns="http://www.w3.org/2000/svg">
<path d="M55.1395 51.5784C54.1835 64.0928 52.4412 75.8787 52.7849 88.4968C53.1574 102.279 52.2302 115.958 51.2489 129.745C50.7987 136.49 50.309 153.091 49.7776 159.863C49.4582 163.493 48.3577 169.915 49.2291 173.324C50.2094 177.058 52.2661 176.455 53.5346 173.769C54.803 171.084 54.635 167.347 54.8741 164.287C55.9897 149.822 56.0366 126.777 57.179 112.122C58.4281 96.4386 58.6483 80.6501 58.5981 65.1334C58.5616 58.8239 58.9315 52.6483 58.6786 46.502C58.5955 45.1754 58.8037 39.5962 57.7196 38.7876C54.9278 36.6581 54.7511 45.2972 54.6728 47.2202C54.73 49.2781 54.5976 51.3095 55.1395 51.5784Z" fill="#01203C"/>
<path d="M33.0249 33.0449C35.7589 32.0329 42.8547 31.8991 46.4023 31.6967C47.296 31.6665 47.9994 31.068 48.2963 30.3356C48.9977 28.3827 53.7176 14.4156 56.9918 12.3181C57.4246 11.9915 57.8315 12.3964 58.2111 12.7201C60.0008 14.2847 63.1033 24.892 65.5209 29.9487C65.8741 30.733 66.6601 31.1907 67.4726 31.1877C71.86 31.0637 79.0645 31.2545 83.0474 32.3508C83.9415 32.5914 84.6739 33.4285 84.6482 34.4308C84.5444 37.6276 78.0493 41.1723 73.4225 44.3581C72.6108 44.9028 72.3143 45.9061 72.6135 46.7989C74.1366 51.3442 75.2264 55.9452 75.5577 60.4406C75.8343 64.5028 76.1611 65.7476 72.3686 65.2195C69.9035 64.8762 66.8106 61.0408 64.8584 59.5309C62.7435 57.8049 60.7097 56.0515 58.6488 54.2169C57.9979 53.6233 57.0498 53.4913 56.2921 53.9274C52.5843 55.8097 43.9831 63.8586 39.9757 64.5772C38.7031 64.8256 37.4558 63.8007 37.4811 62.5275C37.5018 58.0038 41.6322 48.4812 43.3047 43.7619C43.6284 42.8398 43.2748 41.7846 42.4616 41.2458C40.3742 39.8718 34.6032 38.2943 32.6782 36.8655C31.2141 35.7331 31.4819 33.5651 33.0249 33.0449Z" fill="#014B6E"/>
<path d="M54.2116 19.6828C53.9136 19.6026 53.8048 19.278 53.8856 18.9797C54.2365 18.1388 54.6414 17.1893 54.9931 16.89C55.8588 16.2369 55.3198 18.1349 54.9693 19.2467C54.8885 19.5449 54.6721 19.7082 54.2116 19.6828Z" fill="#FFF4C1"/>
<path d="M53.5881 20.7917C53.6965 20.8455 53.8049 20.8993 53.9133 20.953C54.1302 21.0606 54.3202 21.3579 54.2121 21.575C53.9693 22.1988 53.7264 22.8227 53.4023 23.4739C52.8898 24.9114 52.2416 26.2139 51.5935 27.5164C51.2694 28.1676 50.8109 29.4965 50.324 29.9316C49.107 31.1549 50.8887 27.0313 51.0503 26.4348C51.6437 24.6992 52.1827 22.8011 52.776 21.0655C52.9653 20.821 53.2901 20.7115 53.5881 20.7917Z" fill="#FFF4C1"/>
<path d="M44.0238 24.1065C43.8611 23.8904 43.7795 23.6469 43.698 23.4033C42.9919 21.8347 41.4199 20.3774 40.1462 19.2712C39.0624 18.4624 37.5184 17.6281 37.7651 19.713C38.0386 21.6082 41.9945 24.5199 43.8363 25.4345C44.1614 25.5959 44.4856 25.2155 44.404 24.972C44.2413 24.7559 44.2409 24.485 44.0238 24.1065Z" fill="#01203C"/>
<path d="M42.5661 26.4921C42.3765 26.4657 42.268 26.4118 42.0784 26.3854C41.0485 26.0094 39.7214 26.0953 38.6924 26.2615C37.8258 26.3729 36.77 26.729 37.8547 27.5386C38.8038 28.2131 41.8636 27.6332 43.0819 27.2223C43.2443 27.1675 43.3251 26.869 43.1083 26.7613C42.9726 26.6263 42.837 26.4912 42.5661 26.4921Z" fill="#01203C"/>
<path d="M46.1131 23.313C46.1399 23.1233 46.1939 23.0148 46.2206 22.8252C46.4895 21.7409 46.3251 20.4414 46.1611 19.4128C45.9703 18.5739 45.5358 17.5462 44.9152 18.6587C44.2674 19.6901 45.0028 22.6939 45.5728 23.8565C45.6272 24.0189 45.9789 23.9906 46.0057 23.8009C45.9513 23.6386 46.0053 23.5301 46.1131 23.313Z" fill="#01203C"/>
<path d="M73.1913 25.5721C73.4077 25.4087 73.6513 25.3266 73.895 25.2444C75.4648 24.5341 76.9249 22.9568 78.0334 21.6789C78.8443 20.5918 79.6816 19.0438 77.5965 19.2951C75.7011 19.5728 72.782 23.5406 71.8639 25.387C71.7019 25.7129 72.0816 26.0368 72.3252 25.9546C72.5416 25.7913 72.8124 25.7903 73.1913 25.5721Z" fill="#01203C"/>
<path d="M70.8838 24.0893C70.9105 23.8996 70.9645 23.7911 70.9913 23.6014C71.3685 22.5708 71.2853 21.2439 71.1213 20.2152C71.0118 19.3489 70.6583 18.2937 69.8482 19.38C69.1731 20.3303 69.7461 23.389 70.1539 24.6064C70.2083 24.7687 70.5061 24.849 70.614 24.6319C70.7491 24.496 70.803 24.3875 70.8838 24.0893Z" fill="#01203C"/>
<path d="M74.0604 27.6231C74.25 27.6495 74.3585 27.7034 74.5481 27.7298C75.6321 27.9973 76.9321 27.8302 77.9612 27.664C78.8006 27.4713 79.8293 27.034 78.7177 26.4142C77.6873 25.767 74.6817 26.5093 73.5178 27.0826C73.3553 27.1374 73.383 27.4898 73.5726 27.5163C73.6538 27.4889 73.7623 27.5427 74.0604 27.6231Z" fill="#01203C"/>
<path d="M80.8938 49.3354C81.1106 49.4431 81.3274 49.5507 81.5714 49.7396C83.0622 50.6829 85.0667 51.0011 86.8271 51.1304C88.2084 51.2068 89.9684 51.0651 88.5308 49.4711C87.2288 48.0121 82.3811 47.8395 80.2962 48.0908C79.9442 48.1192 79.8366 48.6074 80.1618 48.7689C80.4058 48.9577 80.5686 49.174 80.8938 49.3354Z" fill="#01203C"/>
<path d="M80.8886 46.6312C81.0511 46.5764 81.2135 46.5216 81.376 46.4668C82.459 46.192 83.46 45.4023 84.2986 44.6674C84.9207 44.0959 85.6236 43.2259 84.2693 43.2305C83.0773 43.1804 80.8325 45.3842 80.1028 46.4441C79.9676 46.5801 80.1577 46.8777 80.3201 46.8229C80.4825 46.7681 80.5638 46.7407 80.8886 46.6312Z" fill="#01203C"/>
<path d="M79.7306 51.2614C79.785 51.4237 79.8393 51.586 79.8937 51.7483C80.2471 52.8035 81.1146 53.7756 81.8194 54.5315C82.3886 55.1525 83.3097 55.7452 83.3076 54.3909C83.2787 53.2263 80.9482 51.1217 79.8916 50.3941C79.675 50.2865 79.4587 50.4497 79.5403 50.6932C79.5947 50.8555 79.5407 50.9641 79.7306 51.2614Z" fill="#01203C"/>
<path d="M36.4659 44.9758C36.195 44.9767 35.9241 44.9776 35.7344 44.9512C34.0545 44.7941 31.9965 45.3976 30.3992 46.0266C29.1268 46.5461 27.6384 47.5002 29.6173 48.28C31.3793 48.9521 35.8732 46.9845 37.5508 45.7857C37.8485 45.5949 37.6852 45.1073 37.4143 45.1082C37.1434 45.1091 36.9265 45.0014 36.4659 44.9758Z" fill="#01203C"/>
<path d="M37.7974 47.3259C37.6622 47.4618 37.6082 47.5704 37.4458 47.6252C36.6075 48.3598 36.0136 49.5542 35.6088 50.5041C35.258 51.3454 35.07 52.4029 36.2335 51.8297C37.3158 51.2839 38.3405 48.4079 38.5281 47.0794C38.5549 46.8896 38.311 46.7008 38.1758 46.8368C38.095 47.1351 37.9326 47.1899 37.7974 47.3259Z" fill="#01203C"/>
<path d="M36.8147 42.7842C36.6791 42.6492 36.5707 42.5954 36.4352 42.4604C35.6489 41.7316 34.4568 41.1397 33.4546 40.8451C32.6419 40.5771 31.5045 40.4185 32.1832 41.6355C32.8074 42.69 35.7057 43.5197 37.0054 43.6235C37.195 43.6499 37.3842 43.4054 37.2214 43.1892C37.0858 43.0542 36.9503 42.9192 36.8147 42.7842Z" fill="#01203C"/>
<path d="M50.785 109.228C50.8912 107.928 50.9162 106.655 50.8602 105.409C50.8568 103.242 50.7178 100.941 50.5517 98.558C50.5228 97.3935 50.4668 96.1479 50.4379 94.9834C50.409 93.819 50.434 92.546 50.4863 91.3541C50.5598 86.4519 50.3626 81.5505 50.5181 77.1625C50.5695 75.4291 50.5937 73.6144 50.6723 71.9621C50.7509 70.3098 50.911 68.9009 50.9637 67.9799C51.0164 67.0589 50.9616 66.6257 50.8269 67.0324C50.6923 67.4391 50.3422 68.5507 49.9671 70.9353C49.6727 73.0217 49.38 76.1915 49.3316 79.8207C49.2293 83.5585 49.3712 87.7559 49.3508 92.008C49.2493 96.2875 49.7973 100.619 50.0738 104.41C50.3776 108.281 50.3287 111.64 49.7914 114.079C49.415 115.651 49.6856 115.65 50.1431 114.051C50.3572 112.533 50.6533 111.53 50.785 109.228Z" fill="#01203C"/>
<path d="M49.5595 127.148C49.6674 126.931 49.7754 126.714 49.8561 126.415C50.4761 124.761 50.3105 122.649 50.2269 121.051C50.1989 120.428 50.1165 119.643 50.0077 119.318C49.899 118.994 49.7095 118.967 49.3589 119.808C49.0084 120.649 49.0648 122.166 49.1484 123.763C49.232 125.361 49.1262 126.933 48.8028 127.855C48.7221 128.153 48.9387 128.261 49.1278 128.016C49.2085 127.718 49.3437 127.582 49.5595 127.148Z" fill="#01203C"/>
<path d="M57.8766 161.37C57.9284 159.907 58.0886 158.498 58.1404 157.036C58.5929 152.186 59.2607 146.632 59.6579 141.078C60.2174 135.47 59.6945 129.866 59.4702 124.883C59.3589 122.933 59.2744 120.794 59.3797 118.952C59.404 117.137 59.4826 115.485 59.5892 114.456C59.6958 113.426 59.695 112.884 59.5064 113.4C59.3717 113.806 58.9137 115.135 58.6474 117.844C58.3534 120.202 58.3049 123.831 58.5279 128.001C58.5853 130.059 58.697 132.28 58.7548 134.608C58.8125 136.937 58.6808 139.24 58.4952 141.651C58.1239 146.473 57.6714 151.323 57.4348 155.738C57.1982 160.153 57.2313 164.026 57.425 166.761C57.5902 168.602 57.7253 168.466 57.7224 166.57C57.6659 165.054 57.7181 163.862 57.8766 161.37Z" fill="#01203C"/>
<path d="M61.3598 155.045C61.4941 154.368 61.6284 153.69 61.7626 153.012C62.6484 148.378 62.8286 142.446 62.4425 137.789C62.2772 135.948 62.0032 133.782 61.7042 132.889C61.3779 131.916 61.2428 132.051 61.2738 134.57C61.3044 136.818 61.5278 141.259 61.3994 145.728C61.2983 150.279 60.8726 154.938 60.3623 157.459C60.2013 158.326 60.3908 158.353 60.7141 157.431C60.9295 156.726 61.1181 156.211 61.3598 155.045Z" fill="#01203C"/>
<path d="M61.9684 104.012C62.0487 103.443 62.1562 102.955 62.1554 102.413C62.6639 98.8095 62.4945 94.26 62.3806 90.6854C62.3513 89.2501 62.3488 87.625 62.2664 86.8399C62.184 86.0548 61.9406 86.1368 61.5918 88.061C61.2697 89.7954 61.1669 93.2625 61.2807 96.8372C61.3673 100.331 61.4 103.933 61.1867 105.992C61.1336 106.642 61.4042 106.641 61.5385 105.963C61.6999 105.367 61.8346 104.96 61.9684 104.012Z" fill="#01203C"/>
<path d="M78.1653 61.7153C78.3017 62.3924 78.4381 63.0695 78.4933 63.7739C78.6033 64.9118 78.4696 66.1319 77.7396 66.9204C76.9824 67.6278 75.71 67.8762 74.4644 67.9348C73.1916 67.9122 71.9184 67.6186 70.6992 67.2164C69.534 66.7055 68.4228 66.0861 67.4468 65.3307C65.9016 64.225 64.2476 62.7944 63.326 62.2014C62.4044 61.6085 62.4048 61.8795 64.1408 63.8247C64.9816 64.7161 66.202 65.9314 67.964 67.1447C68.8856 67.7377 69.8884 68.3033 71.0804 68.6243C72.2184 69.0539 73.5184 69.1577 74.764 69.0991C75.3868 69.0698 76.0636 68.9319 76.632 68.7402C76.9568 68.6306 77.2816 68.5211 77.5792 68.3303L78.0392 68.0848C78.1744 67.9488 78.3096 67.8128 78.3908 67.7854C78.6884 67.5946 78.8504 67.2688 79.0124 66.943C79.0932 66.6446 79.2552 66.3188 79.336 66.0204C79.4168 65.722 79.4976 65.4236 79.4701 65.0714C79.4697 64.8004 79.4693 64.5293 79.4417 64.1771C79.3317 63.0392 79.0053 62.0647 78.7061 61.1714C78.4069 60.2781 78.0809 59.5746 77.7549 58.8711C77.4018 58.0864 77.1582 58.1685 77.4573 59.0618C77.6753 59.9825 77.8657 60.551 78.1653 61.7153Z" fill="#014B6E"/>
<path d="M53.4742 13.1593C53.8253 12.5891 54.2037 12.1 54.5008 11.6383C55.1223 10.7961 55.7978 9.84536 56.5549 9.13817C56.9876 8.81149 57.4203 8.4848 57.8262 8.34788C58.2321 8.21096 58.6652 8.15523 59.0987 8.37046C60.0197 8.69234 60.6168 9.66567 61.1326 10.6664C61.6485 11.6671 62.0831 12.6952 62.4366 13.7507C62.9805 15.3745 63.6059 17.2419 64.0673 18.0802C64.5288 18.9186 64.664 18.7826 64.2545 16.4809C64.0906 15.4518 63.7635 13.9356 63.0841 12.1768C62.785 11.2837 62.3776 10.3368 61.8077 9.44467C61.2379 8.55253 60.4241 7.47158 59.1512 7.17805C58.5553 7.01759 57.8514 7.07428 57.2292 7.37455C56.6881 7.64743 56.1742 8.00151 55.8498 8.382C55.0388 9.19776 54.4985 10.0126 53.9582 10.8274C52.9859 12.5108 52.2301 14.0308 51.6901 15.1166C51.285 15.7954 51.5018 15.903 51.9881 15.1968C52.5556 14.4632 52.8799 14.0827 53.4742 13.1593Z" fill="#014B6E"/>
<path d="M50.3585 15.746C50.4937 15.61 50.6289 15.4741 50.7641 15.3381C51.2236 14.8216 51.6287 14.1428 51.8715 13.5187C52.1683 12.786 52.3299 12.1893 52.4915 11.5926C52.5991 11.1045 52.7878 10.589 52.7603 10.2368C52.7599 9.96582 52.5431 9.85821 51.9752 10.3209C51.4885 10.7562 51.0029 12.0043 50.6526 13.1166C50.3294 14.31 49.8706 15.3684 49.4655 16.0473C49.3575 16.2644 49.4931 16.3994 49.7094 16.2361C49.953 16.1539 50.0882 16.0179 50.3585 15.746Z" fill="#014B6E"/>
<path d="M63.192 66.4008C63.3004 66.4546 63.3548 66.617 63.4903 66.7519C64.0329 67.5627 64.9813 68.2366 65.7401 68.8841C66.3635 69.3967 67.3115 69.7997 66.9308 68.6632C66.7677 68.1762 66.09 67.5013 65.3583 66.935C64.6266 66.3687 63.6515 65.8845 63.0557 65.724C62.8662 65.6976 62.731 65.8335 62.8666 65.9685C62.921 66.1309 63.0565 66.2658 63.192 66.4008Z" fill="#014B6E"/>
<path d="M34.9692 57.2162C34.9428 57.6767 34.8353 58.1647 34.7549 58.7338C34.5938 59.6012 34.4327 60.4686 34.4072 61.471C34.3816 62.4733 34.3832 63.5568 34.7095 64.5309C34.8726 65.0179 35.1441 65.5587 35.3884 66.0183C35.5511 66.2344 35.7138 66.4506 35.8765 66.6667C36.1204 66.8555 36.2831 67.0716 36.527 67.2604C37.0147 67.6379 37.5293 67.8257 38.0166 67.9324C38.504 68.039 39.0453 68.0371 39.4783 67.9814C40.9667 67.8408 42.4003 67.2669 43.1308 67.0205C43.834 66.693 43.6984 66.5581 41.831 66.6459C41.398 66.7016 40.8839 66.7846 40.3426 66.7865C39.7201 66.8158 39.1248 66.9262 38.5291 66.7658C37.9606 66.6865 37.3377 66.4449 36.8768 65.8777C36.443 65.3916 36.0088 64.6346 35.7913 63.9853C35.3019 62.5243 35.4346 60.7631 35.5405 59.1916C35.6465 57.6201 35.6444 56.2657 35.3182 55.2917C35.1007 54.6423 34.9656 54.7782 34.9936 55.4012C35.1027 55.9967 35.0492 56.3761 34.9692 57.2162Z" fill="#014B6E"/>
<path d="M41.5439 71.1647C41.6251 71.1374 41.7335 71.1912 41.842 71.2451C42.5194 71.3783 43.3589 71.1857 43.9815 70.8853C44.4688 70.721 45.1454 70.312 44.3591 69.8538C43.6812 69.4494 41.7863 70.2692 41.1369 70.7595C40.9744 70.8142 41.0561 71.058 41.1645 71.1118C41.327 71.057 41.3542 71.1383 41.5439 71.1647Z" fill="#014B6E"/>
<path d="M29.5732 36.2874C29.4916 36.0438 29.5184 35.8541 29.4369 35.6106C29.3545 34.8252 29.1638 33.986 29.1898 33.2545C29.2434 32.875 29.3241 32.5767 29.4861 32.2511C29.648 31.9254 29.9183 31.6535 30.2158 31.4628C30.6213 31.055 31.2434 30.7548 31.5137 30.483C31.784 30.2111 31.7296 30.0487 30.7552 30.1064C30.5929 30.1611 30.2682 30.2706 30.0247 30.3528C29.7272 30.5434 29.4025 30.653 29.1322 30.9248C28.8619 31.1967 28.5377 31.5771 28.3217 32.0113C28.1058 32.4456 27.9983 32.9336 28.053 33.3669C28.0814 34.2608 28.3533 35.0726 28.6792 35.7758C29.005 36.479 29.2765 37.0199 29.4936 37.3984C29.6563 37.6146 29.8187 37.5598 29.8183 37.2889C29.6824 36.883 29.7091 36.6933 29.5732 36.2874Z" fill="#014B6E"/>
<path d="M86.4843 37.4342C86.7818 37.2436 87.1603 37.0256 87.4577 36.8349C87.7552 36.6443 87.9171 36.3187 88.1601 35.9657C88.322 35.6401 88.4567 35.2334 88.5103 34.854C88.5902 34.014 88.3455 33.2835 88.0468 32.6616C87.4223 31.3365 86.3653 30.338 85.3899 29.583C84.6311 28.9355 83.656 28.4514 83.0876 28.3721C82.7897 28.2919 82.7086 28.3192 82.763 28.4816C82.8173 28.6439 83.0612 28.8327 83.495 29.3187C83.9015 29.7236 84.5248 30.236 85.2024 30.9108C85.8801 31.5857 86.6121 32.4228 87.1006 33.342C87.3449 33.8016 87.508 34.2886 87.4817 34.7492C87.4553 35.2098 87.3478 35.6977 87.1047 36.0507C86.5647 36.8651 85.7264 37.3285 85.1044 37.6286C84.7258 37.8466 84.7802 38.009 85.2131 37.9533C85.5917 37.7353 85.9435 37.707 86.4843 37.4342Z" fill="#014B6E"/>
</svg>
