<svg width="82" height="133" viewBox="0 0 82 133" fill="none" xmlns="http://www.w3.org/2000/svg">
<path d="M27.627 125.222C31.86 125.947 35.9226 126.657 40.1403 127.555C44.5459 110.806 40.2687 93.1138 36.6122 76.1757C32.7852 59.2225 29.5774 41.1 35.4873 24.8343C33.0841 24.7964 30.7733 23.7173 29.0201 22.1629C22.9243 38.5869 26.3027 56.7246 29.4321 73.7909C32.2051 91.0004 34.8705 109.425 27.627 125.222Z" fill="#01203C"/>
<path d="M38.9047 129.154C42.7115 129.667 46.5183 130.179 50.3251 130.692C53.364 118.129 54.8547 105.252 54.7663 92.4118C54.7048 85.1989 54.2803 78.1297 54.9137 70.9784C55.5472 63.827 57.0647 56.5782 60.9219 50.5914C59.42 49.7552 57.9337 48.7446 56.2581 47.893C50.2385 62.4779 51.2495 78.7402 48.643 94.3305C46.7237 106.114 42.7196 117.713 38.9047 129.154Z" fill="#01203C"/>
<path d="M19.8159 110.353C20.9597 103.267 22.8021 96.0685 23.2629 88.9225C23.7392 81.6025 22.8493 74.1616 19.1041 67.8701C20.501 67.6433 21.8824 67.5903 23.2793 67.3635C29.1058 75.4169 29.1753 86.291 28.6233 96.4088C28.0713 106.527 27.3024 117.151 32.0273 125.983C30.104 128.267 26.4718 128.471 23.8475 127.012C21.2386 125.378 19.7775 122.444 19.3563 119.427C18.9351 116.41 19.3678 113.468 19.8159 110.353Z" fill="#01203C"/>
<path d="M50.3706 33.5878C50.4288 30.9666 48.3701 28.683 47.0017 26.4606C45.2079 23.15 45.0441 19.1083 44.677 15.3987C44.3253 11.5154 43.801 7.61686 41.0982 4.751C39.8254 3.41259 38.3493 2.40636 36.4511 2.23823C32.6392 2.0757 29.8848 5.68386 26.5786 7.66728C23.2724 9.65071 19.1 9.63135 15.353 10.7002C13.0327 11.3702 10.6355 12.9089 9.90237 15.2953C9.12308 18.2029 11.1356 21.0076 13.0371 23.1021C16.982 27.6539 21.1147 32.0471 26.0608 35.1117C30.9916 38.35 37.0808 40.2901 42.8986 39.4046C44.4825 39.1947 46.2696 38.6526 47.5699 37.7172C49.2153 36.8124 50.2321 35.1515 50.3706 33.5878Z" fill="#014B6E"/>
<path d="M71.0713 61.9274C72.8775 61.2196 74.7142 60.1674 76.0625 58.7248C77.4108 57.2822 77.955 55.0741 77.2578 53.1032C76.2451 50.7573 73.5535 49.6511 71.4113 48.2465C68.1191 46.0457 65.9717 42.7315 63.0713 40.0448C60.1709 37.3581 55.9679 35.5974 52.498 37.3727C50.6612 38.4249 49.4555 40.2273 48.092 41.8421C45.7262 44.9301 43.045 47.6431 39.8905 49.7935C37.8502 51.1748 35.4334 52.8699 35.3776 55.4683C35.3676 57.5501 37.3215 59.1116 39.1482 60.1412C48.7855 65.5073 60.9259 66.2355 71.0713 61.9274Z" fill="#014B6E"/>
<path d="M34.3607 67.7529C31.6401 66.644 29.1552 64.8616 26.4499 63.5805C23.7445 62.2994 20.4384 61.833 17.8385 63.3385C15.6035 64.7028 14.5007 67.2089 12.5695 69.1208C11.0185 70.7193 9.16363 71.7701 7.64313 73.0241C5.93257 74.4349 4.54112 76.2211 4.70767 78.3188C4.68416 80.5733 6.27971 82.4505 8.11106 83.6542C12.0929 86.4371 17.1013 87.575 21.8973 87.1319C26.6782 86.861 31.4062 85.1968 35.9747 83.3448C38.1792 82.325 40.5585 81.3206 42.1248 79.5499C43.691 77.7792 44.6343 75.0854 43.7685 72.9257C43.047 71.126 41.3752 70.11 39.6882 69.2662C37.9706 68.767 36.063 68.4244 34.3607 67.7529Z" fill="#014B6E"/>
<path d="M50.6027 60.224C45.6886 59.7888 41.0311 58.4543 36.6462 56.0376L37.4941 54.4532C48.4643 60.4034 62.3156 59.7863 72.9837 53.1712L73.9071 54.7281C66.9759 59.0927 58.6759 60.9391 50.6027 60.224Z" fill="#01203C"/>
<path d="M41.5066 33.5715C29.9615 32.5489 18.9174 25.8711 13.0899 16.0282L14.5804 15.1239C21.0165 26.057 34.5096 32.9518 47.4764 31.855L47.6745 33.5997C45.72 33.772 43.6057 33.7574 41.5066 33.5715Z" fill="#01203C"/>
<path d="M13.4681 80.5074C11.4117 80.3253 9.35518 80.1432 7.31392 79.7893L7.46604 78.0719C13.2775 78.7597 18.5748 79.402 23.9786 78.8421C28.1676 78.3476 34.1615 76.9746 38.6852 72.7018L39.9497 74.0255C35.2243 78.6265 28.8723 80.141 24.3254 80.7768C20.6809 80.9732 17.2383 80.8414 13.4681 80.5074Z" fill="#01203C"/>
</svg>
