<svg width="64" height="78" viewBox="0 0 64 78" fill="none" xmlns="http://www.w3.org/2000/svg">
<path d="M45.2629 0.189194C45.3467 0.189194 45.4304 0.189189 45.4304 0.105701C45.5142 0.105701 45.5142 0.0222076 45.5979 0.0222076C45.8491 -0.0612804 46.1003 0.105685 46.1841 0.272661C46.3516 0.439637 46.4353 0.606619 46.6028 0.773595C46.854 1.10755 47.1052 1.52498 47.3565 1.94242C47.7752 2.69381 48.1939 3.44522 48.5288 4.19661C49.115 5.44893 49.6175 6.70125 50.0362 7.95357C50.4549 9.28938 50.7898 10.6252 51.0411 11.961C51.2085 13.2968 51.376 14.7161 51.2923 16.0519C51.2923 16.7198 51.2085 17.4712 51.1248 18.1391C51.0411 18.807 50.8736 19.4749 50.7061 20.0593C50.3711 21.3117 49.9524 22.4805 49.45 23.6493C48.9475 24.8181 48.2776 25.9035 47.6077 26.9888C47.6077 27.0723 47.524 27.0723 47.524 27.1558C47.3565 27.3228 47.189 27.4898 46.9378 27.4898C46.7703 28.2411 46.6028 28.9091 46.3516 29.6605C46.1004 30.4953 45.8491 31.2467 45.5979 32.0816C45.3467 32.9165 45.0954 33.7514 44.7605 34.5027C44.4255 35.3376 44.0906 36.089 43.7556 36.9239C43.0857 38.5102 42.2483 40.0964 41.4946 41.5992C41.0759 42.3506 40.6572 43.1855 40.2385 43.9369C40.406 43.8534 40.4897 43.7699 40.6572 43.7699C41.7458 43.1855 42.8344 42.6011 43.9231 42.0167C44.8442 41.4323 45.8491 40.8479 46.7703 40.2634C46.7703 40.0965 46.7703 39.9295 46.7703 39.846C47.0215 39.2616 47.2727 38.6772 47.524 38.1762C47.9427 37.0909 48.4451 36.0055 49.0313 35.0037C49.6175 33.9183 50.3711 33 51.1248 31.9981C51.9622 31.0797 52.7996 30.1614 53.8045 29.3265C54.8094 28.4916 55.898 27.6567 56.9867 26.9054C58.0753 26.2375 59.2477 25.5695 60.4201 25.0686C60.9225 24.8181 61.5087 24.5677 62.0949 24.4007C62.3461 24.3172 62.6811 24.2337 62.9323 24.1502C63.1835 24.0667 63.5185 24.1503 63.686 24.4007C63.686 24.4007 63.686 24.4007 63.686 24.4842C63.8534 24.5677 63.9372 24.6512 63.9372 24.8182C64.0209 24.9851 64.0209 25.1521 63.9372 25.3191C63.7697 25.82 63.5185 26.4044 63.351 26.9054C63.1835 27.4063 62.9323 27.9907 62.7648 28.4916C62.3461 29.577 61.8437 30.6623 61.425 31.7477C60.9225 32.833 60.4201 33.9183 59.8339 35.0037C59.4989 35.5046 59.1639 36.0056 58.7452 36.5065C58.3265 37.0074 57.9078 37.4248 57.4891 37.8423C57.0704 38.2597 56.568 38.5937 56.0655 39.0111C55.5631 39.3451 55.0606 39.7625 54.4744 40.013C53.8883 40.2634 53.3858 40.5139 52.7996 40.6809C52.2134 40.8479 51.5435 41.0148 50.9573 41.0983C50.3712 41.1818 49.785 41.1818 49.1988 41.1818C48.9475 41.1818 48.6126 41.1818 48.3614 41.0983C48.2776 41.0983 48.1101 41.0983 48.0264 41.0148C47.9427 41.0983 47.8589 41.0983 47.7752 41.1818C46.7703 41.8497 45.7654 42.5176 44.6768 43.102C43.5881 43.6864 42.4995 44.3544 41.4108 44.8553C40.8247 45.1057 40.3222 45.3562 39.736 45.6067C39.5685 45.6902 39.4011 45.7736 39.2336 45.8571C39.2336 45.9406 39.1498 45.9406 39.1498 46.0241C38.2287 47.5269 37.3075 48.9462 36.3864 50.3655C35.8839 51.1169 35.3815 51.7848 34.8791 52.5362C34.3766 53.2041 33.8742 53.872 33.288 54.5399C32.7018 55.2078 32.1156 55.9592 31.5294 56.6271C30.9432 57.295 30.357 57.9629 29.7708 58.5473C28.5985 59.7996 27.4261 61.0519 26.17 62.2208C25.835 62.5547 25.5001 62.8052 25.1651 63.1391C25.6675 63.2226 26.17 63.2226 26.7562 63.3061C27.5098 63.3061 28.2635 63.3061 29.0172 63.3061C29.4359 63.3061 29.8546 63.2226 30.1896 63.2226C30.1896 63.1392 30.2733 63.0556 30.357 62.9722C30.5245 62.8052 30.7757 62.6382 31.027 62.4712C31.1944 62.3877 31.3619 62.2208 31.5294 62.1373C31.6969 61.9703 31.9481 61.8868 32.1156 61.7198C32.6181 61.3859 33.0367 61.052 33.5392 60.718C34.0416 60.384 34.6278 59.9666 35.1303 59.6326C36.2189 58.9647 37.3076 58.3803 38.3962 57.7959C39.5686 57.2115 40.7409 56.7106 41.9133 56.2096C42.4995 55.9592 43.1694 55.7922 43.7556 55.6252C44.3418 55.4582 44.928 55.3747 45.5142 55.3747C46.854 55.2078 48.1939 55.2078 49.5337 55.2913C50.1199 55.3748 50.7061 55.3748 51.2923 55.5417C51.4598 55.6252 51.6273 55.6252 51.7947 55.7087C52.046 55.7922 52.2134 55.8757 52.2972 56.1262C52.3809 56.3766 52.2134 56.6271 51.9622 56.7941C51.9622 56.7941 51.9622 56.7941 51.8785 56.7941C51.8785 56.961 51.7947 57.0445 51.711 57.128C51.1248 57.7124 50.5386 58.2133 49.9524 58.7978C49.3662 59.3822 48.7801 59.8831 48.1101 60.4675C47.189 61.3024 46.2678 62.1373 45.3467 62.8887C44.4255 63.6401 43.4206 64.3915 42.4157 65.0594C41.3271 65.7273 40.2385 66.3117 39.0661 66.6456C38.4799 66.8126 37.8937 66.9796 37.2238 67.0631C36.6376 67.1466 36.0514 67.1466 35.3815 67.0631C34.7953 66.9796 34.2091 66.8961 33.7067 66.7291C33.1205 66.5621 32.4506 66.3952 31.9481 66.0612C31.6132 65.8942 31.2782 65.6438 30.9432 65.3933C30.7757 65.3098 30.6083 65.1428 30.4408 64.9759C30.2733 64.8089 30.0221 64.5584 29.8546 64.3915L29.7708 64.308C29.2684 64.3915 28.8497 64.3915 28.3473 64.3915C27.7611 64.3915 27.1749 64.3915 26.5887 64.3915C26.0025 64.3915 25.4163 64.308 24.8301 64.2245C24.5789 64.141 24.2439 64.141 23.9927 64.0575C23.909 64.0575 23.909 64.0575 23.8252 63.974C23.239 64.5584 22.6529 65.0594 21.9829 65.5603C20.6431 66.6456 19.3032 67.6475 17.8796 68.5659C17.126 69.0668 16.3723 69.4842 15.6186 69.9851C14.865 70.4026 14.1113 70.82 13.3576 71.2375C11.8503 71.9889 10.2592 72.8238 8.66813 73.4917C8.08194 73.7421 7.49575 73.9926 6.90956 74.243L6.99331 74.3265C7.32827 74.577 7.74697 74.744 8.08193 74.9944C8.66812 75.2449 9.17057 75.4954 9.75675 75.6623C10.6779 75.9963 11.599 76.1633 12.6039 76.4137C13.9438 76.6642 15.3674 76.8312 16.7072 76.9147C17.0422 76.9147 17.2097 77.2486 17.2097 77.4991C17.2097 77.7495 16.9585 78 16.7072 78C15.7024 77.9165 14.6137 77.833 13.6088 77.7495C12.604 77.5826 11.5991 77.4156 10.6779 77.1651C10.0917 76.9981 9.58928 76.9146 9.00309 76.6642C8.4169 76.4972 7.91446 76.2468 7.41201 75.9963C6.90957 75.7458 6.49085 75.4954 5.98841 75.1614C5.90467 75.0779 5.82092 75.0779 5.82092 74.9944C5.73717 74.9944 5.73719 74.911 5.65345 74.911C5.06726 75.0779 4.56482 75.3284 3.97863 75.4954C3.22496 75.7458 2.47128 75.9963 1.63387 76.2467C1.38264 76.3302 1.21517 76.4137 0.963947 76.4137C0.712723 76.4972 0.461506 76.4137 0.210285 76.2467C-0.29216 75.8293 0.210285 75.1614 0.62899 74.911C0.880211 74.744 1.13142 74.744 1.29891 74.6605C1.46639 74.577 1.63388 74.577 1.80136 74.4935C2.22006 74.41 2.55502 74.3265 2.97373 74.1595C3.72739 73.9091 4.56482 73.6586 5.31849 73.4082C6.32338 73.0742 7.24453 72.6568 8.24942 72.2393C8.24942 72.1558 8.24942 72.0724 8.24942 71.9889C8.33317 71.5714 8.4169 71.154 8.50064 70.7366C8.75186 69.9017 9.00309 69.1503 9.33805 68.3154C9.75675 67.3135 10.1755 66.3117 10.7617 65.3098C11.0129 64.8089 11.2641 64.3915 11.5991 63.8905C11.934 63.3896 12.269 62.9722 12.6039 62.5547C12.7714 62.3043 13.1901 62.2208 13.4413 62.4712C13.6926 62.6382 13.7763 63.0556 13.5251 63.3061C13.1901 63.7235 12.8552 64.2245 12.5202 64.6419C12.0177 65.3933 11.5991 66.2282 11.1804 66.9796C10.6779 67.9815 10.3429 68.9833 10.008 69.9851C9.84048 70.5696 9.67302 71.0705 9.50554 71.6549C10.5942 71.154 11.599 70.7365 12.6039 70.1521C14.7812 68.9833 16.8747 67.731 18.8845 66.3117C20.4756 65.2263 21.8992 63.974 23.3228 62.7217C24.4114 61.7198 25.5838 60.6345 26.5887 59.6326C27.6773 58.5473 28.6822 57.5454 29.6871 56.3766C30.357 55.6252 30.9432 54.8738 31.6132 54.1224C31.5294 53.9554 31.5294 53.705 31.5294 53.538C31.4457 53.1206 31.4457 52.7032 31.3619 52.3692C31.2782 51.5343 31.1945 50.7829 31.1107 49.948C31.1107 49.5306 31.027 49.1131 31.027 48.6957C30.9432 48.6122 30.8595 48.5287 30.7757 48.3618C30.7757 48.2783 30.692 48.1948 30.692 48.1948C30.4408 47.4434 30.1058 46.7755 29.8546 46.0241C29.5196 45.1892 29.1847 44.2709 29.0172 43.436C28.9334 42.7681 28.8497 42.1837 28.8497 41.5158C28.8497 40.8479 28.8497 40.2634 29.0172 39.5955C29.1009 39.2616 29.1009 38.9276 29.1847 38.5102C29.2684 38.1762 29.3521 37.8423 29.4359 37.5918C29.6034 37.0074 29.8546 36.3395 30.1058 35.7551C30.6082 34.6697 31.1944 33.5844 31.8644 32.499C32.1993 31.9981 32.4506 31.4972 32.7855 30.9963C32.8693 30.8293 33.0367 30.5788 33.1205 30.4118C33.2042 30.2449 33.288 30.1614 33.3717 30.0779C33.3717 30.0779 33.3717 30.0779 33.4554 30.0779C33.6229 29.9944 33.8742 29.9944 34.0416 30.1614C34.0416 30.1614 34.0416 30.1614 34.1254 30.2449C34.2091 30.3284 34.2929 30.4953 34.2929 30.6623C34.5441 30.7458 34.7953 30.9128 34.8791 31.1632C35.1303 31.7476 35.1303 32.4156 35.2978 33C35.3815 33.5844 35.4652 34.1688 35.549 34.7532C35.7165 36.0055 35.9677 37.3413 36.0514 38.6771C36.1352 40.013 35.9677 41.4323 35.6327 42.7681C35.4652 43.436 35.214 44.1039 34.9628 44.7718C34.7116 45.4397 34.3766 46.0241 33.9579 46.692C33.6229 47.2764 33.2042 47.8608 32.8693 48.5287C32.7018 48.7792 32.6181 49.0297 32.4506 49.2801C32.3668 49.4471 32.2831 49.5306 32.1993 49.6976C32.1993 50.0315 32.1993 50.3655 32.2831 50.6994C32.3668 51.4508 32.3668 52.1187 32.4506 52.7866C32.4506 52.9536 32.4506 53.1206 32.5343 53.2875C33.3717 52.1187 34.2091 50.9499 35.0465 49.7811C35.1303 49.6141 35.2978 49.4471 35.3815 49.2801C36.3027 47.7774 37.2238 46.3581 38.1449 44.8553C38.9824 43.436 39.736 42.0167 40.4897 40.5974C41.0759 39.4286 41.6621 38.2597 42.1645 37.0074C42.7507 35.7551 43.1694 34.5027 43.6719 33.2504C44.3418 31.4137 44.8442 29.577 45.2629 27.6567C45.3467 27.3228 45.4304 26.9888 45.5142 26.6549C45.4304 25.653 45.2629 24.5677 45.0117 23.5658C44.7605 22.4805 44.5093 21.4786 44.2581 20.4768C44.0068 19.4749 43.6718 18.473 43.5044 17.3877C43.2531 15.9684 43.0019 14.5491 42.9182 13.1298C42.8345 11.7105 42.7507 10.2077 42.8344 8.78845C42.8344 8.03706 42.9182 7.28565 43.0019 6.53426C43.0857 5.78287 43.2532 5.11497 43.4206 4.44706C43.5044 4.11311 43.5881 3.77917 43.6719 3.44522C43.7556 3.11127 43.8393 2.77731 43.9231 2.44335C44.0068 2.1094 44.0906 1.77545 44.2581 1.52498C44.8442 0.606613 44.928 0.35617 45.2629 0.189194ZM52.4647 32.499C52.3809 32.5825 52.3809 32.5825 52.2972 32.666C52.2972 32.5825 52.3809 32.499 52.4647 32.499ZM50.7061 34.7532C50.6224 34.9202 50.5386 35.0872 50.4549 35.1707C50.4549 35.0037 50.5386 34.8367 50.7061 34.7532ZM35.1303 38.4267C35.1303 38.2597 35.1303 38.0092 35.0465 37.8423C35.0465 38.0927 35.1303 38.2597 35.1303 38.4267ZM44.7605 12.7124C44.7605 12.8794 44.7605 12.9629 44.7605 13.1298C44.8442 13.0463 44.8442 12.8794 44.7605 12.7124Z" fill="#014B6E"/>
</svg>
