<svg width="100" height="92" viewBox="0 0 100 92" fill="none" xmlns="http://www.w3.org/2000/svg">
<path d="M48.611 24.692C47.4315 24.2746 46.0617 24.3505 44.9963 23.6673C44.2734 23.2119 44.8821 21.9594 44.9963 21.2763C45.1104 20.707 45.0724 20.0997 45.0343 19.5304C44.8441 17.2912 42.1045 15.5454 40.0498 15.3935C37.3103 15.2038 34.837 17.1014 32.0975 16.7599C28.9774 16.3803 31.0321 12.7368 31.6409 11.0669C32.2116 9.51083 32.7063 7.80294 32.4019 6.13301C32.0594 4.38717 30.3091 3.40039 28.6349 3.51425C26.5422 3.62811 24.7158 5.60167 23.3841 7.00593C21.4436 9.01744 19.8455 11.3326 18.5518 13.7995C18.2854 14.2929 18.8562 14.3309 19.0845 13.9513C20.4923 11.4844 22.2045 9.20721 24.2592 7.23365C25.9334 5.60167 28.1783 3.85583 30.3852 5.56372C31.8311 6.66435 31.1843 8.97949 30.7277 10.3838C30.233 11.9778 29.3198 13.4579 29.0915 15.1279C28.7871 17.2532 30.6135 18.278 32.478 18.2021C35.2556 18.0882 37.5766 16.1906 40.3923 16.7219C41.686 16.9496 42.8655 17.7466 43.7026 18.7714C44.6919 20.0238 44.2353 21.5419 43.969 22.9462C43.5504 25.0716 47.1651 25.0716 48.4208 25.1095C48.573 25.1475 48.8393 24.7679 48.611 24.692Z" fill="#01203C"/>
<path d="M96.5922 32.321C95.6029 31.9414 94.6516 31.5619 93.7765 30.9546C92.5589 30.1197 92.3686 28.9052 92.2545 27.5009C92.1784 26.4003 92.1784 25.2617 91.7218 24.199C91.3413 23.2881 90.0476 23.4399 89.2866 23.5918C88.069 23.7815 86.8514 24.3888 85.71 24.8063C85.0251 25.034 84.3021 25.1478 83.5792 25.3376C82.7421 25.5274 81.7528 25.831 80.8776 25.7551C79.5459 25.6412 78.7469 23.8954 78.2142 22.8707C77.6054 21.6562 77.1107 20.4037 76.578 19.1892C75.7029 17.1777 74.7516 14.8626 72.6589 13.9137C71.5935 13.4204 70.7564 12.927 69.5388 12.8131C68.5496 12.7372 67.5983 12.889 66.6851 13.2306C64.6685 13.9137 63.1845 15.7355 62.2714 17.5952C61.7767 18.6579 61.5104 19.7585 61.0918 20.8591C60.6352 21.9598 60.3308 23.0604 60.445 24.2749C60.483 24.8822 61.4343 24.1231 61.3962 23.7056C61.3201 22.3393 61.9289 21.3146 62.3094 20.0621C62.6519 18.9235 63.0704 17.8609 63.6792 16.8361C64.9729 14.7487 67.37 13.7999 69.7291 14.3312C74.7516 15.4319 75.2843 21.2766 77.6054 24.9581C78.7469 26.7798 80.0025 27.2353 82.0572 26.7039C83.3509 26.4003 84.6446 26.0587 85.9002 25.6033C87.1558 25.1099 88.4115 24.4267 89.7813 24.2749C92.1784 23.9713 91.4174 28.6775 92.0262 30.1576C92.7111 31.7517 94.6897 32.5107 96.2878 32.7384C96.5541 32.7384 96.8205 32.3969 96.5922 32.321Z" fill="#01203C"/>
<path d="M77.4915 23.7813C76.5783 24.4645 75.4748 24.882 74.4475 25.2994C72.9255 25.8687 71.8982 25.2994 70.5664 24.6163C68.6259 23.6295 66.6473 22.7945 64.5926 22.1114C63.7175 21.8078 62.8043 21.4282 61.8911 21.3144C61.0921 21.2385 60.1028 21.618 59.3798 21.8457C58.6569 22.0734 57.972 22.3771 57.3252 22.7566C58.1242 20.2896 58.5047 17.8986 58.2384 15.3178C57.934 12.7749 57.2491 10.27 56.6783 7.76514C56.1837 5.60182 55.4607 3.32464 53.9768 1.61675C53.7865 0.402253 51.6177 0.667924 50.6665 0.705877C49.7152 0.74383 48.5737 1.23722 47.6986 1.5788C47.4322 1.69266 47.1659 1.80652 46.9376 1.92037C46.1005 2.224 45.2634 2.60353 44.5405 3.05897C42.9804 4.0837 42.5238 6.47474 41.9911 8.10672C41.6487 9.20736 41.3443 10.308 41.1541 11.4466C41.0399 12.0538 40.8116 13.3822 41.3062 13.9135C41.4584 14.1033 41.6487 14.1412 41.877 14.1792C42.8282 15.0142 44.0839 15.6214 45.1493 16.2666C46.481 17.0636 47.7366 17.9745 48.6118 19.2649C49.3728 20.3655 49.7533 21.5421 49.9055 22.7566C49.1064 21.5041 47.8127 20.5174 46.481 19.9101C44.959 19.189 43.7414 19.3029 42.2575 20.024C40.4692 20.9348 38.6808 21.9975 36.9686 23.0602C36.1315 23.5916 34.4573 24.6542 33.5061 23.8952C32.707 23.2879 32.0221 21.6939 31.908 20.7451C31.8699 20.5553 31.6416 20.783 31.6036 20.8589C31.0328 22.6048 31.7177 24.2368 32.4407 25.8308C33.2397 27.6146 34.5715 28.7532 36.512 28.905C38.4906 29.0947 40.6594 28.108 42.3716 27.273C44.3122 26.3621 47.6986 23.7813 49.7913 25.7169H49.8294C49.6772 26.7796 49.4108 27.8423 49.1064 28.867C48.9542 29.2465 48.9162 29.664 49.0684 30.0815C49.2967 30.6508 50.8187 30.7647 51.3133 30.8026C52.2646 30.8785 53.1777 30.5749 53.9387 30.0815C54.4334 29.7779 54.5856 29.1706 54.7758 28.6014C54.928 28.3736 55.0422 28.1459 55.1944 27.9182C55.7651 27.4628 56.412 27.1212 57.173 26.8935C58.6569 26.476 60.0267 26.8176 61.4726 27.1591C63.6034 27.6905 65.8102 28.0321 68.0171 28.1839C70.1859 28.3357 72.6972 28.6393 74.79 27.8802C76.2739 27.3489 77.0729 25.1476 77.8339 23.9331C77.8339 23.7434 77.6437 23.6295 77.4915 23.7813Z" fill="#01203C"/>
<path d="M42.2195 8.06882C42.7903 6.32298 43.2468 4.0458 44.921 3.05902C44.921 3.05902 44.921 3.05902 44.9591 3.05902C44.883 3.09697 44.8449 3.13493 44.7688 3.21083C44.6547 3.28674 44.6166 3.51446 44.8069 3.43855C45.4537 3.05902 46.1006 2.64154 46.7474 2.29996C46.8616 2.26201 46.9377 2.1861 47.0518 2.14815C48.2694 1.69271 49.5631 1.38909 50.7426 1.23728C50.7807 1.23728 50.8568 1.08546 50.7807 1.12342C50.4002 1.16137 49.9816 1.19932 49.5631 1.27523C50.3621 1.04751 51.0851 1.08546 51.9222 1.12342C52.4549 1.12342 53.0637 1.16137 53.4442 1.61681C53.7486 2.03429 53.4442 2.7554 53.292 3.17288C52.7212 4.76691 51.5797 6.32298 50.4763 7.61338C49.2587 9.0556 47.8889 10.308 46.3669 11.4087C45.1113 12.3575 43.6654 13.3063 42.1815 13.8377C40.4312 14.407 42.0293 8.75197 42.2195 8.06882Z" fill="#014B6E"/>
<path d="M75.6269 26.704C74.6757 27.9944 72.7351 27.8426 71.2892 27.8426C68.9301 27.8046 66.5711 27.5769 64.25 27.2353C62.0051 26.9317 58.5426 25.7552 56.1835 26.742C55.6128 27.1594 54.8518 27.5769 54.5474 28.2601C54.5093 28.336 54.5093 28.4119 54.4713 28.4498L54.5093 28.4119C54.4713 28.4878 54.4713 28.5257 54.4332 28.6017C54.4332 28.6396 54.3952 28.6396 54.3952 28.6776C54.3191 28.9812 54.2049 29.2848 54.0147 29.5505C53.9005 29.7023 53.7864 29.8541 53.5961 29.968C53.0254 30.3095 52.3405 30.3854 51.6936 30.3854C51.1229 30.3854 50.5902 30.2716 50.0195 30.1198C48.9921 29.8161 49.2965 28.6776 49.5248 27.9564C49.5248 27.9185 49.5248 27.9185 49.5248 27.8805C49.7151 27.1594 49.9053 26.4383 49.9814 25.7172C49.9434 25.6793 49.9053 25.6034 49.8673 25.5654C49.8292 25.4895 49.7912 25.4516 49.7531 25.3756V25.4136C48.8019 24.4268 47.0135 24.7304 45.872 25.1479C43.9315 25.869 42.1812 27.0835 40.2026 27.8046C38.1099 28.5637 35.6367 29.0571 33.8484 27.4251C33.1254 26.7799 32.6308 25.7172 32.2883 24.8443C31.8317 23.7816 31.4512 22.7569 31.5654 21.6562C31.8317 22.7189 32.4786 24.1611 33.3157 24.4648C34.7235 24.9961 36.4357 23.6678 37.5772 22.9846C38.4143 22.4533 39.3275 21.9978 40.1646 21.5044C41.3061 20.8213 42.5237 19.9863 43.8554 19.7966C45.796 19.4929 48.4214 21.4665 49.5629 23.0605C49.7531 23.2123 49.9053 23.4021 50.0956 23.5919C50.0575 22.3014 49.7912 21.049 49.1824 19.7966C48.4975 18.3923 47.356 17.4055 46.0623 16.5326C44.8067 15.6976 43.3227 15.0904 42.0671 14.1795C42.3715 14.1036 42.6759 13.9138 42.9422 13.8C43.9696 13.3066 44.9208 12.6614 45.834 12.0162C47.6223 10.8017 49.1443 9.32152 50.5522 7.68954C51.8839 6.17141 53.2537 4.27376 53.7864 2.30021C53.8244 2.18635 53.8244 2.11044 53.8244 1.99658C55.0801 3.74242 55.6889 5.98165 56.1835 7.99316C56.7162 10.2703 57.325 12.5475 57.6674 14.8627C58.086 17.5573 57.7055 20.3279 56.9065 22.9467C56.1455 23.4021 55.3845 23.9334 54.6996 24.5027L54.6615 24.5407C55.7269 23.8196 56.9065 23.0605 58.1621 22.681C59.1133 22.3015 60.1026 21.9978 61.13 21.8081C62.1193 21.6183 63.2988 22.2635 64.212 22.5671C65.3915 22.9467 66.5711 23.44 67.7126 23.9334C69.3487 24.6545 71.2131 26.0588 73.0395 26.0968C73.8386 26.0968 74.7137 25.6034 75.3986 25.2997C75.9693 25.072 76.502 24.8064 76.9967 24.5027C76.6162 25.2238 76.1596 25.9829 75.6269 26.704Z" fill="#014B6E"/>
<path d="M77.4915 23.7813C76.5783 24.4645 75.4748 24.8819 74.4475 25.2994C74.2192 25.3753 74.029 25.4512 73.8387 25.4892C72.3548 26.2103 70.7186 26.5898 69.0445 26.5139C66.4571 26.438 64.0599 25.2994 61.5487 25.0338C60.1789 24.8819 58.733 24.9199 57.4013 25.2994C56.7544 25.4892 56.1076 25.7169 55.5368 26.0585C55.1183 26.3242 54.6997 26.5519 54.2051 26.6278C54.0909 26.6278 54.0148 26.5139 54.0909 26.438C55.3466 24.806 56.9827 23.4018 58.8852 22.5289C59.8745 22.0734 60.9399 21.58 62.0433 21.3144C62.0053 21.3144 62.0053 21.3144 61.9672 21.3144C61.1682 21.2385 60.1789 21.618 59.4559 21.8457C58.733 22.0734 58.0481 22.3771 57.4013 22.7566C58.2003 20.2896 58.5808 17.8986 58.3145 15.3178C58.0101 12.7749 57.3252 10.27 56.7544 7.76514C56.2598 5.60182 55.5368 3.32464 54.0529 1.61675C53.8626 0.402253 51.6938 0.667924 50.7426 0.705877C49.7913 0.74383 48.6498 1.23722 47.7747 1.5788C47.5083 1.69266 47.242 1.80651 47.0137 1.92037C46.1766 2.224 45.3395 2.60353 44.6166 3.05896C44.3122 3.24873 44.0458 3.5144 43.8175 3.81803C44.4263 3.4385 45.1112 3.13487 45.7961 2.83125C47.0898 2.2999 48.7259 1.69266 50.1718 1.95833C51.6938 2.224 51.3514 3.59031 50.8567 4.65299C49.6011 7.49947 47.3561 10.1941 44.959 12.1677C44.0458 12.9267 42.9424 13.6858 41.7248 13.8376C41.6487 13.8376 41.6106 13.8376 41.5345 13.8376C43.4751 13.9515 45.3395 13.3063 46.9376 12.0918C47.8888 11.3707 48.7259 10.5737 49.4869 9.70074C49.8294 9.32121 50.1718 8.90373 50.5143 8.48625C50.7806 8.14467 51.047 7.68923 51.4275 7.42356C51.8841 7.11994 52.2265 7.3097 52.4168 7.80309C52.7592 8.71396 52.8733 9.70074 53.0636 10.6496C53.5582 13.1924 53.8626 15.7732 53.5202 18.354C53.5202 18.4299 53.368 18.4679 53.3299 18.392C52.6451 17.6329 52.3407 16.6461 51.9221 15.7353C51.846 15.5835 51.7699 15.3937 51.6558 15.2419C52.1504 16.6082 52.4168 18.0884 52.1885 19.4167C52.1885 19.4926 52.0363 19.5306 51.9982 19.4547C51.2753 18.5817 50.7045 17.6329 49.9816 16.798C49.6391 16.3805 49.2206 16.0389 48.802 15.6973C49.2967 16.3805 49.7533 17.1016 50.0957 17.8227C50.6284 18.8854 51.085 20.0999 50.8948 21.3144C50.8948 21.3903 50.7426 21.4282 50.7045 21.3523C50.0957 20.6312 49.4108 19.986 48.7259 19.3029C49.4108 20.3655 49.7533 21.5041 49.9055 22.6427C49.3347 21.7698 48.5357 21.0487 47.6605 20.4414C48.3454 21.3144 48.9162 22.3011 49.1825 23.4018C49.2206 23.5156 49.0684 23.6295 48.9923 23.5156C48.2313 22.6427 47.3181 21.8457 46.1386 21.6559C45.1493 21.5041 44.1219 21.6939 43.2087 22.1114C42.2194 22.5668 41.3443 23.212 40.5072 23.9331C39.7462 24.6163 38.9472 25.3374 37.9959 25.7549C36.1695 26.5519 34.1149 26.0964 32.9734 24.4265C32.4407 23.6295 32.1363 22.7186 32.1363 21.7698C32.1363 21.7319 32.1363 21.6559 32.1363 21.58C32.0221 21.2385 31.946 20.9348 31.908 20.6692C31.8699 20.4794 31.6416 20.7071 31.6036 20.783C31.0328 22.5289 31.7177 24.1608 32.4407 25.7549C33.2397 27.5387 34.5715 28.6773 36.512 28.8291C38.4906 29.0188 40.6594 28.032 42.3716 27.1971C44.3122 26.2862 47.6986 23.7054 49.7913 25.641H49.8294C49.7913 25.8687 49.7533 26.0585 49.7152 26.2862C50.0577 25.9446 50.4382 25.641 50.8567 25.4512C50.9328 25.4133 51.047 25.4512 51.047 25.5651C51.2372 27.1591 50.5904 29.3604 51.846 30.6508C51.846 30.6508 51.8841 30.6888 51.8841 30.7267C52.607 30.6888 53.3299 30.4231 53.9387 30.0056C54.4334 29.702 54.5856 29.0947 54.7758 28.5254C54.928 28.2977 55.0422 28.07 55.1944 27.8423C55.7651 27.3868 56.412 27.0453 57.173 26.8176C58.6569 26.4001 60.0267 26.7416 61.4726 27.0832C63.6034 27.6146 65.8102 27.9561 68.0171 28.108C70.1859 28.2598 72.6972 28.5634 74.79 27.8043C76.2739 27.273 77.0729 25.0717 77.8339 23.8572C77.8339 23.7434 77.6437 23.6295 77.4915 23.7813Z" fill="#01203C"/>
<path opacity="0.4" d="M52.1126 2.18596C52.0365 4.23542 51.3136 6.13307 50.4004 7.95482C51.3516 6.70237 51.9985 5.18425 53.1019 4.04566C53.178 3.96975 53.2541 4.0077 53.2922 4.08361C55.499 6.96804 56.3361 10.7254 56.4503 14.293C56.5644 17.8606 56.0317 21.504 54.738 24.8439C55.7273 24.2746 56.6786 23.5156 57.4396 22.6426C57.3635 22.6806 57.3254 22.7185 57.2493 22.7185C58.0484 20.2516 58.4289 17.8606 58.1625 15.2797C57.8581 12.7369 57.1732 10.232 56.6025 7.7271C56.1078 5.56378 55.3849 3.28659 53.901 1.57871C53.7488 0.743742 52.7214 0.629883 51.7702 0.629883C52.0746 1.04737 52.1507 1.65461 52.1126 2.18596Z" fill="#01203C"/>
<path opacity="0.4" d="M49.9439 26.0582C49.5254 25.3751 48.8024 24.8437 48.1175 24.5022C47.0902 23.9708 46.0629 23.8949 44.9214 24.1606C43.9321 24.3883 42.9428 24.7678 42.0676 25.2992C41.3066 25.7546 40.6598 26.2859 39.9369 26.7414C38.529 27.6902 37.007 28.1836 35.2948 27.9559C34.6099 27.88 33.887 27.6902 33.2782 27.3866C34.0392 28.2215 35.0665 28.7529 36.3602 28.8667C38.3388 29.0565 40.5076 28.0697 42.2198 27.2348C44.1604 26.3239 47.5468 23.7431 49.6395 25.6787H49.6776C49.6395 25.9064 49.6015 26.0962 49.5634 26.3239C49.7156 26.2859 49.8298 26.1721 49.9439 26.0582Z" fill="#01203C"/>
<path d="M99.6737 53.2329C98.6844 45.6803 95.4883 36.1541 88.1447 34.3323C88.0305 34.2564 87.9544 34.1426 87.8403 34.0667C83.769 30.6129 78.7464 29.0948 73.7239 28.981C73.3434 28.7153 72.9629 28.4496 72.5824 28.2219C68.0925 25.4134 63.146 24.6543 58.1615 25.2236C57.8191 24.9579 57.4766 24.7302 57.1342 24.5025C54.8132 23.0603 52.5302 22.7567 50.0189 23.0223C47.5076 22.7946 45.2247 23.0603 42.9036 24.5025C42.5612 24.7302 42.2187 24.9579 41.8763 25.2236C36.8918 24.6543 31.9453 25.4134 27.4174 28.2219C27.0369 28.4496 26.6564 28.7153 26.2759 28.981C21.2153 29.0948 16.1928 30.6129 12.1595 34.0667C12.0453 34.1426 11.9692 34.2564 11.8551 34.3323C4.51151 36.1541 1.31533 45.6803 0.326042 53.2329C-0.282752 58.015 -0.0925041 62.873 1.35338 67.4653C2.26658 70.3118 4.01686 73.7655 6.49009 75.5873C8.65892 79.838 11.8931 83.4056 15.9264 85.493C18.8562 87.0491 21.9383 87.7702 25.0583 87.8082C27.0369 88.6811 29.1296 89.3263 31.1082 90.0474C33.9619 91.0721 36.9679 91.7173 40.0118 91.4896C41.648 91.3757 43.2461 90.9962 44.8061 90.4649C46.4803 90.8823 48.2306 90.9962 49.9809 90.9583C51.7311 90.9962 53.4814 90.8444 55.1556 90.4649C56.7156 90.9962 58.3137 91.3378 59.9499 91.4896C62.9558 91.7173 65.9617 91.0721 68.8535 90.0474C70.8321 89.3263 72.9248 88.6811 74.9034 87.8082C78.0235 87.7702 81.1055 87.0491 84.0353 85.493C88.0305 83.4056 91.3028 79.838 93.4716 75.5873C95.9449 73.7655 97.6951 70.3498 98.6083 67.4653C100.092 62.873 100.283 58.015 99.6737 53.2329Z" fill="#014B6E"/>
<path d="M0.706067 54.9022C1.27681 47.1598 4.13054 37.2541 11.36 34.7871C6.94621 38.9999 4.89153 45.1862 3.94029 51.4105C2.8749 58.2421 2.7988 65.3393 5.00568 71.9431C5.19593 72.5124 5.42423 73.0817 5.65252 73.651C1.31486 69.0966 0.211422 61.3542 0.706067 54.9022Z" fill="#2172AE"/>
<path d="M19.9606 86.2519C16.9546 85.3411 14.139 83.7091 11.7799 81.4698C10.2579 80.0276 8.96421 78.3577 7.89881 76.536C7.29002 75.663 6.71928 74.7142 6.37683 73.6515C6.26268 73.3479 6.11048 73.0063 6.03438 72.6647C4.85484 69.6285 4.16995 66.3645 3.9036 63.1006C3.5992 59.4191 3.86555 55.6618 4.3602 52.0183C4.93094 48.0332 5.84413 44.162 7.55637 40.5944C8.58371 38.4691 9.9535 36.6473 11.5516 35.1672C12.1984 34.4081 12.9975 33.8388 13.8346 33.3454C16.9927 31.1821 20.6835 29.9296 24.3363 29.4742C24.7929 29.4363 25.2495 29.3983 25.668 29.3604C21.5586 32.4725 18.4386 37.0269 16.3078 41.9987C13.8346 47.7676 12.7311 54.1816 12.8453 60.5577C12.9594 67.1616 14.3673 74.2967 17.259 80.1035C18.5908 82.8362 20.4172 85.2272 22.9284 86.7074C23.1187 86.8212 23.2709 86.8971 23.4611 87.011C22.3196 86.8592 21.1021 86.5935 19.9606 86.2519Z" fill="#2172AE"/>
<path d="M39.0224 90.8442C35.8262 90.9202 32.7442 89.8575 29.7383 88.7189C29.7383 88.7189 29.7383 88.7189 29.7002 88.7189C29.0534 88.605 28.4065 88.3394 27.7977 88.0737C27.189 87.808 26.5421 87.6562 25.9714 87.3526C25.5528 87.1628 25.1343 86.9351 24.7538 86.6694C23.0796 85.8724 21.5196 84.8477 20.1878 83.2916C17.9429 80.6349 16.5731 77.1053 15.5838 73.7274C11.7027 60.5957 12.9584 44.9211 21.4054 34.2183C22.7371 32.5484 24.2211 31.0682 25.8572 29.8158C25.9333 29.7399 26.0094 29.664 26.0855 29.5881C26.428 29.3224 26.7324 29.0947 27.0748 28.9049C28.3685 28.032 29.7383 27.3109 31.1461 26.7416C34.4184 25.4132 37.957 25.1855 41.4195 25.4512C39.479 27.0073 37.8429 29.0188 36.397 31.1062C32.8203 36.3058 30.8037 42.7198 29.9666 49.1339C28.9773 56.6865 29.548 64.391 31.1461 71.7918C32.554 78.2059 35.1413 84.8477 40.3922 88.4532C41.4195 89.1743 42.523 89.6677 43.6264 90.0472C42.1805 90.5406 40.6205 90.8063 39.0224 90.8442Z" fill="#2172AE"/>
<path d="M54.5848 90.085C54.4707 90.123 54.3565 90.123 54.2043 90.161H54.2424C52.8345 90.4646 51.4267 90.6164 49.9808 90.6543C48.5349 90.6164 47.1271 90.4646 45.7192 90.161H45.7573C45.6432 90.161 45.529 90.123 45.3768 90.085C44.8441 90.0091 44.3114 89.8953 43.8168 89.6296C43.3602 89.4778 42.9036 89.288 42.447 89.0603C39.4411 87.5801 37.12 84.8096 35.4078 81.7733C31.7931 75.3972 30.4994 67.1235 30.1569 59.6847C29.7764 52.3597 30.6896 44.845 33.3531 38.0894C35.1414 33.535 38.1093 28.4873 42.1045 25.6408C42.3328 25.4511 42.5992 25.2992 42.8275 25.1095C43.2841 24.8059 43.7787 24.5022 44.3114 24.3504C45.491 23.8191 46.7085 23.4775 48.0022 23.3636C48.1925 23.3636 48.4208 23.3257 48.611 23.3257C48.6491 23.3636 48.6871 23.4395 48.7252 23.4395C49.1437 23.4016 49.5623 23.3636 49.9808 23.3636C50.3994 23.4016 50.8179 23.4016 51.2365 23.4395C51.2745 23.4395 51.3506 23.4016 51.3506 23.3257C51.5408 23.3257 51.7691 23.3257 51.9594 23.3636C53.2531 23.4395 54.4707 23.8191 55.6502 24.3504C56.1829 24.5022 56.6395 24.8059 57.1341 25.1095C57.3624 25.2613 57.6288 25.4511 57.8571 25.6408C61.8523 28.4873 64.8202 33.535 66.6085 38.0894C69.2339 44.845 70.1471 52.3597 69.8047 59.6847C69.4242 67.0855 68.1305 75.3593 64.5538 81.7733C62.8416 84.8096 60.5206 87.6181 57.5146 89.0603C57.058 89.288 56.6015 89.4778 56.1449 89.6296C55.6883 89.8953 55.1556 89.9712 54.5848 90.085Z" fill="#2172AE"/>
<path d="M74.0281 87.3521C73.4193 87.6178 72.8105 87.8075 72.2017 88.0732C71.5548 88.3389 70.946 88.5666 70.2992 88.7184C70.2992 88.7184 70.2992 88.7184 70.2611 88.7184C67.2552 89.857 64.1732 90.9197 60.977 90.8438C59.3789 90.8058 57.8569 90.5402 56.335 90.1606C57.4384 89.7811 58.5418 89.2877 59.5692 88.5666C64.82 84.9611 67.4074 78.3193 68.8152 71.9052C70.4514 64.5044 71.0221 56.7999 69.9948 49.2473C69.1196 42.7953 67.1411 36.4192 63.5644 31.2196C62.1185 29.1322 60.4824 27.1207 58.5418 25.5646C62.0044 25.261 65.543 25.5266 68.8152 26.855C70.2231 27.4243 71.5929 28.1454 72.8866 29.0183C73.229 29.2081 73.5715 29.4358 73.8759 29.7015C73.952 29.7774 74.0281 29.8533 74.1042 29.9292C75.7403 31.1816 77.2623 32.6618 78.556 34.3317C87.041 45.0345 88.2586 60.7091 84.3776 73.8408C83.3883 77.2566 82.0185 80.7862 79.7736 83.405C78.4418 84.999 76.8818 85.9858 75.2076 86.7828C74.8651 86.9346 74.4466 87.1623 74.0281 87.3521Z" fill="#2172AE"/>
<path d="M93.586 73.6515C93.2816 74.7142 92.7109 75.663 92.064 76.536C90.9986 78.3577 89.705 80.0276 88.183 81.4698C85.8239 83.7091 83.0082 85.3411 80.0023 86.2519C78.8228 86.5935 77.6432 86.8592 76.4256 87.011C76.6159 86.8971 76.7681 86.8212 76.9583 86.7074C79.4316 85.2652 81.296 82.8362 82.6277 80.1035C85.4814 74.2967 86.9273 67.1616 87.0415 60.5577C87.1176 54.1816 86.0522 47.7676 83.579 41.9987C81.4482 37.0269 78.3281 32.5105 74.2188 29.3604C74.6753 29.3983 75.1319 29.4363 75.5505 29.4742C79.2033 29.8917 82.9321 31.1821 86.0522 33.3454C86.8893 33.8388 87.6883 34.4081 88.3352 35.1672C89.9333 36.6853 91.303 38.4691 92.3304 40.5944C94.0426 44.162 94.9558 48.0332 95.5266 52.0183C96.0593 55.6618 96.2875 59.4191 95.9832 63.1006C95.7168 66.3645 95.0319 69.6285 93.8524 72.6647C93.8524 73.0063 93.7382 73.3479 93.586 73.6515Z" fill="#2172AE"/>
<path d="M94.3842 73.6134C94.6125 73.0441 94.8408 72.4748 95.0311 71.9055C97.2379 65.3396 97.1238 58.2045 96.0964 51.3729C95.1452 45.1486 93.0905 38.9623 88.6768 34.7495C95.9062 37.2165 98.7599 47.1222 99.3307 54.8646C99.7873 61.3546 98.6838 69.097 94.3842 73.6134Z" fill="#2172AE"/>
<path opacity="0.4" d="M99.6738 53.2329C98.6845 45.6803 95.4883 36.1541 88.1447 34.3323C88.0306 34.2564 87.9545 34.1426 87.8403 34.0667C83.769 30.6129 78.7464 29.0948 73.7239 28.981C73.3434 28.7153 72.9629 28.4496 72.5824 28.2219C68.0925 25.4134 63.1461 24.6543 58.1616 25.2236C57.8191 24.9579 57.4767 24.7302 57.1342 24.5025C54.8132 23.0603 52.5302 22.7567 50.0189 23.0223C47.5077 22.7946 45.2247 23.0603 42.9037 24.5025C42.5612 24.7302 42.2188 24.9579 41.8763 25.2236C36.8918 24.6543 31.9454 25.4134 27.4174 28.2219C27.0369 28.4496 26.6564 28.7153 26.276 28.981C25.6672 28.981 25.0203 29.0189 24.4115 29.0948C22.1285 32.2449 19.9217 35.433 18.2475 38.9246C20.6827 35.7745 23.0037 32.3967 26.314 30.0816C28.1784 28.7912 30.119 28.0701 32.2878 27.6146C33.3532 27.3869 34.4186 27.1972 35.484 27.1592C36.1308 27.1213 37.0821 27.0074 37.6528 27.3869C38.0714 27.6526 37.9572 28.0701 37.8431 28.4496C37.6148 29.1707 37.2723 29.8918 36.9299 30.575C38.3757 28.981 40.1641 27.6526 42.2568 27.0454C43.17 26.7797 44.1973 26.6658 44.8822 27.4628C45.6432 28.3737 45.3769 29.8918 45.1866 30.9545C44.9203 32.7004 44.4256 34.3703 44.0071 36.0782C43.6266 37.7102 43.3603 39.3421 43.2081 41.05C42.8656 44.1242 42.6373 47.3882 43.3603 50.4244C44.2354 45.8321 44.692 41.2018 45.8335 36.6854C46.3281 34.7498 46.8228 32.8142 47.3935 30.8786C47.9262 29.2087 48.535 27.4628 49.6004 26.0586C49.6384 25.9827 49.7526 25.9827 49.8287 26.0586C50.9321 27.8044 50.7419 29.8918 51.0463 31.8654C51.3126 30.1955 51.4648 28.4876 51.7692 26.8176C51.8073 26.7038 51.9595 26.7038 51.9975 26.7797C56.3352 35.1673 57.6669 44.8074 57.1723 54.1059C56.944 58.5843 56.2971 63.4043 53.9381 67.3135C52.8727 69.0973 51.3887 70.6534 49.5624 71.6781C47.5838 72.7408 45.3388 73.1962 43.0939 73.2342C39.6694 73.3101 36.3591 72.0956 34.1903 69.363C32.0215 66.6304 31.1083 63.1007 30.7278 59.7229C30.2712 55.7758 30.4614 51.7528 30.9941 47.8057C31.2224 45.9839 31.5649 44.1622 31.9454 42.3784C31.5268 43.7067 31.1083 45.073 30.7658 46.4393C29.8526 50.0449 29.2058 53.6884 28.9394 57.4078C28.8633 58.812 28.7872 60.2163 28.8633 61.6206C28.9394 62.7212 29.0155 63.8218 29.0536 64.9225C29.1297 66.934 29.1297 69.4389 27.874 71.1468C26.6184 72.8546 24.1071 73.348 22.1666 72.7408C19.9597 72.0576 18.3236 70.2738 17.2201 68.3382C15.8884 65.9852 15.2796 63.4803 14.8991 60.8235C14.4045 57.1041 14.4425 53.3088 14.8991 49.5894C15.3557 46.0978 16.9538 42.7959 17.2201 39.2662C15.622 41.2398 14.5186 43.6308 13.6435 46.0219C12.7303 48.4888 12.0073 51.0696 11.4366 53.6504C10.0668 60.1024 10.0668 66.8201 11.779 73.1962C11.8171 73.3101 11.6649 73.4239 11.5888 73.3101C11.1702 72.7787 10.7517 72.2474 10.3331 71.6781C6.52817 66.4026 4.58764 60.1024 5.04424 53.5745C5.46278 47.2364 7.78381 41.2018 10.7136 35.6227C4.89204 41.5434 2.79931 50.3485 2.19051 58.3945C2.19051 58.5084 2.00026 58.5843 1.96221 58.4705C1.01097 56.3071 0.668526 53.9161 0.630476 51.5251C0.516327 52.1323 0.440228 52.7016 0.364128 53.3088C-0.244666 58.0909 -0.0544181 62.9489 1.39147 67.5412C2.30466 70.3877 4.05495 73.8414 6.52817 75.6632C8.69701 79.9139 11.9312 83.4815 15.9645 85.5689C18.8943 87.125 21.9763 87.8461 25.0964 87.884C27.075 88.757 29.1677 89.4022 31.1463 90.1233C34 91.148 37.006 91.7932 40.0499 91.5655C41.6861 91.4516 43.2842 91.0721 44.8442 90.5408C46.5184 90.9582 48.2687 91.0721 50.0189 91.0341C51.7692 91.0721 53.5195 90.9203 55.1937 90.5408C56.7537 91.0721 58.3518 91.4137 59.988 91.5655C62.9939 91.7932 65.9998 91.148 68.8916 90.1233C70.8702 89.4022 72.9629 88.757 74.9415 87.884C78.0616 87.8461 81.1436 87.125 84.0734 85.5689C88.0686 83.4815 91.3409 79.9139 93.5097 75.6632C95.9829 73.8414 97.7332 70.4257 98.6464 67.5412C100.092 62.873 100.283 58.015 99.6738 53.2329ZM82.8558 56.9903C82.7417 61.9621 81.5621 67.3135 77.8713 70.957C77.7952 71.0329 77.6811 70.995 77.6811 70.8811C77.5669 65.8713 77.1484 60.8994 76.2732 55.9656C76.1591 57.4457 75.9308 58.8879 75.4742 60.3302C75.4361 60.444 75.2459 60.444 75.2459 60.2922C74.9795 48.7924 70.0711 37.7481 63.3363 28.5635C63.2602 28.4876 63.3744 28.3737 63.4505 28.3737C67.2935 27.9562 70.7941 30.0436 73.4575 32.6244C76.1971 35.2812 78.3279 38.5451 79.926 42.0368C82.0187 46.6671 82.97 51.9046 82.8558 56.9903ZM90.4277 63.4044C90.3516 63.5182 90.1994 63.4803 90.1994 63.3284C89.9331 60.3681 89.6667 57.3698 89.096 54.4095C88.6394 52.0184 87.9925 49.6274 87.3457 47.2743C87.2315 46.8568 87.1174 46.4393 87.0032 46.0219C85.329 41.6193 83.1983 37.3686 80.2304 33.7251C80.1543 33.6492 80.2304 33.4594 80.3445 33.5353C82.2851 34.2564 84.0734 35.3571 85.6715 36.7234C93.0531 42.9856 96.6298 55.0926 90.4277 63.4044Z" fill="#11466D"/>
<path opacity="0.4" d="M99.6739 53.2331C99.3695 50.918 98.8749 48.451 98.1139 46.06C98.3042 48.2612 98.4944 50.4625 98.4944 52.6638C98.4944 55.0169 98.3422 57.4838 97.5051 59.7231C97.4671 59.8369 97.3149 59.8369 97.2768 59.7231C96.3256 56.7248 95.907 53.5747 95.4124 50.4625C95.4504 52.4361 95.3743 54.4096 95.2221 56.4211C95.0319 59.3435 94.6133 62.3039 93.9665 65.1503C93.3197 67.9209 92.4065 70.6915 90.7703 73.0825C90.6942 73.1964 90.542 73.1584 90.542 73.0066C90.5801 70.274 91.3791 67.5414 91.1128 64.8088C89.9332 69.5529 89.3625 74.7904 86.1283 78.6616C86.0522 78.7755 85.9 78.6616 85.938 78.5478C87.3839 72.4753 88.3351 66.213 88.1449 59.9128C87.9927 55.2066 87.1176 50.5384 85.4814 46.1738C87.8785 55.2066 84.2258 65.1124 81.9428 73.8795C81.9048 73.9934 81.7145 73.9934 81.7145 73.8416C81.9428 69.8945 82.4374 65.9474 82.6657 62.0002C82.133 64.2774 81.4482 66.5167 80.4589 68.68C79.2793 71.3367 78.0617 73.9554 76.4256 76.3465C74.9036 78.5857 73.0772 80.787 70.604 81.9635C70.5279 82.0015 70.4138 81.9635 70.4138 81.8497C70.6421 78.1682 72.0118 74.6386 72.2021 70.9572C71.2889 75.0181 70.3377 79.0411 68.2069 82.6467C68.1308 82.7605 67.9405 82.6846 67.9786 82.5708C68.5493 79.7623 69.4625 77.0296 70.0713 74.2591C70.6801 71.4885 70.8703 68.5661 71.0225 65.7576C71.2128 62.0382 71.1747 58.3188 70.9084 54.6374C70.7562 52.7397 70.566 50.8421 70.2235 48.9444C69.9572 47.5401 69.5767 46.1738 69.2342 44.8075C68.7776 42.9858 68.283 41.202 67.6742 39.4182C67.6742 39.3802 67.6742 39.3802 67.6361 39.3423C67.7122 40.0254 67.7883 40.6706 67.8264 41.3538C68.0927 45.0352 67.9786 48.7167 67.3698 52.3602C66.761 56.0796 66.2663 59.8369 65.3151 63.4804C64.5541 66.4028 63.679 69.3252 62.6516 72.1716C61.7004 74.7904 60.5208 77.4092 58.5042 79.3827C58.4281 79.4586 58.2759 79.3827 58.314 79.2689C59.4935 74.0693 60.7872 68.9077 61.5101 63.6322C61.6243 62.9111 61.7004 62.19 61.7765 61.4689C61.0535 64.3533 60.1023 67.1618 59.0369 69.8945C58.0096 72.4753 56.8681 75.0181 55.4222 77.3712C54.1285 79.4586 52.4924 81.6599 50.0572 82.4569C50.0191 82.4569 49.943 82.4569 49.905 82.419C48.3069 79.4586 49.144 75.891 48.7254 72.6271C48.6113 73.8036 48.4971 75.0181 48.3069 76.1947C48.0025 77.9405 47.584 79.8761 46.4805 81.3183C45.4532 82.6467 43.8931 83.0262 42.3331 82.4569C37.1203 80.5972 35.1417 74.7904 33.1631 70.0842C33.4675 73.3482 34.8373 76.4224 35.4081 79.6484C35.4461 79.7623 35.2559 79.8761 35.1798 79.7243C31.565 73.2343 30.6138 65.9094 29.3582 58.6983C29.4343 61.8484 29.7006 64.9606 29.967 68.0727C30.1192 69.7047 30.1953 71.3367 30.3475 72.9307C30.4616 74.0313 30.6518 75.094 30.8421 76.1947C31.0323 77.4851 31.2606 78.7755 31.2987 80.0659C31.3367 81.1665 31.3367 82.381 30.9182 83.4057C30.2333 84.9998 28.7874 85.4932 27.1893 84.9618C25.2107 84.3166 23.4985 82.9503 22.0146 81.584C20.6067 80.3316 19.3511 78.9652 18.3238 77.3712C13.149 69.5529 11.627 59.7231 12.7305 50.3866C11.9314 53.9542 11.7412 57.6736 11.8553 61.355C11.9314 64.5431 12.1597 67.7311 12.6924 70.8433C12.9588 72.4373 13.3012 73.9934 13.7197 75.5115C14.1002 76.8399 14.7851 78.1303 14.8232 79.5345C14.8232 79.6104 14.7471 79.6863 14.671 79.6484C12.5783 78.9273 10.9421 77.1435 9.61038 75.3977C8.12644 73.4621 6.79471 71.3367 5.88152 69.0215C3.86488 63.9358 3.75073 58.4706 3.63658 53.0813C2.57119 58.2049 2.79949 63.5184 3.37024 68.68C3.37024 68.7938 3.21804 68.8318 3.14194 68.7559C2.1907 67.4275 1.3536 65.9853 0.630661 64.5051C0.820909 65.454 1.08726 66.4028 1.3536 67.3516C2.2668 70.1981 4.01708 73.6518 6.49031 75.4736C8.65914 79.7243 11.8934 83.2919 15.9266 85.3793C18.8565 86.9354 21.9385 87.6565 25.0585 87.6944C27.0371 88.5674 29.1299 89.2126 31.1084 89.9337C33.9622 90.9584 36.9681 91.6036 40.0121 91.3759C41.6482 91.262 43.2463 90.8825 44.8063 90.3512C46.4805 90.7686 48.2308 90.8825 49.9811 90.8445C51.7314 90.8825 53.4817 90.7307 55.1558 90.3512C56.7159 90.8825 58.314 91.2241 59.9501 91.3759C62.956 91.6036 65.9619 90.9584 68.8537 89.9337C70.8323 89.2126 72.925 88.5674 74.9036 87.6944C78.0237 87.6565 81.1057 86.9354 84.0355 85.3793C88.0307 83.2919 91.303 79.7243 93.4718 75.4736C95.9451 73.6518 97.6954 70.236 98.6086 67.3516C100.092 62.8732 100.283 58.0152 99.6739 53.2331Z" fill="#11466D"/>
<path d="M26.3145 31.1823C20.1885 35.471 17.7534 43.0616 16.4597 50.045C16.3075 50.7661 17.3348 50.2347 17.449 49.8173C18.3241 46.5533 19.0471 43.2134 20.3788 40.1013C21.6725 36.9891 23.7272 33.6872 26.4667 31.6378C26.695 31.448 26.657 30.9166 26.3145 31.1823Z" fill="#2172AE"/>
<path d="M15.4698 33.3451C12.8063 35.6982 10.3711 38.3929 8.88721 41.6568C7.40327 44.9208 6.45203 48.6402 6.45203 52.2457C6.45203 52.7012 7.06082 52.1319 7.13692 51.9042C7.89791 48.6781 8.27841 45.4521 9.496 42.302C10.7897 38.9622 13.0346 36.0398 15.622 33.6108C15.7742 33.459 15.6981 33.1174 15.4698 33.3451Z" fill="#2172AE"/>
<path d="M39.4794 29.8915C38.2238 31.8271 36.7779 33.6489 35.8266 35.7742C34.8754 37.8616 34.1144 40.2527 33.9241 42.5299C33.8861 43.213 34.7232 42.7196 34.7993 42.3401C35.332 40.2527 35.8647 38.1273 36.6637 36.0779C37.5008 33.9525 38.9086 32.0548 40.0121 30.0433C40.2784 29.512 39.7077 29.5499 39.4794 29.8915Z" fill="#2172AE"/>
<path d="M74.2954 35.8125C73.991 34.9016 73.1539 34.0287 72.5071 33.3455C71.7841 32.5485 70.7948 32.0931 69.9197 31.4858C69.6533 31.2961 69.1587 31.8654 69.425 32.0931C70.148 32.7383 70.947 33.3076 71.5939 34.0287C72.2788 34.7878 72.7354 35.9643 73.6105 36.5716C73.9529 36.7993 74.4095 36.1541 74.2954 35.8125Z" fill="#2172AE"/>
<path opacity="0.5" d="M11.3607 70.2356C11.2846 69.4766 10.067 64.6945 8.54499 66.6301C8.20254 66.5921 7.9362 66.7439 7.74595 67.1994C7.3274 68.1862 7.89815 69.5525 8.31669 70.4633C8.65914 71.1844 9.42013 72.5887 10.3333 72.6267C11.4368 72.6267 11.4368 70.9188 11.3607 70.2356Z" fill="#014B6E"/>
<path opacity="0.5" d="M13.3396 75.6633C13.3396 75.5874 13.3016 75.5494 13.2635 75.5115C13.1874 75.4735 13.1494 75.4735 13.0733 75.4355C12.7689 75.4355 12.2742 76.0048 12.4645 76.3085C12.5025 76.3464 12.5406 76.4223 12.5786 76.4603C12.5786 76.8019 12.6167 77.2193 12.9591 77.4091C13.2635 77.5609 13.644 77.1814 13.6821 76.8778C13.644 76.4603 13.5679 76.0428 13.3396 75.6633Z" fill="#014B6E"/>
<path opacity="0.5" d="M21.5953 72.095C21.405 70.8046 20.6821 69.4762 19.807 68.4894C18.9699 67.5406 17.9806 68.2997 17.6762 69.2864C17.6381 69.4003 17.6381 69.5142 17.6001 69.628C17.2196 70.6148 17.2576 71.7534 17.562 72.7781C17.8284 73.727 18.8938 76.2318 20.3016 75.7005C21.7475 75.1692 21.8236 73.3474 21.5953 72.095Z" fill="#014B6E"/>
<path opacity="0.5" d="M30.0048 81.2425C30.0048 81.0906 29.8146 80.9009 29.8526 80.7491C29.9287 80.5214 29.8907 80.2177 29.5863 80.2557C29.4341 80.2557 29.2438 80.3695 29.1297 80.5213C28.8633 80.2557 28.4067 80.825 28.4067 81.0527C28.3687 81.622 28.4828 82.7985 29.2819 82.6088C29.7004 82.4949 30.0048 82.0395 30.0048 81.622C30.0048 81.4702 30.0048 81.3563 30.0048 81.2425Z" fill="#014B6E"/>
<path opacity="0.5" d="M25.7817 62.0756C25.6676 61.9618 25.4773 62.0377 25.3632 62.1136C25.1729 62.2654 24.9066 62.5311 25.0588 62.7967C25.0207 62.7208 25.0588 62.8347 25.0968 62.8727C25.0968 62.8727 25.0968 62.8727 25.0968 62.9106C25.0968 63.0245 25.1729 63.1004 25.2871 63.1004C25.3251 63.1004 25.3632 63.1004 25.4012 63.1004C25.5534 63.1004 25.7437 62.9106 25.8198 62.7967C25.8959 62.6829 25.8959 62.569 25.8578 62.4552C25.8959 62.3413 25.8959 62.1515 25.7817 62.0756Z" fill="#014B6E"/>
<path opacity="0.5" d="M42.2194 72.3231C41.9911 71.7159 41.2301 70.5393 40.4691 70.6911C40.0505 70.767 39.7461 71.0707 39.5178 71.4502C39.3276 71.4502 39.0993 71.5261 38.909 71.7918C38.2622 72.5888 38.3763 74.4485 38.7188 75.3214C39.0612 76.2323 39.5939 77.1811 40.3549 77.7883C41.2301 78.4715 42.1052 77.5606 42.4477 76.8016C43.0945 75.5491 42.676 73.6135 42.2194 72.3231Z" fill="#014B6E"/>
<path opacity="0.5" d="M58.8467 75.132C58.8467 75.094 58.8086 75.0561 58.7706 75.0561C58.7706 74.6766 58.6945 74.335 58.314 74.1832C58.1618 74.1452 58.0096 74.1832 57.8955 74.297C57.7813 74.2211 57.515 74.297 57.3628 74.5248C56.8681 75.3218 56.4876 76.5742 57.2867 77.2953C57.3628 77.3712 57.4769 77.3333 57.553 77.3333C58.1618 77.1056 58.4282 76.3465 58.6184 75.7772C58.6565 75.7013 58.6565 75.6254 58.6945 75.5115C58.7326 75.4736 58.7325 75.4736 58.7706 75.4356C58.8086 75.3977 58.8847 75.2459 58.8467 75.132ZM57.5911 75.5495C57.6672 75.5874 57.7433 75.6254 57.8574 75.6254C57.8574 75.7393 57.8194 75.8152 57.8194 75.8911C57.7813 76.0049 57.7433 76.1188 57.7052 76.2326C57.553 76.0429 57.553 75.7772 57.5911 75.5495Z" fill="#014B6E"/>
<path opacity="0.5" d="M66.5331 64.3151C66.4951 64.2392 66.419 64.2013 66.3429 64.2013C66.3429 64.1633 66.3429 64.1254 66.3429 64.0874C66.3809 63.9736 66.419 63.8597 66.419 63.7079C66.419 63.632 66.3809 63.5561 66.3429 63.5181C66.3048 63.4802 66.2668 63.4422 66.2287 63.4422C66.1146 63.4043 65.9624 63.4802 65.8863 63.5561C65.5438 63.8218 65.4297 64.3151 65.4297 64.7706C65.4297 64.9224 65.4677 65.0742 65.5819 65.1881C65.8102 65.3399 66.1146 65.1501 66.2668 64.9983C66.457 64.8085 66.6473 64.5429 66.5331 64.3151Z" fill="#014B6E"/>
<path opacity="0.5" d="M72.9632 79.61C72.8491 79.572 72.773 79.572 72.6588 79.61C71.7076 78.1298 70.5281 81.0522 70.3759 81.9631C70.2237 82.9498 70.1095 84.2023 70.8325 84.9993C71.4032 85.6445 72.4305 84.6577 72.7349 84.1643C73.2296 83.2535 74.8657 80.1034 72.9632 79.61ZM71.9359 80.1413C71.6695 80.4449 71.4412 80.8624 71.3271 81.166C71.4412 80.5968 71.6315 80.1034 71.9359 80.1413Z" fill="#014B6E"/>
<path opacity="0.5" d="M80.9153 72.0193C80.7631 71.9055 80.5728 72.0193 80.4587 72.1332C80.3445 72.2091 80.2304 72.3989 80.1923 72.5507C80.1543 72.6266 80.1543 72.7025 80.1923 72.7404C80.1543 72.8163 80.1162 72.8543 80.1162 72.9302C80.1162 73.0061 80.1162 73.0441 80.1543 73.082C80.1923 73.12 80.1923 73.12 80.2304 73.12C80.3065 73.1579 80.3826 73.12 80.4587 73.082C80.5348 73.082 80.6489 73.082 80.7631 73.0061C80.9914 72.8543 81.1436 72.6266 81.1436 72.323C81.1436 72.247 81.0674 72.1332 80.9153 72.0193Z" fill="#014B6E"/>
<path opacity="0.5" d="M91.7594 70.4254C91.7974 69.97 91.7594 69.5145 91.6072 69.0971C91.3028 68.3 90.5418 68.6416 90.1233 69.173C89.6286 69.8182 89.3623 70.729 89.3242 71.4881C89.3242 72.0953 89.4764 72.8544 90.1233 72.7785C90.5038 72.8165 90.8843 72.5128 91.1506 72.1333C91.5311 71.7158 91.7594 71.1465 91.7594 70.5393C91.7974 70.5013 91.7974 70.4634 91.7594 70.4254ZM90.7321 70.0838C90.8082 70.2356 90.8082 70.4254 90.8082 70.6152C90.8082 70.6911 90.8082 70.8808 90.7701 71.1086C90.7321 71.2224 90.656 71.3363 90.5799 71.4122C90.5799 71.2983 90.5418 71.2224 90.5418 71.1086C90.5038 70.8808 90.5418 70.6911 90.5418 70.4634C90.5799 70.3115 90.6179 70.1218 90.694 69.97C90.694 70.0459 90.694 70.0838 90.7321 70.0838Z" fill="#014B6E"/>
</svg>
