<svg width="93" height="104" viewBox="0 0 93 104" fill="none" xmlns="http://www.w3.org/2000/svg">
<path d="M19.4708 29.279C20.043 29.9787 20.6725 30.6784 21.3591 31.2614C21.8741 31.6696 22.3319 32.0778 22.7897 32.5442C23.3047 33.069 23.7625 33.5938 24.2203 34.1185C25.193 35.2264 26.1658 36.3342 27.1958 37.3838C27.6536 37.8502 28.2258 38.2584 28.6836 38.7248C29.2558 39.3662 29.7136 40.0659 30.1714 40.7656C30.6291 41.5236 31.1441 42.2816 31.5447 43.0979C31.8308 43.681 32.0597 44.3224 32.2886 44.9055C32.3458 44.7305 32.403 44.6139 32.4602 44.439C33.6047 41.5236 34.7491 38.5499 36.5802 35.9844C35.3214 35.4013 34.0625 34.8182 32.8036 34.2351C30.0569 33.0107 27.3103 31.7862 24.5064 30.6784C22.618 29.9204 20.7297 29.1624 18.8414 28.521C19.013 28.8125 19.2419 29.0458 19.4708 29.279Z" fill="#014B6E"/>
<path d="M34.177 43.2148C33.7764 44.206 33.3187 45.1973 32.9753 46.2468C33.0898 46.6549 33.2042 47.0631 33.3187 47.4713C33.8909 49.2205 34.8064 50.7948 35.4931 52.4857C36.2942 54.2933 36.8664 56.2174 37.3814 58.0832C37.8964 60.0074 38.3542 61.9316 38.9837 63.7974C39.6131 65.6633 40.357 67.5291 41.1009 69.395C42.1309 71.9022 43.2181 74.3511 44.2481 76.8C45.1064 78.9574 45.9648 81.0565 46.9376 83.2139C47.3953 84.2051 47.8531 85.1963 48.3109 86.1876C48.4825 86.5374 48.7114 86.9456 48.8831 87.2954L48.9403 87.3537C51.172 84.0885 53.0031 80.5317 54.9487 77.0333C54.9487 76.9749 55.0059 76.975 55.0059 76.9166C53.3464 73.6514 51.6298 70.4445 49.9703 67.1793C48.4825 64.0889 47.1092 60.9986 46.022 57.7334C45.2209 55.4011 44.2481 53.1271 43.2181 50.8531C42.0737 48.2876 40.8148 45.6637 39.6703 43.0982C38.7548 41.1157 37.8964 39.0749 37.0953 37.0342C36.6948 37.6756 36.2942 38.3753 35.8937 39.0166C35.3214 40.4743 34.7492 41.8154 34.177 43.2148Z" fill="#014B6E"/>
<path d="M42.9892 76.625C42.8747 76.2752 42.703 75.9253 42.5886 75.6338C42.5886 75.5755 42.5886 75.5755 42.5314 75.5172C42.5314 75.4589 42.4742 75.4005 42.4742 75.3422C42.3025 74.9341 42.1308 74.4676 41.9019 74.0595C41.1008 72.1936 40.2997 70.3278 39.5558 68.4619C38.8119 66.5961 38.1253 64.7302 37.5531 62.8061C36.9808 60.8819 36.5231 58.9578 36.0081 57.0336C35.4931 55.1678 34.8064 53.3602 34.0053 51.611C33.3186 50.095 32.5747 48.6373 32.117 47.063C30.8008 47.1796 29.5419 47.3545 28.2258 47.5295C23.7625 48.1125 19.3564 48.9288 14.8931 49.8035C15.4653 52.7772 16.5525 55.6342 17.8686 58.3164C19.1847 61.0569 20.7297 63.6224 22.2175 66.2462C23.7053 68.9867 24.9642 71.8438 26.1658 74.7008C27.4247 77.5579 28.6836 80.415 30.3431 83.0972C31.7736 85.4878 33.5475 87.5869 35.4358 89.6859H35.4931C35.6075 89.6859 35.6647 89.6859 35.7219 89.7442C36.4658 89.5693 37.2097 89.4527 37.9536 89.3361C41.3297 88.8113 44.7058 88.5198 48.0247 87.8784C47.6814 87.2953 47.3953 86.7122 47.1092 86.1292C46.5942 85.0796 46.1364 84.0301 45.6786 82.9805C44.7058 80.9398 43.8475 78.7824 42.9892 76.625Z" fill="#014B6E"/>
<path d="M15.0648 41.2905C15.0076 42.5149 15.0648 43.6811 15.0648 44.9056C15.122 46.13 15.2365 47.4711 14.9504 48.6956C15.9804 48.4623 17.0104 48.2874 18.0404 48.0542C22.5037 47.1796 26.967 46.4799 31.4304 46.0134C31.0298 45.1971 30.6865 44.2642 30.2859 43.4479C29.8854 42.5149 29.2559 41.6986 28.7409 40.8823C28.2831 40.1826 27.8254 39.5412 27.1959 39.0165C26.7381 38.6083 26.2804 38.2002 25.8798 37.792C24.8498 36.6842 23.877 35.5763 22.9043 34.4685C22.4465 33.9437 21.9887 33.4772 21.5309 33.0108C21.0159 32.5443 20.4437 32.0779 19.9287 31.6114C19.3565 31.0283 18.8987 30.3869 18.3265 29.8038C17.9259 29.3957 17.4681 29.0458 17.1248 28.6377C16.7815 30.1537 16.4954 31.6697 16.2093 33.1857C15.9231 34.6434 15.637 36.1594 15.4081 37.6754C15.2365 38.7832 15.122 40.066 15.0648 41.2905Z" fill="#014B6E"/>
<path d="M58.4966 33.8273C58.5538 33.769 58.5538 33.7106 58.611 33.6523C59.0116 33.011 59.5266 32.4279 59.9844 31.7865C60.3849 31.2617 60.7855 30.7953 61.2432 30.2705C61.4149 30.0956 61.5294 29.9207 61.701 29.6874C61.701 29.6291 61.7582 29.6291 61.7582 29.5708C61.6438 29.6874 61.7582 29.5708 61.8155 29.5125C61.9871 29.2793 62.1588 29.1043 62.2732 28.9294C63.6466 27.3551 65.4205 26.189 66.9655 24.7896C68.6821 23.2736 70.1127 21.5243 71.6577 19.8334C72.7449 18.609 74.061 17.4428 74.9766 15.9851C74.7477 16.1017 74.5188 16.2183 74.2899 16.335C72.9166 17.093 71.5432 17.7343 70.1699 18.434C68.7966 19.1337 67.366 19.8334 65.9927 20.5914C64.6766 21.3494 63.3605 22.1074 62.0444 22.8071C59.4694 24.1482 56.8944 25.5476 54.6055 27.2385C56.4938 29.046 57.4093 31.5533 58.4966 33.8273Z" fill="#014B6E"/>
<path d="M72.3442 34.4686C72.4014 32.836 72.5159 31.2034 72.6875 29.6291C72.9164 28.0548 73.2025 26.4805 73.6031 24.9061C74.1181 22.5738 74.6903 20.2998 74.9764 17.9675C74.1181 18.9588 73.2025 19.8917 72.287 20.8829C70.7992 22.5738 69.3686 24.3231 67.652 25.7808C66.107 27.1218 64.3331 28.288 63.017 29.8623C62.2731 30.7952 61.5292 31.7282 60.7853 32.6611C60.3848 33.1858 60.0414 33.6523 59.6409 34.1771C59.5264 34.4103 59.412 34.5852 59.2975 34.8185C59.2975 34.8185 59.2975 34.8185 59.2975 34.8768C59.2975 34.8768 59.2975 34.8768 59.2975 34.9351C59.9842 35.4015 60.7853 35.8097 61.5864 36.1012C62.4448 36.4511 63.3031 36.6843 64.1614 36.9175C65.1914 37.2091 66.1642 37.5589 67.1942 37.9088C68.167 38.2003 69.197 38.5502 70.227 38.7251C70.9136 38.8417 71.6575 38.9583 72.3442 39.1332C72.287 37.5589 72.287 36.0429 72.3442 34.4686Z" fill="#014B6E"/>
<path d="M12.261 48.1709C12.776 48.2875 13.2337 48.4624 13.7487 48.579C13.806 48.5207 13.806 48.5207 13.8632 48.4624C14.2065 47.1213 13.9776 45.6636 13.9204 44.3226C13.8632 43.0981 13.8632 41.8736 13.9204 40.6492C13.9776 39.3081 14.1493 38.0253 14.3782 36.6843C14.7787 34.2353 15.2937 31.8447 15.7515 29.4541C15.2365 30.2121 14.7787 31.0284 14.2637 31.8447C11.3454 36.6842 8.94207 41.8153 6.13818 46.7132C7.39707 47.0047 8.54153 47.4712 9.80042 47.7044C10.716 47.821 11.4599 47.9376 12.261 48.1709Z" fill="#014B6E"/>
<path d="M51.5725 67.8206C52.0875 65.4883 52.8886 63.2143 53.518 60.9403C54.2047 58.5497 54.7769 56.1007 55.2919 53.5935C55.8069 51.1446 56.3219 48.6374 56.6652 46.1301C56.8369 44.8473 57.0086 43.6229 57.1802 42.3401C57.2947 41.5238 57.5236 40.7658 57.6952 39.9495C57.9241 39.0749 58.0958 38.2003 58.2102 37.3257C58.2674 36.9758 58.2674 36.5677 58.2674 36.1595C58.2674 35.9263 58.2674 35.693 58.2102 35.5181C58.153 35.4598 58.153 35.4598 58.0958 35.4015C58.0386 35.3432 57.9813 35.2849 57.9813 35.2266C57.2947 34.0021 56.7797 32.7194 56.1502 31.4366C55.6352 30.387 55.063 29.3375 54.2619 28.4629C53.7469 30.3287 53.2319 32.2529 52.6597 34.1187C51.5725 37.8504 50.4852 41.5238 49.7413 45.3138C49.2836 47.5878 48.9402 49.9201 48.5397 52.1941C48.1963 54.1766 47.9102 56.1008 47.4525 58.0249C47.4525 58.0832 47.4525 58.0832 47.4525 58.0832C47.4525 58.1415 47.5097 58.1998 47.5097 58.3164C48.5969 61.64 50.0275 64.7886 51.5725 67.8206Z" fill="#014B6E"/>
<path d="M63.3032 37.8505C61.9871 37.5006 60.6709 37.0342 59.4693 36.3345C59.4693 36.8009 59.412 37.2674 59.3548 37.6755C59.1832 38.7251 58.9543 39.7163 58.7254 40.7076C58.2104 42.8066 58.0387 44.964 57.6954 47.1214C57.352 49.6286 56.837 52.1359 56.2648 54.6431C55.7498 57.1503 55.1776 59.5993 54.4337 62.0482C53.6898 64.4971 52.8887 66.8877 52.4882 69.4532C53.1748 70.8526 53.9187 72.1937 54.6626 73.5931C55.1776 72.5436 55.6926 71.494 56.2076 70.5028C56.8943 69.22 57.5809 67.9373 58.2676 66.6545C60.7282 61.9899 63.4176 57.3836 65.8782 52.7189C67.0798 50.3866 68.167 48.0543 69.4259 45.722C70.0554 44.5559 70.6848 43.448 71.3143 42.2819C71.6004 41.7571 71.9437 41.174 72.2298 40.6492C72.287 40.5326 72.3443 40.4743 72.4015 40.3577C71.4859 40.0662 70.5132 40.0079 69.5976 39.7746C67.3659 39.2499 65.3632 38.4336 63.3032 37.8505Z" fill="#014B6E"/>
<path d="M77.2651 21.8741C76.8074 20.2998 76.5785 18.7255 76.4068 17.0928C76.3496 16.8013 76.3496 16.4515 76.2924 16.1599L76.2351 16.2182C76.1779 17.8508 75.949 19.4251 75.6057 21.0578C74.9763 24.1481 74.1179 27.1801 73.7174 30.2704C73.374 33.1275 73.374 36.0428 73.374 38.9582C76.1207 38.2002 78.8674 37.3256 81.6712 36.6259C80.8701 33.1858 79.8401 29.8039 78.8101 26.4804C78.3524 24.9061 77.7229 23.3901 77.2651 21.8741Z" fill="#014B6E"/>
<path d="M73.4314 40.4158C73.4314 40.4741 73.3742 40.5324 73.3742 40.5908C73.3742 40.6491 73.317 40.7074 73.317 40.7657C73.317 40.824 73.2597 40.824 73.2597 40.8823C73.2597 40.8823 73.2597 40.9406 73.2025 40.9406C73.0881 41.1155 73.0308 41.2904 72.9164 41.4654C72.5731 42.1068 72.2297 42.7482 71.8292 43.3895C71.0853 44.6723 70.3986 45.9551 69.7692 47.2961C68.5675 49.6284 67.4803 51.9608 66.2786 54.2348C65.077 56.5671 63.7608 58.8411 62.5019 61.1151C61.2431 63.4474 59.9842 65.7214 58.7253 68.0537C57.5809 70.3277 56.2647 72.4851 55.2347 74.8174C55.6353 75.5754 55.9786 76.2751 56.3792 77.0331C56.4364 77.0914 56.4364 77.208 56.4364 77.2663C56.4936 77.3829 56.5508 77.4995 56.6081 77.6161C56.7225 79.1321 56.4364 80.5898 56.0931 82.0475C57.6953 79.7735 59.412 77.5578 61.1286 75.3422C63.3031 72.5434 65.4203 69.7446 67.4231 66.7709C68.3958 65.3132 69.3686 63.8555 70.2269 62.2812C71.1425 60.7069 71.9436 59.1326 72.7447 57.5C74.4042 54.1765 75.8919 50.7946 77.3797 47.3545C78.7531 44.2058 80.012 40.9989 81.2708 37.792C78.6386 38.4917 76.0636 39.308 73.4886 40.0077C73.4886 40.2409 73.4886 40.2992 73.4314 40.4158Z" fill="#014B6E"/>
<path d="M42.0735 97.7324C41.1008 97.1493 40.1852 96.4497 39.3841 95.6334C38.5258 94.817 37.6102 94.059 36.8663 93.1844C36.2369 92.4264 35.6074 91.5518 34.7491 91.0853C34.6346 91.027 34.5774 90.9687 34.5202 90.8521C32.9752 90.7938 31.4302 90.5023 29.8852 90.2107C28.3974 89.9192 26.9097 89.6276 25.4219 89.5693C27.1385 90.8521 29.0841 91.9016 30.9152 93.0678C32.9752 94.4089 34.8635 96.0415 37.038 97.266C37.8391 97.7324 38.6974 98.1406 39.5558 98.4321C40.128 98.6653 40.7574 98.8403 41.3296 99.0152C42.9319 99.54 44.5913 100.123 46.1935 100.59C46.4796 100.706 46.7657 100.764 47.1091 100.881C46.5369 100.531 45.9646 100.123 45.4496 99.7732C44.3052 99.0735 43.1608 98.3738 42.0735 97.7324Z" fill="#014B6E"/>
<path d="M49.9131 90.4438C50.0275 92.0181 49.9131 93.6508 49.9703 95.2251C50.0275 96.158 50.1419 97.0326 50.1992 97.9655C50.1992 98.1988 50.1992 98.3737 50.2564 98.6069C50.3708 98.1405 50.4853 97.674 50.5997 97.2075C51.0003 95.6332 51.4581 94.0589 51.8586 92.4846C52.202 91.0852 52.5453 89.6859 52.9458 88.3448C53.4608 86.5372 54.0903 84.788 54.6053 82.9805C55.0058 81.5228 55.4064 80.0651 55.4064 78.5491C53.5753 81.9309 51.7442 85.3711 49.5125 88.5197C49.7986 89.1611 49.8558 89.8025 49.9131 90.4438Z" fill="#014B6E"/>
<path d="M33.7763 89.6859C31.8879 87.5286 30.1713 85.3129 28.7407 82.8056C27.1957 80.0652 25.9368 77.2081 24.6779 74.351C23.4191 71.4939 22.1602 68.6369 20.5579 65.8964C17.6396 60.8819 14.6068 55.5759 13.6341 49.7452C13.0618 49.6285 12.5468 49.4536 11.9746 49.2787C11.2307 49.0455 10.4296 48.9288 9.6285 48.8122C8.36961 48.579 7.16795 48.0542 5.90906 47.7627C6.30961 50.5032 7.39684 53.127 8.54128 55.5759C9.74295 58.1415 11.1163 60.6487 12.4324 63.1559C13.0046 64.2638 13.5768 65.3716 14.0918 66.5378C14.6068 67.7039 15.0074 68.8701 15.4079 70.0362C17.6396 76.4501 21.1302 82.3392 24.1629 88.4032C24.2202 88.4032 24.2774 88.4032 24.3346 88.4032C26.2229 88.4032 28.054 88.6947 29.9424 89.1029C31.2585 89.3361 32.5174 89.5693 33.7763 89.6859Z" fill="#014B6E"/>
<path d="M48.826 94.9918C48.826 94.2338 48.826 93.4758 48.826 92.7178C48.826 91.9015 48.826 91.1435 48.7688 90.3272C48.7688 89.9773 48.7115 89.6858 48.6543 89.3942C48.6543 89.2776 48.5971 89.1027 48.5399 88.9861C47.7388 89.1027 46.9377 89.2776 46.1365 89.3942C42.8177 89.8607 39.4988 90.2106 36.1799 90.8519C36.7521 91.3767 37.2099 92.0181 37.6677 92.6012C38.011 93.0093 38.4688 93.3592 38.8693 93.7673C39.3271 94.1755 39.7849 94.6419 40.2999 95.0501C40.7004 95.3999 41.101 95.8081 41.5588 96.0996C42.0165 96.4495 42.5315 96.741 42.9893 97.0326C45.0493 98.257 47.0521 99.4815 48.9977 100.881C49.1121 99.7147 49.0549 98.6069 48.9404 97.4407C48.9977 96.6244 48.8832 95.8081 48.826 94.9918Z" fill="#014B6E"/>
<path d="M80.1265 27.0051C79.6687 25.3725 79.0392 23.8565 78.5242 22.2239C78.0092 20.6496 77.7231 19.0753 77.4943 17.4427C77.3798 16.6264 77.2654 15.81 77.1509 14.9937C77.0937 14.5856 76.9792 14.2357 76.5215 14.0608C76.0637 13.9442 75.7204 14.1774 75.377 14.4107C74.0037 15.227 72.5731 15.9266 71.1426 16.6846C69.712 17.3843 68.2815 18.084 66.8509 18.842C65.4204 19.6 64.1043 20.4164 62.6737 21.1744C59.6409 22.807 56.5509 24.3813 53.747 26.422C53.6326 26.4804 53.5182 26.597 53.4609 26.7719C52.4309 30.5036 51.3437 34.2353 50.3137 37.967C49.7415 40.0077 49.2265 42.0485 48.7687 44.0893C48.3109 46.3633 47.9104 48.6956 47.5098 50.9696C47.2237 52.6605 46.9376 54.3514 46.5943 56.0424C46.4226 55.6342 46.3082 55.226 46.1365 54.8762C45.6215 53.6517 45.1065 52.4273 44.5915 51.2611C43.447 48.6956 42.2454 46.13 41.0437 43.5062C39.8993 40.9407 38.6976 38.3751 37.7821 35.7513C37.7248 35.518 37.5532 35.4014 37.3243 35.3431C37.267 35.2265 37.2098 35.1682 37.0954 35.1099C34.6348 33.8854 32.117 32.7776 29.5993 31.6697C26.7954 30.4453 23.9343 29.2791 21.0159 28.1713C19.6426 27.6465 18.2693 27.18 16.8387 26.7719C16.8387 26.7719 16.8387 26.7719 16.7815 26.7719C16.7815 26.7719 16.7243 26.7136 16.6671 26.7136C16.381 26.5387 16.0948 26.6553 15.9232 26.9468C12.3754 31.903 9.68595 37.4422 6.82484 42.8065C6.13818 44.1476 5.3943 45.4303 4.65041 46.7131C4.53596 46.888 4.53596 47.063 4.65041 47.2379C4.93652 49.9201 5.85207 52.4856 6.9393 54.9345C8.08374 57.5584 9.45706 60.0656 10.7732 62.5728C11.9176 64.7302 13.1193 66.9459 13.9204 69.2782C15.0076 72.5434 16.3809 75.6338 17.8687 78.7241C19.5854 82.1642 21.4165 85.5461 23.1904 89.0445C23.1904 89.2194 23.2476 89.3361 23.3621 89.4527C25.1932 91.027 27.3104 92.1931 29.3132 93.4759C30.2859 94.059 31.2587 94.7004 32.2315 95.4001C33.3187 96.2164 34.3487 97.0327 35.4932 97.7324C36.5232 98.3737 37.6104 98.9568 38.7548 99.365C39.2698 99.5399 39.7848 99.7148 40.2998 99.8898C41.9021 100.415 43.5043 100.998 45.1065 101.464C45.9648 101.756 46.8804 101.989 47.7387 102.222C48.3682 102.397 48.9976 102.572 49.627 102.63C49.8559 102.63 50.0848 102.455 50.1421 102.28C50.2565 102.222 50.3137 102.105 50.3709 101.931C51.0576 99.0151 51.8587 96.1581 52.6598 93.301C53.0604 91.9016 53.4037 90.5022 53.747 89.1028C54.0332 87.9367 54.4337 86.8288 54.777 85.6627L54.8343 85.6044C56.7798 82.6307 58.897 79.8319 61.0143 77.0331C63.1887 74.1761 65.4204 71.319 67.4804 68.4036C69.5404 65.4882 71.3715 62.4562 72.9737 59.2493C74.6331 55.9257 76.1781 52.5439 77.6659 49.162C79.2109 45.6053 80.6415 42.0485 82.0148 38.4917C82.1865 38.0836 82.3581 37.6754 82.4726 37.2673C82.587 37.1507 82.6442 36.9757 82.587 36.7425C82.1292 33.419 81.0993 30.212 80.1265 27.0051ZM62.1015 22.807C63.4176 22.1073 64.7337 21.3493 66.0498 20.5913C67.4231 19.8333 68.7965 19.1336 70.227 18.4339C71.6004 17.7342 72.9737 17.0928 74.347 16.3348C74.5759 16.2182 74.8048 16.1016 75.0337 15.985C74.1181 17.4427 72.802 18.6088 71.7148 19.8333C70.1698 21.5242 68.7393 23.3317 67.0226 24.7894C65.4776 26.1888 63.7037 27.355 62.3304 28.9293C62.1587 29.1042 61.987 29.3374 61.8726 29.5123C61.8154 29.5707 61.7009 29.7456 61.8154 29.5707C61.8154 29.629 61.7582 29.629 61.7582 29.6873C61.5865 29.8622 61.472 30.0371 61.3004 30.2704C60.8998 30.7951 60.4993 31.2616 60.0415 31.7864C59.5837 32.3694 59.0687 33.0108 58.6682 33.6522C58.6109 33.7105 58.6109 33.7688 58.5537 33.8271C57.4093 31.5531 56.5509 29.0459 54.6626 27.2967C56.9515 25.5474 59.5265 24.2063 62.1015 22.807ZM70.1698 38.6667C69.1398 38.4917 68.167 38.1419 67.137 37.8504C66.107 37.5005 65.1343 37.1507 64.1043 36.8591C63.2459 36.6259 62.3876 36.3927 61.5293 36.0428C60.7282 35.7513 59.9843 35.3431 59.2404 34.8767C59.2404 34.8767 59.2404 34.8767 59.2404 34.8183C59.2404 34.8183 59.2404 34.8183 59.2404 34.76C59.3548 34.5268 59.4693 34.3519 59.5837 34.1187C59.927 33.5356 60.3276 33.0691 60.7282 32.6027C61.472 31.6697 62.2159 30.7368 62.9598 29.8039C64.2759 28.2296 66.0498 27.0634 67.5948 25.7223C69.3115 24.2647 70.742 22.5154 72.2298 20.8245C73.0881 19.8333 74.0609 18.9003 74.9193 17.9091C74.6331 20.2414 74.0609 22.5737 73.5459 24.8477C73.2026 26.422 72.8593 27.938 72.6304 29.5707C72.4015 31.2033 72.3443 32.7776 72.287 34.4102C72.2298 35.9262 72.2298 37.4422 72.2298 39.0165C71.5431 38.8999 70.8565 38.8416 70.1698 38.6667ZM72.2298 40.241C72.1726 40.3576 72.1154 40.4742 72.0581 40.5325C71.772 41.0573 71.4287 41.6404 71.1426 42.1651C70.5131 43.273 69.8837 44.4391 69.2543 45.6053C68.0526 47.9376 66.9654 50.2699 65.7065 52.6022C63.2459 57.2668 60.6137 61.8731 58.0959 66.5377C57.4093 67.8205 56.7226 69.1033 56.0359 70.3861C55.4637 71.3773 54.9487 72.4268 54.4909 73.4764C53.747 72.077 53.0604 70.7359 52.3165 69.3365C52.717 66.8293 53.5182 64.3804 54.262 61.9314C55.0059 59.4825 55.5782 57.0336 56.0932 54.5264C56.6082 52.0191 57.1232 49.5702 57.5237 47.0047C57.8098 44.8473 58.0387 42.6899 58.5537 40.5908C58.7826 39.5996 59.0687 38.6084 59.1832 37.5588C59.2404 37.1507 59.2976 36.6842 59.2976 36.2177C60.4993 36.9174 61.8154 37.3839 63.1315 37.7337C65.1915 38.3168 67.1943 39.1331 69.3115 39.5996C70.3987 39.8911 71.3142 40.0077 72.2298 40.241ZM47.4526 58.0831C47.9104 56.159 48.1965 54.1765 48.5398 52.2524C48.9404 49.92 49.2837 47.646 49.7415 45.372C50.4854 41.582 51.5726 37.8503 52.6598 34.177C53.1748 32.3111 53.747 30.387 54.262 28.5211C55.0632 29.3957 55.6354 30.4453 56.1504 31.4948C56.7798 32.7776 57.352 34.0604 57.9815 35.2848C58.0387 35.3431 58.0387 35.4014 58.0959 35.4597C58.0959 35.518 58.1531 35.5181 58.2104 35.5764C58.2676 35.8096 58.2676 35.9845 58.2676 36.2177C58.2676 36.6259 58.2676 36.9757 58.2104 37.3839C58.0959 38.2585 57.867 39.1331 57.6954 40.0077C57.5237 40.7657 57.2948 41.582 57.1804 42.3984C57.0087 43.6811 56.837 44.9056 56.6654 46.1884C56.322 48.6956 55.807 51.2028 55.292 53.6518C54.7771 56.1007 54.262 58.5496 53.5182 60.9985C52.8315 63.2725 52.0876 65.5465 51.5726 67.8788C50.0276 64.8468 48.597 61.6982 47.4526 58.433C47.4526 58.3747 47.3954 58.3164 47.3954 58.1997C47.4526 58.1414 47.4526 58.1414 47.4526 58.0831ZM39.7848 43.1564C40.9293 45.7219 42.1882 48.3457 43.3326 50.9113C44.3626 53.1853 45.3354 55.401 46.1365 57.7916C47.2237 61.0568 48.597 64.1471 50.0848 67.2374C51.687 70.5027 53.4609 73.7096 55.1204 76.9748C55.0632 77.0331 55.0631 77.0331 55.0631 77.0914C53.1176 80.5899 51.2865 84.1467 49.0548 87.4119L48.9976 87.3536C48.7687 87.0038 48.5971 86.6539 48.4254 86.2458C47.9104 85.2545 47.4526 84.2633 47.052 83.2721C46.1365 81.1147 45.2782 79.0739 44.3626 76.8582C43.3326 74.351 42.2454 71.9021 41.2154 69.4531C40.4715 67.6456 39.7276 65.7798 39.0982 63.8556C38.4687 61.9898 38.0109 60.0656 37.4959 58.1414C36.9809 56.2173 36.4087 54.3514 35.6076 52.5439C34.8637 50.853 34.0054 49.2787 33.4332 47.5294C33.3187 47.1213 33.2043 46.7131 33.0898 46.305C33.4332 45.2554 33.8909 44.2642 34.2915 43.273C34.8637 41.8736 35.4359 40.4742 36.1226 39.1331C36.4659 38.4334 36.8665 37.792 37.3243 37.1507C37.9537 39.1914 38.8693 41.1739 39.7848 43.1564ZM48.0248 87.995C44.7059 88.5781 41.2726 88.9279 37.9537 89.4527C37.2098 89.5693 36.4659 89.6859 35.7221 89.8608C35.6648 89.8025 35.5504 89.8025 35.4932 89.8025H35.4359C33.6048 87.7618 31.7737 85.6044 30.3432 83.2138C28.7409 80.5316 27.4248 77.6745 26.1659 74.8174C24.9071 71.9604 23.7054 69.1033 22.2176 66.3628C20.7871 63.739 19.1848 61.1734 17.8687 58.433C16.5526 55.6925 15.4654 52.8937 14.8932 49.92C19.2993 48.9871 23.7626 48.2291 28.2259 47.646C29.5421 47.4711 30.801 47.3545 32.1171 47.1796C32.5748 48.7539 33.3187 50.2699 34.0054 51.7276C34.8065 53.4768 35.4932 55.2844 36.0082 57.1502C36.5804 59.0744 36.9809 60.9985 37.5532 62.9227C38.1254 64.8468 38.8121 66.7127 39.5559 68.5785C40.2998 70.4444 41.1009 72.3102 41.902 74.1761C42.0737 74.5842 42.3026 75.0507 42.4743 75.4588C42.4743 75.5171 42.5315 75.5754 42.5315 75.6337C42.5315 75.6921 42.5315 75.6921 42.5887 75.7504C42.7032 76.1002 42.8748 76.4501 42.9893 76.7416C43.8476 78.899 44.7059 81.0564 45.6215 83.1554C46.0793 84.205 46.537 85.2545 47.052 86.3041C47.3382 86.8288 47.6815 87.4119 48.0248 87.995ZM24.4493 30.7368C27.2532 31.8447 29.9998 33.0691 32.7465 34.2936C34.0054 34.8767 35.2643 35.4597 36.5232 36.0428C34.6921 38.6084 33.5476 41.582 32.4032 44.4974C32.346 44.6724 32.2887 44.789 32.2315 44.9639C31.9454 44.3808 31.7165 43.7394 31.4876 43.1564C31.1443 42.3401 30.6293 41.5821 30.1143 40.8241C29.6565 40.1244 29.1987 39.3664 28.6265 38.7833C28.1687 38.3168 27.5965 37.9087 27.1387 37.4422C26.1087 36.3927 25.1359 35.2848 24.1632 34.177C23.7054 33.6522 23.1904 33.1274 22.7326 32.6027C22.2748 32.1362 21.7598 31.728 21.3021 31.3199C20.6154 30.7368 20.0432 30.0371 19.4137 29.3374C19.2421 29.1042 18.9559 28.871 18.7271 28.696C20.7298 29.2791 22.6182 29.9788 24.4493 30.7368ZM16.2665 33.1274C16.5526 31.6114 16.8387 30.0954 17.1821 28.5794C17.5254 29.0459 17.9832 29.3957 18.3837 29.7456C18.956 30.3287 19.4137 30.97 19.9859 31.5531C20.5009 32.0779 21.0732 32.4861 21.5882 32.9525C22.1032 33.419 22.561 33.8854 22.9615 34.4102C23.9915 35.5181 24.9071 36.6842 25.9371 37.7337C26.3376 38.2002 26.7954 38.6084 27.2532 38.9582C27.8826 39.483 28.3976 40.1244 28.7982 40.8241C29.3132 41.6404 29.9426 42.515 30.3432 43.3896C30.7437 44.2642 31.0298 45.1388 31.4876 45.9551C26.9671 46.4216 22.5037 47.1213 18.0976 47.9959C17.0676 48.1708 16.0376 48.4041 15.0076 48.6373C15.2937 47.4128 15.1221 46.1301 15.1221 44.8473C15.0648 43.6228 15.0648 42.4567 15.1221 41.2322C15.1793 39.9494 15.2937 38.725 15.4654 37.5005C15.6943 36.1011 15.9804 34.5851 16.2665 33.1274ZM14.3782 31.8447C14.836 31.0283 15.3509 30.2704 15.8659 29.4541C15.3509 31.8447 14.8932 34.2936 14.4926 36.6842C14.2637 38.0253 14.0921 39.308 14.0348 40.6491C13.9776 41.8736 13.9776 43.0981 14.0348 44.3225C14.0921 45.6636 14.321 47.1213 13.9776 48.4623C13.9204 48.4623 13.8632 48.5207 13.8632 48.579C13.3482 48.4624 12.8904 48.2874 12.3754 48.1708C11.5743 47.9376 10.8304 47.821 10.0293 47.7044C8.7704 47.4711 7.56874 47.0047 6.36707 46.7131C9.05652 41.8153 11.4598 36.6842 14.3782 31.8447ZM24.2776 88.4031C21.2448 82.3391 17.7543 76.5084 15.5226 70.0362C15.1221 68.87 14.7215 67.7039 14.2065 66.5377C13.6915 65.3716 13.1193 64.2637 12.5471 63.1559C11.231 60.6487 9.85763 58.1414 8.65596 55.5759C7.51152 53.127 6.36707 50.4448 6.02374 47.7627C7.28263 48.0542 8.48429 48.579 9.74318 48.8122C10.5443 48.9288 11.2882 49.1037 12.0893 49.2787C12.6615 49.4536 13.1765 49.6285 13.7487 49.7451C14.7215 55.5759 17.7543 60.8236 20.6726 65.8964C22.2176 68.6368 23.5337 71.4356 24.7926 74.351C26.0515 77.2081 27.3104 80.1235 28.8554 82.8056C30.2859 85.3128 32.0026 87.5285 33.8909 89.6859C32.632 89.5693 31.3732 89.3361 30.1143 89.1028C28.2832 88.6947 26.3948 88.4031 24.5065 88.4031C24.3921 88.3448 24.3348 88.4031 24.2776 88.4031ZM46.1365 100.589C44.4771 100.065 42.8748 99.5399 41.2726 99.0151C40.7004 98.8402 40.0709 98.607 39.4987 98.4321C38.6404 98.1405 37.7821 97.7324 36.9809 97.2659C34.8065 96.0414 32.9754 94.4088 30.8582 93.0677C29.0271 91.9016 27.0815 90.8521 25.3648 89.5693C26.8526 89.6276 28.3404 89.9191 29.8282 90.2107C31.3732 90.5605 32.9182 90.7937 34.4632 90.8521C34.5204 90.9104 34.5776 91.027 34.6921 91.0853C35.5504 91.6101 36.1798 92.4847 36.8093 93.1844C37.5532 94.059 38.4687 94.817 39.327 95.6333C40.1854 96.3913 41.0437 97.1493 42.0165 97.7324C43.1037 98.3737 44.1909 99.0734 45.2782 99.7148C45.8504 100.065 46.4226 100.415 46.9376 100.823C46.7659 100.764 46.4798 100.648 46.1365 100.589ZM49.112 100.881C47.1665 99.4816 45.1065 98.2571 43.1037 97.0327C42.5887 96.7411 42.1309 96.4496 41.6732 96.0998C41.2154 95.7499 40.8148 95.4001 40.4143 95.0502C39.9565 94.6421 39.4987 94.1756 38.9837 93.7674C38.5832 93.4176 38.1826 93.0094 37.7821 92.6013C37.2671 92.0182 36.8093 91.4351 36.2943 90.8521C39.5559 90.2107 42.932 89.9191 46.2509 89.3944C47.052 89.2777 47.8532 89.1611 48.6543 88.9862C48.7115 89.1028 48.7115 89.2777 48.7687 89.3944C48.8259 89.6859 48.8259 89.9774 48.8832 90.3273C48.9404 91.1436 48.9404 91.9016 48.9404 92.7179C48.9404 93.4759 48.9404 94.2339 48.9404 94.9919C48.9404 95.8082 49.0548 96.6245 49.1693 97.3825C49.1693 98.5487 49.2265 99.7148 49.112 100.881ZM54.6626 82.9805C54.1476 84.7881 53.4609 86.5373 53.0032 88.3448C52.6026 89.7442 52.3165 91.1436 51.9159 92.4847C51.5154 94.059 51.0576 95.6333 50.6571 97.2076C50.5426 97.6741 50.4282 98.1405 50.3137 98.607C50.3137 98.3737 50.3137 98.1988 50.2565 97.9656C50.1993 97.0327 50.0276 96.1581 50.0276 95.2251C49.9704 93.6508 50.0276 92.0182 49.9704 90.4439C49.9132 89.8025 49.8559 89.1028 49.6843 88.4614C51.9159 85.3128 53.7471 81.8727 55.5782 78.4908C55.4637 80.0651 55.0632 81.5228 54.6626 82.9805ZM77.3798 47.4711C75.9492 50.9113 74.4043 54.2931 72.7448 57.6167C71.9437 59.2493 71.1426 60.8236 70.227 62.3979C69.3115 63.9139 68.3959 65.4299 67.4231 66.8876C65.4204 69.803 63.2459 72.6601 61.1287 75.4588C59.412 77.6745 57.7526 79.8902 56.0932 82.1642C56.4937 80.7065 56.7226 79.1905 56.6082 77.7328C56.6082 77.6162 56.5509 77.4413 56.4365 77.383C56.4365 77.3247 56.4365 77.2081 56.3793 77.1497C56.0359 76.3918 55.6354 75.6921 55.2348 74.9341C56.2648 72.6018 57.5237 70.3861 58.7254 68.1704C59.927 65.8381 61.2431 63.5058 62.502 61.2318C63.7609 58.9578 65.0198 56.6254 66.2787 54.3514C67.4804 52.0774 68.6248 49.7451 69.7693 47.4128C70.4559 46.13 71.1426 44.789 71.8293 43.5062C72.1726 42.8648 72.5159 42.2234 72.9165 41.582C73.0309 41.4071 73.1454 41.2322 73.2026 41.0573C73.2026 41.0573 73.2026 40.999 73.2598 40.999C73.317 40.9407 73.317 40.9407 73.317 40.8823C73.317 40.824 73.3743 40.7657 73.3743 40.7074C73.3743 40.6491 73.4315 40.5908 73.4315 40.5325C73.4315 40.4159 73.4315 40.3576 73.4315 40.241C76.0637 39.5413 78.6387 38.725 81.2137 38.0253C80.012 41.1156 78.6959 44.3225 77.3798 47.4711ZM73.3743 38.9582C73.3743 36.0428 73.3743 33.1857 73.7176 30.2704C74.0609 27.1217 74.9765 24.148 75.6059 21.0577C75.892 19.4834 76.1781 17.8508 76.2354 16.2182L76.2926 16.1599C76.3498 16.4514 76.407 16.8013 76.407 17.0928C76.6359 18.7254 76.8076 20.2997 77.2654 21.8741C77.7231 23.4484 78.3526 24.906 78.8104 26.4804C79.8404 29.8622 80.8704 33.1857 81.6715 36.6259C78.8676 37.3256 76.1209 38.2002 73.3743 38.9582Z" fill="#01203C"/>
<path d="M36.9237 43.3897C37.5531 43.2731 38.1826 43.6813 38.297 44.3227C38.8692 46.655 40.872 49.1622 41.902 51.2613C43.0464 53.6519 44.0764 56.0425 45.1064 58.4914C46.3081 61.3485 48.2537 65.2551 48.6542 68.5204C48.7114 68.9868 48.082 69.2783 47.7959 68.8702C47.052 67.8206 46.4226 65.7799 46.0792 65.0219C44.9348 62.398 44.0192 59.7742 42.5887 57.267C41.0437 54.6431 40.1281 51.961 38.9265 49.1622C38.1253 47.5296 36.237 44.1477 36.9237 43.3897Z" fill="#FFF4C1"/>
<path d="M49.7986 71.2607C48.8831 70.7942 49.627 72.6017 49.7414 72.835C49.9131 73.2431 50.8286 75.109 51.4581 74.5842C51.9731 74.176 51.0575 72.5434 50.8859 72.1936C50.657 71.8437 50.2564 71.144 49.7986 71.2607Z" fill="#FFF4C1"/>
<path d="M77.6087 41.4071C76.7504 41.2322 76.1782 41.8736 75.8348 42.515C74.9765 43.9727 74.4615 45.6636 73.6604 47.1796C72.1154 50.2699 70.6276 53.5351 69.2543 56.6837C69.0254 57.2085 67.9954 59.1327 68.7393 59.5408C69.6548 60.0073 70.9709 57.4417 71.3715 56.917C73.7748 53.7684 75.5487 50.095 77.1509 46.4799C77.6659 45.2554 79.497 42.2818 77.6087 41.4071Z" fill="#FFF4C1"/>
<path d="M67.7093 64.0889C67.6521 63.5058 66.9654 62.8061 66.3932 63.0977C65.2488 63.9723 63.4177 66.0714 63.3032 67.5874C63.1315 69.5115 65.0199 68.2287 65.7638 67.529C66.5076 66.8877 67.8238 65.1967 67.7093 64.0889Z" fill="#FFF4C1"/>
<path d="M25.8225 32.4861C27.5392 33.4773 29.4275 33.9438 31.2014 34.7018C32.1169 35.1099 33.6619 35.693 33.6047 36.8591C33.4903 39.9494 28.0542 34.9933 27.0814 34.2936C26.4519 33.8271 25.0786 33.0108 25.1358 32.0779C25.5364 32.0196 25.8797 32.2528 25.8225 32.4861Z" fill="#FFF4C1"/>
<path d="M76.6358 24.6727C76.6358 26.422 76.8647 28.3461 77.0364 30.1537C77.1508 31.3198 77.0364 32.7192 77.3797 33.8853C77.6086 34.6433 77.9519 35.518 78.8675 35.0515C79.7258 34.6433 79.6114 33.1274 79.5542 32.3111C79.3825 30.1537 78.3525 28.0546 77.8947 25.8972C77.7803 25.4891 77.723 24.4978 77.2653 24.3229C76.693 24.148 76.5786 24.4395 76.6358 24.6727Z" fill="#FFF4C1"/>
<path d="M21.5309 34.9934C22.9614 36.5094 27.1386 39.5414 26.6236 42.1653C25.937 45.5471 22.332 40.8825 21.7025 39.7747C20.9014 38.3753 19.2992 36.2762 19.1848 34.5853C19.0703 32.3696 20.272 34.5853 21.5309 34.9934Z" fill="#FFF4C1"/>
<path d="M28.4547 53.0687C28.2258 56.1007 29.9425 59.8907 30.9725 62.6895C32.0025 65.6049 32.8608 68.5202 34.4058 71.2024C35.0352 72.3685 36.8663 77.2081 38.4113 78.9573C38.8119 79.3655 39.4986 79.0739 39.4413 78.4908C39.2697 75.3422 37.7247 72.1353 36.6374 69.2782C34.978 64.9635 33.2613 60.707 31.8308 56.2756C31.4302 55.1095 31.0869 51.3778 29.7708 50.7364C28.2258 50.095 28.5691 51.7859 28.4547 53.0687Z" fill="#FFF4C1"/>
<path d="M40.7002 81.2898C39.1552 81.8145 41.6157 86.6541 42.3596 84.4967C42.6457 83.6804 42.4168 82.5142 41.9591 81.8728C41.7302 81.5813 41.1007 80.8233 40.7002 81.2898Z" fill="#FFF4C1"/>
<path d="M72.0007 23.4485C71.3141 23.7983 70.9707 25.256 70.6846 25.9557C70.3413 27.0052 69.9407 28.1714 69.7118 29.2209C69.483 30.2705 68.7391 32.3112 69.1968 33.3608C69.483 34.0022 69.8835 33.8272 70.2268 33.3025C70.8563 32.3695 71.4285 31.2034 71.8863 30.2122C72.4585 28.9877 72.8019 27.3551 73.0307 26.014C73.1452 25.256 73.3741 24.2648 73.2596 23.5068C73.2024 22.2823 72.573 22.9237 72.0007 23.4485Z" fill="#FFF4C1"/>
<path d="M67.7665 41.8152C67.2515 41.9318 66.7937 42.6898 66.4504 43.0396C65.8782 43.7393 65.3059 44.4973 64.9054 45.3136C64.5048 46.1882 63.9898 47.0045 63.5893 47.8792C63.2459 48.5788 63.0743 49.3369 62.7309 50.0365C61.5865 52.2522 60.2131 54.4679 59.412 56.8586C59.2404 57.325 58.8398 58.3745 59.412 58.7244C60.5565 59.4824 62.4448 55.6924 62.7881 55.051C64.7337 51.6692 67.1943 48.3456 68.3959 44.6139C68.6248 44.0309 69.197 41.1738 67.7665 41.8152Z" fill="#FFF4C1"/>
<path d="M57.7524 61.9313C57.1802 62.9225 56.7797 64.0887 56.3219 65.1382C56.1502 65.4881 55.6924 66.7125 56.3791 66.3627C57.0658 66.0712 57.7524 64.4385 58.0958 63.7972C58.3819 63.2724 58.668 62.7476 58.6108 62.1062C58.4391 61.9896 58.2102 61.7564 57.7524 61.9313Z" fill="#FFF4C1"/>
<path d="M78.4672 8.75483C78.5244 8.46329 78.5816 8.17175 78.6389 7.88021C78.8678 5.83944 80.0694 3.62373 81.1566 1.81619C81.6144 1.1165 82.2439 0.358505 82.7589 0.125274C83.3311 -0.107957 83.7889 0.183589 84.075 1.40805C84.3039 2.5159 83.56 4.32344 82.53 6.07267C81.5 7.8219 80.0694 9.51281 79.0966 10.2708C78.7533 10.504 78.2383 10.2125 78.2955 9.86267C78.41 9.57113 78.3528 9.27959 78.4672 8.75483Z" fill="#01203C"/>
<path d="M85.2194 15.6351C85.3911 15.4601 85.5056 15.2852 85.62 15.052C86.5356 13.7109 88.3667 12.8363 89.9117 12.3698C90.5411 12.1949 91.285 12.0783 91.7428 12.3115C92.2578 12.5447 92.4867 13.0695 92.1433 14.0607C91.8572 14.9937 90.5983 15.6351 89.225 16.1598C87.7944 16.6846 86.1922 17.0344 85.2194 17.0928C84.8761 17.0928 84.5328 16.6263 84.7617 16.3348C84.8761 16.1598 84.9333 15.9266 85.2194 15.6351Z" fill="#01203C"/>
<path d="M67.7094 10.2709C67.595 9.97935 67.4233 9.74612 67.2516 9.45459C66.7366 8.57997 66.4505 7.53043 66.2789 6.48089C66.1072 5.43135 65.9927 4.44013 65.9355 3.50721C65.8783 2.74921 65.8211 1.9329 65.9927 1.40813C66.2216 0.88336 66.6794 0.533506 67.7666 1.29151C68.2816 1.64135 68.6822 2.28274 68.9683 3.09905C69.2544 3.91536 69.4261 4.90658 69.4261 5.89781C69.4833 7.88027 69.2544 9.80443 69.14 10.9706C69.0827 11.3787 68.5105 11.5537 68.2816 11.2038C68.11 10.9123 67.9383 10.7374 67.7094 10.2709Z" fill="#01203C"/>
<path d="M13.9203 23.5651C13.7486 23.3318 13.5769 23.0986 13.348 22.8654C12.0319 21.3494 11.1164 18.9588 10.5442 16.918C10.3153 16.1017 10.1436 15.1688 10.3725 14.5857C10.5442 14.0026 11.1164 13.8277 12.2036 14.4691C13.1764 15.0521 14.0347 16.8014 14.6069 18.7838C15.2364 20.7663 15.5225 22.9237 15.408 24.2064C15.408 24.6146 14.8358 24.8478 14.6069 24.498C14.378 24.1481 14.1491 23.9732 13.9203 23.5651Z" fill="#01203C"/>
<path d="M23.3619 22.9238C23.3619 22.6906 23.3047 22.4573 23.2475 22.2241C22.8469 20.5915 23.4192 18.6673 24.1058 17.2096C24.3919 16.6266 24.7925 15.9852 25.3075 15.7519C25.7653 15.5187 26.3375 15.6936 26.8525 16.6266C27.3103 17.4429 27.0242 18.8422 26.5092 20.2416C25.9369 21.641 25.1358 23.0987 24.5636 23.915C24.3347 24.2066 23.7625 24.0899 23.7053 23.7984C23.5336 23.5069 23.4192 23.3319 23.3619 22.9238Z" fill="#01203C"/>
<path d="M7.85468 32.7777C7.56857 32.6611 7.28246 32.6611 6.99635 32.6028C6.02357 32.4279 5.05079 31.9031 4.13524 31.3783C3.2769 30.8536 2.41858 30.2122 1.67469 29.6874C1.10247 29.2792 0.415794 28.7545 0.129683 28.2297C-0.156428 27.7049 -0.0419698 27.1219 1.21692 26.772C1.78914 26.5971 2.53302 26.7137 3.33413 27.0636C4.13524 27.4134 4.93635 27.9382 5.68024 28.5212C7.16802 29.7457 8.42691 31.2034 9.22803 32.1363C9.45691 32.4279 9.22802 33.0109 8.82746 32.9526C8.6558 32.8943 8.36968 32.8943 7.85468 32.7777Z" fill="#01203C"/>
<path d="M66.8508 73.1266C67.4802 72.3103 68.1097 71.4357 68.7391 70.6194C69.2541 69.9197 69.7691 69.1617 70.2269 68.4037C70.6847 67.5874 71.1997 66.7711 71.7147 65.9548C72.6875 64.2638 73.7175 62.5729 74.633 60.8237C76.4069 57.2669 78.1236 53.5935 79.5541 50.3283C80.6986 47.7045 81.843 44.7308 82.4152 43.3314C82.7014 42.6317 82.873 42.3401 82.8158 42.69C82.7586 43.0398 82.5869 44.0311 82.0147 45.8386C81.4997 47.4712 80.5841 49.9201 79.3825 52.6606C78.1808 55.4594 76.693 58.5497 75.0908 61.64C74.2325 63.156 73.3169 64.672 72.4014 66.1297C71.9436 66.8294 71.4858 67.5874 71.028 68.2871C70.5703 68.9868 70.1697 69.6865 69.6547 70.3278C67.7091 72.8351 65.8208 74.8758 65.0197 76.7417C64.9625 76.9166 64.9052 77.0332 64.848 77.1498C64.7908 77.2665 64.7908 77.3831 64.7336 77.4414C64.6764 77.6163 64.6191 77.6746 64.6191 77.6746C64.5619 77.6746 64.5619 77.2665 64.848 76.5668C65.363 75.4006 65.8208 74.6426 66.8508 73.1266Z" fill="#01203C"/>
<path d="M82.8159 39.7747C82.8159 39.7163 82.8159 39.5997 82.8159 39.4831C82.8159 38.8417 83.2164 38.2003 83.5598 37.7339C83.8459 37.3257 84.3037 36.9759 84.3037 37.6756C84.3037 37.9671 84.0748 38.4336 83.7887 38.9583C83.5025 39.4248 83.2164 39.9496 82.9876 40.2411C82.9303 40.3577 82.7587 40.2994 82.7587 40.1828C82.8159 40.0079 82.8159 39.8913 82.8159 39.7747Z" fill="#01203C"/>
<path d="M76.8076 63.0393C76.9793 62.5729 77.0937 62.1064 77.2654 61.6983C78.2382 58.608 79.5543 54.7597 81.042 51.786C81.6143 50.6198 82.3581 49.337 82.8159 48.8123C83.2737 48.2875 83.3309 48.4041 82.6443 49.9784C82.3009 50.7364 81.9004 51.786 81.3282 53.0104C80.8132 54.2349 80.2409 55.6926 79.6115 57.2086C78.4671 60.1823 77.2654 63.2143 76.4643 64.8469C76.1782 65.3717 76.0637 65.3134 76.2926 64.7303C76.407 64.2055 76.5215 63.7973 76.8076 63.0393Z" fill="#01203C"/>
<path d="M18.1548 83.7384C17.8115 83.0387 17.5254 82.3391 17.1821 81.6977C14.9504 77.0331 12.6615 70.9691 10.2582 66.3628C9.34262 64.4969 8.19817 62.5144 7.62595 61.5232C7.11095 60.532 7.28263 60.532 8.94207 62.806C9.68596 63.7972 10.6587 65.4298 11.6315 67.4123C12.6615 69.3947 13.6343 71.6688 14.6071 74.0594C15.5798 76.3917 16.4954 78.7823 17.3537 80.9397C18.2121 83.0971 19.0132 84.9629 19.5854 86.304C19.9859 87.1786 19.8143 87.2369 19.3565 86.304C19.0132 85.4877 18.7271 84.9046 18.1548 83.7384Z" fill="#01203C"/>
<path d="M6.30975 59.599C6.25253 59.4824 6.13809 59.3658 6.08087 59.2492C5.56587 58.4328 5.33697 57.2084 5.27974 56.3338C5.22252 55.5758 5.22254 54.6429 5.79476 55.5758C6.02365 55.9839 6.19531 56.8585 6.36698 57.6749C6.53865 58.5495 6.71031 59.4241 6.88198 59.9489C6.9392 60.1238 6.82474 60.1821 6.7103 60.0655C6.53863 59.8322 6.48142 59.7739 6.30975 59.599Z" fill="#01203C"/>
<path d="M13.4054 78.4326C13.1765 77.9078 12.8904 77.383 12.6615 76.8583C11.7459 75.0507 10.8304 73.01 9.74316 71.0275C8.65593 69.045 7.62594 67.0043 6.65316 65.255C5.16538 62.398 3.4487 58.7829 5.85204 62.398C6.93926 64.0306 8.77038 67.4124 10.6015 70.9109C11.517 72.6601 12.2609 74.526 12.9476 76.1586C13.6343 77.7912 14.2065 79.3072 14.5498 80.3567C14.7787 81.0564 14.6643 81.1147 14.3209 80.3567C14.092 79.7737 13.8632 79.3655 13.4054 78.4326Z" fill="#01203C"/>
<path d="M53.5755 97.7324C53.5755 97.3825 53.6327 97.0327 53.6327 96.6245C53.8044 94.1756 54.3766 91.0853 55.1205 88.753C55.2922 88.2865 55.4638 87.7618 55.6355 87.3536C55.6927 87.1204 55.8072 86.9455 55.9216 86.7705C55.9788 86.7122 55.9788 86.5956 56.036 86.5373C56.036 86.5373 56.0361 86.479 56.0933 86.479C56.0933 86.479 56.0933 86.479 56.1505 86.4207C56.1505 86.4207 56.2649 86.3624 56.3222 86.4207C56.3794 86.479 56.3794 86.479 56.3794 86.5373V86.5956C56.3794 86.8289 56.4938 86.9455 56.3794 86.9455C56.3222 86.9455 56.2649 86.8872 56.2649 86.8289C56.2649 86.8289 56.2077 86.7705 56.2077 86.7122L56.1505 86.6539C56.2077 86.5956 56.2077 86.5956 56.2649 86.5956C56.3222 86.5373 56.3222 86.5373 56.3222 86.5373C56.3222 86.5373 56.3222 86.5956 56.3794 86.5956C56.3794 86.5956 56.4366 86.6539 56.4938 86.6539C56.551 86.6539 56.4938 86.6539 56.4938 86.7122C56.4938 86.7705 56.4938 86.8289 56.4938 86.8872C56.4938 87.0038 56.4366 87.1787 56.4366 87.2953C56.2077 88.4615 55.5783 90.6772 55.1205 93.0095C54.6055 95.3418 54.1477 97.7324 53.976 99.1318C53.9188 99.5982 53.7472 99.5399 53.7472 99.0735C53.5755 98.6653 53.5755 98.3738 53.5755 97.7324Z" fill="#01203C"/>
<path d="M60.728 81.7561C60.6708 81.8727 60.6136 81.9893 60.5564 82.1059C60.1558 82.9222 59.2975 83.6219 58.668 84.205C58.4392 84.4382 58.0958 84.6714 57.9241 84.7297C57.7525 84.7881 57.638 84.7298 57.8097 84.205C57.9814 83.7968 58.5536 83.1554 59.183 82.6307C59.8125 82.1059 60.3847 81.5228 60.728 81.173C60.8425 81.0564 60.9569 81.1147 60.8997 81.2896C60.8425 81.4645 60.8425 81.5811 60.728 81.7561Z" fill="#01203C"/>
<path d="M42.3026 103.621C41.902 103.563 41.5015 103.447 41.0437 103.388C40.357 103.272 39.5559 103.038 38.812 102.805C38.0681 102.514 37.3243 102.105 36.6376 101.697C35.2643 100.823 33.9481 99.8898 32.7465 99.1318C31.7737 98.4904 30.6865 97.9073 30.1715 97.6158C29.8854 97.4408 29.7709 97.3825 29.9426 97.3242C30.1143 97.3242 30.5148 97.3242 31.2587 97.5574C31.9454 97.7907 32.8609 98.2571 33.9481 98.8985C34.9781 99.5399 36.1226 100.356 37.267 101.114C39.4987 102.689 42.417 103.155 43.9048 103.738C44.4198 103.913 44.3626 104.03 43.7904 103.971C43.3898 103.855 43.0465 103.738 42.3026 103.621Z" fill="#01203C"/>
<path d="M47.1091 45.7218C47.1663 45.197 47.2807 44.6722 47.338 44.1475C47.853 40.5907 48.9974 36.2176 49.9702 32.7775C50.7713 29.9787 51.9157 26.7135 51.2291 30.5035C50.943 32.1944 50.0274 35.5179 49.1691 38.8998C48.3107 42.2816 47.4524 45.7801 46.9946 47.7626C46.823 48.4039 46.7085 48.3456 46.7657 47.6459C46.9374 47.0629 46.9374 46.5964 47.1091 45.7218Z" fill="#01203C"/>
<path d="M60.8424 19.4251C60.6135 19.5417 60.3846 19.7166 60.1557 19.8332C58.6107 20.8245 56.7224 22.3988 55.0629 23.4483C54.3763 23.8565 53.6324 24.2646 53.2318 24.3812C52.8313 24.4978 52.8313 24.3229 53.5752 23.6815C53.9185 23.39 54.4907 22.9818 55.1202 22.4571C55.7496 21.9906 56.4935 21.4075 57.2946 20.8245C58.0957 20.2997 58.8968 19.7749 59.6979 19.4251C60.4991 19.0752 61.2429 18.842 61.7579 18.7254C62.1013 18.6671 62.1013 18.7837 61.8152 18.9586C61.4718 19.1335 61.2429 19.2501 60.8424 19.4251Z" fill="#01203C"/>
<path d="M37.7819 34.5268C37.6102 34.4684 37.4385 34.3518 37.3241 34.2935C36.2369 33.8271 35.0352 32.8358 34.1197 32.1361C33.3758 31.5531 32.4602 30.7951 33.7191 31.1449C34.2913 31.3198 35.2641 31.9612 36.1796 32.6609C37.038 33.3606 37.9535 34.0603 38.5258 34.5851C38.6974 34.7017 38.6402 34.8766 38.4113 34.76C38.1824 34.7017 38.0108 34.7017 37.7819 34.5268Z" fill="#01203C"/>
<path d="M46.0217 49.2203C45.9072 48.8122 45.7356 48.4624 45.6211 48.1125C44.5911 45.6053 43.2178 42.4566 41.9589 40.066C41.4439 39.0748 40.8717 38.0253 40.6428 37.4422C40.4139 36.9174 40.5856 36.8591 41.5011 38.0253C42.3022 39.0748 43.6183 41.4071 44.7056 43.9143C45.7928 46.4216 46.5367 49.1037 46.7656 50.6197C46.8228 51.1445 46.7083 51.1445 46.5367 50.6197C46.365 50.2116 46.2506 49.92 46.0217 49.2203Z" fill="#01203C"/>
</svg>
