<svg width="29" height="61" viewBox="0 0 29 61" fill="none" xmlns="http://www.w3.org/2000/svg">
<g opacity="0.76">
<path d="M14.23 38.6002C18.2249 38.6002 21.4633 41.8387 21.4634 45.8336C21.4634 49.8285 18.225 53.067 14.23 53.067C10.2351 53.0669 6.99658 49.8285 6.99658 45.8336C6.99666 41.8387 10.2351 38.6003 14.23 38.6002Z" fill="#01203C" stroke="#01203C"/>
<path d="M12.4017 48.925C14.8035 47.9197 17.5657 49.0518 18.571 51.4536C19.5764 53.8555 18.4443 56.6176 16.0425 57.623C13.6406 58.6284 10.8785 57.4963 9.87309 55.0944C8.86771 52.6926 9.9998 49.9304 12.4017 48.925Z" fill="#01203C" stroke="#01203C"/>
<path d="M12.0659 53.3932C12.5702 53.3932 12.9848 53.8079 12.9849 54.3122C12.9849 54.8165 12.5702 55.2311 12.0659 55.2311C11.5616 55.2311 11.147 54.8165 11.147 54.3122C11.147 53.8079 11.5617 53.3933 12.0659 53.3932Z" fill="white" stroke="#01203C"/>
<mask id="path-4-inside-1_944_351" fill="white">
<path d="M12.527 54.3122C12.527 54.596 12.3141 54.8089 12.0303 54.8089C11.7465 54.8089 11.5337 54.596 11.5337 54.3122C11.5337 54.0284 11.7465 53.8156 12.0303 53.8156C12.3141 53.8156 12.527 54.0284 12.527 54.3122Z"/>
</mask>
<path d="M12.527 54.3122C12.527 54.596 12.3141 54.8089 12.0303 54.8089C11.7465 54.8089 11.5337 54.596 11.5337 54.3122C11.5337 54.0284 11.7465 53.8156 12.0303 53.8156C12.3141 53.8156 12.527 54.0284 12.527 54.3122Z" fill="#FFF4C1"/>
<path d="M12.0303 53.8156V54.8156V53.8156ZM12.527 54.3122H11.527C11.527 54.1974 11.5732 54.0646 11.678 53.9599C11.7827 53.8552 11.9155 53.8089 12.0303 53.8089V54.8089V55.8089C12.8664 55.8089 13.527 55.1483 13.527 54.3122H12.527ZM12.0303 54.8089V53.8089C12.1452 53.8089 12.278 53.8552 12.3827 53.9599C12.4875 54.0646 12.5337 54.1974 12.5337 54.3122H11.5337H10.5337C10.5337 55.1483 11.1942 55.8089 12.0303 55.8089V54.8089ZM11.5337 54.3122H12.5337C12.5337 54.4271 12.4874 54.5598 12.3827 54.6646C12.2779 54.7694 12.1452 54.8156 12.0303 54.8156V53.8156V52.8156C11.1943 52.8156 10.5337 53.4762 10.5337 54.3122H11.5337ZM12.0303 53.8156V54.8156C11.9155 54.8156 11.7827 54.7694 11.678 54.6646C11.5732 54.5599 11.527 54.4271 11.527 54.3122H12.527H13.527C13.527 53.4761 12.8664 52.8156 12.0303 52.8156V53.8156Z" fill="#01203C" mask="url(#path-4-inside-1_944_351)"/>
<path d="M16.394 53.3932C16.8983 53.3932 17.313 53.8079 17.313 54.3122C17.313 54.8165 16.8984 55.2311 16.394 55.2311C15.8898 55.2311 15.4751 54.8165 15.4751 54.3122C15.4751 53.8079 15.8898 53.3933 16.394 53.3932Z" fill="white" stroke="#01203C"/>
<path d="M16.3975 54.3136L16.3955 54.3156H16.3926L16.3916 54.3146V54.3136L16.3906 54.3127L16.3916 54.3107V54.3097H16.3926L16.3945 54.3088L16.3955 54.3097H16.3965L16.3975 54.3107V54.3136Z" fill="#FFF4C1" stroke="#01203C"/>
<path d="M2.52637 53.1526L2.52441 53.1272C2.49226 52.8056 2.49127 52.5191 2.52344 52.1975C2.58587 51.6095 2.80542 51.0112 3.15625 50.469L3.16016 50.4622C3.30654 50.2279 3.51973 49.9788 3.75 49.7473L3.94238 49.5872L4.1123 49.4524L4.12305 49.4446L4.13281 49.4358L4.44434 49.1584L7.09668 46.8948C7.29219 46.7348 7.5768 46.7729 7.70605 46.9309C7.86576 47.1263 7.8276 47.41 7.66992 47.5393L7.48633 47.6897V47.719L4.86133 49.6457L4.50684 49.8938L4.48145 49.9133L4.31641 50.0452L4.1748 50.1516L4.16797 50.1565L4.16211 50.1614C3.97075 50.3145 3.75473 50.5234 3.60547 50.759C3.26814 51.1904 3.07155 51.7211 2.95801 52.2131L2.9541 52.2336L2.9502 52.2551C2.91871 52.4755 2.87356 52.7484 2.91113 53.0627C2.91329 53.1652 2.92616 53.2447 2.93457 53.2952C2.9431 53.3463 2.94531 53.3639 2.94531 53.3899V53.4309L2.95215 53.4719L3.02344 53.8977L3.26953 55.6243L3.27051 55.6301L3.78418 58.9563L3.75879 58.9534L3.04688 55.6955L2.69336 53.9973L2.68945 53.9778L2.58301 53.552C2.55116 53.4246 2.52637 53.2937 2.52637 53.177V53.1526Z" fill="#01203C" stroke="#01203C"/>
<path d="M8.32129 49.8947C8.49471 49.7043 8.7819 49.693 8.96289 49.8576C9.12367 50.0038 9.15483 50.2302 9.0625 50.4064L8.99805 50.465L7.08301 52.2033L7.08105 52.2052L6.65527 52.5958L6.64746 52.6027L6.63965 52.6105C6.54789 52.7022 6.3985 52.8489 6.28711 53.0509C6.05982 53.3789 5.92578 53.7903 5.92578 54.2062V54.7023C5.92578 54.761 5.93316 54.8112 5.93945 54.8458C5.94506 54.8766 5.9526 54.9108 5.95508 54.922C5.95888 54.9391 5.96047 54.9471 5.96094 54.9503V55.006L5.97266 55.0597L6.04395 55.3781L6.0459 55.3869L6.04785 55.3947L6.36719 56.6359L6.95117 58.9093L6.94336 58.9083L6.15234 56.6642L5.72656 55.4581L5.62305 55.1476C5.60943 55.1067 5.59472 55.0553 5.57617 54.9904C5.5603 54.9348 5.54085 54.867 5.52051 54.8048C5.46508 54.6071 5.43555 54.3735 5.43555 54.1701C5.43558 53.7051 5.52823 53.2514 5.7373 52.8331L5.74414 52.8195L5.75 52.8068C5.8207 52.6418 5.94192 52.4878 6.12012 52.2736L6.35352 52.0402L6.36719 52.0275L6.37988 52.0128L6.5791 51.7775L6.58008 51.7785L8.31836 49.8976L8.32129 49.8947ZM9.04199 50.4415C9.04046 50.4429 9.0384 50.4433 9.03711 50.4445L9.04004 50.4435L9.04199 50.4415Z" fill="#01203C" stroke="#01203C"/>
<path d="M2.38086 33.5236C2.41781 33.579 2.46457 33.6445 2.51074 33.7091C2.5028 33.7404 2.49092 33.7669 2.47754 33.7863C2.45186 33.8234 2.41463 33.8489 2.36914 33.8624C2.36581 33.8634 2.36263 33.8645 2.35938 33.8654L2.32422 33.5792L2.38086 33.5236ZM2.38086 33.5236L2.32227 33.5617L2.30957 33.4611C2.33295 33.4808 2.35898 33.5017 2.38086 33.5236ZM8.69336 45.0441V45.0451C9.05883 45.1263 9.28779 45.4631 9.23242 45.8419C9.14872 46.1943 8.82725 46.4145 8.46094 46.3712L8.375 46.3468L1.94043 44.4611H1.94141C1.94408 44.4557 1.9651 44.4127 1.96777 44.4074C1.97058 44.4018 1.99265 44.3596 1.99512 44.3546C2.00683 44.3312 1.9963 44.3513 2.00781 44.3283L2.00977 44.3244C2.01377 44.3164 2.00754 44.3298 2.01172 44.3214L2.01758 44.3078C2.02218 44.2986 2.01688 44.3101 2.02148 44.3009C2.02314 44.2976 2.02676 44.2913 2.02832 44.2882C2.03113 44.2826 2.02649 44.2899 2.0293 44.2843C2.02996 44.283 2.03057 44.2828 2.03125 44.2814C2.03352 44.2769 2.03195 44.279 2.03418 44.2746C2.0414 44.2601 2.03413 44.2756 2.04102 44.2619L2.04785 44.2482L2.05762 44.2296L2.06543 44.2101L2.13574 44.0324L2.1416 44.0187L2.14648 44.005C2.16416 43.952 2.18154 43.8989 2.19922 43.8458C2.20961 43.8147 2.22008 43.7833 2.23047 43.7521L8.69336 45.0441ZM0.926758 44.1642L0.754883 44.1144C0.595541 44.0654 0.503049 43.9394 0.500977 43.7931L0.591797 43.6115L0.646484 43.5578V43.5031L0.654297 43.4855L0.926758 44.1642ZM2.59473 36.8234C2.44822 37.7419 2.29474 38.6534 2.13867 39.5675C2.06796 39.9387 1.99676 40.3014 1.92578 40.6652C1.85514 41.0272 1.78478 41.3906 1.71387 41.7628C1.68053 41.9295 1.6375 42.1062 1.59277 42.2941C1.56978 42.3906 1.54817 42.491 1.52539 42.591L1.0957 42.505L1.03809 42.4933C1.12542 42.2209 1.21393 41.9326 1.29883 41.6496C1.40715 41.2885 1.50624 40.9281 1.60352 40.5744L1.90234 39.5207L1.90527 39.5099C2.14946 38.622 2.37846 37.7205 2.59473 36.8234Z" fill="#01203C" stroke="#01203C"/>
<path d="M9.88086 42.3021L9.8916 42.3079C10.0604 42.3926 10.1398 42.6402 10.0381 42.8148L10.0293 42.8284L10.0225 42.8431C9.94937 42.9893 9.75423 43.068 9.58984 43.0208L9.4873 42.9583L6.07617 40.8851L6.19336 40.348L9.88086 42.3021ZM4.89941 39.5345L5.25488 40.3851V40.387L4.92773 40.1878L4.89453 40.1546L4.8457 40.1243L4.79297 40.0794C4.74882 40.0281 4.72771 39.9533 4.74805 39.8509L4.87207 39.47L4.89941 39.5345ZM5.49707 38.847L5.13672 38.6565L6.3623 34.8851L5.49707 38.847Z" fill="#01203C" stroke="#01203C"/>
<path d="M20.668 47.0123C20.8182 46.8207 21.079 46.7791 21.2959 46.9234L21.4219 47.0074H21.46L23.9805 49.1587L24.292 49.4361L24.3018 49.4439L24.3125 49.4527L24.4814 49.5875V49.5884L24.6758 49.7496C24.9242 49.9982 25.1166 50.1963 25.252 50.44L25.2637 50.4605L25.2764 50.48C25.6184 50.9775 25.8377 51.5714 25.9004 52.1978C25.9326 52.5195 25.9326 52.8058 25.9004 53.1275L25.8984 53.1519V53.1773C25.8984 53.294 25.8737 53.4249 25.8418 53.5523L25.7354 53.9781L25.7314 53.9976L25.3779 55.6949L24.665 58.9537L24.6445 58.9556L25.1543 55.6656L25.1553 55.6597L25.4014 53.9332L25.4727 53.5074L25.4717 53.5064C25.5135 53.3199 25.5146 53.1745 25.5146 53.0709C25.5146 52.8256 25.5158 52.5788 25.4746 52.2906L25.4717 52.2691L25.4668 52.2486L25.4189 52.0591C25.2984 51.6143 25.1064 51.1529 24.8018 50.772C24.6395 50.5693 24.4419 50.3721 24.3037 50.2339L24.2793 50.2085L24.251 50.1871L24.1084 50.0806L23.9434 49.9488L23.918 49.9293L23.5635 49.6812H23.5625L20.7734 47.6334H20.7744C20.5797 47.4873 20.5324 47.2296 20.668 47.0123Z" fill="#01203C" stroke="#01203C"/>
<path d="M19.3535 49.7528C19.5069 49.5841 19.7495 49.5562 19.9287 49.6659C19.9417 49.6902 19.9534 49.7151 19.9688 49.7381C19.9928 49.7742 20.0174 49.8046 20.0381 49.828L20.085 49.8768L21.8096 51.743L22.0098 51.9774L22.0225 51.992L22.2627 52.2323C22.4052 52.4058 22.5074 52.5858 22.6592 52.8162C22.862 53.2295 22.9531 53.6763 22.9531 54.1346C22.9531 54.3137 22.937 54.4724 22.9043 54.6258L22.8623 54.7938C22.844 54.8668 22.8285 54.9298 22.8135 54.9823C22.8062 55.0079 22.7996 55.0273 22.7949 55.0409C22.7941 55.0431 22.7936 55.0451 22.793 55.0467L22.7773 55.078L22.7666 55.1121L22.6631 55.4227L22.2373 56.6287L21.4443 58.8729L21.4277 58.8758L22.0225 56.5653L22.3418 55.3241L22.3438 55.3153L22.3447 55.3075L22.416 54.9881L22.415 54.9871C22.452 54.8587 22.4596 54.7571 22.4609 54.6815C22.4897 54.5187 22.498 54.3698 22.4814 54.2127L22.4541 54.037C22.4081 53.6754 22.2891 53.3174 22.126 53.0243H22.127C22.1259 53.0222 22.1241 53.0205 22.123 53.0184C22.1197 53.0124 22.1176 53.0058 22.1143 52.9998H22.1123C22 52.7875 21.8437 52.6346 21.749 52.5399L21.7422 52.5321L21.7334 52.5243L21.3076 52.1346L21.3066 52.1327L19.3906 50.3944C19.2002 50.221 19.189 49.9338 19.3535 49.7528Z" fill="#01203C" stroke="#01203C"/>
<path d="M26.2954 43.9167C26.3131 43.9698 26.3314 44.0227 26.3491 44.0758L26.354 44.0905L26.3589 44.1042L26.4302 44.2809L26.438 44.3004L26.4468 44.319C26.4568 44.339 26.4641 44.3527 26.4741 44.3727L26.4771 44.3786V44.3796L26.478 44.3805C26.4786 44.3816 26.4775 44.3804 26.478 44.3815L26.48 44.3835V44.3854L26.4819 44.3893C26.4846 44.3947 26.4809 44.3864 26.4839 44.3922C26.4884 44.4013 26.4822 44.3899 26.4868 44.3991C26.5049 44.4352 26.4823 44.3891 26.5005 44.4254C26.5018 44.4281 26.5113 44.448 26.5132 44.4518L26.5269 44.4792C26.5414 44.5082 26.5258 44.476 26.5405 44.5055C26.5558 44.5361 26.5378 44.5011 26.5532 44.5319V44.5329L20.1265 46.4167C19.743 46.523 19.3851 46.3091 19.2866 45.9782C19.1847 45.6007 19.3919 45.2495 19.7153 45.1471C19.7455 45.14 19.7704 45.1325 19.7886 45.1256C19.8005 45.1212 19.8106 45.115 19.8198 45.111L26.2642 43.8229C26.2746 43.8542 26.285 43.8854 26.2954 43.9167ZM27.9019 43.5036L27.9194 43.5387V43.5397L27.9722 43.6452C28.0666 43.8339 28.011 44.041 27.8159 44.1569C27.8073 44.1594 27.7973 44.1622 27.7866 44.1657C27.7711 44.1707 27.7536 44.1785 27.7339 44.1862L27.5679 44.235L27.8784 43.4577C27.886 43.4729 27.8943 43.4884 27.9019 43.5036ZM25.7563 35.9645C25.9501 36.809 26.1548 37.6434 26.3726 38.4743L26.6606 39.5456C26.8407 40.2644 27.056 40.9815 27.2671 41.6852C27.3541 41.9751 27.4432 42.2713 27.5327 42.5495L27.3989 42.5768L26.9634 42.6637C26.8938 42.3814 26.8376 42.1132 26.7817 41.8337L26.7778 41.8161L26.6587 41.2682C26.5515 40.7315 26.4702 40.2066 26.3589 39.6481C26.1508 38.4291 25.943 37.1876 25.7563 35.9645Z" fill="#01203C" stroke="#01203C"/>
<path d="M22.312 40.9214L18.9097 42.9897C18.7219 43.0993 18.4926 43.037 18.3843 42.8794C18.283 42.699 18.3376 42.4837 18.4819 42.3725C18.52 42.3533 18.5622 42.3246 18.604 42.2856L22.1948 40.3833L22.312 40.9214ZM23.6519 39.9223L23.6538 39.9253C23.6685 39.9694 23.6646 40.0066 23.6509 40.0405C23.6359 40.0773 23.6032 40.1223 23.5435 40.1597L23.4956 40.1899L23.4604 40.2231L23.1353 40.4214L23.4897 39.5698L23.5161 39.5054L23.6519 39.9223ZM23.2515 38.6919L22.8911 38.8833L22.0259 34.9204L23.2515 38.6919Z" fill="#01203C" stroke="#01203C"/>
<path opacity="0.76" d="M14.1177 0V40" stroke="#01203C" stroke-miterlimit="10" stroke-linecap="round" stroke-linejoin="round"/>
</g>
</svg>
