<svg width="28" height="32" viewBox="0 0 28 32" fill="none" xmlns="http://www.w3.org/2000/svg">
<path d="M26.15 15.225C25.65 15.225 25.15 15.225 24.65 15.225C24.15 15.225 23.65 15.225 23.15 15.225C22.55 15.225 22.05 15.225 21.45 15.225C20.65 13.325 18.85 11.825 16.75 11.525C16.65 10.225 16.55 8.92499 16.45 7.62499C16.35 6.32499 16.25 5.025 16.05 3.725C15.95 3.125 15.85 2.42501 15.75 1.82501C15.65 1.32501 15.55 0.625 15.05 0.225C14.75 -0.075 14.15 -0.075 13.85 0.225C13.35 0.625 13.35 1.22501 13.35 1.82501C13.35 2.42501 13.35 3.02499 13.35 3.62499C13.35 4.92499 13.35 6.22501 13.35 7.42501C13.35 8.92501 13.45 10.325 13.45 11.825C11.95 12.425 10.65 13.725 10.05 15.225C8.84999 15.325 7.65001 15.325 6.35001 15.425C5.15001 15.525 3.95001 15.525 2.75001 15.725C2.25001 15.825 1.75001 15.825 1.25001 15.925C0.850006 16.025 0.35 16.025 0.15 16.425C-0.05 16.725 -0.05 17.225 0.15 17.525C0.35 17.825 0.75 17.925 1.15 18.025C1.55 18.125 1.95002 18.125 2.45002 18.125C3.45002 18.225 4.54999 18.225 5.54999 18.225C6.64999 18.225 7.65001 18.225 8.75001 18.225C9.05001 18.225 9.45001 18.225 9.75001 18.225C10.05 20.525 11.75 22.525 13.85 23.225C13.85 24.325 13.85 25.525 13.95 26.625C13.95 27.225 13.95 27.725 13.95 28.325C13.95 28.925 13.95 29.525 13.95 30.125C13.95 31.025 14.75 31.825 15.65 31.825C16.55 31.825 17.35 31.025 17.35 30.125C17.35 29.525 17.35 28.925 17.35 28.325C17.35 27.825 17.35 27.225 17.35 26.725C17.35 25.625 17.35 24.425 17.35 23.325C19.65 22.725 21.55 20.725 21.85 18.325C22.15 18.325 22.35 18.325 22.65 18.325C23.25 18.325 23.75 18.325 24.35 18.425C24.85 18.425 25.35 18.525 25.95 18.525C26.85 18.525 27.55 17.825 27.55 16.925C27.55 16.025 26.95 15.325 26.15 15.225Z" fill="#FFF6C4"/>
</svg>
