<svg width="23" height="29" viewBox="0 0 23 29" fill="none" xmlns="http://www.w3.org/2000/svg">
<path d="M3.72972 15.8737C4.04053 15.8737 4.35135 15.8737 4.66216 15.8737C4.19594 15.8737 4.04053 15.8737 3.72972 15.8737ZM12.8987 28.6948C12.5879 28.6948 12.5878 28.3895 12.4324 28.2368C12.277 27.9316 12.277 27.7789 12.1216 27.4737C11.9662 27.0158 11.6554 26.4053 11.5 25.9474C11.3446 25.3368 11.0338 24.8789 10.8784 24.2684C10.723 23.6579 10.5676 23.2 10.2568 22.5895C10.1013 21.979 9.79055 21.3684 9.63514 20.6053C9.47974 20.1474 9.3243 19.8421 9.1689 19.3842C9.01349 19.079 9.01352 18.7737 8.85812 18.6211H8.7027C8.39189 18.4684 8.23649 18.4684 7.92568 18.3158C7.61486 18.3158 7.45946 18.1631 7.14865 18.1631C6.52703 18.0105 6.0608 17.8579 5.43918 17.7053C4.35135 17.4 3.2635 17.0947 2.17566 16.7895C1.70945 16.6368 1.39866 16.4842 0.932441 16.3316C0.777036 16.3316 0.621649 16.179 0.466244 16.179C0.310839 16.179 0.155415 16.0263 0.155415 15.8737C9.48287e-06 15.721 0 15.5684 0 15.4158V15.2632C0 15.1105 0.155434 14.8053 0.466244 14.8053H0.621611C0.932422 14.8053 1.24324 14.8053 1.55405 14.8053C2.02027 14.8053 2.64189 14.8053 3.1081 14.8053C3.72973 14.8053 4.35136 14.6526 4.81757 14.6526C5.28379 14.6526 5.74999 14.5 6.21621 14.5C6.68242 14.5 7.14863 14.3474 7.61485 14.3474C8.08106 14.3474 8.70268 14.1948 9.1689 14.1948H9.32431C9.32431 14.0421 9.32431 14.0421 9.32431 13.8895C9.32431 13.279 9.47973 12.8211 9.47973 12.2105C9.63513 11.1421 9.79052 9.92108 9.94592 8.85266C10.1013 7.78424 10.2568 6.56317 10.4122 5.49475C10.4122 4.88422 10.5676 4.42632 10.5676 3.81579C10.5676 3.20526 10.723 2.74736 10.723 2.13683C10.723 1.9842 10.723 1.98423 10.723 1.8316C10.723 1.52633 10.723 1.22107 10.723 1.06844C10.723 0.915808 10.723 0.763186 10.723 0.457923V0.305282C10.723 0.15265 10.8784 0 11.0338 0C11.1892 0 11.5 9.31362e-06 11.5 0.152641C11.6554 0.305272 11.6554 0.610526 11.8108 0.763158C11.8108 1.06842 11.8108 1.22105 11.9662 1.52632C11.9662 1.98421 12.1216 2.59474 12.277 3.05263C12.4324 3.51053 12.4324 4.12105 12.5878 4.57895C12.7432 5.03684 12.7433 5.49474 12.8987 6.10526C12.8987 6.10526 12.8987 6.10525 12.8987 5.95262C13.0541 6.56315 13.2095 7.32633 13.3649 7.93686C13.8311 9.76844 14.1419 11.6 14.4527 13.5842C14.6081 13.5842 14.9189 13.5842 15.0743 13.7368C15.3851 13.7368 15.8513 13.8895 16.1621 13.8895C16.7838 14.0421 17.4054 14.0421 18.027 14.1948C18.6486 14.3474 19.2703 14.3474 19.8919 14.5C20.5135 14.6526 21.1351 14.6526 21.7567 14.6526C21.7567 14.6526 21.7567 14.6526 21.6013 14.6526C21.7567 14.6526 22.0676 14.6526 22.223 14.6526C22.3784 14.6526 22.6892 14.8053 22.8446 14.9579C22.8446 15.1106 22.8446 15.1105 22.8446 15.2632C23 15.4158 23 15.5684 23 15.7211C23 16.0263 22.6892 16.179 22.3783 16.3316C22.0675 16.4842 21.9121 16.4842 21.6013 16.4842C21.1351 16.6369 20.5135 16.7895 20.0473 16.7895C19.1148 16.9421 18.1824 17.2474 17.25 17.4C17.0946 17.4 16.9392 17.4 16.7838 17.5526C16.473 17.5526 16.0067 17.7053 15.6959 17.7053C15.6959 17.7053 15.6959 17.7053 15.8514 17.7053C15.5405 17.7053 15.2297 17.8579 14.9189 17.8579C14.9189 17.8579 14.9189 17.8579 14.7635 17.8579C14.7635 18.1632 14.6081 18.621 14.6081 18.9263C14.4527 19.5368 14.4527 20.1474 14.4527 20.7579C14.2973 21.979 14.1419 23.2 14.1419 24.5737C14.1419 25.3369 13.9865 25.9474 13.9865 26.7105C13.9865 27.0158 13.9865 27.3211 13.8311 27.779C13.8311 27.9316 13.8311 28.0842 13.8311 28.2368C13.8311 28.3895 13.8311 28.3895 13.8311 28.5421C13.8311 28.6948 13.5203 28.8474 13.3649 29C13.3649 28.6947 13.2095 28.8474 12.8987 28.6948C13.0541 28.8474 13.0541 28.8474 12.8987 28.6948Z" fill="#FFF6C4"/>
</svg>
