<svg width="33" height="37" viewBox="0 0 33 37" fill="none" xmlns="http://www.w3.org/2000/svg">
<path d="M31.9057 17.6868C30.2209 17.6868 28.5361 17.7885 26.9566 17.7885C26.1142 17.7885 25.2718 17.7885 24.4294 17.7885C24.3241 16.9753 24.0083 16.1621 23.5871 15.4506C23.903 15.1456 24.1135 14.8407 24.4294 14.6374C25.1665 13.9258 25.9036 13.2143 26.6407 12.4011C27.1672 11.8929 27.1672 11.1813 26.6407 10.6731C26.2195 10.2665 25.2718 10.1648 24.8506 10.6731C24.4294 11.0797 24.0083 11.5879 23.5871 11.9945C23.0606 12.6044 22.5341 13.1126 22.0076 13.6209C21.0599 12.9093 19.9016 12.4011 18.638 12.2995C18.5327 10.6731 18.4274 9.14835 18.3221 7.52197C18.2168 6.30219 18.2168 5.08241 18.1115 3.96428C18.1115 3.35439 18.0062 2.84617 18.0062 2.23628C18.0062 1.93133 18.0062 1.72802 17.9009 1.42307C17.9009 1.32142 17.9009 1.21979 17.7956 1.11814V1.01648C17.6903 0.406593 17.1638 0 16.6373 0C16.0055 0 15.479 0.406593 15.479 1.01648V1.11814C15.479 1.42308 15.479 1.72802 15.479 2.03297C15.479 2.54121 15.5843 2.9478 15.5843 3.45604C15.6896 4.37087 15.6896 5.28572 15.7949 6.20056C16.0055 8.23352 16.1108 10.3681 16.3214 12.4011C15.5843 12.6044 14.8472 12.9094 14.3207 13.4176C13.7942 12.9094 13.2677 12.4011 12.6359 11.8929C12.2147 11.5879 11.7935 11.1813 11.3723 10.8764C11.0564 10.6731 10.7405 10.3681 10.3193 10.3681C10.214 10.3681 10.0034 10.3681 9.89814 10.3681C9.47694 10.4698 9.05574 10.8764 9.05574 11.3846C9.05574 11.7912 9.37164 12.1978 9.68754 12.4011C10.0034 12.7061 10.3193 13.011 10.6352 13.2143C11.267 13.8242 11.8988 14.4341 12.5306 15.0439C12.0041 15.7555 11.6882 16.6703 11.5829 17.5852C9.89814 17.5852 8.21335 17.5852 6.42326 17.4835C5.26497 17.4835 4.10667 17.3819 2.94838 17.3819C2.42188 17.3819 2.00069 17.3819 1.47419 17.3819C1.26359 17.3819 0.947691 17.3819 0.737092 17.4835C0.526493 17.4835 0.421193 17.5852 0.315893 17.7885C0.105295 17.9918 0 18.1951 0 18.3984V18.5C0 18.6017 0 18.6016 0 18.7033C0 19.0082 0.2106 19.2115 0.421199 19.4148C0.631798 19.6181 0.842393 19.6181 1.15829 19.7198C1.47419 19.8214 1.89539 19.8214 2.21128 19.8214C3.26428 19.9231 4.31727 19.9231 5.26497 19.9231C7.47625 19.9231 9.58224 20.0247 11.7935 20.0247C12.1094 21.0412 12.6359 21.956 13.373 22.6676C12.7412 23.3791 12.1094 24.0907 11.3723 24.8022C10.9511 25.2088 10.6352 25.6154 10.214 25.9203C10.0034 26.1236 9.89813 26.2253 9.68754 26.4286C9.68754 26.4286 9.68754 26.4286 9.58224 26.5302C9.37164 26.7335 9.16104 27.0385 9.16104 27.3434C9.16104 27.75 9.37164 28.0549 9.68754 28.2582C9.89813 28.3599 10.0034 28.3599 10.214 28.3599C10.8458 28.3599 11.4776 27.75 12.0041 27.3434C12.6359 26.7335 13.2677 26.2253 13.7942 25.5137C14.3207 25.0055 14.7419 24.4973 15.2684 23.989C15.9002 24.294 16.532 24.4973 17.1638 24.5989C17.3744 28.3599 17.4797 32.2225 17.585 35.9835C17.585 36.5934 18.1115 37 18.638 37C19.2698 37 19.7963 36.4918 19.691 35.9835C19.691 33.4423 19.5857 30.9011 19.4804 28.3599C19.4804 27.0385 19.3751 25.8187 19.2698 24.4973C20.2175 24.294 21.1652 23.8874 21.9023 23.2775C22.85 24.0907 23.7977 24.9038 24.7453 25.717C24.9559 25.9203 25.2718 26.022 25.5877 26.022C25.9036 26.022 26.2195 25.9203 26.4301 25.717C26.8513 25.3104 26.9566 24.4973 26.4301 23.989C25.7983 23.4808 25.2718 22.9725 24.64 22.4643L24.5347 22.3626C24.3241 22.1593 24.1135 22.0577 23.9029 21.8544C23.9029 21.8544 23.9029 21.8544 23.7976 21.7527C23.6924 21.6511 23.587 21.5495 23.4817 21.4478C23.7976 20.9396 24.0083 20.533 24.1136 19.9231C24.64 19.9231 25.1665 19.9231 25.693 19.9231C27.6937 19.9231 29.7997 19.8214 31.8004 19.7198C32.4322 19.7198 32.9587 19.2115 32.9587 18.6016C33.1693 18.195 32.5375 17.6868 31.9057 17.6868Z" fill="#014B6E"/>
</svg>
