<svg width="28" height="31" viewBox="0 0 28 31" fill="none" xmlns="http://www.w3.org/2000/svg">
<path d="M26.5771 14.8303C26.069 14.8303 25.5608 14.8303 25.0526 14.8303C24.5445 14.8303 24.0363 14.8303 23.5281 14.8303C22.9183 14.8303 22.4102 14.8303 21.8004 14.8303C20.9873 12.9796 19.1579 11.5184 17.0236 11.2262C16.922 9.95992 16.8203 8.69363 16.7187 7.42733C16.6171 6.16103 16.5154 4.89474 16.3122 3.62844C16.2105 3.04399 16.1089 2.36214 16.0073 1.7777C15.9056 1.29066 15.804 0.608798 15.2958 0.219167C14.9909 -0.0730558 14.3811 -0.0730558 14.0762 0.219167C13.5681 0.608798 13.5681 1.19325 13.5681 1.7777C13.5681 2.36214 13.5681 2.94658 13.5681 3.53102C13.5681 4.79732 13.5681 6.06364 13.5681 7.23253C13.5681 8.69365 13.6697 10.0573 13.6697 11.5185C12.1452 12.1029 10.824 13.3692 10.2142 14.8303C8.99455 14.9277 7.77497 14.9277 6.45373 15.0251C5.23413 15.1226 4.01453 15.1225 2.79493 15.3174C2.28676 15.4148 1.77859 15.4148 1.27042 15.5122C0.86389 15.6096 0.355717 15.6096 0.15245 15.9992C-0.0508167 16.2914 -0.0508167 16.7785 0.15245 17.0707C0.355717 17.3629 0.762251 17.4603 1.16878 17.5577C1.57532 17.6551 1.98187 17.6551 2.49004 17.6551C3.50637 17.7525 4.62431 17.7526 5.64065 17.7526C6.75862 17.7526 7.77496 17.7526 8.89293 17.7526C9.19783 17.7526 9.60436 17.7526 9.90926 17.7526C10.2142 19.9929 11.9419 21.9411 14.0762 22.6229C14.0762 23.6944 14.0762 24.8633 14.1779 25.9348C14.1779 26.5192 14.1779 27.0063 14.1779 27.5907C14.1779 28.1752 14.1779 28.7596 14.1779 29.3441C14.1779 30.2207 14.9909 31 15.9056 31C16.8203 31 17.6334 30.2207 17.6334 29.3441C17.6334 28.7596 17.6334 28.1752 17.6334 27.5907C17.6334 27.1037 17.6334 26.5192 17.6334 26.0322C17.6334 24.9607 17.6334 23.7918 17.6334 22.7203C19.971 22.1359 21.902 20.1877 22.2069 17.85C22.5118 17.85 22.7151 17.85 23.02 17.85C23.6298 17.85 24.1379 17.85 24.7477 17.9474C25.2559 17.9474 25.7641 18.0448 26.3739 18.0448C27.2886 18.0448 28 17.3629 28 16.4863C28 15.6096 27.3902 14.9277 26.5771 14.8303Z" fill="#014B6E"/>
</svg>
