<svg width="23" height="28" viewBox="0 0 23 28" fill="none" xmlns="http://www.w3.org/2000/svg">
<path d="M7.35464 19.375C8.65464 21.575 9.65464 24.075 10.2546 26.575C10.3546 27.175 11.1546 27.175 11.3546 26.575C12.1546 23.975 13.4546 21.475 14.5546 19.175C16.6546 14.775 24.1546 15.375 22.1546 14.075C23.1546 14.675 16.0546 12.575 13.9546 8.17499C12.6546 5.47499 12.0546 3.375 11.2546 0.375C11.1546 -0.125 10.3546 -0.125 10.1546 0.375C9.05464 3.575 8.45464 5.27498 7.15464 8.07498C5.55464 11.375 2.05464 13.775 0.354639 14.275C-0.0453611 14.375 -0.14536 14.875 0.25464 15.175C1.95464 16.275 5.95464 17.175 7.35464 19.375Z" fill="#014B6E"/>
</svg>
