<svg width="32" height="44" viewBox="0 0 32 44" fill="none" xmlns="http://www.w3.org/2000/svg">
<path d="M31.25 21.45C31.05 21.15 30.75 21.05 30.45 20.95C30.15 20.85 29.85 20.85 29.55 20.85C28.85 20.75 28.15 20.65 27.45 20.45C27.15 20.35 26.75 20.25 26.45 20.25C25.55 20.05 24.55 19.95 23.65 19.95C22.85 19.95 22.05 19.85 21.25 19.95C20.65 19.95 20.15 19.95 19.55 20.05C20.05 19.35 20.45 18.75 20.95 18.05C21.45 17.25 21.95 16.45 22.55 15.75C23.35 14.65 24.15 13.55 24.85 12.35C25.05 12.05 25.15 11.75 25.35 11.55C25.55 11.35 25.65 11.05 25.75 10.75C25.95 10.35 26.15 9.65 25.65 9.35C25.45 9.15 25.15 9.15 24.95 9.35C24.85 9.45 24.75 9.44999 24.75 9.54999C24.25 9.94999 23.85 10.45 23.45 11.05C22.95 11.75 22.45 12.45 21.95 13.15C21.75 13.35 21.65 13.65 21.45 13.85C20.95 14.55 20.45 15.35 19.95 16.05C19.55 16.65 19.15 17.25 18.75 17.85C18.65 16.55 18.65 15.25 18.65 13.95C18.65 12.95 18.65 12.05 18.55 11.05C18.55 10.05 18.45 9.05 18.45 8.15C18.25 6.35 18.05 4.55 17.95 2.65C17.95 2.15 17.85 1.54999 17.85 1.04999C17.85 0.749994 17.85 0.449991 17.65 0.249991C17.65 0.249991 17.65 0.15 17.55 0.15C17.35 -0.05 17.05 -0.05 16.85 0.15C16.65 0.35 16.55 0.549997 16.55 0.849997C16.55 1.15 16.45 1.55 16.45 1.85C16.35 2.75 16.25 3.55 16.15 4.45C15.95 6.25 15.65 8.15 15.55 9.95C15.55 10.85 15.45 11.75 15.45 12.55C15.45 13.55 15.45 14.55 15.45 15.65C15.45 16.55 15.55 17.55 15.55 18.45C15.05 18.05 14.65 17.65 14.15 17.25C13.35 16.55 12.45 15.85 11.65 15.05C10.75 14.25 9.94999 13.45 9.04999 12.65C8.54999 12.25 8.15 11.75 7.65 11.35C7.35 11.05 6.94999 10.75 6.54999 10.75C6.34999 10.75 6.14999 10.85 6.04999 11.05C5.84999 11.35 6.05001 11.85 6.25001 12.15C6.45001 12.45 6.74999 12.65 7.04999 12.95C7.74999 13.65 8.34999 14.25 9.04999 14.95C9.54999 15.45 10.05 15.95 10.55 16.45C11.05 16.95 11.65 17.55 12.15 18.05C12.75 18.65 13.35 19.25 13.85 19.85C14.05 20.05 14.25 20.25 14.45 20.45C13.25 20.45 12.05 20.45 10.85 20.45C9.95001 20.45 9.15001 20.45 8.25001 20.55C7.75001 20.55 7.15 20.65 6.65 20.65C6.15 20.65 5.75001 20.75 5.25001 20.75C4.35001 20.85 3.44999 20.85 2.44999 20.85C2.04999 20.85 1.65001 20.85 1.35001 20.95C1.15001 20.95 0.950006 21.05 0.750006 21.05C0.550006 21.05 0.25 21.15 0.15 21.35C-0.05 21.65 -0.05 22.05 0.15 22.25C0.25 22.35 0.45 22.45 0.65 22.55C0.95 22.65 1.14999 22.65 1.44999 22.75C1.84999 22.85 2.35001 22.85 2.85001 22.85C3.35001 22.85 3.84999 22.95 4.44999 22.95C5.04999 22.95 5.65 23.05 6.15 23.15C6.75 23.25 7.44999 23.35 8.04999 23.35C8.94999 23.45 9.85001 23.55 10.85 23.55C11.55 23.55 12.25 23.55 12.95 23.55C13.35 23.55 13.75 23.55 14.15 23.55C13.95 23.85 13.75 24.05 13.55 24.25C13.25 24.65 12.85 25.05 12.55 25.45C12.05 26.05 11.55 26.55 11.05 27.15C10.55 27.75 10.05 28.35 9.54999 28.85C8.84999 29.65 8.05001 30.55 7.35001 31.35L7.44999 31.25C7.14999 31.55 6.85 31.85 6.65 32.15C6.35 32.45 5.95 32.85 6.15 33.35C6.25 33.65 6.55001 33.85 6.85001 33.85H6.94999C7.14999 33.85 7.34999 33.75 7.54999 33.55C7.64999 33.45 7.75001 33.35 7.85001 33.35C7.95001 33.25 8.15001 33.15 8.25001 32.95C8.85001 32.35 9.44999 31.75 10.05 31.15C10.55 30.65 11.05 30.15 11.55 29.65C12.05 29.05 12.65 28.55 13.15 27.95C13.75 27.35 14.25 26.75 14.75 26.25C15.05 25.95 15.35 25.65 15.65 25.35C15.75 25.25 15.75 25.25 15.85 25.15C15.85 25.75 15.95 26.35 15.95 26.95C16.05 27.75 16.15 28.65 16.25 29.45C16.35 30.35 16.35 31.25 16.35 32.05C16.35 32.55 16.35 32.95 16.35 33.45C16.35 33.95 16.45 34.45 16.45 34.85C16.45 35.35 16.55 35.85 16.55 36.25C16.65 36.65 16.65 37.15 16.75 37.55C16.85 38.35 17.05 39.25 17.25 40.05C17.35 40.65 17.45 41.25 17.55 41.85C17.55 42.05 17.65 42.25 17.65 42.55C17.75 42.85 17.85 43.15 18.15 43.25C18.25 43.25 18.35 43.25 18.35 43.25C18.65 43.25 18.95 42.95 19.05 42.65C19.05 42.45 19.05 42.25 19.05 42.05C19.05 41.65 19.05 41.25 19.05 40.85V40.95C19.05 40.55 19.05 40.15 19.15 39.75C19.25 38.45 19.35 37.05 19.35 35.75C19.35 35.05 19.35 34.35 19.25 33.55C19.25 32.75 19.15 31.95 19.05 31.15C19.05 30.85 19.05 30.55 18.95 30.35C18.95 29.45 18.85 28.45 18.95 27.55C18.95 26.75 18.95 25.85 18.85 25.05C18.85 25.05 18.85 25.05 18.95 25.15C19.55 25.85 20.25 26.45 20.85 27.05C21.45 27.65 22.05 28.25 22.75 28.85C23.45 29.45 24.05 29.95 24.75 30.55C25.05 30.75 25.45 31.05 25.75 31.25C25.95 31.45 26.25 31.55 26.45 31.75C26.75 31.95 27.15 32.25 27.55 32.25C27.65 32.25 27.75 32.25 27.85 32.15C28.15 31.95 28.25 31.55 28.05 31.25C27.95 31.15 27.85 31.05 27.75 30.95C27.55 30.75 27.35 30.55 27.15 30.35C26.45 29.65 25.75 28.85 25.05 28.05C24.45 27.35 23.85 26.75 23.15 26.05C22.65 25.55 22.15 24.95 21.65 24.45C21.15 23.95 20.65 23.45 20.15 22.95C20.05 22.85 20.05 22.85 19.95 22.75C20.95 22.75 21.85 22.75 22.85 22.75C23.15 22.75 23.45 22.75 23.65 22.75C24.15 22.75 24.75 22.75 25.25 22.75C26.05 22.65 26.85 22.55 27.55 22.55C28.15 22.55 28.85 22.45 29.45 22.45C29.75 22.45 30.05 22.45 30.35 22.35C30.65 22.25 30.95 22.15 31.05 21.95C31.35 22.05 31.35 21.75 31.25 21.45Z" fill="#274C6C"/>
</svg>
