<svg width="32" height="37" viewBox="0 0 32 37" fill="none" xmlns="http://www.w3.org/2000/svg">
<path d="M30.3 17.4C28.7 17.4 27.1 17.5 25.6 17.5C24.8 17.5 24 17.5 23.2 17.5C23.1 16.7 22.8 15.9 22.4 15.2C22.7 14.9 22.9 14.6 23.2 14.4C23.9 13.7 24.6 13 25.3 12.2C25.8 11.7 25.8 11 25.3 10.5C24.9 10.1 24 10 23.6 10.5C23.2 10.9 22.8 11.4 22.4 11.8C21.9 12.4 21.4 12.9 20.9 13.4C20 12.7 18.9 12.2 17.7 12.1C17.6 10.5 17.5 8.99999 17.4 7.39999C17.3 6.19999 17.3 4.99999 17.2 3.89999C17.2 3.29999 17.1 2.80001 17.1 2.20001C17.1 1.90001 17.1 1.69999 17 1.39999C17 1.29999 17 1.20001 16.9 1.10001V1C16.8 0.4 16.3 0 15.8 0C15.2 0 14.7 0.4 14.7 1V1.10001C14.7 1.40001 14.7 1.7 14.7 2C14.7 2.5 14.8 2.89999 14.8 3.39999C14.9 4.29999 14.9 5.20001 15 6.10001C15.2 8.10001 15.3 10.2 15.5 12.2C14.8 12.4 14.1 12.7 13.6 13.2C13.1 12.7 12.6 12.2 12 11.7C11.6 11.4 11.2 11 10.8 10.7C10.5 10.5 10.2 10.2 9.8 10.2C9.7 10.2 9.5 10.2 9.4 10.2C9 10.3 8.6 10.7 8.6 11.2C8.6 11.6 8.9 12 9.2 12.2C9.5 12.5 9.8 12.8 10.1 13C10.7 13.6 11.3 14.2 11.9 14.8C11.4 15.5 11.1 16.4 11 17.3C9.4 17.3 7.8 17.3 6.1 17.2C5 17.2 3.9 17.1 2.8 17.1C2.3 17.1 1.9 17.1 1.4 17.1C1.2 17.1 0.899997 17.1 0.699997 17.2C0.499997 17.2 0.399995 17.3 0.299995 17.5C0.0999954 17.7 0 17.9 0 18.1V18.2C0 18.3 0 18.3 0 18.4C0 18.7 0.200002 18.9 0.400002 19.1C0.600002 19.3 0.799998 19.3 1.1 19.4C1.4 19.5 1.8 19.5 2.1 19.5C3.1 19.6 4.1 19.6 5 19.6C7.1 19.6 9.1 19.7 11.2 19.7C11.5 20.7 12 21.6 12.7 22.3C12.1 23 11.5 23.7 10.8 24.4C10.4 24.8 10.1 25.2 9.7 25.5C9.5 25.7 9.4 25.8 9.2 26C9.2 26 9.2 26 9.1 26.1C8.9 26.3 8.7 26.6 8.7 26.9C8.7 27.3 8.9 27.6 9.2 27.8C9.4 27.9 9.5 27.9 9.7 27.9C10.3 27.9 10.9 27.3 11.4 26.9C12 26.3 12.6 25.8 13.1 25.1C13.6 24.6 14 24.1 14.5 23.6C15.1 23.9 15.7 24.1 16.3 24.2C16.5 27.9 16.6 31.7 16.7 35.4C16.7 36 17.2 36.4 17.7 36.4C18.3 36.4 18.8 35.9 18.7 35.4C18.7 32.9 18.6 30.4 18.5 27.9C18.5 26.6 18.4 25.4 18.3 24.1C19.2 23.9 20.1 23.5 20.8 22.9C21.7 23.7 22.6 24.5 23.5 25.3C23.7 25.5 24 25.6 24.3 25.6C24.6 25.6 24.9 25.5 25.1 25.3C25.5 24.9 25.6 24.1 25.1 23.6C24.5 23.1 24 22.6 23.4 22.1L23.3 22C23.1 21.8 22.9 21.7 22.7 21.5C22.7 21.5 22.7 21.5 22.6 21.4C22.5 21.3 22.4 21.2 22.3 21.1C22.6 20.6 22.8 20.2 22.9 19.6C23.4 19.6 23.9 19.6 24.4 19.6C26.3 19.6 28.3 19.5 30.2 19.4C30.8 19.4 31.3 18.9 31.3 18.3C31.5 17.9 30.9 17.4 30.3 17.4Z" fill="#FFF6C4"/>
</svg>
