<svg width="32" height="40" viewBox="0 0 32 40" fill="none" xmlns="http://www.w3.org/2000/svg">
<path d="M16.95 39.2657C16.85 39.2657 16.85 39.2657 16.95 39.2657C16.85 39.2657 16.75 39.2657 16.65 39.1657C16.35 39.0657 16.25 38.6657 16.15 38.3657C15.95 37.3657 15.75 36.3657 15.55 35.3657C15.45 34.8657 15.35 34.3657 15.25 33.8657C15.15 33.3657 15.05 32.7657 14.95 32.2657C14.95 32.1657 14.95 32.1657 14.95 32.0657V32.1657C14.65 30.8657 14.35 29.5657 14.05 28.2657C13.75 27.0657 13.55 25.8657 13.15 24.6657C13.05 24.3657 12.95 24.0657 12.85 23.7657C12.85 23.6657 12.85 23.6657 12.85 23.5657C11.95 23.2657 10.95 23.0657 9.95 22.7657C9.35 22.6657 8.75 22.4657 8.15 22.2657C7.55 22.0657 6.95001 21.9657 6.25001 21.7657C5.05001 21.4657 3.95001 21.1657 2.75001 20.7657C2.15001 20.5657 1.65001 20.4657 1.05001 20.3657C0.850009 20.2657 0.650003 20.2657 0.450003 20.1657C0.350003 20.0657 0.15 20.0657 0.15 19.8657C-0.05 19.6657 -0.05 19.3657 0.15 19.1657C0.15 19.0657 0.150006 18.9657 0.250006 18.8657C0.450006 18.5657 0.750009 18.5657 1.05001 18.4657C1.35001 18.4657 1.55 18.3657 1.85 18.3657C2.25 18.3657 2.75 18.3657 3.15 18.2657C3.55 18.2657 3.85001 18.2657 4.25001 18.1657C4.85001 18.1657 5.45001 18.0657 6.05001 18.0657C6.65001 17.9657 7.25 17.9657 7.85 17.8657C8.45 17.7657 9.15001 17.6657 9.75001 17.6657C10.35 17.5657 10.95 17.5657 11.55 17.4657C11.85 17.4657 12.15 17.3657 12.35 17.3657C12.65 17.3657 12.85 17.2657 13.15 17.2657H13.25C13.25 17.2657 13.25 17.2657 13.25 17.1657C13.25 16.9657 13.35 16.7657 13.35 16.5657C13.35 16.4657 13.45 16.2657 13.45 16.1657V16.2657C13.45 16.0657 13.55 15.9657 13.55 15.7657C13.65 15.2657 13.75 14.8657 13.85 14.3657C14.05 13.2657 14.25 12.0657 14.45 10.9657C14.65 9.66569 14.95 8.36568 15.25 7.06568C15.35 6.46568 15.45 5.8657 15.65 5.2657C15.85 4.6657 15.95 4.06569 16.15 3.36569C16.25 2.76569 16.45 2.26569 16.55 1.66569C16.55 1.46569 16.65 1.26569 16.75 0.965692C16.75 0.865692 16.85 0.665683 16.95 0.565683C16.95 0.565683 16.95 0.565692 17.05 0.465692C17.05 0.365692 17.15 0.265689 17.25 0.165689C17.45 -0.0343107 17.75 -0.0343169 17.95 0.0656831C18.15 0.165683 18.25 0.465689 18.35 0.665689C18.45 0.965689 18.45 1.26568 18.55 1.56568C18.65 2.26568 18.75 2.86568 18.85 3.56568C19.05 4.86568 19.15 6.16569 19.35 7.46569C19.45 8.16569 19.55 8.86569 19.65 9.46569C19.75 10.0657 19.85 10.6657 19.95 11.3657C20.15 12.6657 20.25 13.8657 20.45 15.1657C20.55 15.7657 20.55 16.2657 20.65 16.8657C20.65 16.9657 20.65 16.9657 20.65 17.0657C20.75 17.0657 20.85 17.0657 20.95 17.0657C21.35 17.1657 21.65 17.2657 22.05 17.3657C22.35 17.4657 22.65 17.5657 22.85 17.5657C23.25 17.6657 23.65 17.7657 23.95 17.8657C24.35 17.8657 24.75 17.9657 25.15 18.0657C25.85 18.1657 26.55 18.2657 27.25 18.3657C27.85 18.4657 28.45 18.5657 29.05 18.6657C29.45 18.7657 29.85 18.7657 30.25 18.7657C30.65 18.7657 31.05 18.8657 31.25 19.1657C31.35 19.3657 31.35 19.6657 31.25 19.8657V19.9657C31.25 20.1657 31.05 20.3657 30.95 20.4657C30.85 20.4657 30.85 20.5657 30.75 20.5657C30.45 20.6657 30.15 20.7657 29.85 20.8657C29.15 21.0657 28.45 21.2657 27.85 21.3657C26.45 21.6657 25.15 22.0657 23.75 22.3657C22.85 22.5657 21.85 22.7657 20.95 23.0657C20.55 23.1657 20.15 23.2657 19.75 23.3657C19.65 23.7657 19.65 24.1657 19.55 24.5657C19.45 25.1657 19.35 25.7657 19.25 26.3657C19.05 27.6657 18.95 29.0657 18.75 30.3657C18.65 31.1657 18.65 31.8657 18.55 32.6657C18.55 32.9657 18.55 33.2657 18.45 33.5657V33.4657C18.45 33.6657 18.45 33.9657 18.45 34.1657V34.0657C18.35 34.9657 18.35 35.7657 18.35 36.6657C18.35 37.0657 18.35 37.4657 18.25 37.9657C18.25 38.1657 18.25 38.4657 18.15 38.6657C18.05 38.8657 17.85 39.0657 17.55 39.0657C17.05 39.3657 16.95 39.3657 16.95 39.2657Z" fill="#274C6C"/>
<path d="M9.25003 15.0657C9.25003 15.3657 9.45002 15.6657 9.65002 15.8657C9.95002 16.1657 10.25 16.2657 10.65 16.2657C10.85 16.2657 11.05 16.2657 11.15 16.1657C11.45 16.0657 11.75 15.7657 11.85 15.4657C11.95 15.1657 11.95 14.7657 11.85 14.3657C11.55 13.7657 10.85 13.3657 10.25 13.5657C10.05 13.5657 9.95003 13.6657 9.75003 13.7657C9.65003 13.7657 9.65003 13.8657 9.55003 13.9657L9.45003 14.0657C9.25003 14.2657 9.15002 14.5657 9.15002 14.9657C9.25002 14.9657 9.25003 15.0657 9.25003 15.0657ZM10.45 16.0657C10.35 16.0657 10.35 16.0657 10.25 16.0657C10.25 16.0657 10.15 16.0657 10.15 15.9657C10.25 16.0657 10.35 16.0657 10.45 16.0657Z" fill="#274C6C"/>
<path d="M23.65 13.2664C23.35 13.1664 22.95 13.0664 22.65 13.1664C22.35 13.2664 22.0499 13.4664 21.8499 13.6664C21.5499 14.0664 21.45 14.6664 21.65 15.1664C21.85 15.6664 22.2499 15.9664 22.8499 16.0664C22.9499 16.0664 22.95 16.0664 23.05 16.0664C23.55 16.0664 24.0499 15.7664 24.3499 15.3664C24.5499 14.9664 24.65 14.4664 24.45 14.0664C24.25 13.7664 23.95 13.4664 23.65 13.2664Z" fill="#274C6C"/>
<path d="M11.55 26.1664C11.65 25.7664 11.45 25.3664 11.15 24.9664C10.75 24.5664 10.15 24.4664 9.64998 24.6664C9.24998 24.8664 8.84998 25.2664 8.84998 25.7664C8.84998 26.2664 8.94998 26.7664 9.34998 27.0664C9.54998 27.2664 9.84998 27.3664 10.15 27.3664C10.35 27.3664 10.55 27.3664 10.65 27.2664C11.15 27.0664 11.45 26.6664 11.55 26.1664Z" fill="#274C6C"/>
<path d="M23.1502 25.3663C22.8502 24.9663 22.3502 24.7663 21.8502 24.8663C21.2502 24.9663 20.7502 25.4663 20.6502 26.0663C20.5502 26.6663 20.9502 27.2663 21.4502 27.5663C21.6502 27.6663 21.8502 27.6663 21.9502 27.6663C22.1502 27.6663 22.4502 27.5663 22.6502 27.4663C23.0502 27.2663 23.2502 26.8663 23.3502 26.4663C23.4502 26.0663 23.3502 25.6663 23.1502 25.3663Z" fill="#274C6C"/>
<path d="M7.05 15.3658C7.05 14.8658 6.64999 14.4658 6.14999 14.4658C5.64999 14.4658 5.25 14.8658 5.25 15.3658C5.25 15.8658 5.64999 16.2658 6.14999 16.2658C6.64999 16.1658 7.05 15.7658 7.05 15.3658Z" fill="#274C6C"/>
<path d="M11.35 10.8658C11.75 10.8658 12.05 10.5658 12.05 10.1658C12.05 9.76582 11.75 9.46582 11.35 9.46582C10.95 9.46582 10.65 9.76582 10.65 10.1658C10.65 10.5658 10.95 10.8658 11.35 10.8658Z" fill="#274C6C"/>
<path d="M7.35002 23.166C6.95002 23.166 6.65002 23.466 6.65002 23.866C6.65002 24.266 6.95002 24.566 7.35002 24.566C7.75002 24.566 8.05003 24.266 8.05003 23.866C8.05003 23.466 7.75002 23.166 7.35002 23.166Z" fill="#274C6C"/>
<path d="M11.45 30.4664C11.8366 30.4664 12.15 30.153 12.15 29.7664C12.15 29.3798 11.8366 29.0664 11.45 29.0664C11.0634 29.0664 10.75 29.3798 10.75 29.7664C10.75 30.153 11.0634 30.4664 11.45 30.4664Z" fill="#274C6C"/>
<path d="M21.65 10.566C22.0366 10.566 22.35 10.2526 22.35 9.86601C22.35 9.47941 22.0366 9.16602 21.65 9.16602C21.2634 9.16602 20.95 9.47941 20.95 9.86601C20.95 10.2526 21.2634 10.566 21.65 10.566Z" fill="#274C6C"/>
<path d="M26.2498 15.5664C25.8498 15.5664 25.5498 15.8664 25.5498 16.2664C25.5498 16.6664 25.8498 16.9664 26.2498 16.9664C26.6498 16.9664 26.9498 16.6664 26.9498 16.2664C26.9498 15.8664 26.6498 15.5664 26.2498 15.5664Z" fill="#274C6C"/>
<path d="M19.95 28.3662C19.65 28.3662 19.35 28.6662 19.35 28.9662C19.35 29.2662 19.65 29.5662 19.95 29.5662C20.25 29.5662 20.55 29.2662 20.55 28.9662C20.45 28.6662 20.25 28.3662 19.95 28.3662Z" fill="#274C6C"/>
<path d="M25.45 25.7662C25.8366 25.7662 26.15 25.4528 26.15 25.0662C26.15 24.6796 25.8366 24.3662 25.45 24.3662C25.0634 24.3662 24.75 24.6796 24.75 25.0662C24.75 25.4528 25.0634 25.7662 25.45 25.7662Z" fill="#274C6C"/>
</svg>
